var midifile = {
    "header":
    {
        "format": 0,
        "numTracks": 1,
        "ticksPerBeat": 1152
    },
    "tracks": [
        [
        {
            "deltaTime": 0,
            "meta": true,
            "type": "setTempo",
            "microsecondsPerBeat": 370370
        },
        {
            "deltaTime": 0,
            "channel": 0,
            "type": "noteOn",
            "noteNumber": 80,
            "velocity": 86
        },
        {
            "deltaTime": 571,
            "channel": 0,
            "type": "noteOn",
            "noteNumber": 73,
            "velocity": 69
        },
        {
            "deltaTime": 4,
            "channel": 0,
            "type": "noteOff",
            "noteNumber": 80,
            "velocity": 0
        },
        {
            "deltaTime": 571,
            "channel": 0,
            "type": "noteOff",
            "noteNumber": 73,
            "velocity": 0
        },
        {
            "deltaTime": 7,
            "channel": 0,
            "type": "noteOn",
            "noteNumber": 78,
            "velocity": 82
        },
        {
            "deltaTime": 571,
            "channel": 0,
            "type": "noteOn",
            "noteNumber": 69,
            "velocity": 90
        },
        {
            "deltaTime": 14,
            "channel": 0,
            "type": "noteOff",
            "noteNumber": 78,
            "velocity": 0
        },
        {
            "deltaTime": 1710,
            "channel": 0,
            "type": "noteOn",
            "noteNumber": 76,
            "velocity": 96
        },
        {
            "deltaTime": 2,
            "channel": 0,
            "type": "noteOff",
            "noteNumber": 69,
            "velocity": 0
        },
        {
            "deltaTime": 573,
            "channel": 0,
            "type": "noteOff",
            "noteNumber": 76,
            "velocity": 0
        },
        {
            "deltaTime": 7,
            "channel": 0,
            "type": "noteOn",
            "noteNumber": 75,
            "velocity": 72
        },
        {
            "deltaTime": 287,
            "channel": 0,
            "type": "noteOff",
            "noteNumber": 75,
            "velocity": 0
        },
        {
            "deltaTime": 283,
            "channel": 0,
            "type": "noteOn",
            "noteNumber": 73,
            "velocity": 88
        },
        {
            "deltaTime": 287,
            "channel": 0,
            "type": "noteOff",
            "noteNumber": 73,
            "velocity": 0
        },
        {
            "deltaTime": 283,
            "channel": 0,
            "type": "noteOn",
            "noteNumber": 72,
            "velocity": 88
        },
        {
            "deltaTime": 575,
            "channel": 0,
            "type": "noteOff",
            "noteNumber": 72,
            "velocity": 0
        },
        {
            "deltaTime": 7,
            "channel": 0,
            "type": "noteOn",
            "noteNumber": 73,
            "velocity": 98
        },
        {
            "deltaTime": 287,
            "channel": 0,
            "type": "noteOff",
            "noteNumber": 73,
            "velocity": 0
        },
        {
            "deltaTime": 283,
            "channel": 0,
            "type": "noteOn",
            "noteNumber": 68,
            "velocity": 89
        },
        {
            "deltaTime": 1495,
            "channel": 0,
            "type": "noteOff",
            "noteNumber": 68,
            "velocity": 0
        },
        {
            "deltaTime": 1384,
            "channel": 0,
            "type": "noteOn",
            "noteNumber": 80,
            "velocity": 101
        },
        {
            "deltaTime": 575,
            "channel": 0,
            "type": "noteOff",
            "noteNumber": 80,
            "velocity": 0
        },
        {
            "deltaTime": 7,
            "channel": 0,
            "type": "noteOn",
            "noteNumber": 73,
            "velocity": 47
        },
        {
            "deltaTime": 571,
            "channel": 0,
            "type": "noteOn",
            "noteNumber": 78,
            "velocity": 91
        },
        {
            "deltaTime": 4,
            "channel": 0,
            "type": "noteOff",
            "noteNumber": 73,
            "velocity": 0
        },
        {
            "deltaTime": 475,
            "channel": 0,
            "type": "noteOff",
            "noteNumber": 78,
            "velocity": 0
        },
        {
            "deltaTime": 103,
            "channel": 0,
            "type": "noteOn",
            "noteNumber": 69,
            "velocity": 80
        },
        {
            "deltaTime": 1514,
            "channel": 0,
            "type": "noteOff",
            "noteNumber": 69,
            "velocity": 0
        },
        {
            "deltaTime": 210,
            "channel": 0,
            "type": "noteOn",
            "noteNumber": 76,
            "velocity": 97
        },
        {
            "deltaTime": 571,
            "channel": 0,
            "type": "noteOn",
            "noteNumber": 75,
            "velocity": 80
        },
        {
            "deltaTime": 4,
            "channel": 0,
            "type": "noteOff",
            "noteNumber": 76,
            "velocity": 0
        },
        {
            "deltaTime": 571,
            "channel": 0,
            "type": "noteOff",
            "noteNumber": 75,
            "velocity": 0
        },
        {
            "deltaTime": 7,
            "channel": 0,
            "type": "noteOn",
            "noteNumber": 73,
            "velocity": 94
        },
        {
            "deltaTime": 571,
            "channel": 0,
            "type": "noteOn",
            "noteNumber": 72,
            "velocity": 85
        },
        {
            "deltaTime": 4,
            "channel": 0,
            "type": "noteOff",
            "noteNumber": 73,
            "velocity": 0
        },
        {
            "deltaTime": 479,
            "channel": 0,
            "type": "noteOff",
            "noteNumber": 72,
            "velocity": 0
        },
        {
            "deltaTime": 86,
            "channel": 0,
            "type": "noteOn",
            "noteNumber": 73,
            "velocity": 94
        },
        {
            "deltaTime": 326,
            "channel": 0,
            "type": "noteOff",
            "noteNumber": 73,
            "velocity": 0
        },
        {
            "deltaTime": 256,
            "channel": 0,
            "type": "noteOn",
            "noteNumber": 68,
            "velocity": 79
        },
        {
            "deltaTime": 571,
            "channel": 0,
            "type": "noteOn",
            "noteNumber": 71,
            "velocity": 110
        },
        {
            "deltaTime": 4,
            "channel": 0,
            "type": "noteOff",
            "noteNumber": 68,
            "velocity": 0
        },
        {
            "deltaTime": 571,
            "channel": 0,
            "type": "noteOff",
            "noteNumber": 71,
            "velocity": 0
        },
        {
            "deltaTime": 7,
            "channel": 0,
            "type": "noteOn",
            "noteNumber": 69,
            "velocity": 92
        },
        {
            "deltaTime": 571,
            "channel": 0,
            "type": "noteOn",
            "noteNumber": 68,
            "velocity": 109
        },
        {
            "deltaTime": 0,
            "channel": 0,
            "type": "noteOn",
            "noteNumber": 80,
            "velocity": 112
        },
        {
            "deltaTime": 4,
            "channel": 0,
            "type": "noteOff",
            "noteNumber": 69,
            "velocity": 0
        },
        {
            "deltaTime": 283,
            "channel": 0,
            "type": "noteOff",
            "noteNumber": 68,
            "velocity": 0
        },
        {
            "deltaTime": 0,
            "channel": 0,
            "type": "noteOff",
            "noteNumber": 80,
            "velocity": 0
        },
        {
            "deltaTime": 283,
            "channel": 0,
            "type": "noteOn",
            "noteNumber": 85,
            "velocity": 76
        },
        {
            "deltaTime": 0,
            "channel": 0,
            "type": "noteOn",
            "noteNumber": 49,
            "velocity": 89
        },
        {
            "deltaTime": 0,
            "channel": 0,
            "type": "noteOn",
            "noteNumber": 61,
            "velocity": 89
        },
        {
            "deltaTime": 120,
            "channel": 0,
            "type": "noteOff",
            "noteNumber": 85,
            "velocity": 0
        },
        {
            "deltaTime": 167,
            "channel": 0,
            "type": "noteOff",
            "noteNumber": 49,
            "velocity": 0
        },
        {
            "deltaTime": 0,
            "channel": 0,
            "type": "noteOff",
            "noteNumber": 61,
            "velocity": 0
        },
        {
            "deltaTime": 295,
            "channel": 0,
            "type": "noteOn",
            "noteNumber": 88,
            "velocity": 88
        },
        {
            "deltaTime": 0,
            "channel": 0,
            "type": "noteOn",
            "noteNumber": 68,
            "velocity": 90
        },
        {
            "deltaTime": 0,
            "channel": 0,
            "type": "noteOn",
            "noteNumber": 80,
            "velocity": 75
        },
        {
            "deltaTime": 288,
            "channel": 0,
            "type": "noteOff",
            "noteNumber": 88,
            "velocity": 0
        },
        {
            "deltaTime": 3,
            "channel": 0,
            "type": "noteOn",
            "noteNumber": 90,
            "velocity": 88
        },
        {
            "deltaTime": 176,
            "channel": 0,
            "type": "noteOff",
            "noteNumber": 80,
            "velocity": 0
        },
        {
            "deltaTime": 0,
            "channel": 0,
            "type": "noteOff",
            "noteNumber": 68,
            "velocity": 0
        },
        {
            "deltaTime": 103,
            "channel": 0,
            "type": "noteOn",
            "noteNumber": 73,
            "velocity": 79
        },
        {
            "deltaTime": 0,
            "channel": 0,
            "type": "noteOn",
            "noteNumber": 88,
            "velocity": 104
        },
        {
            "deltaTime": 0,
            "channel": 0,
            "type": "noteOn",
            "noteNumber": 61,
            "velocity": 92
        },
        {
            "deltaTime": 8,
            "channel": 0,
            "type": "noteOff",
            "noteNumber": 90,
            "velocity": 0
        },
        {
            "deltaTime": 279,
            "channel": 0,
            "type": "noteOff",
            "noteNumber": 88,
            "velocity": 0
        },
        {
            "deltaTime": 3,
            "channel": 0,
            "type": "noteOn",
            "noteNumber": 97,
            "velocity": 106
        },
        {
            "deltaTime": 284,
            "channel": 0,
            "type": "noteOff",
            "noteNumber": 61,
            "velocity": 0
        },
        {
            "deltaTime": 0,
            "channel": 0,
            "type": "noteOff",
            "noteNumber": 73,
            "velocity": 0
        },
        {
            "deltaTime": 3,
            "channel": 0,
            "type": "noteOff",
            "noteNumber": 97,
            "velocity": 0
        },
        {
            "deltaTime": 3,
            "channel": 0,
            "type": "noteOn",
            "noteNumber": 66,
            "velocity": 93
        },
        {
            "deltaTime": 0,
            "channel": 0,
            "type": "noteOn",
            "noteNumber": 78,
            "velocity": 83
        },
        {
            "deltaTime": 0,
            "channel": 0,
            "type": "noteOn",
            "noteNumber": 93,
            "velocity": 103
        },
        {
            "deltaTime": 279,
            "channel": 0,
            "type": "noteOn",
            "noteNumber": 92,
            "velocity": 85
        },
        {
            "deltaTime": 8,
            "channel": 0,
            "type": "noteOff",
            "noteNumber": 78,
            "velocity": 0
        },
        {
            "deltaTime": 0,
            "channel": 0,
            "type": "noteOff",
            "noteNumber": 93,
            "velocity": 0
        },
        {
            "deltaTime": 0,
            "channel": 0,
            "type": "noteOff",
            "noteNumber": 66,
            "velocity": 0
        },
        {
            "deltaTime": 279,
            "channel": 0,
            "type": "noteOff",
            "noteNumber": 92,
            "velocity": 0
        },
        {
            "deltaTime": 3,
            "channel": 0,
            "type": "noteOn",
            "noteNumber": 90,
            "velocity": 95
        },
        {
            "deltaTime": 0,
            "channel": 0,
            "type": "noteOn",
            "noteNumber": 69,
            "velocity": 88
        },
        {
            "deltaTime": 0,
            "channel": 0,
            "type": "noteOn",
            "noteNumber": 57,
            "velocity": 95
        },
        {
            "deltaTime": 288,
            "channel": 0,
            "type": "noteOff",
            "noteNumber": 90,
            "velocity": 0
        },
        {
            "deltaTime": 3,
            "channel": 0,
            "type": "noteOn",
            "noteNumber": 88,
            "velocity": 80
        },
        {
            "deltaTime": 279,
            "channel": 0,
            "type": "noteOn",
            "noteNumber": 87,
            "velocity": 109
        },
        {
            "deltaTime": 4,
            "channel": 0,
            "type": "noteOff",
            "noteNumber": 69,
            "velocity": 0
        },
        {
            "deltaTime": 0,
            "channel": 0,
            "type": "noteOff",
            "noteNumber": 57,
            "velocity": 0
        },
        {
            "deltaTime": 3,
            "channel": 0,
            "type": "noteOff",
            "noteNumber": 88,
            "velocity": 0
        },
        {
            "deltaTime": 279,
            "channel": 0,
            "type": "noteOff",
            "noteNumber": 87,
            "velocity": 0
        },
        {
            "deltaTime": 3,
            "channel": 0,
            "type": "noteOn",
            "noteNumber": 85,
            "velocity": 74
        },
        {
            "deltaTime": 288,
            "channel": 0,
            "type": "noteOff",
            "noteNumber": 85,
            "velocity": 0
        },
        {
            "deltaTime": 3,
            "channel": 0,
            "type": "noteOn",
            "noteNumber": 84,
            "velocity": 87
        },
        {
            "deltaTime": 208,
            "channel": 0,
            "type": "noteOff",
            "noteNumber": 84,
            "velocity": 0
        },
        {
            "deltaTime": 82,
            "channel": 0,
            "type": "noteOn",
            "noteNumber": 81,
            "velocity": 79
        },
        {
            "deltaTime": 279,
            "channel": 0,
            "type": "noteOn",
            "noteNumber": 68,
            "velocity": 93
        },
        {
            "deltaTime": 0,
            "channel": 0,
            "type": "noteOn",
            "noteNumber": 80,
            "velocity": 93
        },
        {
            "deltaTime": 0,
            "channel": 0,
            "type": "noteOn",
            "noteNumber": 64,
            "velocity": 98
        },
        {
            "deltaTime": 8,
            "channel": 0,
            "type": "noteOff",
            "noteNumber": 81,
            "velocity": 0
        },
        {
            "deltaTime": 257,
            "channel": 0,
            "type": "noteOff",
            "noteNumber": 68,
            "velocity": 0
        },
        {
            "deltaTime": 0,
            "channel": 0,
            "type": "noteOff",
            "noteNumber": 80,
            "velocity": 0
        },
        {
            "deltaTime": 309,
            "channel": 0,
            "type": "noteOff",
            "noteNumber": 64,
            "velocity": 0
        },
        {
            "deltaTime": 7,
            "channel": 0,
            "type": "noteOn",
            "noteNumber": 63,
            "velocity": 85
        },
        {
            "deltaTime": 0,
            "channel": 0,
            "type": "noteOn",
            "noteNumber": 81,
            "velocity": 81
        },
        {
            "deltaTime": 255,
            "channel": 0,
            "type": "noteOn",
            "noteNumber": 83,
            "velocity": 79
        },
        {
            "deltaTime": 52,
            "channel": 0,
            "type": "noteOff",
            "noteNumber": 81,
            "velocity": 0
        },
        {
            "deltaTime": 93,
            "channel": 0,
            "type": "noteOff",
            "noteNumber": 63,
            "velocity": 0
        },
        {
            "deltaTime": 97,
            "channel": 0,
            "type": "noteOn",
            "noteNumber": 81,
            "velocity": 72
        },
        {
            "deltaTime": 11,
            "channel": 0,
            "type": "noteOff",
            "noteNumber": 83,
            "velocity": 0
        },
        {
            "deltaTime": 61,
            "channel": 0,
            "type": "noteOn",
            "noteNumber": 61,
            "velocity": 95
        },
        {
            "deltaTime": 170,
            "channel": 0,
            "type": "noteOn",
            "noteNumber": 83,
            "velocity": 68
        },
        {
            "deltaTime": 30,
            "channel": 0,
            "type": "noteOff",
            "noteNumber": 81,
            "velocity": 0
        },
        {
            "deltaTime": 34,
            "channel": 0,
            "type": "noteOff",
            "noteNumber": 61,
            "velocity": 0
        },
        {
            "deltaTime": 47,
            "channel": 0,
            "type": "noteOff",
            "noteNumber": 83,
            "velocity": 0
        },
        {
            "deltaTime": 45,
            "channel": 0,
            "type": "noteOn",
            "noteNumber": 81,
            "velocity": 55
        },
        {
            "deltaTime": 127,
            "channel": 0,
            "type": "noteOff",
            "noteNumber": 81,
            "velocity": 0
        },
        {
            "deltaTime": 6,
            "channel": 0,
            "type": "noteOn",
            "noteNumber": 83,
            "velocity": 63
        },
        {
            "deltaTime": 121,
            "channel": 0,
            "type": "noteOn",
            "noteNumber": 60,
            "velocity": 85
        },
        {
            "deltaTime": 34,
            "channel": 0,
            "type": "noteOff",
            "noteNumber": 83,
            "velocity": 0
        },
        {
            "deltaTime": 1,
            "channel": 0,
            "type": "noteOn",
            "noteNumber": 81,
            "velocity": 59
        },
        {
            "deltaTime": 153,
            "channel": 0,
            "type": "noteOff",
            "noteNumber": 81,
            "velocity": 0
        },
        {
            "deltaTime": 4,
            "channel": 0,
            "type": "noteOn",
            "noteNumber": 80,
            "velocity": 42
        },
        {
            "deltaTime": 151,
            "channel": 0,
            "type": "noteOff",
            "noteNumber": 80,
            "velocity": 0
        },
        {
            "deltaTime": 18,
            "channel": 0,
            "type": "noteOn",
            "noteNumber": 78,
            "velocity": 55
        },
        {
            "deltaTime": 167,
            "channel": 0,
            "type": "noteOff",
            "noteNumber": 78,
            "velocity": 0
        },
        {
            "deltaTime": 38,
            "channel": 0,
            "type": "noteOn",
            "noteNumber": 76,
            "velocity": 89
        },
        {
            "deltaTime": 0,
            "channel": 0,
            "type": "noteOn",
            "noteNumber": 61,
            "velocity": 85
        },
        {
            "deltaTime": 4,
            "channel": 0,
            "type": "noteOff",
            "noteNumber": 60,
            "velocity": 0
        },
        {
            "deltaTime": 160,
            "channel": 0,
            "type": "noteOff",
            "noteNumber": 61,
            "velocity": 0
        },
        {
            "deltaTime": 405,
            "channel": 0,
            "type": "noteOn",
            "noteNumber": 87,
            "velocity": 71
        },
        {
            "deltaTime": 0,
            "channel": 0,
            "type": "noteOn",
            "noteNumber": 44,
            "velocity": 94
        },
        {
            "deltaTime": 0,
            "channel": 0,
            "type": "noteOn",
            "noteNumber": 56,
            "velocity": 85
        },
        {
            "deltaTime": 4,
            "channel": 0,
            "type": "noteOff",
            "noteNumber": 76,
            "velocity": 0
        },
        {
            "deltaTime": 571,
            "channel": 0,
            "type": "noteOff",
            "noteNumber": 87,
            "velocity": 0
        },
        {
            "deltaTime": 7,
            "channel": 0,
            "type": "noteOn",
            "noteNumber": 84,
            "velocity": 100
        },
        {
            "deltaTime": 465,
            "channel": 0,
            "type": "noteOff",
            "noteNumber": 44,
            "velocity": 0
        },
        {
            "deltaTime": 0,
            "channel": 0,
            "type": "noteOff",
            "noteNumber": 56,
            "velocity": 0
        },
        {
            "deltaTime": 105,
            "channel": 0,
            "type": "noteOn",
            "noteNumber": 75,
            "velocity": 82
        },
        {
            "deltaTime": 4,
            "channel": 0,
            "type": "noteOff",
            "noteNumber": 84,
            "velocity": 0
        },
        {
            "deltaTime": 571,
            "channel": 0,
            "type": "noteOff",
            "noteNumber": 75,
            "velocity": 0
        },
        {
            "deltaTime": 7,
            "channel": 0,
            "type": "noteOn",
            "noteNumber": 76,
            "velocity": 95
        },
        {
            "deltaTime": 287,
            "channel": 0,
            "type": "noteOff",
            "noteNumber": 76,
            "velocity": 0
        },
        {
            "deltaTime": 854,
            "channel": 0,
            "type": "noteOn",
            "noteNumber": 68,
            "velocity": 106
        },
        {
            "deltaTime": 0,
            "channel": 0,
            "type": "noteOn",
            "noteNumber": 80,
            "velocity": 101
        },
        {
            "deltaTime": 0,
            "channel": 0,
            "type": "noteOn",
            "noteNumber": 73,
            "velocity": 101
        },
        {
            "deltaTime": 287,
            "channel": 0,
            "type": "noteOff",
            "noteNumber": 68,
            "velocity": 0
        },
        {
            "deltaTime": 0,
            "channel": 0,
            "type": "noteOff",
            "noteNumber": 73,
            "velocity": 0
        },
        {
            "deltaTime": 0,
            "channel": 0,
            "type": "noteOff",
            "noteNumber": 80,
            "velocity": 0
        },
        {
            "deltaTime": 295,
            "channel": 0,
            "type": "noteOn",
            "noteNumber": 68,
            "velocity": 95
        },
        {
            "deltaTime": 0,
            "channel": 0,
            "type": "noteOn",
            "noteNumber": 76,
            "velocity": 85
        },
        {
            "deltaTime": 0,
            "channel": 0,
            "type": "noteOn",
            "noteNumber": 61,
            "velocity": 100
        },
        {
            "deltaTime": 0,
            "channel": 0,
            "type": "noteOn",
            "noteNumber": 49,
            "velocity": 76
        },
        {
            "deltaTime": 287,
            "channel": 0,
            "type": "noteOff",
            "noteNumber": 76,
            "velocity": 0
        },
        {
            "deltaTime": 0,
            "channel": 0,
            "type": "noteOff",
            "noteNumber": 68,
            "velocity": 0
        },
        {
            "deltaTime": 0,
            "channel": 0,
            "type": "noteOff",
            "noteNumber": 61,
            "velocity": 0
        },
        {
            "deltaTime": 0,
            "channel": 0,
            "type": "noteOff",
            "noteNumber": 49,
            "velocity": 0
        },
        {
            "deltaTime": 283,
            "channel": 0,
            "type": "noteOn",
            "noteNumber": 66,
            "velocity": 105
        },
        {
            "deltaTime": 0,
            "channel": 0,
            "type": "noteOn",
            "noteNumber": 72,
            "velocity": 94
        },
        {
            "deltaTime": 0,
            "channel": 0,
            "type": "noteOn",
            "noteNumber": 90,
            "velocity": 100
        },
        {
            "deltaTime": 0,
            "channel": 0,
            "type": "noteOn",
            "noteNumber": 60,
            "velocity": 94
        },
        {
            "deltaTime": 244,
            "channel": 0,
            "type": "noteOff",
            "noteNumber": 72,
            "velocity": 0
        },
        {
            "deltaTime": 0,
            "channel": 0,
            "type": "noteOff",
            "noteNumber": 66,
            "velocity": 0
        },
        {
            "deltaTime": 0,
            "channel": 0,
            "type": "noteOff",
            "noteNumber": 60,
            "velocity": 0
        },
        {
            "deltaTime": 43,
            "channel": 0,
            "type": "noteOff",
            "noteNumber": 90,
            "velocity": 0
        },
        {
            "deltaTime": 3,
            "channel": 0,
            "type": "noteOn",
            "noteNumber": 88,
            "velocity": 94
        },
        {
            "deltaTime": 287,
            "channel": 0,
            "type": "noteOff",
            "noteNumber": 88,
            "velocity": 0
        },
        {
            "deltaTime": 3,
            "channel": 0,
            "type": "noteOn",
            "noteNumber": 87,
            "velocity": 94
        },
        {
            "deltaTime": 182,
            "channel": 0,
            "type": "noteOn",
            "noteNumber": 84,
            "velocity": 99
        },
        {
            "deltaTime": 9,
            "channel": 0,
            "type": "noteOff",
            "noteNumber": 87,
            "velocity": 0
        },
        {
            "deltaTime": 182,
            "channel": 0,
            "type": "noteOff",
            "noteNumber": 84,
            "velocity": 0
        },
        {
            "deltaTime": 2,
            "channel": 0,
            "type": "noteOn",
            "noteNumber": 81,
            "velocity": 76
        },
        {
            "deltaTime": 192,
            "channel": 0,
            "type": "noteOff",
            "noteNumber": 81,
            "velocity": 0
        },
        {
            "deltaTime": 2,
            "channel": 0,
            "type": "noteOn",
            "noteNumber": 45,
            "velocity": 105
        },
        {
            "deltaTime": 0,
            "channel": 0,
            "type": "noteOn",
            "noteNumber": 66,
            "velocity": 96
        },
        {
            "deltaTime": 0,
            "channel": 0,
            "type": "noteOn",
            "noteNumber": 33,
            "velocity": 110
        },
        {
            "deltaTime": 0,
            "channel": 0,
            "type": "noteOn",
            "noteNumber": 78,
            "velocity": 99
        },
        {
            "deltaTime": 0,
            "channel": 0,
            "type": "noteOn",
            "noteNumber": 72,
            "velocity": 105
        },
        {
            "deltaTime": 0,
            "channel": 0,
            "type": "noteOn",
            "noteNumber": 75,
            "velocity": 90
        },
        {
            "deltaTime": 575,
            "channel": 0,
            "type": "noteOff",
            "noteNumber": 75,
            "velocity": 0
        },
        {
            "deltaTime": 0,
            "channel": 0,
            "type": "noteOff",
            "noteNumber": 45,
            "velocity": 0
        },
        {
            "deltaTime": 0,
            "channel": 0,
            "type": "noteOff",
            "noteNumber": 33,
            "velocity": 0
        },
        {
            "deltaTime": 0,
            "channel": 0,
            "type": "noteOff",
            "noteNumber": 66,
            "velocity": 0
        },
        {
            "deltaTime": 0,
            "channel": 0,
            "type": "noteOff",
            "noteNumber": 78,
            "velocity": 0
        },
        {
            "deltaTime": 0,
            "channel": 0,
            "type": "noteOff",
            "noteNumber": 72,
            "velocity": 0
        },
        {
            "deltaTime": 578,
            "channel": 0,
            "type": "noteOn",
            "noteNumber": 52,
            "velocity": 85
        },
        {
            "deltaTime": 0,
            "channel": 0,
            "type": "noteOn",
            "noteNumber": 76,
            "velocity": 99
        },
        {
            "deltaTime": 0,
            "channel": 0,
            "type": "noteOn",
            "noteNumber": 64,
            "velocity": 85
        },
        {
            "deltaTime": 287,
            "channel": 0,
            "type": "noteOff",
            "noteNumber": 76,
            "velocity": 0
        },
        {
            "deltaTime": 3,
            "channel": 0,
            "type": "noteOn",
            "noteNumber": 88,
            "velocity": 84
        },
        {
            "deltaTime": 213,
            "channel": 0,
            "type": "noteOff",
            "noteNumber": 88,
            "velocity": 0
        },
        {
            "deltaTime": 65,
            "channel": 0,
            "type": "noteOn",
            "noteNumber": 75,
            "velocity": 99
        },
        {
            "deltaTime": 0,
            "channel": 0,
            "type": "noteOn",
            "noteNumber": 63,
            "velocity": 85
        },
        {
            "deltaTime": 4,
            "channel": 0,
            "type": "noteOff",
            "noteNumber": 52,
            "velocity": 0
        },
        {
            "deltaTime": 0,
            "channel": 0,
            "type": "noteOff",
            "noteNumber": 64,
            "velocity": 0
        },
        {
            "deltaTime": 283,
            "channel": 0,
            "type": "noteOff",
            "noteNumber": 75,
            "velocity": 0
        },
        {
            "deltaTime": 0,
            "channel": 0,
            "type": "noteOff",
            "noteNumber": 63,
            "velocity": 0
        },
        {
            "deltaTime": 3,
            "channel": 0,
            "type": "noteOn",
            "noteNumber": 87,
            "velocity": 87
        },
        {
            "deltaTime": 213,
            "channel": 0,
            "type": "noteOff",
            "noteNumber": 87,
            "velocity": 0
        },
        {
            "deltaTime": 77,
            "channel": 0,
            "type": "noteOn",
            "noteNumber": 49,
            "velocity": 92
        },
        {
            "deltaTime": 0,
            "channel": 0,
            "type": "noteOn",
            "noteNumber": 61,
            "velocity": 92
        },
        {
            "deltaTime": 0,
            "channel": 0,
            "type": "noteOn",
            "noteNumber": 73,
            "velocity": 102
        },
        {
            "deltaTime": 0,
            "channel": 0,
            "type": "noteOn",
            "noteNumber": 68,
            "velocity": 102
        },
        {
            "deltaTime": 287,
            "channel": 0,
            "type": "noteOff",
            "noteNumber": 61,
            "velocity": 0
        },
        {
            "deltaTime": 0,
            "channel": 0,
            "type": "noteOff",
            "noteNumber": 73,
            "velocity": 0
        },
        {
            "deltaTime": 0,
            "channel": 0,
            "type": "noteOff",
            "noteNumber": 68,
            "velocity": 0
        },
        {
            "deltaTime": 0,
            "channel": 0,
            "type": "noteOff",
            "noteNumber": 49,
            "velocity": 0
        },
        {
            "deltaTime": 283,
            "channel": 0,
            "type": "noteOn",
            "noteNumber": 84,
            "velocity": 110
        },
        {
            "deltaTime": 0,
            "channel": 0,
            "type": "noteOn",
            "noteNumber": 60,
            "velocity": 100
        },
        {
            "deltaTime": 0,
            "channel": 0,
            "type": "noteOn",
            "noteNumber": 48,
            "velocity": 100
        },
        {
            "deltaTime": 0,
            "channel": 0,
            "type": "noteOn",
            "noteNumber": 78,
            "velocity": 110
        },
        {
            "deltaTime": 0,
            "channel": 0,
            "type": "noteOn",
            "noteNumber": 72,
            "velocity": 110
        },
        {
            "deltaTime": 287,
            "channel": 0,
            "type": "noteOff",
            "noteNumber": 60,
            "velocity": 0
        },
        {
            "deltaTime": 0,
            "channel": 0,
            "type": "noteOff",
            "noteNumber": 72,
            "velocity": 0
        },
        {
            "deltaTime": 0,
            "channel": 0,
            "type": "noteOff",
            "noteNumber": 78,
            "velocity": 0
        },
        {
            "deltaTime": 0,
            "channel": 0,
            "type": "noteOff",
            "noteNumber": 84,
            "velocity": 0
        },
        {
            "deltaTime": 0,
            "channel": 0,
            "type": "noteOff",
            "noteNumber": 48,
            "velocity": 0
        },
        {
            "deltaTime": 283,
            "channel": 0,
            "type": "noteOn",
            "noteNumber": 85,
            "velocity": 117
        },
        {
            "deltaTime": 0,
            "channel": 0,
            "type": "noteOn",
            "noteNumber": 76,
            "velocity": 117
        },
        {
            "deltaTime": 0,
            "channel": 0,
            "type": "noteOn",
            "noteNumber": 49,
            "velocity": 113
        },
        {
            "deltaTime": 0,
            "channel": 0,
            "type": "noteOn",
            "noteNumber": 73,
            "velocity": 108
        },
        {
            "deltaTime": 0,
            "channel": 0,
            "type": "noteOn",
            "noteNumber": 61,
            "velocity": 113
        },
        {
            "deltaTime": 448,
            "channel": 0,
            "type": "noteOff",
            "noteNumber": 61,
            "velocity": 0
        },
        {
            "deltaTime": 0,
            "channel": 0,
            "type": "noteOff",
            "noteNumber": 85,
            "velocity": 0
        },
        {
            "deltaTime": 0,
            "channel": 0,
            "type": "noteOff",
            "noteNumber": 76,
            "velocity": 0
        },
        {
            "deltaTime": 0,
            "channel": 0,
            "type": "noteOff",
            "noteNumber": 73,
            "velocity": 0
        },
        {
            "deltaTime": 0,
            "channel": 0,
            "type": "noteOff",
            "noteNumber": 49,
            "velocity": 0
        },
        {
            "deltaTime": 705,
            "channel": 0,
            "type": "noteOn",
            "noteNumber": 37,
            "velocity": 95
        },
        {
            "deltaTime": 0,
            "channel": 0,
            "type": "noteOn",
            "noteNumber": 49,
            "velocity": 95
        },
        {
            "deltaTime": 287,
            "channel": 0,
            "type": "noteOff",
            "noteNumber": 49,
            "velocity": 0
        },
        {
            "deltaTime": 0,
            "channel": 0,
            "type": "noteOff",
            "noteNumber": 37,
            "velocity": 0
        },
        {
            "deltaTime": 441,
            "channel": 0,
            "type": "noteOn",
            "noteNumber": 80,
            "velocity": 31
        },
        {
            "deltaTime": 133,
            "channel": 0,
            "type": "noteOn",
            "noteNumber": 84,
            "velocity": 46
        },
        {
            "deltaTime": 10,
            "channel": 0,
            "type": "noteOff",
            "noteNumber": 80,
            "velocity": 0
        },
        {
            "deltaTime": 133,
            "channel": 0,
            "type": "noteOff",
            "noteNumber": 84,
            "velocity": 0
        },
        {
            "deltaTime": 1,
            "channel": 0,
            "type": "noteOn",
            "noteNumber": 87,
            "velocity": 71
        },
        {
            "deltaTime": 143,
            "channel": 0,
            "type": "noteOff",
            "noteNumber": 87,
            "velocity": 0
        },
        {
            "deltaTime": 1,
            "channel": 0,
            "type": "noteOn",
            "noteNumber": 97,
            "velocity": 71
        },
        {
            "deltaTime": 0,
            "channel": 0,
            "type": "noteOn",
            "noteNumber": 68,
            "velocity": 49
        },
        {
            "deltaTime": 287,
            "channel": 0,
            "type": "noteOff",
            "noteNumber": 97,
            "velocity": 0
        },
        {
            "deltaTime": 0,
            "channel": 0,
            "type": "noteOff",
            "noteNumber": 68,
            "velocity": 0
        },
        {
            "deltaTime": 283,
            "channel": 0,
            "type": "noteOn",
            "noteNumber": 37,
            "velocity": 59
        },
        {
            "deltaTime": 0,
            "channel": 0,
            "type": "noteOn",
            "noteNumber": 73,
            "velocity": 71
        },
        {
            "deltaTime": 0,
            "channel": 0,
            "type": "noteOn",
            "noteNumber": 85,
            "velocity": 67
        },
        {
            "deltaTime": 287,
            "channel": 0,
            "type": "noteOff",
            "noteNumber": 73,
            "velocity": 0
        },
        {
            "deltaTime": 0,
            "channel": 0,
            "type": "noteOff",
            "noteNumber": 37,
            "velocity": 0
        },
        {
            "deltaTime": 287,
            "channel": 0,
            "type": "noteOff",
            "noteNumber": 85,
            "velocity": 0
        },
        {
            "deltaTime": 7,
            "channel": 0,
            "type": "noteOn",
            "noteNumber": 56,
            "velocity": 68
        },
        {
            "deltaTime": 0,
            "channel": 0,
            "type": "noteOn",
            "noteNumber": 95,
            "velocity": 80
        },
        {
            "deltaTime": 0,
            "channel": 0,
            "type": "noteOn",
            "noteNumber": 76,
            "velocity": 83
        },
        {
            "deltaTime": 287,
            "channel": 0,
            "type": "noteOff",
            "noteNumber": 76,
            "velocity": 0
        },
        {
            "deltaTime": 0,
            "channel": 0,
            "type": "noteOff",
            "noteNumber": 56,
            "velocity": 0
        },
        {
            "deltaTime": 0,
            "channel": 0,
            "type": "noteOff",
            "noteNumber": 95,
            "velocity": 0
        },
        {
            "deltaTime": 3,
            "channel": 0,
            "type": "noteOn",
            "noteNumber": 78,
            "velocity": 72
        },
        {
            "deltaTime": 279,
            "channel": 0,
            "type": "noteOn",
            "noteNumber": 80,
            "velocity": 82
        },
        {
            "deltaTime": 0,
            "channel": 0,
            "type": "noteOn",
            "noteNumber": 49,
            "velocity": 61
        },
        {
            "deltaTime": 0,
            "channel": 0,
            "type": "noteOn",
            "noteNumber": 76,
            "velocity": 71
        },
        {
            "deltaTime": 8,
            "channel": 0,
            "type": "noteOff",
            "noteNumber": 78,
            "velocity": 0
        },
        {
            "deltaTime": 279,
            "channel": 0,
            "type": "noteOff",
            "noteNumber": 76,
            "velocity": 0
        },
        {
            "deltaTime": 3,
            "channel": 0,
            "type": "noteOn",
            "noteNumber": 73,
            "velocity": 92
        },
        {
            "deltaTime": 284,
            "channel": 0,
            "type": "noteOff",
            "noteNumber": 49,
            "velocity": 0
        },
        {
            "deltaTime": 0,
            "channel": 0,
            "type": "noteOff",
            "noteNumber": 80,
            "velocity": 0
        },
        {
            "deltaTime": 3,
            "channel": 0,
            "type": "noteOff",
            "noteNumber": 73,
            "velocity": 0
        },
        {
            "deltaTime": 3,
            "channel": 0,
            "type": "noteOn",
            "noteNumber": 54,
            "velocity": 75
        },
        {
            "deltaTime": 0,
            "channel": 0,
            "type": "noteOn",
            "noteNumber": 69,
            "velocity": 99
        },
        {
            "deltaTime": 0,
            "channel": 0,
            "type": "noteOn",
            "noteNumber": 93,
            "velocity": 81
        },
        {
            "deltaTime": 279,
            "channel": 0,
            "type": "noteOn",
            "noteNumber": 68,
            "velocity": 78
        },
        {
            "deltaTime": 8,
            "channel": 0,
            "type": "noteOff",
            "noteNumber": 54,
            "velocity": 0
        },
        {
            "deltaTime": 0,
            "channel": 0,
            "type": "noteOff",
            "noteNumber": 69,
            "velocity": 0
        },
        {
            "deltaTime": 0,
            "channel": 0,
            "type": "noteOff",
            "noteNumber": 93,
            "velocity": 0
        },
        {
            "deltaTime": 279,
            "channel": 0,
            "type": "noteOff",
            "noteNumber": 68,
            "velocity": 0
        },
        {
            "deltaTime": 3,
            "channel": 0,
            "type": "noteOn",
            "noteNumber": 45,
            "velocity": 85
        },
        {
            "deltaTime": 0,
            "channel": 0,
            "type": "noteOn",
            "noteNumber": 88,
            "velocity": 97
        },
        {
            "deltaTime": 0,
            "channel": 0,
            "type": "noteOn",
            "noteNumber": 66,
            "velocity": 85
        },
        {
            "deltaTime": 287,
            "channel": 0,
            "type": "noteOff",
            "noteNumber": 66,
            "velocity": 0
        },
        {
            "deltaTime": 3,
            "channel": 0,
            "type": "noteOn",
            "noteNumber": 76,
            "velocity": 92
        },
        {
            "deltaTime": 284,
            "channel": 0,
            "type": "noteOff",
            "noteNumber": 88,
            "velocity": 0
        },
        {
            "deltaTime": 3,
            "channel": 0,
            "type": "noteOff",
            "noteNumber": 76,
            "velocity": 0
        },
        {
            "deltaTime": 3,
            "channel": 0,
            "type": "noteOn",
            "noteNumber": 91,
            "velocity": 117
        },
        {
            "deltaTime": 0,
            "channel": 0,
            "type": "noteOn",
            "noteNumber": 75,
            "velocity": 117
        },
        {
            "deltaTime": 279,
            "channel": 0,
            "type": "noteOn",
            "noteNumber": 73,
            "velocity": 85
        },
        {
            "deltaTime": 8,
            "channel": 0,
            "type": "noteOff",
            "noteNumber": 75,
            "velocity": 0
        },
        {
            "deltaTime": 0,
            "channel": 0,
            "type": "noteOff",
            "noteNumber": 91,
            "velocity": 0
        },
        {
            "deltaTime": 279,
            "channel": 0,
            "type": "noteOff",
            "noteNumber": 73,
            "velocity": 0
        },
        {
            "deltaTime": 3,
            "channel": 0,
            "type": "noteOn",
            "noteNumber": 85,
            "velocity": 103
        },
        {
            "deltaTime": 0,
            "channel": 0,
            "type": "noteOn",
            "noteNumber": 69,
            "velocity": 95
        },
        {
            "deltaTime": 287,
            "channel": 0,
            "type": "noteOff",
            "noteNumber": 69,
            "velocity": 0
        },
        {
            "deltaTime": 3,
            "channel": 0,
            "type": "noteOn",
            "noteNumber": 67,
            "velocity": 101
        },
        {
            "deltaTime": 279,
            "channel": 0,
            "type": "noteOn",
            "noteNumber": 52,
            "velocity": 85
        },
        {
            "deltaTime": 0,
            "channel": 0,
            "type": "noteOn",
            "noteNumber": 80,
            "velocity": 100
        },
        {
            "deltaTime": 0,
            "channel": 0,
            "type": "noteOn",
            "noteNumber": 68,
            "velocity": 100
        },
        {
            "deltaTime": 2,
            "channel": 0,
            "type": "noteOff",
            "noteNumber": 45,
            "velocity": 0
        },
        {
            "deltaTime": 2,
            "channel": 0,
            "type": "noteOff",
            "noteNumber": 85,
            "velocity": 0
        },
        {
            "deltaTime": 3,
            "channel": 0,
            "type": "noteOff",
            "noteNumber": 67,
            "velocity": 0
        },
        {
            "deltaTime": 140,
            "channel": 0,
            "type": "noteOff",
            "noteNumber": 68,
            "velocity": 0
        },
        {
            "deltaTime": 139,
            "channel": 0,
            "type": "noteOff",
            "noteNumber": 80,
            "velocity": 0
        },
        {
            "deltaTime": 218,
            "channel": 0,
            "type": "noteOff",
            "noteNumber": 52,
            "velocity": 0
        },
        {
            "deltaTime": 76,
            "channel": 0,
            "type": "noteOn",
            "noteNumber": 81,
            "velocity": 95
        },
        {
            "deltaTime": 0,
            "channel": 0,
            "type": "noteOn",
            "noteNumber": 51,
            "velocity": 72
        },
        {
            "deltaTime": 12,
            "channel": 0,
            "type": "noteOn",
            "noteNumber": 69,
            "velocity": 76
        },
        {
            "deltaTime": 267,
            "channel": 0,
            "type": "noteOn",
            "noteNumber": 71,
            "velocity": 58
        },
        {
            "deltaTime": 8,
            "channel": 0,
            "type": "noteOff",
            "noteNumber": 51,
            "velocity": 0
        },
        {
            "deltaTime": 72,
            "channel": 0,
            "type": "noteOff",
            "noteNumber": 69,
            "velocity": 0
        },
        {
            "deltaTime": 89,
            "channel": 0,
            "type": "noteOn",
            "noteNumber": 69,
            "velocity": 72
        },
        {
            "deltaTime": 38,
            "channel": 0,
            "type": "noteOff",
            "noteNumber": 71,
            "velocity": 0
        },
        {
            "deltaTime": 18,
            "channel": 0,
            "type": "noteOff",
            "noteNumber": 81,
            "velocity": 0
        },
        {
            "deltaTime": 64,
            "channel": 0,
            "type": "noteOn",
            "noteNumber": 49,
            "velocity": 78
        },
        {
            "deltaTime": 24,
            "channel": 0,
            "type": "noteOn",
            "noteNumber": 71,
            "velocity": 71
        },
        {
            "deltaTime": 36,
            "channel": 0,
            "type": "noteOff",
            "noteNumber": 69,
            "velocity": 0
        },
        {
            "deltaTime": 84,
            "channel": 0,
            "type": "noteOn",
            "noteNumber": 69,
            "velocity": 59
        },
        {
            "deltaTime": 17,
            "channel": 0,
            "type": "noteOff",
            "noteNumber": 71,
            "velocity": 0
        },
        {
            "deltaTime": 124,
            "channel": 0,
            "type": "noteOff",
            "noteNumber": 49,
            "velocity": 0
        },
        {
            "deltaTime": 3,
            "channel": 0,
            "type": "noteOn",
            "noteNumber": 71,
            "velocity": 74
        },
        {
            "deltaTime": 50,
            "channel": 0,
            "type": "noteOff",
            "noteNumber": 69,
            "velocity": 0
        },
        {
            "deltaTime": 57,
            "channel": 0,
            "type": "noteOff",
            "noteNumber": 71,
            "velocity": 0
        },
        {
            "deltaTime": 1,
            "channel": 0,
            "type": "noteOn",
            "noteNumber": 69,
            "velocity": 55
        },
        {
            "deltaTime": 124,
            "channel": 0,
            "type": "noteOff",
            "noteNumber": 69,
            "velocity": 0
        },
        {
            "deltaTime": 8,
            "channel": 0,
            "type": "noteOn",
            "noteNumber": 71,
            "velocity": 47
        },
        {
            "deltaTime": 48,
            "channel": 0,
            "type": "noteOn",
            "noteNumber": 48,
            "velocity": 88
        },
        {
            "deltaTime": 0,
            "channel": 0,
            "type": "noteOn",
            "noteNumber": 84,
            "velocity": 95
        },
        {
            "deltaTime": 48,
            "channel": 0,
            "type": "noteOn",
            "noteNumber": 69,
            "velocity": 47
        },
        {
            "deltaTime": 56,
            "channel": 0,
            "type": "noteOff",
            "noteNumber": 71,
            "velocity": 0
        },
        {
            "deltaTime": 89,
            "channel": 0,
            "type": "noteOn",
            "noteNumber": 68,
            "velocity": 25
        },
        {
            "deltaTime": 7,
            "channel": 0,
            "type": "noteOff",
            "noteNumber": 69,
            "velocity": 0
        },
        {
            "deltaTime": 85,
            "channel": 0,
            "type": "noteOff",
            "noteNumber": 84,
            "velocity": 0
        },
        {
            "deltaTime": 0,
            "channel": 0,
            "type": "noteOff",
            "noteNumber": 48,
            "velocity": 0
        },
        {
            "deltaTime": 57,
            "channel": 0,
            "type": "noteOff",
            "noteNumber": 68,
            "velocity": 0
        },
        {
            "deltaTime": 18,
            "channel": 0,
            "type": "noteOn",
            "noteNumber": 66,
            "velocity": 42
        },
        {
            "deltaTime": 167,
            "channel": 0,
            "type": "noteOff",
            "noteNumber": 66,
            "velocity": 0
        },
        {
            "deltaTime": 38,
            "channel": 0,
            "type": "noteOn",
            "noteNumber": 49,
            "velocity": 98
        },
        {
            "deltaTime": 0,
            "channel": 0,
            "type": "noteOn",
            "noteNumber": 64,
            "velocity": 95
        },
        {
            "deltaTime": 0,
            "channel": 0,
            "type": "noteOn",
            "noteNumber": 85,
            "velocity": 95
        },
        {
            "deltaTime": 165,
            "channel": 0,
            "type": "noteOff",
            "noteNumber": 49,
            "velocity": 0
        },
        {
            "deltaTime": 405,
            "channel": 0,
            "type": "noteOn",
            "noteNumber": 87,
            "velocity": 95
        },
        {
            "deltaTime": 0,
            "channel": 0,
            "type": "noteOn",
            "noteNumber": 75,
            "velocity": 95
        },
        {
            "deltaTime": 0,
            "channel": 0,
            "type": "noteOn",
            "noteNumber": 44,
            "velocity": 85
        },
        {
            "deltaTime": 4,
            "channel": 0,
            "type": "noteOff",
            "noteNumber": 85,
            "velocity": 0
        },
        {
            "deltaTime": 0,
            "channel": 0,
            "type": "noteOff",
            "noteNumber": 64,
            "velocity": 0
        },
        {
            "deltaTime": 283,
            "channel": 0,
            "type": "noteOff",
            "noteNumber": 44,
            "velocity": 0
        },
        {
            "deltaTime": 3,
            "channel": 0,
            "type": "noteOn",
            "noteNumber": 46,
            "velocity": 61
        },
        {
            "deltaTime": 284,
            "channel": 0,
            "type": "noteOff",
            "noteNumber": 87,
            "velocity": 0
        },
        {
            "deltaTime": 0,
            "channel": 0,
            "type": "noteOff",
            "noteNumber": 75,
            "velocity": 0
        },
        {
            "deltaTime": 3,
            "channel": 0,
            "type": "noteOff",
            "noteNumber": 46,
            "velocity": 0
        },
        {
            "deltaTime": 3,
            "channel": 0,
            "type": "noteOn",
            "noteNumber": 88,
            "velocity": 95
        },
        {
            "deltaTime": 0,
            "channel": 0,
            "type": "noteOn",
            "noteNumber": 72,
            "velocity": 95
        },
        {
            "deltaTime": 0,
            "channel": 0,
            "type": "noteOn",
            "noteNumber": 48,
            "velocity": 84
        },
        {
            "deltaTime": 279,
            "channel": 0,
            "type": "noteOn",
            "noteNumber": 49,
            "velocity": 73
        },
        {
            "deltaTime": 8,
            "channel": 0,
            "type": "noteOff",
            "noteNumber": 48,
            "velocity": 0
        },
        {
            "deltaTime": 279,
            "channel": 0,
            "type": "noteOff",
            "noteNumber": 49,
            "velocity": 0
        },
        {
            "deltaTime": 3,
            "channel": 0,
            "type": "noteOn",
            "noteNumber": 93,
            "velocity": 95
        },
        {
            "deltaTime": 0,
            "channel": 0,
            "type": "noteOn",
            "noteNumber": 63,
            "velocity": 95
        },
        {
            "deltaTime": 0,
            "channel": 0,
            "type": "noteOn",
            "noteNumber": 51,
            "velocity": 69
        },
        {
            "deltaTime": 4,
            "channel": 0,
            "type": "noteOff",
            "noteNumber": 88,
            "velocity": 0
        },
        {
            "deltaTime": 0,
            "channel": 0,
            "type": "noteOff",
            "noteNumber": 72,
            "velocity": 0
        },
        {
            "deltaTime": 283,
            "channel": 0,
            "type": "noteOff",
            "noteNumber": 63,
            "velocity": 0
        },
        {
            "deltaTime": 0,
            "channel": 0,
            "type": "noteOff",
            "noteNumber": 51,
            "velocity": 0
        },
        {
            "deltaTime": 0,
            "channel": 0,
            "type": "noteOff",
            "noteNumber": 93,
            "velocity": 0
        },
        {
            "deltaTime": 3,
            "channel": 0,
            "type": "noteOn",
            "noteNumber": 54,
            "velocity": 93
        },
        {
            "deltaTime": 287,
            "channel": 0,
            "type": "noteOff",
            "noteNumber": 54,
            "velocity": 0
        },
        {
            "deltaTime": 3,
            "channel": 0,
            "type": "noteOn",
            "noteNumber": 52,
            "velocity": 93
        },
        {
            "deltaTime": 0,
            "channel": 0,
            "type": "noteOn",
            "noteNumber": 83,
            "velocity": 86
        },
        {
            "deltaTime": 0,
            "channel": 0,
            "type": "noteOn",
            "noteNumber": 92,
            "velocity": 93
        },
        {
            "deltaTime": 0,
            "channel": 0,
            "type": "noteOn",
            "noteNumber": 68,
            "velocity": 93
        },
        {
            "deltaTime": 0,
            "channel": 0,
            "type": "noteOn",
            "noteNumber": 64,
            "velocity": 93
        },
        {
            "deltaTime": 0,
            "channel": 0,
            "type": "noteOn",
            "noteNumber": 76,
            "velocity": 86
        },
        {
            "deltaTime": 287,
            "channel": 0,
            "type": "noteOff",
            "noteNumber": 64,
            "velocity": 0
        },
        {
            "deltaTime": 0,
            "channel": 0,
            "type": "noteOff",
            "noteNumber": 52,
            "velocity": 0
        },
        {
            "deltaTime": 0,
            "channel": 0,
            "type": "noteOff",
            "noteNumber": 92,
            "velocity": 0
        },
        {
            "deltaTime": 0,
            "channel": 0,
            "type": "noteOff",
            "noteNumber": 76,
            "velocity": 0
        },
        {
            "deltaTime": 0,
            "channel": 0,
            "type": "noteOff",
            "noteNumber": 68,
            "velocity": 0
        },
        {
            "deltaTime": 0,
            "channel": 0,
            "type": "noteOff",
            "noteNumber": 83,
            "velocity": 0
        },
        {
            "deltaTime": 283,
            "channel": 0,
            "type": "noteOn",
            "noteNumber": 88,
            "velocity": 100
        },
        {
            "deltaTime": 0,
            "channel": 0,
            "type": "noteOn",
            "noteNumber": 68,
            "velocity": 100
        },
        {
            "deltaTime": 0,
            "channel": 0,
            "type": "noteOn",
            "noteNumber": 52,
            "velocity": 100
        },
        {
            "deltaTime": 0,
            "channel": 0,
            "type": "noteOn",
            "noteNumber": 76,
            "velocity": 92
        },
        {
            "deltaTime": 0,
            "channel": 0,
            "type": "noteOn",
            "noteNumber": 83,
            "velocity": 73
        },
        {
            "deltaTime": 287,
            "channel": 0,
            "type": "noteOff",
            "noteNumber": 52,
            "velocity": 0
        },
        {
            "deltaTime": 0,
            "channel": 0,
            "type": "noteOff",
            "noteNumber": 68,
            "velocity": 0
        },
        {
            "deltaTime": 0,
            "channel": 0,
            "type": "noteOff",
            "noteNumber": 76,
            "velocity": 0
        },
        {
            "deltaTime": 0,
            "channel": 0,
            "type": "noteOff",
            "noteNumber": 83,
            "velocity": 0
        },
        {
            "deltaTime": 0,
            "channel": 0,
            "type": "noteOff",
            "noteNumber": 88,
            "velocity": 0
        },
        {
            "deltaTime": 3,
            "channel": 0,
            "type": "noteOn",
            "noteNumber": 66,
            "velocity": 88
        },
        {
            "deltaTime": 0,
            "channel": 0,
            "type": "noteOn",
            "noteNumber": 54,
            "velocity": 81
        },
        {
            "deltaTime": 0,
            "channel": 0,
            "type": "noteOn",
            "noteNumber": 78,
            "velocity": 74
        },
        {
            "deltaTime": 0,
            "channel": 0,
            "type": "noteOn",
            "noteNumber": 81,
            "velocity": 78
        },
        {
            "deltaTime": 225,
            "channel": 0,
            "type": "noteOff",
            "noteNumber": 54,
            "velocity": 0
        },
        {
            "deltaTime": 0,
            "channel": 0,
            "type": "noteOff",
            "noteNumber": 78,
            "velocity": 0
        },
        {
            "deltaTime": 0,
            "channel": 0,
            "type": "noteOff",
            "noteNumber": 66,
            "velocity": 0
        },
        {
            "deltaTime": 0,
            "channel": 0,
            "type": "noteOff",
            "noteNumber": 81,
            "velocity": 0
        },
        {
            "deltaTime": 53,
            "channel": 0,
            "type": "noteOn",
            "noteNumber": 78,
            "velocity": 78
        },
        {
            "deltaTime": 0,
            "channel": 0,
            "type": "noteOn",
            "noteNumber": 56,
            "velocity": 100
        },
        {
            "deltaTime": 0,
            "channel": 0,
            "type": "noteOn",
            "noteNumber": 85,
            "velocity": 95
        },
        {
            "deltaTime": 0,
            "channel": 0,
            "type": "noteOn",
            "noteNumber": 76,
            "velocity": 85
        },
        {
            "deltaTime": 0,
            "channel": 0,
            "type": "noteOn",
            "noteNumber": 64,
            "velocity": 86
        },
        {
            "deltaTime": 0,
            "channel": 0,
            "type": "noteOn",
            "noteNumber": 68,
            "velocity": 79
        },
        {
            "deltaTime": 192,
            "channel": 0,
            "type": "noteOff",
            "noteNumber": 56,
            "velocity": 0
        },
        {
            "deltaTime": 0,
            "channel": 0,
            "type": "noteOff",
            "noteNumber": 85,
            "velocity": 0
        },
        {
            "deltaTime": 0,
            "channel": 0,
            "type": "noteOff",
            "noteNumber": 64,
            "velocity": 0
        },
        {
            "deltaTime": 0,
            "channel": 0,
            "type": "noteOff",
            "noteNumber": 76,
            "velocity": 0
        },
        {
            "deltaTime": 0,
            "channel": 0,
            "type": "noteOff",
            "noteNumber": 78,
            "velocity": 0
        },
        {
            "deltaTime": 2,
            "channel": 0,
            "type": "noteOn",
            "noteNumber": 83,
            "velocity": 66
        },
        {
            "deltaTime": 7,
            "channel": 0,
            "type": "noteOff",
            "noteNumber": 68,
            "velocity": 0
        },
        {
            "deltaTime": 184,
            "channel": 0,
            "type": "noteOff",
            "noteNumber": 83,
            "velocity": 0
        },
        {
            "deltaTime": 2,
            "channel": 0,
            "type": "noteOn",
            "noteNumber": 81,
            "velocity": 63
        },
        {
            "deltaTime": 192,
            "channel": 0,
            "type": "noteOff",
            "noteNumber": 81,
            "velocity": 0
        },
        {
            "deltaTime": 2,
            "channel": 0,
            "type": "noteOn",
            "noteNumber": 49,
            "velocity": 85
        },
        {
            "deltaTime": 0,
            "channel": 0,
            "type": "noteOn",
            "noteNumber": 80,
            "velocity": 82
        },
        {
            "deltaTime": 0,
            "channel": 0,
            "type": "noteOn",
            "noteNumber": 92,
            "velocity": 84
        },
        {
            "deltaTime": 0,
            "channel": 0,
            "type": "noteOn",
            "noteNumber": 73,
            "velocity": 70
        },
        {
            "deltaTime": 192,
            "channel": 0,
            "type": "noteOff",
            "noteNumber": 49,
            "velocity": 0
        },
        {
            "deltaTime": 0,
            "channel": 0,
            "type": "noteOff",
            "noteNumber": 92,
            "velocity": 0
        },
        {
            "deltaTime": 0,
            "channel": 0,
            "type": "noteOff",
            "noteNumber": 80,
            "velocity": 0
        },
        {
            "deltaTime": 0,
            "channel": 0,
            "type": "noteOff",
            "noteNumber": 73,
            "velocity": 0
        },
        {
            "deltaTime": 2,
            "channel": 0,
            "type": "noteOn",
            "noteNumber": 90,
            "velocity": 85
        },
        {
            "deltaTime": 182,
            "channel": 0,
            "type": "noteOn",
            "noteNumber": 88,
            "velocity": 108
        },
        {
            "deltaTime": 9,
            "channel": 0,
            "type": "noteOff",
            "noteNumber": 90,
            "velocity": 0
        },
        {
            "deltaTime": 182,
            "channel": 0,
            "type": "noteOff",
            "noteNumber": 88,
            "velocity": 0
        },
        {
            "deltaTime": 2,
            "channel": 0,
            "type": "noteOn",
            "noteNumber": 66,
            "velocity": 105
        },
        {
            "deltaTime": 0,
            "channel": 0,
            "type": "noteOn",
            "noteNumber": 81,
            "velocity": 105
        },
        {
            "deltaTime": 0,
            "channel": 0,
            "type": "noteOn",
            "noteNumber": 72,
            "velocity": 105
        },
        {
            "deltaTime": 0,
            "channel": 0,
            "type": "noteOn",
            "noteNumber": 75,
            "velocity": 105
        },
        {
            "deltaTime": 0,
            "channel": 0,
            "type": "noteOn",
            "noteNumber": 54,
            "velocity": 85
        },
        {
            "deltaTime": 287,
            "channel": 0,
            "type": "noteOff",
            "noteNumber": 75,
            "velocity": 0
        },
        {
            "deltaTime": 0,
            "channel": 0,
            "type": "noteOff",
            "noteNumber": 66,
            "velocity": 0
        },
        {
            "deltaTime": 0,
            "channel": 0,
            "type": "noteOff",
            "noteNumber": 54,
            "velocity": 0
        },
        {
            "deltaTime": 0,
            "channel": 0,
            "type": "noteOff",
            "noteNumber": 72,
            "velocity": 0
        },
        {
            "deltaTime": 0,
            "channel": 0,
            "type": "noteOff",
            "noteNumber": 81,
            "velocity": 0
        },
        {
            "deltaTime": 295,
            "channel": 0,
            "type": "noteOn",
            "noteNumber": 90,
            "velocity": 59
        },
        {
            "deltaTime": 0,
            "channel": 0,
            "type": "noteOn",
            "noteNumber": 45,
            "velocity": 89
        },
        {
            "deltaTime": 0,
            "channel": 0,
            "type": "noteOn",
            "noteNumber": 33,
            "velocity": 89
        },
        {
            "deltaTime": 0,
            "channel": 0,
            "type": "noteOn",
            "noteNumber": 66,
            "velocity": 59
        },
        {
            "deltaTime": 287,
            "channel": 0,
            "type": "noteOff",
            "noteNumber": 90,
            "velocity": 0
        },
        {
            "deltaTime": 283,
            "channel": 0,
            "type": "noteOn",
            "noteNumber": 87,
            "velocity": 83
        },
        {
            "deltaTime": 0,
            "channel": 0,
            "type": "noteOn",
            "noteNumber": 68,
            "velocity": 83
        },
        {
            "deltaTime": 4,
            "channel": 0,
            "type": "noteOff",
            "noteNumber": 66,
            "velocity": 0
        },
        {
            "deltaTime": 283,
            "channel": 0,
            "type": "noteOff",
            "noteNumber": 87,
            "velocity": 0
        },
        {
            "deltaTime": 0,
            "channel": 0,
            "type": "noteOff",
            "noteNumber": 68,
            "velocity": 0
        },
        {
            "deltaTime": 283,
            "channel": 0,
            "type": "noteOn",
            "noteNumber": 69,
            "velocity": 98
        },
        {
            "deltaTime": 0,
            "channel": 0,
            "type": "noteOn",
            "noteNumber": 81,
            "velocity": 98
        },
        {
            "deltaTime": 9,
            "channel": 0,
            "type": "noteOff",
            "noteNumber": 33,
            "velocity": 0
        },
        {
            "deltaTime": 0,
            "channel": 0,
            "type": "noteOff",
            "noteNumber": 45,
            "velocity": 0
        },
        {
            "deltaTime": 278,
            "channel": 0,
            "type": "noteOff",
            "noteNumber": 69,
            "velocity": 0
        },
        {
            "deltaTime": 0,
            "channel": 0,
            "type": "noteOff",
            "noteNumber": 81,
            "velocity": 0
        },
        {
            "deltaTime": 295,
            "channel": 0,
            "type": "noteOn",
            "noteNumber": 68,
            "velocity": 85
        },
        {
            "deltaTime": 0,
            "channel": 0,
            "type": "noteOn",
            "noteNumber": 71,
            "velocity": 91
        },
        {
            "deltaTime": 0,
            "channel": 0,
            "type": "noteOn",
            "noteNumber": 52,
            "velocity": 85
        },
        {
            "deltaTime": 0,
            "channel": 0,
            "type": "noteOn",
            "noteNumber": 64,
            "velocity": 85
        },
        {
            "deltaTime": 0,
            "channel": 0,
            "type": "noteOn",
            "noteNumber": 83,
            "velocity": 91
        },
        {
            "deltaTime": 287,
            "channel": 0,
            "type": "noteOff",
            "noteNumber": 52,
            "velocity": 0
        },
        {
            "deltaTime": 0,
            "channel": 0,
            "type": "noteOff",
            "noteNumber": 64,
            "velocity": 0
        },
        {
            "deltaTime": 0,
            "channel": 0,
            "type": "noteOff",
            "noteNumber": 83,
            "velocity": 0
        },
        {
            "deltaTime": 0,
            "channel": 0,
            "type": "noteOff",
            "noteNumber": 68,
            "velocity": 0
        },
        {
            "deltaTime": 0,
            "channel": 0,
            "type": "noteOff",
            "noteNumber": 71,
            "velocity": 0
        },
        {
            "deltaTime": 3,
            "channel": 0,
            "type": "noteOn",
            "noteNumber": 107,
            "velocity": 69
        },
        {
            "deltaTime": 0,
            "channel": 0,
            "type": "noteOn",
            "noteNumber": 95,
            "velocity": 92
        },
        {
            "deltaTime": 279,
            "channel": 0,
            "type": "noteOn",
            "noteNumber": 80,
            "velocity": 106
        },
        {
            "deltaTime": 0,
            "channel": 0,
            "type": "noteOn",
            "noteNumber": 68,
            "velocity": 99
        },
        {
            "deltaTime": 8,
            "channel": 0,
            "type": "noteOff",
            "noteNumber": 107,
            "velocity": 0
        },
        {
            "deltaTime": 0,
            "channel": 0,
            "type": "noteOff",
            "noteNumber": 95,
            "velocity": 0
        },
        {
            "deltaTime": 279,
            "channel": 0,
            "type": "noteOff",
            "noteNumber": 80,
            "velocity": 0
        },
        {
            "deltaTime": 0,
            "channel": 0,
            "type": "noteOff",
            "noteNumber": 68,
            "velocity": 0
        },
        {
            "deltaTime": 3,
            "channel": 0,
            "type": "noteOn",
            "noteNumber": 104,
            "velocity": 64
        },
        {
            "deltaTime": 0,
            "channel": 0,
            "type": "noteOn",
            "noteNumber": 92,
            "velocity": 91
        },
        {
            "deltaTime": 287,
            "channel": 0,
            "type": "noteOff",
            "noteNumber": 92,
            "velocity": 0
        },
        {
            "deltaTime": 0,
            "channel": 0,
            "type": "noteOff",
            "noteNumber": 104,
            "velocity": 0
        },
        {
            "deltaTime": 3,
            "channel": 0,
            "type": "noteOn",
            "noteNumber": 68,
            "velocity": 106
        },
        {
            "deltaTime": 0,
            "channel": 0,
            "type": "noteOn",
            "noteNumber": 61,
            "velocity": 106
        },
        {
            "deltaTime": 0,
            "channel": 0,
            "type": "noteOn",
            "noteNumber": 71,
            "velocity": 106
        },
        {
            "deltaTime": 0,
            "channel": 0,
            "type": "noteOn",
            "noteNumber": 76,
            "velocity": 106
        },
        {
            "deltaTime": 0,
            "channel": 0,
            "type": "noteOn",
            "noteNumber": 49,
            "velocity": 108
        },
        {
            "deltaTime": 279,
            "channel": 0,
            "type": "noteOn",
            "noteNumber": 93,
            "velocity": 70
        },
        {
            "deltaTime": 0,
            "channel": 0,
            "type": "noteOn",
            "noteNumber": 88,
            "velocity": 102
        },
        {
            "deltaTime": 0,
            "channel": 0,
            "type": "noteOn",
            "noteNumber": 100,
            "velocity": 54
        },
        {
            "deltaTime": 8,
            "channel": 0,
            "type": "noteOff",
            "noteNumber": 68,
            "velocity": 0
        },
        {
            "deltaTime": 0,
            "channel": 0,
            "type": "noteOff",
            "noteNumber": 61,
            "velocity": 0
        },
        {
            "deltaTime": 0,
            "channel": 0,
            "type": "noteOff",
            "noteNumber": 71,
            "velocity": 0
        },
        {
            "deltaTime": 0,
            "channel": 0,
            "type": "noteOff",
            "noteNumber": 76,
            "velocity": 0
        },
        {
            "deltaTime": 0,
            "channel": 0,
            "type": "noteOff",
            "noteNumber": 49,
            "velocity": 0
        },
        {
            "deltaTime": 279,
            "channel": 0,
            "type": "noteOff",
            "noteNumber": 88,
            "velocity": 0
        },
        {
            "deltaTime": 0,
            "channel": 0,
            "type": "noteOff",
            "noteNumber": 100,
            "velocity": 0
        },
        {
            "deltaTime": 0,
            "channel": 0,
            "type": "noteOff",
            "noteNumber": 93,
            "velocity": 0
        },
        {
            "deltaTime": 3,
            "channel": 0,
            "type": "noteOn",
            "noteNumber": 73,
            "velocity": 106
        },
        {
            "deltaTime": 0,
            "channel": 0,
            "type": "noteOn",
            "noteNumber": 85,
            "velocity": 106
        },
        {
            "deltaTime": 287,
            "channel": 0,
            "type": "noteOff",
            "noteNumber": 73,
            "velocity": 0
        },
        {
            "deltaTime": 0,
            "channel": 0,
            "type": "noteOff",
            "noteNumber": 85,
            "velocity": 0
        },
        {
            "deltaTime": 3,
            "channel": 0,
            "type": "noteOn",
            "noteNumber": 92,
            "velocity": 71
        },
        {
            "deltaTime": 0,
            "channel": 0,
            "type": "noteOn",
            "noteNumber": 97,
            "velocity": 65
        },
        {
            "deltaTime": 279,
            "channel": 0,
            "type": "noteOn",
            "noteNumber": 80,
            "velocity": 109
        },
        {
            "deltaTime": 0,
            "channel": 0,
            "type": "noteOn",
            "noteNumber": 90,
            "velocity": 109
        },
        {
            "deltaTime": 0,
            "channel": 0,
            "type": "noteOn",
            "noteNumber": 48,
            "velocity": 98
        },
        {
            "deltaTime": 0,
            "channel": 0,
            "type": "noteOn",
            "noteNumber": 60,
            "velocity": 98
        },
        {
            "deltaTime": 0,
            "channel": 0,
            "type": "noteOn",
            "noteNumber": 96,
            "velocity": 87
        },
        {
            "deltaTime": 0,
            "channel": 0,
            "type": "noteOn",
            "noteNumber": 84,
            "velocity": 109
        },
        {
            "deltaTime": 8,
            "channel": 0,
            "type": "noteOff",
            "noteNumber": 92,
            "velocity": 0
        },
        {
            "deltaTime": 0,
            "channel": 0,
            "type": "noteOff",
            "noteNumber": 97,
            "velocity": 0
        },
        {
            "deltaTime": 567,
            "channel": 0,
            "type": "noteOff",
            "noteNumber": 96,
            "velocity": 0
        },
        {
            "deltaTime": 0,
            "channel": 0,
            "type": "noteOff",
            "noteNumber": 80,
            "velocity": 0
        },
        {
            "deltaTime": 0,
            "channel": 0,
            "type": "noteOff",
            "noteNumber": 84,
            "velocity": 0
        },
        {
            "deltaTime": 0,
            "channel": 0,
            "type": "noteOff",
            "noteNumber": 48,
            "velocity": 0
        },
        {
            "deltaTime": 0,
            "channel": 0,
            "type": "noteOff",
            "noteNumber": 90,
            "velocity": 0
        },
        {
            "deltaTime": 0,
            "channel": 0,
            "type": "noteOff",
            "noteNumber": 60,
            "velocity": 0
        },
        {
            "deltaTime": 7,
            "channel": 0,
            "type": "noteOn",
            "noteNumber": 75,
            "velocity": 95
        },
        {
            "deltaTime": 0,
            "channel": 0,
            "type": "noteOn",
            "noteNumber": 87,
            "velocity": 95
        },
        {
            "deltaTime": 287,
            "channel": 0,
            "type": "noteOff",
            "noteNumber": 75,
            "velocity": 0
        },
        {
            "deltaTime": 0,
            "channel": 0,
            "type": "noteOff",
            "noteNumber": 87,
            "velocity": 0
        },
        {
            "deltaTime": 283,
            "channel": 0,
            "type": "noteOn",
            "noteNumber": 56,
            "velocity": 110
        },
        {
            "deltaTime": 0,
            "channel": 0,
            "type": "noteOn",
            "noteNumber": 66,
            "velocity": 110
        },
        {
            "deltaTime": 0,
            "channel": 0,
            "type": "noteOn",
            "noteNumber": 44,
            "velocity": 110
        },
        {
            "deltaTime": 0,
            "channel": 0,
            "type": "noteOn",
            "noteNumber": 90,
            "velocity": 110
        },
        {
            "deltaTime": 0,
            "channel": 0,
            "type": "noteOn",
            "noteNumber": 78,
            "velocity": 110
        },
        {
            "deltaTime": 287,
            "channel": 0,
            "type": "noteOff",
            "noteNumber": 44,
            "velocity": 0
        },
        {
            "deltaTime": 0,
            "channel": 0,
            "type": "noteOff",
            "noteNumber": 56,
            "velocity": 0
        },
        {
            "deltaTime": 0,
            "channel": 0,
            "type": "noteOff",
            "noteNumber": 66,
            "velocity": 0
        },
        {
            "deltaTime": 0,
            "channel": 0,
            "type": "noteOff",
            "noteNumber": 90,
            "velocity": 0
        },
        {
            "deltaTime": 0,
            "channel": 0,
            "type": "noteOff",
            "noteNumber": 78,
            "velocity": 0
        },
        {
            "deltaTime": 295,
            "channel": 0,
            "type": "noteOn",
            "noteNumber": 54,
            "velocity": 120
        },
        {
            "deltaTime": 0,
            "channel": 0,
            "type": "noteOn",
            "noteNumber": 69,
            "velocity": 120
        },
        {
            "deltaTime": 0,
            "channel": 0,
            "type": "noteOn",
            "noteNumber": 72,
            "velocity": 120
        },
        {
            "deltaTime": 0,
            "channel": 0,
            "type": "noteOn",
            "noteNumber": 63,
            "velocity": 120
        },
        {
            "deltaTime": 0,
            "channel": 0,
            "type": "noteOn",
            "noteNumber": 81,
            "velocity": 121
        },
        {
            "deltaTime": 0,
            "channel": 0,
            "type": "noteOn",
            "noteNumber": 35,
            "velocity": 105
        },
        {
            "deltaTime": 279,
            "channel": 0,
            "type": "noteOn",
            "noteNumber": 36,
            "velocity": 100
        },
        {
            "deltaTime": 8,
            "channel": 0,
            "type": "noteOff",
            "noteNumber": 35,
            "velocity": 0
        },
        {
            "deltaTime": 279,
            "channel": 0,
            "type": "noteOff",
            "noteNumber": 36,
            "velocity": 0
        },
        {
            "deltaTime": 3,
            "channel": 0,
            "type": "noteOn",
            "noteNumber": 49,
            "velocity": 117
        },
        {
            "deltaTime": 0,
            "channel": 0,
            "type": "noteOn",
            "noteNumber": 37,
            "velocity": 117
        },
        {
            "deltaTime": 292,
            "channel": 0,
            "type": "noteOff",
            "noteNumber": 69,
            "velocity": 0
        },
        {
            "deltaTime": 0,
            "channel": 0,
            "type": "noteOff",
            "noteNumber": 54,
            "velocity": 0
        },
        {
            "deltaTime": 0,
            "channel": 0,
            "type": "noteOff",
            "noteNumber": 63,
            "velocity": 0
        },
        {
            "deltaTime": 0,
            "channel": 0,
            "type": "noteOff",
            "noteNumber": 72,
            "velocity": 0
        },
        {
            "deltaTime": 0,
            "channel": 0,
            "type": "noteOff",
            "noteNumber": 81,
            "velocity": 0
        },
        {
            "deltaTime": 283,
            "channel": 0,
            "type": "noteOff",
            "noteNumber": 37,
            "velocity": 0
        },
        {
            "deltaTime": 0,
            "channel": 0,
            "type": "noteOff",
            "noteNumber": 49,
            "velocity": 0
        },
        {
            "deltaTime": 7,
            "channel": 0,
            "type": "noteOn",
            "noteNumber": 68,
            "velocity": 60
        },
        {
            "deltaTime": 0,
            "channel": 0,
            "type": "noteOn",
            "noteNumber": 85,
            "velocity": 76
        },
        {
            "deltaTime": 0,
            "channel": 0,
            "type": "noteOn",
            "noteNumber": 64,
            "velocity": 60
        },
        {
            "deltaTime": 0,
            "channel": 0,
            "type": "noteOn",
            "noteNumber": 63,
            "velocity": 60
        },
        {
            "deltaTime": 218,
            "channel": 0,
            "type": "noteOff",
            "noteNumber": 85,
            "velocity": 0
        },
        {
            "deltaTime": 61,
            "channel": 0,
            "type": "noteOn",
            "noteNumber": 84,
            "velocity": 78
        },
        {
            "deltaTime": 218,
            "channel": 0,
            "type": "noteOff",
            "noteNumber": 84,
            "velocity": 0
        },
        {
            "deltaTime": 73,
            "channel": 0,
            "type": "noteOn",
            "noteNumber": 85,
            "velocity": 73
        },
        {
            "deltaTime": 4,
            "channel": 0,
            "type": "noteOff",
            "noteNumber": 64,
            "velocity": 0
        },
        {
            "deltaTime": 0,
            "channel": 0,
            "type": "noteOff",
            "noteNumber": 63,
            "velocity": 0
        },
        {
            "deltaTime": 0,
            "channel": 0,
            "type": "noteOff",
            "noteNumber": 68,
            "velocity": 0
        },
        {
            "deltaTime": 436,
            "channel": 0,
            "type": "noteOff",
            "noteNumber": 85,
            "velocity": 0
        },
        {
            "deltaTime": 129,
            "channel": 0,
            "type": "noteOn",
            "noteNumber": 68,
            "velocity": 42
        },
        {
            "deltaTime": 0,
            "channel": 0,
            "type": "noteOn",
            "noteNumber": 85,
            "velocity": 69
        },
        {
            "deltaTime": 0,
            "channel": 0,
            "type": "noteOn",
            "noteNumber": 63,
            "velocity": 42
        },
        {
            "deltaTime": 0,
            "channel": 0,
            "type": "noteOn",
            "noteNumber": 64,
            "velocity": 42
        },
        {
            "deltaTime": 218,
            "channel": 0,
            "type": "noteOff",
            "noteNumber": 85,
            "velocity": 0
        },
        {
            "deltaTime": 73,
            "channel": 0,
            "type": "noteOn",
            "noteNumber": 84,
            "velocity": 63
        },
        {
            "deltaTime": 218,
            "channel": 0,
            "type": "noteOff",
            "noteNumber": 84,
            "velocity": 0
        },
        {
            "deltaTime": 73,
            "channel": 0,
            "type": "noteOn",
            "noteNumber": 85,
            "velocity": 66
        },
        {
            "deltaTime": 218,
            "channel": 0,
            "type": "noteOff",
            "noteNumber": 85,
            "velocity": 0
        },
        {
            "deltaTime": 62,
            "channel": 0,
            "type": "noteOff",
            "noteNumber": 64,
            "velocity": 0
        },
        {
            "deltaTime": 0,
            "channel": 0,
            "type": "noteOff",
            "noteNumber": 68,
            "velocity": 0
        },
        {
            "deltaTime": 0,
            "channel": 0,
            "type": "noteOff",
            "noteNumber": 63,
            "velocity": 0
        },
        {
            "deltaTime": 290,
            "channel": 0,
            "type": "noteOn",
            "noteNumber": 64,
            "velocity": 55
        },
        {
            "deltaTime": 0,
            "channel": 0,
            "type": "noteOn",
            "noteNumber": 85,
            "velocity": 80
        },
        {
            "deltaTime": 0,
            "channel": 0,
            "type": "noteOn",
            "noteNumber": 68,
            "velocity": 55
        },
        {
            "deltaTime": 0,
            "channel": 0,
            "type": "noteOn",
            "noteNumber": 63,
            "velocity": 55
        },
        {
            "deltaTime": 218,
            "channel": 0,
            "type": "noteOff",
            "noteNumber": 85,
            "velocity": 0
        },
        {
            "deltaTime": 73,
            "channel": 0,
            "type": "noteOn",
            "noteNumber": 84,
            "velocity": 70
        },
        {
            "deltaTime": 218,
            "channel": 0,
            "type": "noteOff",
            "noteNumber": 84,
            "velocity": 0
        },
        {
            "deltaTime": 73,
            "channel": 0,
            "type": "noteOn",
            "noteNumber": 85,
            "velocity": 90
        },
        {
            "deltaTime": 280,
            "channel": 0,
            "type": "noteOff",
            "noteNumber": 64,
            "velocity": 0
        },
        {
            "deltaTime": 0,
            "channel": 0,
            "type": "noteOff",
            "noteNumber": 63,
            "velocity": 0
        },
        {
            "deltaTime": 0,
            "channel": 0,
            "type": "noteOff",
            "noteNumber": 68,
            "velocity": 0
        },
        {
            "deltaTime": 290,
            "channel": 0,
            "type": "noteOn",
            "noteNumber": 80,
            "velocity": 90
        },
        {
            "deltaTime": 0,
            "channel": 0,
            "type": "noteOn",
            "noteNumber": 64,
            "velocity": 77
        },
        {
            "deltaTime": 0,
            "channel": 0,
            "type": "noteOn",
            "noteNumber": 68,
            "velocity": 77
        },
        {
            "deltaTime": 0,
            "channel": 0,
            "type": "noteOn",
            "noteNumber": 63,
            "velocity": 77
        },
        {
            "deltaTime": 4,
            "channel": 0,
            "type": "noteOff",
            "noteNumber": 85,
            "velocity": 0
        },
        {
            "deltaTime": 213,
            "channel": 0,
            "type": "noteOff",
            "noteNumber": 80,
            "velocity": 0
        },
        {
            "deltaTime": 144,
            "channel": 0,
            "type": "noteOff",
            "noteNumber": 68,
            "velocity": 0
        },
        {
            "deltaTime": 0,
            "channel": 0,
            "type": "noteOff",
            "noteNumber": 63,
            "velocity": 0
        },
        {
            "deltaTime": 0,
            "channel": 0,
            "type": "noteOff",
            "noteNumber": 64,
            "velocity": 0
        },
        {
            "deltaTime": 208,
            "channel": 0,
            "type": "noteOn",
            "noteNumber": 67,
            "velocity": 33
        },
        {
            "deltaTime": 0,
            "channel": 0,
            "type": "noteOn",
            "noteNumber": 63,
            "velocity": 33
        },
        {
            "deltaTime": 0,
            "channel": 0,
            "type": "noteOn",
            "noteNumber": 61,
            "velocity": 33
        },
        {
            "deltaTime": 0,
            "channel": 0,
            "type": "noteOn",
            "noteNumber": 73,
            "velocity": 84
        },
        {
            "deltaTime": 0,
            "channel": 0,
            "type": "noteOn",
            "noteNumber": 64,
            "velocity": 33
        },
        {
            "deltaTime": 213,
            "channel": 0,
            "type": "noteOff",
            "noteNumber": 73,
            "velocity": 0
        },
        {
            "deltaTime": 216,
            "channel": 0,
            "type": "noteOff",
            "noteNumber": 63,
            "velocity": 0
        },
        {
            "deltaTime": 0,
            "channel": 0,
            "type": "noteOff",
            "noteNumber": 64,
            "velocity": 0
        },
        {
            "deltaTime": 0,
            "channel": 0,
            "type": "noteOff",
            "noteNumber": 61,
            "velocity": 0
        },
        {
            "deltaTime": 0,
            "channel": 0,
            "type": "noteOff",
            "noteNumber": 67,
            "velocity": 0
        },
        {
            "deltaTime": 153,
            "channel": 0,
            "type": "noteOn",
            "noteNumber": 63,
            "velocity": 62
        },
        {
            "deltaTime": 0,
            "channel": 0,
            "type": "noteOn",
            "noteNumber": 61,
            "velocity": 62
        },
        {
            "deltaTime": 0,
            "channel": 0,
            "type": "noteOn",
            "noteNumber": 82,
            "velocity": 65
        },
        {
            "deltaTime": 0,
            "channel": 0,
            "type": "noteOn",
            "noteNumber": 67,
            "velocity": 62
        },
        {
            "deltaTime": 279,
            "channel": 0,
            "type": "noteOn",
            "noteNumber": 81,
            "velocity": 75
        },
        {
            "deltaTime": 8,
            "channel": 0,
            "type": "noteOff",
            "noteNumber": 82,
            "velocity": 0
        },
        {
            "deltaTime": 279,
            "channel": 0,
            "type": "noteOff",
            "noteNumber": 81,
            "velocity": 0
        },
        {
            "deltaTime": 3,
            "channel": 0,
            "type": "noteOn",
            "noteNumber": 82,
            "velocity": 83
        },
        {
            "deltaTime": 177,
            "channel": 0,
            "type": "noteOff",
            "noteNumber": 63,
            "velocity": 0
        },
        {
            "deltaTime": 0,
            "channel": 0,
            "type": "noteOff",
            "noteNumber": 67,
            "velocity": 0
        },
        {
            "deltaTime": 0,
            "channel": 0,
            "type": "noteOff",
            "noteNumber": 61,
            "velocity": 0
        },
        {
            "deltaTime": 110,
            "channel": 0,
            "type": "noteOff",
            "noteNumber": 82,
            "velocity": 0
        },
        {
            "deltaTime": 295,
            "channel": 0,
            "type": "noteOn",
            "noteNumber": 61,
            "velocity": 72
        },
        {
            "deltaTime": 0,
            "channel": 0,
            "type": "noteOn",
            "noteNumber": 79,
            "velocity": 74
        },
        {
            "deltaTime": 0,
            "channel": 0,
            "type": "noteOn",
            "noteNumber": 63,
            "velocity": 72
        },
        {
            "deltaTime": 0,
            "channel": 0,
            "type": "noteOn",
            "noteNumber": 67,
            "velocity": 72
        },
        {
            "deltaTime": 279,
            "channel": 0,
            "type": "noteOn",
            "noteNumber": 78,
            "velocity": 93
        },
        {
            "deltaTime": 10,
            "channel": 0,
            "type": "noteOff",
            "noteNumber": 79,
            "velocity": 0
        },
        {
            "deltaTime": 277,
            "channel": 0,
            "type": "noteOff",
            "noteNumber": 78,
            "velocity": 0
        },
        {
            "deltaTime": 3,
            "channel": 0,
            "type": "noteOn",
            "noteNumber": 79,
            "velocity": 106
        },
        {
            "deltaTime": 287,
            "channel": 0,
            "type": "noteOff",
            "noteNumber": 79,
            "velocity": 0
        },
        {
            "deltaTime": 4,
            "channel": 0,
            "type": "noteOff",
            "noteNumber": 61,
            "velocity": 0
        },
        {
            "deltaTime": 0,
            "channel": 0,
            "type": "noteOff",
            "noteNumber": 63,
            "velocity": 0
        },
        {
            "deltaTime": 0,
            "channel": 0,
            "type": "noteOff",
            "noteNumber": 67,
            "velocity": 0
        },
        {
            "deltaTime": 278,
            "channel": 0,
            "type": "noteOn",
            "noteNumber": 61,
            "velocity": 99
        },
        {
            "deltaTime": 0,
            "channel": 0,
            "type": "noteOn",
            "noteNumber": 73,
            "velocity": 59
        },
        {
            "deltaTime": 0,
            "channel": 0,
            "type": "noteOn",
            "noteNumber": 88,
            "velocity": 40
        },
        {
            "deltaTime": 0,
            "channel": 0,
            "type": "noteOn",
            "noteNumber": 64,
            "velocity": 99
        },
        {
            "deltaTime": 0,
            "channel": 0,
            "type": "noteOn",
            "noteNumber": 55,
            "velocity": 99
        },
        {
            "deltaTime": 0,
            "channel": 0,
            "type": "noteOn",
            "noteNumber": 82,
            "velocity": 59
        },
        {
            "deltaTime": 201,
            "channel": 0,
            "type": "noteOff",
            "noteNumber": 73,
            "velocity": 0
        },
        {
            "deltaTime": 4,
            "channel": 0,
            "type": "noteOff",
            "noteNumber": 82,
            "velocity": 0
        },
        {
            "deltaTime": 0,
            "channel": 0,
            "type": "noteOff",
            "noteNumber": 88,
            "velocity": 0
        },
        {
            "deltaTime": 85,
            "channel": 0,
            "type": "noteOn",
            "noteNumber": 82,
            "velocity": 98
        },
        {
            "deltaTime": 0,
            "channel": 0,
            "type": "noteOn",
            "noteNumber": 88,
            "velocity": 98
        },
        {
            "deltaTime": 0,
            "channel": 0,
            "type": "noteOn",
            "noteNumber": 73,
            "velocity": 98
        },
        {
            "deltaTime": 0,
            "channel": 0,
            "type": "noteOn",
            "noteNumber": 79,
            "velocity": 98
        },
        {
            "deltaTime": 262,
            "channel": 0,
            "type": "noteOff",
            "noteNumber": 61,
            "velocity": 0
        },
        {
            "deltaTime": 0,
            "channel": 0,
            "type": "noteOff",
            "noteNumber": 55,
            "velocity": 0
        },
        {
            "deltaTime": 0,
            "channel": 0,
            "type": "noteOff",
            "noteNumber": 64,
            "velocity": 0
        },
        {
            "deltaTime": 3,
            "channel": 0,
            "type": "noteOff",
            "noteNumber": 79,
            "velocity": 0
        },
        {
            "deltaTime": 0,
            "channel": 0,
            "type": "noteOff",
            "noteNumber": 82,
            "velocity": 0
        },
        {
            "deltaTime": 0,
            "channel": 0,
            "type": "noteOff",
            "noteNumber": 73,
            "velocity": 0
        },
        {
            "deltaTime": 0,
            "channel": 0,
            "type": "noteOff",
            "noteNumber": 88,
            "velocity": 0
        },
        {
            "deltaTime": 25,
            "channel": 0,
            "type": "noteOn",
            "noteNumber": 87,
            "velocity": 111
        },
        {
            "deltaTime": 0,
            "channel": 0,
            "type": "noteOn",
            "noteNumber": 63,
            "velocity": 111
        },
        {
            "deltaTime": 0,
            "channel": 0,
            "type": "noteOn",
            "noteNumber": 67,
            "velocity": 111
        },
        {
            "deltaTime": 0,
            "channel": 0,
            "type": "noteOn",
            "noteNumber": 58,
            "velocity": 111
        },
        {
            "deltaTime": 0,
            "channel": 0,
            "type": "noteOn",
            "noteNumber": 82,
            "velocity": 111
        },
        {
            "deltaTime": 287,
            "channel": 0,
            "type": "noteOff",
            "noteNumber": 67,
            "velocity": 0
        },
        {
            "deltaTime": 0,
            "channel": 0,
            "type": "noteOff",
            "noteNumber": 63,
            "velocity": 0
        },
        {
            "deltaTime": 0,
            "channel": 0,
            "type": "noteOff",
            "noteNumber": 82,
            "velocity": 0
        },
        {
            "deltaTime": 0,
            "channel": 0,
            "type": "noteOff",
            "noteNumber": 87,
            "velocity": 0
        },
        {
            "deltaTime": 0,
            "channel": 0,
            "type": "noteOff",
            "noteNumber": 58,
            "velocity": 0
        },
        {
            "deltaTime": 283,
            "channel": 0,
            "type": "noteOn",
            "noteNumber": 85,
            "velocity": 121
        },
        {
            "deltaTime": 0,
            "channel": 0,
            "type": "noteOn",
            "noteNumber": 79,
            "velocity": 114
        },
        {
            "deltaTime": 0,
            "channel": 0,
            "type": "noteOn",
            "noteNumber": 75,
            "velocity": 118
        },
        {
            "deltaTime": 0,
            "channel": 0,
            "type": "noteOn",
            "noteNumber": 70,
            "velocity": 113
        },
        {
            "deltaTime": 0,
            "channel": 0,
            "type": "noteOn",
            "noteNumber": 63,
            "velocity": 113
        },
        {
            "deltaTime": 455,
            "channel": 0,
            "type": "noteOff",
            "noteNumber": 63,
            "velocity": 0
        },
        {
            "deltaTime": 0,
            "channel": 0,
            "type": "noteOff",
            "noteNumber": 85,
            "velocity": 0
        },
        {
            "deltaTime": 0,
            "channel": 0,
            "type": "noteOff",
            "noteNumber": 79,
            "velocity": 0
        },
        {
            "deltaTime": 0,
            "channel": 0,
            "type": "noteOff",
            "noteNumber": 70,
            "velocity": 0
        },
        {
            "deltaTime": 0,
            "channel": 0,
            "type": "noteOff",
            "noteNumber": 75,
            "velocity": 0
        },
        {
            "deltaTime": 127,
            "channel": 0,
            "type": "noteOn",
            "noteNumber": 37,
            "velocity": 103
        },
        {
            "deltaTime": 0,
            "channel": 0,
            "type": "noteOn",
            "noteNumber": 68,
            "velocity": 113
        },
        {
            "deltaTime": 0,
            "channel": 0,
            "type": "noteOn",
            "noteNumber": 49,
            "velocity": 113
        },
        {
            "deltaTime": 287,
            "channel": 0,
            "type": "noteOff",
            "noteNumber": 49,
            "velocity": 0
        },
        {
            "deltaTime": 0,
            "channel": 0,
            "type": "noteOff",
            "noteNumber": 37,
            "velocity": 0
        },
        {
            "deltaTime": 0,
            "channel": 0,
            "type": "noteOff",
            "noteNumber": 68,
            "velocity": 0
        },
        {
            "deltaTime": 283,
            "channel": 0,
            "type": "noteOn",
            "noteNumber": 85,
            "velocity": 88
        },
        {
            "deltaTime": 0,
            "channel": 0,
            "type": "noteOn",
            "noteNumber": 68,
            "velocity": 70
        },
        {
            "deltaTime": 0,
            "channel": 0,
            "type": "noteOn",
            "noteNumber": 63,
            "velocity": 70
        },
        {
            "deltaTime": 0,
            "channel": 0,
            "type": "noteOn",
            "noteNumber": 64,
            "velocity": 70
        },
        {
            "deltaTime": 218,
            "channel": 0,
            "type": "noteOff",
            "noteNumber": 85,
            "velocity": 0
        },
        {
            "deltaTime": 73,
            "channel": 0,
            "type": "noteOn",
            "noteNumber": 84,
            "velocity": 93
        },
        {
            "deltaTime": 218,
            "channel": 0,
            "type": "noteOff",
            "noteNumber": 84,
            "velocity": 0
        },
        {
            "deltaTime": 61,
            "channel": 0,
            "type": "noteOn",
            "noteNumber": 76,
            "velocity": 93
        },
        {
            "deltaTime": 0,
            "channel": 0,
            "type": "noteOn",
            "noteNumber": 85,
            "velocity": 87
        },
        {
            "deltaTime": 218,
            "channel": 0,
            "type": "noteOff",
            "noteNumber": 85,
            "velocity": 0
        },
        {
            "deltaTime": 0,
            "channel": 0,
            "type": "noteOff",
            "noteNumber": 76,
            "velocity": 0
        },
        {
            "deltaTime": 74,
            "channel": 0,
            "type": "noteOff",
            "noteNumber": 68,
            "velocity": 0
        },
        {
            "deltaTime": 0,
            "channel": 0,
            "type": "noteOff",
            "noteNumber": 64,
            "velocity": 0
        },
        {
            "deltaTime": 0,
            "channel": 0,
            "type": "noteOff",
            "noteNumber": 63,
            "velocity": 0
        },
        {
            "deltaTime": 290,
            "channel": 0,
            "type": "noteOn",
            "noteNumber": 85,
            "velocity": 107
        },
        {
            "deltaTime": 0,
            "channel": 0,
            "type": "noteOn",
            "noteNumber": 64,
            "velocity": 58
        },
        {
            "deltaTime": 0,
            "channel": 0,
            "type": "noteOn",
            "noteNumber": 63,
            "velocity": 58
        },
        {
            "deltaTime": 0,
            "channel": 0,
            "type": "noteOn",
            "noteNumber": 68,
            "velocity": 58
        },
        {
            "deltaTime": 218,
            "channel": 0,
            "type": "noteOff",
            "noteNumber": 85,
            "velocity": 0
        },
        {
            "deltaTime": 73,
            "channel": 0,
            "type": "noteOn",
            "noteNumber": 84,
            "velocity": 102
        },
        {
            "deltaTime": 218,
            "channel": 0,
            "type": "noteOff",
            "noteNumber": 84,
            "velocity": 0
        },
        {
            "deltaTime": 61,
            "channel": 0,
            "type": "noteOn",
            "noteNumber": 75,
            "velocity": 100
        },
        {
            "deltaTime": 0,
            "channel": 0,
            "type": "noteOn",
            "noteNumber": 85,
            "velocity": 108
        },
        {
            "deltaTime": 218,
            "channel": 0,
            "type": "noteOff",
            "noteNumber": 85,
            "velocity": 0
        },
        {
            "deltaTime": 0,
            "channel": 0,
            "type": "noteOff",
            "noteNumber": 75,
            "velocity": 0
        },
        {
            "deltaTime": 74,
            "channel": 0,
            "type": "noteOff",
            "noteNumber": 63,
            "velocity": 0
        },
        {
            "deltaTime": 0,
            "channel": 0,
            "type": "noteOff",
            "noteNumber": 64,
            "velocity": 0
        },
        {
            "deltaTime": 0,
            "channel": 0,
            "type": "noteOff",
            "noteNumber": 68,
            "velocity": 0
        },
        {
            "deltaTime": 290,
            "channel": 0,
            "type": "noteOn",
            "noteNumber": 64,
            "velocity": 83
        },
        {
            "deltaTime": 0,
            "channel": 0,
            "type": "noteOn",
            "noteNumber": 63,
            "velocity": 83
        },
        {
            "deltaTime": 0,
            "channel": 0,
            "type": "noteOn",
            "noteNumber": 85,
            "velocity": 85
        },
        {
            "deltaTime": 0,
            "channel": 0,
            "type": "noteOn",
            "noteNumber": 68,
            "velocity": 83
        },
        {
            "deltaTime": 218,
            "channel": 0,
            "type": "noteOff",
            "noteNumber": 85,
            "velocity": 0
        },
        {
            "deltaTime": 61,
            "channel": 0,
            "type": "noteOn",
            "noteNumber": 84,
            "velocity": 102
        },
        {
            "deltaTime": 218,
            "channel": 0,
            "type": "noteOff",
            "noteNumber": 84,
            "velocity": 0
        },
        {
            "deltaTime": 73,
            "channel": 0,
            "type": "noteOn",
            "noteNumber": 73,
            "velocity": 94
        },
        {
            "deltaTime": 0,
            "channel": 0,
            "type": "noteOn",
            "noteNumber": 85,
            "velocity": 111
        },
        {
            "deltaTime": 218,
            "channel": 0,
            "type": "noteOff",
            "noteNumber": 85,
            "velocity": 0
        },
        {
            "deltaTime": 0,
            "channel": 0,
            "type": "noteOff",
            "noteNumber": 73,
            "velocity": 0
        },
        {
            "deltaTime": 74,
            "channel": 0,
            "type": "noteOff",
            "noteNumber": 68,
            "velocity": 0
        },
        {
            "deltaTime": 0,
            "channel": 0,
            "type": "noteOff",
            "noteNumber": 64,
            "velocity": 0
        },
        {
            "deltaTime": 0,
            "channel": 0,
            "type": "noteOff",
            "noteNumber": 63,
            "velocity": 0
        },
        {
            "deltaTime": 278,
            "channel": 0,
            "type": "noteOn",
            "noteNumber": 88,
            "velocity": 99
        },
        {
            "deltaTime": 0,
            "channel": 0,
            "type": "noteOn",
            "noteNumber": 63,
            "velocity": 91
        },
        {
            "deltaTime": 0,
            "channel": 0,
            "type": "noteOn",
            "noteNumber": 68,
            "velocity": 91
        },
        {
            "deltaTime": 0,
            "channel": 0,
            "type": "noteOn",
            "noteNumber": 64,
            "velocity": 91
        },
        {
            "deltaTime": 218,
            "channel": 0,
            "type": "noteOff",
            "noteNumber": 88,
            "velocity": 0
        },
        {
            "deltaTime": 69,
            "channel": 0,
            "type": "noteOff",
            "noteNumber": 68,
            "velocity": 0
        },
        {
            "deltaTime": 0,
            "channel": 0,
            "type": "noteOff",
            "noteNumber": 63,
            "velocity": 0
        },
        {
            "deltaTime": 0,
            "channel": 0,
            "type": "noteOff",
            "noteNumber": 64,
            "velocity": 0
        },
        {
            "deltaTime": 295,
            "channel": 0,
            "type": "noteOn",
            "noteNumber": 92,
            "velocity": 113
        },
        {
            "deltaTime": 0,
            "channel": 0,
            "type": "noteOn",
            "noteNumber": 42,
            "velocity": 100
        },
        {
            "deltaTime": 0,
            "channel": 0,
            "type": "noteOn",
            "noteNumber": 54,
            "velocity": 100
        },
        {
            "deltaTime": 287,
            "channel": 0,
            "type": "noteOff",
            "noteNumber": 54,
            "velocity": 0
        },
        {
            "deltaTime": 0,
            "channel": 0,
            "type": "noteOff",
            "noteNumber": 42,
            "velocity": 0
        },
        {
            "deltaTime": 0,
            "channel": 0,
            "type": "noteOff",
            "noteNumber": 92,
            "velocity": 0
        },
        {
            "deltaTime": 3,
            "channel": 0,
            "type": "noteOn",
            "noteNumber": 90,
            "velocity": 119
        },
        {
            "deltaTime": 279,
            "channel": 0,
            "type": "noteOn",
            "noteNumber": 57,
            "velocity": 108
        },
        {
            "deltaTime": 0,
            "channel": 0,
            "type": "noteOn",
            "noteNumber": 61,
            "velocity": 108
        },
        {
            "deltaTime": 0,
            "channel": 0,
            "type": "noteOn",
            "noteNumber": 66,
            "velocity": 108
        },
        {
            "deltaTime": 0,
            "channel": 0,
            "type": "noteOn",
            "noteNumber": 89,
            "velocity": 107
        },
        {
            "deltaTime": 0,
            "channel": 0,
            "type": "noteOn",
            "noteNumber": 63,
            "velocity": 108
        },
        {
            "deltaTime": 8,
            "channel": 0,
            "type": "noteOff",
            "noteNumber": 90,
            "velocity": 0
        },
        {
            "deltaTime": 279,
            "channel": 0,
            "type": "noteOff",
            "noteNumber": 63,
            "velocity": 0
        },
        {
            "deltaTime": 0,
            "channel": 0,
            "type": "noteOff",
            "noteNumber": 61,
            "velocity": 0
        },
        {
            "deltaTime": 0,
            "channel": 0,
            "type": "noteOff",
            "noteNumber": 66,
            "velocity": 0
        },
        {
            "deltaTime": 0,
            "channel": 0,
            "type": "noteOff",
            "noteNumber": 89,
            "velocity": 0
        },
        {
            "deltaTime": 0,
            "channel": 0,
            "type": "noteOff",
            "noteNumber": 57,
            "velocity": 0
        },
        {
            "deltaTime": 3,
            "channel": 0,
            "type": "noteOn",
            "noteNumber": 88,
            "velocity": 89
        },
        {
            "deltaTime": 287,
            "channel": 0,
            "type": "noteOff",
            "noteNumber": 88,
            "velocity": 0
        },
        {
            "deltaTime": 3,
            "channel": 0,
            "type": "noteOn",
            "noteNumber": 87,
            "velocity": 103
        },
        {
            "deltaTime": 0,
            "channel": 0,
            "type": "noteOn",
            "noteNumber": 42,
            "velocity": 113
        },
        {
            "deltaTime": 279,
            "channel": 0,
            "type": "noteOn",
            "noteNumber": 86,
            "velocity": 113
        },
        {
            "deltaTime": 0,
            "channel": 0,
            "type": "noteOn",
            "noteNumber": 43,
            "velocity": 103
        },
        {
            "deltaTime": 8,
            "channel": 0,
            "type": "noteOff",
            "noteNumber": 42,
            "velocity": 0
        },
        {
            "deltaTime": 0,
            "channel": 0,
            "type": "noteOff",
            "noteNumber": 87,
            "velocity": 0
        },
        {
            "deltaTime": 279,
            "channel": 0,
            "type": "noteOff",
            "noteNumber": 43,
            "velocity": 0
        },
        {
            "deltaTime": 0,
            "channel": 0,
            "type": "noteOff",
            "noteNumber": 86,
            "velocity": 0
        },
        {
            "deltaTime": 3,
            "channel": 0,
            "type": "noteOn",
            "noteNumber": 80,
            "velocity": 97
        },
        {
            "deltaTime": 0,
            "channel": 0,
            "type": "noteOn",
            "noteNumber": 63,
            "velocity": 91
        },
        {
            "deltaTime": 0,
            "channel": 0,
            "type": "noteOn",
            "noteNumber": 85,
            "velocity": 95
        },
        {
            "deltaTime": 0,
            "channel": 0,
            "type": "noteOn",
            "noteNumber": 32,
            "velocity": 111
        },
        {
            "deltaTime": 0,
            "channel": 0,
            "type": "noteOn",
            "noteNumber": 44,
            "velocity": 111
        },
        {
            "deltaTime": 0,
            "channel": 0,
            "type": "noteOn",
            "noteNumber": 61,
            "velocity": 91
        },
        {
            "deltaTime": 0,
            "channel": 0,
            "type": "noteOn",
            "noteNumber": 66,
            "velocity": 91
        },
        {
            "deltaTime": 287,
            "channel": 0,
            "type": "noteOff",
            "noteNumber": 80,
            "velocity": 0
        },
        {
            "deltaTime": 0,
            "channel": 0,
            "type": "noteOff",
            "noteNumber": 85,
            "velocity": 0
        },
        {
            "deltaTime": 3,
            "channel": 0,
            "type": "noteOn",
            "noteNumber": 76,
            "velocity": 78
        },
        {
            "deltaTime": 68,
            "channel": 0,
            "type": "noteOff",
            "noteNumber": 63,
            "velocity": 0
        },
        {
            "deltaTime": 0,
            "channel": 0,
            "type": "noteOff",
            "noteNumber": 66,
            "velocity": 0
        },
        {
            "deltaTime": 0,
            "channel": 0,
            "type": "noteOff",
            "noteNumber": 61,
            "velocity": 0
        },
        {
            "deltaTime": 219,
            "channel": 0,
            "type": "noteOff",
            "noteNumber": 76,
            "velocity": 0
        },
        {
            "deltaTime": 3,
            "channel": 0,
            "type": "noteOn",
            "noteNumber": 73,
            "velocity": 92
        },
        {
            "deltaTime": 279,
            "channel": 0,
            "type": "noteOn",
            "noteNumber": 87,
            "velocity": 75
        },
        {
            "deltaTime": 0,
            "channel": 0,
            "type": "noteOn",
            "noteNumber": 68,
            "velocity": 95
        },
        {
            "deltaTime": 8,
            "channel": 0,
            "type": "noteOff",
            "noteNumber": 73,
            "velocity": 0
        },
        {
            "deltaTime": 279,
            "channel": 0,
            "type": "noteOff",
            "noteNumber": 68,
            "velocity": 0
        },
        {
            "deltaTime": 3,
            "channel": 0,
            "type": "noteOn",
            "noteNumber": 64,
            "velocity": 72
        },
        {
            "deltaTime": 114,
            "channel": 0,
            "type": "noteOff",
            "noteNumber": 87,
            "velocity": 0
        },
        {
            "deltaTime": 31,
            "channel": 0,
            "type": "noteOn",
            "noteNumber": 85,
            "velocity": 80
        },
        {
            "deltaTime": 139,
            "channel": 0,
            "type": "noteOff",
            "noteNumber": 32,
            "velocity": 0
        },
        {
            "deltaTime": 2,
            "channel": 0,
            "type": "noteOff",
            "noteNumber": 64,
            "velocity": 0
        },
        {
            "deltaTime": 3,
            "channel": 0,
            "type": "noteOn",
            "noteNumber": 87,
            "velocity": 92
        },
        {
            "deltaTime": 0,
            "channel": 0,
            "type": "noteOn",
            "noteNumber": 63,
            "velocity": 80
        },
        {
            "deltaTime": 77,
            "channel": 0,
            "type": "noteOff",
            "noteNumber": 85,
            "velocity": 0
        },
        {
            "deltaTime": 56,
            "channel": 0,
            "type": "noteOn",
            "noteNumber": 85,
            "velocity": 68
        },
        {
            "deltaTime": 22,
            "channel": 0,
            "type": "noteOff",
            "noteNumber": 87,
            "velocity": 0
        },
        {
            "deltaTime": 121,
            "channel": 0,
            "type": "noteOff",
            "noteNumber": 85,
            "velocity": 0
        },
        {
            "deltaTime": 1,
            "channel": 0,
            "type": "noteOn",
            "noteNumber": 36,
            "velocity": 93
        },
        {
            "deltaTime": 0,
            "channel": 0,
            "type": "noteOn",
            "noteNumber": 87,
            "velocity": 93
        },
        {
            "deltaTime": 0,
            "channel": 0,
            "type": "noteOn",
            "noteNumber": 78,
            "velocity": 93
        },
        {
            "deltaTime": 0,
            "channel": 0,
            "type": "noteOn",
            "noteNumber": 81,
            "velocity": 93
        },
        {
            "deltaTime": 0,
            "channel": 0,
            "type": "noteOn",
            "noteNumber": 48,
            "velocity": 93
        },
        {
            "deltaTime": 8,
            "channel": 0,
            "type": "noteOff",
            "noteNumber": 63,
            "velocity": 0
        },
        {
            "deltaTime": 13,
            "channel": 0,
            "type": "noteOff",
            "noteNumber": 44,
            "velocity": 0
        },
        {
            "deltaTime": 479,
            "channel": 0,
            "type": "noteOff",
            "noteNumber": 36,
            "velocity": 0
        },
        {
            "deltaTime": 0,
            "channel": 0,
            "type": "noteOff",
            "noteNumber": 81,
            "velocity": 0
        },
        {
            "deltaTime": 0,
            "channel": 0,
            "type": "noteOff",
            "noteNumber": 87,
            "velocity": 0
        },
        {
            "deltaTime": 0,
            "channel": 0,
            "type": "noteOff",
            "noteNumber": 48,
            "velocity": 0
        },
        {
            "deltaTime": 0,
            "channel": 0,
            "type": "noteOff",
            "noteNumber": 78,
            "velocity": 0
        },
        {
            "deltaTime": 81,
            "channel": 0,
            "type": "noteOn",
            "noteNumber": 80,
            "velocity": 101
        },
        {
            "deltaTime": 0,
            "channel": 0,
            "type": "noteOn",
            "noteNumber": 84,
            "velocity": 101
        },
        {
            "deltaTime": 0,
            "channel": 0,
            "type": "noteOn",
            "noteNumber": 56,
            "velocity": 101
        },
        {
            "deltaTime": 287,
            "channel": 0,
            "type": "noteOff",
            "noteNumber": 80,
            "velocity": 0
        },
        {
            "deltaTime": 0,
            "channel": 0,
            "type": "noteOff",
            "noteNumber": 84,
            "velocity": 0
        },
        {
            "deltaTime": 0,
            "channel": 0,
            "type": "noteOff",
            "noteNumber": 56,
            "velocity": 0
        },
        {
            "deltaTime": 283,
            "channel": 0,
            "type": "noteOn",
            "noteNumber": 49,
            "velocity": 80
        },
        {
            "deltaTime": 0,
            "channel": 0,
            "type": "noteOn",
            "noteNumber": 37,
            "velocity": 80
        },
        {
            "deltaTime": 287,
            "channel": 0,
            "type": "noteOff",
            "noteNumber": 37,
            "velocity": 0
        },
        {
            "deltaTime": 0,
            "channel": 0,
            "type": "noteOff",
            "noteNumber": 49,
            "velocity": 0
        },
        {
            "deltaTime": 295,
            "channel": 0,
            "type": "noteOn",
            "noteNumber": 49,
            "velocity": 82
        },
        {
            "deltaTime": 0,
            "channel": 0,
            "type": "noteOn",
            "noteNumber": 37,
            "velocity": 82
        },
        {
            "deltaTime": 0,
            "channel": 0,
            "type": "noteOn",
            "noteNumber": 63,
            "velocity": 31
        },
        {
            "deltaTime": 0,
            "channel": 0,
            "type": "noteOn",
            "noteNumber": 68,
            "velocity": 35
        },
        {
            "deltaTime": 0,
            "channel": 0,
            "type": "noteOn",
            "noteNumber": 64,
            "velocity": 35
        },
        {
            "deltaTime": 0,
            "channel": 0,
            "type": "noteOn",
            "noteNumber": 85,
            "velocity": 66
        },
        {
            "deltaTime": 218,
            "channel": 0,
            "type": "noteOff",
            "noteNumber": 85,
            "velocity": 0
        },
        {
            "deltaTime": 61,
            "channel": 0,
            "type": "noteOn",
            "noteNumber": 84,
            "velocity": 57
        },
        {
            "deltaTime": 8,
            "channel": 0,
            "type": "noteOff",
            "noteNumber": 68,
            "velocity": 0
        },
        {
            "deltaTime": 0,
            "channel": 0,
            "type": "noteOff",
            "noteNumber": 64,
            "velocity": 0
        },
        {
            "deltaTime": 0,
            "channel": 0,
            "type": "noteOff",
            "noteNumber": 63,
            "velocity": 0
        },
        {
            "deltaTime": 209,
            "channel": 0,
            "type": "noteOff",
            "noteNumber": 84,
            "velocity": 0
        },
        {
            "deltaTime": 73,
            "channel": 0,
            "type": "noteOn",
            "noteNumber": 85,
            "velocity": 77
        },
        {
            "deltaTime": 292,
            "channel": 0,
            "type": "noteOff",
            "noteNumber": 37,
            "velocity": 0
        },
        {
            "deltaTime": 0,
            "channel": 0,
            "type": "noteOff",
            "noteNumber": 49,
            "velocity": 0
        },
        {
            "deltaTime": 88,
            "channel": 0,
            "type": "noteOff",
            "noteNumber": 85,
            "velocity": 0
        },
        {
            "deltaTime": 189,
            "channel": 0,
            "type": "noteOn",
            "noteNumber": 63,
            "velocity": 40
        },
        {
            "deltaTime": 0,
            "channel": 0,
            "type": "noteOn",
            "noteNumber": 64,
            "velocity": 43
        },
        {
            "deltaTime": 0,
            "channel": 0,
            "type": "noteOn",
            "noteNumber": 68,
            "velocity": 43
        },
        {
            "deltaTime": 0,
            "channel": 0,
            "type": "noteOn",
            "noteNumber": 48,
            "velocity": 67
        },
        {
            "deltaTime": 12,
            "channel": 0,
            "type": "noteOn",
            "noteNumber": 84,
            "velocity": 74
        },
        {
            "deltaTime": 275,
            "channel": 0,
            "type": "noteOff",
            "noteNumber": 63,
            "velocity": 0
        },
        {
            "deltaTime": 0,
            "channel": 0,
            "type": "noteOff",
            "noteNumber": 68,
            "velocity": 0
        },
        {
            "deltaTime": 0,
            "channel": 0,
            "type": "noteOff",
            "noteNumber": 64,
            "velocity": 0
        },
        {
            "deltaTime": 0,
            "channel": 0,
            "type": "noteOff",
            "noteNumber": 48,
            "velocity": 0
        },
        {
            "deltaTime": 3,
            "channel": 0,
            "type": "noteOn",
            "noteNumber": 49,
            "velocity": 87
        },
        {
            "deltaTime": 1,
            "channel": 0,
            "type": "noteOff",
            "noteNumber": 84,
            "velocity": 0
        },
        {
            "deltaTime": 10,
            "channel": 0,
            "type": "noteOn",
            "noteNumber": 85,
            "velocity": 76
        },
        {
            "deltaTime": 275,
            "channel": 0,
            "type": "noteOff",
            "noteNumber": 49,
            "velocity": 0
        },
        {
            "deltaTime": 3,
            "channel": 0,
            "type": "noteOn",
            "noteNumber": 48,
            "velocity": 86
        },
        {
            "deltaTime": 0,
            "channel": 0,
            "type": "noteOn",
            "noteNumber": 36,
            "velocity": 86
        },
        {
            "deltaTime": 0,
            "channel": 0,
            "type": "noteOn",
            "noteNumber": 84,
            "velocity": 76
        },
        {
            "deltaTime": 1,
            "channel": 0,
            "type": "noteOff",
            "noteNumber": 85,
            "velocity": 0
        },
        {
            "deltaTime": 219,
            "channel": 0,
            "type": "noteOff",
            "noteNumber": 84,
            "velocity": 0
        },
        {
            "deltaTime": 70,
            "channel": 0,
            "type": "noteOn",
            "noteNumber": 85,
            "velocity": 74
        },
        {
            "deltaTime": 82,
            "channel": 0,
            "type": "noteOff",
            "noteNumber": 36,
            "velocity": 0
        },
        {
            "deltaTime": 0,
            "channel": 0,
            "type": "noteOff",
            "noteNumber": 48,
            "velocity": 0
        },
        {
            "deltaTime": 172,
            "channel": 0,
            "type": "noteOn",
            "noteNumber": 75,
            "velocity": 91
        },
        {
            "deltaTime": 24,
            "channel": 0,
            "type": "noteOn",
            "noteNumber": 68,
            "velocity": 95
        },
        {
            "deltaTime": 0,
            "channel": 0,
            "type": "noteOn",
            "noteNumber": 44,
            "velocity": 84
        },
        {
            "deltaTime": 0,
            "channel": 0,
            "type": "noteOn",
            "noteNumber": 64,
            "velocity": 95
        },
        {
            "deltaTime": 8,
            "channel": 0,
            "type": "noteOff",
            "noteNumber": 85,
            "velocity": 0
        },
        {
            "deltaTime": 27,
            "channel": 0,
            "type": "noteOn",
            "noteNumber": 87,
            "velocity": 97
        },
        {
            "deltaTime": 251,
            "channel": 0,
            "type": "noteOff",
            "noteNumber": 64,
            "velocity": 0
        },
        {
            "deltaTime": 0,
            "channel": 0,
            "type": "noteOff",
            "noteNumber": 68,
            "velocity": 0
        },
        {
            "deltaTime": 0,
            "channel": 0,
            "type": "noteOff",
            "noteNumber": 44,
            "velocity": 0
        },
        {
            "deltaTime": 285,
            "channel": 0,
            "type": "noteOff",
            "noteNumber": 75,
            "velocity": 0
        },
        {
            "deltaTime": 5,
            "channel": 0,
            "type": "noteOff",
            "noteNumber": 87,
            "velocity": 0
        },
        {
            "deltaTime": 4,
            "channel": 0,
            "type": "noteOn",
            "noteNumber": 88,
            "velocity": 109
        },
        {
            "deltaTime": 0,
            "channel": 0,
            "type": "noteOn",
            "noteNumber": 63,
            "velocity": 76
        },
        {
            "deltaTime": 0,
            "channel": 0,
            "type": "noteOn",
            "noteNumber": 71,
            "velocity": 95
        },
        {
            "deltaTime": 0,
            "channel": 0,
            "type": "noteOn",
            "noteNumber": 80,
            "velocity": 96
        },
        {
            "deltaTime": 0,
            "channel": 0,
            "type": "noteOn",
            "noteNumber": 47,
            "velocity": 95
        },
        {
            "deltaTime": 287,
            "channel": 0,
            "type": "noteOff",
            "noteNumber": 80,
            "velocity": 0
        },
        {
            "deltaTime": 0,
            "channel": 0,
            "type": "noteOff",
            "noteNumber": 88,
            "velocity": 0
        },
        {
            "deltaTime": 0,
            "channel": 0,
            "type": "noteOff",
            "noteNumber": 63,
            "velocity": 0
        },
        {
            "deltaTime": 0,
            "channel": 0,
            "type": "noteOff",
            "noteNumber": 47,
            "velocity": 0
        },
        {
            "deltaTime": 0,
            "channel": 0,
            "type": "noteOff",
            "noteNumber": 71,
            "velocity": 0
        },
        {
            "deltaTime": 283,
            "channel": 0,
            "type": "noteOn",
            "noteNumber": 45,
            "velocity": 113
        },
        {
            "deltaTime": 0,
            "channel": 0,
            "type": "noteOn",
            "noteNumber": 64,
            "velocity": 80
        },
        {
            "deltaTime": 0,
            "channel": 0,
            "type": "noteOn",
            "noteNumber": 63,
            "velocity": 80
        },
        {
            "deltaTime": 0,
            "channel": 0,
            "type": "noteOn",
            "noteNumber": 80,
            "velocity": 106
        },
        {
            "deltaTime": 0,
            "channel": 0,
            "type": "noteOn",
            "noteNumber": 73,
            "velocity": 107
        },
        {
            "deltaTime": 0,
            "channel": 0,
            "type": "noteOn",
            "noteNumber": 57,
            "velocity": 114
        },
        {
            "deltaTime": 0,
            "channel": 0,
            "type": "noteOn",
            "noteNumber": 90,
            "velocity": 106
        },
        {
            "deltaTime": 218,
            "channel": 0,
            "type": "noteOff",
            "noteNumber": 80,
            "velocity": 0
        },
        {
            "deltaTime": 69,
            "channel": 0,
            "type": "noteOff",
            "noteNumber": 90,
            "velocity": 0
        },
        {
            "deltaTime": 0,
            "channel": 0,
            "type": "noteOff",
            "noteNumber": 73,
            "velocity": 0
        },
        {
            "deltaTime": 0,
            "channel": 0,
            "type": "noteOff",
            "noteNumber": 64,
            "velocity": 0
        },
        {
            "deltaTime": 0,
            "channel": 0,
            "type": "noteOff",
            "noteNumber": 45,
            "velocity": 0
        },
        {
            "deltaTime": 0,
            "channel": 0,
            "type": "noteOff",
            "noteNumber": 63,
            "velocity": 0
        },
        {
            "deltaTime": 0,
            "channel": 0,
            "type": "noteOff",
            "noteNumber": 57,
            "velocity": 0
        },
        {
            "deltaTime": 283,
            "channel": 0,
            "type": "noteOn",
            "noteNumber": 87,
            "velocity": 108
        },
        {
            "deltaTime": 0,
            "channel": 0,
            "type": "noteOn",
            "noteNumber": 43,
            "velocity": 104
        },
        {
            "deltaTime": 0,
            "channel": 0,
            "type": "noteOn",
            "noteNumber": 83,
            "velocity": 98
        },
        {
            "deltaTime": 0,
            "channel": 0,
            "type": "noteOn",
            "noteNumber": 76,
            "velocity": 108
        },
        {
            "deltaTime": 0,
            "channel": 0,
            "type": "noteOn",
            "noteNumber": 55,
            "velocity": 110
        },
        {
            "deltaTime": 0,
            "channel": 0,
            "type": "noteOn",
            "noteNumber": 91,
            "velocity": 108
        },
        {
            "deltaTime": 287,
            "channel": 0,
            "type": "noteOff",
            "noteNumber": 87,
            "velocity": 0
        },
        {
            "deltaTime": 0,
            "channel": 0,
            "type": "noteOff",
            "noteNumber": 55,
            "velocity": 0
        },
        {
            "deltaTime": 0,
            "channel": 0,
            "type": "noteOff",
            "noteNumber": 91,
            "velocity": 0
        },
        {
            "deltaTime": 0,
            "channel": 0,
            "type": "noteOff",
            "noteNumber": 76,
            "velocity": 0
        },
        {
            "deltaTime": 0,
            "channel": 0,
            "type": "noteOff",
            "noteNumber": 43,
            "velocity": 0
        },
        {
            "deltaTime": 0,
            "channel": 0,
            "type": "noteOff",
            "noteNumber": 83,
            "velocity": 0
        },
        {
            "deltaTime": 295,
            "channel": 0,
            "type": "noteOn",
            "noteNumber": 63,
            "velocity": 115
        },
        {
            "deltaTime": 0,
            "channel": 0,
            "type": "noteOn",
            "noteNumber": 73,
            "velocity": 106
        },
        {
            "deltaTime": 0,
            "channel": 0,
            "type": "noteOn",
            "noteNumber": 85,
            "velocity": 111
        },
        {
            "deltaTime": 0,
            "channel": 0,
            "type": "noteOn",
            "noteNumber": 57,
            "velocity": 121
        },
        {
            "deltaTime": 0,
            "channel": 0,
            "type": "noteOn",
            "noteNumber": 79,
            "velocity": 111
        },
        {
            "deltaTime": 0,
            "channel": 0,
            "type": "noteOn",
            "noteNumber": 45,
            "velocity": 119
        },
        {
            "deltaTime": 571,
            "channel": 0,
            "type": "noteOn",
            "noteNumber": 40,
            "velocity": 100
        },
        {
            "deltaTime": 4,
            "channel": 0,
            "type": "noteOff",
            "noteNumber": 45,
            "velocity": 0
        },
        {
            "deltaTime": 0,
            "channel": 0,
            "type": "noteOff",
            "noteNumber": 79,
            "velocity": 0
        },
        {
            "deltaTime": 0,
            "channel": 0,
            "type": "noteOff",
            "noteNumber": 73,
            "velocity": 0
        },
        {
            "deltaTime": 0,
            "channel": 0,
            "type": "noteOff",
            "noteNumber": 57,
            "velocity": 0
        },
        {
            "deltaTime": 0,
            "channel": 0,
            "type": "noteOff",
            "noteNumber": 85,
            "velocity": 0
        },
        {
            "deltaTime": 0,
            "channel": 0,
            "type": "noteOff",
            "noteNumber": 63,
            "velocity": 0
        },
        {
            "deltaTime": 283,
            "channel": 0,
            "type": "noteOff",
            "noteNumber": 40,
            "velocity": 0
        },
        {
            "deltaTime": 295,
            "channel": 0,
            "type": "noteOn",
            "noteNumber": 73,
            "velocity": 58
        },
        {
            "deltaTime": 0,
            "channel": 0,
            "type": "noteOn",
            "noteNumber": 84,
            "velocity": 78
        },
        {
            "deltaTime": 0,
            "channel": 0,
            "type": "noteOn",
            "noteNumber": 75,
            "velocity": 85
        },
        {
            "deltaTime": 0,
            "channel": 0,
            "type": "noteOn",
            "noteNumber": 37,
            "velocity": 84
        },
        {
            "deltaTime": 0,
            "channel": 0,
            "type": "noteOn",
            "noteNumber": 79,
            "velocity": 98
        },
        {
            "deltaTime": 279,
            "channel": 0,
            "type": "noteOn",
            "noteNumber": 85,
            "velocity": 88
        },
        {
            "deltaTime": 8,
            "channel": 0,
            "type": "noteOff",
            "noteNumber": 84,
            "velocity": 0
        },
        {
            "deltaTime": 0,
            "channel": 0,
            "type": "noteOff",
            "noteNumber": 37,
            "velocity": 0
        },
        {
            "deltaTime": 279,
            "channel": 0,
            "type": "noteOff",
            "noteNumber": 85,
            "velocity": 0
        },
        {
            "deltaTime": 3,
            "channel": 0,
            "type": "noteOn",
            "noteNumber": 33,
            "velocity": 100
        },
        {
            "deltaTime": 0,
            "channel": 0,
            "type": "noteOn",
            "noteNumber": 84,
            "velocity": 70
        },
        {
            "deltaTime": 4,
            "channel": 0,
            "type": "noteOff",
            "noteNumber": 75,
            "velocity": 0
        },
        {
            "deltaTime": 0,
            "channel": 0,
            "type": "noteOff",
            "noteNumber": 73,
            "velocity": 0
        },
        {
            "deltaTime": 0,
            "channel": 0,
            "type": "noteOff",
            "noteNumber": 79,
            "velocity": 0
        },
        {
            "deltaTime": 283,
            "channel": 0,
            "type": "noteOff",
            "noteNumber": 33,
            "velocity": 0
        },
        {
            "deltaTime": 283,
            "channel": 0,
            "type": "noteOn",
            "noteNumber": 79,
            "velocity": 69
        },
        {
            "deltaTime": 0,
            "channel": 0,
            "type": "noteOn",
            "noteNumber": 61,
            "velocity": 63
        },
        {
            "deltaTime": 0,
            "channel": 0,
            "type": "noteOn",
            "noteNumber": 64,
            "velocity": 63
        },
        {
            "deltaTime": 0,
            "channel": 0,
            "type": "noteOn",
            "noteNumber": 55,
            "velocity": 63
        },
        {
            "deltaTime": 4,
            "channel": 0,
            "type": "noteOff",
            "noteNumber": 84,
            "velocity": 0
        },
        {
            "deltaTime": 283,
            "channel": 0,
            "type": "noteOff",
            "noteNumber": 64,
            "velocity": 0
        },
        {
            "deltaTime": 0,
            "channel": 0,
            "type": "noteOff",
            "noteNumber": 55,
            "velocity": 0
        },
        {
            "deltaTime": 0,
            "channel": 0,
            "type": "noteOff",
            "noteNumber": 61,
            "velocity": 0
        },
        {
            "deltaTime": 287,
            "channel": 0,
            "type": "noteOff",
            "noteNumber": 79,
            "velocity": 0
        },
        {
            "deltaTime": 7,
            "channel": 0,
            "type": "noteOn",
            "noteNumber": 63,
            "velocity": 51
        },
        {
            "deltaTime": 0,
            "channel": 0,
            "type": "noteOn",
            "noteNumber": 58,
            "velocity": 51
        },
        {
            "deltaTime": 0,
            "channel": 0,
            "type": "noteOn",
            "noteNumber": 81,
            "velocity": 69
        },
        {
            "deltaTime": 0,
            "channel": 0,
            "type": "noteOn",
            "noteNumber": 67,
            "velocity": 51
        },
        {
            "deltaTime": 287,
            "channel": 0,
            "type": "noteOff",
            "noteNumber": 81,
            "velocity": 0
        },
        {
            "deltaTime": 223,
            "channel": 0,
            "type": "noteOff",
            "noteNumber": 58,
            "velocity": 0
        },
        {
            "deltaTime": 0,
            "channel": 0,
            "type": "noteOff",
            "noteNumber": 63,
            "velocity": 0
        },
        {
            "deltaTime": 0,
            "channel": 0,
            "type": "noteOff",
            "noteNumber": 67,
            "velocity": 0
        },
        {
            "deltaTime": 59,
            "channel": 0,
            "type": "noteOn",
            "noteNumber": 75,
            "velocity": 71
        },
        {
            "deltaTime": 0,
            "channel": 0,
            "type": "noteOn",
            "noteNumber": 63,
            "velocity": 54
        },
        {
            "deltaTime": 0,
            "channel": 0,
            "type": "noteOn",
            "noteNumber": 61,
            "velocity": 76
        },
        {
            "deltaTime": 0,
            "channel": 0,
            "type": "noteOn",
            "noteNumber": 69,
            "velocity": 70
        },
        {
            "deltaTime": 287,
            "channel": 0,
            "type": "noteOff",
            "noteNumber": 61,
            "velocity": 0
        },
        {
            "deltaTime": 0,
            "channel": 0,
            "type": "noteOff",
            "noteNumber": 75,
            "velocity": 0
        },
        {
            "deltaTime": 0,
            "channel": 0,
            "type": "noteOff",
            "noteNumber": 69,
            "velocity": 0
        },
        {
            "deltaTime": 0,
            "channel": 0,
            "type": "noteOff",
            "noteNumber": 63,
            "velocity": 0
        },
        {
            "deltaTime": 295,
            "channel": 0,
            "type": "noteOn",
            "noteNumber": 85,
            "velocity": 101
        },
        {
            "deltaTime": 0,
            "channel": 0,
            "type": "noteOn",
            "noteNumber": 49,
            "velocity": 100
        },
        {
            "deltaTime": 0,
            "channel": 0,
            "type": "noteOn",
            "noteNumber": 79,
            "velocity": 101
        },
        {
            "deltaTime": 0,
            "channel": 0,
            "type": "noteOn",
            "noteNumber": 68,
            "velocity": 101
        },
        {
            "deltaTime": 0,
            "channel": 0,
            "type": "noteOn",
            "noteNumber": 37,
            "velocity": 90
        },
        {
            "deltaTime": 287,
            "channel": 0,
            "type": "noteOff",
            "noteNumber": 37,
            "velocity": 0
        },
        {
            "deltaTime": 0,
            "channel": 0,
            "type": "noteOff",
            "noteNumber": 68,
            "velocity": 0
        },
        {
            "deltaTime": 0,
            "channel": 0,
            "type": "noteOff",
            "noteNumber": 79,
            "velocity": 0
        },
        {
            "deltaTime": 0,
            "channel": 0,
            "type": "noteOff",
            "noteNumber": 85,
            "velocity": 0
        },
        {
            "deltaTime": 0,
            "channel": 0,
            "type": "noteOff",
            "noteNumber": 49,
            "velocity": 0
        },
        {
            "deltaTime": 283,
            "channel": 0,
            "type": "noteOn",
            "noteNumber": 68,
            "velocity": 56
        },
        {
            "deltaTime": 0,
            "channel": 0,
            "type": "noteOn",
            "noteNumber": 75,
            "velocity": 69
        },
        {
            "deltaTime": 0,
            "channel": 0,
            "type": "noteOn",
            "noteNumber": 64,
            "velocity": 68
        },
        {
            "deltaTime": 0,
            "channel": 0,
            "type": "noteOn",
            "noteNumber": 80,
            "velocity": 60
        },
        {
            "deltaTime": 571,
            "channel": 0,
            "type": "noteOn",
            "noteNumber": 76,
            "velocity": 70
        },
        {
            "deltaTime": 4,
            "channel": 0,
            "type": "noteOff",
            "noteNumber": 75,
            "velocity": 0
        },
        {
            "deltaTime": 0,
            "channel": 0,
            "type": "noteOff",
            "noteNumber": 68,
            "velocity": 0
        },
        {
            "deltaTime": 0,
            "channel": 0,
            "type": "noteOff",
            "noteNumber": 80,
            "velocity": 0
        },
        {
            "deltaTime": 283,
            "channel": 0,
            "type": "noteOff",
            "noteNumber": 76,
            "velocity": 0
        },
        {
            "deltaTime": 3,
            "channel": 0,
            "type": "noteOn",
            "noteNumber": 72,
            "velocity": 59
        },
        {
            "deltaTime": 1,
            "channel": 0,
            "type": "noteOff",
            "noteNumber": 64,
            "velocity": 0
        },
        {
            "deltaTime": 286,
            "channel": 0,
            "type": "noteOff",
            "noteNumber": 72,
            "velocity": 0
        },
        {
            "deltaTime": 3,
            "channel": 0,
            "type": "noteOn",
            "noteNumber": 64,
            "velocity": 64
        },
        {
            "deltaTime": 0,
            "channel": 0,
            "type": "noteOn",
            "noteNumber": 80,
            "velocity": 68
        },
        {
            "deltaTime": 0,
            "channel": 0,
            "type": "noteOn",
            "noteNumber": 68,
            "velocity": 47
        },
        {
            "deltaTime": 0,
            "channel": 0,
            "type": "noteOn",
            "noteNumber": 63,
            "velocity": 64
        },
        {
            "deltaTime": 287,
            "channel": 0,
            "type": "noteOff",
            "noteNumber": 68,
            "velocity": 0
        },
        {
            "deltaTime": 0,
            "channel": 0,
            "type": "noteOff",
            "noteNumber": 63,
            "velocity": 0
        },
        {
            "deltaTime": 0,
            "channel": 0,
            "type": "noteOff",
            "noteNumber": 64,
            "velocity": 0
        },
        {
            "deltaTime": 3,
            "channel": 0,
            "type": "noteOn",
            "noteNumber": 73,
            "velocity": 73
        },
        {
            "deltaTime": 279,
            "channel": 0,
            "type": "noteOn",
            "noteNumber": 75,
            "velocity": 77
        },
        {
            "deltaTime": 0,
            "channel": 0,
            "type": "noteOn",
            "noteNumber": 79,
            "velocity": 77
        },
        {
            "deltaTime": 4,
            "channel": 0,
            "type": "noteOff",
            "noteNumber": 80,
            "velocity": 0
        },
        {
            "deltaTime": 3,
            "channel": 0,
            "type": "noteOff",
            "noteNumber": 73,
            "velocity": 0
        },
        {
            "deltaTime": 279,
            "channel": 0,
            "type": "noteOff",
            "noteNumber": 75,
            "velocity": 0
        },
        {
            "deltaTime": 0,
            "channel": 0,
            "type": "noteOff",
            "noteNumber": 79,
            "velocity": 0
        },
        {
            "deltaTime": 3,
            "channel": 0,
            "type": "noteOn",
            "noteNumber": 80,
            "velocity": 66
        },
        {
            "deltaTime": 0,
            "channel": 0,
            "type": "noteOn",
            "noteNumber": 76,
            "velocity": 72
        },
        {
            "deltaTime": 287,
            "channel": 0,
            "type": "noteOff",
            "noteNumber": 76,
            "velocity": 0
        },
        {
            "deltaTime": 0,
            "channel": 0,
            "type": "noteOff",
            "noteNumber": 80,
            "velocity": 0
        },
        {
            "deltaTime": 3,
            "channel": 0,
            "type": "noteOn",
            "noteNumber": 63,
            "velocity": 91
        },
        {
            "deltaTime": 0,
            "channel": 0,
            "type": "noteOn",
            "noteNumber": 66,
            "velocity": 88
        },
        {
            "deltaTime": 0,
            "channel": 0,
            "type": "noteOn",
            "noteNumber": 73,
            "velocity": 90
        },
        {
            "deltaTime": 0,
            "channel": 0,
            "type": "noteOn",
            "noteNumber": 69,
            "velocity": 70
        },
        {
            "deltaTime": 0,
            "channel": 0,
            "type": "noteOn",
            "noteNumber": 81,
            "velocity": 55
        },
        {
            "deltaTime": 429,
            "channel": 0,
            "type": "noteOff",
            "noteNumber": 66,
            "velocity": 0
        },
        {
            "deltaTime": 0,
            "channel": 0,
            "type": "noteOff",
            "noteNumber": 73,
            "velocity": 0
        },
        {
            "deltaTime": 0,
            "channel": 0,
            "type": "noteOff",
            "noteNumber": 63,
            "velocity": 0
        },
        {
            "deltaTime": 0,
            "channel": 0,
            "type": "noteOff",
            "noteNumber": 69,
            "velocity": 0
        },
        {
            "deltaTime": 141,
            "channel": 0,
            "type": "noteOn",
            "noteNumber": 76,
            "velocity": 73
        },
        {
            "deltaTime": 0,
            "channel": 0,
            "type": "noteOn",
            "noteNumber": 69,
            "velocity": 67
        },
        {
            "deltaTime": 4,
            "channel": 0,
            "type": "noteOff",
            "noteNumber": 81,
            "velocity": 0
        },
        {
            "deltaTime": 283,
            "channel": 0,
            "type": "noteOff",
            "noteNumber": 76,
            "velocity": 0
        },
        {
            "deltaTime": 0,
            "channel": 0,
            "type": "noteOff",
            "noteNumber": 69,
            "velocity": 0
        },
        {
            "deltaTime": 3,
            "channel": 0,
            "type": "noteOn",
            "noteNumber": 68,
            "velocity": 81
        },
        {
            "deltaTime": 0,
            "channel": 0,
            "type": "noteOn",
            "noteNumber": 78,
            "velocity": 81
        },
        {
            "deltaTime": 144,
            "channel": 0,
            "type": "noteOff",
            "noteNumber": 68,
            "velocity": 0
        },
        {
            "deltaTime": 0,
            "channel": 0,
            "type": "noteOff",
            "noteNumber": 78,
            "velocity": 0
        },
        {
            "deltaTime": 1,
            "channel": 0,
            "type": "noteOn",
            "noteNumber": 79,
            "velocity": 100
        },
        {
            "deltaTime": 0,
            "channel": 0,
            "type": "noteOn",
            "noteNumber": 66,
            "velocity": 100
        },
        {
            "deltaTime": 144,
            "channel": 0,
            "type": "noteOff",
            "noteNumber": 79,
            "velocity": 0
        },
        {
            "deltaTime": 0,
            "channel": 0,
            "type": "noteOff",
            "noteNumber": 66,
            "velocity": 0
        },
        {
            "deltaTime": 1,
            "channel": 0,
            "type": "noteOn",
            "noteNumber": 73,
            "velocity": 100
        },
        {
            "deltaTime": 0,
            "channel": 0,
            "type": "noteOn",
            "noteNumber": 80,
            "velocity": 108
        },
        {
            "deltaTime": 0,
            "channel": 0,
            "type": "noteOn",
            "noteNumber": 68,
            "velocity": 100
        },
        {
            "deltaTime": 0,
            "channel": 0,
            "type": "noteOn",
            "noteNumber": 63,
            "velocity": 100
        },
        {
            "deltaTime": 0,
            "channel": 0,
            "type": "noteOn",
            "noteNumber": 57,
            "velocity": 89
        },
        {
            "deltaTime": 287,
            "channel": 0,
            "type": "noteOff",
            "noteNumber": 63,
            "velocity": 0
        },
        {
            "deltaTime": 0,
            "channel": 0,
            "type": "noteOff",
            "noteNumber": 68,
            "velocity": 0
        },
        {
            "deltaTime": 0,
            "channel": 0,
            "type": "noteOff",
            "noteNumber": 73,
            "velocity": 0
        },
        {
            "deltaTime": 0,
            "channel": 0,
            "type": "noteOff",
            "noteNumber": 80,
            "velocity": 0
        },
        {
            "deltaTime": 0,
            "channel": 0,
            "type": "noteOff",
            "noteNumber": 57,
            "velocity": 0
        },
        {
            "deltaTime": 283,
            "channel": 0,
            "type": "noteOn",
            "noteNumber": 78,
            "velocity": 104
        },
        {
            "deltaTime": 0,
            "channel": 0,
            "type": "noteOn",
            "noteNumber": 42,
            "velocity": 104
        },
        {
            "deltaTime": 0,
            "channel": 0,
            "type": "noteOn",
            "noteNumber": 54,
            "velocity": 104
        },
        {
            "deltaTime": 0,
            "channel": 0,
            "type": "noteOn",
            "noteNumber": 60,
            "velocity": 104
        },
        {
            "deltaTime": 0,
            "channel": 0,
            "type": "noteOn",
            "noteNumber": 69,
            "velocity": 104
        },
        {
            "deltaTime": 0,
            "channel": 0,
            "type": "noteOn",
            "noteNumber": 75,
            "velocity": 87
        },
        {
            "deltaTime": 211,
            "channel": 0,
            "type": "noteOff",
            "noteNumber": 42,
            "velocity": 0
        },
        {
            "deltaTime": 0,
            "channel": 0,
            "type": "noteOff",
            "noteNumber": 60,
            "velocity": 0
        },
        {
            "deltaTime": 0,
            "channel": 0,
            "type": "noteOff",
            "noteNumber": 69,
            "velocity": 0
        },
        {
            "deltaTime": 0,
            "channel": 0,
            "type": "noteOff",
            "noteNumber": 75,
            "velocity": 0
        },
        {
            "deltaTime": 0,
            "channel": 0,
            "type": "noteOff",
            "noteNumber": 54,
            "velocity": 0
        },
        {
            "deltaTime": 0,
            "channel": 0,
            "type": "noteOff",
            "noteNumber": 78,
            "velocity": 0
        },
        {
            "deltaTime": 359,
            "channel": 0,
            "type": "noteOn",
            "noteNumber": 76,
            "velocity": 101
        },
        {
            "deltaTime": 0,
            "channel": 0,
            "type": "noteOn",
            "noteNumber": 57,
            "velocity": 118
        },
        {
            "deltaTime": 0,
            "channel": 0,
            "type": "noteOn",
            "noteNumber": 73,
            "velocity": 86
        },
        {
            "deltaTime": 0,
            "channel": 0,
            "type": "noteOn",
            "noteNumber": 67,
            "velocity": 86
        },
        {
            "deltaTime": 0,
            "channel": 0,
            "type": "noteOn",
            "noteNumber": 45,
            "velocity": 104
        },
        {
            "deltaTime": 287,
            "channel": 0,
            "type": "noteOff",
            "noteNumber": 45,
            "velocity": 0
        },
        {
            "deltaTime": 0,
            "channel": 0,
            "type": "noteOff",
            "noteNumber": 73,
            "velocity": 0
        },
        {
            "deltaTime": 0,
            "channel": 0,
            "type": "noteOff",
            "noteNumber": 67,
            "velocity": 0
        },
        {
            "deltaTime": 0,
            "channel": 0,
            "type": "noteOff",
            "noteNumber": 76,
            "velocity": 0
        },
        {
            "deltaTime": 0,
            "channel": 0,
            "type": "noteOff",
            "noteNumber": 57,
            "velocity": 0
        },
        {
            "deltaTime": 295,
            "channel": 0,
            "type": "noteOn",
            "noteNumber": 42,
            "velocity": 117
        },
        {
            "deltaTime": 0,
            "channel": 0,
            "type": "noteOn",
            "noteNumber": 68,
            "velocity": 116
        },
        {
            "deltaTime": 0,
            "channel": 0,
            "type": "noteOn",
            "noteNumber": 54,
            "velocity": 117
        },
        {
            "deltaTime": 279,
            "channel": 0,
            "type": "noteOn",
            "noteNumber": 43,
            "velocity": 109
        },
        {
            "deltaTime": 0,
            "channel": 0,
            "type": "noteOn",
            "noteNumber": 55,
            "velocity": 109
        },
        {
            "deltaTime": 8,
            "channel": 0,
            "type": "noteOff",
            "noteNumber": 68,
            "velocity": 0
        },
        {
            "deltaTime": 0,
            "channel": 0,
            "type": "noteOff",
            "noteNumber": 54,
            "velocity": 0
        },
        {
            "deltaTime": 0,
            "channel": 0,
            "type": "noteOff",
            "noteNumber": 42,
            "velocity": 0
        },
        {
            "deltaTime": 246,
            "channel": 0,
            "type": "noteOn",
            "noteNumber": 72,
            "velocity": 125
        },
        {
            "deltaTime": 0,
            "channel": 0,
            "type": "noteOn",
            "noteNumber": 83,
            "velocity": 122
        },
        {
            "deltaTime": 0,
            "channel": 0,
            "type": "noteOn",
            "noteNumber": 76,
            "velocity": 115
        },
        {
            "deltaTime": 0,
            "channel": 0,
            "type": "noteOn",
            "noteNumber": 78,
            "velocity": 126
        },
        {
            "deltaTime": 32,
            "channel": 0,
            "type": "noteOff",
            "noteNumber": 55,
            "velocity": 0
        },
        {
            "deltaTime": 0,
            "channel": 0,
            "type": "noteOff",
            "noteNumber": 43,
            "velocity": 0
        },
        {
            "deltaTime": 3,
            "channel": 0,
            "type": "noteOn",
            "noteNumber": 56,
            "velocity": 115
        },
        {
            "deltaTime": 0,
            "channel": 0,
            "type": "noteOn",
            "noteNumber": 44,
            "velocity": 125
        },
        {
            "deltaTime": 493,
            "channel": 0,
            "type": "noteOff",
            "noteNumber": 78,
            "velocity": 0
        },
        {
            "deltaTime": 67,
            "channel": 0,
            "type": "noteOff",
            "noteNumber": 76,
            "velocity": 0
        },
        {
            "deltaTime": 14,
            "channel": 0,
            "type": "noteOff",
            "noteNumber": 56,
            "velocity": 0
        },
        {
            "deltaTime": 0,
            "channel": 0,
            "type": "noteOff",
            "noteNumber": 44,
            "velocity": 0
        },
        {
            "deltaTime": 1,
            "channel": 0,
            "type": "noteOff",
            "noteNumber": 72,
            "velocity": 0
        },
        {
            "deltaTime": 232,
            "channel": 0,
            "type": "noteOff",
            "noteNumber": 83,
            "velocity": 0
        },
        {
            "deltaTime": 51,
            "channel": 0,
            "type": "noteOn",
            "noteNumber": 81,
            "velocity": 102
        },
        {
            "deltaTime": 287,
            "channel": 0,
            "type": "noteOff",
            "noteNumber": 81,
            "velocity": 0
        },
        {
            "deltaTime": 3,
            "channel": 0,
            "type": "noteOn",
            "noteNumber": 75,
            "velocity": 80
        },
        {
            "deltaTime": 287,
            "channel": 0,
            "type": "noteOff",
            "noteNumber": 75,
            "velocity": 0
        },
        {
            "deltaTime": 3,
            "channel": 0,
            "type": "noteOn",
            "noteNumber": 73,
            "velocity": 88
        },
        {
            "deltaTime": 279,
            "channel": 0,
            "type": "noteOn",
            "noteNumber": 66,
            "velocity": 118
        },
        {
            "deltaTime": 0,
            "channel": 0,
            "type": "noteOn",
            "noteNumber": 48,
            "velocity": 115
        },
        {
            "deltaTime": 0,
            "channel": 0,
            "type": "noteOn",
            "noteNumber": 72,
            "velocity": 115
        },
        {
            "deltaTime": 0,
            "channel": 0,
            "type": "noteOn",
            "noteNumber": 56,
            "velocity": 115
        },
        {
            "deltaTime": 0,
            "channel": 0,
            "type": "noteOn",
            "noteNumber": 63,
            "velocity": 115
        },
        {
            "deltaTime": 0,
            "channel": 0,
            "type": "noteOn",
            "noteNumber": 36,
            "velocity": 104
        },
        {
            "deltaTime": 8,
            "channel": 0,
            "type": "noteOff",
            "noteNumber": 73,
            "velocity": 0
        },
        {
            "deltaTime": 1143,
            "channel": 0,
            "type": "noteOff",
            "noteNumber": 72,
            "velocity": 0
        },
        {
            "deltaTime": 0,
            "channel": 0,
            "type": "noteOff",
            "noteNumber": 66,
            "velocity": 0
        },
        {
            "deltaTime": 575,
            "channel": 0,
            "type": "noteOff",
            "noteNumber": 63,
            "velocity": 0
        },
        {
            "deltaTime": 0,
            "channel": 0,
            "type": "noteOff",
            "noteNumber": 36,
            "velocity": 0
        },
        {
            "deltaTime": 0,
            "channel": 0,
            "type": "noteOff",
            "noteNumber": 56,
            "velocity": 0
        },
        {
            "deltaTime": 0,
            "channel": 0,
            "type": "noteOff",
            "noteNumber": 48,
            "velocity": 0
        },
        {
            "deltaTime": 799,
            "channel": 0,
            "type": "noteOn",
            "noteNumber": 99,
            "velocity": 59
        },
        {
            "deltaTime": 434,
            "channel": 0,
            "type": "noteOff",
            "noteNumber": 99,
            "velocity": 0
        },
        {
            "deltaTime": 197,
            "channel": 0,
            "type": "noteOn",
            "noteNumber": 87,
            "velocity": 44
        },
        {
            "deltaTime": 206,
            "channel": 0,
            "type": "noteOff",
            "noteNumber": 87,
            "velocity": 0
        },
        {
            "deltaTime": 24,
            "channel": 0,
            "type": "noteOn",
            "noteNumber": 99,
            "velocity": 82
        },
        {
            "deltaTime": 247,
            "channel": 0,
            "type": "noteOff",
            "noteNumber": 99,
            "velocity": 0
        },
        {
            "deltaTime": 20,
            "channel": 0,
            "type": "noteOn",
            "noteNumber": 87,
            "velocity": 87
        },
        {
            "deltaTime": 218,
            "channel": 0,
            "type": "noteOff",
            "noteNumber": 87,
            "velocity": 0
        },
        {
            "deltaTime": 0,
            "channel": 0,
            "type": "noteOn",
            "noteNumber": 99,
            "velocity": 89
        },
        {
            "deltaTime": 203,
            "channel": 0,
            "type": "noteOff",
            "noteNumber": 99,
            "velocity": 0
        },
        {
            "deltaTime": 14,
            "channel": 0,
            "type": "noteOn",
            "noteNumber": 87,
            "velocity": 79
        },
        {
            "deltaTime": 182,
            "channel": 0,
            "type": "noteOff",
            "noteNumber": 87,
            "velocity": 0
        },
        {
            "deltaTime": 48,
            "channel": 0,
            "type": "noteOn",
            "noteNumber": 99,
            "velocity": 87
        },
        {
            "deltaTime": 182,
            "channel": 0,
            "type": "noteOff",
            "noteNumber": 99,
            "velocity": 0
        },
        {
            "deltaTime": 48,
            "channel": 0,
            "type": "noteOn",
            "noteNumber": 87,
            "velocity": 76
        },
        {
            "deltaTime": 177,
            "channel": 0,
            "type": "noteOff",
            "noteNumber": 87,
            "velocity": 0
        },
        {
            "deltaTime": 65,
            "channel": 0,
            "type": "noteOn",
            "noteNumber": 99,
            "velocity": 69
        },
        {
            "deltaTime": 124,
            "channel": 0,
            "type": "noteOff",
            "noteNumber": 99,
            "velocity": 0
        },
        {
            "deltaTime": 8,
            "channel": 0,
            "type": "noteOn",
            "noteNumber": 87,
            "velocity": 53
        },
        {
            "deltaTime": 141,
            "channel": 0,
            "type": "noteOff",
            "noteNumber": 87,
            "velocity": 0
        },
        {
            "deltaTime": 64,
            "channel": 0,
            "type": "noteOn",
            "noteNumber": 99,
            "velocity": 59
        },
        {
            "deltaTime": 170,
            "channel": 0,
            "type": "noteOff",
            "noteNumber": 99,
            "velocity": 0
        },
        {
            "deltaTime": 36,
            "channel": 0,
            "type": "noteOn",
            "noteNumber": 87,
            "velocity": 29
        },
        {
            "deltaTime": 163,
            "channel": 0,
            "type": "noteOff",
            "noteNumber": 87,
            "velocity": 0
        },
        {
            "deltaTime": 116,
            "channel": 0,
            "type": "noteOn",
            "noteNumber": 99,
            "velocity": 38
        },
        {
            "deltaTime": 167,
            "channel": 0,
            "type": "noteOff",
            "noteNumber": 99,
            "velocity": 0
        },
        {
            "deltaTime": 2565,
            "channel": 0,
            "type": "noteOn",
            "noteNumber": 82,
            "velocity": 61
        },
        {
            "deltaTime": 144,
            "channel": 0,
            "type": "noteOff",
            "noteNumber": 82,
            "velocity": 0
        },
        {
            "deltaTime": 1,
            "channel": 0,
            "type": "noteOn",
            "noteNumber": 84,
            "velocity": 51
        },
        {
            "deltaTime": 133,
            "channel": 0,
            "type": "noteOn",
            "noteNumber": 85,
            "velocity": 93
        },
        {
            "deltaTime": 10,
            "channel": 0,
            "type": "noteOff",
            "noteNumber": 84,
            "velocity": 0
        },
        {
            "deltaTime": 26,
            "channel": 0,
            "type": "noteOn",
            "noteNumber": 97,
            "velocity": 81
        },
        {
            "deltaTime": 539,
            "channel": 0,
            "type": "noteOff",
            "noteNumber": 85,
            "velocity": 0
        },
        {
            "deltaTime": 7,
            "channel": 0,
            "type": "noteOn",
            "noteNumber": 80,
            "velocity": 91
        },
        {
            "deltaTime": 0,
            "channel": 0,
            "type": "noteOn",
            "noteNumber": 92,
            "velocity": 91
        },
        {
            "deltaTime": 29,
            "channel": 0,
            "type": "noteOff",
            "noteNumber": 97,
            "velocity": 0
        },
        {
            "deltaTime": 258,
            "channel": 0,
            "type": "noteOff",
            "noteNumber": 80,
            "velocity": 0
        },
        {
            "deltaTime": 0,
            "channel": 0,
            "type": "noteOff",
            "noteNumber": 92,
            "velocity": 0
        },
        {
            "deltaTime": 283,
            "channel": 0,
            "type": "noteOn",
            "noteNumber": 81,
            "velocity": 79
        },
        {
            "deltaTime": 288,
            "channel": 0,
            "type": "noteOff",
            "noteNumber": 81,
            "velocity": 0
        },
        {
            "deltaTime": 222,
            "channel": 0,
            "type": "noteOn",
            "noteNumber": 78,
            "velocity": 65
        },
        {
            "deltaTime": 72,
            "channel": 0,
            "type": "noteOn",
            "noteNumber": 80,
            "velocity": 112
        },
        {
            "deltaTime": 36,
            "channel": 0,
            "type": "noteOn",
            "noteNumber": 92,
            "velocity": 114
        },
        {
            "deltaTime": 80,
            "channel": 0,
            "type": "noteOff",
            "noteNumber": 78,
            "velocity": 0
        },
        {
            "deltaTime": 171,
            "channel": 0,
            "type": "noteOff",
            "noteNumber": 80,
            "velocity": 0
        },
        {
            "deltaTime": 36,
            "channel": 0,
            "type": "noteOff",
            "noteNumber": 92,
            "velocity": 0
        },
        {
            "deltaTime": 246,
            "channel": 0,
            "type": "noteOn",
            "noteNumber": 78,
            "velocity": 72
        },
        {
            "deltaTime": 288,
            "channel": 0,
            "type": "noteOff",
            "noteNumber": 78,
            "velocity": 0
        },
        {
            "deltaTime": 295,
            "channel": 0,
            "type": "noteOn",
            "noteNumber": 76,
            "velocity": 113
        },
        {
            "deltaTime": 143,
            "channel": 0,
            "type": "noteOff",
            "noteNumber": 76,
            "velocity": 0
        },
        {
            "deltaTime": 427,
            "channel": 0,
            "type": "noteOn",
            "noteNumber": 72,
            "velocity": 99
        },
        {
            "deltaTime": 220,
            "channel": 0,
            "type": "noteOff",
            "noteNumber": 72,
            "velocity": 0
        },
        {
            "deltaTime": 301,
            "channel": 0,
            "type": "noteOn",
            "noteNumber": 72,
            "velocity": 81
        },
        {
            "deltaTime": 0,
            "channel": 0,
            "type": "noteOn",
            "noteNumber": 78,
            "velocity": 81
        },
        {
            "deltaTime": 48,
            "channel": 0,
            "type": "noteOn",
            "noteNumber": 49,
            "velocity": 103
        },
        {
            "deltaTime": 0,
            "channel": 0,
            "type": "noteOn",
            "noteNumber": 79,
            "velocity": 112
        },
        {
            "deltaTime": 0,
            "channel": 0,
            "type": "noteOn",
            "noteNumber": 73,
            "velocity": 112
        },
        {
            "deltaTime": 90,
            "channel": 0,
            "type": "noteOff",
            "noteNumber": 78,
            "velocity": 0
        },
        {
            "deltaTime": 0,
            "channel": 0,
            "type": "noteOff",
            "noteNumber": 72,
            "velocity": 0
        },
        {
            "deltaTime": 197,
            "channel": 0,
            "type": "noteOff",
            "noteNumber": 73,
            "velocity": 0
        },
        {
            "deltaTime": 0,
            "channel": 0,
            "type": "noteOff",
            "noteNumber": 79,
            "velocity": 0
        },
        {
            "deltaTime": 283,
            "channel": 0,
            "type": "noteOn",
            "noteNumber": 63,
            "velocity": 59
        },
        {
            "deltaTime": 0,
            "channel": 0,
            "type": "noteOn",
            "noteNumber": 80,
            "velocity": 97
        },
        {
            "deltaTime": 0,
            "channel": 0,
            "type": "noteOn",
            "noteNumber": 64,
            "velocity": 59
        },
        {
            "deltaTime": 0,
            "channel": 0,
            "type": "noteOn",
            "noteNumber": 68,
            "velocity": 90
        },
        {
            "deltaTime": 4,
            "channel": 0,
            "type": "noteOff",
            "noteNumber": 49,
            "velocity": 0
        },
        {
            "deltaTime": 283,
            "channel": 0,
            "type": "noteOff",
            "noteNumber": 68,
            "velocity": 0
        },
        {
            "deltaTime": 0,
            "channel": 0,
            "type": "noteOff",
            "noteNumber": 80,
            "velocity": 0
        },
        {
            "deltaTime": 283,
            "channel": 0,
            "type": "noteOn",
            "noteNumber": 86,
            "velocity": 79
        },
        {
            "deltaTime": 0,
            "channel": 0,
            "type": "noteOn",
            "noteNumber": 74,
            "velocity": 47
        },
        {
            "deltaTime": 12,
            "channel": 0,
            "type": "noteOn",
            "noteNumber": 44,
            "velocity": 95
        },
        {
            "deltaTime": 97,
            "channel": 0,
            "type": "noteOn",
            "noteNumber": 75,
            "velocity": 82
        },
        {
            "deltaTime": 0,
            "channel": 0,
            "type": "noteOn",
            "noteNumber": 87,
            "velocity": 115
        },
        {
            "deltaTime": 39,
            "channel": 0,
            "type": "noteOff",
            "noteNumber": 86,
            "velocity": 0
        },
        {
            "deltaTime": 2,
            "channel": 0,
            "type": "noteOff",
            "noteNumber": 74,
            "velocity": 0
        },
        {
            "deltaTime": 141,
            "channel": 0,
            "type": "noteOff",
            "noteNumber": 64,
            "velocity": 0
        },
        {
            "deltaTime": 0,
            "channel": 0,
            "type": "noteOff",
            "noteNumber": 63,
            "velocity": 0
        },
        {
            "deltaTime": 67,
            "channel": 0,
            "type": "noteOff",
            "noteNumber": 44,
            "velocity": 0
        },
        {
            "deltaTime": 207,
            "channel": 0,
            "type": "noteOff",
            "noteNumber": 87,
            "velocity": 0
        },
        {
            "deltaTime": 26,
            "channel": 0,
            "type": "noteOff",
            "noteNumber": 75,
            "velocity": 0
        },
        {
            "deltaTime": 1,
            "channel": 0,
            "type": "noteOn",
            "noteNumber": 85,
            "velocity": 86
        },
        {
            "deltaTime": 0,
            "channel": 0,
            "type": "noteOn",
            "noteNumber": 64,
            "velocity": 62
        },
        {
            "deltaTime": 0,
            "channel": 0,
            "type": "noteOn",
            "noteNumber": 73,
            "velocity": 86
        },
        {
            "deltaTime": 0,
            "channel": 0,
            "type": "noteOn",
            "noteNumber": 68,
            "velocity": 62
        },
        {
            "deltaTime": 151,
            "channel": 0,
            "type": "noteOff",
            "noteNumber": 64,
            "velocity": 0
        },
        {
            "deltaTime": 0,
            "channel": 0,
            "type": "noteOff",
            "noteNumber": 68,
            "velocity": 0
        },
        {
            "deltaTime": 128,
            "channel": 0,
            "type": "noteOn",
            "noteNumber": 64,
            "velocity": 62
        },
        {
            "deltaTime": 0,
            "channel": 0,
            "type": "noteOn",
            "noteNumber": 63,
            "velocity": 62
        },
        {
            "deltaTime": 0,
            "channel": 0,
            "type": "noteOn",
            "noteNumber": 68,
            "velocity": 62
        },
        {
            "deltaTime": 192,
            "channel": 0,
            "type": "noteOff",
            "noteNumber": 63,
            "velocity": 0
        },
        {
            "deltaTime": 0,
            "channel": 0,
            "type": "noteOff",
            "noteNumber": 64,
            "velocity": 0
        },
        {
            "deltaTime": 0,
            "channel": 0,
            "type": "noteOff",
            "noteNumber": 68,
            "velocity": 0
        },
        {
            "deltaTime": 99,
            "channel": 0,
            "type": "noteOn",
            "noteNumber": 49,
            "velocity": 103
        },
        {
            "deltaTime": 291,
            "channel": 0,
            "type": "noteOn",
            "noteNumber": 87,
            "velocity": 99
        },
        {
            "deltaTime": 1,
            "channel": 0,
            "type": "noteOff",
            "noteNumber": 85,
            "velocity": 0
        },
        {
            "deltaTime": 0,
            "channel": 0,
            "type": "noteOff",
            "noteNumber": 73,
            "velocity": 0
        },
        {
            "deltaTime": 55,
            "channel": 0,
            "type": "noteOff",
            "noteNumber": 49,
            "velocity": 0
        },
        {
            "deltaTime": 223,
            "channel": 0,
            "type": "noteOn",
            "noteNumber": 64,
            "velocity": 69
        },
        {
            "deltaTime": 0,
            "channel": 0,
            "type": "noteOn",
            "noteNumber": 56,
            "velocity": 59
        },
        {
            "deltaTime": 0,
            "channel": 0,
            "type": "noteOn",
            "noteNumber": 85,
            "velocity": 86
        },
        {
            "deltaTime": 0,
            "channel": 0,
            "type": "noteOn",
            "noteNumber": 68,
            "velocity": 69
        },
        {
            "deltaTime": 0,
            "channel": 0,
            "type": "noteOn",
            "noteNumber": 61,
            "velocity": 69
        },
        {
            "deltaTime": 8,
            "channel": 0,
            "type": "noteOff",
            "noteNumber": 87,
            "velocity": 0
        },
        {
            "deltaTime": 226,
            "channel": 0,
            "type": "noteOff",
            "noteNumber": 61,
            "velocity": 0
        },
        {
            "deltaTime": 0,
            "channel": 0,
            "type": "noteOff",
            "noteNumber": 56,
            "velocity": 0
        },
        {
            "deltaTime": 0,
            "channel": 0,
            "type": "noteOff",
            "noteNumber": 68,
            "velocity": 0
        },
        {
            "deltaTime": 0,
            "channel": 0,
            "type": "noteOff",
            "noteNumber": 64,
            "velocity": 0
        },
        {
            "deltaTime": 52,
            "channel": 0,
            "type": "noteOff",
            "noteNumber": 85,
            "velocity": 0
        },
        {
            "deltaTime": 3,
            "channel": 0,
            "type": "noteOn",
            "noteNumber": 84,
            "velocity": 76
        },
        {
            "deltaTime": 288,
            "channel": 0,
            "type": "noteOff",
            "noteNumber": 84,
            "velocity": 0
        },
        {
            "deltaTime": 3,
            "channel": 0,
            "type": "noteOn",
            "noteNumber": 85,
            "velocity": 103
        },
        {
            "deltaTime": 0,
            "channel": 0,
            "type": "noteOn",
            "noteNumber": 52,
            "velocity": 64
        },
        {
            "deltaTime": 571,
            "channel": 0,
            "type": "noteOn",
            "noteNumber": 80,
            "velocity": 103
        },
        {
            "deltaTime": 0,
            "channel": 0,
            "type": "noteOn",
            "noteNumber": 51,
            "velocity": 64
        },
        {
            "deltaTime": 0,
            "channel": 0,
            "type": "noteOn",
            "noteNumber": 68,
            "velocity": 84
        },
        {
            "deltaTime": 0,
            "channel": 0,
            "type": "noteOn",
            "noteNumber": 61,
            "velocity": 84
        },
        {
            "deltaTime": 0,
            "channel": 0,
            "type": "noteOn",
            "noteNumber": 64,
            "velocity": 84
        },
        {
            "deltaTime": 4,
            "channel": 0,
            "type": "noteOff",
            "noteNumber": 52,
            "velocity": 0
        },
        {
            "deltaTime": 0,
            "channel": 0,
            "type": "noteOff",
            "noteNumber": 85,
            "velocity": 0
        },
        {
            "deltaTime": 283,
            "channel": 0,
            "type": "noteOff",
            "noteNumber": 68,
            "velocity": 0
        },
        {
            "deltaTime": 0,
            "channel": 0,
            "type": "noteOff",
            "noteNumber": 64,
            "velocity": 0
        },
        {
            "deltaTime": 0,
            "channel": 0,
            "type": "noteOff",
            "noteNumber": 80,
            "velocity": 0
        },
        {
            "deltaTime": 0,
            "channel": 0,
            "type": "noteOff",
            "noteNumber": 61,
            "velocity": 0
        },
        {
            "deltaTime": 60,
            "channel": 0,
            "type": "noteOff",
            "noteNumber": 51,
            "velocity": 0
        },
        {
            "deltaTime": 235,
            "channel": 0,
            "type": "noteOn",
            "noteNumber": 95,
            "velocity": 87
        },
        {
            "deltaTime": 0,
            "channel": 0,
            "type": "noteOn",
            "noteNumber": 83,
            "velocity": 102
        },
        {
            "deltaTime": 0,
            "channel": 0,
            "type": "noteOn",
            "noteNumber": 44,
            "velocity": 84
        },
        {
            "deltaTime": 571,
            "channel": 0,
            "type": "noteOn",
            "noteNumber": 57,
            "velocity": 59
        },
        {
            "deltaTime": 0,
            "channel": 0,
            "type": "noteOn",
            "noteNumber": 67,
            "velocity": 83
        },
        {
            "deltaTime": 0,
            "channel": 0,
            "type": "noteOn",
            "noteNumber": 60,
            "velocity": 59
        },
        {
            "deltaTime": 0,
            "channel": 0,
            "type": "noteOn",
            "noteNumber": 63,
            "velocity": 59
        },
        {
            "deltaTime": 0,
            "channel": 0,
            "type": "noteOn",
            "noteNumber": 81,
            "velocity": 77
        },
        {
            "deltaTime": 0,
            "channel": 0,
            "type": "noteOn",
            "noteNumber": 93,
            "velocity": 77
        },
        {
            "deltaTime": 4,
            "channel": 0,
            "type": "noteOff",
            "noteNumber": 83,
            "velocity": 0
        },
        {
            "deltaTime": 0,
            "channel": 0,
            "type": "noteOff",
            "noteNumber": 44,
            "velocity": 0
        },
        {
            "deltaTime": 11,
            "channel": 0,
            "type": "noteOff",
            "noteNumber": 95,
            "velocity": 0
        },
        {
            "deltaTime": 525,
            "channel": 0,
            "type": "noteOff",
            "noteNumber": 93,
            "velocity": 0
        },
        {
            "deltaTime": 28,
            "channel": 0,
            "type": "noteOn",
            "noteNumber": 91,
            "velocity": 116
        },
        {
            "deltaTime": 0,
            "channel": 0,
            "type": "noteOn",
            "noteNumber": 51,
            "velocity": 94
        },
        {
            "deltaTime": 0,
            "channel": 0,
            "type": "noteOn",
            "noteNumber": 79,
            "velocity": 116
        },
        {
            "deltaTime": 4,
            "channel": 0,
            "type": "noteOff",
            "noteNumber": 81,
            "velocity": 0
        },
        {
            "deltaTime": 0,
            "channel": 0,
            "type": "noteOff",
            "noteNumber": 67,
            "velocity": 0
        },
        {
            "deltaTime": 170,
            "channel": 0,
            "type": "noteOff",
            "noteNumber": 79,
            "velocity": 0
        },
        {
            "deltaTime": 12,
            "channel": 0,
            "type": "noteOff",
            "noteNumber": 91,
            "velocity": 0
        },
        {
            "deltaTime": 100,
            "channel": 0,
            "type": "noteOff",
            "noteNumber": 51,
            "velocity": 0
        },
        {
            "deltaTime": 4,
            "channel": 0,
            "type": "noteOff",
            "noteNumber": 63,
            "velocity": 0
        },
        {
            "deltaTime": 0,
            "channel": 0,
            "type": "noteOff",
            "noteNumber": 57,
            "velocity": 0
        },
        {
            "deltaTime": 0,
            "channel": 0,
            "type": "noteOff",
            "noteNumber": 60,
            "velocity": 0
        },
        {
            "deltaTime": 290,
            "channel": 0,
            "type": "noteOn",
            "noteNumber": 63,
            "velocity": 46
        },
        {
            "deltaTime": 0,
            "channel": 0,
            "type": "noteOn",
            "noteNumber": 66,
            "velocity": 46
        },
        {
            "deltaTime": 0,
            "channel": 0,
            "type": "noteOn",
            "noteNumber": 92,
            "velocity": 98
        },
        {
            "deltaTime": 0,
            "channel": 0,
            "type": "noteOn",
            "noteNumber": 80,
            "velocity": 109
        },
        {
            "deltaTime": 143,
            "channel": 0,
            "type": "noteOff",
            "noteNumber": 63,
            "velocity": 0
        },
        {
            "deltaTime": 0,
            "channel": 0,
            "type": "noteOff",
            "noteNumber": 66,
            "velocity": 0
        },
        {
            "deltaTime": 147,
            "channel": 0,
            "type": "noteOn",
            "noteNumber": 57,
            "velocity": 66
        },
        {
            "deltaTime": 0,
            "channel": 0,
            "type": "noteOn",
            "noteNumber": 63,
            "velocity": 66
        },
        {
            "deltaTime": 0,
            "channel": 0,
            "type": "noteOn",
            "noteNumber": 66,
            "velocity": 66
        },
        {
            "deltaTime": 187,
            "channel": 0,
            "type": "noteOff",
            "noteNumber": 57,
            "velocity": 0
        },
        {
            "deltaTime": 0,
            "channel": 0,
            "type": "noteOff",
            "noteNumber": 66,
            "velocity": 0
        },
        {
            "deltaTime": 0,
            "channel": 0,
            "type": "noteOff",
            "noteNumber": 63,
            "velocity": 0
        },
        {
            "deltaTime": 92,
            "channel": 0,
            "type": "noteOn",
            "noteNumber": 48,
            "velocity": 91
        },
        {
            "deltaTime": 280,
            "channel": 0,
            "type": "noteOff",
            "noteNumber": 92,
            "velocity": 0
        },
        {
            "deltaTime": 7,
            "channel": 0,
            "type": "noteOff",
            "noteNumber": 48,
            "velocity": 0
        },
        {
            "deltaTime": 40,
            "channel": 0,
            "type": "noteOff",
            "noteNumber": 80,
            "velocity": 0
        },
        {
            "deltaTime": 254,
            "channel": 0,
            "type": "noteOn",
            "noteNumber": 78,
            "velocity": 92
        },
        {
            "deltaTime": 0,
            "channel": 0,
            "type": "noteOn",
            "noteNumber": 66,
            "velocity": 69
        },
        {
            "deltaTime": 0,
            "channel": 0,
            "type": "noteOn",
            "noteNumber": 60,
            "velocity": 69
        },
        {
            "deltaTime": 288,
            "channel": 0,
            "type": "noteOff",
            "noteNumber": 78,
            "velocity": 0
        },
        {
            "deltaTime": 0,
            "channel": 0,
            "type": "noteOff",
            "noteNumber": 66,
            "velocity": 0
        },
        {
            "deltaTime": 0,
            "channel": 0,
            "type": "noteOff",
            "noteNumber": 60,
            "velocity": 0
        },
        {
            "deltaTime": 283,
            "channel": 0,
            "type": "noteOn",
            "noteNumber": 81,
            "velocity": 79
        },
        {
            "deltaTime": 0,
            "channel": 0,
            "type": "noteOn",
            "noteNumber": 44,
            "velocity": 93
        },
        {
            "deltaTime": 288,
            "channel": 0,
            "type": "noteOff",
            "noteNumber": 44,
            "velocity": 0
        },
        {
            "deltaTime": 0,
            "channel": 0,
            "type": "noteOff",
            "noteNumber": 81,
            "velocity": 0
        },
        {
            "deltaTime": 283,
            "channel": 0,
            "type": "noteOn",
            "noteNumber": 68,
            "velocity": 80
        },
        {
            "deltaTime": 0,
            "channel": 0,
            "type": "noteOn",
            "noteNumber": 60,
            "velocity": 80
        },
        {
            "deltaTime": 0,
            "channel": 0,
            "type": "noteOn",
            "noteNumber": 79,
            "velocity": 104
        },
        {
            "deltaTime": 0,
            "channel": 0,
            "type": "noteOn",
            "noteNumber": 66,
            "velocity": 80
        },
        {
            "deltaTime": 288,
            "channel": 0,
            "type": "noteOff",
            "noteNumber": 60,
            "velocity": 0
        },
        {
            "deltaTime": 0,
            "channel": 0,
            "type": "noteOff",
            "noteNumber": 68,
            "velocity": 0
        },
        {
            "deltaTime": 0,
            "channel": 0,
            "type": "noteOff",
            "noteNumber": 79,
            "velocity": 0
        },
        {
            "deltaTime": 0,
            "channel": 0,
            "type": "noteOff",
            "noteNumber": 66,
            "velocity": 0
        },
        {
            "deltaTime": 295,
            "channel": 0,
            "type": "noteOn",
            "noteNumber": 49,
            "velocity": 98
        },
        {
            "deltaTime": 0,
            "channel": 0,
            "type": "noteOn",
            "noteNumber": 80,
            "velocity": 115
        },
        {
            "deltaTime": 571,
            "channel": 0,
            "type": "noteOn",
            "noteNumber": 68,
            "velocity": 59
        },
        {
            "deltaTime": 0,
            "channel": 0,
            "type": "noteOn",
            "noteNumber": 64,
            "velocity": 59
        },
        {
            "deltaTime": 0,
            "channel": 0,
            "type": "noteOn",
            "noteNumber": 86,
            "velocity": 79
        },
        {
            "deltaTime": 0,
            "channel": 0,
            "type": "noteOn",
            "noteNumber": 63,
            "velocity": 59
        },
        {
            "deltaTime": 4,
            "channel": 0,
            "type": "noteOff",
            "noteNumber": 49,
            "velocity": 0
        },
        {
            "deltaTime": 0,
            "channel": 0,
            "type": "noteOff",
            "noteNumber": 80,
            "velocity": 0
        },
        {
            "deltaTime": 112,
            "channel": 0,
            "type": "noteOff",
            "noteNumber": 86,
            "velocity": 0
        },
        {
            "deltaTime": 3,
            "channel": 0,
            "type": "noteOn",
            "noteNumber": 87,
            "velocity": 110
        },
        {
            "deltaTime": 458,
            "channel": 0,
            "type": "noteOff",
            "noteNumber": 87,
            "velocity": 0
        },
        {
            "deltaTime": 3,
            "channel": 0,
            "type": "noteOn",
            "noteNumber": 80,
            "velocity": 91
        },
        {
            "deltaTime": 0,
            "channel": 0,
            "type": "noteOn",
            "noteNumber": 85,
            "velocity": 84
        },
        {
            "deltaTime": 0,
            "channel": 0,
            "type": "noteOn",
            "noteNumber": 44,
            "velocity": 66
        },
        {
            "deltaTime": 235,
            "channel": 0,
            "type": "noteOff",
            "noteNumber": 80,
            "velocity": 0
        },
        {
            "deltaTime": 0,
            "channel": 0,
            "type": "noteOff",
            "noteNumber": 85,
            "velocity": 0
        },
        {
            "deltaTime": 45,
            "channel": 0,
            "type": "noteOff",
            "noteNumber": 68,
            "velocity": 0
        },
        {
            "deltaTime": 0,
            "channel": 0,
            "type": "noteOff",
            "noteNumber": 64,
            "velocity": 0
        },
        {
            "deltaTime": 0,
            "channel": 0,
            "type": "noteOff",
            "noteNumber": 63,
            "velocity": 0
        },
        {
            "deltaTime": 67,
            "channel": 0,
            "type": "noteOff",
            "noteNumber": 44,
            "velocity": 0
        },
        {
            "deltaTime": 223,
            "channel": 0,
            "type": "noteOn",
            "noteNumber": 68,
            "velocity": 55
        },
        {
            "deltaTime": 0,
            "channel": 0,
            "type": "noteOn",
            "noteNumber": 64,
            "velocity": 55
        },
        {
            "deltaTime": 0,
            "channel": 0,
            "type": "noteOn",
            "noteNumber": 78,
            "velocity": 92
        },
        {
            "deltaTime": 151,
            "channel": 0,
            "type": "noteOff",
            "noteNumber": 64,
            "velocity": 0
        },
        {
            "deltaTime": 0,
            "channel": 0,
            "type": "noteOff",
            "noteNumber": 68,
            "velocity": 0
        },
        {
            "deltaTime": 136,
            "channel": 0,
            "type": "noteOff",
            "noteNumber": 78,
            "velocity": 0
        },
        {
            "deltaTime": 3,
            "channel": 0,
            "type": "noteOn",
            "noteNumber": 68,
            "velocity": 86
        },
        {
            "deltaTime": 0,
            "channel": 0,
            "type": "noteOn",
            "noteNumber": 64,
            "velocity": 86
        },
        {
            "deltaTime": 0,
            "channel": 0,
            "type": "noteOn",
            "noteNumber": 79,
            "velocity": 94
        },
        {
            "deltaTime": 0,
            "channel": 0,
            "type": "noteOn",
            "noteNumber": 63,
            "velocity": 86
        },
        {
            "deltaTime": 151,
            "channel": 0,
            "type": "noteOff",
            "noteNumber": 63,
            "velocity": 0
        },
        {
            "deltaTime": 0,
            "channel": 0,
            "type": "noteOff",
            "noteNumber": 64,
            "velocity": 0
        },
        {
            "deltaTime": 0,
            "channel": 0,
            "type": "noteOff",
            "noteNumber": 68,
            "velocity": 0
        },
        {
            "deltaTime": 128,
            "channel": 0,
            "type": "noteOn",
            "noteNumber": 73,
            "velocity": 97
        },
        {
            "deltaTime": 0,
            "channel": 0,
            "type": "noteOn",
            "noteNumber": 49,
            "velocity": 74
        },
        {
            "deltaTime": 0,
            "channel": 0,
            "type": "noteOn",
            "noteNumber": 80,
            "velocity": 97
        },
        {
            "deltaTime": 8,
            "channel": 0,
            "type": "noteOff",
            "noteNumber": 79,
            "velocity": 0
        },
        {
            "deltaTime": 166,
            "channel": 0,
            "type": "noteOff",
            "noteNumber": 80,
            "velocity": 0
        },
        {
            "deltaTime": 0,
            "channel": 0,
            "type": "noteOff",
            "noteNumber": 73,
            "velocity": 0
        },
        {
            "deltaTime": 172,
            "channel": 0,
            "type": "noteOff",
            "noteNumber": 49,
            "velocity": 0
        },
        {
            "deltaTime": 235,
            "channel": 0,
            "type": "noteOn",
            "noteNumber": 81,
            "velocity": 91
        },
        {
            "deltaTime": 0,
            "channel": 0,
            "type": "noteOn",
            "noteNumber": 64,
            "velocity": 69
        },
        {
            "deltaTime": 0,
            "channel": 0,
            "type": "noteOn",
            "noteNumber": 56,
            "velocity": 59
        },
        {
            "deltaTime": 0,
            "channel": 0,
            "type": "noteOn",
            "noteNumber": 61,
            "velocity": 69
        },
        {
            "deltaTime": 0,
            "channel": 0,
            "type": "noteOn",
            "noteNumber": 68,
            "velocity": 69
        },
        {
            "deltaTime": 235,
            "channel": 0,
            "type": "noteOff",
            "noteNumber": 64,
            "velocity": 0
        },
        {
            "deltaTime": 0,
            "channel": 0,
            "type": "noteOff",
            "noteNumber": 61,
            "velocity": 0
        },
        {
            "deltaTime": 0,
            "channel": 0,
            "type": "noteOff",
            "noteNumber": 68,
            "velocity": 0
        },
        {
            "deltaTime": 0,
            "channel": 0,
            "type": "noteOff",
            "noteNumber": 56,
            "velocity": 0
        },
        {
            "deltaTime": 52,
            "channel": 0,
            "type": "noteOff",
            "noteNumber": 81,
            "velocity": 0
        },
        {
            "deltaTime": 3,
            "channel": 0,
            "type": "noteOn",
            "noteNumber": 79,
            "velocity": 99
        },
        {
            "deltaTime": 279,
            "channel": 0,
            "type": "noteOn",
            "noteNumber": 52,
            "velocity": 64
        },
        {
            "deltaTime": 0,
            "channel": 0,
            "type": "noteOn",
            "noteNumber": 80,
            "velocity": 94
        },
        {
            "deltaTime": 8,
            "channel": 0,
            "type": "noteOff",
            "noteNumber": 79,
            "velocity": 0
        },
        {
            "deltaTime": 279,
            "channel": 0,
            "type": "noteOff",
            "noteNumber": 80,
            "velocity": 0
        },
        {
            "deltaTime": 3,
            "channel": 0,
            "type": "noteOn",
            "noteNumber": 76,
            "velocity": 92
        },
        {
            "deltaTime": 284,
            "channel": 0,
            "type": "noteOff",
            "noteNumber": 52,
            "velocity": 0
        },
        {
            "deltaTime": 3,
            "channel": 0,
            "type": "noteOff",
            "noteNumber": 76,
            "velocity": 0
        },
        {
            "deltaTime": 3,
            "channel": 0,
            "type": "noteOn",
            "noteNumber": 73,
            "velocity": 84
        },
        {
            "deltaTime": 0,
            "channel": 0,
            "type": "noteOn",
            "noteNumber": 61,
            "velocity": 89
        },
        {
            "deltaTime": 0,
            "channel": 0,
            "type": "noteOn",
            "noteNumber": 44,
            "velocity": 68
        },
        {
            "deltaTime": 279,
            "channel": 0,
            "type": "noteOn",
            "noteNumber": 68,
            "velocity": 92
        },
        {
            "deltaTime": 8,
            "channel": 0,
            "type": "noteOff",
            "noteNumber": 73,
            "velocity": 0
        },
        {
            "deltaTime": 0,
            "channel": 0,
            "type": "noteOff",
            "noteNumber": 44,
            "velocity": 0
        },
        {
            "deltaTime": 0,
            "channel": 0,
            "type": "noteOff",
            "noteNumber": 61,
            "velocity": 0
        },
        {
            "deltaTime": 279,
            "channel": 0,
            "type": "noteOff",
            "noteNumber": 68,
            "velocity": 0
        },
        {
            "deltaTime": 3,
            "channel": 0,
            "type": "noteOn",
            "noteNumber": 72,
            "velocity": 80
        },
        {
            "deltaTime": 0,
            "channel": 0,
            "type": "noteOn",
            "noteNumber": 76,
            "velocity": 97
        },
        {
            "deltaTime": 0,
            "channel": 0,
            "type": "noteOn",
            "noteNumber": 66,
            "velocity": 97
        },
        {
            "deltaTime": 0,
            "channel": 0,
            "type": "noteOn",
            "noteNumber": 44,
            "velocity": 84
        },
        {
            "deltaTime": 288,
            "channel": 0,
            "type": "noteOff",
            "noteNumber": 72,
            "velocity": 0
        },
        {
            "deltaTime": 0,
            "channel": 0,
            "type": "noteOff",
            "noteNumber": 76,
            "velocity": 0
        },
        {
            "deltaTime": 3,
            "channel": 0,
            "type": "noteOn",
            "noteNumber": 88,
            "velocity": 106
        },
        {
            "deltaTime": 1,
            "channel": 0,
            "type": "noteOff",
            "noteNumber": 66,
            "velocity": 0
        },
        {
            "deltaTime": 283,
            "channel": 0,
            "type": "noteOff",
            "noteNumber": 44,
            "velocity": 0
        },
        {
            "deltaTime": 3,
            "channel": 0,
            "type": "noteOff",
            "noteNumber": 88,
            "velocity": 0
        },
        {
            "deltaTime": 3,
            "channel": 0,
            "type": "noteOn",
            "noteNumber": 60,
            "velocity": 59
        },
        {
            "deltaTime": 0,
            "channel": 0,
            "type": "noteOn",
            "noteNumber": 56,
            "velocity": 59
        },
        {
            "deltaTime": 0,
            "channel": 0,
            "type": "noteOn",
            "noteNumber": 72,
            "velocity": 71
        },
        {
            "deltaTime": 0,
            "channel": 0,
            "type": "noteOn",
            "noteNumber": 84,
            "velocity": 71
        },
        {
            "deltaTime": 0,
            "channel": 0,
            "type": "noteOn",
            "noteNumber": 80,
            "velocity": 75
        },
        {
            "deltaTime": 225,
            "channel": 0,
            "type": "noteOff",
            "noteNumber": 72,
            "velocity": 0
        },
        {
            "deltaTime": 0,
            "channel": 0,
            "type": "noteOff",
            "noteNumber": 84,
            "velocity": 0
        },
        {
            "deltaTime": 26,
            "channel": 0,
            "type": "noteOff",
            "noteNumber": 80,
            "velocity": 0
        },
        {
            "deltaTime": 27,
            "channel": 0,
            "type": "noteOn",
            "noteNumber": 87,
            "velocity": 107
        },
        {
            "deltaTime": 8,
            "channel": 0,
            "type": "noteOff",
            "noteNumber": 56,
            "velocity": 0
        },
        {
            "deltaTime": 0,
            "channel": 0,
            "type": "noteOff",
            "noteNumber": 60,
            "velocity": 0
        },
        {
            "deltaTime": 130,
            "channel": 0,
            "type": "noteOff",
            "noteNumber": 87,
            "velocity": 0
        },
        {
            "deltaTime": 152,
            "channel": 0,
            "type": "noteOn",
            "noteNumber": 54,
            "velocity": 102
        },
        {
            "deltaTime": 0,
            "channel": 0,
            "type": "noteOn",
            "noteNumber": 78,
            "velocity": 95
        },
        {
            "deltaTime": 0,
            "channel": 0,
            "type": "noteOn",
            "noteNumber": 80,
            "velocity": 97
        },
        {
            "deltaTime": 0,
            "channel": 0,
            "type": "noteOn",
            "noteNumber": 68,
            "velocity": 97
        },
        {
            "deltaTime": 288,
            "channel": 0,
            "type": "noteOff",
            "noteNumber": 78,
            "velocity": 0
        },
        {
            "deltaTime": 0,
            "channel": 0,
            "type": "noteOff",
            "noteNumber": 68,
            "velocity": 0
        },
        {
            "deltaTime": 0,
            "channel": 0,
            "type": "noteOff",
            "noteNumber": 80,
            "velocity": 0
        },
        {
            "deltaTime": 0,
            "channel": 0,
            "type": "noteOff",
            "noteNumber": 54,
            "velocity": 0
        },
        {
            "deltaTime": 3,
            "channel": 0,
            "type": "noteOn",
            "noteNumber": 85,
            "velocity": 100
        },
        {
            "deltaTime": 0,
            "channel": 0,
            "type": "noteOn",
            "noteNumber": 55,
            "velocity": 83
        },
        {
            "deltaTime": 139,
            "channel": 0,
            "type": "noteOff",
            "noteNumber": 85,
            "velocity": 0
        },
        {
            "deltaTime": 140,
            "channel": 0,
            "type": "noteOn",
            "noteNumber": 75,
            "velocity": 105
        },
        {
            "deltaTime": 0,
            "channel": 0,
            "type": "noteOn",
            "noteNumber": 84,
            "velocity": 105
        },
        {
            "deltaTime": 0,
            "channel": 0,
            "type": "noteOn",
            "noteNumber": 66,
            "velocity": 112
        },
        {
            "deltaTime": 0,
            "channel": 0,
            "type": "noteOn",
            "noteNumber": 44,
            "velocity": 104
        },
        {
            "deltaTime": 0,
            "channel": 0,
            "type": "noteOn",
            "noteNumber": 78,
            "velocity": 112
        },
        {
            "deltaTime": 0,
            "channel": 0,
            "type": "noteOn",
            "noteNumber": 60,
            "velocity": 125
        },
        {
            "deltaTime": 8,
            "channel": 0,
            "type": "noteOff",
            "noteNumber": 55,
            "velocity": 0
        },
        {
            "deltaTime": 574,
            "channel": 0,
            "type": "noteOn",
            "noteNumber": 48,
            "velocity": 57
        },
        {
            "deltaTime": 280,
            "channel": 0,
            "type": "noteOff",
            "noteNumber": 66,
            "velocity": 0
        },
        {
            "deltaTime": 0,
            "channel": 0,
            "type": "noteOff",
            "noteNumber": 44,
            "velocity": 0
        },
        {
            "deltaTime": 0,
            "channel": 0,
            "type": "noteOff",
            "noteNumber": 84,
            "velocity": 0
        },
        {
            "deltaTime": 0,
            "channel": 0,
            "type": "noteOff",
            "noteNumber": 75,
            "velocity": 0
        },
        {
            "deltaTime": 0,
            "channel": 0,
            "type": "noteOff",
            "noteNumber": 78,
            "velocity": 0
        },
        {
            "deltaTime": 0,
            "channel": 0,
            "type": "noteOff",
            "noteNumber": 60,
            "velocity": 0
        },
        {
            "deltaTime": 7,
            "channel": 0,
            "type": "noteOff",
            "noteNumber": 48,
            "velocity": 0
        },
        {
            "deltaTime": 283,
            "channel": 0,
            "type": "noteOn",
            "noteNumber": 60,
            "velocity": 69
        },
        {
            "deltaTime": 0,
            "channel": 0,
            "type": "noteOn",
            "noteNumber": 72,
            "velocity": 82
        },
        {
            "deltaTime": 0,
            "channel": 0,
            "type": "noteOn",
            "noteNumber": 54,
            "velocity": 69
        },
        {
            "deltaTime": 288,
            "channel": 0,
            "type": "noteOff",
            "noteNumber": 60,
            "velocity": 0
        },
        {
            "deltaTime": 0,
            "channel": 0,
            "type": "noteOff",
            "noteNumber": 54,
            "velocity": 0
        },
        {
            "deltaTime": 288,
            "channel": 0,
            "type": "noteOff",
            "noteNumber": 72,
            "velocity": 0
        },
        {
            "deltaTime": 7,
            "channel": 0,
            "type": "noteOn",
            "noteNumber": 44,
            "velocity": 93
        },
        {
            "deltaTime": 0,
            "channel": 0,
            "type": "noteOn",
            "noteNumber": 73,
            "velocity": 72
        },
        {
            "deltaTime": 218,
            "channel": 0,
            "type": "noteOff",
            "noteNumber": 73,
            "velocity": 0
        },
        {
            "deltaTime": 69,
            "channel": 0,
            "type": "noteOff",
            "noteNumber": 44,
            "velocity": 0
        },
        {
            "deltaTime": 283,
            "channel": 0,
            "type": "noteOn",
            "noteNumber": 60,
            "velocity": 80
        },
        {
            "deltaTime": 0,
            "channel": 0,
            "type": "noteOn",
            "noteNumber": 75,
            "velocity": 84
        },
        {
            "deltaTime": 0,
            "channel": 0,
            "type": "noteOn",
            "noteNumber": 54,
            "velocity": 69
        },
        {
            "deltaTime": 192,
            "channel": 0,
            "type": "noteOff",
            "noteNumber": 75,
            "velocity": 0
        },
        {
            "deltaTime": 96,
            "channel": 0,
            "type": "noteOff",
            "noteNumber": 60,
            "velocity": 0
        },
        {
            "deltaTime": 0,
            "channel": 0,
            "type": "noteOff",
            "noteNumber": 54,
            "velocity": 0
        },
        {
            "deltaTime": 283,
            "channel": 0,
            "type": "noteOn",
            "noteNumber": 45,
            "velocity": 98
        },
        {
            "deltaTime": 0,
            "channel": 0,
            "type": "noteOn",
            "noteNumber": 76,
            "velocity": 98
        },
        {
            "deltaTime": 0,
            "channel": 0,
            "type": "noteOn",
            "noteNumber": 64,
            "velocity": 98
        },
        {
            "deltaTime": 575,
            "channel": 0,
            "type": "noteOff",
            "noteNumber": 64,
            "velocity": 0
        },
        {
            "deltaTime": 0,
            "channel": 0,
            "type": "noteOff",
            "noteNumber": 45,
            "velocity": 0
        },
        {
            "deltaTime": 0,
            "channel": 0,
            "type": "noteOff",
            "noteNumber": 76,
            "velocity": 0
        },
        {
            "deltaTime": 7,
            "channel": 0,
            "type": "noteOn",
            "noteNumber": 73,
            "velocity": 97
        },
        {
            "deltaTime": 0,
            "channel": 0,
            "type": "noteOn",
            "noteNumber": 61,
            "velocity": 77
        },
        {
            "deltaTime": 0,
            "channel": 0,
            "type": "noteOn",
            "noteNumber": 59,
            "velocity": 77
        },
        {
            "deltaTime": 259,
            "channel": 0,
            "type": "noteOff",
            "noteNumber": 73,
            "velocity": 0
        },
        {
            "deltaTime": 311,
            "channel": 0,
            "type": "noteOn",
            "noteNumber": 69,
            "velocity": 87
        },
        {
            "deltaTime": 0,
            "channel": 0,
            "type": "noteOn",
            "noteNumber": 81,
            "velocity": 84
        },
        {
            "deltaTime": 0,
            "channel": 0,
            "type": "noteOn",
            "noteNumber": 40,
            "velocity": 97
        },
        {
            "deltaTime": 4,
            "channel": 0,
            "type": "noteOff",
            "noteNumber": 59,
            "velocity": 0
        },
        {
            "deltaTime": 0,
            "channel": 0,
            "type": "noteOff",
            "noteNumber": 61,
            "velocity": 0
        },
        {
            "deltaTime": 343,
            "channel": 0,
            "type": "noteOff",
            "noteNumber": 40,
            "velocity": 0
        },
        {
            "deltaTime": 177,
            "channel": 0,
            "type": "noteOff",
            "noteNumber": 69,
            "velocity": 0
        },
        {
            "deltaTime": 0,
            "channel": 0,
            "type": "noteOff",
            "noteNumber": 81,
            "velocity": 0
        },
        {
            "deltaTime": 57,
            "channel": 0,
            "type": "noteOn",
            "noteNumber": 93,
            "velocity": 85
        },
        {
            "deltaTime": 0,
            "channel": 0,
            "type": "noteOn",
            "noteNumber": 57,
            "velocity": 74
        },
        {
            "deltaTime": 151,
            "channel": 0,
            "type": "noteOff",
            "noteNumber": 57,
            "velocity": 0
        },
        {
            "deltaTime": 128,
            "channel": 0,
            "type": "noteOn",
            "noteNumber": 63,
            "velocity": 74
        },
        {
            "deltaTime": 0,
            "channel": 0,
            "type": "noteOn",
            "noteNumber": 60,
            "velocity": 74
        },
        {
            "deltaTime": 0,
            "channel": 0,
            "type": "noteOn",
            "noteNumber": 56,
            "velocity": 74
        },
        {
            "deltaTime": 8,
            "channel": 0,
            "type": "noteOff",
            "noteNumber": 93,
            "velocity": 0
        },
        {
            "deltaTime": 217,
            "channel": 0,
            "type": "noteOff",
            "noteNumber": 56,
            "velocity": 0
        },
        {
            "deltaTime": 0,
            "channel": 0,
            "type": "noteOff",
            "noteNumber": 60,
            "velocity": 0
        },
        {
            "deltaTime": 0,
            "channel": 0,
            "type": "noteOff",
            "noteNumber": 63,
            "velocity": 0
        },
        {
            "deltaTime": 65,
            "channel": 0,
            "type": "noteOn",
            "noteNumber": 80,
            "velocity": 108
        },
        {
            "deltaTime": 0,
            "channel": 0,
            "type": "noteOn",
            "noteNumber": 44,
            "velocity": 74
        },
        {
            "deltaTime": 0,
            "channel": 0,
            "type": "noteOn",
            "noteNumber": 68,
            "velocity": 108
        },
        {
            "deltaTime": 348,
            "channel": 0,
            "type": "noteOff",
            "noteNumber": 44,
            "velocity": 0
        },
        {
            "deltaTime": 223,
            "channel": 0,
            "type": "noteOn",
            "noteNumber": 72,
            "velocity": 79
        },
        {
            "deltaTime": 0,
            "channel": 0,
            "type": "noteOn",
            "noteNumber": 60,
            "velocity": 79
        },
        {
            "deltaTime": 0,
            "channel": 0,
            "type": "noteOn",
            "noteNumber": 54,
            "velocity": 79
        },
        {
            "deltaTime": 0,
            "channel": 0,
            "type": "noteOn",
            "noteNumber": 63,
            "velocity": 79
        },
        {
            "deltaTime": 4,
            "channel": 0,
            "type": "noteOff",
            "noteNumber": 68,
            "velocity": 0
        },
        {
            "deltaTime": 0,
            "channel": 0,
            "type": "noteOff",
            "noteNumber": 80,
            "velocity": 0
        },
        {
            "deltaTime": 19,
            "channel": 0,
            "type": "noteOn",
            "noteNumber": 84,
            "velocity": 73
        },
        {
            "deltaTime": 210,
            "channel": 0,
            "type": "noteOff",
            "noteNumber": 54,
            "velocity": 0
        },
        {
            "deltaTime": 0,
            "channel": 0,
            "type": "noteOff",
            "noteNumber": 63,
            "velocity": 0
        },
        {
            "deltaTime": 0,
            "channel": 0,
            "type": "noteOff",
            "noteNumber": 60,
            "velocity": 0
        },
        {
            "deltaTime": 220,
            "channel": 0,
            "type": "noteOff",
            "noteNumber": 72,
            "velocity": 0
        },
        {
            "deltaTime": 2,
            "channel": 0,
            "type": "noteOff",
            "noteNumber": 84,
            "velocity": 0
        },
        {
            "deltaTime": 124,
            "channel": 0,
            "type": "noteOn",
            "noteNumber": 48,
            "velocity": 64
        },
        {
            "deltaTime": 0,
            "channel": 0,
            "type": "noteOn",
            "noteNumber": 75,
            "velocity": 107
        },
        {
            "deltaTime": 24,
            "channel": 0,
            "type": "noteOn",
            "noteNumber": 87,
            "velocity": 105
        },
        {
            "deltaTime": 546,
            "channel": 0,
            "type": "noteOn",
            "noteNumber": 84,
            "velocity": 86
        },
        {
            "deltaTime": 0,
            "channel": 0,
            "type": "noteOn",
            "noteNumber": 51,
            "velocity": 68
        },
        {
            "deltaTime": 0,
            "channel": 0,
            "type": "noteOn",
            "noteNumber": 56,
            "velocity": 89
        },
        {
            "deltaTime": 4,
            "channel": 0,
            "type": "noteOff",
            "noteNumber": 75,
            "velocity": 0
        },
        {
            "deltaTime": 0,
            "channel": 0,
            "type": "noteOff",
            "noteNumber": 48,
            "velocity": 0
        },
        {
            "deltaTime": 0,
            "channel": 0,
            "type": "noteOff",
            "noteNumber": 87,
            "velocity": 0
        },
        {
            "deltaTime": 282,
            "channel": 0,
            "type": "noteOff",
            "noteNumber": 51,
            "velocity": 0
        },
        {
            "deltaTime": 0,
            "channel": 0,
            "type": "noteOff",
            "noteNumber": 84,
            "velocity": 0
        },
        {
            "deltaTime": 0,
            "channel": 0,
            "type": "noteOff",
            "noteNumber": 56,
            "velocity": 0
        },
        {
            "deltaTime": 3,
            "channel": 0,
            "type": "noteOn",
            "noteNumber": 80,
            "velocity": 92
        },
        {
            "deltaTime": 288,
            "channel": 0,
            "type": "noteOff",
            "noteNumber": 80,
            "velocity": 0
        },
        {
            "deltaTime": 3,
            "channel": 0,
            "type": "noteOn",
            "noteNumber": 76,
            "velocity": 87
        },
        {
            "deltaTime": 0,
            "channel": 0,
            "type": "noteOn",
            "noteNumber": 49,
            "velocity": 98
        },
        {
            "deltaTime": 383,
            "channel": 0,
            "type": "noteOff",
            "noteNumber": 76,
            "velocity": 0
        },
        {
            "deltaTime": 187,
            "channel": 0,
            "type": "noteOn",
            "noteNumber": 63,
            "velocity": 51
        },
        {
            "deltaTime": 0,
            "channel": 0,
            "type": "noteOn",
            "noteNumber": 78,
            "velocity": 73
        },
        {
            "deltaTime": 0,
            "channel": 0,
            "type": "noteOn",
            "noteNumber": 68,
            "velocity": 51
        },
        {
            "deltaTime": 4,
            "channel": 0,
            "type": "noteOff",
            "noteNumber": 49,
            "velocity": 0
        },
        {
            "deltaTime": 7,
            "channel": 0,
            "type": "noteOn",
            "noteNumber": 64,
            "velocity": 51
        },
        {
            "deltaTime": 182,
            "channel": 0,
            "type": "noteOn",
            "noteNumber": 76,
            "velocity": 73
        },
        {
            "deltaTime": 9,
            "channel": 0,
            "type": "noteOff",
            "noteNumber": 78,
            "velocity": 0
        },
        {
            "deltaTime": 184,
            "channel": 0,
            "type": "noteOn",
            "noteNumber": 75,
            "velocity": 86
        },
        {
            "deltaTime": 9,
            "channel": 0,
            "type": "noteOff",
            "noteNumber": 76,
            "velocity": 0
        },
        {
            "deltaTime": 172,
            "channel": 0,
            "type": "noteOn",
            "noteNumber": 44,
            "velocity": 96
        },
        {
            "deltaTime": 0,
            "channel": 0,
            "type": "noteOn",
            "noteNumber": 76,
            "velocity": 97
        },
        {
            "deltaTime": 4,
            "channel": 0,
            "type": "noteOff",
            "noteNumber": 68,
            "velocity": 0
        },
        {
            "deltaTime": 0,
            "channel": 0,
            "type": "noteOff",
            "noteNumber": 63,
            "velocity": 0
        },
        {
            "deltaTime": 4,
            "channel": 0,
            "type": "noteOff",
            "noteNumber": 64,
            "velocity": 0
        },
        {
            "deltaTime": 11,
            "channel": 0,
            "type": "noteOff",
            "noteNumber": 75,
            "velocity": 0
        },
        {
            "deltaTime": 266,
            "channel": 0,
            "type": "noteOff",
            "noteNumber": 76,
            "velocity": 0
        },
        {
            "deltaTime": 288,
            "channel": 0,
            "type": "noteOff",
            "noteNumber": 44,
            "velocity": 0
        },
        {
            "deltaTime": 7,
            "channel": 0,
            "type": "noteOn",
            "noteNumber": 68,
            "velocity": 40
        },
        {
            "deltaTime": 0,
            "channel": 0,
            "type": "noteOn",
            "noteNumber": 78,
            "velocity": 84
        },
        {
            "deltaTime": 0,
            "channel": 0,
            "type": "noteOn",
            "noteNumber": 61,
            "velocity": 40
        },
        {
            "deltaTime": 151,
            "channel": 0,
            "type": "noteOff",
            "noteNumber": 61,
            "velocity": 0
        },
        {
            "deltaTime": 0,
            "channel": 0,
            "type": "noteOff",
            "noteNumber": 68,
            "velocity": 0
        },
        {
            "deltaTime": 136,
            "channel": 0,
            "type": "noteOff",
            "noteNumber": 78,
            "velocity": 0
        },
        {
            "deltaTime": 3,
            "channel": 0,
            "type": "noteOn",
            "noteNumber": 68,
            "velocity": 62
        },
        {
            "deltaTime": 0,
            "channel": 0,
            "type": "noteOn",
            "noteNumber": 64,
            "velocity": 62
        },
        {
            "deltaTime": 0,
            "channel": 0,
            "type": "noteOn",
            "noteNumber": 63,
            "velocity": 62
        },
        {
            "deltaTime": 279,
            "channel": 0,
            "type": "noteOn",
            "noteNumber": 50,
            "velocity": 85
        },
        {
            "deltaTime": 0,
            "channel": 0,
            "type": "noteOn",
            "noteNumber": 80,
            "velocity": 70
        },
        {
            "deltaTime": 8,
            "channel": 0,
            "type": "noteOff",
            "noteNumber": 64,
            "velocity": 0
        },
        {
            "deltaTime": 0,
            "channel": 0,
            "type": "noteOff",
            "noteNumber": 63,
            "velocity": 0
        },
        {
            "deltaTime": 0,
            "channel": 0,
            "type": "noteOff",
            "noteNumber": 68,
            "velocity": 0
        },
        {
            "deltaTime": 339,
            "channel": 0,
            "type": "noteOff",
            "noteNumber": 50,
            "velocity": 0
        },
        {
            "deltaTime": 129,
            "channel": 0,
            "type": "noteOff",
            "noteNumber": 80,
            "velocity": 0
        },
        {
            "deltaTime": 105,
            "channel": 0,
            "type": "noteOn",
            "noteNumber": 81,
            "velocity": 100
        },
        {
            "deltaTime": 0,
            "channel": 0,
            "type": "noteOn",
            "noteNumber": 66,
            "velocity": 94
        },
        {
            "deltaTime": 0,
            "channel": 0,
            "type": "noteOn",
            "noteNumber": 69,
            "velocity": 94
        },
        {
            "deltaTime": 0,
            "channel": 0,
            "type": "noteOn",
            "noteNumber": 61,
            "velocity": 86
        },
        {
            "deltaTime": 235,
            "channel": 0,
            "type": "noteOff",
            "noteNumber": 66,
            "velocity": 0
        },
        {
            "deltaTime": 0,
            "channel": 0,
            "type": "noteOff",
            "noteNumber": 69,
            "velocity": 0
        },
        {
            "deltaTime": 0,
            "channel": 0,
            "type": "noteOff",
            "noteNumber": 61,
            "velocity": 0
        },
        {
            "deltaTime": 52,
            "channel": 0,
            "type": "noteOff",
            "noteNumber": 81,
            "velocity": 0
        },
        {
            "deltaTime": 283,
            "channel": 0,
            "type": "noteOn",
            "noteNumber": 61,
            "velocity": 96
        },
        {
            "deltaTime": 0,
            "channel": 0,
            "type": "noteOn",
            "noteNumber": 52,
            "velocity": 101
        },
        {
            "deltaTime": 0,
            "channel": 0,
            "type": "noteOn",
            "noteNumber": 71,
            "velocity": 96
        },
        {
            "deltaTime": 0,
            "channel": 0,
            "type": "noteOn",
            "noteNumber": 83,
            "velocity": 102
        },
        {
            "deltaTime": 0,
            "channel": 0,
            "type": "noteOn",
            "noteNumber": 66,
            "velocity": 106
        },
        {
            "deltaTime": 290,
            "channel": 0,
            "type": "noteOff",
            "noteNumber": 83,
            "velocity": 0
        },
        {
            "deltaTime": 280,
            "channel": 0,
            "type": "noteOn",
            "noteNumber": 73,
            "velocity": 106
        },
        {
            "deltaTime": 0,
            "channel": 0,
            "type": "noteOn",
            "noteNumber": 76,
            "velocity": 79
        },
        {
            "deltaTime": 0,
            "channel": 0,
            "type": "noteOn",
            "noteNumber": 54,
            "velocity": 101
        },
        {
            "deltaTime": 0,
            "channel": 0,
            "type": "noteOn",
            "noteNumber": 85,
            "velocity": 110
        },
        {
            "deltaTime": 0,
            "channel": 0,
            "type": "noteOn",
            "noteNumber": 69,
            "velocity": 101
        },
        {
            "deltaTime": 4,
            "channel": 0,
            "type": "noteOff",
            "noteNumber": 66,
            "velocity": 0
        },
        {
            "deltaTime": 0,
            "channel": 0,
            "type": "noteOff",
            "noteNumber": 71,
            "velocity": 0
        },
        {
            "deltaTime": 0,
            "channel": 0,
            "type": "noteOff",
            "noteNumber": 52,
            "velocity": 0
        },
        {
            "deltaTime": 0,
            "channel": 0,
            "type": "noteOff",
            "noteNumber": 61,
            "velocity": 0
        },
        {
            "deltaTime": 230,
            "channel": 0,
            "type": "noteOff",
            "noteNumber": 73,
            "velocity": 0
        },
        {
            "deltaTime": 0,
            "channel": 0,
            "type": "noteOff",
            "noteNumber": 69,
            "velocity": 0
        },
        {
            "deltaTime": 52,
            "channel": 0,
            "type": "noteOff",
            "noteNumber": 85,
            "velocity": 0
        },
        {
            "deltaTime": 0,
            "channel": 0,
            "type": "noteOff",
            "noteNumber": 76,
            "velocity": 0
        },
        {
            "deltaTime": 0,
            "channel": 0,
            "type": "noteOff",
            "noteNumber": 54,
            "velocity": 0
        },
        {
            "deltaTime": 210,
            "channel": 0,
            "type": "noteOn",
            "noteNumber": 87,
            "velocity": 75
        },
        {
            "deltaTime": 85,
            "channel": 0,
            "type": "noteOn",
            "noteNumber": 76,
            "velocity": 99
        },
        {
            "deltaTime": 0,
            "channel": 0,
            "type": "noteOn",
            "noteNumber": 44,
            "velocity": 92
        },
        {
            "deltaTime": 0,
            "channel": 0,
            "type": "noteOn",
            "noteNumber": 56,
            "velocity": 92
        },
        {
            "deltaTime": 0,
            "channel": 0,
            "type": "noteOn",
            "noteNumber": 88,
            "velocity": 99
        },
        {
            "deltaTime": 142,
            "channel": 0,
            "type": "noteOff",
            "noteNumber": 87,
            "velocity": 0
        },
        {
            "deltaTime": 428,
            "channel": 0,
            "type": "noteOn",
            "noteNumber": 64,
            "velocity": 69
        },
        {
            "deltaTime": 0,
            "channel": 0,
            "type": "noteOn",
            "noteNumber": 68,
            "velocity": 69
        },
        {
            "deltaTime": 0,
            "channel": 0,
            "type": "noteOn",
            "noteNumber": 73,
            "velocity": 69
        },
        {
            "deltaTime": 4,
            "channel": 0,
            "type": "noteOff",
            "noteNumber": 44,
            "velocity": 0
        },
        {
            "deltaTime": 0,
            "channel": 0,
            "type": "noteOff",
            "noteNumber": 56,
            "velocity": 0
        },
        {
            "deltaTime": 213,
            "channel": 0,
            "type": "noteOff",
            "noteNumber": 76,
            "velocity": 0
        },
        {
            "deltaTime": 0,
            "channel": 0,
            "type": "noteOff",
            "noteNumber": 88,
            "velocity": 0
        },
        {
            "deltaTime": 352,
            "channel": 0,
            "type": "noteOn",
            "noteNumber": 87,
            "velocity": 70
        },
        {
            "deltaTime": 4,
            "channel": 0,
            "type": "noteOff",
            "noteNumber": 68,
            "velocity": 0
        },
        {
            "deltaTime": 0,
            "channel": 0,
            "type": "noteOff",
            "noteNumber": 64,
            "velocity": 0
        },
        {
            "deltaTime": 0,
            "channel": 0,
            "type": "noteOff",
            "noteNumber": 73,
            "velocity": 0
        },
        {
            "deltaTime": 7,
            "channel": 0,
            "type": "noteOn",
            "noteNumber": 49,
            "velocity": 69
        },
        {
            "deltaTime": 0,
            "channel": 0,
            "type": "noteOn",
            "noteNumber": 76,
            "velocity": 106
        },
        {
            "deltaTime": 60,
            "channel": 0,
            "type": "noteOn",
            "noteNumber": 88,
            "velocity": 106
        },
        {
            "deltaTime": 143,
            "channel": 0,
            "type": "noteOff",
            "noteNumber": 87,
            "velocity": 0
        },
        {
            "deltaTime": 84,
            "channel": 0,
            "type": "noteOff",
            "noteNumber": 49,
            "velocity": 0
        },
        {
            "deltaTime": 283,
            "channel": 0,
            "type": "noteOn",
            "noteNumber": 68,
            "velocity": 78
        },
        {
            "deltaTime": 0,
            "channel": 0,
            "type": "noteOn",
            "noteNumber": 92,
            "velocity": 118
        },
        {
            "deltaTime": 0,
            "channel": 0,
            "type": "noteOn",
            "noteNumber": 63,
            "velocity": 78
        },
        {
            "deltaTime": 4,
            "channel": 0,
            "type": "noteOff",
            "noteNumber": 76,
            "velocity": 0
        },
        {
            "deltaTime": 24,
            "channel": 0,
            "type": "noteOff",
            "noteNumber": 88,
            "velocity": 0
        },
        {
            "deltaTime": 133,
            "channel": 0,
            "type": "noteOff",
            "noteNumber": 63,
            "velocity": 0
        },
        {
            "deltaTime": 9,
            "channel": 0,
            "type": "noteOff",
            "noteNumber": 68,
            "velocity": 0
        },
        {
            "deltaTime": 118,
            "channel": 0,
            "type": "noteOn",
            "noteNumber": 68,
            "velocity": 93
        },
        {
            "deltaTime": 0,
            "channel": 0,
            "type": "noteOn",
            "noteNumber": 61,
            "velocity": 93
        },
        {
            "deltaTime": 284,
            "channel": 0,
            "type": "noteOff",
            "noteNumber": 92,
            "velocity": 0
        },
        {
            "deltaTime": 3,
            "channel": 0,
            "type": "noteOff",
            "noteNumber": 61,
            "velocity": 0
        },
        {
            "deltaTime": 0,
            "channel": 0,
            "type": "noteOff",
            "noteNumber": 68,
            "velocity": 0
        },
        {
            "deltaTime": 3,
            "channel": 0,
            "type": "noteOn",
            "noteNumber": 39,
            "velocity": 87
        },
        {
            "deltaTime": 0,
            "channel": 0,
            "type": "noteOn",
            "noteNumber": 78,
            "velocity": 104
        },
        {
            "deltaTime": 0,
            "channel": 0,
            "type": "noteOn",
            "noteNumber": 51,
            "velocity": 87
        },
        {
            "deltaTime": 0,
            "channel": 0,
            "type": "noteOn",
            "noteNumber": 90,
            "velocity": 87
        },
        {
            "deltaTime": 501,
            "channel": 0,
            "type": "noteOff",
            "noteNumber": 78,
            "velocity": 0
        },
        {
            "deltaTime": 0,
            "channel": 0,
            "type": "noteOff",
            "noteNumber": 90,
            "velocity": 0
        },
        {
            "deltaTime": 69,
            "channel": 0,
            "type": "noteOn",
            "noteNumber": 63,
            "velocity": 66
        },
        {
            "deltaTime": 0,
            "channel": 0,
            "type": "noteOn",
            "noteNumber": 72,
            "velocity": 66
        },
        {
            "deltaTime": 0,
            "channel": 0,
            "type": "noteOn",
            "noteNumber": 76,
            "velocity": 105
        },
        {
            "deltaTime": 0,
            "channel": 0,
            "type": "noteOn",
            "noteNumber": 68,
            "velocity": 66
        },
        {
            "deltaTime": 0,
            "channel": 0,
            "type": "noteOn",
            "noteNumber": 88,
            "velocity": 101
        },
        {
            "deltaTime": 4,
            "channel": 0,
            "type": "noteOff",
            "noteNumber": 39,
            "velocity": 0
        },
        {
            "deltaTime": 0,
            "channel": 0,
            "type": "noteOff",
            "noteNumber": 51,
            "velocity": 0
        },
        {
            "deltaTime": 283,
            "channel": 0,
            "type": "noteOff",
            "noteNumber": 88,
            "velocity": 0
        },
        {
            "deltaTime": 0,
            "channel": 0,
            "type": "noteOff",
            "noteNumber": 76,
            "velocity": 0
        },
        {
            "deltaTime": 16,
            "channel": 0,
            "type": "noteOff",
            "noteNumber": 63,
            "velocity": 0
        },
        {
            "deltaTime": 0,
            "channel": 0,
            "type": "noteOff",
            "noteNumber": 72,
            "velocity": 0
        },
        {
            "deltaTime": 0,
            "channel": 0,
            "type": "noteOff",
            "noteNumber": 68,
            "velocity": 0
        },
        {
            "deltaTime": 266,
            "channel": 0,
            "type": "noteOn",
            "noteNumber": 75,
            "velocity": 101
        },
        {
            "deltaTime": 0,
            "channel": 0,
            "type": "noteOn",
            "noteNumber": 87,
            "velocity": 116
        },
        {
            "deltaTime": 0,
            "channel": 0,
            "type": "noteOn",
            "noteNumber": 44,
            "velocity": 86
        },
        {
            "deltaTime": 575,
            "channel": 0,
            "type": "noteOff",
            "noteNumber": 87,
            "velocity": 0
        },
        {
            "deltaTime": 0,
            "channel": 0,
            "type": "noteOff",
            "noteNumber": 75,
            "velocity": 0
        },
        {
            "deltaTime": 0,
            "channel": 0,
            "type": "noteOff",
            "noteNumber": 44,
            "velocity": 0
        },
        {
            "deltaTime": 7,
            "channel": 0,
            "type": "noteOn",
            "noteNumber": 57,
            "velocity": 66
        },
        {
            "deltaTime": 0,
            "channel": 0,
            "type": "noteOn",
            "noteNumber": 63,
            "velocity": 66
        },
        {
            "deltaTime": 0,
            "channel": 0,
            "type": "noteOn",
            "noteNumber": 78,
            "velocity": 84
        },
        {
            "deltaTime": 0,
            "channel": 0,
            "type": "noteOn",
            "noteNumber": 72,
            "velocity": 81
        },
        {
            "deltaTime": 279,
            "channel": 0,
            "type": "noteOn",
            "noteNumber": 85,
            "velocity": 72
        },
        {
            "deltaTime": 8,
            "channel": 0,
            "type": "noteOff",
            "noteNumber": 78,
            "velocity": 0
        },
        {
            "deltaTime": 0,
            "channel": 0,
            "type": "noteOff",
            "noteNumber": 63,
            "velocity": 0
        },
        {
            "deltaTime": 0,
            "channel": 0,
            "type": "noteOff",
            "noteNumber": 57,
            "velocity": 0
        },
        {
            "deltaTime": 0,
            "channel": 0,
            "type": "noteOff",
            "noteNumber": 72,
            "velocity": 0
        },
        {
            "deltaTime": 279,
            "channel": 0,
            "type": "noteOff",
            "noteNumber": 85,
            "velocity": 0
        },
        {
            "deltaTime": 3,
            "channel": 0,
            "type": "noteOn",
            "noteNumber": 86,
            "velocity": 94
        },
        {
            "deltaTime": 0,
            "channel": 0,
            "type": "noteOn",
            "noteNumber": 56,
            "velocity": 94
        },
        {
            "deltaTime": 85,
            "channel": 0,
            "type": "noteOn",
            "noteNumber": 87,
            "velocity": 99
        },
        {
            "deltaTime": 116,
            "channel": 0,
            "type": "noteOff",
            "noteNumber": 86,
            "velocity": 0
        },
        {
            "deltaTime": 374,
            "channel": 0,
            "type": "noteOff",
            "noteNumber": 56,
            "velocity": 0
        },
        {
            "deltaTime": 3,
            "channel": 0,
            "type": "noteOff",
            "noteNumber": 87,
            "velocity": 0
        },
        {
            "deltaTime": 3,
            "channel": 0,
            "type": "noteOn",
            "noteNumber": 68,
            "velocity": 69
        },
        {
            "deltaTime": 0,
            "channel": 0,
            "type": "noteOn",
            "noteNumber": 80,
            "velocity": 72
        },
        {
            "deltaTime": 0,
            "channel": 0,
            "type": "noteOn",
            "noteNumber": 63,
            "velocity": 69
        },
        {
            "deltaTime": 0,
            "channel": 0,
            "type": "noteOn",
            "noteNumber": 72,
            "velocity": 69
        },
        {
            "deltaTime": 170,
            "channel": 0,
            "type": "noteOff",
            "noteNumber": 80,
            "velocity": 0
        },
        {
            "deltaTime": 48,
            "channel": 0,
            "type": "noteOn",
            "noteNumber": 92,
            "velocity": 87
        },
        {
            "deltaTime": 201,
            "channel": 0,
            "type": "noteOff",
            "noteNumber": 92,
            "velocity": 0
        },
        {
            "deltaTime": 4,
            "channel": 0,
            "type": "noteOn",
            "noteNumber": 80,
            "velocity": 68
        },
        {
            "deltaTime": 145,
            "channel": 0,
            "type": "noteOn",
            "noteNumber": 48,
            "velocity": 69
        },
        {
            "deltaTime": 4,
            "channel": 0,
            "type": "noteOff",
            "noteNumber": 68,
            "velocity": 0
        },
        {
            "deltaTime": 0,
            "channel": 0,
            "type": "noteOff",
            "noteNumber": 72,
            "velocity": 0
        },
        {
            "deltaTime": 0,
            "channel": 0,
            "type": "noteOff",
            "noteNumber": 63,
            "velocity": 0
        },
        {
            "deltaTime": 55,
            "channel": 0,
            "type": "noteOff",
            "noteNumber": 80,
            "velocity": 0
        },
        {
            "deltaTime": 24,
            "channel": 0,
            "type": "noteOn",
            "noteNumber": 92,
            "velocity": 106
        },
        {
            "deltaTime": 153,
            "channel": 0,
            "type": "noteOff",
            "noteNumber": 92,
            "velocity": 0
        },
        {
            "deltaTime": 16,
            "channel": 0,
            "type": "noteOn",
            "noteNumber": 80,
            "velocity": 101
        },
        {
            "deltaTime": 32,
            "channel": 0,
            "type": "noteOff",
            "noteNumber": 48,
            "velocity": 0
        },
        {
            "deltaTime": 147,
            "channel": 0,
            "type": "noteOff",
            "noteNumber": 80,
            "velocity": 0
        },
        {
            "deltaTime": 135,
            "channel": 0,
            "type": "noteOn",
            "noteNumber": 68,
            "velocity": 90
        },
        {
            "deltaTime": 0,
            "channel": 0,
            "type": "noteOn",
            "noteNumber": 63,
            "velocity": 90
        },
        {
            "deltaTime": 0,
            "channel": 0,
            "type": "noteOn",
            "noteNumber": 92,
            "velocity": 113
        },
        {
            "deltaTime": 0,
            "channel": 0,
            "type": "noteOn",
            "noteNumber": 87,
            "velocity": 120
        },
        {
            "deltaTime": 0,
            "channel": 0,
            "type": "noteOn",
            "noteNumber": 75,
            "velocity": 95
        },
        {
            "deltaTime": 230,
            "channel": 0,
            "type": "noteOff",
            "noteNumber": 63,
            "velocity": 0
        },
        {
            "deltaTime": 9,
            "channel": 0,
            "type": "noteOff",
            "noteNumber": 68,
            "velocity": 0
        },
        {
            "deltaTime": 47,
            "channel": 0,
            "type": "noteOff",
            "noteNumber": 87,
            "velocity": 0
        },
        {
            "deltaTime": 0,
            "channel": 0,
            "type": "noteOff",
            "noteNumber": 92,
            "velocity": 0
        },
        {
            "deltaTime": 0,
            "channel": 0,
            "type": "noteOff",
            "noteNumber": 75,
            "velocity": 0
        },
        {
            "deltaTime": 3,
            "channel": 0,
            "type": "noteOn",
            "noteNumber": 68,
            "velocity": 92
        },
        {
            "deltaTime": 0,
            "channel": 0,
            "type": "noteOn",
            "noteNumber": 60,
            "velocity": 92
        },
        {
            "deltaTime": 288,
            "channel": 0,
            "type": "noteOff",
            "noteNumber": 60,
            "velocity": 0
        },
        {
            "deltaTime": 0,
            "channel": 0,
            "type": "noteOff",
            "noteNumber": 68,
            "velocity": 0
        },
        {
            "deltaTime": 3,
            "channel": 0,
            "type": "noteOn",
            "noteNumber": 73,
            "velocity": 90
        },
        {
            "deltaTime": 0,
            "channel": 0,
            "type": "noteOn",
            "noteNumber": 51,
            "velocity": 87
        },
        {
            "deltaTime": 0,
            "channel": 0,
            "type": "noteOn",
            "noteNumber": 85,
            "velocity": 90
        },
        {
            "deltaTime": 288,
            "channel": 0,
            "type": "noteOff",
            "noteNumber": 85,
            "velocity": 0
        },
        {
            "deltaTime": 0,
            "channel": 0,
            "type": "noteOff",
            "noteNumber": 73,
            "velocity": 0
        },
        {
            "deltaTime": 270,
            "channel": 0,
            "type": "noteOn",
            "noteNumber": 60,
            "velocity": 79
        },
        {
            "deltaTime": 0,
            "channel": 0,
            "type": "noteOn",
            "noteNumber": 63,
            "velocity": 79
        },
        {
            "deltaTime": 12,
            "channel": 0,
            "type": "noteOn",
            "noteNumber": 68,
            "velocity": 79
        },
        {
            "deltaTime": 0,
            "channel": 0,
            "type": "noteOn",
            "noteNumber": 85,
            "velocity": 80
        },
        {
            "deltaTime": 4,
            "channel": 0,
            "type": "noteOff",
            "noteNumber": 51,
            "velocity": 0
        },
        {
            "deltaTime": 283,
            "channel": 0,
            "type": "noteOff",
            "noteNumber": 85,
            "velocity": 0
        },
        {
            "deltaTime": 3,
            "channel": 0,
            "type": "noteOn",
            "noteNumber": 87,
            "velocity": 84
        },
        {
            "deltaTime": 1,
            "channel": 0,
            "type": "noteOff",
            "noteNumber": 60,
            "velocity": 0
        },
        {
            "deltaTime": 0,
            "channel": 0,
            "type": "noteOff",
            "noteNumber": 63,
            "velocity": 0
        },
        {
            "deltaTime": 12,
            "channel": 0,
            "type": "noteOff",
            "noteNumber": 68,
            "velocity": 0
        },
        {
            "deltaTime": 188,
            "channel": 0,
            "type": "noteOff",
            "noteNumber": 87,
            "velocity": 0
        },
        {
            "deltaTime": 89,
            "channel": 0,
            "type": "noteOn",
            "noteNumber": 76,
            "velocity": 112
        },
        {
            "deltaTime": 0,
            "channel": 0,
            "type": "noteOn",
            "noteNumber": 66,
            "velocity": 112
        },
        {
            "deltaTime": 0,
            "channel": 0,
            "type": "noteOn",
            "noteNumber": 84,
            "velocity": 102
        },
        {
            "deltaTime": 0,
            "channel": 0,
            "type": "noteOn",
            "noteNumber": 51,
            "velocity": 112
        },
        {
            "deltaTime": 0,
            "channel": 0,
            "type": "noteOn",
            "noteNumber": 32,
            "velocity": 114
        },
        {
            "deltaTime": 0,
            "channel": 0,
            "type": "noteOn",
            "noteNumber": 60,
            "velocity": 102
        },
        {
            "deltaTime": 279,
            "channel": 0,
            "type": "noteOn",
            "noteNumber": 80,
            "velocity": 84
        },
        {
            "deltaTime": 8,
            "channel": 0,
            "type": "noteOff",
            "noteNumber": 60,
            "velocity": 0
        },
        {
            "deltaTime": 0,
            "channel": 0,
            "type": "noteOff",
            "noteNumber": 51,
            "velocity": 0
        },
        {
            "deltaTime": 0,
            "channel": 0,
            "type": "noteOff",
            "noteNumber": 84,
            "velocity": 0
        },
        {
            "deltaTime": 0,
            "channel": 0,
            "type": "noteOff",
            "noteNumber": 76,
            "velocity": 0
        },
        {
            "deltaTime": 0,
            "channel": 0,
            "type": "noteOff",
            "noteNumber": 66,
            "velocity": 0
        },
        {
            "deltaTime": 279,
            "channel": 0,
            "type": "noteOff",
            "noteNumber": 80,
            "velocity": 0
        },
        {
            "deltaTime": 3,
            "channel": 0,
            "type": "noteOn",
            "noteNumber": 63,
            "velocity": 77
        },
        {
            "deltaTime": 0,
            "channel": 0,
            "type": "noteOn",
            "noteNumber": 68,
            "velocity": 77
        },
        {
            "deltaTime": 0,
            "channel": 0,
            "type": "noteOn",
            "noteNumber": 78,
            "velocity": 99
        },
        {
            "deltaTime": 4,
            "channel": 0,
            "type": "noteOff",
            "noteNumber": 32,
            "velocity": 0
        },
        {
            "deltaTime": 175,
            "channel": 0,
            "type": "noteOff",
            "noteNumber": 68,
            "velocity": 0
        },
        {
            "deltaTime": 0,
            "channel": 0,
            "type": "noteOff",
            "noteNumber": 63,
            "velocity": 0
        },
        {
            "deltaTime": 0,
            "channel": 0,
            "type": "noteOff",
            "noteNumber": 78,
            "velocity": 0
        },
        {
            "deltaTime": 111,
            "channel": 0,
            "type": "noteOn",
            "noteNumber": 72,
            "velocity": 90
        },
        {
            "deltaTime": 179,
            "channel": 0,
            "type": "noteOff",
            "noteNumber": 72,
            "velocity": 0
        },
        {
            "deltaTime": 99,
            "channel": 0,
            "type": "noteOn",
            "noteNumber": 85,
            "velocity": 45
        },
        {
            "deltaTime": 0,
            "channel": 0,
            "type": "noteOn",
            "noteNumber": 49,
            "velocity": 61
        },
        {
            "deltaTime": 0,
            "channel": 0,
            "type": "noteOn",
            "noteNumber": 61,
            "velocity": 61
        },
        {
            "deltaTime": 0,
            "channel": 0,
            "type": "noteOn",
            "noteNumber": 76,
            "velocity": 61
        },
        {
            "deltaTime": 0,
            "channel": 0,
            "type": "noteOn",
            "noteNumber": 68,
            "velocity": 85
        },
        {
            "deltaTime": 288,
            "channel": 0,
            "type": "noteOff",
            "noteNumber": 76,
            "velocity": 0
        },
        {
            "deltaTime": 0,
            "channel": 0,
            "type": "noteOff",
            "noteNumber": 68,
            "velocity": 0
        },
        {
            "deltaTime": 0,
            "channel": 0,
            "type": "noteOff",
            "noteNumber": 85,
            "velocity": 0
        },
        {
            "deltaTime": 3,
            "channel": 0,
            "type": "noteOn",
            "noteNumber": 84,
            "velocity": 53
        },
        {
            "deltaTime": 284,
            "channel": 0,
            "type": "noteOff",
            "noteNumber": 61,
            "velocity": 0
        },
        {
            "deltaTime": 0,
            "channel": 0,
            "type": "noteOff",
            "noteNumber": 49,
            "velocity": 0
        },
        {
            "deltaTime": 3,
            "channel": 0,
            "type": "noteOff",
            "noteNumber": 84,
            "velocity": 0
        },
        {
            "deltaTime": 3,
            "channel": 0,
            "type": "noteOn",
            "noteNumber": 85,
            "velocity": 72
        },
        {
            "deltaTime": 288,
            "channel": 0,
            "type": "noteOff",
            "noteNumber": 85,
            "velocity": 0
        },
        {
            "deltaTime": 3,
            "channel": 0,
            "type": "noteOn",
            "noteNumber": 87,
            "velocity": 78
        },
        {
            "deltaTime": 279,
            "channel": 0,
            "type": "noteOn",
            "noteNumber": 71,
            "velocity": 23
        },
        {
            "deltaTime": 0,
            "channel": 0,
            "type": "noteOn",
            "noteNumber": 88,
            "velocity": 91
        },
        {
            "deltaTime": 8,
            "channel": 0,
            "type": "noteOff",
            "noteNumber": 87,
            "velocity": 0
        },
        {
            "deltaTime": 279,
            "channel": 0,
            "type": "noteOff",
            "noteNumber": 71,
            "velocity": 0
        },
        {
            "deltaTime": 0,
            "channel": 0,
            "type": "noteOff",
            "noteNumber": 88,
            "velocity": 0
        },
        {
            "deltaTime": 3,
            "channel": 0,
            "type": "noteOn",
            "noteNumber": 87,
            "velocity": 88
        },
        {
            "deltaTime": 0,
            "channel": 0,
            "type": "noteOn",
            "noteNumber": 68,
            "velocity": 46
        },
        {
            "deltaTime": 184,
            "channel": 0,
            "type": "noteOff",
            "noteNumber": 68,
            "velocity": 0
        },
        {
            "deltaTime": 103,
            "channel": 0,
            "type": "noteOff",
            "noteNumber": 87,
            "velocity": 0
        },
        {
            "deltaTime": 3,
            "channel": 0,
            "type": "noteOn",
            "noteNumber": 88,
            "velocity": 102
        },
        {
            "deltaTime": 0,
            "channel": 0,
            "type": "noteOn",
            "noteNumber": 69,
            "velocity": 69
        },
        {
            "deltaTime": 279,
            "channel": 0,
            "type": "noteOn",
            "noteNumber": 66,
            "velocity": 79
        },
        {
            "deltaTime": 0,
            "channel": 0,
            "type": "noteOn",
            "noteNumber": 90,
            "velocity": 107
        },
        {
            "deltaTime": 8,
            "channel": 0,
            "type": "noteOff",
            "noteNumber": 88,
            "velocity": 0
        },
        {
            "deltaTime": 0,
            "channel": 0,
            "type": "noteOff",
            "noteNumber": 69,
            "velocity": 0
        },
        {
            "deltaTime": 279,
            "channel": 0,
            "type": "noteOff",
            "noteNumber": 66,
            "velocity": 0
        },
        {
            "deltaTime": 0,
            "channel": 0,
            "type": "noteOff",
            "noteNumber": 90,
            "velocity": 0
        },
        {
            "deltaTime": 3,
            "channel": 0,
            "type": "noteOn",
            "noteNumber": 68,
            "velocity": 101
        },
        {
            "deltaTime": 0,
            "channel": 0,
            "type": "noteOn",
            "noteNumber": 61,
            "velocity": 101
        },
        {
            "deltaTime": 0,
            "channel": 0,
            "type": "noteOn",
            "noteNumber": 92,
            "velocity": 83
        },
        {
            "deltaTime": 0,
            "channel": 0,
            "type": "noteOn",
            "noteNumber": 80,
            "velocity": 104
        },
        {
            "deltaTime": 288,
            "channel": 0,
            "type": "noteOff",
            "noteNumber": 68,
            "velocity": 0
        },
        {
            "deltaTime": 0,
            "channel": 0,
            "type": "noteOff",
            "noteNumber": 92,
            "velocity": 0
        },
        {
            "deltaTime": 0,
            "channel": 0,
            "type": "noteOff",
            "noteNumber": 61,
            "velocity": 0
        },
        {
            "deltaTime": 0,
            "channel": 0,
            "type": "noteOff",
            "noteNumber": 80,
            "velocity": 0
        },
        {
            "deltaTime": 3,
            "channel": 0,
            "type": "noteOn",
            "noteNumber": 88,
            "velocity": 105
        },
        {
            "deltaTime": 279,
            "channel": 0,
            "type": "noteOn",
            "noteNumber": 85,
            "velocity": 105
        },
        {
            "deltaTime": 0,
            "channel": 0,
            "type": "noteOn",
            "noteNumber": 64,
            "velocity": 77
        },
        {
            "deltaTime": 8,
            "channel": 0,
            "type": "noteOff",
            "noteNumber": 88,
            "velocity": 0
        },
        {
            "deltaTime": 279,
            "channel": 0,
            "type": "noteOff",
            "noteNumber": 64,
            "velocity": 0
        },
        {
            "deltaTime": 0,
            "channel": 0,
            "type": "noteOff",
            "noteNumber": 85,
            "velocity": 0
        },
        {
            "deltaTime": 3,
            "channel": 0,
            "type": "noteOn",
            "noteNumber": 80,
            "velocity": 110
        },
        {
            "deltaTime": 288,
            "channel": 0,
            "type": "noteOff",
            "noteNumber": 80,
            "velocity": 0
        },
        {
            "deltaTime": 3,
            "channel": 0,
            "type": "noteOn",
            "noteNumber": 81,
            "velocity": 118
        },
        {
            "deltaTime": 0,
            "channel": 0,
            "type": "noteOn",
            "noteNumber": 60,
            "velocity": 107
        },
        {
            "deltaTime": 0,
            "channel": 0,
            "type": "noteOn",
            "noteNumber": 69,
            "velocity": 107
        },
        {
            "deltaTime": 0,
            "channel": 0,
            "type": "noteOn",
            "noteNumber": 51,
            "velocity": 107
        },
        {
            "deltaTime": 36,
            "channel": 0,
            "type": "noteOn",
            "noteNumber": 93,
            "velocity": 111
        },
        {
            "deltaTime": 247,
            "channel": 0,
            "type": "noteOff",
            "noteNumber": 93,
            "velocity": 0
        },
        {
            "deltaTime": 4,
            "channel": 0,
            "type": "noteOff",
            "noteNumber": 81,
            "velocity": 0
        },
        {
            "deltaTime": 3,
            "channel": 0,
            "type": "noteOn",
            "noteNumber": 91,
            "velocity": 109
        },
        {
            "deltaTime": 0,
            "channel": 0,
            "type": "noteOn",
            "noteNumber": 79,
            "velocity": 89
        },
        {
            "deltaTime": 279,
            "channel": 0,
            "type": "noteOn",
            "noteNumber": 55,
            "velocity": 90
        },
        {
            "deltaTime": 0,
            "channel": 0,
            "type": "noteOn",
            "noteNumber": 67,
            "velocity": 101
        },
        {
            "deltaTime": 0,
            "channel": 0,
            "type": "noteOn",
            "noteNumber": 75,
            "velocity": 112
        },
        {
            "deltaTime": 0,
            "channel": 0,
            "type": "noteOn",
            "noteNumber": 87,
            "velocity": 112
        },
        {
            "deltaTime": 4,
            "channel": 0,
            "type": "noteOff",
            "noteNumber": 51,
            "velocity": 0
        },
        {
            "deltaTime": 0,
            "channel": 0,
            "type": "noteOff",
            "noteNumber": 60,
            "velocity": 0
        },
        {
            "deltaTime": 0,
            "channel": 0,
            "type": "noteOff",
            "noteNumber": 69,
            "velocity": 0
        },
        {
            "deltaTime": 3,
            "channel": 0,
            "type": "noteOff",
            "noteNumber": 91,
            "velocity": 0
        },
        {
            "deltaTime": 0,
            "channel": 0,
            "type": "noteOff",
            "noteNumber": 79,
            "velocity": 0
        },
        {
            "deltaTime": 279,
            "channel": 0,
            "type": "noteOff",
            "noteNumber": 87,
            "velocity": 0
        },
        {
            "deltaTime": 0,
            "channel": 0,
            "type": "noteOff",
            "noteNumber": 67,
            "velocity": 0
        },
        {
            "deltaTime": 0,
            "channel": 0,
            "type": "noteOff",
            "noteNumber": 55,
            "velocity": 0
        },
        {
            "deltaTime": 0,
            "channel": 0,
            "type": "noteOff",
            "noteNumber": 75,
            "velocity": 0
        },
        {
            "deltaTime": 3,
            "channel": 0,
            "type": "noteOn",
            "noteNumber": 81,
            "velocity": 98
        },
        {
            "deltaTime": 0,
            "channel": 0,
            "type": "noteOn",
            "noteNumber": 69,
            "velocity": 98
        },
        {
            "deltaTime": 203,
            "channel": 0,
            "type": "noteOff",
            "noteNumber": 81,
            "velocity": 0
        },
        {
            "deltaTime": 4,
            "channel": 0,
            "type": "noteOff",
            "noteNumber": 69,
            "velocity": 0
        },
        {
            "deltaTime": 82,
            "channel": 0,
            "type": "noteOn",
            "noteNumber": 79,
            "velocity": 93
        },
        {
            "deltaTime": 0,
            "channel": 0,
            "type": "noteOn",
            "noteNumber": 49,
            "velocity": 103
        },
        {
            "deltaTime": 0,
            "channel": 0,
            "type": "noteOn",
            "noteNumber": 37,
            "velocity": 103
        },
        {
            "deltaTime": 0,
            "channel": 0,
            "type": "noteOn",
            "noteNumber": 91,
            "velocity": 125
        },
        {
            "deltaTime": 288,
            "channel": 0,
            "type": "noteOff",
            "noteNumber": 91,
            "velocity": 0
        },
        {
            "deltaTime": 270,
            "channel": 0,
            "type": "noteOn",
            "noteNumber": 64,
            "velocity": 64
        },
        {
            "deltaTime": 0,
            "channel": 0,
            "type": "noteOn",
            "noteNumber": 68,
            "velocity": 108
        },
        {
            "deltaTime": 0,
            "channel": 0,
            "type": "noteOn",
            "noteNumber": 63,
            "velocity": 64
        },
        {
            "deltaTime": 0,
            "channel": 0,
            "type": "noteOn",
            "noteNumber": 80,
            "velocity": 108
        },
        {
            "deltaTime": 17,
            "channel": 0,
            "type": "noteOff",
            "noteNumber": 49,
            "velocity": 0
        },
        {
            "deltaTime": 0,
            "channel": 0,
            "type": "noteOff",
            "noteNumber": 37,
            "velocity": 0
        },
        {
            "deltaTime": 0,
            "channel": 0,
            "type": "noteOff",
            "noteNumber": 79,
            "velocity": 0
        },
        {
            "deltaTime": 270,
            "channel": 0,
            "type": "noteOff",
            "noteNumber": 80,
            "velocity": 0
        },
        {
            "deltaTime": 0,
            "channel": 0,
            "type": "noteOff",
            "noteNumber": 68,
            "velocity": 0
        },
        {
            "deltaTime": 210,
            "channel": 0,
            "type": "noteOn",
            "noteNumber": 91,
            "velocity": 93
        },
        {
            "deltaTime": 77,
            "channel": 0,
            "type": "noteOff",
            "noteNumber": 63,
            "velocity": 0
        },
        {
            "deltaTime": 0,
            "channel": 0,
            "type": "noteOff",
            "noteNumber": 64,
            "velocity": 0
        },
        {
            "deltaTime": 7,
            "channel": 0,
            "type": "noteOn",
            "noteNumber": 92,
            "velocity": 101
        },
        {
            "deltaTime": 0,
            "channel": 0,
            "type": "noteOn",
            "noteNumber": 44,
            "velocity": 107
        },
        {
            "deltaTime": 97,
            "channel": 0,
            "type": "noteOff",
            "noteNumber": 91,
            "velocity": 0
        },
        {
            "deltaTime": 233,
            "channel": 0,
            "type": "noteOff",
            "noteNumber": 92,
            "velocity": 0
        },
        {
            "deltaTime": 16,
            "channel": 0,
            "type": "noteOff",
            "noteNumber": 44,
            "velocity": 0
        },
        {
            "deltaTime": 162,
            "channel": 0,
            "type": "noteOn",
            "noteNumber": 79,
            "velocity": 73
        },
        {
            "deltaTime": 48,
            "channel": 0,
            "type": "noteOn",
            "noteNumber": 91,
            "velocity": 91
        },
        {
            "deltaTime": 24,
            "channel": 0,
            "type": "noteOn",
            "noteNumber": 80,
            "velocity": 119
        },
        {
            "deltaTime": 0,
            "channel": 0,
            "type": "noteOn",
            "noteNumber": 68,
            "velocity": 49
        },
        {
            "deltaTime": 0,
            "channel": 0,
            "type": "noteOn",
            "noteNumber": 64,
            "velocity": 49
        },
        {
            "deltaTime": 60,
            "channel": 0,
            "type": "noteOn",
            "noteNumber": 92,
            "velocity": 116
        },
        {
            "deltaTime": 0,
            "channel": 0,
            "type": "noteOff",
            "noteNumber": 79,
            "velocity": 0
        },
        {
            "deltaTime": 48,
            "channel": 0,
            "type": "noteOff",
            "noteNumber": 91,
            "velocity": 0
        },
        {
            "deltaTime": 41,
            "channel": 0,
            "type": "noteOff",
            "noteNumber": 68,
            "velocity": 0
        },
        {
            "deltaTime": 0,
            "channel": 0,
            "type": "noteOff",
            "noteNumber": 64,
            "velocity": 0
        },
        {
            "deltaTime": 140,
            "channel": 0,
            "type": "noteOn",
            "noteNumber": 64,
            "velocity": 59
        },
        {
            "deltaTime": 0,
            "channel": 0,
            "type": "noteOn",
            "noteNumber": 68,
            "velocity": 59
        },
        {
            "deltaTime": 0,
            "channel": 0,
            "type": "noteOn",
            "noteNumber": 63,
            "velocity": 59
        },
        {
            "deltaTime": 162,
            "channel": 0,
            "type": "noteOff",
            "noteNumber": 92,
            "velocity": 0
        },
        {
            "deltaTime": 4,
            "channel": 0,
            "type": "noteOff",
            "noteNumber": 80,
            "velocity": 0
        },
        {
            "deltaTime": 112,
            "channel": 0,
            "type": "noteOn",
            "noteNumber": 49,
            "velocity": 84
        },
        {
            "deltaTime": 8,
            "channel": 0,
            "type": "noteOff",
            "noteNumber": 63,
            "velocity": 0
        },
        {
            "deltaTime": 0,
            "channel": 0,
            "type": "noteOff",
            "noteNumber": 64,
            "velocity": 0
        },
        {
            "deltaTime": 0,
            "channel": 0,
            "type": "noteOff",
            "noteNumber": 68,
            "velocity": 0
        },
        {
            "deltaTime": 283,
            "channel": 0,
            "type": "noteOn",
            "noteNumber": 87,
            "velocity": 97
        },
        {
            "deltaTime": 56,
            "channel": 0,
            "type": "noteOff",
            "noteNumber": 49,
            "velocity": 0
        },
        {
            "deltaTime": 231,
            "channel": 0,
            "type": "noteOff",
            "noteNumber": 87,
            "velocity": 0
        },
        {
            "deltaTime": 3,
            "channel": 0,
            "type": "noteOn",
            "noteNumber": 61,
            "velocity": 79
        },
        {
            "deltaTime": 0,
            "channel": 0,
            "type": "noteOn",
            "noteNumber": 85,
            "velocity": 83
        },
        {
            "deltaTime": 0,
            "channel": 0,
            "type": "noteOn",
            "noteNumber": 56,
            "velocity": 69
        },
        {
            "deltaTime": 0,
            "channel": 0,
            "type": "noteOn",
            "noteNumber": 68,
            "velocity": 79
        },
        {
            "deltaTime": 0,
            "channel": 0,
            "type": "noteOn",
            "noteNumber": 64,
            "velocity": 79
        },
        {
            "deltaTime": 235,
            "channel": 0,
            "type": "noteOff",
            "noteNumber": 64,
            "velocity": 0
        },
        {
            "deltaTime": 0,
            "channel": 0,
            "type": "noteOff",
            "noteNumber": 61,
            "velocity": 0
        },
        {
            "deltaTime": 0,
            "channel": 0,
            "type": "noteOff",
            "noteNumber": 68,
            "velocity": 0
        },
        {
            "deltaTime": 0,
            "channel": 0,
            "type": "noteOff",
            "noteNumber": 56,
            "velocity": 0
        },
        {
            "deltaTime": 44,
            "channel": 0,
            "type": "noteOn",
            "noteNumber": 84,
            "velocity": 73
        },
        {
            "deltaTime": 8,
            "channel": 0,
            "type": "noteOff",
            "noteNumber": 85,
            "velocity": 0
        },
        {
            "deltaTime": 234,
            "channel": 0,
            "type": "noteOn",
            "noteNumber": 79,
            "velocity": 38
        },
        {
            "deltaTime": 0,
            "channel": 0,
            "type": "noteOn",
            "noteNumber": 91,
            "velocity": 97
        },
        {
            "deltaTime": 44,
            "channel": 0,
            "type": "noteOff",
            "noteNumber": 84,
            "velocity": 0
        },
        {
            "deltaTime": 3,
            "channel": 0,
            "type": "noteOn",
            "noteNumber": 92,
            "velocity": 108
        },
        {
            "deltaTime": 0,
            "channel": 0,
            "type": "noteOn",
            "noteNumber": 52,
            "velocity": 74
        },
        {
            "deltaTime": 0,
            "channel": 0,
            "type": "noteOn",
            "noteNumber": 80,
            "velocity": 87
        },
        {
            "deltaTime": 0,
            "channel": 0,
            "type": "noteOn",
            "noteNumber": 85,
            "velocity": 113
        },
        {
            "deltaTime": 85,
            "channel": 0,
            "type": "noteOff",
            "noteNumber": 91,
            "velocity": 0
        },
        {
            "deltaTime": 0,
            "channel": 0,
            "type": "noteOff",
            "noteNumber": 79,
            "velocity": 0
        },
        {
            "deltaTime": 348,
            "channel": 0,
            "type": "noteOff",
            "noteNumber": 80,
            "velocity": 0
        },
        {
            "deltaTime": 0,
            "channel": 0,
            "type": "noteOff",
            "noteNumber": 92,
            "velocity": 0
        },
        {
            "deltaTime": 141,
            "channel": 0,
            "type": "noteOff",
            "noteNumber": 85,
            "velocity": 0
        },
        {
            "deltaTime": 0,
            "channel": 0,
            "type": "noteOff",
            "noteNumber": 52,
            "velocity": 0
        },
        {
            "deltaTime": 7,
            "channel": 0,
            "type": "noteOn",
            "noteNumber": 51,
            "velocity": 74
        },
        {
            "deltaTime": 0,
            "channel": 0,
            "type": "noteOn",
            "noteNumber": 68,
            "velocity": 94
        },
        {
            "deltaTime": 0,
            "channel": 0,
            "type": "noteOn",
            "noteNumber": 64,
            "velocity": 94
        },
        {
            "deltaTime": 0,
            "channel": 0,
            "type": "noteOn",
            "noteNumber": 61,
            "velocity": 94
        },
        {
            "deltaTime": 0,
            "channel": 0,
            "type": "noteOn",
            "noteNumber": 80,
            "velocity": 99
        },
        {
            "deltaTime": 288,
            "channel": 0,
            "type": "noteOff",
            "noteNumber": 61,
            "velocity": 0
        },
        {
            "deltaTime": 0,
            "channel": 0,
            "type": "noteOff",
            "noteNumber": 68,
            "velocity": 0
        },
        {
            "deltaTime": 0,
            "channel": 0,
            "type": "noteOff",
            "noteNumber": 64,
            "velocity": 0
        },
        {
            "deltaTime": 0,
            "channel": 0,
            "type": "noteOff",
            "noteNumber": 80,
            "velocity": 0
        },
        {
            "deltaTime": 60,
            "channel": 0,
            "type": "noteOff",
            "noteNumber": 51,
            "velocity": 0
        },
        {
            "deltaTime": 223,
            "channel": 0,
            "type": "noteOn",
            "noteNumber": 44,
            "velocity": 94
        },
        {
            "deltaTime": 0,
            "channel": 0,
            "type": "noteOn",
            "noteNumber": 83,
            "velocity": 111
        },
        {
            "deltaTime": 0,
            "channel": 0,
            "type": "noteOn",
            "noteNumber": 32,
            "velocity": 94
        },
        {
            "deltaTime": 291,
            "channel": 0,
            "type": "noteOn",
            "noteNumber": 95,
            "velocity": 81
        },
        {
            "deltaTime": 140,
            "channel": 0,
            "type": "noteOff",
            "noteNumber": 83,
            "velocity": 0
        },
        {
            "deltaTime": 139,
            "channel": 0,
            "type": "noteOn",
            "noteNumber": 67,
            "velocity": 93
        },
        {
            "deltaTime": 0,
            "channel": 0,
            "type": "noteOn",
            "noteNumber": 81,
            "velocity": 95
        },
        {
            "deltaTime": 0,
            "channel": 0,
            "type": "noteOn",
            "noteNumber": 60,
            "velocity": 69
        },
        {
            "deltaTime": 0,
            "channel": 0,
            "type": "noteOn",
            "noteNumber": 63,
            "velocity": 69
        },
        {
            "deltaTime": 4,
            "channel": 0,
            "type": "noteOff",
            "noteNumber": 44,
            "velocity": 0
        },
        {
            "deltaTime": 0,
            "channel": 0,
            "type": "noteOff",
            "noteNumber": 32,
            "velocity": 0
        },
        {
            "deltaTime": 3,
            "channel": 0,
            "type": "noteOff",
            "noteNumber": 95,
            "velocity": 0
        },
        {
            "deltaTime": 130,
            "channel": 0,
            "type": "noteOff",
            "noteNumber": 63,
            "velocity": 0
        },
        {
            "deltaTime": 0,
            "channel": 0,
            "type": "noteOff",
            "noteNumber": 60,
            "velocity": 0
        },
        {
            "deltaTime": 0,
            "channel": 0,
            "type": "noteOff",
            "noteNumber": 67,
            "velocity": 0
        },
        {
            "deltaTime": 152,
            "channel": 0,
            "type": "noteOn",
            "noteNumber": 93,
            "velocity": 105
        },
        {
            "deltaTime": 0,
            "channel": 0,
            "type": "noteOn",
            "noteNumber": 63,
            "velocity": 84
        },
        {
            "deltaTime": 0,
            "channel": 0,
            "type": "noteOn",
            "noteNumber": 67,
            "velocity": 93
        },
        {
            "deltaTime": 0,
            "channel": 0,
            "type": "noteOn",
            "noteNumber": 57,
            "velocity": 84
        },
        {
            "deltaTime": 140,
            "channel": 0,
            "type": "noteOff",
            "noteNumber": 81,
            "velocity": 0
        },
        {
            "deltaTime": 147,
            "channel": 0,
            "type": "noteOff",
            "noteNumber": 57,
            "velocity": 0
        },
        {
            "deltaTime": 0,
            "channel": 0,
            "type": "noteOff",
            "noteNumber": 93,
            "velocity": 0
        },
        {
            "deltaTime": 0,
            "channel": 0,
            "type": "noteOff",
            "noteNumber": 67,
            "velocity": 0
        },
        {
            "deltaTime": 0,
            "channel": 0,
            "type": "noteOff",
            "noteNumber": 63,
            "velocity": 0
        },
        {
            "deltaTime": 3,
            "channel": 0,
            "type": "noteOn",
            "noteNumber": 79,
            "velocity": 108
        },
        {
            "deltaTime": 0,
            "channel": 0,
            "type": "noteOn",
            "noteNumber": 51,
            "velocity": 90
        },
        {
            "deltaTime": 12,
            "channel": 0,
            "type": "noteOn",
            "noteNumber": 91,
            "velocity": 108
        },
        {
            "deltaTime": 163,
            "channel": 0,
            "type": "noteOff",
            "noteNumber": 79,
            "velocity": 0
        },
        {
            "deltaTime": 24,
            "channel": 0,
            "type": "noteOff",
            "noteNumber": 91,
            "velocity": 0
        },
        {
            "deltaTime": 88,
            "channel": 0,
            "type": "noteOff",
            "noteNumber": 51,
            "velocity": 0
        },
        {
            "deltaTime": 283,
            "channel": 0,
            "type": "noteOn",
            "noteNumber": 57,
            "velocity": 113
        },
        {
            "deltaTime": 0,
            "channel": 0,
            "type": "noteOn",
            "noteNumber": 63,
            "velocity": 106
        },
        {
            "deltaTime": 0,
            "channel": 0,
            "type": "noteOn",
            "noteNumber": 66,
            "velocity": 106
        },
        {
            "deltaTime": 0,
            "channel": 0,
            "type": "noteOn",
            "noteNumber": 92,
            "velocity": 119
        },
        {
            "deltaTime": 0,
            "channel": 0,
            "type": "noteOn",
            "noteNumber": 72,
            "velocity": 106
        },
        {
            "deltaTime": 0,
            "channel": 0,
            "type": "noteOn",
            "noteNumber": 80,
            "velocity": 119
        },
        {
            "deltaTime": 288,
            "channel": 0,
            "type": "noteOff",
            "noteNumber": 80,
            "velocity": 0
        },
        {
            "deltaTime": 0,
            "channel": 0,
            "type": "noteOff",
            "noteNumber": 92,
            "velocity": 0
        },
        {
            "deltaTime": 27,
            "channel": 0,
            "type": "noteOn",
            "noteNumber": 84,
            "velocity": 49
        },
        {
            "deltaTime": 260,
            "channel": 0,
            "type": "noteOff",
            "noteNumber": 72,
            "velocity": 0
        },
        {
            "deltaTime": 0,
            "channel": 0,
            "type": "noteOff",
            "noteNumber": 66,
            "velocity": 0
        },
        {
            "deltaTime": 0,
            "channel": 0,
            "type": "noteOff",
            "noteNumber": 57,
            "velocity": 0
        },
        {
            "deltaTime": 0,
            "channel": 0,
            "type": "noteOff",
            "noteNumber": 63,
            "velocity": 0
        },
        {
            "deltaTime": 6,
            "channel": 0,
            "type": "noteOff",
            "noteNumber": 84,
            "velocity": 0
        },
        {
            "deltaTime": 0,
            "channel": 0,
            "type": "noteOn",
            "noteNumber": 78,
            "velocity": 68
        },
        {
            "deltaTime": 0,
            "channel": 0,
            "type": "noteOn",
            "noteNumber": 48,
            "velocity": 90
        },
        {
            "deltaTime": 0,
            "channel": 0,
            "type": "noteOn",
            "noteNumber": 36,
            "velocity": 90
        },
        {
            "deltaTime": 266,
            "channel": 0,
            "type": "noteOff",
            "noteNumber": 78,
            "velocity": 0
        },
        {
            "deltaTime": 13,
            "channel": 0,
            "type": "noteOn",
            "noteNumber": 92,
            "velocity": 91
        },
        {
            "deltaTime": 266,
            "channel": 0,
            "type": "noteOff",
            "noteNumber": 92,
            "velocity": 0
        },
        {
            "deltaTime": 25,
            "channel": 0,
            "type": "noteOn",
            "noteNumber": 66,
            "velocity": 74
        },
        {
            "deltaTime": 0,
            "channel": 0,
            "type": "noteOn",
            "noteNumber": 90,
            "velocity": 78
        },
        {
            "deltaTime": 0,
            "channel": 0,
            "type": "noteOn",
            "noteNumber": 60,
            "velocity": 74
        },
        {
            "deltaTime": 4,
            "channel": 0,
            "type": "noteOff",
            "noteNumber": 36,
            "velocity": 0
        },
        {
            "deltaTime": 0,
            "channel": 0,
            "type": "noteOff",
            "noteNumber": 48,
            "velocity": 0
        },
        {
            "deltaTime": 283,
            "channel": 0,
            "type": "noteOff",
            "noteNumber": 66,
            "velocity": 0
        },
        {
            "deltaTime": 0,
            "channel": 0,
            "type": "noteOff",
            "noteNumber": 60,
            "velocity": 0
        },
        {
            "deltaTime": 0,
            "channel": 0,
            "type": "noteOff",
            "noteNumber": 90,
            "velocity": 0
        },
        {
            "deltaTime": 3,
            "channel": 0,
            "type": "noteOn",
            "noteNumber": 87,
            "velocity": 88
        },
        {
            "deltaTime": 279,
            "channel": 0,
            "type": "noteOn",
            "noteNumber": 84,
            "velocity": 111
        },
        {
            "deltaTime": 0,
            "channel": 0,
            "type": "noteOn",
            "noteNumber": 44,
            "velocity": 98
        },
        {
            "deltaTime": 8,
            "channel": 0,
            "type": "noteOff",
            "noteNumber": 87,
            "velocity": 0
        },
        {
            "deltaTime": 279,
            "channel": 0,
            "type": "noteOff",
            "noteNumber": 44,
            "velocity": 0
        },
        {
            "deltaTime": 0,
            "channel": 0,
            "type": "noteOff",
            "noteNumber": 84,
            "velocity": 0
        },
        {
            "deltaTime": 3,
            "channel": 0,
            "type": "noteOn",
            "noteNumber": 80,
            "velocity": 84
        },
        {
            "deltaTime": 288,
            "channel": 0,
            "type": "noteOff",
            "noteNumber": 80,
            "velocity": 0
        },
        {
            "deltaTime": 3,
            "channel": 0,
            "type": "noteOn",
            "noteNumber": 68,
            "velocity": 85
        },
        {
            "deltaTime": 0,
            "channel": 0,
            "type": "noteOn",
            "noteNumber": 60,
            "velocity": 85
        },
        {
            "deltaTime": 0,
            "channel": 0,
            "type": "noteOn",
            "noteNumber": 81,
            "velocity": 113
        },
        {
            "deltaTime": 0,
            "channel": 0,
            "type": "noteOn",
            "noteNumber": 66,
            "velocity": 85
        },
        {
            "deltaTime": 279,
            "channel": 0,
            "type": "noteOn",
            "noteNumber": 75,
            "velocity": 91
        },
        {
            "deltaTime": 8,
            "channel": 0,
            "type": "noteOff",
            "noteNumber": 81,
            "velocity": 0
        },
        {
            "deltaTime": 0,
            "channel": 0,
            "type": "noteOff",
            "noteNumber": 66,
            "velocity": 0
        },
        {
            "deltaTime": 0,
            "channel": 0,
            "type": "noteOff",
            "noteNumber": 60,
            "velocity": 0
        },
        {
            "deltaTime": 0,
            "channel": 0,
            "type": "noteOff",
            "noteNumber": 68,
            "velocity": 0
        },
        {
            "deltaTime": 149,
            "channel": 0,
            "type": "noteOff",
            "noteNumber": 75,
            "velocity": 0
        },
        {
            "deltaTime": 84,
            "channel": 0,
            "type": "noteOn",
            "noteNumber": 79,
            "velocity": 86
        },
        {
            "deltaTime": 48,
            "channel": 0,
            "type": "noteOn",
            "noteNumber": 37,
            "velocity": 98
        },
        {
            "deltaTime": 0,
            "channel": 0,
            "type": "noteOn",
            "noteNumber": 80,
            "velocity": 109
        },
        {
            "deltaTime": 0,
            "channel": 0,
            "type": "noteOn",
            "noteNumber": 49,
            "velocity": 98
        },
        {
            "deltaTime": 85,
            "channel": 0,
            "type": "noteOff",
            "noteNumber": 79,
            "velocity": 0
        },
        {
            "deltaTime": 490,
            "channel": 0,
            "type": "noteOff",
            "noteNumber": 49,
            "velocity": 0
        },
        {
            "deltaTime": 0,
            "channel": 0,
            "type": "noteOff",
            "noteNumber": 80,
            "velocity": 0
        },
        {
            "deltaTime": 0,
            "channel": 0,
            "type": "noteOff",
            "noteNumber": 37,
            "velocity": 0
        },
        {
            "deltaTime": 7,
            "channel": 0,
            "type": "noteOn",
            "noteNumber": 63,
            "velocity": 59
        },
        {
            "deltaTime": 0,
            "channel": 0,
            "type": "noteOn",
            "noteNumber": 64,
            "velocity": 59
        },
        {
            "deltaTime": 0,
            "channel": 0,
            "type": "noteOn",
            "noteNumber": 61,
            "velocity": 59
        },
        {
            "deltaTime": 498,
            "channel": 0,
            "type": "noteOn",
            "noteNumber": 79,
            "velocity": 91
        },
        {
            "deltaTime": 24,
            "channel": 0,
            "type": "noteOn",
            "noteNumber": 67,
            "velocity": 79
        },
        {
            "deltaTime": 48,
            "channel": 0,
            "type": "noteOn",
            "noteNumber": 80,
            "velocity": 113
        },
        {
            "deltaTime": 0,
            "channel": 0,
            "type": "noteOn",
            "noteNumber": 68,
            "velocity": 114
        },
        {
            "deltaTime": 0,
            "channel": 0,
            "type": "noteOn",
            "noteNumber": 44,
            "velocity": 66
        },
        {
            "deltaTime": 76,
            "channel": 0,
            "type": "noteOff",
            "noteNumber": 67,
            "velocity": 0
        },
        {
            "deltaTime": 52,
            "channel": 0,
            "type": "noteOff",
            "noteNumber": 79,
            "velocity": 0
        },
        {
            "deltaTime": 164,
            "channel": 0,
            "type": "noteOff",
            "noteNumber": 64,
            "velocity": 0
        },
        {
            "deltaTime": 0,
            "channel": 0,
            "type": "noteOff",
            "noteNumber": 63,
            "velocity": 0
        },
        {
            "deltaTime": 0,
            "channel": 0,
            "type": "noteOff",
            "noteNumber": 61,
            "velocity": 0
        },
        {
            "deltaTime": 38,
            "channel": 0,
            "type": "noteOff",
            "noteNumber": 80,
            "velocity": 0
        },
        {
            "deltaTime": 16,
            "channel": 0,
            "type": "noteOff",
            "noteNumber": 44,
            "velocity": 0
        },
        {
            "deltaTime": 76,
            "channel": 0,
            "type": "noteOff",
            "noteNumber": 68,
            "velocity": 0
        },
        {
            "deltaTime": 121,
            "channel": 0,
            "type": "noteOn",
            "noteNumber": 84,
            "velocity": 79
        },
        {
            "deltaTime": 24,
            "channel": 0,
            "type": "noteOn",
            "noteNumber": 73,
            "velocity": 109
        },
        {
            "deltaTime": 0,
            "channel": 0,
            "type": "noteOn",
            "noteNumber": 68,
            "velocity": 113
        },
        {
            "deltaTime": 0,
            "channel": 0,
            "type": "noteOn",
            "noteNumber": 63,
            "velocity": 113
        },
        {
            "deltaTime": 24,
            "channel": 0,
            "type": "noteOn",
            "noteNumber": 85,
            "velocity": 109
        },
        {
            "deltaTime": 85,
            "channel": 0,
            "type": "noteOff",
            "noteNumber": 84,
            "velocity": 0
        },
        {
            "deltaTime": 41,
            "channel": 0,
            "type": "noteOff",
            "noteNumber": 68,
            "velocity": 0
        },
        {
            "deltaTime": 0,
            "channel": 0,
            "type": "noteOff",
            "noteNumber": 63,
            "velocity": 0
        },
        {
            "deltaTime": 136,
            "channel": 0,
            "type": "noteOff",
            "noteNumber": 73,
            "velocity": 0
        },
        {
            "deltaTime": 3,
            "channel": 0,
            "type": "noteOn",
            "noteNumber": 64,
            "velocity": 103
        },
        {
            "deltaTime": 0,
            "channel": 0,
            "type": "noteOn",
            "noteNumber": 49,
            "velocity": 102
        },
        {
            "deltaTime": 0,
            "channel": 0,
            "type": "noteOn",
            "noteNumber": 84,
            "velocity": 108
        },
        {
            "deltaTime": 20,
            "channel": 0,
            "type": "noteOff",
            "noteNumber": 85,
            "velocity": 0
        },
        {
            "deltaTime": 125,
            "channel": 0,
            "type": "noteOn",
            "noteNumber": 82,
            "velocity": 95
        },
        {
            "deltaTime": 12,
            "channel": 0,
            "type": "noteOff",
            "noteNumber": 84,
            "velocity": 0
        },
        {
            "deltaTime": 72,
            "channel": 0,
            "type": "noteOn",
            "noteNumber": 80,
            "velocity": 91
        },
        {
            "deltaTime": 42,
            "channel": 0,
            "type": "noteOff",
            "noteNumber": 82,
            "velocity": 0
        },
        {
            "deltaTime": 15,
            "channel": 0,
            "type": "noteOff",
            "noteNumber": 49,
            "velocity": 0
        },
        {
            "deltaTime": 0,
            "channel": 0,
            "type": "noteOff",
            "noteNumber": 64,
            "velocity": 0
        },
        {
            "deltaTime": 3,
            "channel": 0,
            "type": "noteOn",
            "noteNumber": 79,
            "velocity": 87
        },
        {
            "deltaTime": 0,
            "channel": 0,
            "type": "noteOn",
            "noteNumber": 56,
            "velocity": 98
        },
        {
            "deltaTime": 0,
            "channel": 0,
            "type": "noteOn",
            "noteNumber": 44,
            "velocity": 112
        },
        {
            "deltaTime": 72,
            "channel": 0,
            "type": "noteOn",
            "noteNumber": 77,
            "velocity": 83
        },
        {
            "deltaTime": 0,
            "channel": 0,
            "type": "noteOff",
            "noteNumber": 80,
            "velocity": 0
        },
        {
            "deltaTime": 22,
            "channel": 0,
            "type": "noteOff",
            "noteNumber": 56,
            "velocity": 0
        },
        {
            "deltaTime": 26,
            "channel": 0,
            "type": "noteOff",
            "noteNumber": 79,
            "velocity": 0
        },
        {
            "deltaTime": 11,
            "channel": 0,
            "type": "noteOn",
            "noteNumber": 75,
            "velocity": 93
        },
        {
            "deltaTime": 46,
            "channel": 0,
            "type": "noteOff",
            "noteNumber": 44,
            "velocity": 0
        },
        {
            "deltaTime": 27,
            "channel": 0,
            "type": "noteOff",
            "noteNumber": 77,
            "velocity": 0
        },
        {
            "deltaTime": 11,
            "channel": 0,
            "type": "noteOn",
            "noteNumber": 73,
            "velocity": 87
        },
        {
            "deltaTime": 42,
            "channel": 0,
            "type": "noteOff",
            "noteNumber": 75,
            "velocity": 0
        },
        {
            "deltaTime": 30,
            "channel": 0,
            "type": "noteOn",
            "noteNumber": 40,
            "velocity": 122
        },
        {
            "deltaTime": 0,
            "channel": 0,
            "type": "noteOn",
            "noteNumber": 52,
            "velocity": 109
        },
        {
            "deltaTime": 12,
            "channel": 0,
            "type": "noteOn",
            "noteNumber": 72,
            "velocity": 74
        },
        {
            "deltaTime": 27,
            "channel": 0,
            "type": "noteOff",
            "noteNumber": 73,
            "velocity": 0
        },
        {
            "deltaTime": 56,
            "channel": 0,
            "type": "noteOff",
            "noteNumber": 52,
            "velocity": 0
        },
        {
            "deltaTime": 33,
            "channel": 0,
            "type": "noteOff",
            "noteNumber": 72,
            "velocity": 0
        },
        {
            "deltaTime": 28,
            "channel": 0,
            "type": "noteOff",
            "noteNumber": 40,
            "velocity": 0
        },
        {
            "deltaTime": 121,
            "channel": 0,
            "type": "noteOn",
            "noteNumber": 73,
            "velocity": 108
        },
        {
            "deltaTime": 0,
            "channel": 0,
            "type": "noteOn",
            "noteNumber": 78,
            "velocity": 112
        },
        {
            "deltaTime": 0,
            "channel": 0,
            "type": "noteOn",
            "noteNumber": 69,
            "velocity": 118
        },
        {
            "deltaTime": 0,
            "channel": 0,
            "type": "noteOn",
            "noteNumber": 56,
            "velocity": 108
        },
        {
            "deltaTime": 0,
            "channel": 0,
            "type": "noteOn",
            "noteNumber": 51,
            "velocity": 112
        },
        {
            "deltaTime": 0,
            "channel": 0,
            "type": "noteOn",
            "noteNumber": 39,
            "velocity": 110
        },
        {
            "deltaTime": 211,
            "channel": 0,
            "type": "noteOff",
            "noteNumber": 78,
            "velocity": 0
        },
        {
            "deltaTime": 64,
            "channel": 0,
            "type": "noteOff",
            "noteNumber": 56,
            "velocity": 0
        },
        {
            "deltaTime": 11,
            "channel": 0,
            "type": "noteOff",
            "noteNumber": 51,
            "velocity": 0
        },
        {
            "deltaTime": 0,
            "channel": 0,
            "type": "noteOff",
            "noteNumber": 39,
            "velocity": 0
        },
        {
            "deltaTime": 3,
            "channel": 0,
            "type": "noteOn",
            "noteNumber": 66,
            "velocity": 89
        },
        {
            "deltaTime": 5,
            "channel": 0,
            "type": "noteOff",
            "noteNumber": 69,
            "velocity": 0
        },
        {
            "deltaTime": 11,
            "channel": 0,
            "type": "noteOff",
            "noteNumber": 73,
            "velocity": 0
        },
        {
            "deltaTime": 225,
            "channel": 0,
            "type": "noteOn",
            "noteNumber": 78,
            "velocity": 101
        },
        {
            "deltaTime": 24,
            "channel": 0,
            "type": "noteOn",
            "noteNumber": 68,
            "velocity": 119
        },
        {
            "deltaTime": 20,
            "channel": 0,
            "type": "noteOff",
            "noteNumber": 66,
            "velocity": 0
        },
        {
            "deltaTime": 3,
            "channel": 0,
            "type": "noteOn",
            "noteNumber": 80,
            "velocity": 115
        },
        {
            "deltaTime": 0,
            "channel": 0,
            "type": "noteOn",
            "noteNumber": 52,
            "velocity": 66
        },
        {
            "deltaTime": 85,
            "channel": 0,
            "type": "noteOff",
            "noteNumber": 78,
            "velocity": 0
        },
        {
            "deltaTime": 193,
            "channel": 0,
            "type": "noteOn",
            "noteNumber": 76,
            "velocity": 85
        },
        {
            "deltaTime": 5,
            "channel": 0,
            "type": "noteOff",
            "noteNumber": 68,
            "velocity": 0
        },
        {
            "deltaTime": 2,
            "channel": 0,
            "type": "noteOff",
            "noteNumber": 80,
            "velocity": 0
        },
        {
            "deltaTime": 279,
            "channel": 0,
            "type": "noteOff",
            "noteNumber": 76,
            "velocity": 0
        },
        {
            "deltaTime": 3,
            "channel": 0,
            "type": "noteOn",
            "noteNumber": 73,
            "velocity": 119
        },
        {
            "deltaTime": 0,
            "channel": 0,
            "type": "noteOn",
            "noteNumber": 44,
            "velocity": 70
        },
        {
            "deltaTime": 0,
            "channel": 0,
            "type": "noteOn",
            "noteNumber": 61,
            "velocity": 91
        },
        {
            "deltaTime": 4,
            "channel": 0,
            "type": "noteOff",
            "noteNumber": 52,
            "velocity": 0
        },
        {
            "deltaTime": 283,
            "channel": 0,
            "type": "noteOff",
            "noteNumber": 44,
            "velocity": 0
        },
        {
            "deltaTime": 0,
            "channel": 0,
            "type": "noteOff",
            "noteNumber": 61,
            "velocity": 0
        },
        {
            "deltaTime": 3,
            "channel": 0,
            "type": "noteOn",
            "noteNumber": 68,
            "velocity": 94
        },
        {
            "deltaTime": 17,
            "channel": 0,
            "type": "noteOff",
            "noteNumber": 73,
            "velocity": 0
        },
        {
            "deltaTime": 261,
            "channel": 0,
            "type": "noteOn",
            "noteNumber": 64,
            "velocity": 99
        },
        {
            "deltaTime": 0,
            "channel": 0,
            "type": "noteOn",
            "noteNumber": 54,
            "velocity": 99
        },
        {
            "deltaTime": 0,
            "channel": 0,
            "type": "noteOn",
            "noteNumber": 32,
            "velocity": 89
        },
        {
            "deltaTime": 0,
            "channel": 0,
            "type": "noteOn",
            "noteNumber": 60,
            "velocity": 82
        },
        {
            "deltaTime": 8,
            "channel": 0,
            "type": "noteOff",
            "noteNumber": 68,
            "velocity": 0
        },
        {
            "deltaTime": 279,
            "channel": 0,
            "type": "noteOff",
            "noteNumber": 64,
            "velocity": 0
        },
        {
            "deltaTime": 0,
            "channel": 0,
            "type": "noteOff",
            "noteNumber": 60,
            "velocity": 0
        },
        {
            "deltaTime": 3,
            "channel": 0,
            "type": "noteOn",
            "noteNumber": 76,
            "velocity": 99
        },
        {
            "deltaTime": 1,
            "channel": 0,
            "type": "noteOff",
            "noteNumber": 54,
            "velocity": 0
        },
        {
            "deltaTime": 283,
            "channel": 0,
            "type": "noteOff",
            "noteNumber": 32,
            "velocity": 0
        },
        {
            "deltaTime": 3,
            "channel": 0,
            "type": "noteOff",
            "noteNumber": 76,
            "velocity": 0
        },
        {
            "deltaTime": 3,
            "channel": 0,
            "type": "noteOn",
            "noteNumber": 44,
            "velocity": 64
        },
        {
            "deltaTime": 0,
            "channel": 0,
            "type": "noteOn",
            "noteNumber": 68,
            "velocity": 75
        },
        {
            "deltaTime": 0,
            "channel": 0,
            "type": "noteOn",
            "noteNumber": 48,
            "velocity": 64
        },
        {
            "deltaTime": 0,
            "channel": 0,
            "type": "noteOn",
            "noteNumber": 72,
            "velocity": 71
        },
        {
            "deltaTime": 0,
            "channel": 0,
            "type": "noteOn",
            "noteNumber": 60,
            "velocity": 71
        },
        {
            "deltaTime": 225,
            "channel": 0,
            "type": "noteOff",
            "noteNumber": 72,
            "velocity": 0
        },
        {
            "deltaTime": 0,
            "channel": 0,
            "type": "noteOff",
            "noteNumber": 60,
            "velocity": 0
        },
        {
            "deltaTime": 26,
            "channel": 0,
            "type": "noteOff",
            "noteNumber": 68,
            "velocity": 0
        },
        {
            "deltaTime": 35,
            "channel": 0,
            "type": "noteOff",
            "noteNumber": 44,
            "velocity": 0
        },
        {
            "deltaTime": 0,
            "channel": 0,
            "type": "noteOff",
            "noteNumber": 48,
            "velocity": 0
        },
        {
            "deltaTime": 3,
            "channel": 0,
            "type": "noteOn",
            "noteNumber": 75,
            "velocity": 98
        },
        {
            "deltaTime": 139,
            "channel": 0,
            "type": "noteOff",
            "noteNumber": 75,
            "velocity": 0
        },
        {
            "deltaTime": 140,
            "channel": 0,
            "type": "noteOn",
            "noteNumber": 66,
            "velocity": 95
        },
        {
            "deltaTime": 0,
            "channel": 0,
            "type": "noteOn",
            "noteNumber": 39,
            "velocity": 56
        },
        {
            "deltaTime": 0,
            "channel": 0,
            "type": "noteOn",
            "noteNumber": 56,
            "velocity": 97
        },
        {
            "deltaTime": 0,
            "channel": 0,
            "type": "noteOn",
            "noteNumber": 68,
            "velocity": 97
        },
        {
            "deltaTime": 288,
            "channel": 0,
            "type": "noteOff",
            "noteNumber": 68,
            "velocity": 0
        },
        {
            "deltaTime": 0,
            "channel": 0,
            "type": "noteOff",
            "noteNumber": 66,
            "velocity": 0
        },
        {
            "deltaTime": 0,
            "channel": 0,
            "type": "noteOff",
            "noteNumber": 56,
            "velocity": 0
        },
        {
            "deltaTime": 0,
            "channel": 0,
            "type": "noteOff",
            "noteNumber": 39,
            "velocity": 0
        },
        {
            "deltaTime": 3,
            "channel": 0,
            "type": "noteOn",
            "noteNumber": 73,
            "velocity": 92
        },
        {
            "deltaTime": 139,
            "channel": 0,
            "type": "noteOff",
            "noteNumber": 73,
            "velocity": 0
        },
        {
            "deltaTime": 152,
            "channel": 0,
            "type": "noteOn",
            "noteNumber": 63,
            "velocity": 91
        },
        {
            "deltaTime": 0,
            "channel": 0,
            "type": "noteOn",
            "noteNumber": 54,
            "velocity": 112
        },
        {
            "deltaTime": 0,
            "channel": 0,
            "type": "noteOn",
            "noteNumber": 66,
            "velocity": 112
        },
        {
            "deltaTime": 0,
            "channel": 0,
            "type": "noteOn",
            "noteNumber": 72,
            "velocity": 87
        },
        {
            "deltaTime": 0,
            "channel": 0,
            "type": "noteOn",
            "noteNumber": 44,
            "velocity": 54
        },
        {
            "deltaTime": 0,
            "channel": 0,
            "type": "noteOn",
            "noteNumber": 48,
            "velocity": 54
        },
        {
            "deltaTime": 151,
            "channel": 0,
            "type": "noteOff",
            "noteNumber": 44,
            "velocity": 0
        },
        {
            "deltaTime": 0,
            "channel": 0,
            "type": "noteOff",
            "noteNumber": 48,
            "velocity": 0
        },
        {
            "deltaTime": 128,
            "channel": 0,
            "type": "noteOn",
            "noteNumber": 48,
            "velocity": 68
        },
        {
            "deltaTime": 0,
            "channel": 0,
            "type": "noteOn",
            "noteNumber": 44,
            "velocity": 68
        },
        {
            "deltaTime": 151,
            "channel": 0,
            "type": "noteOff",
            "noteNumber": 44,
            "velocity": 0
        },
        {
            "deltaTime": 0,
            "channel": 0,
            "type": "noteOff",
            "noteNumber": 48,
            "velocity": 0
        },
        {
            "deltaTime": 140,
            "channel": 0,
            "type": "noteOn",
            "noteNumber": 36,
            "velocity": 62
        },
        {
            "deltaTime": 288,
            "channel": 0,
            "type": "noteOff",
            "noteNumber": 36,
            "velocity": 0
        },
        {
            "deltaTime": 4,
            "channel": 0,
            "type": "noteOff",
            "noteNumber": 66,
            "velocity": 0
        },
        {
            "deltaTime": 0,
            "channel": 0,
            "type": "noteOff",
            "noteNumber": 54,
            "velocity": 0
        },
        {
            "deltaTime": 0,
            "channel": 0,
            "type": "noteOff",
            "noteNumber": 63,
            "velocity": 0
        },
        {
            "deltaTime": 0,
            "channel": 0,
            "type": "noteOff",
            "noteNumber": 72,
            "velocity": 0
        },
        {
            "deltaTime": 278,
            "channel": 0,
            "type": "noteOn",
            "noteNumber": 48,
            "velocity": 74
        },
        {
            "deltaTime": 0,
            "channel": 0,
            "type": "noteOn",
            "noteNumber": 42,
            "velocity": 74
        },
        {
            "deltaTime": 0,
            "channel": 0,
            "type": "noteOn",
            "noteNumber": 60,
            "velocity": 82
        },
        {
            "deltaTime": 288,
            "channel": 0,
            "type": "noteOff",
            "noteNumber": 42,
            "velocity": 0
        },
        {
            "deltaTime": 0,
            "channel": 0,
            "type": "noteOff",
            "noteNumber": 48,
            "velocity": 0
        },
        {
            "deltaTime": 288,
            "channel": 0,
            "type": "noteOff",
            "noteNumber": 60,
            "velocity": 0
        },
        {
            "deltaTime": 7,
            "channel": 0,
            "type": "noteOn",
            "noteNumber": 73,
            "velocity": 101
        },
        {
            "deltaTime": 0,
            "channel": 0,
            "type": "noteOn",
            "noteNumber": 44,
            "velocity": 98
        },
        {
            "deltaTime": 218,
            "channel": 0,
            "type": "noteOff",
            "noteNumber": 73,
            "velocity": 0
        },
        {
            "deltaTime": 69,
            "channel": 0,
            "type": "noteOff",
            "noteNumber": 44,
            "velocity": 0
        },
        {
            "deltaTime": 3,
            "channel": 0,
            "type": "noteOn",
            "noteNumber": 68,
            "velocity": 71
        },
        {
            "deltaTime": 279,
            "channel": 0,
            "type": "noteOn",
            "noteNumber": 54,
            "velocity": 74
        },
        {
            "deltaTime": 0,
            "channel": 0,
            "type": "noteOn",
            "noteNumber": 60,
            "velocity": 85
        },
        {
            "deltaTime": 0,
            "channel": 0,
            "type": "noteOn",
            "noteNumber": 75,
            "velocity": 96
        },
        {
            "deltaTime": 8,
            "channel": 0,
            "type": "noteOff",
            "noteNumber": 68,
            "velocity": 0
        },
        {
            "deltaTime": 279,
            "channel": 0,
            "type": "noteOff",
            "noteNumber": 60,
            "velocity": 0
        },
        {
            "deltaTime": 0,
            "channel": 0,
            "type": "noteOff",
            "noteNumber": 75,
            "velocity": 0
        },
        {
            "deltaTime": 0,
            "channel": 0,
            "type": "noteOff",
            "noteNumber": 54,
            "velocity": 0
        },
        {
            "deltaTime": 3,
            "channel": 0,
            "type": "noteOn",
            "noteNumber": 72,
            "velocity": 84
        },
        {
            "deltaTime": 192,
            "channel": 0,
            "type": "noteOff",
            "noteNumber": 72,
            "velocity": 0
        },
        {
            "deltaTime": 99,
            "channel": 0,
            "type": "noteOn",
            "noteNumber": 57,
            "velocity": 106
        },
        {
            "deltaTime": 0,
            "channel": 0,
            "type": "noteOn",
            "noteNumber": 45,
            "velocity": 126
        },
        {
            "deltaTime": 0,
            "channel": 0,
            "type": "noteOn",
            "noteNumber": 64,
            "velocity": 119
        },
        {
            "deltaTime": 0,
            "channel": 0,
            "type": "noteOn",
            "noteNumber": 76,
            "velocity": 127
        },
        {
            "deltaTime": 0,
            "channel": 0,
            "type": "noteOn",
            "noteNumber": 73,
            "velocity": 98
        },
        {
            "deltaTime": 328,
            "channel": 0,
            "type": "noteOff",
            "noteNumber": 45,
            "velocity": 0
        },
        {
            "deltaTime": 0,
            "channel": 0,
            "type": "noteOff",
            "noteNumber": 57,
            "velocity": 0
        },
        {
            "deltaTime": 0,
            "channel": 0,
            "type": "noteOff",
            "noteNumber": 73,
            "velocity": 0
        },
        {
            "deltaTime": 0,
            "channel": 0,
            "type": "noteOff",
            "noteNumber": 76,
            "velocity": 0
        },
        {
            "deltaTime": 0,
            "channel": 0,
            "type": "noteOff",
            "noteNumber": 64,
            "velocity": 0
        },
        {
            "deltaTime": 242,
            "channel": 0,
            "type": "noteOn",
            "noteNumber": 67,
            "velocity": 72
        },
        {
            "deltaTime": 0,
            "channel": 0,
            "type": "noteOn",
            "noteNumber": 59,
            "velocity": 76
        },
        {
            "deltaTime": 0,
            "channel": 0,
            "type": "noteOn",
            "noteNumber": 61,
            "velocity": 68
        },
        {
            "deltaTime": 259,
            "channel": 0,
            "type": "noteOff",
            "noteNumber": 67,
            "velocity": 0
        },
        {
            "deltaTime": 32,
            "channel": 0,
            "type": "noteOn",
            "noteNumber": 68,
            "velocity": 86
        },
        {
            "deltaTime": 259,
            "channel": 0,
            "type": "noteOff",
            "noteNumber": 68,
            "velocity": 0
        },
        {
            "deltaTime": 25,
            "channel": 0,
            "type": "noteOff",
            "noteNumber": 61,
            "velocity": 0
        },
        {
            "deltaTime": 0,
            "channel": 0,
            "type": "noteOff",
            "noteNumber": 59,
            "velocity": 0
        },
        {
            "deltaTime": 7,
            "channel": 0,
            "type": "noteOn",
            "noteNumber": 57,
            "velocity": 62
        },
        {
            "deltaTime": 0,
            "channel": 0,
            "type": "noteOn",
            "noteNumber": 40,
            "velocity": 74
        },
        {
            "deltaTime": 0,
            "channel": 0,
            "type": "noteOn",
            "noteNumber": 69,
            "velocity": 85
        },
        {
            "deltaTime": 525,
            "channel": 0,
            "type": "noteOff",
            "noteNumber": 57,
            "velocity": 0
        },
        {
            "deltaTime": 0,
            "channel": 0,
            "type": "noteOff",
            "noteNumber": 69,
            "velocity": 0
        },
        {
            "deltaTime": 45,
            "channel": 0,
            "type": "noteOn",
            "noteNumber": 64,
            "velocity": 57
        },
        {
            "deltaTime": 0,
            "channel": 0,
            "type": "noteOn",
            "noteNumber": 70,
            "velocity": 47
        },
        {
            "deltaTime": 0,
            "channel": 0,
            "type": "noteOn",
            "noteNumber": 56,
            "velocity": 72
        },
        {
            "deltaTime": 0,
            "channel": 0,
            "type": "noteOn",
            "noteNumber": 61,
            "velocity": 62
        },
        {
            "deltaTime": 4,
            "channel": 0,
            "type": "noteOff",
            "noteNumber": 40,
            "velocity": 0
        },
        {
            "deltaTime": 283,
            "channel": 0,
            "type": "noteOff",
            "noteNumber": 56,
            "velocity": 0
        },
        {
            "deltaTime": 0,
            "channel": 0,
            "type": "noteOff",
            "noteNumber": 61,
            "velocity": 0
        },
        {
            "deltaTime": 0,
            "channel": 0,
            "type": "noteOff",
            "noteNumber": 64,
            "velocity": 0
        },
        {
            "deltaTime": 0,
            "channel": 0,
            "type": "noteOff",
            "noteNumber": 70,
            "velocity": 0
        },
        {
            "deltaTime": 3,
            "channel": 0,
            "type": "noteOn",
            "noteNumber": 71,
            "velocity": 62
        },
        {
            "deltaTime": 244,
            "channel": 0,
            "type": "noteOff",
            "noteNumber": 71,
            "velocity": 0
        },
        {
            "deltaTime": 34,
            "channel": 0,
            "type": "noteOn",
            "noteNumber": 44,
            "velocity": 59
        },
        {
            "deltaTime": 0,
            "channel": 0,
            "type": "noteOn",
            "noteNumber": 60,
            "velocity": 64
        },
        {
            "deltaTime": 0,
            "channel": 0,
            "type": "noteOn",
            "noteNumber": 72,
            "velocity": 64
        },
        {
            "deltaTime": 347,
            "channel": 0,
            "type": "noteOff",
            "noteNumber": 44,
            "velocity": 0
        },
        {
            "deltaTime": 228,
            "channel": 0,
            "type": "noteOff",
            "noteNumber": 72,
            "velocity": 0
        },
        {
            "deltaTime": 0,
            "channel": 0,
            "type": "noteOff",
            "noteNumber": 60,
            "velocity": 0
        },
        {
            "deltaTime": 7,
            "channel": 0,
            "type": "noteOn",
            "noteNumber": 64,
            "velocity": 62
        },
        {
            "deltaTime": 0,
            "channel": 0,
            "type": "noteOn",
            "noteNumber": 73,
            "velocity": 80
        },
        {
            "deltaTime": 0,
            "channel": 0,
            "type": "noteOn",
            "noteNumber": 54,
            "velocity": 55
        },
        {
            "deltaTime": 0,
            "channel": 0,
            "type": "noteOn",
            "noteNumber": 68,
            "velocity": 45
        },
        {
            "deltaTime": 279,
            "channel": 0,
            "type": "noteOn",
            "noteNumber": 74,
            "velocity": 86
        },
        {
            "deltaTime": 0,
            "channel": 0,
            "type": "noteOn",
            "noteNumber": 62,
            "velocity": 75
        },
        {
            "deltaTime": 8,
            "channel": 0,
            "type": "noteOff",
            "noteNumber": 64,
            "velocity": 0
        },
        {
            "deltaTime": 0,
            "channel": 0,
            "type": "noteOff",
            "noteNumber": 73,
            "velocity": 0
        },
        {
            "deltaTime": 279,
            "channel": 0,
            "type": "noteOff",
            "noteNumber": 74,
            "velocity": 0
        },
        {
            "deltaTime": 0,
            "channel": 0,
            "type": "noteOff",
            "noteNumber": 62,
            "velocity": 0
        },
        {
            "deltaTime": 3,
            "channel": 0,
            "type": "noteOn",
            "noteNumber": 66,
            "velocity": 90
        },
        {
            "deltaTime": 0,
            "channel": 0,
            "type": "noteOn",
            "noteNumber": 63,
            "velocity": 103
        },
        {
            "deltaTime": 0,
            "channel": 0,
            "type": "noteOn",
            "noteNumber": 48,
            "velocity": 109
        },
        {
            "deltaTime": 4,
            "channel": 0,
            "type": "noteOff",
            "noteNumber": 68,
            "velocity": 0
        },
        {
            "deltaTime": 0,
            "channel": 0,
            "type": "noteOff",
            "noteNumber": 54,
            "velocity": 0
        },
        {
            "deltaTime": 19,
            "channel": 0,
            "type": "noteOn",
            "noteNumber": 75,
            "velocity": 105
        },
        {
            "deltaTime": 527,
            "channel": 0,
            "type": "noteOff",
            "noteNumber": 66,
            "velocity": 0
        },
        {
            "deltaTime": 0,
            "channel": 0,
            "type": "noteOff",
            "noteNumber": 63,
            "velocity": 0
        },
        {
            "deltaTime": 24,
            "channel": 0,
            "type": "noteOff",
            "noteNumber": 48,
            "velocity": 0
        },
        {
            "deltaTime": 0,
            "channel": 0,
            "type": "noteOff",
            "noteNumber": 75,
            "velocity": 0
        },
        {
            "deltaTime": 6,
            "channel": 0,
            "type": "noteOn",
            "noteNumber": 76,
            "velocity": 100
        },
        {
            "deltaTime": 0,
            "channel": 0,
            "type": "noteOn",
            "noteNumber": 68,
            "velocity": 100
        },
        {
            "deltaTime": 0,
            "channel": 0,
            "type": "noteOn",
            "noteNumber": 56,
            "velocity": 89
        },
        {
            "deltaTime": 279,
            "channel": 0,
            "type": "noteOn",
            "noteNumber": 78,
            "velocity": 123
        },
        {
            "deltaTime": 8,
            "channel": 0,
            "type": "noteOff",
            "noteNumber": 56,
            "velocity": 0
        },
        {
            "deltaTime": 0,
            "channel": 0,
            "type": "noteOff",
            "noteNumber": 68,
            "velocity": 0
        },
        {
            "deltaTime": 0,
            "channel": 0,
            "type": "noteOff",
            "noteNumber": 76,
            "velocity": 0
        },
        {
            "deltaTime": 178,
            "channel": 0,
            "type": "noteOff",
            "noteNumber": 78,
            "velocity": 0
        },
        {
            "deltaTime": 104,
            "channel": 0,
            "type": "noteOn",
            "noteNumber": 92,
            "velocity": 117
        },
        {
            "deltaTime": 0,
            "channel": 0,
            "type": "noteOn",
            "noteNumber": 64,
            "velocity": 116
        },
        {
            "deltaTime": 0,
            "channel": 0,
            "type": "noteOn",
            "noteNumber": 80,
            "velocity": 123
        },
        {
            "deltaTime": 0,
            "channel": 0,
            "type": "noteOn",
            "noteNumber": 49,
            "velocity": 115
        },
        {
            "deltaTime": 0,
            "channel": 0,
            "type": "noteOn",
            "noteNumber": 61,
            "velocity": 115
        },
        {
            "deltaTime": 0,
            "channel": 0,
            "type": "noteOn",
            "noteNumber": 75,
            "velocity": 115
        },
        {
            "deltaTime": 331,
            "channel": 0,
            "type": "noteOff",
            "noteNumber": 75,
            "velocity": 0
        },
        {
            "deltaTime": 0,
            "channel": 0,
            "type": "noteOff",
            "noteNumber": 49,
            "velocity": 0
        },
        {
            "deltaTime": 0,
            "channel": 0,
            "type": "noteOff",
            "noteNumber": 61,
            "velocity": 0
        },
        {
            "deltaTime": 9,
            "channel": 0,
            "type": "noteOff",
            "noteNumber": 64,
            "velocity": 0
        },
        {
            "deltaTime": 0,
            "channel": 0,
            "type": "noteOff",
            "noteNumber": 92,
            "velocity": 0
        },
        {
            "deltaTime": 0,
            "channel": 0,
            "type": "noteOff",
            "noteNumber": 80,
            "velocity": 0
        },
        {
            "deltaTime": 230,
            "channel": 0,
            "type": "noteOn",
            "noteNumber": 64,
            "velocity": 55
        },
        {
            "deltaTime": 0,
            "channel": 0,
            "type": "noteOn",
            "noteNumber": 68,
            "velocity": 55
        },
        {
            "deltaTime": 0,
            "channel": 0,
            "type": "noteOn",
            "noteNumber": 63,
            "velocity": 55
        },
        {
            "deltaTime": 0,
            "channel": 0,
            "type": "noteOn",
            "noteNumber": 78,
            "velocity": 76
        },
        {
            "deltaTime": 194,
            "channel": 0,
            "type": "noteOn",
            "noteNumber": 76,
            "velocity": 74
        },
        {
            "deltaTime": 9,
            "channel": 0,
            "type": "noteOff",
            "noteNumber": 78,
            "velocity": 0
        },
        {
            "deltaTime": 184,
            "channel": 0,
            "type": "noteOn",
            "noteNumber": 75,
            "velocity": 84
        },
        {
            "deltaTime": 9,
            "channel": 0,
            "type": "noteOff",
            "noteNumber": 76,
            "velocity": 0
        },
        {
            "deltaTime": 177,
            "channel": 0,
            "type": "noteOff",
            "noteNumber": 63,
            "velocity": 0
        },
        {
            "deltaTime": 0,
            "channel": 0,
            "type": "noteOff",
            "noteNumber": 64,
            "velocity": 0
        },
        {
            "deltaTime": 0,
            "channel": 0,
            "type": "noteOff",
            "noteNumber": 68,
            "velocity": 0
        },
        {
            "deltaTime": 7,
            "channel": 0,
            "type": "noteOn",
            "noteNumber": 76,
            "velocity": 71
        },
        {
            "deltaTime": 0,
            "channel": 0,
            "type": "noteOn",
            "noteNumber": 81,
            "velocity": 85
        },
        {
            "deltaTime": 0,
            "channel": 0,
            "type": "noteOn",
            "noteNumber": 44,
            "velocity": 58
        },
        {
            "deltaTime": 0,
            "channel": 0,
            "type": "noteOn",
            "noteNumber": 69,
            "velocity": 56
        },
        {
            "deltaTime": 9,
            "channel": 0,
            "type": "noteOff",
            "noteNumber": 75,
            "velocity": 0
        },
        {
            "deltaTime": 278,
            "channel": 0,
            "type": "noteOff",
            "noteNumber": 81,
            "velocity": 0
        },
        {
            "deltaTime": 0,
            "channel": 0,
            "type": "noteOff",
            "noteNumber": 69,
            "velocity": 0
        },
        {
            "deltaTime": 0,
            "channel": 0,
            "type": "noteOff",
            "noteNumber": 76,
            "velocity": 0
        },
        {
            "deltaTime": 60,
            "channel": 0,
            "type": "noteOff",
            "noteNumber": 44,
            "velocity": 0
        },
        {
            "deltaTime": 223,
            "channel": 0,
            "type": "noteOn",
            "noteNumber": 87,
            "velocity": 60
        },
        {
            "deltaTime": 0,
            "channel": 0,
            "type": "noteOn",
            "noteNumber": 66,
            "velocity": 64
        },
        {
            "deltaTime": 0,
            "channel": 0,
            "type": "noteOn",
            "noteNumber": 70,
            "velocity": 54
        },
        {
            "deltaTime": 0,
            "channel": 0,
            "type": "noteOn",
            "noteNumber": 82,
            "velocity": 86
        },
        {
            "deltaTime": 0,
            "channel": 0,
            "type": "noteOn",
            "noteNumber": 78,
            "velocity": 60
        },
        {
            "deltaTime": 288,
            "channel": 0,
            "type": "noteOff",
            "noteNumber": 66,
            "velocity": 0
        },
        {
            "deltaTime": 0,
            "channel": 0,
            "type": "noteOff",
            "noteNumber": 78,
            "velocity": 0
        },
        {
            "deltaTime": 0,
            "channel": 0,
            "type": "noteOff",
            "noteNumber": 87,
            "velocity": 0
        },
        {
            "deltaTime": 0,
            "channel": 0,
            "type": "noteOff",
            "noteNumber": 82,
            "velocity": 0
        },
        {
            "deltaTime": 0,
            "channel": 0,
            "type": "noteOff",
            "noteNumber": 70,
            "velocity": 0
        },
        {
            "deltaTime": 3,
            "channel": 0,
            "type": "noteOn",
            "noteNumber": 76,
            "velocity": 51
        },
        {
            "deltaTime": 0,
            "channel": 0,
            "type": "noteOn",
            "noteNumber": 61,
            "velocity": 58
        },
        {
            "deltaTime": 0,
            "channel": 0,
            "type": "noteOn",
            "noteNumber": 67,
            "velocity": 51
        },
        {
            "deltaTime": 0,
            "channel": 0,
            "type": "noteOn",
            "noteNumber": 79,
            "velocity": 86
        },
        {
            "deltaTime": 288,
            "channel": 0,
            "type": "noteOff",
            "noteNumber": 79,
            "velocity": 0
        },
        {
            "deltaTime": 0,
            "channel": 0,
            "type": "noteOff",
            "noteNumber": 67,
            "velocity": 0
        },
        {
            "deltaTime": 0,
            "channel": 0,
            "type": "noteOff",
            "noteNumber": 61,
            "velocity": 0
        },
        {
            "deltaTime": 0,
            "channel": 0,
            "type": "noteOff",
            "noteNumber": 76,
            "velocity": 0
        },
        {
            "deltaTime": 3,
            "channel": 0,
            "type": "noteOn",
            "noteNumber": 50,
            "velocity": 96
        },
        {
            "deltaTime": 0,
            "channel": 0,
            "type": "noteOn",
            "noteNumber": 69,
            "velocity": 92
        },
        {
            "deltaTime": 0,
            "channel": 0,
            "type": "noteOn",
            "noteNumber": 72,
            "velocity": 94
        },
        {
            "deltaTime": 0,
            "channel": 0,
            "type": "noteOn",
            "noteNumber": 80,
            "velocity": 82
        },
        {
            "deltaTime": 0,
            "channel": 0,
            "type": "noteOn",
            "noteNumber": 83,
            "velocity": 100
        },
        {
            "deltaTime": 511,
            "channel": 0,
            "type": "noteOff",
            "noteNumber": 69,
            "velocity": 0
        },
        {
            "deltaTime": 0,
            "channel": 0,
            "type": "noteOff",
            "noteNumber": 80,
            "velocity": 0
        },
        {
            "deltaTime": 0,
            "channel": 0,
            "type": "noteOff",
            "noteNumber": 50,
            "velocity": 0
        },
        {
            "deltaTime": 0,
            "channel": 0,
            "type": "noteOff",
            "noteNumber": 72,
            "velocity": 0
        },
        {
            "deltaTime": 0,
            "channel": 0,
            "type": "noteOff",
            "noteNumber": 83,
            "velocity": 0
        },
        {
            "deltaTime": 59,
            "channel": 0,
            "type": "noteOn",
            "noteNumber": 60,
            "velocity": 105
        },
        {
            "deltaTime": 0,
            "channel": 0,
            "type": "noteOn",
            "noteNumber": 66,
            "velocity": 92
        },
        {
            "deltaTime": 0,
            "channel": 0,
            "type": "noteOn",
            "noteNumber": 84,
            "velocity": 102
        },
        {
            "deltaTime": 0,
            "channel": 0,
            "type": "noteOn",
            "noteNumber": 76,
            "velocity": 98
        },
        {
            "deltaTime": 0,
            "channel": 0,
            "type": "noteOn",
            "noteNumber": 81,
            "velocity": 97
        },
        {
            "deltaTime": 287,
            "channel": 0,
            "type": "noteOff",
            "noteNumber": 76,
            "velocity": 0
        },
        {
            "deltaTime": 0,
            "channel": 0,
            "type": "noteOff",
            "noteNumber": 66,
            "velocity": 0
        },
        {
            "deltaTime": 0,
            "channel": 0,
            "type": "noteOff",
            "noteNumber": 84,
            "velocity": 0
        },
        {
            "deltaTime": 0,
            "channel": 0,
            "type": "noteOff",
            "noteNumber": 81,
            "velocity": 0
        },
        {
            "deltaTime": 0,
            "channel": 0,
            "type": "noteOff",
            "noteNumber": 60,
            "velocity": 0
        },
        {
            "deltaTime": 283,
            "channel": 0,
            "type": "noteOn",
            "noteNumber": 85,
            "velocity": 111
        },
        {
            "deltaTime": 0,
            "channel": 0,
            "type": "noteOn",
            "noteNumber": 57,
            "velocity": 104
        },
        {
            "deltaTime": 0,
            "channel": 0,
            "type": "noteOn",
            "noteNumber": 64,
            "velocity": 104
        },
        {
            "deltaTime": 0,
            "channel": 0,
            "type": "noteOn",
            "noteNumber": 45,
            "velocity": 104
        },
        {
            "deltaTime": 0,
            "channel": 0,
            "type": "noteOn",
            "noteNumber": 80,
            "velocity": 99
        },
        {
            "deltaTime": 0,
            "channel": 0,
            "type": "noteOn",
            "noteNumber": 73,
            "velocity": 115
        },
        {
            "deltaTime": 288,
            "channel": 0,
            "type": "noteOff",
            "noteNumber": 57,
            "velocity": 0
        },
        {
            "deltaTime": 0,
            "channel": 0,
            "type": "noteOff",
            "noteNumber": 45,
            "velocity": 0
        },
        {
            "deltaTime": 0,
            "channel": 0,
            "type": "noteOff",
            "noteNumber": 80,
            "velocity": 0
        },
        {
            "deltaTime": 0,
            "channel": 0,
            "type": "noteOff",
            "noteNumber": 85,
            "velocity": 0
        },
        {
            "deltaTime": 0,
            "channel": 0,
            "type": "noteOff",
            "noteNumber": 64,
            "velocity": 0
        },
        {
            "deltaTime": 0,
            "channel": 0,
            "type": "noteOff",
            "noteNumber": 73,
            "velocity": 0
        },
        {
            "deltaTime": 295,
            "channel": 0,
            "type": "noteOn",
            "noteNumber": 42,
            "velocity": 119
        },
        {
            "deltaTime": 0,
            "channel": 0,
            "type": "noteOn",
            "noteNumber": 87,
            "velocity": 124
        },
        {
            "deltaTime": 0,
            "channel": 0,
            "type": "noteOn",
            "noteNumber": 54,
            "velocity": 119
        },
        {
            "deltaTime": 0,
            "channel": 0,
            "type": "noteOn",
            "noteNumber": 72,
            "velocity": 117
        },
        {
            "deltaTime": 0,
            "channel": 0,
            "type": "noteOn",
            "noteNumber": 63,
            "velocity": 123
        },
        {
            "deltaTime": 0,
            "channel": 0,
            "type": "noteOn",
            "noteNumber": 81,
            "velocity": 118
        },
        {
            "deltaTime": 287,
            "channel": 0,
            "type": "noteOff",
            "noteNumber": 87,
            "velocity": 0
        },
        {
            "deltaTime": 0,
            "channel": 0,
            "type": "noteOff",
            "noteNumber": 42,
            "velocity": 0
        },
        {
            "deltaTime": 0,
            "channel": 0,
            "type": "noteOff",
            "noteNumber": 63,
            "velocity": 0
        },
        {
            "deltaTime": 0,
            "channel": 0,
            "type": "noteOff",
            "noteNumber": 72,
            "velocity": 0
        },
        {
            "deltaTime": 0,
            "channel": 0,
            "type": "noteOff",
            "noteNumber": 54,
            "velocity": 0
        },
        {
            "deltaTime": 0,
            "channel": 0,
            "type": "noteOff",
            "noteNumber": 81,
            "velocity": 0
        },
        {
            "deltaTime": 198,
            "channel": 0,
            "type": "noteOn",
            "noteNumber": 87,
            "velocity": 83
        },
        {
            "deltaTime": 48,
            "channel": 0,
            "type": "noteOn",
            "noteNumber": 73,
            "velocity": 114
        },
        {
            "deltaTime": 0,
            "channel": 0,
            "type": "noteOn",
            "noteNumber": 83,
            "velocity": 118
        },
        {
            "deltaTime": 0,
            "channel": 0,
            "type": "noteOn",
            "noteNumber": 76,
            "velocity": 125
        },
        {
            "deltaTime": 36,
            "channel": 0,
            "type": "noteOn",
            "noteNumber": 44,
            "velocity": 118
        },
        {
            "deltaTime": 0,
            "channel": 0,
            "type": "noteOn",
            "noteNumber": 56,
            "velocity": 118
        },
        {
            "deltaTime": 60,
            "channel": 0,
            "type": "noteOn",
            "noteNumber": 88,
            "velocity": 118
        },
        {
            "deltaTime": 82,
            "channel": 0,
            "type": "noteOff",
            "noteNumber": 87,
            "velocity": 0
        },
        {
            "deltaTime": 433,
            "channel": 0,
            "type": "noteOff",
            "noteNumber": 56,
            "velocity": 0
        },
        {
            "deltaTime": 0,
            "channel": 0,
            "type": "noteOff",
            "noteNumber": 44,
            "velocity": 0
        },
        {
            "deltaTime": 7,
            "channel": 0,
            "type": "noteOn",
            "noteNumber": 64,
            "velocity": 69
        },
        {
            "deltaTime": 0,
            "channel": 0,
            "type": "noteOn",
            "noteNumber": 68,
            "velocity": 69
        },
        {
            "deltaTime": 169,
            "channel": 0,
            "type": "noteOff",
            "noteNumber": 76,
            "velocity": 0
        },
        {
            "deltaTime": 0,
            "channel": 0,
            "type": "noteOff",
            "noteNumber": 73,
            "velocity": 0
        },
        {
            "deltaTime": 33,
            "channel": 0,
            "type": "noteOff",
            "noteNumber": 83,
            "velocity": 0
        },
        {
            "deltaTime": 1,
            "channel": 0,
            "type": "noteOff",
            "noteNumber": 88,
            "velocity": 0
        },
        {
            "deltaTime": 354,
            "channel": 0,
            "type": "noteOn",
            "noteNumber": 87,
            "velocity": 90
        },
        {
            "deltaTime": 12,
            "channel": 0,
            "type": "noteOn",
            "noteNumber": 76,
            "velocity": 102
        },
        {
            "deltaTime": 0,
            "channel": 0,
            "type": "noteOn",
            "noteNumber": 49,
            "velocity": 94
        },
        {
            "deltaTime": 4,
            "channel": 0,
            "type": "noteOff",
            "noteNumber": 64,
            "velocity": 0
        },
        {
            "deltaTime": 0,
            "channel": 0,
            "type": "noteOff",
            "noteNumber": 68,
            "velocity": 0
        },
        {
            "deltaTime": 67,
            "channel": 0,
            "type": "noteOn",
            "noteNumber": 88,
            "velocity": 102
        },
        {
            "deltaTime": 130,
            "channel": 0,
            "type": "noteOff",
            "noteNumber": 87,
            "velocity": 0
        },
        {
            "deltaTime": 84,
            "channel": 0,
            "type": "noteOff",
            "noteNumber": 49,
            "velocity": 0
        },
        {
            "deltaTime": 283,
            "channel": 0,
            "type": "noteOn",
            "noteNumber": 68,
            "velocity": 102
        },
        {
            "deltaTime": 0,
            "channel": 0,
            "type": "noteOn",
            "noteNumber": 63,
            "velocity": 102
        },
        {
            "deltaTime": 0,
            "channel": 0,
            "type": "noteOn",
            "noteNumber": 92,
            "velocity": 87
        },
        {
            "deltaTime": 4,
            "channel": 0,
            "type": "noteOff",
            "noteNumber": 76,
            "velocity": 0
        },
        {
            "deltaTime": 36,
            "channel": 0,
            "type": "noteOff",
            "noteNumber": 88,
            "velocity": 0
        },
        {
            "deltaTime": 188,
            "channel": 0,
            "type": "noteOff",
            "noteNumber": 63,
            "velocity": 0
        },
        {
            "deltaTime": 9,
            "channel": 0,
            "type": "noteOff",
            "noteNumber": 68,
            "velocity": 0
        },
        {
            "deltaTime": 51,
            "channel": 0,
            "type": "noteOn",
            "noteNumber": 68,
            "velocity": 64
        },
        {
            "deltaTime": 0,
            "channel": 0,
            "type": "noteOn",
            "noteNumber": 61,
            "velocity": 64
        },
        {
            "deltaTime": 0,
            "channel": 0,
            "type": "noteOn",
            "noteNumber": 64,
            "velocity": 64
        },
        {
            "deltaTime": 179,
            "channel": 0,
            "type": "noteOff",
            "noteNumber": 68,
            "velocity": 0
        },
        {
            "deltaTime": 0,
            "channel": 0,
            "type": "noteOff",
            "noteNumber": 61,
            "velocity": 0
        },
        {
            "deltaTime": 0,
            "channel": 0,
            "type": "noteOff",
            "noteNumber": 64,
            "velocity": 0
        },
        {
            "deltaTime": 104,
            "channel": 0,
            "type": "noteOff",
            "noteNumber": 92,
            "velocity": 0
        },
        {
            "deltaTime": 7,
            "channel": 0,
            "type": "noteOn",
            "noteNumber": 93,
            "velocity": 110
        },
        {
            "deltaTime": 0,
            "channel": 0,
            "type": "noteOn",
            "noteNumber": 51,
            "velocity": 87
        },
        {
            "deltaTime": 0,
            "channel": 0,
            "type": "noteOn",
            "noteNumber": 81,
            "velocity": 110
        },
        {
            "deltaTime": 571,
            "channel": 0,
            "type": "noteOn",
            "noteNumber": 90,
            "velocity": 86
        },
        {
            "deltaTime": 0,
            "channel": 0,
            "type": "noteOn",
            "noteNumber": 68,
            "velocity": 66
        },
        {
            "deltaTime": 0,
            "channel": 0,
            "type": "noteOn",
            "noteNumber": 72,
            "velocity": 66
        },
        {
            "deltaTime": 0,
            "channel": 0,
            "type": "noteOn",
            "noteNumber": 78,
            "velocity": 86
        },
        {
            "deltaTime": 0,
            "channel": 0,
            "type": "noteOn",
            "noteNumber": 63,
            "velocity": 66
        },
        {
            "deltaTime": 4,
            "channel": 0,
            "type": "noteOff",
            "noteNumber": 51,
            "velocity": 0
        },
        {
            "deltaTime": 0,
            "channel": 0,
            "type": "noteOff",
            "noteNumber": 81,
            "velocity": 0
        },
        {
            "deltaTime": 0,
            "channel": 0,
            "type": "noteOff",
            "noteNumber": 93,
            "velocity": 0
        },
        {
            "deltaTime": 283,
            "channel": 0,
            "type": "noteOff",
            "noteNumber": 78,
            "velocity": 0
        },
        {
            "deltaTime": 0,
            "channel": 0,
            "type": "noteOff",
            "noteNumber": 90,
            "velocity": 0
        },
        {
            "deltaTime": 16,
            "channel": 0,
            "type": "noteOff",
            "noteNumber": 72,
            "velocity": 0
        },
        {
            "deltaTime": 0,
            "channel": 0,
            "type": "noteOff",
            "noteNumber": 68,
            "velocity": 0
        },
        {
            "deltaTime": 0,
            "channel": 0,
            "type": "noteOff",
            "noteNumber": 63,
            "velocity": 0
        },
        {
            "deltaTime": 278,
            "channel": 0,
            "type": "noteOn",
            "noteNumber": 75,
            "velocity": 109
        },
        {
            "deltaTime": 0,
            "channel": 0,
            "type": "noteOn",
            "noteNumber": 44,
            "velocity": 86
        },
        {
            "deltaTime": 0,
            "channel": 0,
            "type": "noteOn",
            "noteNumber": 87,
            "velocity": 102
        },
        {
            "deltaTime": 571,
            "channel": 0,
            "type": "noteOn",
            "noteNumber": 57,
            "velocity": 66
        },
        {
            "deltaTime": 0,
            "channel": 0,
            "type": "noteOn",
            "noteNumber": 63,
            "velocity": 66
        },
        {
            "deltaTime": 0,
            "channel": 0,
            "type": "noteOn",
            "noteNumber": 81,
            "velocity": 88
        },
        {
            "deltaTime": 0,
            "channel": 0,
            "type": "noteOn",
            "noteNumber": 72,
            "velocity": 81
        },
        {
            "deltaTime": 0,
            "channel": 0,
            "type": "noteOn",
            "noteNumber": 93,
            "velocity": 88
        },
        {
            "deltaTime": 0,
            "channel": 0,
            "type": "noteOn",
            "noteNumber": 78,
            "velocity": 88
        },
        {
            "deltaTime": 4,
            "channel": 0,
            "type": "noteOff",
            "noteNumber": 44,
            "velocity": 0
        },
        {
            "deltaTime": 0,
            "channel": 0,
            "type": "noteOff",
            "noteNumber": 75,
            "velocity": 0
        },
        {
            "deltaTime": 0,
            "channel": 0,
            "type": "noteOff",
            "noteNumber": 87,
            "velocity": 0
        },
        {
            "deltaTime": 283,
            "channel": 0,
            "type": "noteOff",
            "noteNumber": 78,
            "velocity": 0
        },
        {
            "deltaTime": 0,
            "channel": 0,
            "type": "noteOff",
            "noteNumber": 57,
            "velocity": 0
        },
        {
            "deltaTime": 0,
            "channel": 0,
            "type": "noteOff",
            "noteNumber": 63,
            "velocity": 0
        },
        {
            "deltaTime": 0,
            "channel": 0,
            "type": "noteOff",
            "noteNumber": 81,
            "velocity": 0
        },
        {
            "deltaTime": 0,
            "channel": 0,
            "type": "noteOff",
            "noteNumber": 72,
            "velocity": 0
        },
        {
            "deltaTime": 0,
            "channel": 0,
            "type": "noteOff",
            "noteNumber": 93,
            "velocity": 0
        },
        {
            "deltaTime": 3,
            "channel": 0,
            "type": "noteOn",
            "noteNumber": 94,
            "velocity": 75
        },
        {
            "deltaTime": 0,
            "channel": 0,
            "type": "noteOn",
            "noteNumber": 82,
            "velocity": 91
        },
        {
            "deltaTime": 279,
            "channel": 0,
            "type": "noteOn",
            "noteNumber": 95,
            "velocity": 110
        },
        {
            "deltaTime": 0,
            "channel": 0,
            "type": "noteOn",
            "noteNumber": 52,
            "velocity": 106
        },
        {
            "deltaTime": 0,
            "channel": 0,
            "type": "noteOn",
            "noteNumber": 83,
            "velocity": 117
        },
        {
            "deltaTime": 0,
            "channel": 0,
            "type": "noteOn",
            "noteNumber": 40,
            "velocity": 106
        },
        {
            "deltaTime": 8,
            "channel": 0,
            "type": "noteOff",
            "noteNumber": 82,
            "velocity": 0
        },
        {
            "deltaTime": 0,
            "channel": 0,
            "type": "noteOff",
            "noteNumber": 94,
            "velocity": 0
        },
        {
            "deltaTime": 567,
            "channel": 0,
            "type": "noteOff",
            "noteNumber": 95,
            "velocity": 0
        },
        {
            "deltaTime": 0,
            "channel": 0,
            "type": "noteOff",
            "noteNumber": 83,
            "velocity": 0
        },
        {
            "deltaTime": 0,
            "channel": 0,
            "type": "noteOff",
            "noteNumber": 40,
            "velocity": 0
        },
        {
            "deltaTime": 0,
            "channel": 0,
            "type": "noteOff",
            "noteNumber": 52,
            "velocity": 0
        },
        {
            "deltaTime": 7,
            "channel": 0,
            "type": "noteOn",
            "noteNumber": 56,
            "velocity": 69
        },
        {
            "deltaTime": 0,
            "channel": 0,
            "type": "noteOn",
            "noteNumber": 80,
            "velocity": 84
        },
        {
            "deltaTime": 0,
            "channel": 0,
            "type": "noteOn",
            "noteNumber": 59,
            "velocity": 69
        },
        {
            "deltaTime": 0,
            "channel": 0,
            "type": "noteOn",
            "noteNumber": 92,
            "velocity": 77
        },
        {
            "deltaTime": 0,
            "channel": 0,
            "type": "noteOn",
            "noteNumber": 64,
            "velocity": 69
        },
        {
            "deltaTime": 571,
            "channel": 0,
            "type": "noteOn",
            "noteNumber": 76,
            "velocity": 113
        },
        {
            "deltaTime": 0,
            "channel": 0,
            "type": "noteOn",
            "noteNumber": 88,
            "velocity": 106
        },
        {
            "deltaTime": 0,
            "channel": 0,
            "type": "noteOn",
            "noteNumber": 47,
            "velocity": 94
        },
        {
            "deltaTime": 4,
            "channel": 0,
            "type": "noteOff",
            "noteNumber": 64,
            "velocity": 0
        },
        {
            "deltaTime": 0,
            "channel": 0,
            "type": "noteOff",
            "noteNumber": 92,
            "velocity": 0
        },
        {
            "deltaTime": 0,
            "channel": 0,
            "type": "noteOff",
            "noteNumber": 56,
            "velocity": 0
        },
        {
            "deltaTime": 0,
            "channel": 0,
            "type": "noteOff",
            "noteNumber": 80,
            "velocity": 0
        },
        {
            "deltaTime": 0,
            "channel": 0,
            "type": "noteOff",
            "noteNumber": 59,
            "velocity": 0
        },
        {
            "deltaTime": 283,
            "channel": 0,
            "type": "noteOff",
            "noteNumber": 47,
            "velocity": 0
        },
        {
            "deltaTime": 288,
            "channel": 0,
            "type": "noteOff",
            "noteNumber": 76,
            "velocity": 0
        },
        {
            "deltaTime": 0,
            "channel": 0,
            "type": "noteOff",
            "noteNumber": 88,
            "velocity": 0
        },
        {
            "deltaTime": 7,
            "channel": 0,
            "type": "noteOn",
            "noteNumber": 75,
            "velocity": 95
        },
        {
            "deltaTime": 0,
            "channel": 0,
            "type": "noteOn",
            "noteNumber": 83,
            "velocity": 93
        },
        {
            "deltaTime": 0,
            "channel": 0,
            "type": "noteOn",
            "noteNumber": 68,
            "velocity": 69
        },
        {
            "deltaTime": 0,
            "channel": 0,
            "type": "noteOn",
            "noteNumber": 59,
            "velocity": 69
        },
        {
            "deltaTime": 0,
            "channel": 0,
            "type": "noteOn",
            "noteNumber": 64,
            "velocity": 69
        },
        {
            "deltaTime": 153,
            "channel": 0,
            "type": "noteOff",
            "noteNumber": 59,
            "velocity": 0
        },
        {
            "deltaTime": 0,
            "channel": 0,
            "type": "noteOff",
            "noteNumber": 64,
            "velocity": 0
        },
        {
            "deltaTime": 0,
            "channel": 0,
            "type": "noteOff",
            "noteNumber": 68,
            "velocity": 0
        },
        {
            "deltaTime": 125,
            "channel": 0,
            "type": "noteOn",
            "noteNumber": 61,
            "velocity": 55
        },
        {
            "deltaTime": 0,
            "channel": 0,
            "type": "noteOn",
            "noteNumber": 68,
            "velocity": 55
        },
        {
            "deltaTime": 0,
            "channel": 0,
            "type": "noteOn",
            "noteNumber": 59,
            "velocity": 55
        },
        {
            "deltaTime": 0,
            "channel": 0,
            "type": "noteOn",
            "noteNumber": 84,
            "velocity": 83
        },
        {
            "deltaTime": 8,
            "channel": 0,
            "type": "noteOff",
            "noteNumber": 75,
            "velocity": 0
        },
        {
            "deltaTime": 0,
            "channel": 0,
            "type": "noteOff",
            "noteNumber": 83,
            "velocity": 0
        },
        {
            "deltaTime": 279,
            "channel": 0,
            "type": "noteOff",
            "noteNumber": 84,
            "velocity": 0
        },
        {
            "deltaTime": 0,
            "channel": 0,
            "type": "noteOff",
            "noteNumber": 68,
            "velocity": 0
        },
        {
            "deltaTime": 0,
            "channel": 0,
            "type": "noteOff",
            "noteNumber": 61,
            "velocity": 0
        },
        {
            "deltaTime": 0,
            "channel": 0,
            "type": "noteOff",
            "noteNumber": 59,
            "velocity": 0
        },
        {
            "deltaTime": 3,
            "channel": 0,
            "type": "noteOn",
            "noteNumber": 41,
            "velocity": 76
        },
        {
            "deltaTime": 0,
            "channel": 0,
            "type": "noteOn",
            "noteNumber": 53,
            "velocity": 76
        },
        {
            "deltaTime": 0,
            "channel": 0,
            "type": "noteOn",
            "noteNumber": 87,
            "velocity": 94
        },
        {
            "deltaTime": 0,
            "channel": 0,
            "type": "noteOn",
            "noteNumber": 99,
            "velocity": 46
        },
        {
            "deltaTime": 218,
            "channel": 0,
            "type": "noteOff",
            "noteNumber": 99,
            "velocity": 0
        },
        {
            "deltaTime": 69,
            "channel": 0,
            "type": "noteOff",
            "noteNumber": 87,
            "velocity": 0
        },
        {
            "deltaTime": 3,
            "channel": 0,
            "type": "noteOn",
            "noteNumber": 99,
            "velocity": 85
        },
        {
            "deltaTime": 284,
            "channel": 0,
            "type": "noteOff",
            "noteNumber": 53,
            "velocity": 0
        },
        {
            "deltaTime": 0,
            "channel": 0,
            "type": "noteOff",
            "noteNumber": 41,
            "velocity": 0
        },
        {
            "deltaTime": 3,
            "channel": 0,
            "type": "noteOff",
            "noteNumber": 99,
            "velocity": 0
        },
        {
            "deltaTime": 3,
            "channel": 0,
            "type": "noteOn",
            "noteNumber": 73,
            "velocity": 69
        },
        {
            "deltaTime": 0,
            "channel": 0,
            "type": "noteOn",
            "noteNumber": 85,
            "velocity": 90
        },
        {
            "deltaTime": 0,
            "channel": 0,
            "type": "noteOn",
            "noteNumber": 61,
            "velocity": 81
        },
        {
            "deltaTime": 571,
            "channel": 0,
            "type": "noteOn",
            "noteNumber": 80,
            "velocity": 93
        },
        {
            "deltaTime": 0,
            "channel": 0,
            "type": "noteOn",
            "noteNumber": 65,
            "velocity": 86
        },
        {
            "deltaTime": 4,
            "channel": 0,
            "type": "noteOff",
            "noteNumber": 85,
            "velocity": 0
        },
        {
            "deltaTime": 0,
            "channel": 0,
            "type": "noteOff",
            "noteNumber": 61,
            "velocity": 0
        },
        {
            "deltaTime": 0,
            "channel": 0,
            "type": "noteOff",
            "noteNumber": 73,
            "velocity": 0
        },
        {
            "deltaTime": 283,
            "channel": 0,
            "type": "noteOff",
            "noteNumber": 80,
            "velocity": 0
        },
        {
            "deltaTime": 3,
            "channel": 0,
            "type": "noteOn",
            "noteNumber": 92,
            "velocity": 97
        },
        {
            "deltaTime": 203,
            "channel": 0,
            "type": "noteOff",
            "noteNumber": 92,
            "velocity": 0
        },
        {
            "deltaTime": 75,
            "channel": 0,
            "type": "noteOn",
            "noteNumber": 77,
            "velocity": 104
        },
        {
            "deltaTime": 0,
            "channel": 0,
            "type": "noteOn",
            "noteNumber": 85,
            "velocity": 55
        },
        {
            "deltaTime": 0,
            "channel": 0,
            "type": "noteOn",
            "noteNumber": 71,
            "velocity": 68
        },
        {
            "deltaTime": 4,
            "channel": 0,
            "type": "noteOff",
            "noteNumber": 65,
            "velocity": 0
        },
        {
            "deltaTime": 283,
            "channel": 0,
            "type": "noteOff",
            "noteNumber": 77,
            "velocity": 0
        },
        {
            "deltaTime": 0,
            "channel": 0,
            "type": "noteOff",
            "noteNumber": 85,
            "velocity": 0
        },
        {
            "deltaTime": 288,
            "channel": 0,
            "type": "noteOff",
            "noteNumber": 71,
            "velocity": 0
        },
        {
            "deltaTime": 7,
            "channel": 0,
            "type": "noteOn",
            "noteNumber": 83,
            "velocity": 94
        },
        {
            "deltaTime": 0,
            "channel": 0,
            "type": "noteOn",
            "noteNumber": 95,
            "velocity": 46
        },
        {
            "deltaTime": 0,
            "channel": 0,
            "type": "noteOn",
            "noteNumber": 66,
            "velocity": 46
        },
        {
            "deltaTime": 0,
            "channel": 0,
            "type": "noteOn",
            "noteNumber": 54,
            "velocity": 60
        },
        {
            "deltaTime": 218,
            "channel": 0,
            "type": "noteOff",
            "noteNumber": 95,
            "velocity": 0
        },
        {
            "deltaTime": 61,
            "channel": 0,
            "type": "noteOn",
            "noteNumber": 95,
            "velocity": 84
        },
        {
            "deltaTime": 8,
            "channel": 0,
            "type": "noteOff",
            "noteNumber": 83,
            "velocity": 0
        },
        {
            "deltaTime": 279,
            "channel": 0,
            "type": "noteOff",
            "noteNumber": 95,
            "velocity": 0
        },
        {
            "deltaTime": 3,
            "channel": 0,
            "type": "noteOn",
            "noteNumber": 81,
            "velocity": 91
        },
        {
            "deltaTime": 0,
            "channel": 0,
            "type": "noteOn",
            "noteNumber": 64,
            "velocity": 49
        },
        {
            "deltaTime": 4,
            "channel": 0,
            "type": "noteOff",
            "noteNumber": 66,
            "velocity": 0
        },
        {
            "deltaTime": 0,
            "channel": 0,
            "type": "noteOff",
            "noteNumber": 54,
            "velocity": 0
        },
        {
            "deltaTime": 571,
            "channel": 0,
            "type": "noteOff",
            "noteNumber": 81,
            "velocity": 0
        },
        {
            "deltaTime": 0,
            "channel": 0,
            "type": "noteOff",
            "noteNumber": 64,
            "velocity": 0
        },
        {
            "deltaTime": 7,
            "channel": 0,
            "type": "noteOn",
            "noteNumber": 66,
            "velocity": 67
        },
        {
            "deltaTime": 0,
            "channel": 0,
            "type": "noteOn",
            "noteNumber": 88,
            "velocity": 78
        },
        {
            "deltaTime": 571,
            "channel": 0,
            "type": "noteOn",
            "noteNumber": 73,
            "velocity": 55
        },
        {
            "deltaTime": 0,
            "channel": 0,
            "type": "noteOn",
            "noteNumber": 81,
            "velocity": 60
        },
        {
            "deltaTime": 4,
            "channel": 0,
            "type": "noteOff",
            "noteNumber": 88,
            "velocity": 0
        },
        {
            "deltaTime": 0,
            "channel": 0,
            "type": "noteOff",
            "noteNumber": 66,
            "velocity": 0
        },
        {
            "deltaTime": 283,
            "channel": 0,
            "type": "noteOff",
            "noteNumber": 81,
            "velocity": 0
        },
        {
            "deltaTime": 234,
            "channel": 0,
            "type": "noteOn",
            "noteNumber": 78,
            "velocity": 61
        },
        {
            "deltaTime": 48,
            "channel": 0,
            "type": "noteOn",
            "noteNumber": 64,
            "velocity": 73
        },
        {
            "deltaTime": 4,
            "channel": 0,
            "type": "noteOff",
            "noteNumber": 73,
            "velocity": 0
        },
        {
            "deltaTime": 55,
            "channel": 0,
            "type": "noteOn",
            "noteNumber": 79,
            "velocity": 77
        },
        {
            "deltaTime": 80,
            "channel": 0,
            "type": "noteOff",
            "noteNumber": 78,
            "velocity": 0
        },
        {
            "deltaTime": 435,
            "channel": 0,
            "type": "noteOff",
            "noteNumber": 64,
            "velocity": 0
        },
        {
            "deltaTime": 5,
            "channel": 0,
            "type": "noteOff",
            "noteNumber": 79,
            "velocity": 0
        },
        {
            "deltaTime": 1,
            "channel": 0,
            "type": "noteOn",
            "noteNumber": 80,
            "velocity": 89
        },
        {
            "deltaTime": 0,
            "channel": 0,
            "type": "noteOn",
            "noteNumber": 71,
            "velocity": 78
        },
        {
            "deltaTime": 288,
            "channel": 0,
            "type": "noteOff",
            "noteNumber": 80,
            "velocity": 0
        },
        {
            "deltaTime": 0,
            "channel": 0,
            "type": "noteOff",
            "noteNumber": 71,
            "velocity": 0
        },
        {
            "deltaTime": 283,
            "channel": 0,
            "type": "noteOn",
            "noteNumber": 78,
            "velocity": 74
        },
        {
            "deltaTime": 0,
            "channel": 0,
            "type": "noteOn",
            "noteNumber": 88,
            "velocity": 85
        },
        {
            "deltaTime": 288,
            "channel": 0,
            "type": "noteOff",
            "noteNumber": 88,
            "velocity": 0
        },
        {
            "deltaTime": 0,
            "channel": 0,
            "type": "noteOff",
            "noteNumber": 78,
            "velocity": 0
        },
        {
            "deltaTime": 295,
            "channel": 0,
            "type": "noteOn",
            "noteNumber": 92,
            "velocity": 87
        },
        {
            "deltaTime": 0,
            "channel": 0,
            "type": "noteOn",
            "noteNumber": 76,
            "velocity": 78
        },
        {
            "deltaTime": 571,
            "channel": 0,
            "type": "noteOn",
            "noteNumber": 95,
            "velocity": 82
        },
        {
            "deltaTime": 0,
            "channel": 0,
            "type": "noteOn",
            "noteNumber": 62,
            "velocity": 57
        },
        {
            "deltaTime": 0,
            "channel": 0,
            "type": "noteOn",
            "noteNumber": 50,
            "velocity": 48
        },
        {
            "deltaTime": 4,
            "channel": 0,
            "type": "noteOff",
            "noteNumber": 92,
            "velocity": 0
        },
        {
            "deltaTime": 0,
            "channel": 0,
            "type": "noteOff",
            "noteNumber": 76,
            "velocity": 0
        },
        {
            "deltaTime": 566,
            "channel": 0,
            "type": "noteOn",
            "noteNumber": 66,
            "velocity": 68
        },
        {
            "deltaTime": 0,
            "channel": 0,
            "type": "noteOn",
            "noteNumber": 93,
            "velocity": 82
        },
        {
            "deltaTime": 4,
            "channel": 0,
            "type": "noteOff",
            "noteNumber": 50,
            "velocity": 0
        },
        {
            "deltaTime": 0,
            "channel": 0,
            "type": "noteOff",
            "noteNumber": 62,
            "velocity": 0
        },
        {
            "deltaTime": 0,
            "channel": 0,
            "type": "noteOff",
            "noteNumber": 95,
            "velocity": 0
        },
        {
            "deltaTime": 571,
            "channel": 0,
            "type": "noteOff",
            "noteNumber": 66,
            "velocity": 0
        },
        {
            "deltaTime": 0,
            "channel": 0,
            "type": "noteOff",
            "noteNumber": 93,
            "velocity": 0
        },
        {
            "deltaTime": 7,
            "channel": 0,
            "type": "noteOn",
            "noteNumber": 86,
            "velocity": 69
        },
        {
            "deltaTime": 0,
            "channel": 0,
            "type": "noteOn",
            "noteNumber": 95,
            "velocity": 73
        },
        {
            "deltaTime": 0,
            "channel": 0,
            "type": "noteOn",
            "noteNumber": 74,
            "velocity": 69
        },
        {
            "deltaTime": 242,
            "channel": 0,
            "type": "noteOff",
            "noteNumber": 86,
            "velocity": 0
        },
        {
            "deltaTime": 45,
            "channel": 0,
            "type": "noteOff",
            "noteNumber": 74,
            "velocity": 0
        },
        {
            "deltaTime": 283,
            "channel": 0,
            "type": "noteOn",
            "noteNumber": 78,
            "velocity": 78
        },
        {
            "deltaTime": 0,
            "channel": 0,
            "type": "noteOn",
            "noteNumber": 93,
            "velocity": 61
        },
        {
            "deltaTime": 0,
            "channel": 0,
            "type": "noteOn",
            "noteNumber": 90,
            "velocity": 84
        },
        {
            "deltaTime": 4,
            "channel": 0,
            "type": "noteOff",
            "noteNumber": 95,
            "velocity": 0
        },
        {
            "deltaTime": 237,
            "channel": 0,
            "type": "noteOff",
            "noteNumber": 90,
            "velocity": 0
        },
        {
            "deltaTime": 45,
            "channel": 0,
            "type": "noteOff",
            "noteNumber": 78,
            "velocity": 0
        },
        {
            "deltaTime": 288,
            "channel": 0,
            "type": "noteOff",
            "noteNumber": 93,
            "velocity": 0
        },
        {
            "deltaTime": 7,
            "channel": 0,
            "type": "noteOn",
            "noteNumber": 95,
            "velocity": 73
        },
        {
            "deltaTime": 0,
            "channel": 0,
            "type": "noteOn",
            "noteNumber": 49,
            "velocity": 58
        },
        {
            "deltaTime": 0,
            "channel": 0,
            "type": "noteOn",
            "noteNumber": 61,
            "velocity": 58
        },
        {
            "deltaTime": 279,
            "channel": 0,
            "type": "noteOn",
            "noteNumber": 83,
            "velocity": 36
        },
        {
            "deltaTime": 8,
            "channel": 0,
            "type": "noteOff",
            "noteNumber": 95,
            "velocity": 0
        },
        {
            "deltaTime": 279,
            "channel": 0,
            "type": "noteOff",
            "noteNumber": 83,
            "velocity": 0
        },
        {
            "deltaTime": 3,
            "channel": 0,
            "type": "noteOn",
            "noteNumber": 93,
            "velocity": 68
        },
        {
            "deltaTime": 0,
            "channel": 0,
            "type": "noteOn",
            "noteNumber": 66,
            "velocity": 71
        },
        {
            "deltaTime": 4,
            "channel": 0,
            "type": "noteOff",
            "noteNumber": 61,
            "velocity": 0
        },
        {
            "deltaTime": 0,
            "channel": 0,
            "type": "noteOff",
            "noteNumber": 49,
            "velocity": 0
        },
        {
            "deltaTime": 283,
            "channel": 0,
            "type": "noteOff",
            "noteNumber": 93,
            "velocity": 0
        },
        {
            "deltaTime": 3,
            "channel": 0,
            "type": "noteOn",
            "noteNumber": 81,
            "velocity": 26
        },
        {
            "deltaTime": 279,
            "channel": 0,
            "type": "noteOn",
            "noteNumber": 95,
            "velocity": 76
        },
        {
            "deltaTime": 0,
            "channel": 0,
            "type": "noteOn",
            "noteNumber": 73,
            "velocity": 84
        },
        {
            "deltaTime": 4,
            "channel": 0,
            "type": "noteOff",
            "noteNumber": 66,
            "velocity": 0
        },
        {
            "deltaTime": 3,
            "channel": 0,
            "type": "noteOff",
            "noteNumber": 81,
            "velocity": 0
        },
        {
            "deltaTime": 279,
            "channel": 0,
            "type": "noteOff",
            "noteNumber": 95,
            "velocity": 0
        },
        {
            "deltaTime": 0,
            "channel": 0,
            "type": "noteOff",
            "noteNumber": 73,
            "velocity": 0
        },
        {
            "deltaTime": 3,
            "channel": 0,
            "type": "noteOn",
            "noteNumber": 83,
            "velocity": 60
        },
        {
            "deltaTime": 288,
            "channel": 0,
            "type": "noteOff",
            "noteNumber": 83,
            "velocity": 0
        },
        {
            "deltaTime": 3,
            "channel": 0,
            "type": "noteOn",
            "noteNumber": 93,
            "velocity": 91
        },
        {
            "deltaTime": 0,
            "channel": 0,
            "type": "noteOn",
            "noteNumber": 78,
            "velocity": 96
        },
        {
            "deltaTime": 288,
            "channel": 0,
            "type": "noteOff",
            "noteNumber": 78,
            "velocity": 0
        },
        {
            "deltaTime": 0,
            "channel": 0,
            "type": "noteOff",
            "noteNumber": 93,
            "velocity": 0
        },
        {
            "deltaTime": 3,
            "channel": 0,
            "type": "noteOn",
            "noteNumber": 81,
            "velocity": 63
        },
        {
            "deltaTime": 279,
            "channel": 0,
            "type": "noteOn",
            "noteNumber": 48,
            "velocity": 87
        },
        {
            "deltaTime": 0,
            "channel": 0,
            "type": "noteOn",
            "noteNumber": 95,
            "velocity": 77
        },
        {
            "deltaTime": 0,
            "channel": 0,
            "type": "noteOn",
            "noteNumber": 60,
            "velocity": 87
        },
        {
            "deltaTime": 8,
            "channel": 0,
            "type": "noteOff",
            "noteNumber": 81,
            "velocity": 0
        },
        {
            "deltaTime": 279,
            "channel": 0,
            "type": "noteOff",
            "noteNumber": 95,
            "velocity": 0
        },
        {
            "deltaTime": 3,
            "channel": 0,
            "type": "noteOn",
            "noteNumber": 93,
            "velocity": 64
        },
        {
            "deltaTime": 284,
            "channel": 0,
            "type": "noteOff",
            "noteNumber": 48,
            "velocity": 0
        },
        {
            "deltaTime": 0,
            "channel": 0,
            "type": "noteOff",
            "noteNumber": 60,
            "velocity": 0
        },
        {
            "deltaTime": 3,
            "channel": 0,
            "type": "noteOff",
            "noteNumber": 93,
            "velocity": 0
        },
        {
            "deltaTime": 3,
            "channel": 0,
            "type": "noteOn",
            "noteNumber": 95,
            "velocity": 73
        },
        {
            "deltaTime": 0,
            "channel": 0,
            "type": "noteOn",
            "noteNumber": 83,
            "velocity": 67
        },
        {
            "deltaTime": 0,
            "channel": 0,
            "type": "noteOn",
            "noteNumber": 66,
            "velocity": 108
        },
        {
            "deltaTime": 279,
            "channel": 0,
            "type": "noteOn",
            "noteNumber": 93,
            "velocity": 79
        },
        {
            "deltaTime": 0,
            "channel": 0,
            "type": "noteOn",
            "noteNumber": 81,
            "velocity": 87
        },
        {
            "deltaTime": 8,
            "channel": 0,
            "type": "noteOff",
            "noteNumber": 95,
            "velocity": 0
        },
        {
            "deltaTime": 0,
            "channel": 0,
            "type": "noteOff",
            "noteNumber": 83,
            "velocity": 0
        },
        {
            "deltaTime": 279,
            "channel": 0,
            "type": "noteOff",
            "noteNumber": 93,
            "velocity": 0
        },
        {
            "deltaTime": 0,
            "channel": 0,
            "type": "noteOff",
            "noteNumber": 81,
            "velocity": 0
        },
        {
            "deltaTime": 3,
            "channel": 0,
            "type": "noteOn",
            "noteNumber": 85,
            "velocity": 76
        },
        {
            "deltaTime": 0,
            "channel": 0,
            "type": "noteOn",
            "noteNumber": 72,
            "velocity": 112
        },
        {
            "deltaTime": 0,
            "channel": 0,
            "type": "noteOn",
            "noteNumber": 95,
            "velocity": 91
        },
        {
            "deltaTime": 4,
            "channel": 0,
            "type": "noteOff",
            "noteNumber": 66,
            "velocity": 0
        },
        {
            "deltaTime": 283,
            "channel": 0,
            "type": "noteOff",
            "noteNumber": 95,
            "velocity": 0
        },
        {
            "deltaTime": 0,
            "channel": 0,
            "type": "noteOff",
            "noteNumber": 72,
            "velocity": 0
        },
        {
            "deltaTime": 0,
            "channel": 0,
            "type": "noteOff",
            "noteNumber": 85,
            "velocity": 0
        },
        {
            "deltaTime": 3,
            "channel": 0,
            "type": "noteOn",
            "noteNumber": 84,
            "velocity": 82
        },
        {
            "deltaTime": 0,
            "channel": 0,
            "type": "noteOn",
            "noteNumber": 93,
            "velocity": 92
        },
        {
            "deltaTime": 288,
            "channel": 0,
            "type": "noteOff",
            "noteNumber": 93,
            "velocity": 0
        },
        {
            "deltaTime": 0,
            "channel": 0,
            "type": "noteOff",
            "noteNumber": 84,
            "velocity": 0
        },
        {
            "deltaTime": 3,
            "channel": 0,
            "type": "noteOn",
            "noteNumber": 78,
            "velocity": 113
        },
        {
            "deltaTime": 0,
            "channel": 0,
            "type": "noteOn",
            "noteNumber": 95,
            "velocity": 106
        },
        {
            "deltaTime": 0,
            "channel": 0,
            "type": "noteOn",
            "noteNumber": 83,
            "velocity": 88
        },
        {
            "deltaTime": 279,
            "channel": 0,
            "type": "noteOn",
            "noteNumber": 93,
            "velocity": 112
        },
        {
            "deltaTime": 0,
            "channel": 0,
            "type": "noteOn",
            "noteNumber": 81,
            "velocity": 101
        },
        {
            "deltaTime": 8,
            "channel": 0,
            "type": "noteOff",
            "noteNumber": 78,
            "velocity": 0
        },
        {
            "deltaTime": 0,
            "channel": 0,
            "type": "noteOff",
            "noteNumber": 83,
            "velocity": 0
        },
        {
            "deltaTime": 0,
            "channel": 0,
            "type": "noteOff",
            "noteNumber": 95,
            "velocity": 0
        },
        {
            "deltaTime": 279,
            "channel": 0,
            "type": "noteOff",
            "noteNumber": 81,
            "velocity": 0
        },
        {
            "deltaTime": 0,
            "channel": 0,
            "type": "noteOff",
            "noteNumber": 93,
            "velocity": 0
        },
        {
            "deltaTime": 3,
            "channel": 0,
            "type": "noteOn",
            "noteNumber": 92,
            "velocity": 123
        },
        {
            "deltaTime": 0,
            "channel": 0,
            "type": "noteOn",
            "noteNumber": 80,
            "velocity": 107
        },
        {
            "deltaTime": 0,
            "channel": 0,
            "type": "noteOn",
            "noteNumber": 44,
            "velocity": 121
        },
        {
            "deltaTime": 0,
            "channel": 0,
            "type": "noteOn",
            "noteNumber": 32,
            "velocity": 121
        },
        {
            "deltaTime": 287,
            "channel": 0,
            "type": "noteOff",
            "noteNumber": 80,
            "velocity": 0
        },
        {
            "deltaTime": 0,
            "channel": 0,
            "type": "noteOff",
            "noteNumber": 92,
            "velocity": 0
        },
        {
            "deltaTime": 3,
            "channel": 0,
            "type": "noteOn",
            "noteNumber": 87,
            "velocity": 107
        },
        {
            "deltaTime": 279,
            "channel": 0,
            "type": "noteOn",
            "noteNumber": 85,
            "velocity": 119
        },
        {
            "deltaTime": 0,
            "channel": 0,
            "type": "noteOn",
            "noteNumber": 73,
            "velocity": 119
        },
        {
            "deltaTime": 4,
            "channel": 0,
            "type": "noteOff",
            "noteNumber": 32,
            "velocity": 0
        },
        {
            "deltaTime": 0,
            "channel": 0,
            "type": "noteOff",
            "noteNumber": 44,
            "velocity": 0
        },
        {
            "deltaTime": 3,
            "channel": 0,
            "type": "noteOff",
            "noteNumber": 87,
            "velocity": 0
        },
        {
            "deltaTime": 279,
            "channel": 0,
            "type": "noteOff",
            "noteNumber": 85,
            "velocity": 0
        },
        {
            "deltaTime": 0,
            "channel": 0,
            "type": "noteOff",
            "noteNumber": 73,
            "velocity": 0
        },
        {
            "deltaTime": 3,
            "channel": 0,
            "type": "noteOn",
            "noteNumber": 81,
            "velocity": 119
        },
        {
            "deltaTime": 288,
            "channel": 0,
            "type": "noteOff",
            "noteNumber": 81,
            "velocity": 0
        },
        {
            "deltaTime": 3,
            "channel": 0,
            "type": "noteOn",
            "noteNumber": 48,
            "velocity": 118
        },
        {
            "deltaTime": 0,
            "channel": 0,
            "type": "noteOn",
            "noteNumber": 63,
            "velocity": 115
        },
        {
            "deltaTime": 0,
            "channel": 0,
            "type": "noteOn",
            "noteNumber": 66,
            "velocity": 119
        },
        {
            "deltaTime": 0,
            "channel": 0,
            "type": "noteOn",
            "noteNumber": 80,
            "velocity": 96
        },
        {
            "deltaTime": 0,
            "channel": 0,
            "type": "noteOn",
            "noteNumber": 84,
            "velocity": 111
        },
        {
            "deltaTime": 0,
            "channel": 0,
            "type": "noteOn",
            "noteNumber": 72,
            "velocity": 125
        },
        {
            "deltaTime": 279,
            "channel": 0,
            "type": "noteOn",
            "noteNumber": 78,
            "velocity": 110
        },
        {
            "deltaTime": 8,
            "channel": 0,
            "type": "noteOff",
            "noteNumber": 63,
            "velocity": 0
        },
        {
            "deltaTime": 0,
            "channel": 0,
            "type": "noteOff",
            "noteNumber": 84,
            "velocity": 0
        },
        {
            "deltaTime": 0,
            "channel": 0,
            "type": "noteOff",
            "noteNumber": 66,
            "velocity": 0
        },
        {
            "deltaTime": 0,
            "channel": 0,
            "type": "noteOff",
            "noteNumber": 48,
            "velocity": 0
        },
        {
            "deltaTime": 0,
            "channel": 0,
            "type": "noteOff",
            "noteNumber": 72,
            "velocity": 0
        },
        {
            "deltaTime": 0,
            "channel": 0,
            "type": "noteOff",
            "noteNumber": 80,
            "velocity": 0
        },
        {
            "deltaTime": 279,
            "channel": 0,
            "type": "noteOff",
            "noteNumber": 78,
            "velocity": 0
        },
        {
            "deltaTime": 3,
            "channel": 0,
            "type": "noteOn",
            "noteNumber": 75,
            "velocity": 117
        },
        {
            "deltaTime": 288,
            "channel": 0,
            "type": "noteOff",
            "noteNumber": 75,
            "velocity": 0
        },
        {
            "deltaTime": 3,
            "channel": 0,
            "type": "noteOn",
            "noteNumber": 67,
            "velocity": 117
        },
        {
            "deltaTime": 288,
            "channel": 0,
            "type": "noteOff",
            "noteNumber": 67,
            "velocity": 0
        },
        {
            "deltaTime": 3,
            "channel": 0,
            "type": "noteOn",
            "noteNumber": 56,
            "velocity": 122
        },
        {
            "deltaTime": 0,
            "channel": 0,
            "type": "noteOn",
            "noteNumber": 37,
            "velocity": 116
        },
        {
            "deltaTime": 0,
            "channel": 0,
            "type": "noteOn",
            "noteNumber": 73,
            "velocity": 114
        },
        {
            "deltaTime": 0,
            "channel": 0,
            "type": "noteOn",
            "noteNumber": 68,
            "velocity": 121
        },
        {
            "deltaTime": 0,
            "channel": 0,
            "type": "noteOn",
            "noteNumber": 63,
            "velocity": 124
        },
        {
            "deltaTime": 0,
            "channel": 0,
            "type": "noteOn",
            "noteNumber": 49,
            "velocity": 113
        },
        {
            "deltaTime": 571,
            "channel": 0,
            "type": "noteOn",
            "noteNumber": 80,
            "velocity": 124
        },
        {
            "deltaTime": 0,
            "channel": 0,
            "type": "noteOn",
            "noteNumber": 85,
            "velocity": 96
        },
        {
            "deltaTime": 4,
            "channel": 0,
            "type": "noteOff",
            "noteNumber": 56,
            "velocity": 0
        },
        {
            "deltaTime": 0,
            "channel": 0,
            "type": "noteOff",
            "noteNumber": 63,
            "velocity": 0
        },
        {
            "deltaTime": 0,
            "channel": 0,
            "type": "noteOff",
            "noteNumber": 73,
            "velocity": 0
        },
        {
            "deltaTime": 0,
            "channel": 0,
            "type": "noteOff",
            "noteNumber": 37,
            "velocity": 0
        },
        {
            "deltaTime": 0,
            "channel": 0,
            "type": "noteOff",
            "noteNumber": 68,
            "velocity": 0
        },
        {
            "deltaTime": 0,
            "channel": 0,
            "type": "noteOff",
            "noteNumber": 49,
            "velocity": 0
        },
        {
            "deltaTime": 165,
            "channel": 0,
            "type": "noteOff",
            "noteNumber": 85,
            "velocity": 0
        },
        {
            "deltaTime": 0,
            "channel": 0,
            "type": "noteOff",
            "noteNumber": 80,
            "velocity": 0
        },
        {
            "deltaTime": 121,
            "channel": 0,
            "type": "noteOn",
            "noteNumber": 68,
            "velocity": 108
        },
        {
            "deltaTime": 0,
            "channel": 0,
            "type": "noteOn",
            "noteNumber": 85,
            "velocity": 108
        },
        {
            "deltaTime": 0,
            "channel": 0,
            "type": "noteOn",
            "noteNumber": 73,
            "velocity": 108
        },
        {
            "deltaTime": 170,
            "channel": 0,
            "type": "noteOff",
            "noteNumber": 68,
            "velocity": 0
        },
        {
            "deltaTime": 0,
            "channel": 0,
            "type": "noteOff",
            "noteNumber": 85,
            "velocity": 0
        },
        {
            "deltaTime": 0,
            "channel": 0,
            "type": "noteOff",
            "noteNumber": 73,
            "velocity": 0
        },
        {
            "deltaTime": 109,
            "channel": 0,
            "type": "noteOn",
            "noteNumber": 75,
            "velocity": 118
        },
        {
            "deltaTime": 0,
            "channel": 0,
            "type": "noteOn",
            "noteNumber": 37,
            "velocity": 120
        },
        {
            "deltaTime": 0,
            "channel": 0,
            "type": "noteOn",
            "noteNumber": 68,
            "velocity": 121
        },
        {
            "deltaTime": 0,
            "channel": 0,
            "type": "noteOn",
            "noteNumber": 80,
            "velocity": 118
        },
        {
            "deltaTime": 0,
            "channel": 0,
            "type": "noteOn",
            "noteNumber": 85,
            "velocity": 112
        },
        {
            "deltaTime": 288,
            "channel": 0,
            "type": "noteOff",
            "noteNumber": 85,
            "velocity": 0
        },
        {
            "deltaTime": 0,
            "channel": 0,
            "type": "noteOff",
            "noteNumber": 75,
            "velocity": 0
        },
        {
            "deltaTime": 0,
            "channel": 0,
            "type": "noteOff",
            "noteNumber": 80,
            "velocity": 0
        },
        {
            "deltaTime": 0,
            "channel": 0,
            "type": "noteOff",
            "noteNumber": 37,
            "velocity": 0
        },
        {
            "deltaTime": 0,
            "channel": 0,
            "type": "noteOff",
            "noteNumber": 68,
            "velocity": 0
        },
        {
            "deltaTime": 3,
            "channel": 0,
            "type": "noteOn",
            "noteNumber": 49,
            "velocity": 87
        },
        {
            "deltaTime": 279,
            "channel": 0,
            "type": "noteOn",
            "noteNumber": 66,
            "velocity": 111
        },
        {
            "deltaTime": 0,
            "channel": 0,
            "type": "noteOn",
            "noteNumber": 75,
            "velocity": 112
        },
        {
            "deltaTime": 8,
            "channel": 0,
            "type": "noteOff",
            "noteNumber": 49,
            "velocity": 0
        },
        {
            "deltaTime": 3,
            "channel": 0,
            "type": "noteOn",
            "noteNumber": 39,
            "velocity": 104
        },
        {
            "deltaTime": 275,
            "channel": 0,
            "type": "noteOff",
            "noteNumber": 66,
            "velocity": 0
        },
        {
            "deltaTime": 3,
            "channel": 0,
            "type": "noteOn",
            "noteNumber": 51,
            "velocity": 93
        },
        {
            "deltaTime": 3,
            "channel": 0,
            "type": "noteOff",
            "noteNumber": 75,
            "velocity": 0
        },
        {
            "deltaTime": 4,
            "channel": 0,
            "type": "noteOff",
            "noteNumber": 39,
            "velocity": 0
        },
        {
            "deltaTime": 279,
            "channel": 0,
            "type": "noteOff",
            "noteNumber": 51,
            "velocity": 0
        },
        {
            "deltaTime": 3,
            "channel": 0,
            "type": "noteOn",
            "noteNumber": 78,
            "velocity": 97
        },
        {
            "deltaTime": 0,
            "channel": 0,
            "type": "noteOn",
            "noteNumber": 73,
            "velocity": 75
        },
        {
            "deltaTime": 0,
            "channel": 0,
            "type": "noteOn",
            "noteNumber": 40,
            "velocity": 95
        },
        {
            "deltaTime": 0,
            "channel": 0,
            "type": "noteOn",
            "noteNumber": 66,
            "velocity": 97
        },
        {
            "deltaTime": 288,
            "channel": 0,
            "type": "noteOff",
            "noteNumber": 40,
            "velocity": 0
        },
        {
            "deltaTime": 3,
            "channel": 0,
            "type": "noteOn",
            "noteNumber": 52,
            "velocity": 68
        },
        {
            "deltaTime": 166,
            "channel": 0,
            "type": "noteOff",
            "noteNumber": 66,
            "velocity": 0
        },
        {
            "deltaTime": 0,
            "channel": 0,
            "type": "noteOff",
            "noteNumber": 73,
            "velocity": 0
        },
        {
            "deltaTime": 0,
            "channel": 0,
            "type": "noteOff",
            "noteNumber": 78,
            "velocity": 0
        },
        {
            "deltaTime": 61,
            "channel": 0,
            "type": "noteOff",
            "noteNumber": 52,
            "velocity": 0
        },
        {
            "deltaTime": 63,
            "channel": 0,
            "type": "noteOn",
            "noteNumber": 73,
            "velocity": 79
        },
        {
            "deltaTime": 0,
            "channel": 0,
            "type": "noteOn",
            "noteNumber": 64,
            "velocity": 92
        },
        {
            "deltaTime": 0,
            "channel": 0,
            "type": "noteOn",
            "noteNumber": 42,
            "velocity": 82
        },
        {
            "deltaTime": 0,
            "channel": 0,
            "type": "noteOn",
            "noteNumber": 76,
            "velocity": 86
        },
        {
            "deltaTime": 143,
            "channel": 0,
            "type": "noteOff",
            "noteNumber": 64,
            "velocity": 0
        },
        {
            "deltaTime": 9,
            "channel": 0,
            "type": "noteOff",
            "noteNumber": 73,
            "velocity": 0
        },
        {
            "deltaTime": 0,
            "channel": 0,
            "type": "noteOff",
            "noteNumber": 76,
            "velocity": 0
        },
        {
            "deltaTime": 125,
            "channel": 0,
            "type": "noteOn",
            "noteNumber": 54,
            "velocity": 78
        },
        {
            "deltaTime": 8,
            "channel": 0,
            "type": "noteOff",
            "noteNumber": 42,
            "velocity": 0
        },
        {
            "deltaTime": 171,
            "channel": 0,
            "type": "noteOff",
            "noteNumber": 54,
            "velocity": 0
        },
        {
            "deltaTime": 111,
            "channel": 0,
            "type": "noteOn",
            "noteNumber": 63,
            "velocity": 97
        },
        {
            "deltaTime": 0,
            "channel": 0,
            "type": "noteOn",
            "noteNumber": 75,
            "velocity": 97
        },
        {
            "deltaTime": 0,
            "channel": 0,
            "type": "noteOn",
            "noteNumber": 69,
            "velocity": 78
        },
        {
            "deltaTime": 0,
            "channel": 0,
            "type": "noteOn",
            "noteNumber": 44,
            "velocity": 101
        },
        {
            "deltaTime": 287,
            "channel": 0,
            "type": "noteOff",
            "noteNumber": 44,
            "velocity": 0
        },
        {
            "deltaTime": 3,
            "channel": 0,
            "type": "noteOn",
            "noteNumber": 56,
            "velocity": 78
        },
        {
            "deltaTime": 169,
            "channel": 0,
            "type": "noteOff",
            "noteNumber": 69,
            "velocity": 0
        },
        {
            "deltaTime": 0,
            "channel": 0,
            "type": "noteOff",
            "noteNumber": 75,
            "velocity": 0
        },
        {
            "deltaTime": 0,
            "channel": 0,
            "type": "noteOff",
            "noteNumber": 63,
            "velocity": 0
        },
        {
            "deltaTime": 58,
            "channel": 0,
            "type": "noteOff",
            "noteNumber": 56,
            "velocity": 0
        },
        {
            "deltaTime": 51,
            "channel": 0,
            "type": "noteOn",
            "noteNumber": 45,
            "velocity": 108
        },
        {
            "deltaTime": 0,
            "channel": 0,
            "type": "noteOn",
            "noteNumber": 61,
            "velocity": 102
        },
        {
            "deltaTime": 0,
            "channel": 0,
            "type": "noteOn",
            "noteNumber": 66,
            "velocity": 101
        },
        {
            "deltaTime": 0,
            "channel": 0,
            "type": "noteOn",
            "noteNumber": 57,
            "velocity": 97
        },
        {
            "deltaTime": 0,
            "channel": 0,
            "type": "noteOn",
            "noteNumber": 73,
            "velocity": 102
        },
        {
            "deltaTime": 287,
            "channel": 0,
            "type": "noteOff",
            "noteNumber": 45,
            "velocity": 0
        },
        {
            "deltaTime": 0,
            "channel": 0,
            "type": "noteOff",
            "noteNumber": 66,
            "velocity": 0
        },
        {
            "deltaTime": 0,
            "channel": 0,
            "type": "noteOff",
            "noteNumber": 73,
            "velocity": 0
        },
        {
            "deltaTime": 0,
            "channel": 0,
            "type": "noteOff",
            "noteNumber": 57,
            "velocity": 0
        },
        {
            "deltaTime": 0,
            "channel": 0,
            "type": "noteOff",
            "noteNumber": 61,
            "velocity": 0
        },
        {
            "deltaTime": 295,
            "channel": 0,
            "type": "noteOn",
            "noteNumber": 72,
            "velocity": 74
        },
        {
            "deltaTime": 0,
            "channel": 0,
            "type": "noteOn",
            "noteNumber": 78,
            "velocity": 73
        },
        {
            "deltaTime": 0,
            "channel": 0,
            "type": "noteOn",
            "noteNumber": 60,
            "velocity": 80
        },
        {
            "deltaTime": 0,
            "channel": 0,
            "type": "noteOn",
            "noteNumber": 75,
            "velocity": 73
        },
        {
            "deltaTime": 571,
            "channel": 0,
            "type": "noteOn",
            "noteNumber": 64,
            "velocity": 36
        },
        {
            "deltaTime": 0,
            "channel": 0,
            "type": "noteOn",
            "noteNumber": 56,
            "velocity": 49
        },
        {
            "deltaTime": 0,
            "channel": 0,
            "type": "noteOn",
            "noteNumber": 67,
            "velocity": 56
        },
        {
            "deltaTime": 4,
            "channel": 0,
            "type": "noteOff",
            "noteNumber": 60,
            "velocity": 0
        },
        {
            "deltaTime": 0,
            "channel": 0,
            "type": "noteOff",
            "noteNumber": 78,
            "velocity": 0
        },
        {
            "deltaTime": 0,
            "channel": 0,
            "type": "noteOff",
            "noteNumber": 75,
            "velocity": 0
        },
        {
            "deltaTime": 7,
            "channel": 0,
            "type": "noteOff",
            "noteNumber": 72,
            "velocity": 0
        },
        {
            "deltaTime": 158,
            "channel": 0,
            "type": "noteOff",
            "noteNumber": 56,
            "velocity": 0
        },
        {
            "deltaTime": 117,
            "channel": 0,
            "type": "noteOff",
            "noteNumber": 64,
            "velocity": 0
        },
        {
            "deltaTime": 0,
            "channel": 0,
            "type": "noteOff",
            "noteNumber": 67,
            "velocity": 0
        },
        {
            "deltaTime": 3,
            "channel": 0,
            "type": "noteOn",
            "noteNumber": 68,
            "velocity": 81
        },
        {
            "deltaTime": 0,
            "channel": 0,
            "type": "noteOn",
            "noteNumber": 44,
            "velocity": 57
        },
        {
            "deltaTime": 170,
            "channel": 0,
            "type": "noteOff",
            "noteNumber": 44,
            "velocity": 0
        },
        {
            "deltaTime": 117,
            "channel": 0,
            "type": "noteOff",
            "noteNumber": 68,
            "velocity": 0
        },
        {
            "deltaTime": 3,
            "channel": 0,
            "type": "noteOn",
            "noteNumber": 56,
            "velocity": 57
        },
        {
            "deltaTime": 0,
            "channel": 0,
            "type": "noteOn",
            "noteNumber": 78,
            "velocity": 62
        },
        {
            "deltaTime": 0,
            "channel": 0,
            "type": "noteOn",
            "noteNumber": 44,
            "velocity": 94
        },
        {
            "deltaTime": 0,
            "channel": 0,
            "type": "noteOn",
            "noteNumber": 66,
            "velocity": 62
        },
        {
            "deltaTime": 279,
            "channel": 0,
            "type": "noteOn",
            "noteNumber": 48,
            "velocity": 85
        },
        {
            "deltaTime": 8,
            "channel": 0,
            "type": "noteOff",
            "noteNumber": 66,
            "velocity": 0
        },
        {
            "deltaTime": 0,
            "channel": 0,
            "type": "noteOff",
            "noteNumber": 56,
            "velocity": 0
        },
        {
            "deltaTime": 0,
            "channel": 0,
            "type": "noteOff",
            "noteNumber": 78,
            "velocity": 0
        },
        {
            "deltaTime": 0,
            "channel": 0,
            "type": "noteOff",
            "noteNumber": 44,
            "velocity": 0
        },
        {
            "deltaTime": 185,
            "channel": 0,
            "type": "noteOff",
            "noteNumber": 48,
            "velocity": 0
        },
        {
            "deltaTime": 97,
            "channel": 0,
            "type": "noteOn",
            "noteNumber": 51,
            "velocity": 86
        },
        {
            "deltaTime": 0,
            "channel": 0,
            "type": "noteOn",
            "noteNumber": 72,
            "velocity": 68
        },
        {
            "deltaTime": 287,
            "channel": 0,
            "type": "noteOff",
            "noteNumber": 72,
            "velocity": 0
        },
        {
            "deltaTime": 3,
            "channel": 0,
            "type": "noteOn",
            "noteNumber": 69,
            "velocity": 78
        },
        {
            "deltaTime": 0,
            "channel": 0,
            "type": "noteOn",
            "noteNumber": 52,
            "velocity": 66
        },
        {
            "deltaTime": 3,
            "channel": 0,
            "type": "noteOff",
            "noteNumber": 51,
            "velocity": 0
        },
        {
            "deltaTime": 275,
            "channel": 0,
            "type": "noteOn",
            "noteNumber": 54,
            "velocity": 116
        },
        {
            "deltaTime": 0,
            "channel": 0,
            "type": "noteOn",
            "noteNumber": 68,
            "velocity": 88
        },
        {
            "deltaTime": 8,
            "channel": 0,
            "type": "noteOff",
            "noteNumber": 52,
            "velocity": 0
        },
        {
            "deltaTime": 0,
            "channel": 0,
            "type": "noteOff",
            "noteNumber": 69,
            "velocity": 0
        },
        {
            "deltaTime": 193,
            "channel": 0,
            "type": "noteOff",
            "noteNumber": 54,
            "velocity": 0
        },
        {
            "deltaTime": 89,
            "channel": 0,
            "type": "noteOn",
            "noteNumber": 57,
            "velocity": 106
        },
        {
            "deltaTime": 12,
            "channel": 0,
            "type": "noteOn",
            "noteNumber": 73,
            "velocity": 87
        },
        {
            "deltaTime": 34,
            "channel": 0,
            "type": "noteOff",
            "noteNumber": 68,
            "velocity": 0
        },
        {
            "deltaTime": 241,
            "channel": 0,
            "type": "noteOff",
            "noteNumber": 57,
            "velocity": 0
        },
        {
            "deltaTime": 3,
            "channel": 0,
            "type": "noteOn",
            "noteNumber": 56,
            "velocity": 115
        },
        {
            "deltaTime": 0,
            "channel": 0,
            "type": "noteOn",
            "noteNumber": 68,
            "velocity": 90
        },
        {
            "deltaTime": 25,
            "channel": 0,
            "type": "noteOff",
            "noteNumber": 73,
            "velocity": 0
        },
        {
            "deltaTime": 262,
            "channel": 0,
            "type": "noteOff",
            "noteNumber": 56,
            "velocity": 0
        },
        {
            "deltaTime": 3,
            "channel": 0,
            "type": "noteOn",
            "noteNumber": 75,
            "velocity": 104
        },
        {
            "deltaTime": 0,
            "channel": 0,
            "type": "noteOn",
            "noteNumber": 54,
            "velocity": 97
        },
        {
            "deltaTime": 89,
            "channel": 0,
            "type": "noteOff",
            "noteNumber": 68,
            "velocity": 0
        },
        {
            "deltaTime": 104,
            "channel": 0,
            "type": "noteOff",
            "noteNumber": 54,
            "velocity": 0
        },
        {
            "deltaTime": 85,
            "channel": 0,
            "type": "noteOn",
            "noteNumber": 68,
            "velocity": 104
        },
        {
            "deltaTime": 8,
            "channel": 0,
            "type": "noteOff",
            "noteNumber": 75,
            "velocity": 0
        },
        {
            "deltaTime": 3,
            "channel": 0,
            "type": "noteOn",
            "noteNumber": 52,
            "velocity": 118
        },
        {
            "deltaTime": 275,
            "channel": 0,
            "type": "noteOff",
            "noteNumber": 68,
            "velocity": 0
        },
        {
            "deltaTime": 3,
            "channel": 0,
            "type": "noteOn",
            "noteNumber": 48,
            "velocity": 101
        },
        {
            "deltaTime": 0,
            "channel": 0,
            "type": "noteOn",
            "noteNumber": 76,
            "velocity": 109
        },
        {
            "deltaTime": 15,
            "channel": 0,
            "type": "noteOff",
            "noteNumber": 52,
            "velocity": 0
        },
        {
            "deltaTime": 263,
            "channel": 0,
            "type": "noteOn",
            "noteNumber": 45,
            "velocity": 114
        },
        {
            "deltaTime": 8,
            "channel": 0,
            "type": "noteOff",
            "noteNumber": 76,
            "velocity": 0
        },
        {
            "deltaTime": 3,
            "channel": 0,
            "type": "noteOn",
            "noteNumber": 66,
            "velocity": 114
        },
        {
            "deltaTime": 0,
            "channel": 0,
            "type": "noteOn",
            "noteNumber": 69,
            "velocity": 114
        },
        {
            "deltaTime": 0,
            "channel": 0,
            "type": "noteOn",
            "noteNumber": 78,
            "velocity": 114
        },
        {
            "deltaTime": 3,
            "channel": 0,
            "type": "noteOff",
            "noteNumber": 48,
            "velocity": 0
        },
        {
            "deltaTime": 275,
            "channel": 0,
            "type": "noteOn",
            "noteNumber": 72,
            "velocity": 113
        },
        {
            "deltaTime": 0,
            "channel": 0,
            "type": "noteOn",
            "noteNumber": 44,
            "velocity": 107
        },
        {
            "deltaTime": 3,
            "channel": 0,
            "type": "noteOff",
            "noteNumber": 45,
            "velocity": 0
        },
        {
            "deltaTime": 4,
            "channel": 0,
            "type": "noteOff",
            "noteNumber": 66,
            "velocity": 0
        },
        {
            "deltaTime": 0,
            "channel": 0,
            "type": "noteOff",
            "noteNumber": 78,
            "velocity": 0
        },
        {
            "deltaTime": 0,
            "channel": 0,
            "type": "noteOff",
            "noteNumber": 69,
            "velocity": 0
        },
        {
            "deltaTime": 279,
            "channel": 0,
            "type": "noteOff",
            "noteNumber": 72,
            "velocity": 0
        },
        {
            "deltaTime": 0,
            "channel": 0,
            "type": "noteOff",
            "noteNumber": 44,
            "velocity": 0
        },
        {
            "deltaTime": 3,
            "channel": 0,
            "type": "noteOn",
            "noteNumber": 73,
            "velocity": 114
        },
        {
            "deltaTime": 0,
            "channel": 0,
            "type": "noteOn",
            "noteNumber": 68,
            "velocity": 121
        },
        {
            "deltaTime": 0,
            "channel": 0,
            "type": "noteOn",
            "noteNumber": 49,
            "velocity": 113
        },
        {
            "deltaTime": 0,
            "channel": 0,
            "type": "noteOn",
            "noteNumber": 37,
            "velocity": 116
        },
        {
            "deltaTime": 0,
            "channel": 0,
            "type": "noteOn",
            "noteNumber": 64,
            "velocity": 124
        },
        {
            "deltaTime": 0,
            "channel": 0,
            "type": "noteOn",
            "noteNumber": 58,
            "velocity": 92
        },
        {
            "deltaTime": 388,
            "channel": 0,
            "type": "noteOff",
            "noteNumber": 64,
            "velocity": 0
        },
        {
            "deltaTime": 0,
            "channel": 0,
            "type": "noteOff",
            "noteNumber": 49,
            "velocity": 0
        },
        {
            "deltaTime": 0,
            "channel": 0,
            "type": "noteOff",
            "noteNumber": 73,
            "velocity": 0
        },
        {
            "deltaTime": 0,
            "channel": 0,
            "type": "noteOff",
            "noteNumber": 37,
            "velocity": 0
        },
        {
            "deltaTime": 0,
            "channel": 0,
            "type": "noteOff",
            "noteNumber": 58,
            "velocity": 0
        },
        {
            "deltaTime": 0,
            "channel": 0,
            "type": "noteOff",
            "noteNumber": 68,
            "velocity": 0
        },
        {
            "deltaTime": 182,
            "channel": 0,
            "type": "noteOn",
            "noteNumber": 85,
            "velocity": 87
        },
        {
            "deltaTime": 0,
            "channel": 0,
            "type": "noteOn",
            "noteNumber": 80,
            "velocity": 118
        },
        {
            "deltaTime": 170,
            "channel": 0,
            "type": "noteOff",
            "noteNumber": 80,
            "velocity": 0
        },
        {
            "deltaTime": 0,
            "channel": 0,
            "type": "noteOff",
            "noteNumber": 85,
            "velocity": 0
        },
        {
            "deltaTime": 121,
            "channel": 0,
            "type": "noteOn",
            "noteNumber": 85,
            "velocity": 112
        },
        {
            "deltaTime": 0,
            "channel": 0,
            "type": "noteOn",
            "noteNumber": 68,
            "velocity": 112
        },
        {
            "deltaTime": 0,
            "channel": 0,
            "type": "noteOn",
            "noteNumber": 73,
            "velocity": 112
        },
        {
            "deltaTime": 0,
            "channel": 0,
            "type": "noteOn",
            "noteNumber": 76,
            "velocity": 112
        },
        {
            "deltaTime": 170,
            "channel": 0,
            "type": "noteOff",
            "noteNumber": 85,
            "velocity": 0
        },
        {
            "deltaTime": 0,
            "channel": 0,
            "type": "noteOff",
            "noteNumber": 76,
            "velocity": 0
        },
        {
            "deltaTime": 0,
            "channel": 0,
            "type": "noteOff",
            "noteNumber": 68,
            "velocity": 0
        },
        {
            "deltaTime": 0,
            "channel": 0,
            "type": "noteOff",
            "noteNumber": 73,
            "velocity": 0
        },
        {
            "deltaTime": 121,
            "channel": 0,
            "type": "noteOn",
            "noteNumber": 49,
            "velocity": 120
        },
        {
            "deltaTime": 0,
            "channel": 0,
            "type": "noteOn",
            "noteNumber": 68,
            "velocity": 122
        },
        {
            "deltaTime": 0,
            "channel": 0,
            "type": "noteOn",
            "noteNumber": 85,
            "velocity": 113
        },
        {
            "deltaTime": 0,
            "channel": 0,
            "type": "noteOn",
            "noteNumber": 76,
            "velocity": 122
        },
        {
            "deltaTime": 0,
            "channel": 0,
            "type": "noteOn",
            "noteNumber": 80,
            "velocity": 117
        },
        {
            "deltaTime": 0,
            "channel": 0,
            "type": "noteOn",
            "noteNumber": 37,
            "velocity": 120
        },
        {
            "deltaTime": 355,
            "channel": 0,
            "type": "noteOff",
            "noteNumber": 68,
            "velocity": 0
        },
        {
            "deltaTime": 0,
            "channel": 0,
            "type": "noteOff",
            "noteNumber": 49,
            "velocity": 0
        },
        {
            "deltaTime": 0,
            "channel": 0,
            "type": "noteOff",
            "noteNumber": 80,
            "velocity": 0
        },
        {
            "deltaTime": 0,
            "channel": 0,
            "type": "noteOff",
            "noteNumber": 37,
            "velocity": 0
        },
        {
            "deltaTime": 0,
            "channel": 0,
            "type": "noteOff",
            "noteNumber": 85,
            "velocity": 0
        },
        {
            "deltaTime": 0,
            "channel": 0,
            "type": "noteOff",
            "noteNumber": 76,
            "velocity": 0
        },
        {
            "deltaTime": 215,
            "channel": 0,
            "type": "noteOn",
            "noteNumber": 83,
            "velocity": 95
        },
        {
            "deltaTime": 0,
            "channel": 0,
            "type": "noteOn",
            "noteNumber": 71,
            "velocity": 85
        },
        {
            "deltaTime": 0,
            "channel": 0,
            "type": "noteOn",
            "noteNumber": 39,
            "velocity": 119
        },
        {
            "deltaTime": 0,
            "channel": 0,
            "type": "noteOn",
            "noteNumber": 51,
            "velocity": 119
        },
        {
            "deltaTime": 287,
            "channel": 0,
            "type": "noteOff",
            "noteNumber": 51,
            "velocity": 0
        },
        {
            "deltaTime": 0,
            "channel": 0,
            "type": "noteOff",
            "noteNumber": 71,
            "velocity": 0
        },
        {
            "deltaTime": 0,
            "channel": 0,
            "type": "noteOff",
            "noteNumber": 83,
            "velocity": 0
        },
        {
            "deltaTime": 0,
            "channel": 0,
            "type": "noteOff",
            "noteNumber": 39,
            "velocity": 0
        },
        {
            "deltaTime": 3,
            "channel": 0,
            "type": "noteOn",
            "noteNumber": 82,
            "velocity": 79
        },
        {
            "deltaTime": 0,
            "channel": 0,
            "type": "noteOn",
            "noteNumber": 70,
            "velocity": 71
        },
        {
            "deltaTime": 287,
            "channel": 0,
            "type": "noteOff",
            "noteNumber": 70,
            "velocity": 0
        },
        {
            "deltaTime": 0,
            "channel": 0,
            "type": "noteOff",
            "noteNumber": 82,
            "velocity": 0
        },
        {
            "deltaTime": 3,
            "channel": 0,
            "type": "noteOn",
            "noteNumber": 69,
            "velocity": 91
        },
        {
            "deltaTime": 0,
            "channel": 0,
            "type": "noteOn",
            "noteNumber": 40,
            "velocity": 112
        },
        {
            "deltaTime": 0,
            "channel": 0,
            "type": "noteOn",
            "noteNumber": 52,
            "velocity": 112
        },
        {
            "deltaTime": 0,
            "channel": 0,
            "type": "noteOn",
            "noteNumber": 81,
            "velocity": 100
        },
        {
            "deltaTime": 192,
            "channel": 0,
            "type": "noteOff",
            "noteNumber": 81,
            "velocity": 0
        },
        {
            "deltaTime": 0,
            "channel": 0,
            "type": "noteOff",
            "noteNumber": 69,
            "velocity": 0
        },
        {
            "deltaTime": 87,
            "channel": 0,
            "type": "noteOn",
            "noteNumber": 73,
            "velocity": 107
        },
        {
            "deltaTime": 0,
            "channel": 0,
            "type": "noteOn",
            "noteNumber": 81,
            "velocity": 107
        },
        {
            "deltaTime": 0,
            "channel": 0,
            "type": "noteOn",
            "noteNumber": 64,
            "velocity": 95
        },
        {
            "deltaTime": 0,
            "channel": 0,
            "type": "noteOn",
            "noteNumber": 69,
            "velocity": 107
        },
        {
            "deltaTime": 8,
            "channel": 0,
            "type": "noteOff",
            "noteNumber": 40,
            "velocity": 0
        },
        {
            "deltaTime": 0,
            "channel": 0,
            "type": "noteOff",
            "noteNumber": 52,
            "velocity": 0
        },
        {
            "deltaTime": 279,
            "channel": 0,
            "type": "noteOff",
            "noteNumber": 69,
            "velocity": 0
        },
        {
            "deltaTime": 0,
            "channel": 0,
            "type": "noteOff",
            "noteNumber": 73,
            "velocity": 0
        },
        {
            "deltaTime": 0,
            "channel": 0,
            "type": "noteOff",
            "noteNumber": 64,
            "velocity": 0
        },
        {
            "deltaTime": 0,
            "channel": 0,
            "type": "noteOff",
            "noteNumber": 81,
            "velocity": 0
        },
        {
            "deltaTime": 3,
            "channel": 0,
            "type": "noteOn",
            "noteNumber": 54,
            "velocity": 119
        },
        {
            "deltaTime": 0,
            "channel": 0,
            "type": "noteOn",
            "noteNumber": 68,
            "velocity": 87
        },
        {
            "deltaTime": 0,
            "channel": 0,
            "type": "noteOn",
            "noteNumber": 80,
            "velocity": 87
        },
        {
            "deltaTime": 0,
            "channel": 0,
            "type": "noteOn",
            "noteNumber": 42,
            "velocity": 119
        },
        {
            "deltaTime": 134,
            "channel": 0,
            "type": "noteOff",
            "noteNumber": 68,
            "velocity": 0
        },
        {
            "deltaTime": 0,
            "channel": 0,
            "type": "noteOff",
            "noteNumber": 80,
            "velocity": 0
        },
        {
            "deltaTime": 153,
            "channel": 0,
            "type": "noteOff",
            "noteNumber": 54,
            "velocity": 0
        },
        {
            "deltaTime": 0,
            "channel": 0,
            "type": "noteOff",
            "noteNumber": 42,
            "velocity": 0
        },
        {
            "deltaTime": 3,
            "channel": 0,
            "type": "noteOn",
            "noteNumber": 68,
            "velocity": 99
        },
        {
            "deltaTime": 0,
            "channel": 0,
            "type": "noteOn",
            "noteNumber": 72,
            "velocity": 80
        },
        {
            "deltaTime": 0,
            "channel": 0,
            "type": "noteOn",
            "noteNumber": 80,
            "velocity": 99
        },
        {
            "deltaTime": 247,
            "channel": 0,
            "type": "noteOff",
            "noteNumber": 68,
            "velocity": 0
        },
        {
            "deltaTime": 0,
            "channel": 0,
            "type": "noteOff",
            "noteNumber": 80,
            "velocity": 0
        },
        {
            "deltaTime": 0,
            "channel": 0,
            "type": "noteOff",
            "noteNumber": 72,
            "velocity": 0
        },
        {
            "deltaTime": 44,
            "channel": 0,
            "type": "noteOn",
            "noteNumber": 76,
            "velocity": 110
        },
        {
            "deltaTime": 0,
            "channel": 0,
            "type": "noteOn",
            "noteNumber": 88,
            "velocity": 99
        },
        {
            "deltaTime": 0,
            "channel": 0,
            "type": "noteOn",
            "noteNumber": 56,
            "velocity": 106
        },
        {
            "deltaTime": 0,
            "channel": 0,
            "type": "noteOn",
            "noteNumber": 68,
            "velocity": 106
        },
        {
            "deltaTime": 0,
            "channel": 0,
            "type": "noteOn",
            "noteNumber": 73,
            "velocity": 106
        },
        {
            "deltaTime": 279,
            "channel": 0,
            "type": "noteOn",
            "noteNumber": 85,
            "velocity": 107
        },
        {
            "deltaTime": 8,
            "channel": 0,
            "type": "noteOff",
            "noteNumber": 76,
            "velocity": 0
        },
        {
            "deltaTime": 0,
            "channel": 0,
            "type": "noteOff",
            "noteNumber": 88,
            "velocity": 0
        },
        {
            "deltaTime": 76,
            "channel": 0,
            "type": "noteOff",
            "noteNumber": 73,
            "velocity": 0
        },
        {
            "deltaTime": 0,
            "channel": 0,
            "type": "noteOff",
            "noteNumber": 56,
            "velocity": 0
        },
        {
            "deltaTime": 0,
            "channel": 0,
            "type": "noteOff",
            "noteNumber": 68,
            "velocity": 0
        },
        {
            "deltaTime": 202,
            "channel": 0,
            "type": "noteOff",
            "noteNumber": 85,
            "velocity": 0
        },
        {
            "deltaTime": 3,
            "channel": 0,
            "type": "noteOn",
            "noteNumber": 68,
            "velocity": 113
        },
        {
            "deltaTime": 0,
            "channel": 0,
            "type": "noteOn",
            "noteNumber": 80,
            "velocity": 107
        },
        {
            "deltaTime": 0,
            "channel": 0,
            "type": "noteOn",
            "noteNumber": 40,
            "velocity": 122
        },
        {
            "deltaTime": 0,
            "channel": 0,
            "type": "noteOn",
            "noteNumber": 52,
            "velocity": 118
        },
        {
            "deltaTime": 192,
            "channel": 0,
            "type": "noteOff",
            "noteNumber": 40,
            "velocity": 0
        },
        {
            "deltaTime": 0,
            "channel": 0,
            "type": "noteOff",
            "noteNumber": 80,
            "velocity": 0
        },
        {
            "deltaTime": 0,
            "channel": 0,
            "type": "noteOff",
            "noteNumber": 52,
            "velocity": 0
        },
        {
            "deltaTime": 0,
            "channel": 0,
            "type": "noteOff",
            "noteNumber": 68,
            "velocity": 0
        },
        {
            "deltaTime": 2,
            "channel": 0,
            "type": "noteOn",
            "noteNumber": 78,
            "velocity": 98
        },
        {
            "deltaTime": 192,
            "channel": 0,
            "type": "noteOff",
            "noteNumber": 78,
            "velocity": 0
        },
        {
            "deltaTime": 2,
            "channel": 0,
            "type": "noteOn",
            "noteNumber": 76,
            "velocity": 96
        },
        {
            "deltaTime": 182,
            "channel": 0,
            "type": "noteOn",
            "noteNumber": 67,
            "velocity": 116
        },
        {
            "deltaTime": 0,
            "channel": 0,
            "type": "noteOn",
            "noteNumber": 75,
            "velocity": 102
        },
        {
            "deltaTime": 0,
            "channel": 0,
            "type": "noteOn",
            "noteNumber": 79,
            "velocity": 104
        },
        {
            "deltaTime": 0,
            "channel": 0,
            "type": "noteOn",
            "noteNumber": 51,
            "velocity": 119
        },
        {
            "deltaTime": 0,
            "channel": 0,
            "type": "noteOn",
            "noteNumber": 61,
            "velocity": 111
        },
        {
            "deltaTime": 9,
            "channel": 0,
            "type": "noteOff",
            "noteNumber": 76,
            "velocity": 0
        },
        {
            "deltaTime": 278,
            "channel": 0,
            "type": "noteOff",
            "noteNumber": 79,
            "velocity": 0
        },
        {
            "deltaTime": 0,
            "channel": 0,
            "type": "noteOff",
            "noteNumber": 61,
            "velocity": 0
        },
        {
            "deltaTime": 0,
            "channel": 0,
            "type": "noteOff",
            "noteNumber": 67,
            "velocity": 0
        },
        {
            "deltaTime": 0,
            "channel": 0,
            "type": "noteOff",
            "noteNumber": 75,
            "velocity": 0
        },
        {
            "deltaTime": 0,
            "channel": 0,
            "type": "noteOff",
            "noteNumber": 51,
            "velocity": 0
        },
        {
            "deltaTime": 295,
            "channel": 0,
            "type": "noteOn",
            "noteNumber": 76,
            "velocity": 101
        },
        {
            "deltaTime": 0,
            "channel": 0,
            "type": "noteOn",
            "noteNumber": 88,
            "velocity": 101
        },
        {
            "deltaTime": 0,
            "channel": 0,
            "type": "noteOn",
            "noteNumber": 40,
            "velocity": 109
        },
        {
            "deltaTime": 201,
            "channel": 0,
            "type": "noteOff",
            "noteNumber": 76,
            "velocity": 0
        },
        {
            "deltaTime": 0,
            "channel": 0,
            "type": "noteOff",
            "noteNumber": 88,
            "velocity": 0
        },
        {
            "deltaTime": 4,
            "channel": 0,
            "type": "noteOff",
            "noteNumber": 40,
            "velocity": 0
        },
        {
            "deltaTime": 73,
            "channel": 0,
            "type": "noteOn",
            "noteNumber": 73,
            "velocity": 102
        },
        {
            "deltaTime": 0,
            "channel": 0,
            "type": "noteOn",
            "noteNumber": 52,
            "velocity": 112
        },
        {
            "deltaTime": 0,
            "channel": 0,
            "type": "noteOn",
            "noteNumber": 40,
            "velocity": 103
        },
        {
            "deltaTime": 0,
            "channel": 0,
            "type": "noteOn",
            "noteNumber": 81,
            "velocity": 111
        },
        {
            "deltaTime": 0,
            "channel": 0,
            "type": "noteOn",
            "noteNumber": 88,
            "velocity": 111
        },
        {
            "deltaTime": 0,
            "channel": 0,
            "type": "noteOn",
            "noteNumber": 76,
            "velocity": 111
        },
        {
            "deltaTime": 201,
            "channel": 0,
            "type": "noteOff",
            "noteNumber": 81,
            "velocity": 0
        },
        {
            "deltaTime": 0,
            "channel": 0,
            "type": "noteOff",
            "noteNumber": 76,
            "velocity": 0
        },
        {
            "deltaTime": 0,
            "channel": 0,
            "type": "noteOff",
            "noteNumber": 88,
            "velocity": 0
        },
        {
            "deltaTime": 4,
            "channel": 0,
            "type": "noteOff",
            "noteNumber": 40,
            "velocity": 0
        },
        {
            "deltaTime": 0,
            "channel": 0,
            "type": "noteOff",
            "noteNumber": 73,
            "velocity": 0
        },
        {
            "deltaTime": 0,
            "channel": 0,
            "type": "noteOff",
            "noteNumber": 52,
            "velocity": 0
        },
        {
            "deltaTime": 85,
            "channel": 0,
            "type": "noteOn",
            "noteNumber": 54,
            "velocity": 116
        },
        {
            "deltaTime": 0,
            "channel": 0,
            "type": "noteOn",
            "noteNumber": 68,
            "velocity": 120
        },
        {
            "deltaTime": 0,
            "channel": 0,
            "type": "noteOn",
            "noteNumber": 72,
            "velocity": 107
        },
        {
            "deltaTime": 0,
            "channel": 0,
            "type": "noteOn",
            "noteNumber": 87,
            "velocity": 114
        },
        {
            "deltaTime": 0,
            "channel": 0,
            "type": "noteOn",
            "noteNumber": 42,
            "velocity": 116
        },
        {
            "deltaTime": 0,
            "channel": 0,
            "type": "noteOn",
            "noteNumber": 80,
            "velocity": 107
        },
        {
            "deltaTime": 223,
            "channel": 0,
            "type": "noteOff",
            "noteNumber": 87,
            "velocity": 0
        },
        {
            "deltaTime": 64,
            "channel": 0,
            "type": "noteOff",
            "noteNumber": 72,
            "velocity": 0
        },
        {
            "deltaTime": 0,
            "channel": 0,
            "type": "noteOff",
            "noteNumber": 80,
            "velocity": 0
        },
        {
            "deltaTime": 0,
            "channel": 0,
            "type": "noteOff",
            "noteNumber": 42,
            "velocity": 0
        },
        {
            "deltaTime": 0,
            "channel": 0,
            "type": "noteOff",
            "noteNumber": 68,
            "velocity": 0
        },
        {
            "deltaTime": 0,
            "channel": 0,
            "type": "noteOff",
            "noteNumber": 54,
            "velocity": 0
        },
        {
            "deltaTime": 3,
            "channel": 0,
            "type": "noteOn",
            "noteNumber": 87,
            "velocity": 105
        },
        {
            "deltaTime": 287,
            "channel": 0,
            "type": "noteOff",
            "noteNumber": 87,
            "velocity": 0
        },
        {
            "deltaTime": 3,
            "channel": 0,
            "type": "noteOn",
            "noteNumber": 67,
            "velocity": 92
        },
        {
            "deltaTime": 0,
            "channel": 0,
            "type": "noteOn",
            "noteNumber": 85,
            "velocity": 108
        },
        {
            "deltaTime": 0,
            "channel": 0,
            "type": "noteOn",
            "noteNumber": 43,
            "velocity": 113
        },
        {
            "deltaTime": 0,
            "channel": 0,
            "type": "noteOn",
            "noteNumber": 55,
            "velocity": 113
        },
        {
            "deltaTime": 0,
            "channel": 0,
            "type": "noteOn",
            "noteNumber": 76,
            "velocity": 86
        },
        {
            "deltaTime": 279,
            "channel": 0,
            "type": "noteOn",
            "noteNumber": 73,
            "velocity": 111
        },
        {
            "deltaTime": 8,
            "channel": 0,
            "type": "noteOff",
            "noteNumber": 55,
            "velocity": 0
        },
        {
            "deltaTime": 0,
            "channel": 0,
            "type": "noteOff",
            "noteNumber": 85,
            "velocity": 0
        },
        {
            "deltaTime": 0,
            "channel": 0,
            "type": "noteOff",
            "noteNumber": 76,
            "velocity": 0
        },
        {
            "deltaTime": 0,
            "channel": 0,
            "type": "noteOff",
            "noteNumber": 43,
            "velocity": 0
        },
        {
            "deltaTime": 0,
            "channel": 0,
            "type": "noteOff",
            "noteNumber": 67,
            "velocity": 0
        },
        {
            "deltaTime": 279,
            "channel": 0,
            "type": "noteOff",
            "noteNumber": 73,
            "velocity": 0
        },
        {
            "deltaTime": 3,
            "channel": 0,
            "type": "noteOn",
            "noteNumber": 80,
            "velocity": 99
        },
        {
            "deltaTime": 0,
            "channel": 0,
            "type": "noteOn",
            "noteNumber": 68,
            "velocity": 92
        },
        {
            "deltaTime": 0,
            "channel": 0,
            "type": "noteOn",
            "noteNumber": 44,
            "velocity": 102
        },
        {
            "deltaTime": 0,
            "channel": 0,
            "type": "noteOn",
            "noteNumber": 75,
            "velocity": 110
        },
        {
            "deltaTime": 0,
            "channel": 0,
            "type": "noteOn",
            "noteNumber": 56,
            "velocity": 114
        },
        {
            "deltaTime": 0,
            "channel": 0,
            "type": "noteOn",
            "noteNumber": 87,
            "velocity": 110
        },
        {
            "deltaTime": 287,
            "channel": 0,
            "type": "noteOff",
            "noteNumber": 87,
            "velocity": 0
        },
        {
            "deltaTime": 0,
            "channel": 0,
            "type": "noteOff",
            "noteNumber": 44,
            "velocity": 0
        },
        {
            "deltaTime": 0,
            "channel": 0,
            "type": "noteOff",
            "noteNumber": 80,
            "velocity": 0
        },
        {
            "deltaTime": 0,
            "channel": 0,
            "type": "noteOff",
            "noteNumber": 68,
            "velocity": 0
        },
        {
            "deltaTime": 0,
            "channel": 0,
            "type": "noteOff",
            "noteNumber": 75,
            "velocity": 0
        },
        {
            "deltaTime": 0,
            "channel": 0,
            "type": "noteOff",
            "noteNumber": 56,
            "velocity": 0
        },
        {
            "deltaTime": 3,
            "channel": 0,
            "type": "noteOn",
            "noteNumber": 84,
            "velocity": 97
        },
        {
            "deltaTime": 279,
            "channel": 0,
            "type": "noteOn",
            "noteNumber": 78,
            "velocity": 109
        },
        {
            "deltaTime": 8,
            "channel": 0,
            "type": "noteOff",
            "noteNumber": 84,
            "velocity": 0
        },
        {
            "deltaTime": 279,
            "channel": 0,
            "type": "noteOff",
            "noteNumber": 78,
            "velocity": 0
        },
        {
            "deltaTime": 3,
            "channel": 0,
            "type": "noteOn",
            "noteNumber": 72,
            "velocity": 78
        },
        {
            "deltaTime": 287,
            "channel": 0,
            "type": "noteOff",
            "noteNumber": 72,
            "velocity": 0
        },
        {
            "deltaTime": 3,
            "channel": 0,
            "type": "noteOn",
            "noteNumber": 39,
            "velocity": 105
        },
        {
            "deltaTime": 0,
            "channel": 0,
            "type": "noteOn",
            "noteNumber": 93,
            "velocity": 81
        },
        {
            "deltaTime": 0,
            "channel": 0,
            "type": "noteOn",
            "noteNumber": 51,
            "velocity": 105
        },
        {
            "deltaTime": 192,
            "channel": 0,
            "type": "noteOff",
            "noteNumber": 93,
            "velocity": 0
        },
        {
            "deltaTime": 2,
            "channel": 0,
            "type": "noteOn",
            "noteNumber": 92,
            "velocity": 90
        },
        {
            "deltaTime": 100,
            "channel": 0,
            "type": "noteOff",
            "noteNumber": 51,
            "velocity": 0
        },
        {
            "deltaTime": 0,
            "channel": 0,
            "type": "noteOff",
            "noteNumber": 39,
            "velocity": 0
        },
        {
            "deltaTime": 81,
            "channel": 0,
            "type": "noteOn",
            "noteNumber": 90,
            "velocity": 104
        },
        {
            "deltaTime": 9,
            "channel": 0,
            "type": "noteOff",
            "noteNumber": 92,
            "velocity": 0
        },
        {
            "deltaTime": 182,
            "channel": 0,
            "type": "noteOff",
            "noteNumber": 90,
            "velocity": 0
        },
        {
            "deltaTime": 2,
            "channel": 0,
            "type": "noteOn",
            "noteNumber": 44,
            "velocity": 93
        },
        {
            "deltaTime": 0,
            "channel": 0,
            "type": "noteOn",
            "noteNumber": 56,
            "velocity": 93
        },
        {
            "deltaTime": 0,
            "channel": 0,
            "type": "noteOn",
            "noteNumber": 87,
            "velocity": 112
        },
        {
            "deltaTime": 192,
            "channel": 0,
            "type": "noteOff",
            "noteNumber": 87,
            "velocity": 0
        },
        {
            "deltaTime": 2,
            "channel": 0,
            "type": "noteOn",
            "noteNumber": 84,
            "velocity": 84
        },
        {
            "deltaTime": 100,
            "channel": 0,
            "type": "noteOff",
            "noteNumber": 44,
            "velocity": 0
        },
        {
            "deltaTime": 0,
            "channel": 0,
            "type": "noteOff",
            "noteNumber": 56,
            "velocity": 0
        },
        {
            "deltaTime": 91,
            "channel": 0,
            "type": "noteOff",
            "noteNumber": 84,
            "velocity": 0
        },
        {
            "deltaTime": 2,
            "channel": 0,
            "type": "noteOn",
            "noteNumber": 80,
            "velocity": 75
        },
        {
            "deltaTime": 182,
            "channel": 0,
            "type": "noteOn",
            "noteNumber": 81,
            "velocity": 90
        },
        {
            "deltaTime": 0,
            "channel": 0,
            "type": "noteOn",
            "noteNumber": 73,
            "velocity": 89
        },
        {
            "deltaTime": 0,
            "channel": 0,
            "type": "noteOn",
            "noteNumber": 88,
            "velocity": 104
        },
        {
            "deltaTime": 9,
            "channel": 0,
            "type": "noteOff",
            "noteNumber": 80,
            "velocity": 0
        },
        {
            "deltaTime": 2,
            "channel": 0,
            "type": "noteOn",
            "noteNumber": 45,
            "velocity": 95
        },
        {
            "deltaTime": 0,
            "channel": 0,
            "type": "noteOn",
            "noteNumber": 57,
            "velocity": 95
        },
        {
            "deltaTime": 563,
            "channel": 0,
            "type": "noteOff",
            "noteNumber": 88,
            "velocity": 0
        },
        {
            "deltaTime": 0,
            "channel": 0,
            "type": "noteOff",
            "noteNumber": 73,
            "velocity": 0
        },
        {
            "deltaTime": 7,
            "channel": 0,
            "type": "noteOn",
            "noteNumber": 87,
            "velocity": 71
        },
        {
            "deltaTime": 0,
            "channel": 0,
            "type": "noteOn",
            "noteNumber": 69,
            "velocity": 55
        },
        {
            "deltaTime": 0,
            "channel": 0,
            "type": "noteOn",
            "noteNumber": 61,
            "velocity": 80
        },
        {
            "deltaTime": 2,
            "channel": 0,
            "type": "noteOff",
            "noteNumber": 81,
            "velocity": 0
        },
        {
            "deltaTime": 2,
            "channel": 0,
            "type": "noteOff",
            "noteNumber": 57,
            "velocity": 0
        },
        {
            "deltaTime": 0,
            "channel": 0,
            "type": "noteOff",
            "noteNumber": 45,
            "velocity": 0
        },
        {
            "deltaTime": 566,
            "channel": 0,
            "type": "noteOn",
            "noteNumber": 76,
            "velocity": 79
        },
        {
            "deltaTime": 0,
            "channel": 0,
            "type": "noteOn",
            "noteNumber": 85,
            "velocity": 79
        },
        {
            "deltaTime": 0,
            "channel": 0,
            "type": "noteOn",
            "noteNumber": 71,
            "velocity": 54
        },
        {
            "deltaTime": 0,
            "channel": 0,
            "type": "noteOn",
            "noteNumber": 93,
            "velocity": 81
        },
        {
            "deltaTime": 0,
            "channel": 0,
            "type": "noteOn",
            "noteNumber": 64,
            "velocity": 59
        },
        {
            "deltaTime": 4,
            "channel": 0,
            "type": "noteOff",
            "noteNumber": 61,
            "velocity": 0
        },
        {
            "deltaTime": 0,
            "channel": 0,
            "type": "noteOff",
            "noteNumber": 87,
            "velocity": 0
        },
        {
            "deltaTime": 0,
            "channel": 0,
            "type": "noteOff",
            "noteNumber": 69,
            "velocity": 0
        },
        {
            "deltaTime": 549,
            "channel": 0,
            "type": "noteOff",
            "noteNumber": 93,
            "velocity": 0
        },
        {
            "deltaTime": 21,
            "channel": 0,
            "type": "noteOff",
            "noteNumber": 85,
            "velocity": 0
        },
        {
            "deltaTime": 0,
            "channel": 0,
            "type": "noteOff",
            "noteNumber": 71,
            "velocity": 0
        },
        {
            "deltaTime": 0,
            "channel": 0,
            "type": "noteOff",
            "noteNumber": 76,
            "velocity": 0
        },
        {
            "deltaTime": 0,
            "channel": 0,
            "type": "noteOff",
            "noteNumber": 64,
            "velocity": 0
        },
        {
            "deltaTime": 7,
            "channel": 0,
            "type": "noteOn",
            "noteNumber": 75,
            "velocity": 63
        },
        {
            "deltaTime": 0,
            "channel": 0,
            "type": "noteOn",
            "noteNumber": 81,
            "velocity": 73
        },
        {
            "deltaTime": 571,
            "channel": 0,
            "type": "noteOn",
            "noteNumber": 78,
            "velocity": 47
        },
        {
            "deltaTime": 0,
            "channel": 0,
            "type": "noteOn",
            "noteNumber": 63,
            "velocity": 55
        },
        {
            "deltaTime": 0,
            "channel": 0,
            "type": "noteOn",
            "noteNumber": 72,
            "velocity": 55
        },
        {
            "deltaTime": 0,
            "channel": 0,
            "type": "noteOn",
            "noteNumber": 56,
            "velocity": 39
        },
        {
            "deltaTime": 0,
            "channel": 0,
            "type": "noteOn",
            "noteNumber": 92,
            "velocity": 75
        },
        {
            "deltaTime": 0,
            "channel": 0,
            "type": "noteOn",
            "noteNumber": 87,
            "velocity": 65
        },
        {
            "deltaTime": 4,
            "channel": 0,
            "type": "noteOff",
            "noteNumber": 75,
            "velocity": 0
        },
        {
            "deltaTime": 0,
            "channel": 0,
            "type": "noteOff",
            "noteNumber": 81,
            "velocity": 0
        },
        {
            "deltaTime": 547,
            "channel": 0,
            "type": "noteOff",
            "noteNumber": 92,
            "velocity": 0
        },
        {
            "deltaTime": 0,
            "channel": 0,
            "type": "noteOff",
            "noteNumber": 87,
            "velocity": 0
        },
        {
            "deltaTime": 23,
            "channel": 0,
            "type": "noteOff",
            "noteNumber": 63,
            "velocity": 0
        },
        {
            "deltaTime": 0,
            "channel": 0,
            "type": "noteOff",
            "noteNumber": 72,
            "velocity": 0
        },
        {
            "deltaTime": 0,
            "channel": 0,
            "type": "noteOff",
            "noteNumber": 56,
            "velocity": 0
        },
        {
            "deltaTime": 7,
            "channel": 0,
            "type": "noteOn",
            "noteNumber": 81,
            "velocity": 43
        },
        {
            "deltaTime": 0,
            "channel": 0,
            "type": "noteOn",
            "noteNumber": 85,
            "velocity": 42
        },
        {
            "deltaTime": 0,
            "channel": 0,
            "type": "noteOn",
            "noteNumber": 69,
            "velocity": 42
        },
        {
            "deltaTime": 0,
            "channel": 0,
            "type": "noteOn",
            "noteNumber": 60,
            "velocity": 42
        },
        {
            "deltaTime": 2,
            "channel": 0,
            "type": "noteOff",
            "noteNumber": 78,
            "velocity": 0
        },
        {
            "deltaTime": 568,
            "channel": 0,
            "type": "noteOn",
            "noteNumber": 80,
            "velocity": 64
        },
        {
            "deltaTime": 0,
            "channel": 0,
            "type": "noteOn",
            "noteNumber": 78,
            "velocity": 52
        },
        {
            "deltaTime": 0,
            "channel": 0,
            "type": "noteOn",
            "noteNumber": 87,
            "velocity": 87
        },
        {
            "deltaTime": 0,
            "channel": 0,
            "type": "noteOn",
            "noteNumber": 63,
            "velocity": 38
        },
        {
            "deltaTime": 0,
            "channel": 0,
            "type": "noteOn",
            "noteNumber": 72,
            "velocity": 38
        },
        {
            "deltaTime": 4,
            "channel": 0,
            "type": "noteOff",
            "noteNumber": 69,
            "velocity": 0
        },
        {
            "deltaTime": 0,
            "channel": 0,
            "type": "noteOff",
            "noteNumber": 85,
            "velocity": 0
        },
        {
            "deltaTime": 0,
            "channel": 0,
            "type": "noteOff",
            "noteNumber": 60,
            "velocity": 0
        },
        {
            "deltaTime": 9,
            "channel": 0,
            "type": "noteOff",
            "noteNumber": 81,
            "velocity": 0
        },
        {
            "deltaTime": 223,
            "channel": 0,
            "type": "noteOff",
            "noteNumber": 72,
            "velocity": 0
        },
        {
            "deltaTime": 0,
            "channel": 0,
            "type": "noteOff",
            "noteNumber": 87,
            "velocity": 0
        },
        {
            "deltaTime": 0,
            "channel": 0,
            "type": "noteOff",
            "noteNumber": 78,
            "velocity": 0
        },
        {
            "deltaTime": 0,
            "channel": 0,
            "type": "noteOff",
            "noteNumber": 80,
            "velocity": 0
        },
        {
            "deltaTime": 0,
            "channel": 0,
            "type": "noteOff",
            "noteNumber": 63,
            "velocity": 0
        },
        {
            "deltaTime": 333,
            "channel": 0,
            "type": "noteOn",
            "noteNumber": 66,
            "velocity": 54
        },
        {
            "deltaTime": 0,
            "channel": 0,
            "type": "noteOn",
            "noteNumber": 69,
            "velocity": 38
        },
        {
            "deltaTime": 184,
            "channel": 0,
            "type": "noteOff",
            "noteNumber": 66,
            "velocity": 0
        },
        {
            "deltaTime": 0,
            "channel": 0,
            "type": "noteOff",
            "noteNumber": 69,
            "velocity": 0
        },
        {
            "deltaTime": 106,
            "channel": 0,
            "type": "noteOn",
            "noteNumber": 61,
            "velocity": 71
        },
        {
            "deltaTime": 0,
            "channel": 0,
            "type": "noteOn",
            "noteNumber": 82,
            "velocity": 71
        },
        {
            "deltaTime": 143,
            "channel": 0,
            "type": "noteOff",
            "noteNumber": 61,
            "velocity": 0
        },
        {
            "deltaTime": 0,
            "channel": 0,
            "type": "noteOff",
            "noteNumber": 82,
            "velocity": 0
        },
        {
            "deltaTime": 1,
            "channel": 0,
            "type": "noteOn",
            "noteNumber": 63,
            "velocity": 67
        },
        {
            "deltaTime": 0,
            "channel": 0,
            "type": "noteOn",
            "noteNumber": 84,
            "velocity": 71
        },
        {
            "deltaTime": 143,
            "channel": 0,
            "type": "noteOff",
            "noteNumber": 84,
            "velocity": 0
        },
        {
            "deltaTime": 0,
            "channel": 0,
            "type": "noteOff",
            "noteNumber": 63,
            "velocity": 0
        },
        {
            "deltaTime": 1,
            "channel": 0,
            "type": "noteOn",
            "noteNumber": 85,
            "velocity": 59
        },
        {
            "deltaTime": 0,
            "channel": 0,
            "type": "noteOn",
            "noteNumber": 37,
            "velocity": 50
        },
        {
            "deltaTime": 0,
            "channel": 0,
            "type": "noteOn",
            "noteNumber": 49,
            "velocity": 50
        },
        {
            "deltaTime": 0,
            "channel": 0,
            "type": "noteOn",
            "noteNumber": 65,
            "velocity": 74
        },
        {
            "deltaTime": 0,
            "channel": 0,
            "type": "noteOn",
            "noteNumber": 75,
            "velocity": 73
        },
        {
            "deltaTime": 571,
            "channel": 0,
            "type": "noteOn",
            "noteNumber": 72,
            "velocity": 72
        },
        {
            "deltaTime": 0,
            "channel": 0,
            "type": "noteOn",
            "noteNumber": 68,
            "velocity": 51
        },
        {
            "deltaTime": 0,
            "channel": 0,
            "type": "noteOn",
            "noteNumber": 84,
            "velocity": 72
        },
        {
            "deltaTime": 0,
            "channel": 0,
            "type": "noteOn",
            "noteNumber": 77,
            "velocity": 78
        },
        {
            "deltaTime": 0,
            "channel": 0,
            "type": "noteOn",
            "noteNumber": 56,
            "velocity": 77
        },
        {
            "deltaTime": 4,
            "channel": 0,
            "type": "noteOff",
            "noteNumber": 37,
            "velocity": 0
        },
        {
            "deltaTime": 0,
            "channel": 0,
            "type": "noteOff",
            "noteNumber": 75,
            "velocity": 0
        },
        {
            "deltaTime": 0,
            "channel": 0,
            "type": "noteOff",
            "noteNumber": 85,
            "velocity": 0
        },
        {
            "deltaTime": 0,
            "channel": 0,
            "type": "noteOff",
            "noteNumber": 49,
            "velocity": 0
        },
        {
            "deltaTime": 9,
            "channel": 0,
            "type": "noteOff",
            "noteNumber": 65,
            "velocity": 0
        },
        {
            "deltaTime": 561,
            "channel": 0,
            "type": "noteOff",
            "noteNumber": 68,
            "velocity": 0
        },
        {
            "deltaTime": 0,
            "channel": 0,
            "type": "noteOff",
            "noteNumber": 72,
            "velocity": 0
        },
        {
            "deltaTime": 0,
            "channel": 0,
            "type": "noteOff",
            "noteNumber": 56,
            "velocity": 0
        },
        {
            "deltaTime": 0,
            "channel": 0,
            "type": "noteOff",
            "noteNumber": 84,
            "velocity": 0
        },
        {
            "deltaTime": 0,
            "channel": 0,
            "type": "noteOff",
            "noteNumber": 77,
            "velocity": 0
        },
        {
            "deltaTime": 7,
            "channel": 0,
            "type": "noteOn",
            "noteNumber": 65,
            "velocity": 90
        },
        {
            "deltaTime": 0,
            "channel": 0,
            "type": "noteOn",
            "noteNumber": 73,
            "velocity": 85
        },
        {
            "deltaTime": 0,
            "channel": 0,
            "type": "noteOn",
            "noteNumber": 44,
            "velocity": 81
        },
        {
            "deltaTime": 0,
            "channel": 0,
            "type": "noteOn",
            "noteNumber": 80,
            "velocity": 76
        },
        {
            "deltaTime": 0,
            "channel": 0,
            "type": "noteOn",
            "noteNumber": 61,
            "velocity": 84
        },
        {
            "deltaTime": 60,
            "channel": 0,
            "type": "noteOn",
            "noteNumber": 85,
            "velocity": 70
        },
        {
            "deltaTime": 422,
            "channel": 0,
            "type": "noteOff",
            "noteNumber": 85,
            "velocity": 0
        },
        {
            "deltaTime": 16,
            "channel": 0,
            "type": "noteOff",
            "noteNumber": 80,
            "velocity": 0
        },
        {
            "deltaTime": 0,
            "channel": 0,
            "type": "noteOff",
            "noteNumber": 61,
            "velocity": 0
        },
        {
            "deltaTime": 0,
            "channel": 0,
            "type": "noteOff",
            "noteNumber": 44,
            "velocity": 0
        },
        {
            "deltaTime": 0,
            "channel": 0,
            "type": "noteOff",
            "noteNumber": 73,
            "velocity": 0
        },
        {
            "deltaTime": 0,
            "channel": 0,
            "type": "noteOff",
            "noteNumber": 65,
            "velocity": 0
        },
        {
            "deltaTime": 71,
            "channel": 0,
            "type": "noteOn",
            "noteNumber": 72,
            "velocity": 78
        },
        {
            "deltaTime": 0,
            "channel": 0,
            "type": "noteOn",
            "noteNumber": 80,
            "velocity": 92
        },
        {
            "deltaTime": 0,
            "channel": 0,
            "type": "noteOn",
            "noteNumber": 68,
            "velocity": 97
        },
        {
            "deltaTime": 287,
            "channel": 0,
            "type": "noteOff",
            "noteNumber": 80,
            "velocity": 0
        },
        {
            "deltaTime": 0,
            "channel": 0,
            "type": "noteOff",
            "noteNumber": 72,
            "velocity": 0
        },
        {
            "deltaTime": 0,
            "channel": 0,
            "type": "noteOff",
            "noteNumber": 68,
            "velocity": 0
        },
        {
            "deltaTime": 3,
            "channel": 0,
            "type": "noteOn",
            "noteNumber": 71,
            "velocity": 80
        },
        {
            "deltaTime": 0,
            "channel": 0,
            "type": "noteOn",
            "noteNumber": 78,
            "velocity": 75
        },
        {
            "deltaTime": 279,
            "channel": 0,
            "type": "noteOn",
            "noteNumber": 72,
            "velocity": 102
        },
        {
            "deltaTime": 0,
            "channel": 0,
            "type": "noteOn",
            "noteNumber": 66,
            "velocity": 102
        },
        {
            "deltaTime": 0,
            "channel": 0,
            "type": "noteOn",
            "noteNumber": 50,
            "velocity": 100
        },
        {
            "deltaTime": 0,
            "channel": 0,
            "type": "noteOn",
            "noteNumber": 76,
            "velocity": 106
        },
        {
            "deltaTime": 0,
            "channel": 0,
            "type": "noteOn",
            "noteNumber": 81,
            "velocity": 101
        },
        {
            "deltaTime": 0,
            "channel": 0,
            "type": "noteOn",
            "noteNumber": 38,
            "velocity": 100
        },
        {
            "deltaTime": 8,
            "channel": 0,
            "type": "noteOff",
            "noteNumber": 78,
            "velocity": 0
        },
        {
            "deltaTime": 0,
            "channel": 0,
            "type": "noteOff",
            "noteNumber": 71,
            "velocity": 0
        },
        {
            "deltaTime": 567,
            "channel": 0,
            "type": "noteOff",
            "noteNumber": 72,
            "velocity": 0
        },
        {
            "deltaTime": 0,
            "channel": 0,
            "type": "noteOff",
            "noteNumber": 38,
            "velocity": 0
        },
        {
            "deltaTime": 0,
            "channel": 0,
            "type": "noteOff",
            "noteNumber": 81,
            "velocity": 0
        },
        {
            "deltaTime": 0,
            "channel": 0,
            "type": "noteOff",
            "noteNumber": 50,
            "velocity": 0
        },
        {
            "deltaTime": 0,
            "channel": 0,
            "type": "noteOff",
            "noteNumber": 76,
            "velocity": 0
        },
        {
            "deltaTime": 0,
            "channel": 0,
            "type": "noteOff",
            "noteNumber": 66,
            "velocity": 0
        },
        {
            "deltaTime": 7,
            "channel": 0,
            "type": "noteOn",
            "noteNumber": 69,
            "velocity": 104
        },
        {
            "deltaTime": 0,
            "channel": 0,
            "type": "noteOn",
            "noteNumber": 78,
            "velocity": 97
        },
        {
            "deltaTime": 0,
            "channel": 0,
            "type": "noteOn",
            "noteNumber": 60,
            "velocity": 87
        },
        {
            "deltaTime": 571,
            "channel": 0,
            "type": "noteOn",
            "noteNumber": 66,
            "velocity": 116
        },
        {
            "deltaTime": 0,
            "channel": 0,
            "type": "noteOn",
            "noteNumber": 57,
            "velocity": 115
        },
        {
            "deltaTime": 0,
            "channel": 0,
            "type": "noteOn",
            "noteNumber": 81,
            "velocity": 116
        },
        {
            "deltaTime": 0,
            "channel": 0,
            "type": "noteOn",
            "noteNumber": 73,
            "velocity": 89
        },
        {
            "deltaTime": 0,
            "channel": 0,
            "type": "noteOn",
            "noteNumber": 45,
            "velocity": 80
        },
        {
            "deltaTime": 4,
            "channel": 0,
            "type": "noteOff",
            "noteNumber": 60,
            "velocity": 0
        },
        {
            "deltaTime": 0,
            "channel": 0,
            "type": "noteOff",
            "noteNumber": 69,
            "velocity": 0
        },
        {
            "deltaTime": 0,
            "channel": 0,
            "type": "noteOff",
            "noteNumber": 78,
            "velocity": 0
        },
        {
            "deltaTime": 283,
            "channel": 0,
            "type": "noteOff",
            "noteNumber": 57,
            "velocity": 0
        },
        {
            "deltaTime": 0,
            "channel": 0,
            "type": "noteOff",
            "noteNumber": 73,
            "velocity": 0
        },
        {
            "deltaTime": 0,
            "channel": 0,
            "type": "noteOff",
            "noteNumber": 66,
            "velocity": 0
        },
        {
            "deltaTime": 0,
            "channel": 0,
            "type": "noteOff",
            "noteNumber": 45,
            "velocity": 0
        },
        {
            "deltaTime": 0,
            "channel": 0,
            "type": "noteOff",
            "noteNumber": 81,
            "velocity": 0
        },
        {
            "deltaTime": 295,
            "channel": 0,
            "type": "noteOn",
            "noteNumber": 78,
            "velocity": 75
        },
        {
            "deltaTime": 279,
            "channel": 0,
            "type": "noteOn",
            "noteNumber": 79,
            "velocity": 91
        },
        {
            "deltaTime": 8,
            "channel": 0,
            "type": "noteOff",
            "noteNumber": 78,
            "velocity": 0
        },
        {
            "deltaTime": 279,
            "channel": 0,
            "type": "noteOff",
            "noteNumber": 79,
            "velocity": 0
        },
        {
            "deltaTime": 3,
            "channel": 0,
            "type": "noteOn",
            "noteNumber": 75,
            "velocity": 106
        },
        {
            "deltaTime": 0,
            "channel": 0,
            "type": "noteOn",
            "noteNumber": 49,
            "velocity": 106
        },
        {
            "deltaTime": 0,
            "channel": 0,
            "type": "noteOn",
            "noteNumber": 80,
            "velocity": 100
        },
        {
            "deltaTime": 0,
            "channel": 0,
            "type": "noteOn",
            "noteNumber": 92,
            "velocity": 100
        },
        {
            "deltaTime": 0,
            "channel": 0,
            "type": "noteOn",
            "noteNumber": 37,
            "velocity": 106
        },
        {
            "deltaTime": 0,
            "channel": 0,
            "type": "noteOn",
            "noteNumber": 87,
            "velocity": 100
        },
        {
            "deltaTime": 287,
            "channel": 0,
            "type": "noteOff",
            "noteNumber": 80,
            "velocity": 0
        },
        {
            "deltaTime": 0,
            "channel": 0,
            "type": "noteOff",
            "noteNumber": 87,
            "velocity": 0
        },
        {
            "deltaTime": 0,
            "channel": 0,
            "type": "noteOff",
            "noteNumber": 37,
            "velocity": 0
        },
        {
            "deltaTime": 0,
            "channel": 0,
            "type": "noteOff",
            "noteNumber": 92,
            "velocity": 0
        },
        {
            "deltaTime": 0,
            "channel": 0,
            "type": "noteOff",
            "noteNumber": 49,
            "velocity": 0
        },
        {
            "deltaTime": 0,
            "channel": 0,
            "type": "noteOff",
            "noteNumber": 75,
            "velocity": 0
        },
        {
            "deltaTime": 283,
            "channel": 0,
            "type": "noteOn",
            "noteNumber": 92,
            "velocity": 61
        },
        {
            "deltaTime": 0,
            "channel": 0,
            "type": "noteOn",
            "noteNumber": 80,
            "velocity": 87
        },
        {
            "deltaTime": 0,
            "channel": 0,
            "type": "noteOn",
            "noteNumber": 68,
            "velocity": 70
        },
        {
            "deltaTime": 0,
            "channel": 0,
            "type": "noteOn",
            "noteNumber": 64,
            "velocity": 70
        },
        {
            "deltaTime": 0,
            "channel": 0,
            "type": "noteOn",
            "noteNumber": 63,
            "velocity": 70
        },
        {
            "deltaTime": 194,
            "channel": 0,
            "type": "noteOff",
            "noteNumber": 63,
            "velocity": 0
        },
        {
            "deltaTime": 0,
            "channel": 0,
            "type": "noteOff",
            "noteNumber": 64,
            "velocity": 0
        },
        {
            "deltaTime": 0,
            "channel": 0,
            "type": "noteOff",
            "noteNumber": 68,
            "velocity": 0
        },
        {
            "deltaTime": 93,
            "channel": 0,
            "type": "noteOff",
            "noteNumber": 80,
            "velocity": 0
        },
        {
            "deltaTime": 0,
            "channel": 0,
            "type": "noteOff",
            "noteNumber": 92,
            "velocity": 0
        },
        {
            "deltaTime": 3,
            "channel": 0,
            "type": "noteOn",
            "noteNumber": 91,
            "velocity": 55
        },
        {
            "deltaTime": 0,
            "channel": 0,
            "type": "noteOn",
            "noteNumber": 79,
            "velocity": 71
        },
        {
            "deltaTime": 0,
            "channel": 0,
            "type": "noteOn",
            "noteNumber": 68,
            "velocity": 70
        },
        {
            "deltaTime": 0,
            "channel": 0,
            "type": "noteOn",
            "noteNumber": 63,
            "velocity": 70
        },
        {
            "deltaTime": 0,
            "channel": 0,
            "type": "noteOn",
            "noteNumber": 64,
            "velocity": 70
        },
        {
            "deltaTime": 194,
            "channel": 0,
            "type": "noteOff",
            "noteNumber": 68,
            "velocity": 0
        },
        {
            "deltaTime": 0,
            "channel": 0,
            "type": "noteOff",
            "noteNumber": 63,
            "velocity": 0
        },
        {
            "deltaTime": 0,
            "channel": 0,
            "type": "noteOff",
            "noteNumber": 64,
            "velocity": 0
        },
        {
            "deltaTime": 93,
            "channel": 0,
            "type": "noteOff",
            "noteNumber": 79,
            "velocity": 0
        },
        {
            "deltaTime": 0,
            "channel": 0,
            "type": "noteOff",
            "noteNumber": 91,
            "velocity": 0
        },
        {
            "deltaTime": 3,
            "channel": 0,
            "type": "noteOn",
            "noteNumber": 39,
            "velocity": 62
        },
        {
            "deltaTime": 0,
            "channel": 0,
            "type": "noteOn",
            "noteNumber": 51,
            "velocity": 78
        },
        {
            "deltaTime": 0,
            "channel": 0,
            "type": "noteOn",
            "noteNumber": 80,
            "velocity": 102
        },
        {
            "deltaTime": 0,
            "channel": 0,
            "type": "noteOn",
            "noteNumber": 92,
            "velocity": 53
        },
        {
            "deltaTime": 0,
            "channel": 0,
            "type": "noteOn",
            "noteNumber": 87,
            "velocity": 77
        },
        {
            "deltaTime": 287,
            "channel": 0,
            "type": "noteOff",
            "noteNumber": 87,
            "velocity": 0
        },
        {
            "deltaTime": 0,
            "channel": 0,
            "type": "noteOff",
            "noteNumber": 92,
            "velocity": 0
        },
        {
            "deltaTime": 0,
            "channel": 0,
            "type": "noteOff",
            "noteNumber": 80,
            "velocity": 0
        },
        {
            "deltaTime": 129,
            "channel": 0,
            "type": "noteOff",
            "noteNumber": 39,
            "velocity": 0
        },
        {
            "deltaTime": 9,
            "channel": 0,
            "type": "noteOff",
            "noteNumber": 51,
            "velocity": 0
        },
        {
            "deltaTime": 143,
            "channel": 0,
            "type": "noteOn",
            "noteNumber": 93,
            "velocity": 83
        },
        {
            "deltaTime": 0,
            "channel": 0,
            "type": "noteOn",
            "noteNumber": 81,
            "velocity": 78
        },
        {
            "deltaTime": 0,
            "channel": 0,
            "type": "noteOn",
            "noteNumber": 68,
            "velocity": 52
        },
        {
            "deltaTime": 0,
            "channel": 0,
            "type": "noteOn",
            "noteNumber": 64,
            "velocity": 52
        },
        {
            "deltaTime": 0,
            "channel": 0,
            "type": "noteOn",
            "noteNumber": 63,
            "velocity": 52
        },
        {
            "deltaTime": 187,
            "channel": 0,
            "type": "noteOff",
            "noteNumber": 63,
            "velocity": 0
        },
        {
            "deltaTime": 0,
            "channel": 0,
            "type": "noteOff",
            "noteNumber": 64,
            "velocity": 0
        },
        {
            "deltaTime": 0,
            "channel": 0,
            "type": "noteOff",
            "noteNumber": 68,
            "velocity": 0
        },
        {
            "deltaTime": 100,
            "channel": 0,
            "type": "noteOff",
            "noteNumber": 81,
            "velocity": 0
        },
        {
            "deltaTime": 0,
            "channel": 0,
            "type": "noteOff",
            "noteNumber": 93,
            "velocity": 0
        },
        {
            "deltaTime": 3,
            "channel": 0,
            "type": "noteOn",
            "noteNumber": 79,
            "velocity": 82
        },
        {
            "deltaTime": 0,
            "channel": 0,
            "type": "noteOn",
            "noteNumber": 91,
            "velocity": 82
        },
        {
            "deltaTime": 0,
            "channel": 0,
            "type": "noteOn",
            "noteNumber": 68,
            "velocity": 52
        },
        {
            "deltaTime": 0,
            "channel": 0,
            "type": "noteOn",
            "noteNumber": 63,
            "velocity": 52
        },
        {
            "deltaTime": 0,
            "channel": 0,
            "type": "noteOn",
            "noteNumber": 64,
            "velocity": 52
        },
        {
            "deltaTime": 187,
            "channel": 0,
            "type": "noteOff",
            "noteNumber": 64,
            "velocity": 0
        },
        {
            "deltaTime": 0,
            "channel": 0,
            "type": "noteOff",
            "noteNumber": 63,
            "velocity": 0
        },
        {
            "deltaTime": 0,
            "channel": 0,
            "type": "noteOff",
            "noteNumber": 68,
            "velocity": 0
        },
        {
            "deltaTime": 100,
            "channel": 0,
            "type": "noteOff",
            "noteNumber": 91,
            "velocity": 0
        },
        {
            "deltaTime": 0,
            "channel": 0,
            "type": "noteOff",
            "noteNumber": 79,
            "velocity": 0
        },
        {
            "deltaTime": 3,
            "channel": 0,
            "type": "noteOn",
            "noteNumber": 40,
            "velocity": 55
        },
        {
            "deltaTime": 0,
            "channel": 0,
            "type": "noteOn",
            "noteNumber": 52,
            "velocity": 58
        },
        {
            "deltaTime": 0,
            "channel": 0,
            "type": "noteOn",
            "noteNumber": 80,
            "velocity": 94
        },
        {
            "deltaTime": 0,
            "channel": 0,
            "type": "noteOn",
            "noteNumber": 88,
            "velocity": 84
        },
        {
            "deltaTime": 0,
            "channel": 0,
            "type": "noteOn",
            "noteNumber": 92,
            "velocity": 94
        },
        {
            "deltaTime": 302,
            "channel": 0,
            "type": "noteOff",
            "noteNumber": 92,
            "velocity": 0
        },
        {
            "deltaTime": 0,
            "channel": 0,
            "type": "noteOff",
            "noteNumber": 88,
            "velocity": 0
        },
        {
            "deltaTime": 0,
            "channel": 0,
            "type": "noteOff",
            "noteNumber": 80,
            "velocity": 0
        },
        {
            "deltaTime": 151,
            "channel": 0,
            "type": "noteOff",
            "noteNumber": 52,
            "velocity": 0
        },
        {
            "deltaTime": 31,
            "channel": 0,
            "type": "noteOff",
            "noteNumber": 40,
            "velocity": 0
        },
        {
            "deltaTime": 86,
            "channel": 0,
            "type": "noteOn",
            "noteNumber": 80,
            "velocity": 97
        },
        {
            "deltaTime": 0,
            "channel": 0,
            "type": "noteOn",
            "noteNumber": 92,
            "velocity": 97
        },
        {
            "deltaTime": 0,
            "channel": 0,
            "type": "noteOn",
            "noteNumber": 68,
            "velocity": 75
        },
        {
            "deltaTime": 0,
            "channel": 0,
            "type": "noteOn",
            "noteNumber": 63,
            "velocity": 75
        },
        {
            "deltaTime": 0,
            "channel": 0,
            "type": "noteOn",
            "noteNumber": 64,
            "velocity": 75
        },
        {
            "deltaTime": 189,
            "channel": 0,
            "type": "noteOff",
            "noteNumber": 68,
            "velocity": 0
        },
        {
            "deltaTime": 0,
            "channel": 0,
            "type": "noteOff",
            "noteNumber": 63,
            "velocity": 0
        },
        {
            "deltaTime": 0,
            "channel": 0,
            "type": "noteOff",
            "noteNumber": 64,
            "velocity": 0
        },
        {
            "deltaTime": 98,
            "channel": 0,
            "type": "noteOff",
            "noteNumber": 80,
            "velocity": 0
        },
        {
            "deltaTime": 0,
            "channel": 0,
            "type": "noteOff",
            "noteNumber": 92,
            "velocity": 0
        },
        {
            "deltaTime": 3,
            "channel": 0,
            "type": "noteOn",
            "noteNumber": 79,
            "velocity": 111
        },
        {
            "deltaTime": 0,
            "channel": 0,
            "type": "noteOn",
            "noteNumber": 68,
            "velocity": 78
        },
        {
            "deltaTime": 0,
            "channel": 0,
            "type": "noteOn",
            "noteNumber": 63,
            "velocity": 78
        },
        {
            "deltaTime": 0,
            "channel": 0,
            "type": "noteOn",
            "noteNumber": 64,
            "velocity": 78
        },
        {
            "deltaTime": 0,
            "channel": 0,
            "type": "noteOn",
            "noteNumber": 91,
            "velocity": 111
        },
        {
            "deltaTime": 189,
            "channel": 0,
            "type": "noteOff",
            "noteNumber": 68,
            "velocity": 0
        },
        {
            "deltaTime": 0,
            "channel": 0,
            "type": "noteOff",
            "noteNumber": 63,
            "velocity": 0
        },
        {
            "deltaTime": 0,
            "channel": 0,
            "type": "noteOff",
            "noteNumber": 64,
            "velocity": 0
        },
        {
            "deltaTime": 98,
            "channel": 0,
            "type": "noteOff",
            "noteNumber": 79,
            "velocity": 0
        },
        {
            "deltaTime": 0,
            "channel": 0,
            "type": "noteOff",
            "noteNumber": 91,
            "velocity": 0
        },
        {
            "deltaTime": 3,
            "channel": 0,
            "type": "noteOn",
            "noteNumber": 92,
            "velocity": 109
        },
        {
            "deltaTime": 0,
            "channel": 0,
            "type": "noteOn",
            "noteNumber": 49,
            "velocity": 76
        },
        {
            "deltaTime": 0,
            "channel": 0,
            "type": "noteOn",
            "noteNumber": 80,
            "velocity": 109
        },
        {
            "deltaTime": 0,
            "channel": 0,
            "type": "noteOn",
            "noteNumber": 37,
            "velocity": 76
        },
        {
            "deltaTime": 279,
            "channel": 0,
            "type": "noteOn",
            "noteNumber": 85,
            "velocity": 93
        },
        {
            "deltaTime": 8,
            "channel": 0,
            "type": "noteOff",
            "noteNumber": 37,
            "velocity": 0
        },
        {
            "deltaTime": 0,
            "channel": 0,
            "type": "noteOff",
            "noteNumber": 92,
            "velocity": 0
        },
        {
            "deltaTime": 0,
            "channel": 0,
            "type": "noteOff",
            "noteNumber": 80,
            "velocity": 0
        },
        {
            "deltaTime": 0,
            "channel": 0,
            "type": "noteOff",
            "noteNumber": 49,
            "velocity": 0
        },
        {
            "deltaTime": 279,
            "channel": 0,
            "type": "noteOff",
            "noteNumber": 85,
            "velocity": 0
        },
        {
            "deltaTime": 3,
            "channel": 0,
            "type": "noteOn",
            "noteNumber": 88,
            "velocity": 90
        },
        {
            "deltaTime": 0,
            "channel": 0,
            "type": "noteOn",
            "noteNumber": 66,
            "velocity": 78
        },
        {
            "deltaTime": 0,
            "channel": 0,
            "type": "noteOn",
            "noteNumber": 73,
            "velocity": 78
        },
        {
            "deltaTime": 0,
            "channel": 0,
            "type": "noteOn",
            "noteNumber": 64,
            "velocity": 78
        },
        {
            "deltaTime": 189,
            "channel": 0,
            "type": "noteOff",
            "noteNumber": 64,
            "velocity": 0
        },
        {
            "deltaTime": 0,
            "channel": 0,
            "type": "noteOff",
            "noteNumber": 73,
            "velocity": 0
        },
        {
            "deltaTime": 0,
            "channel": 0,
            "type": "noteOff",
            "noteNumber": 66,
            "velocity": 0
        },
        {
            "deltaTime": 98,
            "channel": 0,
            "type": "noteOff",
            "noteNumber": 88,
            "velocity": 0
        },
        {
            "deltaTime": 3,
            "channel": 0,
            "type": "noteOn",
            "noteNumber": 66,
            "velocity": 98
        },
        {
            "deltaTime": 0,
            "channel": 0,
            "type": "noteOn",
            "noteNumber": 73,
            "velocity": 98
        },
        {
            "deltaTime": 0,
            "channel": 0,
            "type": "noteOn",
            "noteNumber": 64,
            "velocity": 98
        },
        {
            "deltaTime": 0,
            "channel": 0,
            "type": "noteOn",
            "noteNumber": 92,
            "velocity": 78
        },
        {
            "deltaTime": 279,
            "channel": 0,
            "type": "noteOn",
            "noteNumber": 45,
            "velocity": 87
        },
        {
            "deltaTime": 0,
            "channel": 0,
            "type": "noteOn",
            "noteNumber": 33,
            "velocity": 80
        },
        {
            "deltaTime": 0,
            "channel": 0,
            "type": "noteOn",
            "noteNumber": 93,
            "velocity": 113
        },
        {
            "deltaTime": 8,
            "channel": 0,
            "type": "noteOff",
            "noteNumber": 92,
            "velocity": 0
        },
        {
            "deltaTime": 0,
            "channel": 0,
            "type": "noteOff",
            "noteNumber": 66,
            "velocity": 0
        },
        {
            "deltaTime": 0,
            "channel": 0,
            "type": "noteOff",
            "noteNumber": 73,
            "velocity": 0
        },
        {
            "deltaTime": 0,
            "channel": 0,
            "type": "noteOff",
            "noteNumber": 64,
            "velocity": 0
        },
        {
            "deltaTime": 279,
            "channel": 0,
            "type": "noteOff",
            "noteNumber": 93,
            "velocity": 0
        },
        {
            "deltaTime": 3,
            "channel": 0,
            "type": "noteOn",
            "noteNumber": 92,
            "velocity": 101
        },
        {
            "deltaTime": 284,
            "channel": 0,
            "type": "noteOff",
            "noteNumber": 33,
            "velocity": 0
        },
        {
            "deltaTime": 0,
            "channel": 0,
            "type": "noteOff",
            "noteNumber": 45,
            "velocity": 0
        },
        {
            "deltaTime": 3,
            "channel": 0,
            "type": "noteOff",
            "noteNumber": 92,
            "velocity": 0
        },
        {
            "deltaTime": 3,
            "channel": 0,
            "type": "noteOn",
            "noteNumber": 93,
            "velocity": 78
        },
        {
            "deltaTime": 0,
            "channel": 0,
            "type": "noteOn",
            "noteNumber": 52,
            "velocity": 93
        },
        {
            "deltaTime": 279,
            "channel": 0,
            "type": "noteOn",
            "noteNumber": 59,
            "velocity": 96
        },
        {
            "deltaTime": 0,
            "channel": 0,
            "type": "noteOn",
            "noteNumber": 92,
            "velocity": 109
        },
        {
            "deltaTime": 8,
            "channel": 0,
            "type": "noteOff",
            "noteNumber": 52,
            "velocity": 0
        },
        {
            "deltaTime": 0,
            "channel": 0,
            "type": "noteOff",
            "noteNumber": 93,
            "velocity": 0
        },
        {
            "deltaTime": 279,
            "channel": 0,
            "type": "noteOff",
            "noteNumber": 92,
            "velocity": 0
        },
        {
            "deltaTime": 0,
            "channel": 0,
            "type": "noteOff",
            "noteNumber": 59,
            "velocity": 0
        },
        {
            "deltaTime": 3,
            "channel": 0,
            "type": "noteOn",
            "noteNumber": 93,
            "velocity": 88
        },
        {
            "deltaTime": 0,
            "channel": 0,
            "type": "noteOn",
            "noteNumber": 90,
            "velocity": 99
        },
        {
            "deltaTime": 0,
            "channel": 0,
            "type": "noteOn",
            "noteNumber": 61,
            "velocity": 102
        },
        {
            "deltaTime": 287,
            "channel": 0,
            "type": "noteOff",
            "noteNumber": 93,
            "velocity": 0
        },
        {
            "deltaTime": 0,
            "channel": 0,
            "type": "noteOff",
            "noteNumber": 90,
            "velocity": 0
        },
        {
            "deltaTime": 0,
            "channel": 0,
            "type": "noteOff",
            "noteNumber": 61,
            "velocity": 0
        },
        {
            "deltaTime": 3,
            "channel": 0,
            "type": "noteOn",
            "noteNumber": 64,
            "velocity": 104
        },
        {
            "deltaTime": 0,
            "channel": 0,
            "type": "noteOn",
            "noteNumber": 91,
            "velocity": 119
        },
        {
            "deltaTime": 287,
            "channel": 0,
            "type": "noteOff",
            "noteNumber": 91,
            "velocity": 0
        },
        {
            "deltaTime": 0,
            "channel": 0,
            "type": "noteOff",
            "noteNumber": 64,
            "velocity": 0
        },
        {
            "deltaTime": 3,
            "channel": 0,
            "type": "noteOn",
            "noteNumber": 87,
            "velocity": 109
        },
        {
            "deltaTime": 0,
            "channel": 0,
            "type": "noteOn",
            "noteNumber": 73,
            "velocity": 98
        },
        {
            "deltaTime": 0,
            "channel": 0,
            "type": "noteOn",
            "noteNumber": 78,
            "velocity": 111
        },
        {
            "deltaTime": 0,
            "channel": 0,
            "type": "noteOn",
            "noteNumber": 93,
            "velocity": 109
        },
        {
            "deltaTime": 279,
            "channel": 0,
            "type": "noteOn",
            "noteNumber": 75,
            "velocity": 105
        },
        {
            "deltaTime": 0,
            "channel": 0,
            "type": "noteOn",
            "noteNumber": 81,
            "velocity": 106
        },
        {
            "deltaTime": 0,
            "channel": 0,
            "type": "noteOn",
            "noteNumber": 90,
            "velocity": 126
        },
        {
            "deltaTime": 8,
            "channel": 0,
            "type": "noteOff",
            "noteNumber": 73,
            "velocity": 0
        },
        {
            "deltaTime": 0,
            "channel": 0,
            "type": "noteOff",
            "noteNumber": 93,
            "velocity": 0
        },
        {
            "deltaTime": 0,
            "channel": 0,
            "type": "noteOff",
            "noteNumber": 87,
            "velocity": 0
        },
        {
            "deltaTime": 0,
            "channel": 0,
            "type": "noteOff",
            "noteNumber": 78,
            "velocity": 0
        },
        {
            "deltaTime": 279,
            "channel": 0,
            "type": "noteOff",
            "noteNumber": 75,
            "velocity": 0
        },
        {
            "deltaTime": 0,
            "channel": 0,
            "type": "noteOff",
            "noteNumber": 81,
            "velocity": 0
        },
        {
            "deltaTime": 0,
            "channel": 0,
            "type": "noteOff",
            "noteNumber": 90,
            "velocity": 0
        },
        {
            "deltaTime": 3,
            "channel": 0,
            "type": "noteOn",
            "noteNumber": 32,
            "velocity": 121
        },
        {
            "deltaTime": 0,
            "channel": 0,
            "type": "noteOn",
            "noteNumber": 80,
            "velocity": 107
        },
        {
            "deltaTime": 0,
            "channel": 0,
            "type": "noteOn",
            "noteNumber": 92,
            "velocity": 123
        },
        {
            "deltaTime": 0,
            "channel": 0,
            "type": "noteOn",
            "noteNumber": 44,
            "velocity": 121
        },
        {
            "deltaTime": 287,
            "channel": 0,
            "type": "noteOff",
            "noteNumber": 80,
            "velocity": 0
        },
        {
            "deltaTime": 0,
            "channel": 0,
            "type": "noteOff",
            "noteNumber": 92,
            "velocity": 0
        },
        {
            "deltaTime": 3,
            "channel": 0,
            "type": "noteOn",
            "noteNumber": 87,
            "velocity": 107
        },
        {
            "deltaTime": 279,
            "channel": 0,
            "type": "noteOn",
            "noteNumber": 85,
            "velocity": 119
        },
        {
            "deltaTime": 0,
            "channel": 0,
            "type": "noteOn",
            "noteNumber": 73,
            "velocity": 119
        },
        {
            "deltaTime": 4,
            "channel": 0,
            "type": "noteOff",
            "noteNumber": 32,
            "velocity": 0
        },
        {
            "deltaTime": 0,
            "channel": 0,
            "type": "noteOff",
            "noteNumber": 44,
            "velocity": 0
        },
        {
            "deltaTime": 3,
            "channel": 0,
            "type": "noteOff",
            "noteNumber": 87,
            "velocity": 0
        },
        {
            "deltaTime": 279,
            "channel": 0,
            "type": "noteOff",
            "noteNumber": 73,
            "velocity": 0
        },
        {
            "deltaTime": 0,
            "channel": 0,
            "type": "noteOff",
            "noteNumber": 85,
            "velocity": 0
        },
        {
            "deltaTime": 3,
            "channel": 0,
            "type": "noteOn",
            "noteNumber": 81,
            "velocity": 119
        },
        {
            "deltaTime": 287,
            "channel": 0,
            "type": "noteOff",
            "noteNumber": 81,
            "velocity": 0
        },
        {
            "deltaTime": 3,
            "channel": 0,
            "type": "noteOn",
            "noteNumber": 72,
            "velocity": 125
        },
        {
            "deltaTime": 0,
            "channel": 0,
            "type": "noteOn",
            "noteNumber": 63,
            "velocity": 115
        },
        {
            "deltaTime": 0,
            "channel": 0,
            "type": "noteOn",
            "noteNumber": 84,
            "velocity": 111
        },
        {
            "deltaTime": 0,
            "channel": 0,
            "type": "noteOn",
            "noteNumber": 66,
            "velocity": 119
        },
        {
            "deltaTime": 0,
            "channel": 0,
            "type": "noteOn",
            "noteNumber": 80,
            "velocity": 96
        },
        {
            "deltaTime": 0,
            "channel": 0,
            "type": "noteOn",
            "noteNumber": 48,
            "velocity": 118
        },
        {
            "deltaTime": 279,
            "channel": 0,
            "type": "noteOn",
            "noteNumber": 78,
            "velocity": 110
        },
        {
            "deltaTime": 8,
            "channel": 0,
            "type": "noteOff",
            "noteNumber": 72,
            "velocity": 0
        },
        {
            "deltaTime": 0,
            "channel": 0,
            "type": "noteOff",
            "noteNumber": 80,
            "velocity": 0
        },
        {
            "deltaTime": 0,
            "channel": 0,
            "type": "noteOff",
            "noteNumber": 84,
            "velocity": 0
        },
        {
            "deltaTime": 0,
            "channel": 0,
            "type": "noteOff",
            "noteNumber": 48,
            "velocity": 0
        },
        {
            "deltaTime": 0,
            "channel": 0,
            "type": "noteOff",
            "noteNumber": 63,
            "velocity": 0
        },
        {
            "deltaTime": 0,
            "channel": 0,
            "type": "noteOff",
            "noteNumber": 66,
            "velocity": 0
        },
        {
            "deltaTime": 279,
            "channel": 0,
            "type": "noteOff",
            "noteNumber": 78,
            "velocity": 0
        },
        {
            "deltaTime": 3,
            "channel": 0,
            "type": "noteOn",
            "noteNumber": 75,
            "velocity": 117
        },
        {
            "deltaTime": 287,
            "channel": 0,
            "type": "noteOff",
            "noteNumber": 75,
            "velocity": 0
        },
        {
            "deltaTime": 3,
            "channel": 0,
            "type": "noteOn",
            "noteNumber": 67,
            "velocity": 117
        },
        {
            "deltaTime": 287,
            "channel": 0,
            "type": "noteOff",
            "noteNumber": 67,
            "velocity": 0
        },
        {
            "deltaTime": 3,
            "channel": 0,
            "type": "noteOn",
            "noteNumber": 37,
            "velocity": 116
        },
        {
            "deltaTime": 0,
            "channel": 0,
            "type": "noteOn",
            "noteNumber": 49,
            "velocity": 113
        },
        {
            "deltaTime": 0,
            "channel": 0,
            "type": "noteOn",
            "noteNumber": 58,
            "velocity": 92
        },
        {
            "deltaTime": 0,
            "channel": 0,
            "type": "noteOn",
            "noteNumber": 73,
            "velocity": 114
        },
        {
            "deltaTime": 0,
            "channel": 0,
            "type": "noteOn",
            "noteNumber": 68,
            "velocity": 121
        },
        {
            "deltaTime": 0,
            "channel": 0,
            "type": "noteOn",
            "noteNumber": 64,
            "velocity": 124
        },
        {
            "deltaTime": 388,
            "channel": 0,
            "type": "noteOff",
            "noteNumber": 64,
            "velocity": 0
        },
        {
            "deltaTime": 0,
            "channel": 0,
            "type": "noteOff",
            "noteNumber": 58,
            "velocity": 0
        },
        {
            "deltaTime": 0,
            "channel": 0,
            "type": "noteOff",
            "noteNumber": 68,
            "velocity": 0
        },
        {
            "deltaTime": 0,
            "channel": 0,
            "type": "noteOff",
            "noteNumber": 73,
            "velocity": 0
        },
        {
            "deltaTime": 0,
            "channel": 0,
            "type": "noteOff",
            "noteNumber": 37,
            "velocity": 0
        },
        {
            "deltaTime": 0,
            "channel": 0,
            "type": "noteOff",
            "noteNumber": 49,
            "velocity": 0
        },
        {
            "deltaTime": 182,
            "channel": 0,
            "type": "noteOn",
            "noteNumber": 80,
            "velocity": 124
        },
        {
            "deltaTime": 0,
            "channel": 0,
            "type": "noteOn",
            "noteNumber": 85,
            "velocity": 96
        },
        {
            "deltaTime": 170,
            "channel": 0,
            "type": "noteOff",
            "noteNumber": 80,
            "velocity": 0
        },
        {
            "deltaTime": 0,
            "channel": 0,
            "type": "noteOff",
            "noteNumber": 85,
            "velocity": 0
        },
        {
            "deltaTime": 121,
            "channel": 0,
            "type": "noteOn",
            "noteNumber": 73,
            "velocity": 114
        },
        {
            "deltaTime": 0,
            "channel": 0,
            "type": "noteOn",
            "noteNumber": 68,
            "velocity": 114
        },
        {
            "deltaTime": 0,
            "channel": 0,
            "type": "noteOn",
            "noteNumber": 85,
            "velocity": 114
        },
        {
            "deltaTime": 170,
            "channel": 0,
            "type": "noteOff",
            "noteNumber": 73,
            "velocity": 0
        },
        {
            "deltaTime": 0,
            "channel": 0,
            "type": "noteOff",
            "noteNumber": 68,
            "velocity": 0
        },
        {
            "deltaTime": 0,
            "channel": 0,
            "type": "noteOff",
            "noteNumber": 85,
            "velocity": 0
        },
        {
            "deltaTime": 109,
            "channel": 0,
            "type": "noteOn",
            "noteNumber": 76,
            "velocity": 107
        },
        {
            "deltaTime": 0,
            "channel": 0,
            "type": "noteOn",
            "noteNumber": 85,
            "velocity": 112
        },
        {
            "deltaTime": 0,
            "channel": 0,
            "type": "noteOn",
            "noteNumber": 80,
            "velocity": 107
        },
        {
            "deltaTime": 0,
            "channel": 0,
            "type": "noteOn",
            "noteNumber": 68,
            "velocity": 121
        },
        {
            "deltaTime": 0,
            "channel": 0,
            "type": "noteOn",
            "noteNumber": 49,
            "velocity": 120
        },
        {
            "deltaTime": 0,
            "channel": 0,
            "type": "noteOn",
            "noteNumber": 37,
            "velocity": 120
        },
        {
            "deltaTime": 287,
            "channel": 0,
            "type": "noteOff",
            "noteNumber": 49,
            "velocity": 0
        },
        {
            "deltaTime": 0,
            "channel": 0,
            "type": "noteOff",
            "noteNumber": 85,
            "velocity": 0
        },
        {
            "deltaTime": 0,
            "channel": 0,
            "type": "noteOff",
            "noteNumber": 76,
            "velocity": 0
        },
        {
            "deltaTime": 0,
            "channel": 0,
            "type": "noteOff",
            "noteNumber": 68,
            "velocity": 0
        },
        {
            "deltaTime": 0,
            "channel": 0,
            "type": "noteOff",
            "noteNumber": 37,
            "velocity": 0
        },
        {
            "deltaTime": 0,
            "channel": 0,
            "type": "noteOff",
            "noteNumber": 80,
            "velocity": 0
        },
        {
            "deltaTime": 3,
            "channel": 0,
            "type": "noteOn",
            "noteNumber": 84,
            "velocity": 120
        },
        {
            "deltaTime": 287,
            "channel": 0,
            "type": "noteOff",
            "noteNumber": 84,
            "velocity": 0
        },
        {
            "deltaTime": 3,
            "channel": 0,
            "type": "noteOn",
            "noteNumber": 83,
            "velocity": 98
        },
        {
            "deltaTime": 0,
            "channel": 0,
            "type": "noteOn",
            "noteNumber": 51,
            "velocity": 119
        },
        {
            "deltaTime": 0,
            "channel": 0,
            "type": "noteOn",
            "noteNumber": 71,
            "velocity": 93
        },
        {
            "deltaTime": 0,
            "channel": 0,
            "type": "noteOn",
            "noteNumber": 39,
            "velocity": 119
        },
        {
            "deltaTime": 287,
            "channel": 0,
            "type": "noteOff",
            "noteNumber": 71,
            "velocity": 0
        },
        {
            "deltaTime": 0,
            "channel": 0,
            "type": "noteOff",
            "noteNumber": 83,
            "velocity": 0
        },
        {
            "deltaTime": 3,
            "channel": 0,
            "type": "noteOn",
            "noteNumber": 70,
            "velocity": 77
        },
        {
            "deltaTime": 0,
            "channel": 0,
            "type": "noteOn",
            "noteNumber": 82,
            "velocity": 85
        },
        {
            "deltaTime": 80,
            "channel": 0,
            "type": "noteOff",
            "noteNumber": 39,
            "velocity": 0
        },
        {
            "deltaTime": 0,
            "channel": 0,
            "type": "noteOff",
            "noteNumber": 51,
            "velocity": 0
        },
        {
            "deltaTime": 199,
            "channel": 0,
            "type": "noteOn",
            "noteNumber": 40,
            "velocity": 121
        },
        {
            "deltaTime": 0,
            "channel": 0,
            "type": "noteOn",
            "noteNumber": 81,
            "velocity": 89
        },
        {
            "deltaTime": 0,
            "channel": 0,
            "type": "noteOn",
            "noteNumber": 69,
            "velocity": 89
        },
        {
            "deltaTime": 0,
            "channel": 0,
            "type": "noteOn",
            "noteNumber": 52,
            "velocity": 121
        },
        {
            "deltaTime": 8,
            "channel": 0,
            "type": "noteOff",
            "noteNumber": 70,
            "velocity": 0
        },
        {
            "deltaTime": 0,
            "channel": 0,
            "type": "noteOff",
            "noteNumber": 82,
            "velocity": 0
        },
        {
            "deltaTime": 279,
            "channel": 0,
            "type": "noteOff",
            "noteNumber": 40,
            "velocity": 0
        },
        {
            "deltaTime": 0,
            "channel": 0,
            "type": "noteOff",
            "noteNumber": 81,
            "velocity": 0
        },
        {
            "deltaTime": 0,
            "channel": 0,
            "type": "noteOff",
            "noteNumber": 69,
            "velocity": 0
        },
        {
            "deltaTime": 0,
            "channel": 0,
            "type": "noteOff",
            "noteNumber": 52,
            "velocity": 0
        },
        {
            "deltaTime": 3,
            "channel": 0,
            "type": "noteOn",
            "noteNumber": 68,
            "velocity": 89
        },
        {
            "deltaTime": 0,
            "channel": 0,
            "type": "noteOn",
            "noteNumber": 80,
            "velocity": 89
        },
        {
            "deltaTime": 287,
            "channel": 0,
            "type": "noteOff",
            "noteNumber": 68,
            "velocity": 0
        },
        {
            "deltaTime": 0,
            "channel": 0,
            "type": "noteOff",
            "noteNumber": 80,
            "velocity": 0
        },
        {
            "deltaTime": 3,
            "channel": 0,
            "type": "noteOn",
            "noteNumber": 66,
            "velocity": 89
        },
        {
            "deltaTime": 0,
            "channel": 0,
            "type": "noteOn",
            "noteNumber": 78,
            "velocity": 89
        },
        {
            "deltaTime": 0,
            "channel": 0,
            "type": "noteOn",
            "noteNumber": 42,
            "velocity": 104
        },
        {
            "deltaTime": 0,
            "channel": 0,
            "type": "noteOn",
            "noteNumber": 54,
            "velocity": 104
        },
        {
            "deltaTime": 279,
            "channel": 0,
            "type": "noteOn",
            "noteNumber": 64,
            "velocity": 80
        },
        {
            "deltaTime": 0,
            "channel": 0,
            "type": "noteOn",
            "noteNumber": 76,
            "velocity": 80
        },
        {
            "deltaTime": 8,
            "channel": 0,
            "type": "noteOff",
            "noteNumber": 42,
            "velocity": 0
        },
        {
            "deltaTime": 0,
            "channel": 0,
            "type": "noteOff",
            "noteNumber": 78,
            "velocity": 0
        },
        {
            "deltaTime": 0,
            "channel": 0,
            "type": "noteOff",
            "noteNumber": 54,
            "velocity": 0
        },
        {
            "deltaTime": 0,
            "channel": 0,
            "type": "noteOff",
            "noteNumber": 66,
            "velocity": 0
        },
        {
            "deltaTime": 279,
            "channel": 0,
            "type": "noteOff",
            "noteNumber": 64,
            "velocity": 0
        },
        {
            "deltaTime": 0,
            "channel": 0,
            "type": "noteOff",
            "noteNumber": 76,
            "velocity": 0
        },
        {
            "deltaTime": 3,
            "channel": 0,
            "type": "noteOn",
            "noteNumber": 75,
            "velocity": 110
        },
        {
            "deltaTime": 0,
            "channel": 0,
            "type": "noteOn",
            "noteNumber": 56,
            "velocity": 115
        },
        {
            "deltaTime": 0,
            "channel": 0,
            "type": "noteOn",
            "noteNumber": 44,
            "velocity": 115
        },
        {
            "deltaTime": 0,
            "channel": 0,
            "type": "noteOn",
            "noteNumber": 63,
            "velocity": 90
        },
        {
            "deltaTime": 287,
            "channel": 0,
            "type": "noteOff",
            "noteNumber": 75,
            "velocity": 0
        },
        {
            "deltaTime": 0,
            "channel": 0,
            "type": "noteOff",
            "noteNumber": 63,
            "velocity": 0
        },
        {
            "deltaTime": 0,
            "channel": 0,
            "type": "noteOff",
            "noteNumber": 56,
            "velocity": 0
        },
        {
            "deltaTime": 0,
            "channel": 0,
            "type": "noteOff",
            "noteNumber": 44,
            "velocity": 0
        },
        {
            "deltaTime": 3,
            "channel": 0,
            "type": "noteOn",
            "noteNumber": 73,
            "velocity": 83
        },
        {
            "deltaTime": 279,
            "channel": 0,
            "type": "noteOn",
            "noteNumber": 64,
            "velocity": 101
        },
        {
            "deltaTime": 0,
            "channel": 0,
            "type": "noteOn",
            "noteNumber": 45,
            "velocity": 122
        },
        {
            "deltaTime": 0,
            "channel": 0,
            "type": "noteOn",
            "noteNumber": 72,
            "velocity": 101
        },
        {
            "deltaTime": 0,
            "channel": 0,
            "type": "noteOn",
            "noteNumber": 57,
            "velocity": 115
        },
        {
            "deltaTime": 8,
            "channel": 0,
            "type": "noteOff",
            "noteNumber": 73,
            "velocity": 0
        },
        {
            "deltaTime": 279,
            "channel": 0,
            "type": "noteOff",
            "noteNumber": 45,
            "velocity": 0
        },
        {
            "deltaTime": 0,
            "channel": 0,
            "type": "noteOff",
            "noteNumber": 64,
            "velocity": 0
        },
        {
            "deltaTime": 0,
            "channel": 0,
            "type": "noteOff",
            "noteNumber": 72,
            "velocity": 0
        },
        {
            "deltaTime": 0,
            "channel": 0,
            "type": "noteOff",
            "noteNumber": 57,
            "velocity": 0
        },
        {
            "deltaTime": 3,
            "channel": 0,
            "type": "noteOn",
            "noteNumber": 54,
            "velocity": 99
        },
        {
            "deltaTime": 0,
            "channel": 0,
            "type": "noteOn",
            "noteNumber": 61,
            "velocity": 115
        },
        {
            "deltaTime": 0,
            "channel": 0,
            "type": "noteOn",
            "noteNumber": 69,
            "velocity": 113
        },
        {
            "deltaTime": 0,
            "channel": 0,
            "type": "noteOn",
            "noteNumber": 66,
            "velocity": 115
        },
        {
            "deltaTime": 287,
            "channel": 0,
            "type": "noteOff",
            "noteNumber": 69,
            "velocity": 0
        },
        {
            "deltaTime": 0,
            "channel": 0,
            "type": "noteOff",
            "noteNumber": 61,
            "velocity": 0
        },
        {
            "deltaTime": 0,
            "channel": 0,
            "type": "noteOff",
            "noteNumber": 66,
            "velocity": 0
        },
        {
            "deltaTime": 0,
            "channel": 0,
            "type": "noteOff",
            "noteNumber": 54,
            "velocity": 0
        },
        {
            "deltaTime": 3,
            "channel": 0,
            "type": "noteOn",
            "noteNumber": 80,
            "velocity": 122
        },
        {
            "deltaTime": 0,
            "channel": 0,
            "type": "noteOn",
            "noteNumber": 63,
            "velocity": 115
        },
        {
            "deltaTime": 0,
            "channel": 0,
            "type": "noteOn",
            "noteNumber": 68,
            "velocity": 122
        },
        {
            "deltaTime": 0,
            "channel": 0,
            "type": "noteOn",
            "noteNumber": 60,
            "velocity": 122
        },
        {
            "deltaTime": 0,
            "channel": 0,
            "type": "noteOn",
            "noteNumber": 44,
            "velocity": 122
        },
        {
            "deltaTime": 571,
            "channel": 0,
            "type": "noteOn",
            "noteNumber": 61,
            "velocity": 119
        },
        {
            "deltaTime": 0,
            "channel": 0,
            "type": "noteOn",
            "noteNumber": 85,
            "velocity": 103
        },
        {
            "deltaTime": 4,
            "channel": 0,
            "type": "noteOff",
            "noteNumber": 68,
            "velocity": 0
        },
        {
            "deltaTime": 0,
            "channel": 0,
            "type": "noteOff",
            "noteNumber": 63,
            "velocity": 0
        },
        {
            "deltaTime": 0,
            "channel": 0,
            "type": "noteOff",
            "noteNumber": 80,
            "velocity": 0
        },
        {
            "deltaTime": 0,
            "channel": 0,
            "type": "noteOff",
            "noteNumber": 60,
            "velocity": 0
        },
        {
            "deltaTime": 0,
            "channel": 0,
            "type": "noteOff",
            "noteNumber": 44,
            "velocity": 0
        },
        {
            "deltaTime": 182,
            "channel": 0,
            "type": "noteOff",
            "noteNumber": 85,
            "velocity": 0
        },
        {
            "deltaTime": 104,
            "channel": 0,
            "type": "noteOn",
            "noteNumber": 97,
            "velocity": 109
        },
        {
            "deltaTime": 284,
            "channel": 0,
            "type": "noteOff",
            "noteNumber": 61,
            "velocity": 0
        },
        {
            "deltaTime": 3,
            "channel": 0,
            "type": "noteOff",
            "noteNumber": 97,
            "velocity": 0
        },
        {
            "deltaTime": 3,
            "channel": 0,
            "type": "noteOn",
            "noteNumber": 78,
            "velocity": 98
        },
        {
            "deltaTime": 0,
            "channel": 0,
            "type": "noteOn",
            "noteNumber": 66,
            "velocity": 111
        },
        {
            "deltaTime": 187,
            "channel": 0,
            "type": "noteOff",
            "noteNumber": 78,
            "velocity": 0
        },
        {
            "deltaTime": 92,
            "channel": 0,
            "type": "noteOn",
            "noteNumber": 90,
            "velocity": 116
        },
        {
            "deltaTime": 92,
            "channel": 0,
            "type": "noteOff",
            "noteNumber": 66,
            "velocity": 0
        },
        {
            "deltaTime": 195,
            "channel": 0,
            "type": "noteOff",
            "noteNumber": 90,
            "velocity": 0
        },
        {
            "deltaTime": 3,
            "channel": 0,
            "type": "noteOn",
            "noteNumber": 81,
            "velocity": 96
        },
        {
            "deltaTime": 0,
            "channel": 0,
            "type": "noteOn",
            "noteNumber": 57,
            "velocity": 120
        },
        {
            "deltaTime": 187,
            "channel": 0,
            "type": "noteOff",
            "noteNumber": 81,
            "velocity": 0
        },
        {
            "deltaTime": 104,
            "channel": 0,
            "type": "noteOn",
            "noteNumber": 69,
            "velocity": 106
        },
        {
            "deltaTime": 0,
            "channel": 0,
            "type": "noteOn",
            "noteNumber": 81,
            "velocity": 103
        },
        {
            "deltaTime": 63,
            "channel": 0,
            "type": "noteOff",
            "noteNumber": 57,
            "velocity": 0
        },
        {
            "deltaTime": 215,
            "channel": 0,
            "type": "noteOn",
            "noteNumber": 64,
            "velocity": 119
        },
        {
            "deltaTime": 0,
            "channel": 0,
            "type": "noteOn",
            "noteNumber": 52,
            "velocity": 119
        },
        {
            "deltaTime": 0,
            "channel": 0,
            "type": "noteOn",
            "noteNumber": 80,
            "velocity": 85
        },
        {
            "deltaTime": 8,
            "channel": 0,
            "type": "noteOff",
            "noteNumber": 69,
            "velocity": 0
        },
        {
            "deltaTime": 0,
            "channel": 0,
            "type": "noteOff",
            "noteNumber": 81,
            "velocity": 0
        },
        {
            "deltaTime": 279,
            "channel": 0,
            "type": "noteOff",
            "noteNumber": 80,
            "velocity": 0
        },
        {
            "deltaTime": 3,
            "channel": 0,
            "type": "noteOn",
            "noteNumber": 82,
            "velocity": 64
        },
        {
            "deltaTime": 284,
            "channel": 0,
            "type": "noteOff",
            "noteNumber": 52,
            "velocity": 0
        },
        {
            "deltaTime": 0,
            "channel": 0,
            "type": "noteOff",
            "noteNumber": 64,
            "velocity": 0
        },
        {
            "deltaTime": 3,
            "channel": 0,
            "type": "noteOff",
            "noteNumber": 82,
            "velocity": 0
        },
        {
            "deltaTime": 3,
            "channel": 0,
            "type": "noteOn",
            "noteNumber": 51,
            "velocity": 112
        },
        {
            "deltaTime": 0,
            "channel": 0,
            "type": "noteOn",
            "noteNumber": 63,
            "velocity": 112
        },
        {
            "deltaTime": 0,
            "channel": 0,
            "type": "noteOn",
            "noteNumber": 84,
            "velocity": 90
        },
        {
            "deltaTime": 287,
            "channel": 0,
            "type": "noteOff",
            "noteNumber": 84,
            "velocity": 0
        },
        {
            "deltaTime": 3,
            "channel": 0,
            "type": "noteOn",
            "noteNumber": 85,
            "velocity": 84
        },
        {
            "deltaTime": 279,
            "channel": 0,
            "type": "noteOn",
            "noteNumber": 61,
            "velocity": 120
        },
        {
            "deltaTime": 0,
            "channel": 0,
            "type": "noteOn",
            "noteNumber": 49,
            "velocity": 120
        },
        {
            "deltaTime": 0,
            "channel": 0,
            "type": "noteOn",
            "noteNumber": 87,
            "velocity": 92
        },
        {
            "deltaTime": 4,
            "channel": 0,
            "type": "noteOff",
            "noteNumber": 63,
            "velocity": 0
        },
        {
            "deltaTime": 0,
            "channel": 0,
            "type": "noteOff",
            "noteNumber": 51,
            "velocity": 0
        },
        {
            "deltaTime": 3,
            "channel": 0,
            "type": "noteOff",
            "noteNumber": 85,
            "velocity": 0
        },
        {
            "deltaTime": 279,
            "channel": 0,
            "type": "noteOff",
            "noteNumber": 61,
            "velocity": 0
        },
        {
            "deltaTime": 0,
            "channel": 0,
            "type": "noteOff",
            "noteNumber": 87,
            "velocity": 0
        },
        {
            "deltaTime": 0,
            "channel": 0,
            "type": "noteOff",
            "noteNumber": 49,
            "velocity": 0
        },
        {
            "deltaTime": 3,
            "channel": 0,
            "type": "noteOn",
            "noteNumber": 90,
            "velocity": 100
        },
        {
            "deltaTime": 287,
            "channel": 0,
            "type": "noteOff",
            "noteNumber": 90,
            "velocity": 0
        },
        {
            "deltaTime": 3,
            "channel": 0,
            "type": "noteOn",
            "noteNumber": 92,
            "velocity": 108
        },
        {
            "deltaTime": 0,
            "channel": 0,
            "type": "noteOn",
            "noteNumber": 32,
            "velocity": 119
        },
        {
            "deltaTime": 0,
            "channel": 0,
            "type": "noteOn",
            "noteNumber": 60,
            "velocity": 120
        },
        {
            "deltaTime": 0,
            "channel": 0,
            "type": "noteOn",
            "noteNumber": 48,
            "velocity": 120
        },
        {
            "deltaTime": 279,
            "channel": 0,
            "type": "noteOn",
            "noteNumber": 96,
            "velocity": 106
        },
        {
            "deltaTime": 8,
            "channel": 0,
            "type": "noteOff",
            "noteNumber": 48,
            "velocity": 0
        },
        {
            "deltaTime": 0,
            "channel": 0,
            "type": "noteOff",
            "noteNumber": 60,
            "velocity": 0
        },
        {
            "deltaTime": 0,
            "channel": 0,
            "type": "noteOff",
            "noteNumber": 92,
            "velocity": 0
        },
        {
            "deltaTime": 0,
            "channel": 0,
            "type": "noteOff",
            "noteNumber": 32,
            "velocity": 0
        },
        {
            "deltaTime": 279,
            "channel": 0,
            "type": "noteOff",
            "noteNumber": 96,
            "velocity": 0
        },
        {
            "deltaTime": 3,
            "channel": 0,
            "type": "noteOn",
            "noteNumber": 97,
            "velocity": 118
        },
        {
            "deltaTime": 0,
            "channel": 0,
            "type": "noteOn",
            "noteNumber": 49,
            "velocity": 118
        },
        {
            "deltaTime": 0,
            "channel": 0,
            "type": "noteOn",
            "noteNumber": 37,
            "velocity": 118
        },
        {
            "deltaTime": 0,
            "channel": 0,
            "type": "noteOn",
            "noteNumber": 64,
            "velocity": 118
        },
        {
            "deltaTime": 0,
            "channel": 0,
            "type": "noteOn",
            "noteNumber": 73,
            "velocity": 118
        },
        {
            "deltaTime": 0,
            "channel": 0,
            "type": "noteOn",
            "noteNumber": 88,
            "velocity": 118
        },
        {
            "deltaTime": 0,
            "channel": 0,
            "type": "noteOn",
            "noteNumber": 80,
            "velocity": 118
        },
        {
            "deltaTime": 291,
            "channel": 0,
            "type": "noteOn",
            "noteNumber": 92,
            "velocity": 114
        },
        {
            "deltaTime": 92,
            "channel": 0,
            "type": "noteOff",
            "noteNumber": 97,
            "velocity": 0
        },
        {
            "deltaTime": 67,
            "channel": 0,
            "type": "noteOff",
            "noteNumber": 73,
            "velocity": 0
        },
        {
            "deltaTime": 4,
            "channel": 0,
            "type": "noteOff",
            "noteNumber": 88,
            "velocity": 0
        },
        {
            "deltaTime": 0,
            "channel": 0,
            "type": "noteOff",
            "noteNumber": 64,
            "velocity": 0
        },
        {
            "deltaTime": 0,
            "channel": 0,
            "type": "noteOff",
            "noteNumber": 49,
            "velocity": 0
        },
        {
            "deltaTime": 0,
            "channel": 0,
            "type": "noteOff",
            "noteNumber": 37,
            "velocity": 0
        },
        {
            "deltaTime": 0,
            "channel": 0,
            "type": "noteOff",
            "noteNumber": 80,
            "velocity": 0
        },
        {
            "deltaTime": 123,
            "channel": 0,
            "type": "noteOff",
            "noteNumber": 92,
            "velocity": 0
        },
        {
            "deltaTime": 3,
            "channel": 0,
            "type": "noteOn",
            "noteNumber": 87,
            "velocity": 95
        },
        {
            "deltaTime": 279,
            "channel": 0,
            "type": "noteOn",
            "noteNumber": 68,
            "velocity": 114
        },
        {
            "deltaTime": 0,
            "channel": 0,
            "type": "noteOn",
            "noteNumber": 76,
            "velocity": 114
        },
        {
            "deltaTime": 0,
            "channel": 0,
            "type": "noteOn",
            "noteNumber": 37,
            "velocity": 109
        },
        {
            "deltaTime": 0,
            "channel": 0,
            "type": "noteOn",
            "noteNumber": 81,
            "velocity": 111
        },
        {
            "deltaTime": 0,
            "channel": 0,
            "type": "noteOn",
            "noteNumber": 49,
            "velocity": 120
        },
        {
            "deltaTime": 0,
            "channel": 0,
            "type": "noteOn",
            "noteNumber": 85,
            "velocity": 114
        },
        {
            "deltaTime": 8,
            "channel": 0,
            "type": "noteOff",
            "noteNumber": 87,
            "velocity": 0
        },
        {
            "deltaTime": 188,
            "channel": 0,
            "type": "noteOff",
            "noteNumber": 85,
            "velocity": 0
        },
        {
            "deltaTime": 0,
            "channel": 0,
            "type": "noteOff",
            "noteNumber": 81,
            "velocity": 0
        },
        {
            "deltaTime": 0,
            "channel": 0,
            "type": "noteOff",
            "noteNumber": 76,
            "velocity": 0
        },
        {
            "deltaTime": 0,
            "channel": 0,
            "type": "noteOff",
            "noteNumber": 68,
            "velocity": 0
        },
        {
            "deltaTime": 91,
            "channel": 0,
            "type": "noteOff",
            "noteNumber": 49,
            "velocity": 0
        },
        {
            "deltaTime": 0,
            "channel": 0,
            "type": "noteOff",
            "noteNumber": 37,
            "velocity": 0
        },
        {
            "deltaTime": 3,
            "channel": 0,
            "type": "noteOn",
            "noteNumber": 84,
            "velocity": 83
        },
        {
            "deltaTime": 287,
            "channel": 0,
            "type": "noteOff",
            "noteNumber": 84,
            "velocity": 0
        },
        {
            "deltaTime": 3,
            "channel": 0,
            "type": "noteOn",
            "noteNumber": 82,
            "velocity": 102
        },
        {
            "deltaTime": 279,
            "channel": 0,
            "type": "noteOn",
            "noteNumber": 51,
            "velocity": 122
        },
        {
            "deltaTime": 0,
            "channel": 0,
            "type": "noteOn",
            "noteNumber": 56,
            "velocity": 124
        },
        {
            "deltaTime": 0,
            "channel": 0,
            "type": "noteOn",
            "noteNumber": 64,
            "velocity": 118
        },
        {
            "deltaTime": 0,
            "channel": 0,
            "type": "noteOn",
            "noteNumber": 80,
            "velocity": 100
        },
        {
            "deltaTime": 0,
            "channel": 0,
            "type": "noteOn",
            "noteNumber": 73,
            "velocity": 122
        },
        {
            "deltaTime": 0,
            "channel": 0,
            "type": "noteOn",
            "noteNumber": 39,
            "velocity": 122
        },
        {
            "deltaTime": 0,
            "channel": 0,
            "type": "noteOn",
            "noteNumber": 68,
            "velocity": 118
        },
        {
            "deltaTime": 8,
            "channel": 0,
            "type": "noteOff",
            "noteNumber": 82,
            "velocity": 0
        },
        {
            "deltaTime": 279,
            "channel": 0,
            "type": "noteOff",
            "noteNumber": 80,
            "velocity": 0
        },
        {
            "deltaTime": 3,
            "channel": 0,
            "type": "noteOn",
            "noteNumber": 81,
            "velocity": 105
        },
        {
            "deltaTime": 137,
            "channel": 0,
            "type": "noteOff",
            "noteNumber": 68,
            "velocity": 0
        },
        {
            "deltaTime": 0,
            "channel": 0,
            "type": "noteOff",
            "noteNumber": 39,
            "velocity": 0
        },
        {
            "deltaTime": 0,
            "channel": 0,
            "type": "noteOff",
            "noteNumber": 64,
            "velocity": 0
        },
        {
            "deltaTime": 0,
            "channel": 0,
            "type": "noteOff",
            "noteNumber": 51,
            "velocity": 0
        },
        {
            "deltaTime": 0,
            "channel": 0,
            "type": "noteOff",
            "noteNumber": 56,
            "velocity": 0
        },
        {
            "deltaTime": 0,
            "channel": 0,
            "type": "noteOff",
            "noteNumber": 73,
            "velocity": 0
        },
        {
            "deltaTime": 150,
            "channel": 0,
            "type": "noteOff",
            "noteNumber": 81,
            "velocity": 0
        },
        {
            "deltaTime": 3,
            "channel": 0,
            "type": "noteOn",
            "noteNumber": 80,
            "velocity": 107
        },
        {
            "deltaTime": 0,
            "channel": 0,
            "type": "noteOn",
            "noteNumber": 40,
            "velocity": 106
        },
        {
            "deltaTime": 0,
            "channel": 0,
            "type": "noteOn",
            "noteNumber": 52,
            "velocity": 106
        },
        {
            "deltaTime": 192,
            "channel": 0,
            "type": "noteOff",
            "noteNumber": 80,
            "velocity": 0
        },
        {
            "deltaTime": 2,
            "channel": 0,
            "type": "noteOn",
            "noteNumber": 79,
            "velocity": 96
        },
        {
            "deltaTime": 182,
            "channel": 0,
            "type": "noteOn",
            "noteNumber": 75,
            "velocity": 76
        },
        {
            "deltaTime": 9,
            "channel": 0,
            "type": "noteOff",
            "noteNumber": 79,
            "velocity": 0
        },
        {
            "deltaTime": 52,
            "channel": 0,
            "type": "noteOff",
            "noteNumber": 40,
            "velocity": 0
        },
        {
            "deltaTime": 0,
            "channel": 0,
            "type": "noteOff",
            "noteNumber": 52,
            "velocity": 0
        },
        {
            "deltaTime": 129,
            "channel": 0,
            "type": "noteOff",
            "noteNumber": 75,
            "velocity": 0
        },
        {
            "deltaTime": 2,
            "channel": 0,
            "type": "noteOn",
            "noteNumber": 54,
            "velocity": 108
        },
        {
            "deltaTime": 0,
            "channel": 0,
            "type": "noteOn",
            "noteNumber": 78,
            "velocity": 117
        },
        {
            "deltaTime": 0,
            "channel": 0,
            "type": "noteOn",
            "noteNumber": 42,
            "velocity": 108
        },
        {
            "deltaTime": 192,
            "channel": 0,
            "type": "noteOff",
            "noteNumber": 78,
            "velocity": 0
        },
        {
            "deltaTime": 2,
            "channel": 0,
            "type": "noteOn",
            "noteNumber": 76,
            "velocity": 100
        },
        {
            "deltaTime": 93,
            "channel": 0,
            "type": "noteOff",
            "noteNumber": 42,
            "velocity": 0
        },
        {
            "deltaTime": 0,
            "channel": 0,
            "type": "noteOff",
            "noteNumber": 54,
            "velocity": 0
        },
        {
            "deltaTime": 98,
            "channel": 0,
            "type": "noteOff",
            "noteNumber": 76,
            "velocity": 0
        },
        {
            "deltaTime": 2,
            "channel": 0,
            "type": "noteOn",
            "noteNumber": 73,
            "velocity": 81
        },
        {
            "deltaTime": 192,
            "channel": 0,
            "type": "noteOff",
            "noteNumber": 73,
            "velocity": 0
        },
        {
            "deltaTime": 2,
            "channel": 0,
            "type": "noteOn",
            "noteNumber": 61,
            "velocity": 110
        },
        {
            "deltaTime": 0,
            "channel": 0,
            "type": "noteOn",
            "noteNumber": 88,
            "velocity": 114
        },
        {
            "deltaTime": 0,
            "channel": 0,
            "type": "noteOn",
            "noteNumber": 76,
            "velocity": 114
        },
        {
            "deltaTime": 0,
            "channel": 0,
            "type": "noteOn",
            "noteNumber": 71,
            "velocity": 95
        },
        {
            "deltaTime": 0,
            "channel": 0,
            "type": "noteOn",
            "noteNumber": 56,
            "velocity": 110
        },
        {
            "deltaTime": 364,
            "channel": 0,
            "type": "noteOff",
            "noteNumber": 56,
            "velocity": 0
        },
        {
            "deltaTime": 0,
            "channel": 0,
            "type": "noteOff",
            "noteNumber": 61,
            "velocity": 0
        },
        {
            "deltaTime": 0,
            "channel": 0,
            "type": "noteOff",
            "noteNumber": 76,
            "velocity": 0
        },
        {
            "deltaTime": 0,
            "channel": 0,
            "type": "noteOff",
            "noteNumber": 88,
            "velocity": 0
        },
        {
            "deltaTime": 0,
            "channel": 0,
            "type": "noteOff",
            "noteNumber": 71,
            "velocity": 0
        },
        {
            "deltaTime": 206,
            "channel": 0,
            "type": "noteOn",
            "noteNumber": 40,
            "velocity": 122
        },
        {
            "deltaTime": 0,
            "channel": 0,
            "type": "noteOn",
            "noteNumber": 68,
            "velocity": 113
        },
        {
            "deltaTime": 0,
            "channel": 0,
            "type": "noteOn",
            "noteNumber": 52,
            "velocity": 102
        },
        {
            "deltaTime": 0,
            "channel": 0,
            "type": "noteOn",
            "noteNumber": 80,
            "velocity": 113
        },
        {
            "deltaTime": 287,
            "channel": 0,
            "type": "noteOff",
            "noteNumber": 52,
            "velocity": 0
        },
        {
            "deltaTime": 0,
            "channel": 0,
            "type": "noteOff",
            "noteNumber": 80,
            "velocity": 0
        },
        {
            "deltaTime": 0,
            "channel": 0,
            "type": "noteOff",
            "noteNumber": 68,
            "velocity": 0
        },
        {
            "deltaTime": 0,
            "channel": 0,
            "type": "noteOff",
            "noteNumber": 40,
            "velocity": 0
        },
        {
            "deltaTime": 3,
            "channel": 0,
            "type": "noteOn",
            "noteNumber": 66,
            "velocity": 102
        },
        {
            "deltaTime": 0,
            "channel": 0,
            "type": "noteOn",
            "noteNumber": 61,
            "velocity": 102
        },
        {
            "deltaTime": 189,
            "channel": 0,
            "type": "noteOff",
            "noteNumber": 66,
            "velocity": 0
        },
        {
            "deltaTime": 0,
            "channel": 0,
            "type": "noteOff",
            "noteNumber": 61,
            "velocity": 0
        },
        {
            "deltaTime": 89,
            "channel": 0,
            "type": "noteOn",
            "noteNumber": 66,
            "velocity": 113
        },
        {
            "deltaTime": 0,
            "channel": 0,
            "type": "noteOn",
            "noteNumber": 75,
            "velocity": 113
        },
        {
            "deltaTime": 0,
            "channel": 0,
            "type": "noteOn",
            "noteNumber": 68,
            "velocity": 113
        },
        {
            "deltaTime": 0,
            "channel": 0,
            "type": "noteOn",
            "noteNumber": 60,
            "velocity": 111
        },
        {
            "deltaTime": 0,
            "channel": 0,
            "type": "noteOn",
            "noteNumber": 51,
            "velocity": 107
        },
        {
            "deltaTime": 576,
            "channel": 0,
            "type": "noteOff",
            "noteNumber": 66,
            "velocity": 0
        },
        {
            "deltaTime": 0,
            "channel": 0,
            "type": "noteOff",
            "noteNumber": 60,
            "velocity": 0
        },
        {
            "deltaTime": 0,
            "channel": 0,
            "type": "noteOff",
            "noteNumber": 51,
            "velocity": 0
        },
        {
            "deltaTime": 7,
            "channel": 0,
            "type": "noteOff",
            "noteNumber": 68,
            "velocity": 0
        },
        {
            "deltaTime": 0,
            "channel": 0,
            "type": "noteOn",
            "noteNumber": 76,
            "velocity": 99
        },
        {
            "deltaTime": 0,
            "channel": 0,
            "type": "noteOff",
            "noteNumber": 75,
            "velocity": 0
        },
        {
            "deltaTime": 0,
            "channel": 0,
            "type": "noteOn",
            "noteNumber": 88,
            "velocity": 99
        },
        {
            "deltaTime": 201,
            "channel": 0,
            "type": "noteOff",
            "noteNumber": 76,
            "velocity": 0
        },
        {
            "deltaTime": 0,
            "channel": 0,
            "type": "noteOff",
            "noteNumber": 88,
            "velocity": 0
        },
        {
            "deltaTime": 77,
            "channel": 0,
            "type": "noteOn",
            "noteNumber": 81,
            "velocity": 113
        },
        {
            "deltaTime": 0,
            "channel": 0,
            "type": "noteOn",
            "noteNumber": 76,
            "velocity": 113
        },
        {
            "deltaTime": 0,
            "channel": 0,
            "type": "noteOn",
            "noteNumber": 88,
            "velocity": 113
        },
        {
            "deltaTime": 201,
            "channel": 0,
            "type": "noteOff",
            "noteNumber": 76,
            "velocity": 0
        },
        {
            "deltaTime": 0,
            "channel": 0,
            "type": "noteOff",
            "noteNumber": 88,
            "velocity": 0
        },
        {
            "deltaTime": 0,
            "channel": 0,
            "type": "noteOff",
            "noteNumber": 81,
            "velocity": 0
        },
        {
            "deltaTime": 90,
            "channel": 0,
            "type": "noteOn",
            "noteNumber": 80,
            "velocity": 114
        },
        {
            "deltaTime": 0,
            "channel": 0,
            "type": "noteOn",
            "noteNumber": 39,
            "velocity": 99
        },
        {
            "deltaTime": 0,
            "channel": 0,
            "type": "noteOn",
            "noteNumber": 87,
            "velocity": 114
        },
        {
            "deltaTime": 0,
            "channel": 0,
            "type": "noteOn",
            "noteNumber": 72,
            "velocity": 114
        },
        {
            "deltaTime": 0,
            "channel": 0,
            "type": "noteOn",
            "noteNumber": 66,
            "velocity": 120
        },
        {
            "deltaTime": 223,
            "channel": 0,
            "type": "noteOff",
            "noteNumber": 87,
            "velocity": 0
        },
        {
            "deltaTime": 64,
            "channel": 0,
            "type": "noteOff",
            "noteNumber": 72,
            "velocity": 0
        },
        {
            "deltaTime": 0,
            "channel": 0,
            "type": "noteOff",
            "noteNumber": 39,
            "velocity": 0
        },
        {
            "deltaTime": 0,
            "channel": 0,
            "type": "noteOff",
            "noteNumber": 66,
            "velocity": 0
        },
        {
            "deltaTime": 0,
            "channel": 0,
            "type": "noteOff",
            "noteNumber": 80,
            "velocity": 0
        },
        {
            "deltaTime": 3,
            "channel": 0,
            "type": "noteOn",
            "noteNumber": 87,
            "velocity": 105
        },
        {
            "deltaTime": 287,
            "channel": 0,
            "type": "noteOff",
            "noteNumber": 87,
            "velocity": 0
        },
        {
            "deltaTime": 3,
            "channel": 0,
            "type": "noteOn",
            "noteNumber": 78,
            "velocity": 97
        },
        {
            "deltaTime": 0,
            "channel": 0,
            "type": "noteOn",
            "noteNumber": 85,
            "velocity": 99
        },
        {
            "deltaTime": 0,
            "channel": 0,
            "type": "noteOn",
            "noteNumber": 70,
            "velocity": 114
        },
        {
            "deltaTime": 0,
            "channel": 0,
            "type": "noteOn",
            "noteNumber": 37,
            "velocity": 90
        },
        {
            "deltaTime": 0,
            "channel": 0,
            "type": "noteOn",
            "noteNumber": 64,
            "velocity": 120
        },
        {
            "deltaTime": 279,
            "channel": 0,
            "type": "noteOn",
            "noteNumber": 73,
            "velocity": 111
        },
        {
            "deltaTime": 8,
            "channel": 0,
            "type": "noteOff",
            "noteNumber": 37,
            "velocity": 0
        },
        {
            "deltaTime": 0,
            "channel": 0,
            "type": "noteOff",
            "noteNumber": 64,
            "velocity": 0
        },
        {
            "deltaTime": 0,
            "channel": 0,
            "type": "noteOff",
            "noteNumber": 78,
            "velocity": 0
        },
        {
            "deltaTime": 0,
            "channel": 0,
            "type": "noteOff",
            "noteNumber": 70,
            "velocity": 0
        },
        {
            "deltaTime": 0,
            "channel": 0,
            "type": "noteOff",
            "noteNumber": 85,
            "velocity": 0
        },
        {
            "deltaTime": 279,
            "channel": 0,
            "type": "noteOff",
            "noteNumber": 73,
            "velocity": 0
        },
        {
            "deltaTime": 3,
            "channel": 0,
            "type": "noteOn",
            "noteNumber": 80,
            "velocity": 99
        },
        {
            "deltaTime": 0,
            "channel": 0,
            "type": "noteOn",
            "noteNumber": 87,
            "velocity": 110
        },
        {
            "deltaTime": 0,
            "channel": 0,
            "type": "noteOn",
            "noteNumber": 56,
            "velocity": 114
        },
        {
            "deltaTime": 0,
            "channel": 0,
            "type": "noteOn",
            "noteNumber": 75,
            "velocity": 110
        },
        {
            "deltaTime": 0,
            "channel": 0,
            "type": "noteOn",
            "noteNumber": 44,
            "velocity": 102
        },
        {
            "deltaTime": 287,
            "channel": 0,
            "type": "noteOff",
            "noteNumber": 56,
            "velocity": 0
        },
        {
            "deltaTime": 0,
            "channel": 0,
            "type": "noteOff",
            "noteNumber": 44,
            "velocity": 0
        },
        {
            "deltaTime": 0,
            "channel": 0,
            "type": "noteOff",
            "noteNumber": 75,
            "velocity": 0
        },
        {
            "deltaTime": 0,
            "channel": 0,
            "type": "noteOff",
            "noteNumber": 80,
            "velocity": 0
        },
        {
            "deltaTime": 0,
            "channel": 0,
            "type": "noteOff",
            "noteNumber": 87,
            "velocity": 0
        },
        {
            "deltaTime": 3,
            "channel": 0,
            "type": "noteOn",
            "noteNumber": 84,
            "velocity": 97
        },
        {
            "deltaTime": 279,
            "channel": 0,
            "type": "noteOn",
            "noteNumber": 78,
            "velocity": 109
        },
        {
            "deltaTime": 8,
            "channel": 0,
            "type": "noteOff",
            "noteNumber": 84,
            "velocity": 0
        },
        {
            "deltaTime": 279,
            "channel": 0,
            "type": "noteOff",
            "noteNumber": 78,
            "velocity": 0
        },
        {
            "deltaTime": 3,
            "channel": 0,
            "type": "noteOn",
            "noteNumber": 72,
            "velocity": 99
        },
        {
            "deltaTime": 287,
            "channel": 0,
            "type": "noteOff",
            "noteNumber": 72,
            "velocity": 0
        },
        {
            "deltaTime": 3,
            "channel": 0,
            "type": "noteOn",
            "noteNumber": 93,
            "velocity": 81
        },
        {
            "deltaTime": 0,
            "channel": 0,
            "type": "noteOn",
            "noteNumber": 39,
            "velocity": 105
        },
        {
            "deltaTime": 0,
            "channel": 0,
            "type": "noteOn",
            "noteNumber": 51,
            "velocity": 105
        },
        {
            "deltaTime": 192,
            "channel": 0,
            "type": "noteOff",
            "noteNumber": 93,
            "velocity": 0
        },
        {
            "deltaTime": 2,
            "channel": 0,
            "type": "noteOn",
            "noteNumber": 92,
            "velocity": 74
        },
        {
            "deltaTime": 100,
            "channel": 0,
            "type": "noteOff",
            "noteNumber": 39,
            "velocity": 0
        },
        {
            "deltaTime": 0,
            "channel": 0,
            "type": "noteOff",
            "noteNumber": 51,
            "velocity": 0
        },
        {
            "deltaTime": 81,
            "channel": 0,
            "type": "noteOn",
            "noteNumber": 90,
            "velocity": 88
        },
        {
            "deltaTime": 9,
            "channel": 0,
            "type": "noteOff",
            "noteNumber": 92,
            "velocity": 0
        },
        {
            "deltaTime": 182,
            "channel": 0,
            "type": "noteOff",
            "noteNumber": 90,
            "velocity": 0
        },
        {
            "deltaTime": 2,
            "channel": 0,
            "type": "noteOn",
            "noteNumber": 44,
            "velocity": 93
        },
        {
            "deltaTime": 0,
            "channel": 0,
            "type": "noteOn",
            "noteNumber": 87,
            "velocity": 96
        },
        {
            "deltaTime": 0,
            "channel": 0,
            "type": "noteOn",
            "noteNumber": 56,
            "velocity": 93
        },
        {
            "deltaTime": 192,
            "channel": 0,
            "type": "noteOff",
            "noteNumber": 87,
            "velocity": 0
        },
        {
            "deltaTime": 2,
            "channel": 0,
            "type": "noteOn",
            "noteNumber": 84,
            "velocity": 84
        },
        {
            "deltaTime": 100,
            "channel": 0,
            "type": "noteOff",
            "noteNumber": 56,
            "velocity": 0
        },
        {
            "deltaTime": 0,
            "channel": 0,
            "type": "noteOff",
            "noteNumber": 44,
            "velocity": 0
        },
        {
            "deltaTime": 91,
            "channel": 0,
            "type": "noteOff",
            "noteNumber": 84,
            "velocity": 0
        },
        {
            "deltaTime": 2,
            "channel": 0,
            "type": "noteOn",
            "noteNumber": 80,
            "velocity": 75
        },
        {
            "deltaTime": 182,
            "channel": 0,
            "type": "noteOn",
            "noteNumber": 73,
            "velocity": 73
        },
        {
            "deltaTime": 0,
            "channel": 0,
            "type": "noteOn",
            "noteNumber": 81,
            "velocity": 75
        },
        {
            "deltaTime": 0,
            "channel": 0,
            "type": "noteOn",
            "noteNumber": 88,
            "velocity": 89
        },
        {
            "deltaTime": 9,
            "channel": 0,
            "type": "noteOff",
            "noteNumber": 80,
            "velocity": 0
        },
        {
            "deltaTime": 2,
            "channel": 0,
            "type": "noteOn",
            "noteNumber": 45,
            "velocity": 94
        },
        {
            "deltaTime": 0,
            "channel": 0,
            "type": "noteOn",
            "noteNumber": 57,
            "velocity": 94
        },
        {
            "deltaTime": 182,
            "channel": 0,
            "type": "noteOn",
            "noteNumber": 61,
            "velocity": 71
        },
        {
            "deltaTime": 192,
            "channel": 0,
            "type": "noteOff",
            "noteNumber": 61,
            "velocity": 0
        },
        {
            "deltaTime": 2,
            "channel": 0,
            "type": "noteOn",
            "noteNumber": 68,
            "velocity": 59
        },
        {
            "deltaTime": 7,
            "channel": 0,
            "type": "noteOff",
            "noteNumber": 57,
            "velocity": 0
        },
        {
            "deltaTime": 179,
            "channel": 0,
            "type": "noteOff",
            "noteNumber": 73,
            "velocity": 0
        },
        {
            "deltaTime": 4,
            "channel": 0,
            "type": "noteOff",
            "noteNumber": 68,
            "velocity": 0
        },
        {
            "deltaTime": 2,
            "channel": 0,
            "type": "noteOn",
            "noteNumber": 69,
            "velocity": 72
        },
        {
            "deltaTime": 2,
            "channel": 0,
            "type": "noteOff",
            "noteNumber": 81,
            "velocity": 0
        },
        {
            "deltaTime": 2,
            "channel": 0,
            "type": "noteOff",
            "noteNumber": 45,
            "velocity": 0
        },
        {
            "deltaTime": 172,
            "channel": 0,
            "type": "noteOff",
            "noteNumber": 88,
            "velocity": 0
        },
        {
            "deltaTime": 14,
            "channel": 0,
            "type": "noteOff",
            "noteNumber": 69,
            "velocity": 0
        },
        {
            "deltaTime": 2,
            "channel": 0,
            "type": "noteOn",
            "noteNumber": 73,
            "velocity": 86
        },
        {
            "deltaTime": 192,
            "channel": 0,
            "type": "noteOff",
            "noteNumber": 73,
            "velocity": 0
        },
        {
            "deltaTime": 2,
            "channel": 0,
            "type": "noteOn",
            "noteNumber": 80,
            "velocity": 69
        },
        {
            "deltaTime": 182,
            "channel": 0,
            "type": "noteOn",
            "noteNumber": 81,
            "velocity": 81
        },
        {
            "deltaTime": 0,
            "channel": 0,
            "type": "noteOn",
            "noteNumber": 85,
            "velocity": 93
        },
        {
            "deltaTime": 0,
            "channel": 0,
            "type": "noteOn",
            "noteNumber": 64,
            "velocity": 55
        },
        {
            "deltaTime": 0,
            "channel": 0,
            "type": "noteOn",
            "noteNumber": 73,
            "velocity": 73
        },
        {
            "deltaTime": 9,
            "channel": 0,
            "type": "noteOff",
            "noteNumber": 80,
            "velocity": 0
        },
        {
            "deltaTime": 371,
            "channel": 0,
            "type": "noteOff",
            "noteNumber": 81,
            "velocity": 0
        },
        {
            "deltaTime": 170,
            "channel": 0,
            "type": "noteOff",
            "noteNumber": 85,
            "velocity": 0
        },
        {
            "deltaTime": 23,
            "channel": 0,
            "type": "noteOff",
            "noteNumber": 64,
            "velocity": 0
        },
        {
            "deltaTime": 0,
            "channel": 0,
            "type": "noteOff",
            "noteNumber": 73,
            "velocity": 0
        },
        {
            "deltaTime": 7,
            "channel": 0,
            "type": "noteOn",
            "noteNumber": 76,
            "velocity": 57
        },
        {
            "deltaTime": 0,
            "channel": 0,
            "type": "noteOn",
            "noteNumber": 93,
            "velocity": 78
        },
        {
            "deltaTime": 357,
            "channel": 0,
            "type": "noteOff",
            "noteNumber": 93,
            "velocity": 0
        },
        {
            "deltaTime": 213,
            "channel": 0,
            "type": "noteOn",
            "noteNumber": 75,
            "velocity": 70
        },
        {
            "deltaTime": 0,
            "channel": 0,
            "type": "noteOn",
            "noteNumber": 78,
            "velocity": 41
        },
        {
            "deltaTime": 0,
            "channel": 0,
            "type": "noteOn",
            "noteNumber": 56,
            "velocity": 58
        },
        {
            "deltaTime": 0,
            "channel": 0,
            "type": "noteOn",
            "noteNumber": 87,
            "velocity": 75
        },
        {
            "deltaTime": 4,
            "channel": 0,
            "type": "noteOff",
            "noteNumber": 76,
            "velocity": 0
        },
        {
            "deltaTime": 187,
            "channel": 0,
            "type": "noteOff",
            "noteNumber": 56,
            "velocity": 0
        },
        {
            "deltaTime": 2,
            "channel": 0,
            "type": "noteOn",
            "noteNumber": 63,
            "velocity": 62
        },
        {
            "deltaTime": 120,
            "channel": 0,
            "type": "noteOff",
            "noteNumber": 78,
            "velocity": 0
        },
        {
            "deltaTime": 71,
            "channel": 0,
            "type": "noteOff",
            "noteNumber": 63,
            "velocity": 0
        },
        {
            "deltaTime": 2,
            "channel": 0,
            "type": "noteOn",
            "noteNumber": 66,
            "velocity": 64
        },
        {
            "deltaTime": 38,
            "channel": 0,
            "type": "noteOff",
            "noteNumber": 87,
            "velocity": 0
        },
        {
            "deltaTime": 16,
            "channel": 0,
            "type": "noteOff",
            "noteNumber": 75,
            "velocity": 0
        },
        {
            "deltaTime": 136,
            "channel": 0,
            "type": "noteOff",
            "noteNumber": 66,
            "velocity": 0
        },
        {
            "deltaTime": 2,
            "channel": 0,
            "type": "noteOn",
            "noteNumber": 85,
            "velocity": 37
        },
        {
            "deltaTime": 0,
            "channel": 0,
            "type": "noteOn",
            "noteNumber": 69,
            "velocity": 42
        },
        {
            "deltaTime": 0,
            "channel": 0,
            "type": "noteOn",
            "noteNumber": 81,
            "velocity": 38
        },
        {
            "deltaTime": 0,
            "channel": 0,
            "type": "noteOn",
            "noteNumber": 60,
            "velocity": 37
        },
        {
            "deltaTime": 182,
            "channel": 0,
            "type": "noteOn",
            "noteNumber": 72,
            "velocity": 62
        },
        {
            "deltaTime": 9,
            "channel": 0,
            "type": "noteOff",
            "noteNumber": 85,
            "velocity": 0
        },
        {
            "deltaTime": 0,
            "channel": 0,
            "type": "noteOff",
            "noteNumber": 60,
            "velocity": 0
        },
        {
            "deltaTime": 0,
            "channel": 0,
            "type": "noteOff",
            "noteNumber": 69,
            "velocity": 0
        },
        {
            "deltaTime": 9,
            "channel": 0,
            "type": "noteOff",
            "noteNumber": 81,
            "velocity": 0
        },
        {
            "deltaTime": 172,
            "channel": 0,
            "type": "noteOff",
            "noteNumber": 72,
            "velocity": 0
        },
        {
            "deltaTime": 2,
            "channel": 0,
            "type": "noteOn",
            "noteNumber": 75,
            "velocity": 60
        },
        {
            "deltaTime": 192,
            "channel": 0,
            "type": "noteOff",
            "noteNumber": 75,
            "velocity": 0
        },
        {
            "deltaTime": 2,
            "channel": 0,
            "type": "noteOn",
            "noteNumber": 80,
            "velocity": 62
        },
        {
            "deltaTime": 0,
            "channel": 0,
            "type": "noteOn",
            "noteNumber": 72,
            "velocity": 66
        },
        {
            "deltaTime": 0,
            "channel": 0,
            "type": "noteOn",
            "noteNumber": 84,
            "velocity": 79
        },
        {
            "deltaTime": 0,
            "channel": 0,
            "type": "noteOn",
            "noteNumber": 78,
            "velocity": 50
        },
        {
            "deltaTime": 0,
            "channel": 0,
            "type": "noteOn",
            "noteNumber": 63,
            "velocity": 36
        },
        {
            "deltaTime": 571,
            "channel": 0,
            "type": "noteOn",
            "noteNumber": 66,
            "velocity": 67
        },
        {
            "deltaTime": 0,
            "channel": 0,
            "type": "noteOn",
            "noteNumber": 92,
            "velocity": 96
        },
        {
            "deltaTime": 0,
            "channel": 0,
            "type": "noteOn",
            "noteNumber": 69,
            "velocity": 51
        },
        {
            "deltaTime": 4,
            "channel": 0,
            "type": "noteOff",
            "noteNumber": 84,
            "velocity": 0
        },
        {
            "deltaTime": 0,
            "channel": 0,
            "type": "noteOff",
            "noteNumber": 72,
            "velocity": 0
        },
        {
            "deltaTime": 0,
            "channel": 0,
            "type": "noteOff",
            "noteNumber": 78,
            "velocity": 0
        },
        {
            "deltaTime": 0,
            "channel": 0,
            "type": "noteOff",
            "noteNumber": 80,
            "velocity": 0
        },
        {
            "deltaTime": 0,
            "channel": 0,
            "type": "noteOff",
            "noteNumber": 63,
            "velocity": 0
        },
        {
            "deltaTime": 352,
            "channel": 0,
            "type": "noteOff",
            "noteNumber": 92,
            "velocity": 0
        },
        {
            "deltaTime": 218,
            "channel": 0,
            "type": "noteOff",
            "noteNumber": 66,
            "velocity": 0
        },
        {
            "deltaTime": 0,
            "channel": 0,
            "type": "noteOff",
            "noteNumber": 69,
            "velocity": 0
        },
        {
            "deltaTime": 7,
            "channel": 0,
            "type": "noteOn",
            "noteNumber": 76,
            "velocity": 67
        },
        {
            "deltaTime": 0,
            "channel": 0,
            "type": "noteOn",
            "noteNumber": 85,
            "velocity": 93
        },
        {
            "deltaTime": 0,
            "channel": 0,
            "type": "noteOn",
            "noteNumber": 49,
            "velocity": 67
        },
        {
            "deltaTime": 0,
            "channel": 0,
            "type": "noteOn",
            "noteNumber": 37,
            "velocity": 67
        },
        {
            "deltaTime": 192,
            "channel": 0,
            "type": "noteOff",
            "noteNumber": 49,
            "velocity": 0
        },
        {
            "deltaTime": 2,
            "channel": 0,
            "type": "noteOn",
            "noteNumber": 61,
            "velocity": 61
        },
        {
            "deltaTime": 60,
            "channel": 0,
            "type": "noteOff",
            "noteNumber": 37,
            "velocity": 0
        },
        {
            "deltaTime": 0,
            "channel": 0,
            "type": "noteOff",
            "noteNumber": 76,
            "velocity": 0
        },
        {
            "deltaTime": 0,
            "channel": 0,
            "type": "noteOff",
            "noteNumber": 85,
            "velocity": 0
        },
        {
            "deltaTime": 122,
            "channel": 0,
            "type": "noteOn",
            "noteNumber": 68,
            "velocity": 79
        },
        {
            "deltaTime": 9,
            "channel": 0,
            "type": "noteOff",
            "noteNumber": 61,
            "velocity": 0
        },
        {
            "deltaTime": 182,
            "channel": 0,
            "type": "noteOff",
            "noteNumber": 68,
            "velocity": 0
        },
        {
            "deltaTime": 2,
            "channel": 0,
            "type": "noteOn",
            "noteNumber": 73,
            "velocity": 81
        },
        {
            "deltaTime": 0,
            "channel": 0,
            "type": "noteOn",
            "noteNumber": 84,
            "velocity": 81
        },
        {
            "deltaTime": 192,
            "channel": 0,
            "type": "noteOff",
            "noteNumber": 84,
            "velocity": 0
        },
        {
            "deltaTime": 0,
            "channel": 0,
            "type": "noteOff",
            "noteNumber": 73,
            "velocity": 0
        },
        {
            "deltaTime": 2,
            "channel": 0,
            "type": "noteOn",
            "noteNumber": 76,
            "velocity": 79
        },
        {
            "deltaTime": 192,
            "channel": 0,
            "type": "noteOff",
            "noteNumber": 76,
            "velocity": 0
        },
        {
            "deltaTime": 2,
            "channel": 0,
            "type": "noteOn",
            "noteNumber": 80,
            "velocity": 86
        },
        {
            "deltaTime": 192,
            "channel": 0,
            "type": "noteOff",
            "noteNumber": 80,
            "velocity": 0
        },
        {
            "deltaTime": 2,
            "channel": 0,
            "type": "noteOn",
            "noteNumber": 68,
            "velocity": 77
        },
        {
            "deltaTime": 0,
            "channel": 0,
            "type": "noteOn",
            "noteNumber": 87,
            "velocity": 78
        },
        {
            "deltaTime": 0,
            "channel": 0,
            "type": "noteOn",
            "noteNumber": 78,
            "velocity": 77
        },
        {
            "deltaTime": 0,
            "channel": 0,
            "type": "noteOn",
            "noteNumber": 75,
            "velocity": 84
        },
        {
            "deltaTime": 554,
            "channel": 0,
            "type": "noteOff",
            "noteNumber": 87,
            "velocity": 0
        },
        {
            "deltaTime": 16,
            "channel": 0,
            "type": "noteOn",
            "noteNumber": 73,
            "velocity": 93
        },
        {
            "deltaTime": 4,
            "channel": 0,
            "type": "noteOff",
            "noteNumber": 78,
            "velocity": 0
        },
        {
            "deltaTime": 0,
            "channel": 0,
            "type": "noteOff",
            "noteNumber": 75,
            "velocity": 0
        },
        {
            "deltaTime": 0,
            "channel": 0,
            "type": "noteOff",
            "noteNumber": 68,
            "velocity": 0
        },
        {
            "deltaTime": 31,
            "channel": 0,
            "type": "noteOn",
            "noteNumber": 85,
            "velocity": 93
        },
        {
            "deltaTime": 347,
            "channel": 0,
            "type": "noteOff",
            "noteNumber": 73,
            "velocity": 0
        },
        {
            "deltaTime": 62,
            "channel": 0,
            "type": "noteOff",
            "noteNumber": 85,
            "velocity": 0
        },
        {
            "deltaTime": 136,
            "channel": 0,
            "type": "noteOn",
            "noteNumber": 51,
            "velocity": 102
        },
        {
            "deltaTime": 0,
            "channel": 0,
            "type": "noteOn",
            "noteNumber": 88,
            "velocity": 110
        },
        {
            "deltaTime": 0,
            "channel": 0,
            "type": "noteOn",
            "noteNumber": 60,
            "velocity": 102
        },
        {
            "deltaTime": 0,
            "channel": 0,
            "type": "noteOn",
            "noteNumber": 39,
            "velocity": 102
        },
        {
            "deltaTime": 0,
            "channel": 0,
            "type": "noteOn",
            "noteNumber": 68,
            "velocity": 103
        },
        {
            "deltaTime": 0,
            "channel": 0,
            "type": "noteOn",
            "noteNumber": 76,
            "velocity": 105
        },
        {
            "deltaTime": 383,
            "channel": 0,
            "type": "noteOff",
            "noteNumber": 68,
            "velocity": 0
        },
        {
            "deltaTime": 0,
            "channel": 0,
            "type": "noteOff",
            "noteNumber": 51,
            "velocity": 0
        },
        {
            "deltaTime": 0,
            "channel": 0,
            "type": "noteOff",
            "noteNumber": 88,
            "velocity": 0
        },
        {
            "deltaTime": 0,
            "channel": 0,
            "type": "noteOff",
            "noteNumber": 39,
            "velocity": 0
        },
        {
            "deltaTime": 0,
            "channel": 0,
            "type": "noteOff",
            "noteNumber": 60,
            "velocity": 0
        },
        {
            "deltaTime": 0,
            "channel": 0,
            "type": "noteOff",
            "noteNumber": 76,
            "velocity": 0
        },
        {
            "deltaTime": 187,
            "channel": 0,
            "type": "noteOn",
            "noteNumber": 68,
            "velocity": 71
        },
        {
            "deltaTime": 0,
            "channel": 0,
            "type": "noteOn",
            "noteNumber": 60,
            "velocity": 78
        },
        {
            "deltaTime": 0,
            "channel": 0,
            "type": "noteOn",
            "noteNumber": 76,
            "velocity": 96
        },
        {
            "deltaTime": 192,
            "channel": 0,
            "type": "noteOff",
            "noteNumber": 68,
            "velocity": 0
        },
        {
            "deltaTime": 0,
            "channel": 0,
            "type": "noteOff",
            "noteNumber": 76,
            "velocity": 0
        },
        {
            "deltaTime": 0,
            "channel": 0,
            "type": "noteOff",
            "noteNumber": 60,
            "velocity": 0
        },
        {
            "deltaTime": 379,
            "channel": 0,
            "type": "noteOn",
            "noteNumber": 69,
            "velocity": 103
        },
        {
            "deltaTime": 0,
            "channel": 0,
            "type": "noteOn",
            "noteNumber": 78,
            "velocity": 103
        },
        {
            "deltaTime": 0,
            "channel": 0,
            "type": "noteOn",
            "noteNumber": 54,
            "velocity": 90
        },
        {
            "deltaTime": 0,
            "channel": 0,
            "type": "noteOn",
            "noteNumber": 73,
            "velocity": 116
        },
        {
            "deltaTime": 0,
            "channel": 0,
            "type": "noteOn",
            "noteNumber": 45,
            "velocity": 104
        },
        {
            "deltaTime": 0,
            "channel": 0,
            "type": "noteOn",
            "noteNumber": 64,
            "velocity": 110
        },
        {
            "deltaTime": 384,
            "channel": 0,
            "type": "noteOff",
            "noteNumber": 54,
            "velocity": 0
        },
        {
            "deltaTime": 0,
            "channel": 0,
            "type": "noteOff",
            "noteNumber": 45,
            "velocity": 0
        },
        {
            "deltaTime": 0,
            "channel": 0,
            "type": "noteOff",
            "noteNumber": 78,
            "velocity": 0
        },
        {
            "deltaTime": 0,
            "channel": 0,
            "type": "noteOff",
            "noteNumber": 69,
            "velocity": 0
        },
        {
            "deltaTime": 0,
            "channel": 0,
            "type": "noteOff",
            "noteNumber": 64,
            "velocity": 0
        },
        {
            "deltaTime": 0,
            "channel": 0,
            "type": "noteOff",
            "noteNumber": 73,
            "velocity": 0
        },
        {
            "deltaTime": 199,
            "channel": 0,
            "type": "noteOn",
            "noteNumber": 57,
            "velocity": 107
        },
        {
            "deltaTime": 0,
            "channel": 0,
            "type": "noteOn",
            "noteNumber": 78,
            "velocity": 104
        },
        {
            "deltaTime": 0,
            "channel": 0,
            "type": "noteOn",
            "noteNumber": 75,
            "velocity": 89
        },
        {
            "deltaTime": 192,
            "channel": 0,
            "type": "noteOff",
            "noteNumber": 75,
            "velocity": 0
        },
        {
            "deltaTime": 0,
            "channel": 0,
            "type": "noteOff",
            "noteNumber": 57,
            "velocity": 0
        },
        {
            "deltaTime": 12,
            "channel": 0,
            "type": "noteOff",
            "noteNumber": 78,
            "velocity": 0
        },
        {
            "deltaTime": 367,
            "channel": 0,
            "type": "noteOn",
            "noteNumber": 64,
            "velocity": 123
        },
        {
            "deltaTime": 0,
            "channel": 0,
            "type": "noteOn",
            "noteNumber": 68,
            "velocity": 123
        },
        {
            "deltaTime": 0,
            "channel": 0,
            "type": "noteOn",
            "noteNumber": 80,
            "velocity": 123
        },
        {
            "deltaTime": 0,
            "channel": 0,
            "type": "noteOn",
            "noteNumber": 56,
            "velocity": 123
        },
        {
            "deltaTime": 0,
            "channel": 0,
            "type": "noteOn",
            "noteNumber": 49,
            "velocity": 123
        },
        {
            "deltaTime": 384,
            "channel": 0,
            "type": "noteOff",
            "noteNumber": 64,
            "velocity": 0
        },
        {
            "deltaTime": 0,
            "channel": 0,
            "type": "noteOff",
            "noteNumber": 68,
            "velocity": 0
        },
        {
            "deltaTime": 0,
            "channel": 0,
            "type": "noteOff",
            "noteNumber": 80,
            "velocity": 0
        },
        {
            "deltaTime": 0,
            "channel": 0,
            "type": "noteOff",
            "noteNumber": 56,
            "velocity": 0
        },
        {
            "deltaTime": 21,
            "channel": 0,
            "type": "noteOff",
            "noteNumber": 49,
            "velocity": 0
        },
        {
            "deltaTime": 177,
            "channel": 0,
            "type": "noteOn",
            "noteNumber": 37,
            "velocity": 123
        },
        {
            "deltaTime": 279,
            "channel": 0,
            "type": "noteOn",
            "noteNumber": 85,
            "velocity": 95
        },
        {
            "deltaTime": 0,
            "channel": 0,
            "type": "noteOn",
            "noteNumber": 73,
            "velocity": 95
        },
        {
            "deltaTime": 0,
            "channel": 0,
            "type": "noteOn",
            "noteNumber": 44,
            "velocity": 95
        },
        {
            "deltaTime": 0,
            "channel": 0,
            "type": "noteOn",
            "noteNumber": 56,
            "velocity": 95
        },
        {
            "deltaTime": 133,
            "channel": 0,
            "type": "noteOff",
            "noteNumber": 37,
            "velocity": 0
        },
        {
            "deltaTime": 22,
            "channel": 0,
            "type": "noteOff",
            "noteNumber": 44,
            "velocity": 0
        },
        {
            "deltaTime": 0,
            "channel": 0,
            "type": "noteOff",
            "noteNumber": 85,
            "velocity": 0
        },
        {
            "deltaTime": 0,
            "channel": 0,
            "type": "noteOff",
            "noteNumber": 73,
            "velocity": 0
        },
        {
            "deltaTime": 0,
            "channel": 0,
            "type": "noteOff",
            "noteNumber": 56,
            "velocity": 0
        },
        {
            "deltaTime": 135,
            "channel": 0,
            "type": "noteOn",
            "noteNumber": 76,
            "velocity": 123
        },
        {
            "deltaTime": 0,
            "channel": 0,
            "type": "noteOn",
            "noteNumber": 73,
            "velocity": 115
        },
        {
            "deltaTime": 0,
            "channel": 0,
            "type": "noteOn",
            "noteNumber": 32,
            "velocity": 120
        },
        {
            "deltaTime": 0,
            "channel": 0,
            "type": "noteOn",
            "noteNumber": 85,
            "velocity": 123
        },
        {
            "deltaTime": 0,
            "channel": 0,
            "type": "noteOn",
            "noteNumber": 61,
            "velocity": 101
        },
        {
            "deltaTime": 0,
            "channel": 0,
            "type": "noteOn",
            "noteNumber": 80,
            "velocity": 123
        },
        {
            "deltaTime": 0,
            "channel": 0,
            "type": "noteOn",
            "noteNumber": 44,
            "velocity": 120
        },
        {
            "deltaTime": 192,
            "channel": 0,
            "type": "noteOff",
            "noteNumber": 85,
            "velocity": 0
        },
        {
            "deltaTime": 0,
            "channel": 0,
            "type": "noteOff",
            "noteNumber": 61,
            "velocity": 0
        },
        {
            "deltaTime": 0,
            "channel": 0,
            "type": "noteOff",
            "noteNumber": 73,
            "velocity": 0
        },
        {
            "deltaTime": 0,
            "channel": 0,
            "type": "noteOff",
            "noteNumber": 80,
            "velocity": 0
        },
        {
            "deltaTime": 0,
            "channel": 0,
            "type": "noteOff",
            "noteNumber": 76,
            "velocity": 0
        },
        {
            "deltaTime": 2,
            "channel": 0,
            "type": "noteOn",
            "noteNumber": 64,
            "velocity": 91
        },
        {
            "deltaTime": 189,
            "channel": 0,
            "type": "noteOff",
            "noteNumber": 44,
            "velocity": 0
        },
        {
            "deltaTime": 2,
            "channel": 0,
            "type": "noteOff",
            "noteNumber": 64,
            "velocity": 0
        },
        {
            "deltaTime": 2,
            "channel": 0,
            "type": "noteOn",
            "noteNumber": 68,
            "velocity": 110
        },
        {
            "deltaTime": 7,
            "channel": 0,
            "type": "noteOff",
            "noteNumber": 32,
            "velocity": 0
        },
        {
            "deltaTime": 175,
            "channel": 0,
            "type": "noteOn",
            "noteNumber": 73,
            "velocity": 99
        },
        {
            "deltaTime": 0,
            "channel": 0,
            "type": "noteOn",
            "noteNumber": 46,
            "velocity": 80
        },
        {
            "deltaTime": 9,
            "channel": 0,
            "type": "noteOff",
            "noteNumber": 68,
            "velocity": 0
        },
        {
            "deltaTime": 182,
            "channel": 0,
            "type": "noteOff",
            "noteNumber": 73,
            "velocity": 0
        },
        {
            "deltaTime": 2,
            "channel": 0,
            "type": "noteOn",
            "noteNumber": 76,
            "velocity": 103
        },
        {
            "deltaTime": 192,
            "channel": 0,
            "type": "noteOff",
            "noteNumber": 76,
            "velocity": 0
        },
        {
            "deltaTime": 2,
            "channel": 0,
            "type": "noteOn",
            "noteNumber": 80,
            "velocity": 116
        },
        {
            "deltaTime": 52,
            "channel": 0,
            "type": "noteOff",
            "noteNumber": 46,
            "velocity": 0
        },
        {
            "deltaTime": 139,
            "channel": 0,
            "type": "noteOff",
            "noteNumber": 80,
            "velocity": 0
        },
        {
            "deltaTime": 2,
            "channel": 0,
            "type": "noteOn",
            "noteNumber": 78,
            "velocity": 122
        },
        {
            "deltaTime": 0,
            "channel": 0,
            "type": "noteOn",
            "noteNumber": 85,
            "velocity": 94
        },
        {
            "deltaTime": 0,
            "channel": 0,
            "type": "noteOn",
            "noteNumber": 66,
            "velocity": 119
        },
        {
            "deltaTime": 0,
            "channel": 0,
            "type": "noteOn",
            "noteNumber": 48,
            "velocity": 115
        },
        {
            "deltaTime": 0,
            "channel": 0,
            "type": "noteOn",
            "noteNumber": 63,
            "velocity": 105
        },
        {
            "deltaTime": 279,
            "channel": 0,
            "type": "noteOn",
            "noteNumber": 87,
            "velocity": 106
        },
        {
            "deltaTime": 8,
            "channel": 0,
            "type": "noteOff",
            "noteNumber": 48,
            "velocity": 0
        },
        {
            "deltaTime": 0,
            "channel": 0,
            "type": "noteOff",
            "noteNumber": 85,
            "velocity": 0
        },
        {
            "deltaTime": 279,
            "channel": 0,
            "type": "noteOff",
            "noteNumber": 87,
            "velocity": 0
        },
        {
            "deltaTime": 3,
            "channel": 0,
            "type": "noteOn",
            "noteNumber": 49,
            "velocity": 103
        },
        {
            "deltaTime": 0,
            "channel": 0,
            "type": "noteOn",
            "noteNumber": 85,
            "velocity": 82
        },
        {
            "deltaTime": 4,
            "channel": 0,
            "type": "noteOff",
            "noteNumber": 66,
            "velocity": 0
        },
        {
            "deltaTime": 0,
            "channel": 0,
            "type": "noteOff",
            "noteNumber": 63,
            "velocity": 0
        },
        {
            "deltaTime": 0,
            "channel": 0,
            "type": "noteOff",
            "noteNumber": 78,
            "velocity": 0
        },
        {
            "deltaTime": 283,
            "channel": 0,
            "type": "noteOff",
            "noteNumber": 85,
            "velocity": 0
        },
        {
            "deltaTime": 0,
            "channel": 0,
            "type": "noteOff",
            "noteNumber": 49,
            "velocity": 0
        },
        {
            "deltaTime": 3,
            "channel": 0,
            "type": "noteOn",
            "noteNumber": 84,
            "velocity": 111
        },
        {
            "deltaTime": 287,
            "channel": 0,
            "type": "noteOff",
            "noteNumber": 84,
            "velocity": 0
        },
        {
            "deltaTime": 3,
            "channel": 0,
            "type": "noteOn",
            "noteNumber": 69,
            "velocity": 122
        },
        {
            "deltaTime": 0,
            "channel": 0,
            "type": "noteOn",
            "noteNumber": 66,
            "velocity": 89
        },
        {
            "deltaTime": 0,
            "channel": 0,
            "type": "noteOn",
            "noteNumber": 39,
            "velocity": 118
        },
        {
            "deltaTime": 0,
            "channel": 0,
            "type": "noteOn",
            "noteNumber": 57,
            "velocity": 122
        },
        {
            "deltaTime": 0,
            "channel": 0,
            "type": "noteOn",
            "noteNumber": 81,
            "velocity": 123
        },
        {
            "deltaTime": 0,
            "channel": 0,
            "type": "noteOn",
            "noteNumber": 51,
            "velocity": 118
        },
        {
            "deltaTime": 279,
            "channel": 0,
            "type": "noteOn",
            "noteNumber": 80,
            "velocity": 94
        },
        {
            "deltaTime": 8,
            "channel": 0,
            "type": "noteOff",
            "noteNumber": 81,
            "velocity": 0
        },
        {
            "deltaTime": 151,
            "channel": 0,
            "type": "noteOff",
            "noteNumber": 39,
            "velocity": 0
        },
        {
            "deltaTime": 0,
            "channel": 0,
            "type": "noteOff",
            "noteNumber": 51,
            "velocity": 0
        },
        {
            "deltaTime": 128,
            "channel": 0,
            "type": "noteOff",
            "noteNumber": 80,
            "velocity": 0
        },
        {
            "deltaTime": 3,
            "channel": 0,
            "type": "noteOn",
            "noteNumber": 78,
            "velocity": 98
        },
        {
            "deltaTime": 0,
            "channel": 0,
            "type": "noteOn",
            "noteNumber": 64,
            "velocity": 99
        },
        {
            "deltaTime": 0,
            "channel": 0,
            "type": "noteOn",
            "noteNumber": 52,
            "velocity": 123
        },
        {
            "deltaTime": 69,
            "channel": 0,
            "type": "noteOff",
            "noteNumber": 66,
            "velocity": 0
        },
        {
            "deltaTime": 0,
            "channel": 0,
            "type": "noteOff",
            "noteNumber": 57,
            "velocity": 0
        },
        {
            "deltaTime": 0,
            "channel": 0,
            "type": "noteOff",
            "noteNumber": 69,
            "velocity": 0
        },
        {
            "deltaTime": 122,
            "channel": 0,
            "type": "noteOff",
            "noteNumber": 78,
            "velocity": 0
        },
        {
            "deltaTime": 2,
            "channel": 0,
            "type": "noteOn",
            "noteNumber": 75,
            "velocity": 89
        },
        {
            "deltaTime": 192,
            "channel": 0,
            "type": "noteOff",
            "noteNumber": 75,
            "velocity": 0
        },
        {
            "deltaTime": 2,
            "channel": 0,
            "type": "noteOn",
            "noteNumber": 68,
            "velocity": 104
        },
        {
            "deltaTime": 98,
            "channel": 0,
            "type": "noteOff",
            "noteNumber": 64,
            "velocity": 0
        },
        {
            "deltaTime": 0,
            "channel": 0,
            "type": "noteOff",
            "noteNumber": 52,
            "velocity": 0
        },
        {
            "deltaTime": 83,
            "channel": 0,
            "type": "noteOn",
            "noteNumber": 76,
            "velocity": 119
        },
        {
            "deltaTime": 0,
            "channel": 0,
            "type": "noteOn",
            "noteNumber": 64,
            "velocity": 119
        },
        {
            "deltaTime": 0,
            "channel": 0,
            "type": "noteOn",
            "noteNumber": 44,
            "velocity": 114
        },
        {
            "deltaTime": 9,
            "channel": 0,
            "type": "noteOff",
            "noteNumber": 68,
            "velocity": 0
        },
        {
            "deltaTime": 278,
            "channel": 0,
            "type": "noteOff",
            "noteNumber": 44,
            "velocity": 0
        },
        {
            "deltaTime": 3,
            "channel": 0,
            "type": "noteOn",
            "noteNumber": 56,
            "velocity": 89
        },
        {
            "deltaTime": 70,
            "channel": 0,
            "type": "noteOff",
            "noteNumber": 76,
            "velocity": 0
        },
        {
            "deltaTime": 0,
            "channel": 0,
            "type": "noteOff",
            "noteNumber": 64,
            "velocity": 0
        },
        {
            "deltaTime": 217,
            "channel": 0,
            "type": "noteOff",
            "noteNumber": 56,
            "velocity": 0
        },
        {
            "deltaTime": 3,
            "channel": 0,
            "type": "noteOn",
            "noteNumber": 63,
            "velocity": 115
        },
        {
            "deltaTime": 0,
            "channel": 0,
            "type": "noteOn",
            "noteNumber": 55,
            "velocity": 111
        },
        {
            "deltaTime": 0,
            "channel": 0,
            "type": "noteOn",
            "noteNumber": 75,
            "velocity": 101
        },
        {
            "deltaTime": 287,
            "channel": 0,
            "type": "noteOff",
            "noteNumber": 55,
            "velocity": 0
        },
        {
            "deltaTime": 3,
            "channel": 0,
            "type": "noteOn",
            "noteNumber": 56,
            "velocity": 86
        },
        {
            "deltaTime": 56,
            "channel": 0,
            "type": "noteOff",
            "noteNumber": 63,
            "velocity": 0
        },
        {
            "deltaTime": 0,
            "channel": 0,
            "type": "noteOff",
            "noteNumber": 75,
            "velocity": 0
        },
        {
            "deltaTime": 223,
            "channel": 0,
            "type": "noteOn",
            "noteNumber": 73,
            "velocity": 104
        },
        {
            "deltaTime": 0,
            "channel": 0,
            "type": "noteOn",
            "noteNumber": 61,
            "velocity": 104
        },
        {
            "deltaTime": 0,
            "channel": 0,
            "type": "noteOn",
            "noteNumber": 54,
            "velocity": 89
        },
        {
            "deltaTime": 8,
            "channel": 0,
            "type": "noteOff",
            "noteNumber": 56,
            "velocity": 0
        },
        {
            "deltaTime": 279,
            "channel": 0,
            "type": "noteOff",
            "noteNumber": 54,
            "velocity": 0
        },
        {
            "deltaTime": 0,
            "channel": 0,
            "type": "noteOff",
            "noteNumber": 73,
            "velocity": 0
        },
        {
            "deltaTime": 0,
            "channel": 0,
            "type": "noteOff",
            "noteNumber": 61,
            "velocity": 0
        },
        {
            "deltaTime": 3,
            "channel": 0,
            "type": "noteOn",
            "noteNumber": 56,
            "velocity": 108
        },
        {
            "deltaTime": 242,
            "channel": 0,
            "type": "noteOff",
            "noteNumber": 56,
            "velocity": 0
        },
        {
            "deltaTime": 49,
            "channel": 0,
            "type": "noteOn",
            "noteNumber": 72,
            "velocity": 96
        },
        {
            "deltaTime": 0,
            "channel": 0,
            "type": "noteOn",
            "noteNumber": 52,
            "velocity": 103
        },
        {
            "deltaTime": 0,
            "channel": 0,
            "type": "noteOn",
            "noteNumber": 60,
            "velocity": 96
        },
        {
            "deltaTime": 279,
            "channel": 0,
            "type": "noteOn",
            "noteNumber": 56,
            "velocity": 96
        },
        {
            "deltaTime": 8,
            "channel": 0,
            "type": "noteOff",
            "noteNumber": 52,
            "velocity": 0
        },
        {
            "deltaTime": 279,
            "channel": 0,
            "type": "noteOff",
            "noteNumber": 56,
            "velocity": 0
        },
        {
            "deltaTime": 3,
            "channel": 0,
            "type": "noteOn",
            "noteNumber": 49,
            "velocity": 122
        },
        {
            "deltaTime": 0,
            "channel": 0,
            "type": "noteOn",
            "noteNumber": 61,
            "velocity": 114
        },
        {
            "deltaTime": 0,
            "channel": 0,
            "type": "noteOn",
            "noteNumber": 73,
            "velocity": 114
        },
        {
            "deltaTime": 0,
            "channel": 0,
            "type": "noteOn",
            "noteNumber": 37,
            "velocity": 122
        },
        {
            "deltaTime": 4,
            "channel": 0,
            "type": "noteOff",
            "noteNumber": 72,
            "velocity": 0
        },
        {
            "deltaTime": 0,
            "channel": 0,
            "type": "noteOff",
            "noteNumber": 60,
            "velocity": 0
        },
        {
            "deltaTime": 225,
            "channel": 0,
            "type": "noteOff",
            "noteNumber": 61,
            "velocity": 0
        },
        {
            "deltaTime": 0,
            "channel": 0,
            "type": "noteOff",
            "noteNumber": 73,
            "velocity": 0
        },
        {
            "deltaTime": 153,
            "channel": 0,
            "type": "noteOff",
            "noteNumber": 49,
            "velocity": 0
        },
        {
            "deltaTime": 0,
            "channel": 0,
            "type": "noteOff",
            "noteNumber": 37,
            "velocity": 0
        },
        {
            "deltaTime": 187,
            "channel": 0,
            "type": "noteOn",
            "noteNumber": 72,
            "velocity": 88
        },
        {
            "deltaTime": 287,
            "channel": 0,
            "type": "noteOff",
            "noteNumber": 72,
            "velocity": 0
        },
        {
            "deltaTime": 3,
            "channel": 0,
            "type": "noteOn",
            "noteNumber": 73,
            "velocity": 75
        },
        {
            "deltaTime": 36,
            "channel": 0,
            "type": "noteOn",
            "noteNumber": 85,
            "velocity": 70
        },
        {
            "deltaTime": 251,
            "channel": 0,
            "type": "noteOff",
            "noteNumber": 73,
            "velocity": 0
        },
        {
            "deltaTime": 3,
            "channel": 0,
            "type": "noteOn",
            "noteNumber": 71,
            "velocity": 89
        },
        {
            "deltaTime": 1,
            "channel": 0,
            "type": "noteOff",
            "noteNumber": 85,
            "velocity": 0
        },
        {
            "deltaTime": 286,
            "channel": 0,
            "type": "noteOff",
            "noteNumber": 71,
            "velocity": 0
        },
        {
            "deltaTime": 3,
            "channel": 0,
            "type": "noteOn",
            "noteNumber": 73,
            "velocity": 79
        },
        {
            "deltaTime": 24,
            "channel": 0,
            "type": "noteOn",
            "noteNumber": 85,
            "velocity": 76
        },
        {
            "deltaTime": 255,
            "channel": 0,
            "type": "noteOn",
            "noteNumber": 69,
            "velocity": 96
        },
        {
            "deltaTime": 1,
            "channel": 0,
            "type": "noteOff",
            "noteNumber": 85,
            "velocity": 0
        },
        {
            "deltaTime": 6,
            "channel": 0,
            "type": "noteOff",
            "noteNumber": 73,
            "velocity": 0
        },
        {
            "deltaTime": 279,
            "channel": 0,
            "type": "noteOff",
            "noteNumber": 69,
            "velocity": 0
        },
        {
            "deltaTime": 3,
            "channel": 0,
            "type": "noteOn",
            "noteNumber": 73,
            "velocity": 103
        },
        {
            "deltaTime": 36,
            "channel": 0,
            "type": "noteOn",
            "noteNumber": 85,
            "velocity": 108
        },
        {
            "deltaTime": 242,
            "channel": 0,
            "type": "noteOn",
            "noteNumber": 97,
            "velocity": 118
        },
        {
            "deltaTime": 0,
            "channel": 0,
            "type": "noteOn",
            "noteNumber": 88,
            "velocity": 118
        },
        {
            "deltaTime": 8,
            "channel": 0,
            "type": "noteOff",
            "noteNumber": 73,
            "velocity": 0
        },
        {
            "deltaTime": 3,
            "channel": 0,
            "type": "noteOn",
            "noteNumber": 68,
            "velocity": 114
        },
        {
            "deltaTime": 0,
            "channel": 0,
            "type": "noteOn",
            "noteNumber": 80,
            "velocity": 114
        },
        {
            "deltaTime": 1,
            "channel": 0,
            "type": "noteOff",
            "noteNumber": 85,
            "velocity": 0
        },
        {
            "deltaTime": 233,
            "channel": 0,
            "type": "noteOff",
            "noteNumber": 97,
            "velocity": 0
        },
        {
            "deltaTime": 47,
            "channel": 0,
            "type": "noteOff",
            "noteNumber": 88,
            "velocity": 0
        },
        {
            "deltaTime": 4,
            "channel": 0,
            "type": "noteOff",
            "noteNumber": 80,
            "velocity": 0
        },
        {
            "deltaTime": 0,
            "channel": 0,
            "type": "noteOff",
            "noteNumber": 68,
            "velocity": 0
        },
        {
            "deltaTime": 283,
            "channel": 0,
            "type": "noteOn",
            "noteNumber": 37,
            "velocity": 59
        },
        {
            "deltaTime": 0,
            "channel": 0,
            "type": "noteOn",
            "noteNumber": 85,
            "velocity": 67
        },
        {
            "deltaTime": 0,
            "channel": 0,
            "type": "noteOn",
            "noteNumber": 73,
            "velocity": 71
        },
        {
            "deltaTime": 287,
            "channel": 0,
            "type": "noteOff",
            "noteNumber": 73,
            "velocity": 0
        },
        {
            "deltaTime": 0,
            "channel": 0,
            "type": "noteOff",
            "noteNumber": 37,
            "velocity": 0
        },
        {
            "deltaTime": 283,
            "channel": 0,
            "type": "noteOn",
            "noteNumber": 56,
            "velocity": 68
        },
        {
            "deltaTime": 0,
            "channel": 0,
            "type": "noteOn",
            "noteNumber": 95,
            "velocity": 80
        },
        {
            "deltaTime": 0,
            "channel": 0,
            "type": "noteOn",
            "noteNumber": 76,
            "velocity": 83
        },
        {
            "deltaTime": 4,
            "channel": 0,
            "type": "noteOff",
            "noteNumber": 85,
            "velocity": 0
        },
        {
            "deltaTime": 283,
            "channel": 0,
            "type": "noteOff",
            "noteNumber": 76,
            "velocity": 0
        },
        {
            "deltaTime": 0,
            "channel": 0,
            "type": "noteOff",
            "noteNumber": 95,
            "velocity": 0
        },
        {
            "deltaTime": 0,
            "channel": 0,
            "type": "noteOff",
            "noteNumber": 56,
            "velocity": 0
        },
        {
            "deltaTime": 3,
            "channel": 0,
            "type": "noteOn",
            "noteNumber": 78,
            "velocity": 72
        },
        {
            "deltaTime": 287,
            "channel": 0,
            "type": "noteOff",
            "noteNumber": 78,
            "velocity": 0
        },
        {
            "deltaTime": 3,
            "channel": 0,
            "type": "noteOn",
            "noteNumber": 49,
            "velocity": 61
        },
        {
            "deltaTime": 0,
            "channel": 0,
            "type": "noteOn",
            "noteNumber": 80,
            "velocity": 82
        },
        {
            "deltaTime": 0,
            "channel": 0,
            "type": "noteOn",
            "noteNumber": 76,
            "velocity": 71
        },
        {
            "deltaTime": 287,
            "channel": 0,
            "type": "noteOff",
            "noteNumber": 76,
            "velocity": 0
        },
        {
            "deltaTime": 3,
            "channel": 0,
            "type": "noteOn",
            "noteNumber": 73,
            "velocity": 92
        },
        {
            "deltaTime": 279,
            "channel": 0,
            "type": "noteOn",
            "noteNumber": 54,
            "velocity": 75
        },
        {
            "deltaTime": 0,
            "channel": 0,
            "type": "noteOn",
            "noteNumber": 69,
            "velocity": 99
        },
        {
            "deltaTime": 0,
            "channel": 0,
            "type": "noteOn",
            "noteNumber": 93,
            "velocity": 81
        },
        {
            "deltaTime": 4,
            "channel": 0,
            "type": "noteOff",
            "noteNumber": 80,
            "velocity": 0
        },
        {
            "deltaTime": 0,
            "channel": 0,
            "type": "noteOff",
            "noteNumber": 49,
            "velocity": 0
        },
        {
            "deltaTime": 3,
            "channel": 0,
            "type": "noteOff",
            "noteNumber": 73,
            "velocity": 0
        },
        {
            "deltaTime": 279,
            "channel": 0,
            "type": "noteOff",
            "noteNumber": 93,
            "velocity": 0
        },
        {
            "deltaTime": 0,
            "channel": 0,
            "type": "noteOff",
            "noteNumber": 69,
            "velocity": 0
        },
        {
            "deltaTime": 0,
            "channel": 0,
            "type": "noteOff",
            "noteNumber": 54,
            "velocity": 0
        },
        {
            "deltaTime": 3,
            "channel": 0,
            "type": "noteOn",
            "noteNumber": 68,
            "velocity": 78
        },
        {
            "deltaTime": 287,
            "channel": 0,
            "type": "noteOff",
            "noteNumber": 68,
            "velocity": 0
        },
        {
            "deltaTime": 3,
            "channel": 0,
            "type": "noteOn",
            "noteNumber": 88,
            "velocity": 97
        },
        {
            "deltaTime": 0,
            "channel": 0,
            "type": "noteOn",
            "noteNumber": 66,
            "velocity": 85
        },
        {
            "deltaTime": 0,
            "channel": 0,
            "type": "noteOn",
            "noteNumber": 45,
            "velocity": 85
        },
        {
            "deltaTime": 279,
            "channel": 0,
            "type": "noteOn",
            "noteNumber": 76,
            "velocity": 92
        },
        {
            "deltaTime": 8,
            "channel": 0,
            "type": "noteOff",
            "noteNumber": 66,
            "velocity": 0
        },
        {
            "deltaTime": 279,
            "channel": 0,
            "type": "noteOff",
            "noteNumber": 76,
            "velocity": 0
        },
        {
            "deltaTime": 3,
            "channel": 0,
            "type": "noteOn",
            "noteNumber": 91,
            "velocity": 117
        },
        {
            "deltaTime": 0,
            "channel": 0,
            "type": "noteOn",
            "noteNumber": 75,
            "velocity": 117
        },
        {
            "deltaTime": 4,
            "channel": 0,
            "type": "noteOff",
            "noteNumber": 88,
            "velocity": 0
        },
        {
            "deltaTime": 283,
            "channel": 0,
            "type": "noteOff",
            "noteNumber": 91,
            "velocity": 0
        },
        {
            "deltaTime": 0,
            "channel": 0,
            "type": "noteOff",
            "noteNumber": 75,
            "velocity": 0
        },
        {
            "deltaTime": 3,
            "channel": 0,
            "type": "noteOn",
            "noteNumber": 73,
            "velocity": 85
        },
        {
            "deltaTime": 287,
            "channel": 0,
            "type": "noteOff",
            "noteNumber": 73,
            "velocity": 0
        },
        {
            "deltaTime": 3,
            "channel": 0,
            "type": "noteOn",
            "noteNumber": 85,
            "velocity": 103
        },
        {
            "deltaTime": 0,
            "channel": 0,
            "type": "noteOn",
            "noteNumber": 69,
            "velocity": 95
        },
        {
            "deltaTime": 279,
            "channel": 0,
            "type": "noteOn",
            "noteNumber": 67,
            "velocity": 101
        },
        {
            "deltaTime": 8,
            "channel": 0,
            "type": "noteOff",
            "noteNumber": 69,
            "velocity": 0
        },
        {
            "deltaTime": 279,
            "channel": 0,
            "type": "noteOff",
            "noteNumber": 67,
            "velocity": 0
        },
        {
            "deltaTime": 3,
            "channel": 0,
            "type": "noteOn",
            "noteNumber": 52,
            "velocity": 85
        },
        {
            "deltaTime": 0,
            "channel": 0,
            "type": "noteOn",
            "noteNumber": 80,
            "velocity": 100
        },
        {
            "deltaTime": 0,
            "channel": 0,
            "type": "noteOn",
            "noteNumber": 68,
            "velocity": 100
        },
        {
            "deltaTime": 2,
            "channel": 0,
            "type": "noteOff",
            "noteNumber": 45,
            "velocity": 0
        },
        {
            "deltaTime": 2,
            "channel": 0,
            "type": "noteOff",
            "noteNumber": 85,
            "velocity": 0
        },
        {
            "deltaTime": 143,
            "channel": 0,
            "type": "noteOff",
            "noteNumber": 68,
            "velocity": 0
        },
        {
            "deltaTime": 139,
            "channel": 0,
            "type": "noteOff",
            "noteNumber": 80,
            "velocity": 0
        },
        {
            "deltaTime": 218,
            "channel": 0,
            "type": "noteOff",
            "noteNumber": 52,
            "velocity": 0
        },
        {
            "deltaTime": 64,
            "channel": 0,
            "type": "noteOn",
            "noteNumber": 51,
            "velocity": 72
        },
        {
            "deltaTime": 0,
            "channel": 0,
            "type": "noteOn",
            "noteNumber": 81,
            "velocity": 95
        },
        {
            "deltaTime": 12,
            "channel": 0,
            "type": "noteOn",
            "noteNumber": 69,
            "velocity": 76
        },
        {
            "deltaTime": 267,
            "channel": 0,
            "type": "noteOn",
            "noteNumber": 71,
            "velocity": 79
        },
        {
            "deltaTime": 8,
            "channel": 0,
            "type": "noteOff",
            "noteNumber": 51,
            "velocity": 0
        },
        {
            "deltaTime": 72,
            "channel": 0,
            "type": "noteOff",
            "noteNumber": 69,
            "velocity": 0
        },
        {
            "deltaTime": 101,
            "channel": 0,
            "type": "noteOn",
            "noteNumber": 69,
            "velocity": 63
        },
        {
            "deltaTime": 26,
            "channel": 0,
            "type": "noteOff",
            "noteNumber": 71,
            "velocity": 0
        },
        {
            "deltaTime": 18,
            "channel": 0,
            "type": "noteOff",
            "noteNumber": 81,
            "velocity": 0
        },
        {
            "deltaTime": 76,
            "channel": 0,
            "type": "noteOn",
            "noteNumber": 49,
            "velocity": 78
        },
        {
            "deltaTime": 12,
            "channel": 0,
            "type": "noteOn",
            "noteNumber": 71,
            "velocity": 58
        },
        {
            "deltaTime": 48,
            "channel": 0,
            "type": "noteOff",
            "noteNumber": 69,
            "velocity": 0
        },
        {
            "deltaTime": 84,
            "channel": 0,
            "type": "noteOn",
            "noteNumber": 69,
            "velocity": 66
        },
        {
            "deltaTime": 5,
            "channel": 0,
            "type": "noteOff",
            "noteNumber": 71,
            "velocity": 0
        },
        {
            "deltaTime": 136,
            "channel": 0,
            "type": "noteOff",
            "noteNumber": 49,
            "velocity": 0
        },
        {
            "deltaTime": 3,
            "channel": 0,
            "type": "noteOn",
            "noteNumber": 71,
            "velocity": 86
        },
        {
            "deltaTime": 50,
            "channel": 0,
            "type": "noteOff",
            "noteNumber": 69,
            "velocity": 0
        },
        {
            "deltaTime": 57,
            "channel": 0,
            "type": "noteOff",
            "noteNumber": 71,
            "velocity": 0
        },
        {
            "deltaTime": 1,
            "channel": 0,
            "type": "noteOn",
            "noteNumber": 69,
            "velocity": 66
        },
        {
            "deltaTime": 121,
            "channel": 0,
            "type": "noteOn",
            "noteNumber": 71,
            "velocity": 60
        },
        {
            "deltaTime": 3,
            "channel": 0,
            "type": "noteOff",
            "noteNumber": 69,
            "velocity": 0
        },
        {
            "deltaTime": 45,
            "channel": 0,
            "type": "noteOn",
            "noteNumber": 84,
            "velocity": 95
        },
        {
            "deltaTime": 0,
            "channel": 0,
            "type": "noteOn",
            "noteNumber": 48,
            "velocity": 88
        },
        {
            "deltaTime": 48,
            "channel": 0,
            "type": "noteOn",
            "noteNumber": 69,
            "velocity": 62
        },
        {
            "deltaTime": 56,
            "channel": 0,
            "type": "noteOff",
            "noteNumber": 71,
            "velocity": 0
        },
        {
            "deltaTime": 89,
            "channel": 0,
            "type": "noteOn",
            "noteNumber": 68,
            "velocity": 42
        },
        {
            "deltaTime": 7,
            "channel": 0,
            "type": "noteOff",
            "noteNumber": 69,
            "velocity": 0
        },
        {
            "deltaTime": 85,
            "channel": 0,
            "type": "noteOff",
            "noteNumber": 84,
            "velocity": 0
        },
        {
            "deltaTime": 0,
            "channel": 0,
            "type": "noteOff",
            "noteNumber": 48,
            "velocity": 0
        },
        {
            "deltaTime": 57,
            "channel": 0,
            "type": "noteOff",
            "noteNumber": 68,
            "velocity": 0
        },
        {
            "deltaTime": 31,
            "channel": 0,
            "type": "noteOn",
            "noteNumber": 66,
            "velocity": 42
        },
        {
            "deltaTime": 167,
            "channel": 0,
            "type": "noteOff",
            "noteNumber": 66,
            "velocity": 0
        },
        {
            "deltaTime": 38,
            "channel": 0,
            "type": "noteOn",
            "noteNumber": 85,
            "velocity": 95
        },
        {
            "deltaTime": 0,
            "channel": 0,
            "type": "noteOn",
            "noteNumber": 49,
            "velocity": 98
        },
        {
            "deltaTime": 0,
            "channel": 0,
            "type": "noteOn",
            "noteNumber": 64,
            "velocity": 95
        },
        {
            "deltaTime": 165,
            "channel": 0,
            "type": "noteOff",
            "noteNumber": 49,
            "velocity": 0
        },
        {
            "deltaTime": 405,
            "channel": 0,
            "type": "noteOn",
            "noteNumber": 75,
            "velocity": 95
        },
        {
            "deltaTime": 0,
            "channel": 0,
            "type": "noteOn",
            "noteNumber": 87,
            "velocity": 95
        },
        {
            "deltaTime": 0,
            "channel": 0,
            "type": "noteOn",
            "noteNumber": 44,
            "velocity": 85
        },
        {
            "deltaTime": 4,
            "channel": 0,
            "type": "noteOff",
            "noteNumber": 85,
            "velocity": 0
        },
        {
            "deltaTime": 0,
            "channel": 0,
            "type": "noteOff",
            "noteNumber": 64,
            "velocity": 0
        },
        {
            "deltaTime": 283,
            "channel": 0,
            "type": "noteOff",
            "noteNumber": 44,
            "velocity": 0
        },
        {
            "deltaTime": 3,
            "channel": 0,
            "type": "noteOn",
            "noteNumber": 46,
            "velocity": 61
        },
        {
            "deltaTime": 279,
            "channel": 0,
            "type": "noteOn",
            "noteNumber": 88,
            "velocity": 95
        },
        {
            "deltaTime": 0,
            "channel": 0,
            "type": "noteOn",
            "noteNumber": 48,
            "velocity": 84
        },
        {
            "deltaTime": 0,
            "channel": 0,
            "type": "noteOn",
            "noteNumber": 72,
            "velocity": 95
        },
        {
            "deltaTime": 4,
            "channel": 0,
            "type": "noteOff",
            "noteNumber": 75,
            "velocity": 0
        },
        {
            "deltaTime": 0,
            "channel": 0,
            "type": "noteOff",
            "noteNumber": 87,
            "velocity": 0
        },
        {
            "deltaTime": 3,
            "channel": 0,
            "type": "noteOff",
            "noteNumber": 46,
            "velocity": 0
        },
        {
            "deltaTime": 279,
            "channel": 0,
            "type": "noteOff",
            "noteNumber": 48,
            "velocity": 0
        },
        {
            "deltaTime": 3,
            "channel": 0,
            "type": "noteOn",
            "noteNumber": 49,
            "velocity": 73
        },
        {
            "deltaTime": 284,
            "channel": 0,
            "type": "noteOff",
            "noteNumber": 88,
            "velocity": 0
        },
        {
            "deltaTime": 0,
            "channel": 0,
            "type": "noteOff",
            "noteNumber": 72,
            "velocity": 0
        },
        {
            "deltaTime": 3,
            "channel": 0,
            "type": "noteOff",
            "noteNumber": 49,
            "velocity": 0
        },
        {
            "deltaTime": 3,
            "channel": 0,
            "type": "noteOn",
            "noteNumber": 51,
            "velocity": 69
        },
        {
            "deltaTime": 0,
            "channel": 0,
            "type": "noteOn",
            "noteNumber": 63,
            "velocity": 95
        },
        {
            "deltaTime": 0,
            "channel": 0,
            "type": "noteOn",
            "noteNumber": 93,
            "velocity": 95
        },
        {
            "deltaTime": 279,
            "channel": 0,
            "type": "noteOn",
            "noteNumber": 54,
            "velocity": 93
        },
        {
            "deltaTime": 8,
            "channel": 0,
            "type": "noteOff",
            "noteNumber": 63,
            "velocity": 0
        },
        {
            "deltaTime": 0,
            "channel": 0,
            "type": "noteOff",
            "noteNumber": 93,
            "velocity": 0
        },
        {
            "deltaTime": 0,
            "channel": 0,
            "type": "noteOff",
            "noteNumber": 51,
            "velocity": 0
        },
        {
            "deltaTime": 279,
            "channel": 0,
            "type": "noteOff",
            "noteNumber": 54,
            "velocity": 0
        },
        {
            "deltaTime": 3,
            "channel": 0,
            "type": "noteOn",
            "noteNumber": 64,
            "velocity": 93
        },
        {
            "deltaTime": 0,
            "channel": 0,
            "type": "noteOn",
            "noteNumber": 68,
            "velocity": 93
        },
        {
            "deltaTime": 0,
            "channel": 0,
            "type": "noteOn",
            "noteNumber": 52,
            "velocity": 93
        },
        {
            "deltaTime": 0,
            "channel": 0,
            "type": "noteOn",
            "noteNumber": 92,
            "velocity": 93
        },
        {
            "deltaTime": 0,
            "channel": 0,
            "type": "noteOn",
            "noteNumber": 83,
            "velocity": 86
        },
        {
            "deltaTime": 0,
            "channel": 0,
            "type": "noteOn",
            "noteNumber": 76,
            "velocity": 86
        },
        {
            "deltaTime": 287,
            "channel": 0,
            "type": "noteOff",
            "noteNumber": 64,
            "velocity": 0
        },
        {
            "deltaTime": 0,
            "channel": 0,
            "type": "noteOff",
            "noteNumber": 83,
            "velocity": 0
        },
        {
            "deltaTime": 0,
            "channel": 0,
            "type": "noteOff",
            "noteNumber": 52,
            "velocity": 0
        },
        {
            "deltaTime": 0,
            "channel": 0,
            "type": "noteOff",
            "noteNumber": 76,
            "velocity": 0
        },
        {
            "deltaTime": 0,
            "channel": 0,
            "type": "noteOff",
            "noteNumber": 92,
            "velocity": 0
        },
        {
            "deltaTime": 0,
            "channel": 0,
            "type": "noteOff",
            "noteNumber": 68,
            "velocity": 0
        },
        {
            "deltaTime": 295,
            "channel": 0,
            "type": "noteOn",
            "noteNumber": 88,
            "velocity": 100
        },
        {
            "deltaTime": 0,
            "channel": 0,
            "type": "noteOn",
            "noteNumber": 52,
            "velocity": 100
        },
        {
            "deltaTime": 0,
            "channel": 0,
            "type": "noteOn",
            "noteNumber": 83,
            "velocity": 73
        },
        {
            "deltaTime": 0,
            "channel": 0,
            "type": "noteOn",
            "noteNumber": 68,
            "velocity": 100
        },
        {
            "deltaTime": 0,
            "channel": 0,
            "type": "noteOn",
            "noteNumber": 76,
            "velocity": 92
        },
        {
            "deltaTime": 279,
            "channel": 0,
            "type": "noteOn",
            "noteNumber": 78,
            "velocity": 74
        },
        {
            "deltaTime": 0,
            "channel": 0,
            "type": "noteOn",
            "noteNumber": 81,
            "velocity": 78
        },
        {
            "deltaTime": 0,
            "channel": 0,
            "type": "noteOn",
            "noteNumber": 54,
            "velocity": 81
        },
        {
            "deltaTime": 0,
            "channel": 0,
            "type": "noteOn",
            "noteNumber": 66,
            "velocity": 88
        },
        {
            "deltaTime": 8,
            "channel": 0,
            "type": "noteOff",
            "noteNumber": 83,
            "velocity": 0
        },
        {
            "deltaTime": 0,
            "channel": 0,
            "type": "noteOff",
            "noteNumber": 76,
            "velocity": 0
        },
        {
            "deltaTime": 0,
            "channel": 0,
            "type": "noteOff",
            "noteNumber": 88,
            "velocity": 0
        },
        {
            "deltaTime": 0,
            "channel": 0,
            "type": "noteOff",
            "noteNumber": 52,
            "velocity": 0
        },
        {
            "deltaTime": 0,
            "channel": 0,
            "type": "noteOff",
            "noteNumber": 68,
            "velocity": 0
        },
        {
            "deltaTime": 217,
            "channel": 0,
            "type": "noteOff",
            "noteNumber": 78,
            "velocity": 0
        },
        {
            "deltaTime": 0,
            "channel": 0,
            "type": "noteOff",
            "noteNumber": 54,
            "velocity": 0
        },
        {
            "deltaTime": 0,
            "channel": 0,
            "type": "noteOff",
            "noteNumber": 81,
            "velocity": 0
        },
        {
            "deltaTime": 0,
            "channel": 0,
            "type": "noteOff",
            "noteNumber": 66,
            "velocity": 0
        },
        {
            "deltaTime": 53,
            "channel": 0,
            "type": "noteOn",
            "noteNumber": 68,
            "velocity": 79
        },
        {
            "deltaTime": 12,
            "channel": 0,
            "type": "noteOn",
            "noteNumber": 76,
            "velocity": 85
        },
        {
            "deltaTime": 0,
            "channel": 0,
            "type": "noteOn",
            "noteNumber": 85,
            "velocity": 95
        },
        {
            "deltaTime": 0,
            "channel": 0,
            "type": "noteOn",
            "noteNumber": 56,
            "velocity": 100
        },
        {
            "deltaTime": 0,
            "channel": 0,
            "type": "noteOn",
            "noteNumber": 78,
            "velocity": 78
        },
        {
            "deltaTime": 0,
            "channel": 0,
            "type": "noteOn",
            "noteNumber": 64,
            "velocity": 86
        },
        {
            "deltaTime": 189,
            "channel": 0,
            "type": "noteOff",
            "noteNumber": 68,
            "velocity": 0
        },
        {
            "deltaTime": 2,
            "channel": 0,
            "type": "noteOff",
            "noteNumber": 56,
            "velocity": 0
        },
        {
            "deltaTime": 0,
            "channel": 0,
            "type": "noteOff",
            "noteNumber": 78,
            "velocity": 0
        },
        {
            "deltaTime": 0,
            "channel": 0,
            "type": "noteOff",
            "noteNumber": 76,
            "velocity": 0
        },
        {
            "deltaTime": 0,
            "channel": 0,
            "type": "noteOff",
            "noteNumber": 85,
            "velocity": 0
        },
        {
            "deltaTime": 0,
            "channel": 0,
            "type": "noteOff",
            "noteNumber": 64,
            "velocity": 0
        },
        {
            "deltaTime": 2,
            "channel": 0,
            "type": "noteOn",
            "noteNumber": 83,
            "velocity": 66
        },
        {
            "deltaTime": 192,
            "channel": 0,
            "type": "noteOff",
            "noteNumber": 83,
            "velocity": 0
        },
        {
            "deltaTime": 2,
            "channel": 0,
            "type": "noteOn",
            "noteNumber": 81,
            "velocity": 63
        },
        {
            "deltaTime": 182,
            "channel": 0,
            "type": "noteOn",
            "noteNumber": 49,
            "velocity": 85
        },
        {
            "deltaTime": 0,
            "channel": 0,
            "type": "noteOn",
            "noteNumber": 80,
            "velocity": 82
        },
        {
            "deltaTime": 0,
            "channel": 0,
            "type": "noteOn",
            "noteNumber": 92,
            "velocity": 84
        },
        {
            "deltaTime": 0,
            "channel": 0,
            "type": "noteOn",
            "noteNumber": 73,
            "velocity": 70
        },
        {
            "deltaTime": 9,
            "channel": 0,
            "type": "noteOff",
            "noteNumber": 81,
            "velocity": 0
        },
        {
            "deltaTime": 182,
            "channel": 0,
            "type": "noteOff",
            "noteNumber": 80,
            "velocity": 0
        },
        {
            "deltaTime": 0,
            "channel": 0,
            "type": "noteOff",
            "noteNumber": 73,
            "velocity": 0
        },
        {
            "deltaTime": 0,
            "channel": 0,
            "type": "noteOff",
            "noteNumber": 92,
            "velocity": 0
        },
        {
            "deltaTime": 0,
            "channel": 0,
            "type": "noteOff",
            "noteNumber": 49,
            "velocity": 0
        },
        {
            "deltaTime": 2,
            "channel": 0,
            "type": "noteOn",
            "noteNumber": 90,
            "velocity": 85
        },
        {
            "deltaTime": 192,
            "channel": 0,
            "type": "noteOff",
            "noteNumber": 90,
            "velocity": 0
        },
        {
            "deltaTime": 2,
            "channel": 0,
            "type": "noteOn",
            "noteNumber": 88,
            "velocity": 108
        },
        {
            "deltaTime": 192,
            "channel": 0,
            "type": "noteOff",
            "noteNumber": 88,
            "velocity": 0
        },
        {
            "deltaTime": 2,
            "channel": 0,
            "type": "noteOn",
            "noteNumber": 81,
            "velocity": 105
        },
        {
            "deltaTime": 0,
            "channel": 0,
            "type": "noteOn",
            "noteNumber": 54,
            "velocity": 85
        },
        {
            "deltaTime": 0,
            "channel": 0,
            "type": "noteOn",
            "noteNumber": 76,
            "velocity": 105
        },
        {
            "deltaTime": 0,
            "channel": 0,
            "type": "noteOn",
            "noteNumber": 66,
            "velocity": 105
        },
        {
            "deltaTime": 0,
            "channel": 0,
            "type": "noteOn",
            "noteNumber": 73,
            "velocity": 105
        },
        {
            "deltaTime": 287,
            "channel": 0,
            "type": "noteOff",
            "noteNumber": 54,
            "velocity": 0
        },
        {
            "deltaTime": 0,
            "channel": 0,
            "type": "noteOff",
            "noteNumber": 81,
            "velocity": 0
        },
        {
            "deltaTime": 0,
            "channel": 0,
            "type": "noteOff",
            "noteNumber": 73,
            "velocity": 0
        },
        {
            "deltaTime": 0,
            "channel": 0,
            "type": "noteOff",
            "noteNumber": 66,
            "velocity": 0
        },
        {
            "deltaTime": 0,
            "channel": 0,
            "type": "noteOff",
            "noteNumber": 76,
            "velocity": 0
        },
        {
            "deltaTime": 283,
            "channel": 0,
            "type": "noteOn",
            "noteNumber": 85,
            "velocity": 59
        },
        {
            "deltaTime": 0,
            "channel": 0,
            "type": "noteOn",
            "noteNumber": 64,
            "velocity": 59
        },
        {
            "deltaTime": 287,
            "channel": 0,
            "type": "noteOff",
            "noteNumber": 85,
            "velocity": 0
        },
        {
            "deltaTime": 0,
            "channel": 0,
            "type": "noteOff",
            "noteNumber": 64,
            "velocity": 0
        },
        {
            "deltaTime": 3,
            "channel": 0,
            "type": "noteOn",
            "noteNumber": 76,
            "velocity": 89
        },
        {
            "deltaTime": 287,
            "channel": 0,
            "type": "noteOff",
            "noteNumber": 76,
            "velocity": 0
        },
        {
            "deltaTime": 3,
            "channel": 0,
            "type": "noteOn",
            "noteNumber": 88,
            "velocity": 83
        },
        {
            "deltaTime": 0,
            "channel": 0,
            "type": "noteOn",
            "noteNumber": 69,
            "velocity": 83
        },
        {
            "deltaTime": 279,
            "channel": 0,
            "type": "noteOn",
            "noteNumber": 81,
            "velocity": 105
        },
        {
            "deltaTime": 8,
            "channel": 0,
            "type": "noteOff",
            "noteNumber": 69,
            "velocity": 0
        },
        {
            "deltaTime": 0,
            "channel": 0,
            "type": "noteOff",
            "noteNumber": 88,
            "velocity": 0
        },
        {
            "deltaTime": 279,
            "channel": 0,
            "type": "noteOff",
            "noteNumber": 81,
            "velocity": 0
        },
        {
            "deltaTime": 3,
            "channel": 0,
            "type": "noteOn",
            "noteNumber": 85,
            "velocity": 98
        },
        {
            "deltaTime": 0,
            "channel": 0,
            "type": "noteOn",
            "noteNumber": 73,
            "velocity": 98
        },
        {
            "deltaTime": 287,
            "channel": 0,
            "type": "noteOff",
            "noteNumber": 85,
            "velocity": 0
        },
        {
            "deltaTime": 0,
            "channel": 0,
            "type": "noteOff",
            "noteNumber": 73,
            "velocity": 0
        },
        {
            "deltaTime": 3,
            "channel": 0,
            "type": "noteOn",
            "noteNumber": 93,
            "velocity": 82
        },
        {
            "deltaTime": 279,
            "channel": 0,
            "type": "noteOn",
            "noteNumber": 88,
            "velocity": 91
        },
        {
            "deltaTime": 0,
            "channel": 0,
            "type": "noteOn",
            "noteNumber": 52,
            "velocity": 85
        },
        {
            "deltaTime": 0,
            "channel": 0,
            "type": "noteOn",
            "noteNumber": 71,
            "velocity": 91
        },
        {
            "deltaTime": 0,
            "channel": 0,
            "type": "noteOn",
            "noteNumber": 80,
            "velocity": 85
        },
        {
            "deltaTime": 0,
            "channel": 0,
            "type": "noteOn",
            "noteNumber": 83,
            "velocity": 91
        },
        {
            "deltaTime": 8,
            "channel": 0,
            "type": "noteOff",
            "noteNumber": 93,
            "velocity": 0
        },
        {
            "deltaTime": 3,
            "channel": 0,
            "type": "noteOn",
            "noteNumber": 64,
            "velocity": 85
        },
        {
            "deltaTime": 275,
            "channel": 0,
            "type": "noteOff",
            "noteNumber": 71,
            "velocity": 0
        },
        {
            "deltaTime": 0,
            "channel": 0,
            "type": "noteOff",
            "noteNumber": 88,
            "velocity": 0
        },
        {
            "deltaTime": 0,
            "channel": 0,
            "type": "noteOff",
            "noteNumber": 83,
            "velocity": 0
        },
        {
            "deltaTime": 0,
            "channel": 0,
            "type": "noteOff",
            "noteNumber": 52,
            "velocity": 0
        },
        {
            "deltaTime": 0,
            "channel": 0,
            "type": "noteOff",
            "noteNumber": 80,
            "velocity": 0
        },
        {
            "deltaTime": 3,
            "channel": 0,
            "type": "noteOn",
            "noteNumber": 95,
            "velocity": 67
        },
        {
            "deltaTime": 8,
            "channel": 0,
            "type": "noteOff",
            "noteNumber": 64,
            "velocity": 0
        },
        {
            "deltaTime": 279,
            "channel": 0,
            "type": "noteOff",
            "noteNumber": 95,
            "velocity": 0
        },
        {
            "deltaTime": 3,
            "channel": 0,
            "type": "noteOn",
            "noteNumber": 81,
            "velocity": 106
        },
        {
            "deltaTime": 0,
            "channel": 0,
            "type": "noteOn",
            "noteNumber": 69,
            "velocity": 99
        },
        {
            "deltaTime": 287,
            "channel": 0,
            "type": "noteOff",
            "noteNumber": 81,
            "velocity": 0
        },
        {
            "deltaTime": 0,
            "channel": 0,
            "type": "noteOff",
            "noteNumber": 69,
            "velocity": 0
        },
        {
            "deltaTime": 3,
            "channel": 0,
            "type": "noteOn",
            "noteNumber": 93,
            "velocity": 79
        },
        {
            "deltaTime": 279,
            "channel": 0,
            "type": "noteOn",
            "noteNumber": 66,
            "velocity": 91
        },
        {
            "deltaTime": 0,
            "channel": 0,
            "type": "noteOn",
            "noteNumber": 75,
            "velocity": 91
        },
        {
            "deltaTime": 0,
            "channel": 0,
            "type": "noteOn",
            "noteNumber": 52,
            "velocity": 85
        },
        {
            "deltaTime": 0,
            "channel": 0,
            "type": "noteOn",
            "noteNumber": 80,
            "velocity": 91
        },
        {
            "deltaTime": 0,
            "channel": 0,
            "type": "noteOn",
            "noteNumber": 71,
            "velocity": 91
        },
        {
            "deltaTime": 8,
            "channel": 0,
            "type": "noteOff",
            "noteNumber": 93,
            "velocity": 0
        },
        {
            "deltaTime": 279,
            "channel": 0,
            "type": "noteOff",
            "noteNumber": 66,
            "velocity": 0
        },
        {
            "deltaTime": 0,
            "channel": 0,
            "type": "noteOff",
            "noteNumber": 75,
            "velocity": 0
        },
        {
            "deltaTime": 0,
            "channel": 0,
            "type": "noteOff",
            "noteNumber": 71,
            "velocity": 0
        },
        {
            "deltaTime": 0,
            "channel": 0,
            "type": "noteOff",
            "noteNumber": 80,
            "velocity": 0
        },
        {
            "deltaTime": 0,
            "channel": 0,
            "type": "noteOff",
            "noteNumber": 52,
            "velocity": 0
        },
        {
            "deltaTime": 3,
            "channel": 0,
            "type": "noteOn",
            "noteNumber": 92,
            "velocity": 89
        },
        {
            "deltaTime": 240,
            "channel": 0,
            "type": "noteOff",
            "noteNumber": 92,
            "velocity": 0
        },
        {
            "deltaTime": 2,
            "channel": 0,
            "type": "noteOn",
            "noteNumber": 81,
            "velocity": 57
        },
        {
            "deltaTime": 48,
            "channel": 0,
            "type": "noteOn",
            "noteNumber": 54,
            "velocity": 89
        },
        {
            "deltaTime": 0,
            "channel": 0,
            "type": "noteOn",
            "noteNumber": 68,
            "velocity": 89
        },
        {
            "deltaTime": 12,
            "channel": 0,
            "type": "noteOn",
            "noteNumber": 83,
            "velocity": 89
        },
        {
            "deltaTime": 20,
            "channel": 0,
            "type": "noteOff",
            "noteNumber": 81,
            "velocity": 0
        },
        {
            "deltaTime": 238,
            "channel": 0,
            "type": "noteOff",
            "noteNumber": 54,
            "velocity": 0
        },
        {
            "deltaTime": 0,
            "channel": 0,
            "type": "noteOff",
            "noteNumber": 68,
            "velocity": 0
        },
        {
            "deltaTime": 12,
            "channel": 0,
            "type": "noteOff",
            "noteNumber": 83,
            "velocity": 0
        },
        {
            "deltaTime": 287,
            "channel": 0,
            "type": "noteOn",
            "noteNumber": 44,
            "velocity": 90
        },
        {
            "deltaTime": 0,
            "channel": 0,
            "type": "noteOn",
            "noteNumber": 96,
            "velocity": 79
        },
        {
            "deltaTime": 0,
            "channel": 0,
            "type": "noteOn",
            "noteNumber": 56,
            "velocity": 90
        },
        {
            "deltaTime": 0,
            "channel": 0,
            "type": "noteOn",
            "noteNumber": 87,
            "velocity": 101
        },
        {
            "deltaTime": 0,
            "channel": 0,
            "type": "noteOn",
            "noteNumber": 72,
            "velocity": 71
        },
        {
            "deltaTime": 0,
            "channel": 0,
            "type": "noteOn",
            "noteNumber": 78,
            "velocity": 88
        },
        {
            "deltaTime": 547,
            "channel": 0,
            "type": "noteOff",
            "noteNumber": 96,
            "velocity": 0
        },
        {
            "deltaTime": 0,
            "channel": 0,
            "type": "noteOff",
            "noteNumber": 87,
            "velocity": 0
        },
        {
            "deltaTime": 0,
            "channel": 0,
            "type": "noteOff",
            "noteNumber": 78,
            "velocity": 0
        },
        {
            "deltaTime": 0,
            "channel": 0,
            "type": "noteOff",
            "noteNumber": 72,
            "velocity": 0
        },
        {
            "deltaTime": 23,
            "channel": 0,
            "type": "noteOn",
            "noteNumber": 80,
            "velocity": 91
        },
        {
            "deltaTime": 4,
            "channel": 0,
            "type": "noteOff",
            "noteNumber": 44,
            "velocity": 0
        },
        {
            "deltaTime": 0,
            "channel": 0,
            "type": "noteOff",
            "noteNumber": 56,
            "velocity": 0
        },
        {
            "deltaTime": 283,
            "channel": 0,
            "type": "noteOff",
            "noteNumber": 80,
            "velocity": 0
        },
        {
            "deltaTime": 3,
            "channel": 0,
            "type": "noteOn",
            "noteNumber": 75,
            "velocity": 76
        },
        {
            "deltaTime": 242,
            "channel": 0,
            "type": "noteOn",
            "noteNumber": 60,
            "velocity": 84
        },
        {
            "deltaTime": 45,
            "channel": 0,
            "type": "noteOff",
            "noteNumber": 75,
            "velocity": 0
        },
        {
            "deltaTime": 3,
            "channel": 0,
            "type": "noteOn",
            "noteNumber": 63,
            "velocity": 81
        },
        {
            "deltaTime": 0,
            "channel": 0,
            "type": "noteOn",
            "noteNumber": 42,
            "velocity": 81
        },
        {
            "deltaTime": 0,
            "channel": 0,
            "type": "noteOn",
            "noteNumber": 54,
            "velocity": 81
        },
        {
            "deltaTime": 24,
            "channel": 0,
            "type": "noteOn",
            "noteNumber": 70,
            "velocity": 83
        },
        {
            "deltaTime": 85,
            "channel": 0,
            "type": "noteOn",
            "noteNumber": 78,
            "velocity": 93
        },
        {
            "deltaTime": 439,
            "channel": 0,
            "type": "noteOff",
            "noteNumber": 78,
            "velocity": 0
        },
        {
            "deltaTime": 22,
            "channel": 0,
            "type": "noteOff",
            "noteNumber": 60,
            "velocity": 0
        },
        {
            "deltaTime": 0,
            "channel": 0,
            "type": "noteOn",
            "noteNumber": 77,
            "velocity": 95
        },
        {
            "deltaTime": 2,
            "channel": 0,
            "type": "noteOff",
            "noteNumber": 70,
            "velocity": 0
        },
        {
            "deltaTime": 2,
            "channel": 0,
            "type": "noteOff",
            "noteNumber": 54,
            "velocity": 0
        },
        {
            "deltaTime": 0,
            "channel": 0,
            "type": "noteOff",
            "noteNumber": 42,
            "velocity": 0
        },
        {
            "deltaTime": 43,
            "channel": 0,
            "type": "noteOff",
            "noteNumber": 63,
            "velocity": 0
        },
        {
            "deltaTime": 223,
            "channel": 0,
            "type": "noteOff",
            "noteNumber": 77,
            "velocity": 0
        },
        {
            "deltaTime": 20,
            "channel": 0,
            "type": "noteOn",
            "noteNumber": 78,
            "velocity": 92
        },
        {
            "deltaTime": 287,
            "channel": 0,
            "type": "noteOff",
            "noteNumber": 78,
            "velocity": 0
        },
        {
            "deltaTime": 3,
            "channel": 0,
            "type": "noteOn",
            "noteNumber": 53,
            "velocity": 88
        },
        {
            "deltaTime": 0,
            "channel": 0,
            "type": "noteOn",
            "noteNumber": 72,
            "velocity": 91
        },
        {
            "deltaTime": 0,
            "channel": 0,
            "type": "noteOn",
            "noteNumber": 80,
            "velocity": 109
        },
        {
            "deltaTime": 48,
            "channel": 0,
            "type": "noteOn",
            "noteNumber": 92,
            "velocity": 105
        },
        {
            "deltaTime": 328,
            "channel": 0,
            "type": "noteOn",
            "noteNumber": 75,
            "velocity": 58
        },
        {
            "deltaTime": 5,
            "channel": 0,
            "type": "noteOff",
            "noteNumber": 92,
            "velocity": 0
        },
        {
            "deltaTime": 1,
            "channel": 0,
            "type": "noteOff",
            "noteNumber": 80,
            "velocity": 0
        },
        {
            "deltaTime": 0,
            "channel": 0,
            "type": "noteOff",
            "noteNumber": 72,
            "velocity": 0
        },
        {
            "deltaTime": 208,
            "channel": 0,
            "type": "noteOff",
            "noteNumber": 53,
            "velocity": 0
        },
        {
            "deltaTime": 167,
            "channel": 0,
            "type": "noteOff",
            "noteNumber": 75,
            "velocity": 0
        },
        {
            "deltaTime": 4,
            "channel": 0,
            "type": "noteOn",
            "noteNumber": 73,
            "velocity": 70
        },
        {
            "deltaTime": 376,
            "channel": 0,
            "type": "noteOn",
            "noteNumber": 68,
            "velocity": 68
        },
        {
            "deltaTime": 0,
            "channel": 0,
            "type": "noteOn",
            "noteNumber": 63,
            "velocity": 63
        },
        {
            "deltaTime": 0,
            "channel": 0,
            "type": "noteOn",
            "noteNumber": 72,
            "velocity": 99
        },
        {
            "deltaTime": 0,
            "channel": 0,
            "type": "noteOn",
            "noteNumber": 84,
            "velocity": 99
        },
        {
            "deltaTime": 7,
            "channel": 0,
            "type": "noteOff",
            "noteNumber": 73,
            "velocity": 0
        },
        {
            "deltaTime": 376,
            "channel": 0,
            "type": "noteOff",
            "noteNumber": 63,
            "velocity": 0
        },
        {
            "deltaTime": 0,
            "channel": 0,
            "type": "noteOff",
            "noteNumber": 68,
            "velocity": 0
        },
        {
            "deltaTime": 0,
            "channel": 0,
            "type": "noteOff",
            "noteNumber": 72,
            "velocity": 0
        },
        {
            "deltaTime": 0,
            "channel": 0,
            "type": "noteOff",
            "noteNumber": 84,
            "velocity": 0
        },
        {
            "deltaTime": 4,
            "channel": 0,
            "type": "noteOn",
            "noteNumber": 65,
            "velocity": 63
        },
        {
            "deltaTime": 384,
            "channel": 0,
            "type": "noteOff",
            "noteNumber": 65,
            "velocity": 0
        },
        {
            "deltaTime": 4,
            "channel": 0,
            "type": "noteOn",
            "noteNumber": 70,
            "velocity": 72
        },
        {
            "deltaTime": 376,
            "channel": 0,
            "type": "noteOn",
            "noteNumber": 72,
            "velocity": 52
        },
        {
            "deltaTime": 0,
            "channel": 0,
            "type": "noteOn",
            "noteNumber": 51,
            "velocity": 61
        },
        {
            "deltaTime": 0,
            "channel": 0,
            "type": "noteOn",
            "noteNumber": 78,
            "velocity": 102
        },
        {
            "deltaTime": 7,
            "channel": 0,
            "type": "noteOff",
            "noteNumber": 70,
            "velocity": 0
        },
        {
            "deltaTime": 29,
            "channel": 0,
            "type": "noteOn",
            "noteNumber": 90,
            "velocity": 94
        },
        {
            "deltaTime": 347,
            "channel": 0,
            "type": "noteOff",
            "noteNumber": 72,
            "velocity": 0
        },
        {
            "deltaTime": 0,
            "channel": 0,
            "type": "noteOff",
            "noteNumber": 78,
            "velocity": 0
        },
        {
            "deltaTime": 2,
            "channel": 0,
            "type": "noteOff",
            "noteNumber": 90,
            "velocity": 0
        },
        {
            "deltaTime": 14,
            "channel": 0,
            "type": "noteOn",
            "noteNumber": 73,
            "velocity": 65
        },
        {
            "deltaTime": 175,
            "channel": 0,
            "type": "noteOff",
            "noteNumber": 51,
            "velocity": 0
        },
        {
            "deltaTime": 7,
            "channel": 0,
            "type": "noteOn",
            "noteNumber": 58,
            "velocity": 60
        },
        {
            "deltaTime": 182,
            "channel": 0,
            "type": "noteOn",
            "noteNumber": 72,
            "velocity": 63
        },
        {
            "deltaTime": 19,
            "channel": 0,
            "type": "noteOff",
            "noteNumber": 73,
            "velocity": 0
        },
        {
            "deltaTime": 364,
            "channel": 0,
            "type": "noteOff",
            "noteNumber": 72,
            "velocity": 0
        },
        {
            "deltaTime": 4,
            "channel": 0,
            "type": "noteOn",
            "noteNumber": 66,
            "velocity": 65
        },
        {
            "deltaTime": 0,
            "channel": 0,
            "type": "noteOn",
            "noteNumber": 70,
            "velocity": 80
        },
        {
            "deltaTime": 0,
            "channel": 0,
            "type": "noteOn",
            "noteNumber": 82,
            "velocity": 97
        },
        {
            "deltaTime": 4,
            "channel": 0,
            "type": "noteOff",
            "noteNumber": 58,
            "velocity": 0
        },
        {
            "deltaTime": 379,
            "channel": 0,
            "type": "noteOff",
            "noteNumber": 70,
            "velocity": 0
        },
        {
            "deltaTime": 0,
            "channel": 0,
            "type": "noteOff",
            "noteNumber": 82,
            "velocity": 0
        },
        {
            "deltaTime": 0,
            "channel": 0,
            "type": "noteOff",
            "noteNumber": 66,
            "velocity": 0
        },
        {
            "deltaTime": 4,
            "channel": 0,
            "type": "noteOn",
            "noteNumber": 73,
            "velocity": 50
        },
        {
            "deltaTime": 376,
            "channel": 0,
            "type": "noteOn",
            "noteNumber": 68,
            "velocity": 63
        },
        {
            "deltaTime": 7,
            "channel": 0,
            "type": "noteOff",
            "noteNumber": 73,
            "velocity": 0
        },
        {
            "deltaTime": 376,
            "channel": 0,
            "type": "noteOff",
            "noteNumber": 68,
            "velocity": 0
        },
        {
            "deltaTime": 4,
            "channel": 0,
            "type": "noteOn",
            "noteNumber": 77,
            "velocity": 89
        },
        {
            "deltaTime": 0,
            "channel": 0,
            "type": "noteOn",
            "noteNumber": 89,
            "velocity": 89
        },
        {
            "deltaTime": 0,
            "channel": 0,
            "type": "noteOn",
            "noteNumber": 70,
            "velocity": 63
        },
        {
            "deltaTime": 0,
            "channel": 0,
            "type": "noteOn",
            "noteNumber": 48,
            "velocity": 59
        },
        {
            "deltaTime": 383,
            "channel": 0,
            "type": "noteOff",
            "noteNumber": 70,
            "velocity": 0
        },
        {
            "deltaTime": 4,
            "channel": 0,
            "type": "noteOn",
            "noteNumber": 72,
            "velocity": 47
        },
        {
            "deltaTime": 182,
            "channel": 0,
            "type": "noteOn",
            "noteNumber": 54,
            "velocity": 52
        },
        {
            "deltaTime": 0,
            "channel": 0,
            "type": "noteOn",
            "noteNumber": 75,
            "velocity": 96
        },
        {
            "deltaTime": 0,
            "channel": 0,
            "type": "noteOn",
            "noteNumber": 87,
            "velocity": 91
        },
        {
            "deltaTime": 4,
            "channel": 0,
            "type": "noteOff",
            "noteNumber": 77,
            "velocity": 0
        },
        {
            "deltaTime": 0,
            "channel": 0,
            "type": "noteOff",
            "noteNumber": 89,
            "velocity": 0
        },
        {
            "deltaTime": 0,
            "channel": 0,
            "type": "noteOff",
            "noteNumber": 48,
            "velocity": 0
        },
        {
            "deltaTime": 189,
            "channel": 0,
            "type": "noteOn",
            "noteNumber": 68,
            "velocity": 52
        },
        {
            "deltaTime": 7,
            "channel": 0,
            "type": "noteOff",
            "noteNumber": 72,
            "velocity": 0
        },
        {
            "deltaTime": 86,
            "channel": 0,
            "type": "noteOff",
            "noteNumber": 87,
            "velocity": 0
        },
        {
            "deltaTime": 0,
            "channel": 0,
            "type": "noteOff",
            "noteNumber": 75,
            "velocity": 0
        },
        {
            "deltaTime": 287,
            "channel": 0,
            "type": "noteOff",
            "noteNumber": 54,
            "velocity": 0
        },
        {
            "deltaTime": 2,
            "channel": 0,
            "type": "noteOff",
            "noteNumber": 68,
            "velocity": 0
        },
        {
            "deltaTime": 4,
            "channel": 0,
            "type": "noteOn",
            "noteNumber": 73,
            "velocity": 83
        },
        {
            "deltaTime": 0,
            "channel": 0,
            "type": "noteOn",
            "noteNumber": 70,
            "velocity": 80
        },
        {
            "deltaTime": 0,
            "channel": 0,
            "type": "noteOn",
            "noteNumber": 85,
            "velocity": 83
        },
        {
            "deltaTime": 0,
            "channel": 0,
            "type": "noteOn",
            "noteNumber": 56,
            "velocity": 54
        },
        {
            "deltaTime": 287,
            "channel": 0,
            "type": "noteOff",
            "noteNumber": 85,
            "velocity": 0
        },
        {
            "deltaTime": 0,
            "channel": 0,
            "type": "noteOff",
            "noteNumber": 73,
            "velocity": 0
        },
        {
            "deltaTime": 88,
            "channel": 0,
            "type": "noteOn",
            "noteNumber": 68,
            "velocity": 68
        },
        {
            "deltaTime": 7,
            "channel": 0,
            "type": "noteOff",
            "noteNumber": 70,
            "velocity": 0
        },
        {
            "deltaTime": 0,
            "channel": 0,
            "type": "noteOff",
            "noteNumber": 56,
            "velocity": 0
        },
        {
            "deltaTime": 187,
            "channel": 0,
            "type": "noteOn",
            "noteNumber": 72,
            "velocity": 86
        },
        {
            "deltaTime": 0,
            "channel": 0,
            "type": "noteOn",
            "noteNumber": 84,
            "velocity": 86
        },
        {
            "deltaTime": 189,
            "channel": 0,
            "type": "noteOff",
            "noteNumber": 68,
            "velocity": 0
        },
        {
            "deltaTime": 4,
            "channel": 0,
            "type": "noteOn",
            "noteNumber": 66,
            "velocity": 62
        },
        {
            "deltaTime": 381,
            "channel": 0,
            "type": "noteOff",
            "noteNumber": 84,
            "velocity": 0
        },
        {
            "deltaTime": 0,
            "channel": 0,
            "type": "noteOff",
            "noteNumber": 72,
            "velocity": 0
        },
        {
            "deltaTime": 2,
            "channel": 0,
            "type": "noteOff",
            "noteNumber": 66,
            "velocity": 0
        },
        {
            "deltaTime": 4,
            "channel": 0,
            "type": "noteOn",
            "noteNumber": 49,
            "velocity": 64
        },
        {
            "deltaTime": 0,
            "channel": 0,
            "type": "noteOn",
            "noteNumber": 73,
            "velocity": 95
        },
        {
            "deltaTime": 0,
            "channel": 0,
            "type": "noteOn",
            "noteNumber": 68,
            "velocity": 78
        },
        {
            "deltaTime": 0,
            "channel": 0,
            "type": "noteOn",
            "noteNumber": 85,
            "velocity": 95
        },
        {
            "deltaTime": 287,
            "channel": 0,
            "type": "noteOff",
            "noteNumber": 85,
            "velocity": 0
        },
        {
            "deltaTime": 88,
            "channel": 0,
            "type": "noteOn",
            "noteNumber": 66,
            "velocity": 46
        },
        {
            "deltaTime": 7,
            "channel": 0,
            "type": "noteOff",
            "noteNumber": 73,
            "velocity": 0
        },
        {
            "deltaTime": 0,
            "channel": 0,
            "type": "noteOff",
            "noteNumber": 68,
            "velocity": 0
        },
        {
            "deltaTime": 187,
            "channel": 0,
            "type": "noteOn",
            "noteNumber": 80,
            "velocity": 98
        },
        {
            "deltaTime": 4,
            "channel": 0,
            "type": "noteOff",
            "noteNumber": 49,
            "velocity": 0
        },
        {
            "deltaTime": 184,
            "channel": 0,
            "type": "noteOff",
            "noteNumber": 66,
            "velocity": 0
        },
        {
            "deltaTime": 4,
            "channel": 0,
            "type": "noteOn",
            "noteNumber": 65,
            "velocity": 59
        },
        {
            "deltaTime": 376,
            "channel": 0,
            "type": "noteOn",
            "noteNumber": 66,
            "velocity": 78
        },
        {
            "deltaTime": 0,
            "channel": 0,
            "type": "noteOn",
            "noteNumber": 58,
            "velocity": 55
        },
        {
            "deltaTime": 0,
            "channel": 0,
            "type": "noteOn",
            "noteNumber": 82,
            "velocity": 76
        },
        {
            "deltaTime": 0,
            "channel": 0,
            "type": "noteOn",
            "noteNumber": 94,
            "velocity": 73
        },
        {
            "deltaTime": 4,
            "channel": 0,
            "type": "noteOff",
            "noteNumber": 80,
            "velocity": 0
        },
        {
            "deltaTime": 2,
            "channel": 0,
            "type": "noteOff",
            "noteNumber": 65,
            "velocity": 0
        },
        {
            "deltaTime": 165,
            "channel": 0,
            "type": "noteOff",
            "noteNumber": 82,
            "velocity": 0
        },
        {
            "deltaTime": 52,
            "channel": 0,
            "type": "noteOff",
            "noteNumber": 94,
            "velocity": 0
        },
        {
            "deltaTime": 158,
            "channel": 0,
            "type": "noteOff",
            "noteNumber": 66,
            "velocity": 0
        },
        {
            "deltaTime": 4,
            "channel": 0,
            "type": "noteOn",
            "noteNumber": 65,
            "velocity": 79
        },
        {
            "deltaTime": 187,
            "channel": 0,
            "type": "noteOff",
            "noteNumber": 58,
            "velocity": 0
        },
        {
            "deltaTime": 196,
            "channel": 0,
            "type": "noteOff",
            "noteNumber": 65,
            "velocity": 0
        },
        {
            "deltaTime": 4,
            "channel": 0,
            "type": "noteOn",
            "noteNumber": 63,
            "velocity": 98
        },
        {
            "deltaTime": 376,
            "channel": 0,
            "type": "noteOn",
            "noteNumber": 61,
            "velocity": 86
        },
        {
            "deltaTime": 0,
            "channel": 0,
            "type": "noteOn",
            "noteNumber": 56,
            "velocity": 104
        },
        {
            "deltaTime": 7,
            "channel": 0,
            "type": "noteOff",
            "noteNumber": 63,
            "velocity": 0
        },
        {
            "deltaTime": 4,
            "channel": 0,
            "type": "noteOn",
            "noteNumber": 84,
            "velocity": 86
        },
        {
            "deltaTime": 36,
            "channel": 0,
            "type": "noteOn",
            "noteNumber": 68,
            "velocity": 98
        },
        {
            "deltaTime": 333,
            "channel": 0,
            "type": "noteOff",
            "noteNumber": 68,
            "velocity": 0
        },
        {
            "deltaTime": 1,
            "channel": 0,
            "type": "noteOff",
            "noteNumber": 61,
            "velocity": 0
        },
        {
            "deltaTime": 0,
            "channel": 0,
            "type": "noteOff",
            "noteNumber": 56,
            "velocity": 0
        },
        {
            "deltaTime": 4,
            "channel": 0,
            "type": "noteOn",
            "noteNumber": 87,
            "velocity": 75
        },
        {
            "deltaTime": 7,
            "channel": 0,
            "type": "noteOff",
            "noteNumber": 84,
            "velocity": 0
        },
        {
            "deltaTime": 369,
            "channel": 0,
            "type": "noteOn",
            "noteNumber": 85,
            "velocity": 76
        },
        {
            "deltaTime": 7,
            "channel": 0,
            "type": "noteOff",
            "noteNumber": 87,
            "velocity": 0
        },
        {
            "deltaTime": 376,
            "channel": 0,
            "type": "noteOff",
            "noteNumber": 85,
            "velocity": 0
        },
        {
            "deltaTime": 4,
            "channel": 0,
            "type": "noteOn",
            "noteNumber": 89,
            "velocity": 91
        },
        {
            "deltaTime": 0,
            "channel": 0,
            "type": "noteOn",
            "noteNumber": 80,
            "velocity": 80
        },
        {
            "deltaTime": 0,
            "channel": 0,
            "type": "noteOn",
            "noteNumber": 49,
            "velocity": 92
        },
        {
            "deltaTime": 0,
            "channel": 0,
            "type": "noteOn",
            "noteNumber": 61,
            "velocity": 92
        },
        {
            "deltaTime": 384,
            "channel": 0,
            "type": "noteOff",
            "noteNumber": 49,
            "velocity": 0
        },
        {
            "deltaTime": 0,
            "channel": 0,
            "type": "noteOff",
            "noteNumber": 61,
            "velocity": 0
        },
        {
            "deltaTime": 0,
            "channel": 0,
            "type": "noteOff",
            "noteNumber": 89,
            "velocity": 0
        },
        {
            "deltaTime": 4,
            "channel": 0,
            "type": "noteOn",
            "noteNumber": 85,
            "velocity": 79
        },
        {
            "deltaTime": 2,
            "channel": 0,
            "type": "noteOff",
            "noteNumber": 80,
            "velocity": 0
        },
        {
            "deltaTime": 374,
            "channel": 0,
            "type": "noteOn",
            "noteNumber": 80,
            "velocity": 71
        },
        {
            "deltaTime": 7,
            "channel": 0,
            "type": "noteOff",
            "noteNumber": 85,
            "velocity": 0
        },
        {
            "deltaTime": 376,
            "channel": 0,
            "type": "noteOff",
            "noteNumber": 80,
            "velocity": 0
        },
        {
            "deltaTime": 4,
            "channel": 0,
            "type": "noteOn",
            "noteNumber": 54,
            "velocity": 99
        },
        {
            "deltaTime": 0,
            "channel": 0,
            "type": "noteOn",
            "noteNumber": 78,
            "velocity": 63
        },
        {
            "deltaTime": 0,
            "channel": 0,
            "type": "noteOn",
            "noteNumber": 66,
            "velocity": 99
        },
        {
            "deltaTime": 350,
            "channel": 0,
            "type": "noteOff",
            "noteNumber": 66,
            "velocity": 0
        },
        {
            "deltaTime": 26,
            "channel": 0,
            "type": "noteOn",
            "noteNumber": 82,
            "velocity": 76
        },
        {
            "deltaTime": 7,
            "channel": 0,
            "type": "noteOff",
            "noteNumber": 54,
            "velocity": 0
        },
        {
            "deltaTime": 0,
            "channel": 0,
            "type": "noteOff",
            "noteNumber": 78,
            "velocity": 0
        },
        {
            "deltaTime": 376,
            "channel": 0,
            "type": "noteOff",
            "noteNumber": 82,
            "velocity": 0
        },
        {
            "deltaTime": 4,
            "channel": 0,
            "type": "noteOn",
            "noteNumber": 80,
            "velocity": 79
        },
        {
            "deltaTime": 384,
            "channel": 0,
            "type": "noteOff",
            "noteNumber": 80,
            "velocity": 0
        },
        {
            "deltaTime": 4,
            "channel": 0,
            "type": "noteOn",
            "noteNumber": 58,
            "velocity": 100
        },
        {
            "deltaTime": 0,
            "channel": 0,
            "type": "noteOn",
            "noteNumber": 46,
            "velocity": 99
        },
        {
            "deltaTime": 0,
            "channel": 0,
            "type": "noteOn",
            "noteNumber": 73,
            "velocity": 79
        },
        {
            "deltaTime": 0,
            "channel": 0,
            "type": "noteOn",
            "noteNumber": 78,
            "velocity": 88
        },
        {
            "deltaTime": 376,
            "channel": 0,
            "type": "noteOn",
            "noteNumber": 77,
            "velocity": 79
        },
        {
            "deltaTime": 7,
            "channel": 0,
            "type": "noteOff",
            "noteNumber": 46,
            "velocity": 0
        },
        {
            "deltaTime": 0,
            "channel": 0,
            "type": "noteOff",
            "noteNumber": 78,
            "velocity": 0
        },
        {
            "deltaTime": 0,
            "channel": 0,
            "type": "noteOff",
            "noteNumber": 58,
            "velocity": 0
        },
        {
            "deltaTime": 0,
            "channel": 0,
            "type": "noteOff",
            "noteNumber": 73,
            "velocity": 0
        },
        {
            "deltaTime": 376,
            "channel": 0,
            "type": "noteOff",
            "noteNumber": 77,
            "velocity": 0
        },
        {
            "deltaTime": 4,
            "channel": 0,
            "type": "noteOn",
            "noteNumber": 75,
            "velocity": 96
        },
        {
            "deltaTime": 376,
            "channel": 0,
            "type": "noteOn",
            "noteNumber": 63,
            "velocity": 93
        },
        {
            "deltaTime": 0,
            "channel": 0,
            "type": "noteOn",
            "noteNumber": 48,
            "velocity": 109
        },
        {
            "deltaTime": 0,
            "channel": 0,
            "type": "noteOn",
            "noteNumber": 72,
            "velocity": 106
        },
        {
            "deltaTime": 7,
            "channel": 0,
            "type": "noteOff",
            "noteNumber": 75,
            "velocity": 0
        },
        {
            "deltaTime": 376,
            "channel": 0,
            "type": "noteOff",
            "noteNumber": 72,
            "velocity": 0
        },
        {
            "deltaTime": 4,
            "channel": 0,
            "type": "noteOn",
            "noteNumber": 70,
            "velocity": 69
        },
        {
            "deltaTime": 187,
            "channel": 0,
            "type": "noteOff",
            "noteNumber": 48,
            "velocity": 0
        },
        {
            "deltaTime": 0,
            "channel": 0,
            "type": "noteOff",
            "noteNumber": 63,
            "velocity": 0
        },
        {
            "deltaTime": 7,
            "channel": 0,
            "type": "noteOn",
            "noteNumber": 58,
            "velocity": 66
        },
        {
            "deltaTime": 189,
            "channel": 0,
            "type": "noteOff",
            "noteNumber": 70,
            "velocity": 0
        },
        {
            "deltaTime": 4,
            "channel": 0,
            "type": "noteOn",
            "noteNumber": 68,
            "velocity": 69
        },
        {
            "deltaTime": 376,
            "channel": 0,
            "type": "noteOn",
            "noteNumber": 78,
            "velocity": 84
        },
        {
            "deltaTime": 0,
            "channel": 0,
            "type": "noteOn",
            "noteNumber": 66,
            "velocity": 77
        },
        {
            "deltaTime": 4,
            "channel": 0,
            "type": "noteOff",
            "noteNumber": 58,
            "velocity": 0
        },
        {
            "deltaTime": 2,
            "channel": 0,
            "type": "noteOff",
            "noteNumber": 68,
            "velocity": 0
        },
        {
            "deltaTime": 367,
            "channel": 0,
            "type": "noteOff",
            "noteNumber": 78,
            "velocity": 0
        },
        {
            "deltaTime": 9,
            "channel": 0,
            "type": "noteOff",
            "noteNumber": 66,
            "velocity": 0
        },
        {
            "deltaTime": 4,
            "channel": 0,
            "type": "noteOn",
            "noteNumber": 68,
            "velocity": 68
        },
        {
            "deltaTime": 0,
            "channel": 0,
            "type": "noteOn",
            "noteNumber": 84,
            "velocity": 78
        },
        {
            "deltaTime": 374,
            "channel": 0,
            "type": "noteOff",
            "noteNumber": 84,
            "velocity": 0
        },
        {
            "deltaTime": 2,
            "channel": 0,
            "type": "noteOn",
            "noteNumber": 72,
            "velocity": 68
        },
        {
            "deltaTime": 7,
            "channel": 0,
            "type": "noteOff",
            "noteNumber": 68,
            "velocity": 0
        },
        {
            "deltaTime": 53,
            "channel": 0,
            "type": "noteOn",
            "noteNumber": 82,
            "velocity": 92
        },
        {
            "deltaTime": 323,
            "channel": 0,
            "type": "noteOff",
            "noteNumber": 72,
            "velocity": 0
        },
        {
            "deltaTime": 0,
            "channel": 0,
            "type": "noteOff",
            "noteNumber": 82,
            "velocity": 0
        },
        {
            "deltaTime": 4,
            "channel": 0,
            "type": "noteOn",
            "noteNumber": 79,
            "velocity": 83
        },
        {
            "deltaTime": 0,
            "channel": 0,
            "type": "noteOn",
            "noteNumber": 49,
            "velocity": 80
        },
        {
            "deltaTime": 571,
            "channel": 0,
            "type": "noteOn",
            "noteNumber": 80,
            "velocity": 57
        },
        {
            "deltaTime": 0,
            "channel": 0,
            "type": "noteOn",
            "noteNumber": 63,
            "velocity": 75
        },
        {
            "deltaTime": 4,
            "channel": 0,
            "type": "noteOff",
            "noteNumber": 79,
            "velocity": 0
        },
        {
            "deltaTime": 0,
            "channel": 0,
            "type": "noteOff",
            "noteNumber": 49,
            "velocity": 0
        },
        {
            "deltaTime": 571,
            "channel": 0,
            "type": "noteOff",
            "noteNumber": 63,
            "velocity": 0
        },
        {
            "deltaTime": 0,
            "channel": 0,
            "type": "noteOff",
            "noteNumber": 80,
            "velocity": 0
        },
        {
            "deltaTime": 7,
            "channel": 0,
            "type": "noteOn",
            "noteNumber": 65,
            "velocity": 67
        },
        {
            "deltaTime": 0,
            "channel": 0,
            "type": "noteOn",
            "noteNumber": 70,
            "velocity": 63
        },
        {
            "deltaTime": 48,
            "channel": 0,
            "type": "noteOn",
            "noteNumber": 82,
            "velocity": 73
        },
        {
            "deltaTime": 522,
            "channel": 0,
            "type": "noteOn",
            "noteNumber": 72,
            "velocity": 96
        },
        {
            "deltaTime": 0,
            "channel": 0,
            "type": "noteOn",
            "noteNumber": 68,
            "velocity": 79
        },
        {
            "deltaTime": 4,
            "channel": 0,
            "type": "noteOff",
            "noteNumber": 70,
            "velocity": 0
        },
        {
            "deltaTime": 0,
            "channel": 0,
            "type": "noteOff",
            "noteNumber": 65,
            "velocity": 0
        },
        {
            "deltaTime": 43,
            "channel": 0,
            "type": "noteOn",
            "noteNumber": 84,
            "velocity": 97
        },
        {
            "deltaTime": 4,
            "channel": 0,
            "type": "noteOff",
            "noteNumber": 82,
            "velocity": 0
        },
        {
            "deltaTime": 522,
            "channel": 0,
            "type": "noteOff",
            "noteNumber": 68,
            "velocity": 0
        },
        {
            "deltaTime": 0,
            "channel": 0,
            "type": "noteOff",
            "noteNumber": 72,
            "velocity": 0
        },
        {
            "deltaTime": 7,
            "channel": 0,
            "type": "noteOn",
            "noteNumber": 56,
            "velocity": 84
        },
        {
            "deltaTime": 0,
            "channel": 0,
            "type": "noteOn",
            "noteNumber": 77,
            "velocity": 93
        },
        {
            "deltaTime": 41,
            "channel": 0,
            "type": "noteOff",
            "noteNumber": 84,
            "velocity": 0
        },
        {
            "deltaTime": 19,
            "channel": 0,
            "type": "noteOn",
            "noteNumber": 80,
            "velocity": 93
        },
        {
            "deltaTime": 24,
            "channel": 0,
            "type": "noteOn",
            "noteNumber": 89,
            "velocity": 76
        },
        {
            "deltaTime": 291,
            "channel": 0,
            "type": "noteOn",
            "noteNumber": 65,
            "velocity": 59
        },
        {
            "deltaTime": 7,
            "channel": 0,
            "type": "noteOff",
            "noteNumber": 56,
            "velocity": 0
        },
        {
            "deltaTime": 135,
            "channel": 0,
            "type": "noteOff",
            "noteNumber": 89,
            "velocity": 0
        },
        {
            "deltaTime": 38,
            "channel": 0,
            "type": "noteOff",
            "noteNumber": 80,
            "velocity": 0
        },
        {
            "deltaTime": 8,
            "channel": 0,
            "type": "noteOff",
            "noteNumber": 77,
            "velocity": 0
        },
        {
            "deltaTime": 194,
            "channel": 0,
            "type": "noteOff",
            "noteNumber": 65,
            "velocity": 0
        },
        {
            "deltaTime": 4,
            "channel": 0,
            "type": "noteOn",
            "noteNumber": 75,
            "velocity": 60
        },
        {
            "deltaTime": 384,
            "channel": 0,
            "type": "noteOff",
            "noteNumber": 75,
            "velocity": 0
        },
        {
            "deltaTime": 4,
            "channel": 0,
            "type": "noteOn",
            "noteNumber": 61,
            "velocity": 91
        },
        {
            "deltaTime": 0,
            "channel": 0,
            "type": "noteOn",
            "noteNumber": 73,
            "velocity": 90
        },
        {
            "deltaTime": 0,
            "channel": 0,
            "type": "noteOn",
            "noteNumber": 68,
            "velocity": 84
        },
        {
            "deltaTime": 376,
            "channel": 0,
            "type": "noteOn",
            "noteNumber": 65,
            "velocity": 66
        },
        {
            "deltaTime": 16,
            "channel": 0,
            "type": "noteOff",
            "noteNumber": 68,
            "velocity": 0
        },
        {
            "deltaTime": 7,
            "channel": 0,
            "type": "noteOff",
            "noteNumber": 73,
            "velocity": 0
        },
        {
            "deltaTime": 0,
            "channel": 0,
            "type": "noteOff",
            "noteNumber": 61,
            "velocity": 0
        },
        {
            "deltaTime": 359,
            "channel": 0,
            "type": "noteOff",
            "noteNumber": 65,
            "velocity": 0
        },
        {
            "deltaTime": 4,
            "channel": 0,
            "type": "noteOn",
            "noteNumber": 70,
            "velocity": 68
        },
        {
            "deltaTime": 376,
            "channel": 0,
            "type": "noteOn",
            "noteNumber": 68,
            "velocity": 106
        },
        {
            "deltaTime": 0,
            "channel": 0,
            "type": "noteOn",
            "noteNumber": 51,
            "velocity": 66
        },
        {
            "deltaTime": 0,
            "channel": 0,
            "type": "noteOn",
            "noteNumber": 72,
            "velocity": 78
        },
        {
            "deltaTime": 7,
            "channel": 0,
            "type": "noteOff",
            "noteNumber": 70,
            "velocity": 0
        },
        {
            "deltaTime": 29,
            "channel": 0,
            "type": "noteOn",
            "noteNumber": 80,
            "velocity": 106
        },
        {
            "deltaTime": 347,
            "channel": 0,
            "type": "noteOff",
            "noteNumber": 68,
            "velocity": 0
        },
        {
            "deltaTime": 0,
            "channel": 0,
            "type": "noteOff",
            "noteNumber": 72,
            "velocity": 0
        },
        {
            "deltaTime": 7,
            "channel": 0,
            "type": "noteOff",
            "noteNumber": 80,
            "velocity": 0
        },
        {
            "deltaTime": 9,
            "channel": 0,
            "type": "noteOn",
            "noteNumber": 73,
            "velocity": 64
        },
        {
            "deltaTime": 175,
            "channel": 0,
            "type": "noteOff",
            "noteNumber": 51,
            "velocity": 0
        },
        {
            "deltaTime": 7,
            "channel": 0,
            "type": "noteOn",
            "noteNumber": 58,
            "velocity": 71
        },
        {
            "deltaTime": 182,
            "channel": 0,
            "type": "noteOn",
            "noteNumber": 72,
            "velocity": 47
        },
        {
            "deltaTime": 19,
            "channel": 0,
            "type": "noteOff",
            "noteNumber": 73,
            "velocity": 0
        },
        {
            "deltaTime": 364,
            "channel": 0,
            "type": "noteOff",
            "noteNumber": 72,
            "velocity": 0
        },
        {
            "deltaTime": 4,
            "channel": 0,
            "type": "noteOn",
            "noteNumber": 78,
            "velocity": 100
        },
        {
            "deltaTime": 0,
            "channel": 0,
            "type": "noteOn",
            "noteNumber": 66,
            "velocity": 84
        },
        {
            "deltaTime": 4,
            "channel": 0,
            "type": "noteOff",
            "noteNumber": 58,
            "velocity": 0
        },
        {
            "deltaTime": 379,
            "channel": 0,
            "type": "noteOff",
            "noteNumber": 66,
            "velocity": 0
        },
        {
            "deltaTime": 0,
            "channel": 0,
            "type": "noteOff",
            "noteNumber": 78,
            "velocity": 0
        },
        {
            "deltaTime": 4,
            "channel": 0,
            "type": "noteOn",
            "noteNumber": 73,
            "velocity": 63
        },
        {
            "deltaTime": 376,
            "channel": 0,
            "type": "noteOn",
            "noteNumber": 68,
            "velocity": 76
        },
        {
            "deltaTime": 7,
            "channel": 0,
            "type": "noteOff",
            "noteNumber": 73,
            "velocity": 0
        },
        {
            "deltaTime": 376,
            "channel": 0,
            "type": "noteOff",
            "noteNumber": 68,
            "velocity": 0
        },
        {
            "deltaTime": 4,
            "channel": 0,
            "type": "noteOn",
            "noteNumber": 70,
            "velocity": 84
        },
        {
            "deltaTime": 0,
            "channel": 0,
            "type": "noteOn",
            "noteNumber": 82,
            "velocity": 91
        },
        {
            "deltaTime": 0,
            "channel": 0,
            "type": "noteOn",
            "noteNumber": 48,
            "velocity": 70
        },
        {
            "deltaTime": 85,
            "channel": 0,
            "type": "noteOn",
            "noteNumber": 94,
            "velocity": 72
        },
        {
            "deltaTime": 298,
            "channel": 0,
            "type": "noteOff",
            "noteNumber": 70,
            "velocity": 0
        },
        {
            "deltaTime": 0,
            "channel": 0,
            "type": "noteOff",
            "noteNumber": 82,
            "velocity": 0
        },
        {
            "deltaTime": 3,
            "channel": 0,
            "type": "noteOff",
            "noteNumber": 94,
            "velocity": 0
        },
        {
            "deltaTime": 1,
            "channel": 0,
            "type": "noteOn",
            "noteNumber": 75,
            "velocity": 74
        },
        {
            "deltaTime": 0,
            "channel": 0,
            "type": "noteOn",
            "noteNumber": 72,
            "velocity": 66
        },
        {
            "deltaTime": 182,
            "channel": 0,
            "type": "noteOn",
            "noteNumber": 54,
            "velocity": 54
        },
        {
            "deltaTime": 4,
            "channel": 0,
            "type": "noteOff",
            "noteNumber": 48,
            "velocity": 0
        },
        {
            "deltaTime": 189,
            "channel": 0,
            "type": "noteOn",
            "noteNumber": 68,
            "velocity": 75
        },
        {
            "deltaTime": 0,
            "channel": 0,
            "type": "noteOn",
            "noteNumber": 73,
            "velocity": 68
        },
        {
            "deltaTime": 7,
            "channel": 0,
            "type": "noteOff",
            "noteNumber": 75,
            "velocity": 0
        },
        {
            "deltaTime": 0,
            "channel": 0,
            "type": "noteOff",
            "noteNumber": 72,
            "velocity": 0
        },
        {
            "deltaTime": 357,
            "channel": 0,
            "type": "noteOn",
            "noteNumber": 72,
            "velocity": 101
        },
        {
            "deltaTime": 12,
            "channel": 0,
            "type": "noteOn",
            "noteNumber": 63,
            "velocity": 68
        },
        {
            "deltaTime": 4,
            "channel": 0,
            "type": "noteOff",
            "noteNumber": 54,
            "velocity": 0
        },
        {
            "deltaTime": 2,
            "channel": 0,
            "type": "noteOff",
            "noteNumber": 73,
            "velocity": 0
        },
        {
            "deltaTime": 0,
            "channel": 0,
            "type": "noteOff",
            "noteNumber": 68,
            "velocity": 0
        },
        {
            "deltaTime": 4,
            "channel": 0,
            "type": "noteOn",
            "noteNumber": 56,
            "velocity": 57
        },
        {
            "deltaTime": 24,
            "channel": 0,
            "type": "noteOn",
            "noteNumber": 78,
            "velocity": 69
        },
        {
            "deltaTime": 0,
            "channel": 0,
            "type": "noteOn",
            "noteNumber": 84,
            "velocity": 99
        },
        {
            "deltaTime": 340,
            "channel": 0,
            "type": "noteOff",
            "noteNumber": 78,
            "velocity": 0
        },
        {
            "deltaTime": 0,
            "channel": 0,
            "type": "noteOff",
            "noteNumber": 84,
            "velocity": 0
        },
        {
            "deltaTime": 11,
            "channel": 0,
            "type": "noteOff",
            "noteNumber": 72,
            "velocity": 0
        },
        {
            "deltaTime": 0,
            "channel": 0,
            "type": "noteOn",
            "noteNumber": 68,
            "velocity": 92
        },
        {
            "deltaTime": 4,
            "channel": 0,
            "type": "noteOff",
            "noteNumber": 63,
            "velocity": 0
        },
        {
            "deltaTime": 2,
            "channel": 0,
            "type": "noteOff",
            "noteNumber": 56,
            "velocity": 0
        },
        {
            "deltaTime": 376,
            "channel": 0,
            "type": "noteOff",
            "noteNumber": 68,
            "velocity": 0
        },
        {
            "deltaTime": 4,
            "channel": 0,
            "type": "noteOn",
            "noteNumber": 66,
            "velocity": 93
        },
        {
            "deltaTime": 384,
            "channel": 0,
            "type": "noteOff",
            "noteNumber": 66,
            "velocity": 0
        },
        {
            "deltaTime": 4,
            "channel": 0,
            "type": "noteOn",
            "noteNumber": 49,
            "velocity": 104
        },
        {
            "deltaTime": 0,
            "channel": 0,
            "type": "noteOn",
            "noteNumber": 87,
            "velocity": 105
        },
        {
            "deltaTime": 0,
            "channel": 0,
            "type": "noteOn",
            "noteNumber": 68,
            "velocity": 95
        },
        {
            "deltaTime": 0,
            "channel": 0,
            "type": "noteOn",
            "noteNumber": 75,
            "velocity": 105
        },
        {
            "deltaTime": 287,
            "channel": 0,
            "type": "noteOff",
            "noteNumber": 87,
            "velocity": 0
        },
        {
            "deltaTime": 88,
            "channel": 0,
            "type": "noteOn",
            "noteNumber": 70,
            "velocity": 76
        },
        {
            "deltaTime": 7,
            "channel": 0,
            "type": "noteOff",
            "noteNumber": 68,
            "velocity": 0
        },
        {
            "deltaTime": 0,
            "channel": 0,
            "type": "noteOff",
            "noteNumber": 75,
            "velocity": 0
        },
        {
            "deltaTime": 187,
            "channel": 0,
            "type": "noteOn",
            "noteNumber": 56,
            "velocity": 76
        },
        {
            "deltaTime": 4,
            "channel": 0,
            "type": "noteOff",
            "noteNumber": 49,
            "velocity": 0
        },
        {
            "deltaTime": 184,
            "channel": 0,
            "type": "noteOff",
            "noteNumber": 70,
            "velocity": 0
        },
        {
            "deltaTime": 4,
            "channel": 0,
            "type": "noteOn",
            "noteNumber": 72,
            "velocity": 74
        },
        {
            "deltaTime": 376,
            "channel": 0,
            "type": "noteOn",
            "noteNumber": 65,
            "velocity": 68
        },
        {
            "deltaTime": 0,
            "channel": 0,
            "type": "noteOn",
            "noteNumber": 85,
            "velocity": 95
        },
        {
            "deltaTime": 0,
            "channel": 0,
            "type": "noteOn",
            "noteNumber": 73,
            "velocity": 98
        },
        {
            "deltaTime": 4,
            "channel": 0,
            "type": "noteOff",
            "noteNumber": 56,
            "velocity": 0
        },
        {
            "deltaTime": 2,
            "channel": 0,
            "type": "noteOff",
            "noteNumber": 72,
            "velocity": 0
        },
        {
            "deltaTime": 376,
            "channel": 0,
            "type": "noteOff",
            "noteNumber": 73,
            "velocity": 0
        },
        {
            "deltaTime": 0,
            "channel": 0,
            "type": "noteOff",
            "noteNumber": 85,
            "velocity": 0
        },
        {
            "deltaTime": 0,
            "channel": 0,
            "type": "noteOff",
            "noteNumber": 65,
            "velocity": 0
        },
        {
            "deltaTime": 4,
            "channel": 0,
            "type": "noteOn",
            "noteNumber": 68,
            "velocity": 71
        },
        {
            "deltaTime": 384,
            "channel": 0,
            "type": "noteOff",
            "noteNumber": 68,
            "velocity": 0
        },
        {
            "deltaTime": 4,
            "channel": 0,
            "type": "noteOn",
            "noteNumber": 65,
            "velocity": 56
        },
        {
            "deltaTime": 376,
            "channel": 0,
            "type": "noteOn",
            "noteNumber": 70,
            "velocity": 84
        },
        {
            "deltaTime": 0,
            "channel": 0,
            "type": "noteOn",
            "noteNumber": 82,
            "velocity": 91
        },
        {
            "deltaTime": 0,
            "channel": 0,
            "type": "noteOn",
            "noteNumber": 48,
            "velocity": 74
        },
        {
            "deltaTime": 7,
            "channel": 0,
            "type": "noteOff",
            "noteNumber": 65,
            "velocity": 0
        },
        {
            "deltaTime": 77,
            "channel": 0,
            "type": "noteOn",
            "noteNumber": 94,
            "velocity": 67
        },
        {
            "deltaTime": 298,
            "channel": 0,
            "type": "noteOff",
            "noteNumber": 82,
            "velocity": 0
        },
        {
            "deltaTime": 0,
            "channel": 0,
            "type": "noteOff",
            "noteNumber": 70,
            "velocity": 0
        },
        {
            "deltaTime": 3,
            "channel": 0,
            "type": "noteOff",
            "noteNumber": 94,
            "velocity": 0
        },
        {
            "deltaTime": 1,
            "channel": 0,
            "type": "noteOn",
            "noteNumber": 75,
            "velocity": 78
        },
        {
            "deltaTime": 0,
            "channel": 0,
            "type": "noteOn",
            "noteNumber": 72,
            "velocity": 70
        },
        {
            "deltaTime": 187,
            "channel": 0,
            "type": "noteOff",
            "noteNumber": 48,
            "velocity": 0
        },
        {
            "deltaTime": 7,
            "channel": 0,
            "type": "noteOn",
            "noteNumber": 54,
            "velocity": 57
        },
        {
            "deltaTime": 182,
            "channel": 0,
            "type": "noteOn",
            "noteNumber": 68,
            "velocity": 78
        },
        {
            "deltaTime": 0,
            "channel": 0,
            "type": "noteOn",
            "noteNumber": 73,
            "velocity": 71
        },
        {
            "deltaTime": 7,
            "channel": 0,
            "type": "noteOff",
            "noteNumber": 75,
            "velocity": 0
        },
        {
            "deltaTime": 0,
            "channel": 0,
            "type": "noteOff",
            "noteNumber": 72,
            "velocity": 0
        },
        {
            "deltaTime": 369,
            "channel": 0,
            "type": "noteOn",
            "noteNumber": 63,
            "velocity": 90
        },
        {
            "deltaTime": 0,
            "channel": 0,
            "type": "noteOn",
            "noteNumber": 72,
            "velocity": 106
        },
        {
            "deltaTime": 7,
            "channel": 0,
            "type": "noteOff",
            "noteNumber": 73,
            "velocity": 0
        },
        {
            "deltaTime": 0,
            "channel": 0,
            "type": "noteOff",
            "noteNumber": 68,
            "velocity": 0
        },
        {
            "deltaTime": 4,
            "channel": 0,
            "type": "noteOn",
            "noteNumber": 56,
            "velocity": 56
        },
        {
            "deltaTime": 4,
            "channel": 0,
            "type": "noteOff",
            "noteNumber": 54,
            "velocity": 0
        },
        {
            "deltaTime": 19,
            "channel": 0,
            "type": "noteOn",
            "noteNumber": 78,
            "velocity": 88
        },
        {
            "deltaTime": 0,
            "channel": 0,
            "type": "noteOn",
            "noteNumber": 84,
            "velocity": 99
        },
        {
            "deltaTime": 340,
            "channel": 0,
            "type": "noteOff",
            "noteNumber": 78,
            "velocity": 0
        },
        {
            "deltaTime": 0,
            "channel": 0,
            "type": "noteOff",
            "noteNumber": 84,
            "velocity": 0
        },
        {
            "deltaTime": 16,
            "channel": 0,
            "type": "noteOff",
            "noteNumber": 63,
            "velocity": 0
        },
        {
            "deltaTime": 2,
            "channel": 0,
            "type": "noteOff",
            "noteNumber": 56,
            "velocity": 0
        },
        {
            "deltaTime": 4,
            "channel": 0,
            "type": "noteOff",
            "noteNumber": 72,
            "velocity": 0
        },
        {
            "deltaTime": 0,
            "channel": 0,
            "type": "noteOn",
            "noteNumber": 68,
            "velocity": 93
        },
        {
            "deltaTime": 376,
            "channel": 0,
            "type": "noteOn",
            "noteNumber": 66,
            "velocity": 92
        },
        {
            "deltaTime": 7,
            "channel": 0,
            "type": "noteOff",
            "noteNumber": 68,
            "velocity": 0
        },
        {
            "deltaTime": 376,
            "channel": 0,
            "type": "noteOff",
            "noteNumber": 66,
            "velocity": 0
        },
        {
            "deltaTime": 4,
            "channel": 0,
            "type": "noteOn",
            "noteNumber": 49,
            "velocity": 92
        },
        {
            "deltaTime": 0,
            "channel": 0,
            "type": "noteOn",
            "noteNumber": 81,
            "velocity": 94
        },
        {
            "deltaTime": 0,
            "channel": 0,
            "type": "noteOn",
            "noteNumber": 87,
            "velocity": 102
        },
        {
            "deltaTime": 0,
            "channel": 0,
            "type": "noteOn",
            "noteNumber": 75,
            "velocity": 94
        },
        {
            "deltaTime": 0,
            "channel": 0,
            "type": "noteOn",
            "noteNumber": 65,
            "velocity": 93
        },
        {
            "deltaTime": 0,
            "channel": 0,
            "type": "noteOn",
            "noteNumber": 69,
            "velocity": 97
        },
        {
            "deltaTime": 355,
            "channel": 0,
            "type": "noteOff",
            "noteNumber": 65,
            "velocity": 0
        },
        {
            "deltaTime": 14,
            "channel": 0,
            "type": "noteOff",
            "noteNumber": 81,
            "velocity": 0
        },
        {
            "deltaTime": 0,
            "channel": 0,
            "type": "noteOff",
            "noteNumber": 87,
            "velocity": 0
        },
        {
            "deltaTime": 7,
            "channel": 0,
            "type": "noteOn",
            "noteNumber": 72,
            "velocity": 87
        },
        {
            "deltaTime": 7,
            "channel": 0,
            "type": "noteOff",
            "noteNumber": 69,
            "velocity": 0
        },
        {
            "deltaTime": 0,
            "channel": 0,
            "type": "noteOff",
            "noteNumber": 75,
            "velocity": 0
        },
        {
            "deltaTime": 187,
            "channel": 0,
            "type": "noteOn",
            "noteNumber": 57,
            "velocity": 67
        },
        {
            "deltaTime": 4,
            "channel": 0,
            "type": "noteOff",
            "noteNumber": 49,
            "velocity": 0
        },
        {
            "deltaTime": 184,
            "channel": 0,
            "type": "noteOff",
            "noteNumber": 72,
            "velocity": 0
        },
        {
            "deltaTime": 4,
            "channel": 0,
            "type": "noteOn",
            "noteNumber": 75,
            "velocity": 77
        },
        {
            "deltaTime": 381,
            "channel": 0,
            "type": "noteOff",
            "noteNumber": 57,
            "velocity": 0
        },
        {
            "deltaTime": 2,
            "channel": 0,
            "type": "noteOff",
            "noteNumber": 75,
            "velocity": 0
        },
        {
            "deltaTime": 4,
            "channel": 0,
            "type": "noteOn",
            "noteNumber": 73,
            "velocity": 91
        },
        {
            "deltaTime": 0,
            "channel": 0,
            "type": "noteOn",
            "noteNumber": 58,
            "velocity": 92
        },
        {
            "deltaTime": 0,
            "channel": 0,
            "type": "noteOn",
            "noteNumber": 82,
            "velocity": 104
        },
        {
            "deltaTime": 0,
            "channel": 0,
            "type": "noteOn",
            "noteNumber": 70,
            "velocity": 99
        },
        {
            "deltaTime": 0,
            "channel": 0,
            "type": "noteOn",
            "noteNumber": 65,
            "velocity": 87
        },
        {
            "deltaTime": 0,
            "channel": 0,
            "type": "noteOn",
            "noteNumber": 85,
            "velocity": 98
        },
        {
            "deltaTime": 376,
            "channel": 0,
            "type": "noteOn",
            "noteNumber": 68,
            "velocity": 103
        },
        {
            "deltaTime": 7,
            "channel": 0,
            "type": "noteOff",
            "noteNumber": 85,
            "velocity": 0
        },
        {
            "deltaTime": 0,
            "channel": 0,
            "type": "noteOff",
            "noteNumber": 73,
            "velocity": 0
        },
        {
            "deltaTime": 0,
            "channel": 0,
            "type": "noteOff",
            "noteNumber": 82,
            "velocity": 0
        },
        {
            "deltaTime": 0,
            "channel": 0,
            "type": "noteOff",
            "noteNumber": 65,
            "velocity": 0
        },
        {
            "deltaTime": 0,
            "channel": 0,
            "type": "noteOff",
            "noteNumber": 70,
            "velocity": 0
        },
        {
            "deltaTime": 192,
            "channel": 0,
            "type": "noteOff",
            "noteNumber": 58,
            "velocity": 0
        },
        {
            "deltaTime": 184,
            "channel": 0,
            "type": "noteOff",
            "noteNumber": 68,
            "velocity": 0
        },
        {
            "deltaTime": 4,
            "channel": 0,
            "type": "noteOn",
            "noteNumber": 65,
            "velocity": 91
        },
        {
            "deltaTime": 376,
            "channel": 0,
            "type": "noteOn",
            "noteNumber": 39,
            "velocity": 101
        },
        {
            "deltaTime": 0,
            "channel": 0,
            "type": "noteOn",
            "noteNumber": 82,
            "velocity": 101
        },
        {
            "deltaTime": 0,
            "channel": 0,
            "type": "noteOn",
            "noteNumber": 63,
            "velocity": 101
        },
        {
            "deltaTime": 0,
            "channel": 0,
            "type": "noteOn",
            "noteNumber": 51,
            "velocity": 101
        },
        {
            "deltaTime": 0,
            "channel": 0,
            "type": "noteOn",
            "noteNumber": 70,
            "velocity": 101
        },
        {
            "deltaTime": 7,
            "channel": 0,
            "type": "noteOff",
            "noteNumber": 65,
            "velocity": 0
        },
        {
            "deltaTime": 295,
            "channel": 0,
            "type": "noteOff",
            "noteNumber": 82,
            "velocity": 0
        },
        {
            "deltaTime": 81,
            "channel": 0,
            "type": "noteOff",
            "noteNumber": 70,
            "velocity": 0
        },
        {
            "deltaTime": 0,
            "channel": 0,
            "type": "noteOff",
            "noteNumber": 63,
            "velocity": 0
        },
        {
            "deltaTime": 4,
            "channel": 0,
            "type": "noteOn",
            "noteNumber": 72,
            "velocity": 76
        },
        {
            "deltaTime": 0,
            "channel": 0,
            "type": "noteOn",
            "noteNumber": 75,
            "velocity": 84
        },
        {
            "deltaTime": 187,
            "channel": 0,
            "type": "noteOff",
            "noteNumber": 51,
            "velocity": 0
        },
        {
            "deltaTime": 0,
            "channel": 0,
            "type": "noteOff",
            "noteNumber": 39,
            "velocity": 0
        },
        {
            "deltaTime": 196,
            "channel": 0,
            "type": "noteOff",
            "noteNumber": 72,
            "velocity": 0
        },
        {
            "deltaTime": 0,
            "channel": 0,
            "type": "noteOff",
            "noteNumber": 75,
            "velocity": 0
        },
        {
            "deltaTime": 4,
            "channel": 0,
            "type": "noteOn",
            "noteNumber": 68,
            "velocity": 82
        },
        {
            "deltaTime": 0,
            "channel": 0,
            "type": "noteOn",
            "noteNumber": 73,
            "velocity": 75
        },
        {
            "deltaTime": 376,
            "channel": 0,
            "type": "noteOn",
            "noteNumber": 66,
            "velocity": 103
        },
        {
            "deltaTime": 0,
            "channel": 0,
            "type": "noteOn",
            "noteNumber": 72,
            "velocity": 103
        },
        {
            "deltaTime": 0,
            "channel": 0,
            "type": "noteOn",
            "noteNumber": 80,
            "velocity": 103
        },
        {
            "deltaTime": 0,
            "channel": 0,
            "type": "noteOn",
            "noteNumber": 60,
            "velocity": 103
        },
        {
            "deltaTime": 7,
            "channel": 0,
            "type": "noteOff",
            "noteNumber": 73,
            "velocity": 0
        },
        {
            "deltaTime": 0,
            "channel": 0,
            "type": "noteOff",
            "noteNumber": 68,
            "velocity": 0
        },
        {
            "deltaTime": 16,
            "channel": 0,
            "type": "noteOn",
            "noteNumber": 84,
            "velocity": 103
        },
        {
            "deltaTime": 297,
            "channel": 0,
            "type": "noteOff",
            "noteNumber": 80,
            "velocity": 0
        },
        {
            "deltaTime": 19,
            "channel": 0,
            "type": "noteOff",
            "noteNumber": 66,
            "velocity": 0
        },
        {
            "deltaTime": 0,
            "channel": 0,
            "type": "noteOff",
            "noteNumber": 72,
            "velocity": 0
        },
        {
            "deltaTime": 5,
            "channel": 0,
            "type": "noteOff",
            "noteNumber": 84,
            "velocity": 0
        },
        {
            "deltaTime": 42,
            "channel": 0,
            "type": "noteOn",
            "noteNumber": 68,
            "velocity": 90
        },
        {
            "deltaTime": 11,
            "channel": 0,
            "type": "noteOff",
            "noteNumber": 60,
            "velocity": 0
        },
        {
            "deltaTime": 372,
            "channel": 0,
            "type": "noteOff",
            "noteNumber": 68,
            "velocity": 0
        },
        {
            "deltaTime": 4,
            "channel": 0,
            "type": "noteOn",
            "noteNumber": 66,
            "velocity": 88
        },
        {
            "deltaTime": 376,
            "channel": 0,
            "type": "noteOn",
            "noteNumber": 68,
            "velocity": 110
        },
        {
            "deltaTime": 0,
            "channel": 0,
            "type": "noteOn",
            "noteNumber": 61,
            "velocity": 106
        },
        {
            "deltaTime": 0,
            "channel": 0,
            "type": "noteOn",
            "noteNumber": 76,
            "velocity": 108
        },
        {
            "deltaTime": 0,
            "channel": 0,
            "type": "noteOn",
            "noteNumber": 52,
            "velocity": 106
        },
        {
            "deltaTime": 0,
            "channel": 0,
            "type": "noteOn",
            "noteNumber": 88,
            "velocity": 97
        },
        {
            "deltaTime": 0,
            "channel": 0,
            "type": "noteOn",
            "noteNumber": 40,
            "velocity": 106
        },
        {
            "deltaTime": 7,
            "channel": 0,
            "type": "noteOff",
            "noteNumber": 66,
            "velocity": 0
        },
        {
            "deltaTime": 280,
            "channel": 0,
            "type": "noteOff",
            "noteNumber": 76,
            "velocity": 0
        },
        {
            "deltaTime": 0,
            "channel": 0,
            "type": "noteOff",
            "noteNumber": 88,
            "velocity": 0
        },
        {
            "deltaTime": 95,
            "channel": 0,
            "type": "noteOff",
            "noteNumber": 68,
            "velocity": 0
        },
        {
            "deltaTime": 0,
            "channel": 0,
            "type": "noteOff",
            "noteNumber": 61,
            "velocity": 0
        },
        {
            "deltaTime": 4,
            "channel": 0,
            "type": "noteOn",
            "noteNumber": 70,
            "velocity": 96
        },
        {
            "deltaTime": 187,
            "channel": 0,
            "type": "noteOff",
            "noteNumber": 52,
            "velocity": 0
        },
        {
            "deltaTime": 0,
            "channel": 0,
            "type": "noteOff",
            "noteNumber": 40,
            "velocity": 0
        },
        {
            "deltaTime": 189,
            "channel": 0,
            "type": "noteOn",
            "noteNumber": 88,
            "velocity": 118
        },
        {
            "deltaTime": 0,
            "channel": 0,
            "type": "noteOn",
            "noteNumber": 76,
            "velocity": 118
        },
        {
            "deltaTime": 0,
            "channel": 0,
            "type": "noteOn",
            "noteNumber": 72,
            "velocity": 118
        },
        {
            "deltaTime": 7,
            "channel": 0,
            "type": "noteOff",
            "noteNumber": 70,
            "velocity": 0
        },
        {
            "deltaTime": 376,
            "channel": 0,
            "type": "noteOff",
            "noteNumber": 88,
            "velocity": 0
        },
        {
            "deltaTime": 0,
            "channel": 0,
            "type": "noteOff",
            "noteNumber": 76,
            "velocity": 0
        },
        {
            "deltaTime": 0,
            "channel": 0,
            "type": "noteOff",
            "noteNumber": 72,
            "velocity": 0
        },
        {
            "deltaTime": 4,
            "channel": 0,
            "type": "noteOn",
            "noteNumber": 85,
            "velocity": 105
        },
        {
            "deltaTime": 0,
            "channel": 0,
            "type": "noteOn",
            "noteNumber": 58,
            "velocity": 105
        },
        {
            "deltaTime": 0,
            "channel": 0,
            "type": "noteOn",
            "noteNumber": 73,
            "velocity": 105
        },
        {
            "deltaTime": 0,
            "channel": 0,
            "type": "noteOn",
            "noteNumber": 79,
            "velocity": 105
        },
        {
            "deltaTime": 0,
            "channel": 0,
            "type": "noteOn",
            "noteNumber": 75,
            "velocity": 105
        },
        {
            "deltaTime": 384,
            "channel": 0,
            "type": "noteOff",
            "noteNumber": 75,
            "velocity": 0
        },
        {
            "deltaTime": 0,
            "channel": 0,
            "type": "noteOff",
            "noteNumber": 79,
            "velocity": 0
        },
        {
            "deltaTime": 0,
            "channel": 0,
            "type": "noteOff",
            "noteNumber": 85,
            "velocity": 0
        },
        {
            "deltaTime": 0,
            "channel": 0,
            "type": "noteOff",
            "noteNumber": 73,
            "velocity": 0
        },
        {
            "deltaTime": 0,
            "channel": 0,
            "type": "noteOff",
            "noteNumber": 58,
            "velocity": 0
        },
        {
            "deltaTime": 4,
            "channel": 0,
            "type": "noteOn",
            "noteNumber": 70,
            "velocity": 107
        },
        {
            "deltaTime": 376,
            "channel": 0,
            "type": "noteOn",
            "noteNumber": 67,
            "velocity": 122
        },
        {
            "deltaTime": 7,
            "channel": 0,
            "type": "noteOff",
            "noteNumber": 70,
            "velocity": 0
        },
        {
            "deltaTime": 376,
            "channel": 0,
            "type": "noteOff",
            "noteNumber": 67,
            "velocity": 0
        },
        {
            "deltaTime": 4,
            "channel": 0,
            "type": "noteOn",
            "noteNumber": 32,
            "velocity": 111
        },
        {
            "deltaTime": 0,
            "channel": 0,
            "type": "noteOn",
            "noteNumber": 72,
            "velocity": 116
        },
        {
            "deltaTime": 0,
            "channel": 0,
            "type": "noteOn",
            "noteNumber": 44,
            "velocity": 111
        },
        {
            "deltaTime": 0,
            "channel": 0,
            "type": "noteOn",
            "noteNumber": 56,
            "velocity": 99
        },
        {
            "deltaTime": 0,
            "channel": 0,
            "type": "noteOn",
            "noteNumber": 68,
            "velocity": 116
        },
        {
            "deltaTime": 0,
            "channel": 0,
            "type": "noteOn",
            "noteNumber": 64,
            "velocity": 116
        },
        {
            "deltaTime": 376,
            "channel": 0,
            "type": "noteOn",
            "noteNumber": 76,
            "velocity": 85
        },
        {
            "deltaTime": 0,
            "channel": 0,
            "type": "noteOn",
            "noteNumber": 60,
            "velocity": 59
        },
        {
            "deltaTime": 7,
            "channel": 0,
            "type": "noteOff",
            "noteNumber": 64,
            "velocity": 0
        },
        {
            "deltaTime": 0,
            "channel": 0,
            "type": "noteOff",
            "noteNumber": 56,
            "velocity": 0
        },
        {
            "deltaTime": 0,
            "channel": 0,
            "type": "noteOff",
            "noteNumber": 68,
            "velocity": 0
        },
        {
            "deltaTime": 0,
            "channel": 0,
            "type": "noteOff",
            "noteNumber": 72,
            "velocity": 0
        },
        {
            "deltaTime": 192,
            "channel": 0,
            "type": "noteOff",
            "noteNumber": 32,
            "velocity": 0
        },
        {
            "deltaTime": 0,
            "channel": 0,
            "type": "noteOff",
            "noteNumber": 44,
            "velocity": 0
        },
        {
            "deltaTime": 184,
            "channel": 0,
            "type": "noteOff",
            "noteNumber": 60,
            "velocity": 0
        },
        {
            "deltaTime": 0,
            "channel": 0,
            "type": "noteOff",
            "noteNumber": 76,
            "velocity": 0
        },
        {
            "deltaTime": 4,
            "channel": 0,
            "type": "noteOn",
            "noteNumber": 56,
            "velocity": 70
        },
        {
            "deltaTime": 0,
            "channel": 0,
            "type": "noteOn",
            "noteNumber": 75,
            "velocity": 82
        },
        {
            "deltaTime": 384,
            "channel": 0,
            "type": "noteOff",
            "noteNumber": 75,
            "velocity": 0
        },
        {
            "deltaTime": 0,
            "channel": 0,
            "type": "noteOff",
            "noteNumber": 56,
            "velocity": 0
        },
        {
            "deltaTime": 4,
            "channel": 0,
            "type": "noteOn",
            "noteNumber": 68,
            "velocity": 111
        },
        {
            "deltaTime": 0,
            "channel": 0,
            "type": "noteOn",
            "noteNumber": 49,
            "velocity": 92
        },
        {
            "deltaTime": 0,
            "channel": 0,
            "type": "noteOn",
            "noteNumber": 64,
            "velocity": 111
        },
        {
            "deltaTime": 0,
            "channel": 0,
            "type": "noteOn",
            "noteNumber": 58,
            "velocity": 100
        },
        {
            "deltaTime": 0,
            "channel": 0,
            "type": "noteOn",
            "noteNumber": 73,
            "velocity": 111
        },
        {
            "deltaTime": 376,
            "channel": 0,
            "type": "noteOn",
            "noteNumber": 56,
            "velocity": 87
        },
        {
            "deltaTime": 0,
            "channel": 0,
            "type": "noteOn",
            "noteNumber": 72,
            "velocity": 68
        },
        {
            "deltaTime": 7,
            "channel": 0,
            "type": "noteOff",
            "noteNumber": 58,
            "velocity": 0
        },
        {
            "deltaTime": 0,
            "channel": 0,
            "type": "noteOff",
            "noteNumber": 64,
            "velocity": 0
        },
        {
            "deltaTime": 0,
            "channel": 0,
            "type": "noteOff",
            "noteNumber": 68,
            "velocity": 0
        },
        {
            "deltaTime": 0,
            "channel": 0,
            "type": "noteOff",
            "noteNumber": 49,
            "velocity": 0
        },
        {
            "deltaTime": 0,
            "channel": 0,
            "type": "noteOff",
            "noteNumber": 73,
            "velocity": 0
        },
        {
            "deltaTime": 376,
            "channel": 0,
            "type": "noteOff",
            "noteNumber": 56,
            "velocity": 0
        },
        {
            "deltaTime": 0,
            "channel": 0,
            "type": "noteOff",
            "noteNumber": 72,
            "velocity": 0
        },
        {
            "deltaTime": 4,
            "channel": 0,
            "type": "noteOn",
            "noteNumber": 54,
            "velocity": 99
        },
        {
            "deltaTime": 12,
            "channel": 0,
            "type": "noteOn",
            "noteNumber": 75,
            "velocity": 75
        },
        {
            "deltaTime": 364,
            "channel": 0,
            "type": "noteOn",
            "noteNumber": 56,
            "velocity": 107
        },
        {
            "deltaTime": 0,
            "channel": 0,
            "type": "noteOn",
            "noteNumber": 68,
            "velocity": 111
        },
        {
            "deltaTime": 0,
            "channel": 0,
            "type": "noteOn",
            "noteNumber": 73,
            "velocity": 111
        },
        {
            "deltaTime": 0,
            "channel": 0,
            "type": "noteOn",
            "noteNumber": 76,
            "velocity": 111
        },
        {
            "deltaTime": 7,
            "channel": 0,
            "type": "noteOff",
            "noteNumber": 54,
            "velocity": 0
        },
        {
            "deltaTime": 12,
            "channel": 0,
            "type": "noteOff",
            "noteNumber": 75,
            "velocity": 0
        },
        {
            "deltaTime": 364,
            "channel": 0,
            "type": "noteOff",
            "noteNumber": 76,
            "velocity": 0
        },
        {
            "deltaTime": 0,
            "channel": 0,
            "type": "noteOff",
            "noteNumber": 68,
            "velocity": 0
        },
        {
            "deltaTime": 0,
            "channel": 0,
            "type": "noteOff",
            "noteNumber": 73,
            "velocity": 0
        },
        {
            "deltaTime": 0,
            "channel": 0,
            "type": "noteOff",
            "noteNumber": 56,
            "velocity": 0
        },
        {
            "deltaTime": 4,
            "channel": 0,
            "type": "noteOn",
            "noteNumber": 54,
            "velocity": 96
        },
        {
            "deltaTime": 0,
            "channel": 0,
            "type": "noteOn",
            "noteNumber": 78,
            "velocity": 73
        },
        {
            "deltaTime": 384,
            "channel": 0,
            "type": "noteOff",
            "noteNumber": 54,
            "velocity": 0
        },
        {
            "deltaTime": 0,
            "channel": 0,
            "type": "noteOff",
            "noteNumber": 78,
            "velocity": 0
        },
        {
            "deltaTime": 4,
            "channel": 0,
            "type": "noteOn",
            "noteNumber": 52,
            "velocity": 116
        },
        {
            "deltaTime": 0,
            "channel": 0,
            "type": "noteOn",
            "noteNumber": 79,
            "velocity": 85
        },
        {
            "deltaTime": 268,
            "channel": 0,
            "type": "noteOff",
            "noteNumber": 52,
            "velocity": 0
        },
        {
            "deltaTime": 107,
            "channel": 0,
            "type": "noteOn",
            "noteNumber": 64,
            "velocity": 119
        },
        {
            "deltaTime": 0,
            "channel": 0,
            "type": "noteOn",
            "noteNumber": 32,
            "velocity": 104
        },
        {
            "deltaTime": 0,
            "channel": 0,
            "type": "noteOn",
            "noteNumber": 73,
            "velocity": 116
        },
        {
            "deltaTime": 0,
            "channel": 0,
            "type": "noteOn",
            "noteNumber": 80,
            "velocity": 116
        },
        {
            "deltaTime": 0,
            "channel": 0,
            "type": "noteOn",
            "noteNumber": 76,
            "velocity": 114
        },
        {
            "deltaTime": 0,
            "channel": 0,
            "type": "noteOn",
            "noteNumber": 44,
            "velocity": 104
        },
        {
            "deltaTime": 7,
            "channel": 0,
            "type": "noteOff",
            "noteNumber": 79,
            "velocity": 0
        },
        {
            "deltaTime": 251,
            "channel": 0,
            "type": "noteOff",
            "noteNumber": 64,
            "velocity": 0
        },
        {
            "deltaTime": 28,
            "channel": 0,
            "type": "noteOff",
            "noteNumber": 80,
            "velocity": 0
        },
        {
            "deltaTime": 0,
            "channel": 0,
            "type": "noteOff",
            "noteNumber": 73,
            "velocity": 0
        },
        {
            "deltaTime": 0,
            "channel": 0,
            "type": "noteOff",
            "noteNumber": 76,
            "velocity": 0
        },
        {
            "deltaTime": 3,
            "channel": 0,
            "type": "noteOn",
            "noteNumber": 63,
            "velocity": 76
        },
        {
            "deltaTime": 0,
            "channel": 0,
            "type": "noteOn",
            "noteNumber": 81,
            "velocity": 73
        },
        {
            "deltaTime": 284,
            "channel": 0,
            "type": "noteOff",
            "noteNumber": 44,
            "velocity": 0
        },
        {
            "deltaTime": 0,
            "channel": 0,
            "type": "noteOff",
            "noteNumber": 32,
            "velocity": 0
        },
        {
            "deltaTime": 1,
            "channel": 0,
            "type": "noteOff",
            "noteNumber": 63,
            "velocity": 0
        },
        {
            "deltaTime": 2,
            "channel": 0,
            "type": "noteOff",
            "noteNumber": 81,
            "velocity": 0
        },
        {
            "deltaTime": 3,
            "channel": 0,
            "type": "noteOn",
            "noteNumber": 62,
            "velocity": 62
        },
        {
            "deltaTime": 0,
            "channel": 0,
            "type": "noteOn",
            "noteNumber": 82,
            "velocity": 87
        },
        {
            "deltaTime": 279,
            "channel": 0,
            "type": "noteOn",
            "noteNumber": 61,
            "velocity": 81
        },
        {
            "deltaTime": 0,
            "channel": 0,
            "type": "noteOn",
            "noteNumber": 83,
            "velocity": 90
        },
        {
            "deltaTime": 8,
            "channel": 0,
            "type": "noteOff",
            "noteNumber": 82,
            "velocity": 0
        },
        {
            "deltaTime": 0,
            "channel": 0,
            "type": "noteOff",
            "noteNumber": 62,
            "velocity": 0
        },
        {
            "deltaTime": 279,
            "channel": 0,
            "type": "noteOff",
            "noteNumber": 61,
            "velocity": 0
        },
        {
            "deltaTime": 0,
            "channel": 0,
            "type": "noteOff",
            "noteNumber": 83,
            "velocity": 0
        },
        {
            "deltaTime": 3,
            "channel": 0,
            "type": "noteOn",
            "noteNumber": 60,
            "velocity": 108
        },
        {
            "deltaTime": 0,
            "channel": 0,
            "type": "noteOn",
            "noteNumber": 72,
            "velocity": 113
        },
        {
            "deltaTime": 0,
            "channel": 0,
            "type": "noteOn",
            "noteNumber": 36,
            "velocity": 110
        },
        {
            "deltaTime": 0,
            "channel": 0,
            "type": "noteOn",
            "noteNumber": 84,
            "velocity": 119
        },
        {
            "deltaTime": 0,
            "channel": 0,
            "type": "noteOn",
            "noteNumber": 48,
            "velocity": 112
        },
        {
            "deltaTime": 0,
            "channel": 0,
            "type": "noteOn",
            "noteNumber": 81,
            "velocity": 106
        },
        {
            "deltaTime": 0,
            "channel": 0,
            "type": "noteOn",
            "noteNumber": 77,
            "velocity": 119
        },
        {
            "deltaTime": 12,
            "channel": 0,
            "type": "noteOn",
            "noteNumber": 104,
            "velocity": 71
        },
        {
            "deltaTime": 279,
            "channel": 0,
            "type": "noteOn",
            "noteNumber": 103,
            "velocity": 65
        },
        {
            "deltaTime": 8,
            "channel": 0,
            "type": "noteOff",
            "noteNumber": 104,
            "velocity": 0
        },
        {
            "deltaTime": 83,
            "channel": 0,
            "type": "noteOff",
            "noteNumber": 36,
            "velocity": 0
        },
        {
            "deltaTime": 0,
            "channel": 0,
            "type": "noteOff",
            "noteNumber": 60,
            "velocity": 0
        },
        {
            "deltaTime": 0,
            "channel": 0,
            "type": "noteOff",
            "noteNumber": 48,
            "velocity": 0
        },
        {
            "deltaTime": 124,
            "channel": 0,
            "type": "noteOff",
            "noteNumber": 84,
            "velocity": 0
        },
        {
            "deltaTime": 0,
            "channel": 0,
            "type": "noteOff",
            "noteNumber": 81,
            "velocity": 0
        },
        {
            "deltaTime": 0,
            "channel": 0,
            "type": "noteOff",
            "noteNumber": 77,
            "velocity": 0
        },
        {
            "deltaTime": 0,
            "channel": 0,
            "type": "noteOff",
            "noteNumber": 72,
            "velocity": 0
        },
        {
            "deltaTime": 62,
            "channel": 0,
            "type": "noteOn",
            "noteNumber": 102,
            "velocity": 75
        },
        {
            "deltaTime": 8,
            "channel": 0,
            "type": "noteOff",
            "noteNumber": 103,
            "velocity": 0
        },
        {
            "deltaTime": 279,
            "channel": 0,
            "type": "noteOff",
            "noteNumber": 102,
            "velocity": 0
        },
        {
            "deltaTime": 3,
            "channel": 0,
            "type": "noteOn",
            "noteNumber": 101,
            "velocity": 65
        },
        {
            "deltaTime": 287,
            "channel": 0,
            "type": "noteOff",
            "noteNumber": 101,
            "velocity": 0
        },
        {
            "deltaTime": 3,
            "channel": 0,
            "type": "noteOn",
            "noteNumber": 89,
            "velocity": 105
        },
        {
            "deltaTime": 0,
            "channel": 0,
            "type": "noteOn",
            "noteNumber": 84,
            "velocity": 105
        },
        {
            "deltaTime": 0,
            "channel": 0,
            "type": "noteOn",
            "noteNumber": 93,
            "velocity": 96
        },
        {
            "deltaTime": 0,
            "channel": 0,
            "type": "noteOn",
            "noteNumber": 100,
            "velocity": 96
        },
        {
            "deltaTime": 287,
            "channel": 0,
            "type": "noteOff",
            "noteNumber": 100,
            "velocity": 0
        },
        {
            "deltaTime": 3,
            "channel": 0,
            "type": "noteOn",
            "noteNumber": 99,
            "velocity": 63
        },
        {
            "deltaTime": 279,
            "channel": 0,
            "type": "noteOn",
            "noteNumber": 98,
            "velocity": 73
        },
        {
            "deltaTime": 8,
            "channel": 0,
            "type": "noteOff",
            "noteNumber": 99,
            "velocity": 0
        },
        {
            "deltaTime": 265,
            "channel": 0,
            "type": "noteOff",
            "noteNumber": 93,
            "velocity": 0
        },
        {
            "deltaTime": 14,
            "channel": 0,
            "type": "noteOff",
            "noteNumber": 98,
            "velocity": 0
        },
        {
            "deltaTime": 3,
            "channel": 0,
            "type": "noteOn",
            "noteNumber": 97,
            "velocity": 84
        },
        {
            "deltaTime": 6,
            "channel": 0,
            "type": "noteOff",
            "noteNumber": 89,
            "velocity": 0
        },
        {
            "deltaTime": 0,
            "channel": 0,
            "type": "noteOff",
            "noteNumber": 84,
            "velocity": 0
        },
        {
            "deltaTime": 281,
            "channel": 0,
            "type": "noteOff",
            "noteNumber": 97,
            "velocity": 0
        },
        {
            "deltaTime": 3,
            "channel": 0,
            "type": "noteOn",
            "noteNumber": 81,
            "velocity": 109
        },
        {
            "deltaTime": 0,
            "channel": 0,
            "type": "noteOn",
            "noteNumber": 84,
            "velocity": 115
        },
        {
            "deltaTime": 0,
            "channel": 0,
            "type": "noteOn",
            "noteNumber": 96,
            "velocity": 100
        },
        {
            "deltaTime": 0,
            "channel": 0,
            "type": "noteOn",
            "noteNumber": 89,
            "velocity": 115
        },
        {
            "deltaTime": 0,
            "channel": 0,
            "type": "noteOn",
            "noteNumber": 53,
            "velocity": 55
        },
        {
            "deltaTime": 279,
            "channel": 0,
            "type": "noteOn",
            "noteNumber": 95,
            "velocity": 78
        },
        {
            "deltaTime": 8,
            "channel": 0,
            "type": "noteOff",
            "noteNumber": 96,
            "velocity": 0
        },
        {
            "deltaTime": 279,
            "channel": 0,
            "type": "noteOff",
            "noteNumber": 95,
            "velocity": 0
        },
        {
            "deltaTime": 3,
            "channel": 0,
            "type": "noteOn",
            "noteNumber": 94,
            "velocity": 77
        },
        {
            "deltaTime": 4,
            "channel": 0,
            "type": "noteOff",
            "noteNumber": 53,
            "velocity": 0
        },
        {
            "deltaTime": 283,
            "channel": 0,
            "type": "noteOff",
            "noteNumber": 94,
            "velocity": 0
        },
        {
            "deltaTime": 3,
            "channel": 0,
            "type": "noteOn",
            "noteNumber": 93,
            "velocity": 71
        },
        {
            "deltaTime": 30,
            "channel": 0,
            "type": "noteOff",
            "noteNumber": 81,
            "velocity": 0
        },
        {
            "deltaTime": 0,
            "channel": 0,
            "type": "noteOff",
            "noteNumber": 89,
            "velocity": 0
        },
        {
            "deltaTime": 0,
            "channel": 0,
            "type": "noteOff",
            "noteNumber": 84,
            "velocity": 0
        },
        {
            "deltaTime": 249,
            "channel": 0,
            "type": "noteOn",
            "noteNumber": 81,
            "velocity": 89
        },
        {
            "deltaTime": 0,
            "channel": 0,
            "type": "noteOn",
            "noteNumber": 85,
            "velocity": 94
        },
        {
            "deltaTime": 0,
            "channel": 0,
            "type": "noteOn",
            "noteNumber": 92,
            "velocity": 74
        },
        {
            "deltaTime": 0,
            "channel": 0,
            "type": "noteOn",
            "noteNumber": 57,
            "velocity": 66
        },
        {
            "deltaTime": 0,
            "channel": 0,
            "type": "noteOn",
            "noteNumber": 77,
            "velocity": 100
        },
        {
            "deltaTime": 8,
            "channel": 0,
            "type": "noteOff",
            "noteNumber": 93,
            "velocity": 0
        },
        {
            "deltaTime": 279,
            "channel": 0,
            "type": "noteOff",
            "noteNumber": 92,
            "velocity": 0
        },
        {
            "deltaTime": 3,
            "channel": 0,
            "type": "noteOn",
            "noteNumber": 91,
            "velocity": 91
        },
        {
            "deltaTime": 284,
            "channel": 0,
            "type": "noteOff",
            "noteNumber": 57,
            "velocity": 0
        },
        {
            "deltaTime": 3,
            "channel": 0,
            "type": "noteOff",
            "noteNumber": 91,
            "velocity": 0
        },
        {
            "deltaTime": 3,
            "channel": 0,
            "type": "noteOn",
            "noteNumber": 90,
            "velocity": 93
        },
        {
            "deltaTime": 57,
            "channel": 0,
            "type": "noteOff",
            "noteNumber": 81,
            "velocity": 0
        },
        {
            "deltaTime": 0,
            "channel": 0,
            "type": "noteOff",
            "noteNumber": 85,
            "velocity": 0
        },
        {
            "deltaTime": 0,
            "channel": 0,
            "type": "noteOff",
            "noteNumber": 77,
            "velocity": 0
        },
        {
            "deltaTime": 230,
            "channel": 0,
            "type": "noteOff",
            "noteNumber": 90,
            "velocity": 0
        },
        {
            "deltaTime": 3,
            "channel": 0,
            "type": "noteOn",
            "noteNumber": 89,
            "velocity": 78
        },
        {
            "deltaTime": 279,
            "channel": 0,
            "type": "noteOn",
            "noteNumber": 60,
            "velocity": 55
        },
        {
            "deltaTime": 0,
            "channel": 0,
            "type": "noteOn",
            "noteNumber": 80,
            "velocity": 104
        },
        {
            "deltaTime": 0,
            "channel": 0,
            "type": "noteOn",
            "noteNumber": 84,
            "velocity": 104
        },
        {
            "deltaTime": 0,
            "channel": 0,
            "type": "noteOn",
            "noteNumber": 76,
            "velocity": 104
        },
        {
            "deltaTime": 0,
            "channel": 0,
            "type": "noteOn",
            "noteNumber": 88,
            "velocity": 103
        },
        {
            "deltaTime": 8,
            "channel": 0,
            "type": "noteOff",
            "noteNumber": 89,
            "velocity": 0
        },
        {
            "deltaTime": 279,
            "channel": 0,
            "type": "noteOff",
            "noteNumber": 88,
            "velocity": 0
        },
        {
            "deltaTime": 3,
            "channel": 0,
            "type": "noteOn",
            "noteNumber": 87,
            "velocity": 93
        },
        {
            "deltaTime": 217,
            "channel": 0,
            "type": "noteOff",
            "noteNumber": 84,
            "velocity": 0
        },
        {
            "deltaTime": 67,
            "channel": 0,
            "type": "noteOff",
            "noteNumber": 60,
            "velocity": 0
        },
        {
            "deltaTime": 3,
            "channel": 0,
            "type": "noteOff",
            "noteNumber": 87,
            "velocity": 0
        },
        {
            "deltaTime": 3,
            "channel": 0,
            "type": "noteOn",
            "noteNumber": 86,
            "velocity": 88
        },
        {
            "deltaTime": 175,
            "channel": 0,
            "type": "noteOff",
            "noteNumber": 80,
            "velocity": 0
        },
        {
            "deltaTime": 0,
            "channel": 0,
            "type": "noteOff",
            "noteNumber": 76,
            "velocity": 0
        },
        {
            "deltaTime": 104,
            "channel": 0,
            "type": "noteOn",
            "noteNumber": 85,
            "velocity": 86
        },
        {
            "deltaTime": 8,
            "channel": 0,
            "type": "noteOff",
            "noteNumber": 86,
            "velocity": 0
        },
        {
            "deltaTime": 279,
            "channel": 0,
            "type": "noteOff",
            "noteNumber": 85,
            "velocity": 0
        },
        {
            "deltaTime": 3,
            "channel": 0,
            "type": "noteOn",
            "noteNumber": 76,
            "velocity": 94
        },
        {
            "deltaTime": 0,
            "channel": 0,
            "type": "noteOn",
            "noteNumber": 80,
            "velocity": 94
        },
        {
            "deltaTime": 0,
            "channel": 0,
            "type": "noteOn",
            "noteNumber": 73,
            "velocity": 94
        },
        {
            "deltaTime": 0,
            "channel": 0,
            "type": "noteOn",
            "noteNumber": 84,
            "velocity": 80
        },
        {
            "deltaTime": 287,
            "channel": 0,
            "type": "noteOff",
            "noteNumber": 84,
            "velocity": 0
        },
        {
            "deltaTime": 3,
            "channel": 0,
            "type": "noteOn",
            "noteNumber": 83,
            "velocity": 88
        },
        {
            "deltaTime": 279,
            "channel": 0,
            "type": "noteOn",
            "noteNumber": 82,
            "velocity": 79
        },
        {
            "deltaTime": 4,
            "channel": 0,
            "type": "noteOff",
            "noteNumber": 80,
            "velocity": 0
        },
        {
            "deltaTime": 3,
            "channel": 0,
            "type": "noteOff",
            "noteNumber": 83,
            "velocity": 0
        },
        {
            "deltaTime": 221,
            "channel": 0,
            "type": "noteOff",
            "noteNumber": 73,
            "velocity": 0
        },
        {
            "deltaTime": 0,
            "channel": 0,
            "type": "noteOff",
            "noteNumber": 76,
            "velocity": 0
        },
        {
            "deltaTime": 57,
            "channel": 0,
            "type": "noteOff",
            "noteNumber": 82,
            "velocity": 0
        },
        {
            "deltaTime": 3,
            "channel": 0,
            "type": "noteOn",
            "noteNumber": 81,
            "velocity": 67
        },
        {
            "deltaTime": 287,
            "channel": 0,
            "type": "noteOff",
            "noteNumber": 81,
            "velocity": 0
        },
        {
            "deltaTime": 3,
            "channel": 0,
            "type": "noteOn",
            "noteNumber": 68,
            "velocity": 67
        },
        {
            "deltaTime": 0,
            "channel": 0,
            "type": "noteOn",
            "noteNumber": 73,
            "velocity": 74
        },
        {
            "deltaTime": 0,
            "channel": 0,
            "type": "noteOn",
            "noteNumber": 76,
            "velocity": 74
        },
        {
            "deltaTime": 0,
            "channel": 0,
            "type": "noteOn",
            "noteNumber": 80,
            "velocity": 62
        },
        {
            "deltaTime": 287,
            "channel": 0,
            "type": "noteOff",
            "noteNumber": 80,
            "velocity": 0
        },
        {
            "deltaTime": 3,
            "channel": 0,
            "type": "noteOn",
            "noteNumber": 79,
            "velocity": 65
        },
        {
            "deltaTime": 279,
            "channel": 0,
            "type": "noteOn",
            "noteNumber": 78,
            "velocity": 67
        },
        {
            "deltaTime": 4,
            "channel": 0,
            "type": "noteOff",
            "noteNumber": 68,
            "velocity": 0
        },
        {
            "deltaTime": 0,
            "channel": 0,
            "type": "noteOff",
            "noteNumber": 73,
            "velocity": 0
        },
        {
            "deltaTime": 0,
            "channel": 0,
            "type": "noteOff",
            "noteNumber": 76,
            "velocity": 0
        },
        {
            "deltaTime": 3,
            "channel": 0,
            "type": "noteOff",
            "noteNumber": 79,
            "velocity": 0
        },
        {
            "deltaTime": 279,
            "channel": 0,
            "type": "noteOff",
            "noteNumber": 78,
            "velocity": 0
        },
        {
            "deltaTime": 3,
            "channel": 0,
            "type": "noteOn",
            "noteNumber": 77,
            "velocity": 50
        },
        {
            "deltaTime": 287,
            "channel": 0,
            "type": "noteOff",
            "noteNumber": 77,
            "velocity": 0
        },
        {
            "deltaTime": 3,
            "channel": 0,
            "type": "noteOn",
            "noteNumber": 68,
            "velocity": 79
        },
        {
            "deltaTime": 0,
            "channel": 0,
            "type": "noteOn",
            "noteNumber": 64,
            "velocity": 70
        },
        {
            "deltaTime": 0,
            "channel": 0,
            "type": "noteOn",
            "noteNumber": 76,
            "velocity": 67
        },
        {
            "deltaTime": 0,
            "channel": 0,
            "type": "noteOn",
            "noteNumber": 73,
            "velocity": 74
        },
        {
            "deltaTime": 279,
            "channel": 0,
            "type": "noteOn",
            "noteNumber": 75,
            "velocity": 55
        },
        {
            "deltaTime": 8,
            "channel": 0,
            "type": "noteOff",
            "noteNumber": 76,
            "velocity": 0
        },
        {
            "deltaTime": 279,
            "channel": 0,
            "type": "noteOff",
            "noteNumber": 75,
            "velocity": 0
        },
        {
            "deltaTime": 3,
            "channel": 0,
            "type": "noteOn",
            "noteNumber": 76,
            "velocity": 64
        },
        {
            "deltaTime": 287,
            "channel": 0,
            "type": "noteOff",
            "noteNumber": 76,
            "velocity": 0
        },
        {
            "deltaTime": 3,
            "channel": 0,
            "type": "noteOn",
            "noteNumber": 78,
            "velocity": 85
        },
        {
            "deltaTime": 1,
            "channel": 0,
            "type": "noteOff",
            "noteNumber": 73,
            "velocity": 0
        },
        {
            "deltaTime": 0,
            "channel": 0,
            "type": "noteOff",
            "noteNumber": 68,
            "velocity": 0
        },
        {
            "deltaTime": 0,
            "channel": 0,
            "type": "noteOff",
            "noteNumber": 64,
            "velocity": 0
        },
        {
            "deltaTime": 286,
            "channel": 0,
            "type": "noteOff",
            "noteNumber": 78,
            "velocity": 0
        },
        {
            "deltaTime": 3,
            "channel": 0,
            "type": "noteOn",
            "noteNumber": 84,
            "velocity": 61
        },
        {
            "deltaTime": 0,
            "channel": 0,
            "type": "noteOn",
            "noteNumber": 68,
            "velocity": 67
        },
        {
            "deltaTime": 0,
            "channel": 0,
            "type": "noteOn",
            "noteNumber": 63,
            "velocity": 70
        },
        {
            "deltaTime": 0,
            "channel": 0,
            "type": "noteOn",
            "noteNumber": 72,
            "velocity": 61
        },
        {
            "deltaTime": 0,
            "channel": 0,
            "type": "noteOn",
            "noteNumber": 80,
            "velocity": 70
        },
        {
            "deltaTime": 0,
            "channel": 0,
            "type": "noteOn",
            "noteNumber": 75,
            "velocity": 79
        },
        {
            "deltaTime": 575,
            "channel": 0,
            "type": "noteOff",
            "noteNumber": 68,
            "velocity": 0
        },
        {
            "deltaTime": 0,
            "channel": 0,
            "type": "noteOff",
            "noteNumber": 72,
            "velocity": 0
        },
        {
            "deltaTime": 0,
            "channel": 0,
            "type": "noteOff",
            "noteNumber": 84,
            "velocity": 0
        },
        {
            "deltaTime": 0,
            "channel": 0,
            "type": "noteOff",
            "noteNumber": 80,
            "velocity": 0
        },
        {
            "deltaTime": 0,
            "channel": 0,
            "type": "noteOff",
            "noteNumber": 63,
            "velocity": 0
        },
        {
            "deltaTime": 0,
            "channel": 0,
            "type": "noteOff",
            "noteNumber": 75,
            "velocity": 0
        },
        {
            "deltaTime": 67,
            "channel": 0,
            "type": "noteOn",
            "noteNumber": 79,
            "velocity": 66
        },
        {
            "deltaTime": 441,
            "channel": 0,
            "type": "noteOff",
            "noteNumber": 79,
            "velocity": 0
        },
        {
            "deltaTime": 190,
            "channel": 0,
            "type": "noteOn",
            "noteNumber": 80,
            "velocity": 47
        },
        {
            "deltaTime": 381,
            "channel": 0,
            "type": "noteOff",
            "noteNumber": 80,
            "velocity": 0
        },
        {
            "deltaTime": 201,
            "channel": 0,
            "type": "noteOn",
            "noteNumber": 79,
            "velocity": 45
        },
        {
            "deltaTime": 439,
            "channel": 0,
            "type": "noteOff",
            "noteNumber": 79,
            "velocity": 0
        },
        {
            "deltaTime": 168,
            "channel": 0,
            "type": "noteOn",
            "noteNumber": 80,
            "velocity": 61
        },
        {
            "deltaTime": 0,
            "channel": 0,
            "type": "noteOn",
            "noteNumber": 92,
            "velocity": 61
        },
        {
            "deltaTime": 371,
            "channel": 0,
            "type": "noteOff",
            "noteNumber": 92,
            "velocity": 0
        },
        {
            "deltaTime": 0,
            "channel": 0,
            "type": "noteOff",
            "noteNumber": 80,
            "velocity": 0
        },
        {
            "deltaTime": 4,
            "channel": 0,
            "type": "noteOn",
            "noteNumber": 91,
            "velocity": 59
        },
        {
            "deltaTime": 280,
            "channel": 0,
            "type": "noteOff",
            "noteNumber": 91,
            "velocity": 0
        },
        {
            "deltaTime": 35,
            "channel": 0,
            "type": "noteOn",
            "noteNumber": 92,
            "velocity": 44
        },
        {
            "deltaTime": 0,
            "channel": 0,
            "type": "noteOn",
            "noteNumber": 80,
            "velocity": 44
        },
        {
            "deltaTime": 287,
            "channel": 0,
            "type": "noteOff",
            "noteNumber": 92,
            "velocity": 0
        },
        {
            "deltaTime": 0,
            "channel": 0,
            "type": "noteOff",
            "noteNumber": 80,
            "velocity": 0
        },
        {
            "deltaTime": 3,
            "channel": 0,
            "type": "noteOn",
            "noteNumber": 90,
            "velocity": 50
        },
        {
            "deltaTime": 0,
            "channel": 0,
            "type": "noteOn",
            "noteNumber": 87,
            "velocity": 50
        },
        {
            "deltaTime": 287,
            "channel": 0,
            "type": "noteOff",
            "noteNumber": 90,
            "velocity": 0
        },
        {
            "deltaTime": 0,
            "channel": 0,
            "type": "noteOff",
            "noteNumber": 87,
            "velocity": 0
        },
        {
            "deltaTime": 3,
            "channel": 0,
            "type": "noteOn",
            "noteNumber": 80,
            "velocity": 53
        },
        {
            "deltaTime": 0,
            "channel": 0,
            "type": "noteOn",
            "noteNumber": 92,
            "velocity": 53
        },
        {
            "deltaTime": 279,
            "channel": 0,
            "type": "noteOn",
            "noteNumber": 85,
            "velocity": 65
        },
        {
            "deltaTime": 0,
            "channel": 0,
            "type": "noteOn",
            "noteNumber": 88,
            "velocity": 65
        },
        {
            "deltaTime": 8,
            "channel": 0,
            "type": "noteOff",
            "noteNumber": 80,
            "velocity": 0
        },
        {
            "deltaTime": 0,
            "channel": 0,
            "type": "noteOff",
            "noteNumber": 92,
            "velocity": 0
        },
        {
            "deltaTime": 279,
            "channel": 0,
            "type": "noteOff",
            "noteNumber": 85,
            "velocity": 0
        },
        {
            "deltaTime": 0,
            "channel": 0,
            "type": "noteOff",
            "noteNumber": 88,
            "velocity": 0
        },
        {
            "deltaTime": 3,
            "channel": 0,
            "type": "noteOn",
            "noteNumber": 80,
            "velocity": 80
        },
        {
            "deltaTime": 0,
            "channel": 0,
            "type": "noteOn",
            "noteNumber": 92,
            "velocity": 80
        },
        {
            "deltaTime": 287,
            "channel": 0,
            "type": "noteOff",
            "noteNumber": 92,
            "velocity": 0
        },
        {
            "deltaTime": 0,
            "channel": 0,
            "type": "noteOff",
            "noteNumber": 80,
            "velocity": 0
        },
        {
            "deltaTime": 3,
            "channel": 0,
            "type": "noteOn",
            "noteNumber": 84,
            "velocity": 75
        },
        {
            "deltaTime": 0,
            "channel": 0,
            "type": "noteOn",
            "noteNumber": 87,
            "velocity": 75
        },
        {
            "deltaTime": 287,
            "channel": 0,
            "type": "noteOff",
            "noteNumber": 84,
            "velocity": 0
        },
        {
            "deltaTime": 0,
            "channel": 0,
            "type": "noteOff",
            "noteNumber": 87,
            "velocity": 0
        },
        {
            "deltaTime": 283,
            "channel": 0,
            "type": "noteOn",
            "noteNumber": 85,
            "velocity": 113
        },
        {
            "deltaTime": 36,
            "channel": 0,
            "type": "noteOn",
            "noteNumber": 97,
            "velocity": 103
        },
        {
            "deltaTime": 539,
            "channel": 0,
            "type": "noteOff",
            "noteNumber": 85,
            "velocity": 0
        },
        {
            "deltaTime": 7,
            "channel": 0,
            "type": "noteOn",
            "noteNumber": 80,
            "velocity": 91
        },
        {
            "deltaTime": 0,
            "channel": 0,
            "type": "noteOn",
            "noteNumber": 92,
            "velocity": 91
        },
        {
            "deltaTime": 29,
            "channel": 0,
            "type": "noteOff",
            "noteNumber": 97,
            "velocity": 0
        },
        {
            "deltaTime": 258,
            "channel": 0,
            "type": "noteOff",
            "noteNumber": 80,
            "velocity": 0
        },
        {
            "deltaTime": 0,
            "channel": 0,
            "type": "noteOff",
            "noteNumber": 92,
            "velocity": 0
        },
        {
            "deltaTime": 283,
            "channel": 0,
            "type": "noteOn",
            "noteNumber": 81,
            "velocity": 79
        },
        {
            "deltaTime": 287,
            "channel": 0,
            "type": "noteOff",
            "noteNumber": 81,
            "velocity": 0
        },
        {
            "deltaTime": 222,
            "channel": 0,
            "type": "noteOn",
            "noteNumber": 78,
            "velocity": 65
        },
        {
            "deltaTime": 60,
            "channel": 0,
            "type": "noteOn",
            "noteNumber": 80,
            "velocity": 112
        },
        {
            "deltaTime": 36,
            "channel": 0,
            "type": "noteOn",
            "noteNumber": 92,
            "velocity": 114
        },
        {
            "deltaTime": 92,
            "channel": 0,
            "type": "noteOff",
            "noteNumber": 78,
            "velocity": 0
        },
        {
            "deltaTime": 159,
            "channel": 0,
            "type": "noteOff",
            "noteNumber": 80,
            "velocity": 0
        },
        {
            "deltaTime": 36,
            "channel": 0,
            "type": "noteOff",
            "noteNumber": 92,
            "velocity": 0
        },
        {
            "deltaTime": 258,
            "channel": 0,
            "type": "noteOn",
            "noteNumber": 78,
            "velocity": 72
        },
        {
            "deltaTime": 287,
            "channel": 0,
            "type": "noteOff",
            "noteNumber": 78,
            "velocity": 0
        },
        {
            "deltaTime": 283,
            "channel": 0,
            "type": "noteOn",
            "noteNumber": 76,
            "velocity": 113
        },
        {
            "deltaTime": 143,
            "channel": 0,
            "type": "noteOff",
            "noteNumber": 76,
            "velocity": 0
        },
        {
            "deltaTime": 439,
            "channel": 0,
            "type": "noteOn",
            "noteNumber": 72,
            "velocity": 99
        },
        {
            "deltaTime": 220,
            "channel": 0,
            "type": "noteOff",
            "noteNumber": 72,
            "velocity": 0
        },
        {
            "deltaTime": 301,
            "channel": 0,
            "type": "noteOn",
            "noteNumber": 78,
            "velocity": 86
        },
        {
            "deltaTime": 0,
            "channel": 0,
            "type": "noteOn",
            "noteNumber": 72,
            "velocity": 86
        },
        {
            "deltaTime": 48,
            "channel": 0,
            "type": "noteOn",
            "noteNumber": 73,
            "velocity": 117
        },
        {
            "deltaTime": 0,
            "channel": 0,
            "type": "noteOn",
            "noteNumber": 79,
            "velocity": 117
        },
        {
            "deltaTime": 0,
            "channel": 0,
            "type": "noteOn",
            "noteNumber": 49,
            "velocity": 108
        },
        {
            "deltaTime": 90,
            "channel": 0,
            "type": "noteOff",
            "noteNumber": 78,
            "velocity": 0
        },
        {
            "deltaTime": 0,
            "channel": 0,
            "type": "noteOff",
            "noteNumber": 72,
            "velocity": 0
        },
        {
            "deltaTime": 197,
            "channel": 0,
            "type": "noteOff",
            "noteNumber": 73,
            "velocity": 0
        },
        {
            "deltaTime": 0,
            "channel": 0,
            "type": "noteOff",
            "noteNumber": 79,
            "velocity": 0
        },
        {
            "deltaTime": 283,
            "channel": 0,
            "type": "noteOn",
            "noteNumber": 63,
            "velocity": 82
        },
        {
            "deltaTime": 0,
            "channel": 0,
            "type": "noteOn",
            "noteNumber": 68,
            "velocity": 95
        },
        {
            "deltaTime": 0,
            "channel": 0,
            "type": "noteOn",
            "noteNumber": 64,
            "velocity": 82
        },
        {
            "deltaTime": 0,
            "channel": 0,
            "type": "noteOn",
            "noteNumber": 80,
            "velocity": 102
        },
        {
            "deltaTime": 4,
            "channel": 0,
            "type": "noteOff",
            "noteNumber": 49,
            "velocity": 0
        },
        {
            "deltaTime": 283,
            "channel": 0,
            "type": "noteOff",
            "noteNumber": 80,
            "velocity": 0
        },
        {
            "deltaTime": 0,
            "channel": 0,
            "type": "noteOff",
            "noteNumber": 68,
            "velocity": 0
        },
        {
            "deltaTime": 283,
            "channel": 0,
            "type": "noteOn",
            "noteNumber": 74,
            "velocity": 52
        },
        {
            "deltaTime": 12,
            "channel": 0,
            "type": "noteOn",
            "noteNumber": 86,
            "velocity": 84
        },
        {
            "deltaTime": 0,
            "channel": 0,
            "type": "noteOn",
            "noteNumber": 44,
            "velocity": 100
        },
        {
            "deltaTime": 97,
            "channel": 0,
            "type": "noteOn",
            "noteNumber": 75,
            "velocity": 87
        },
        {
            "deltaTime": 24,
            "channel": 0,
            "type": "noteOn",
            "noteNumber": 87,
            "velocity": 120
        },
        {
            "deltaTime": 17,
            "channel": 0,
            "type": "noteOff",
            "noteNumber": 74,
            "velocity": 0
        },
        {
            "deltaTime": 9,
            "channel": 0,
            "type": "noteOff",
            "noteNumber": 86,
            "velocity": 0
        },
        {
            "deltaTime": 132,
            "channel": 0,
            "type": "noteOff",
            "noteNumber": 64,
            "velocity": 0
        },
        {
            "deltaTime": 0,
            "channel": 0,
            "type": "noteOff",
            "noteNumber": 63,
            "velocity": 0
        },
        {
            "deltaTime": 67,
            "channel": 0,
            "type": "noteOff",
            "noteNumber": 44,
            "velocity": 0
        },
        {
            "deltaTime": 223,
            "channel": 0,
            "type": "noteOn",
            "noteNumber": 85,
            "velocity": 91
        },
        {
            "deltaTime": 0,
            "channel": 0,
            "type": "noteOn",
            "noteNumber": 73,
            "velocity": 91
        },
        {
            "deltaTime": 0,
            "channel": 0,
            "type": "noteOn",
            "noteNumber": 68,
            "velocity": 67
        },
        {
            "deltaTime": 0,
            "channel": 0,
            "type": "noteOn",
            "noteNumber": 64,
            "velocity": 67
        },
        {
            "deltaTime": 8,
            "channel": 0,
            "type": "noteOff",
            "noteNumber": 87,
            "velocity": 0
        },
        {
            "deltaTime": 2,
            "channel": 0,
            "type": "noteOff",
            "noteNumber": 75,
            "velocity": 0
        },
        {
            "deltaTime": 140,
            "channel": 0,
            "type": "noteOff",
            "noteNumber": 64,
            "velocity": 0
        },
        {
            "deltaTime": 0,
            "channel": 0,
            "type": "noteOff",
            "noteNumber": 68,
            "velocity": 0
        },
        {
            "deltaTime": 140,
            "channel": 0,
            "type": "noteOn",
            "noteNumber": 63,
            "velocity": 93
        },
        {
            "deltaTime": 0,
            "channel": 0,
            "type": "noteOn",
            "noteNumber": 64,
            "velocity": 93
        },
        {
            "deltaTime": 0,
            "channel": 0,
            "type": "noteOn",
            "noteNumber": 68,
            "velocity": 93
        },
        {
            "deltaTime": 192,
            "channel": 0,
            "type": "noteOff",
            "noteNumber": 64,
            "velocity": 0
        },
        {
            "deltaTime": 0,
            "channel": 0,
            "type": "noteOff",
            "noteNumber": 68,
            "velocity": 0
        },
        {
            "deltaTime": 0,
            "channel": 0,
            "type": "noteOff",
            "noteNumber": 63,
            "velocity": 0
        },
        {
            "deltaTime": 99,
            "channel": 0,
            "type": "noteOn",
            "noteNumber": 49,
            "velocity": 108
        },
        {
            "deltaTime": 279,
            "channel": 0,
            "type": "noteOn",
            "noteNumber": 87,
            "velocity": 104
        },
        {
            "deltaTime": 1,
            "channel": 0,
            "type": "noteOff",
            "noteNumber": 85,
            "velocity": 0
        },
        {
            "deltaTime": 0,
            "channel": 0,
            "type": "noteOff",
            "noteNumber": 73,
            "velocity": 0
        },
        {
            "deltaTime": 67,
            "channel": 0,
            "type": "noteOff",
            "noteNumber": 49,
            "velocity": 0
        },
        {
            "deltaTime": 219,
            "channel": 0,
            "type": "noteOff",
            "noteNumber": 87,
            "velocity": 0
        },
        {
            "deltaTime": 3,
            "channel": 0,
            "type": "noteOn",
            "noteNumber": 61,
            "velocity": 101
        },
        {
            "deltaTime": 0,
            "channel": 0,
            "type": "noteOn",
            "noteNumber": 68,
            "velocity": 101
        },
        {
            "deltaTime": 0,
            "channel": 0,
            "type": "noteOn",
            "noteNumber": 56,
            "velocity": 91
        },
        {
            "deltaTime": 0,
            "channel": 0,
            "type": "noteOn",
            "noteNumber": 64,
            "velocity": 101
        },
        {
            "deltaTime": 0,
            "channel": 0,
            "type": "noteOn",
            "noteNumber": 85,
            "velocity": 91
        },
        {
            "deltaTime": 287,
            "channel": 0,
            "type": "noteOff",
            "noteNumber": 85,
            "velocity": 0
        },
        {
            "deltaTime": 3,
            "channel": 0,
            "type": "noteOn",
            "noteNumber": 84,
            "velocity": 81
        },
        {
            "deltaTime": 255,
            "channel": 0,
            "type": "noteOff",
            "noteNumber": 56,
            "velocity": 0
        },
        {
            "deltaTime": 0,
            "channel": 0,
            "type": "noteOff",
            "noteNumber": 61,
            "velocity": 0
        },
        {
            "deltaTime": 0,
            "channel": 0,
            "type": "noteOff",
            "noteNumber": 64,
            "velocity": 0
        },
        {
            "deltaTime": 0,
            "channel": 0,
            "type": "noteOff",
            "noteNumber": 68,
            "velocity": 0
        },
        {
            "deltaTime": 23,
            "channel": 0,
            "type": "noteOn",
            "noteNumber": 85,
            "velocity": 108
        },
        {
            "deltaTime": 0,
            "channel": 0,
            "type": "noteOn",
            "noteNumber": 52,
            "velocity": 69
        },
        {
            "deltaTime": 8,
            "channel": 0,
            "type": "noteOff",
            "noteNumber": 84,
            "velocity": 0
        },
        {
            "deltaTime": 567,
            "channel": 0,
            "type": "noteOff",
            "noteNumber": 85,
            "velocity": 0
        },
        {
            "deltaTime": 0,
            "channel": 0,
            "type": "noteOff",
            "noteNumber": 52,
            "velocity": 0
        },
        {
            "deltaTime": 7,
            "channel": 0,
            "type": "noteOn",
            "noteNumber": 51,
            "velocity": 69
        },
        {
            "deltaTime": 0,
            "channel": 0,
            "type": "noteOn",
            "noteNumber": 80,
            "velocity": 108
        },
        {
            "deltaTime": 0,
            "channel": 0,
            "type": "noteOn",
            "noteNumber": 64,
            "velocity": 102
        },
        {
            "deltaTime": 0,
            "channel": 0,
            "type": "noteOn",
            "noteNumber": 61,
            "velocity": 102
        },
        {
            "deltaTime": 0,
            "channel": 0,
            "type": "noteOn",
            "noteNumber": 68,
            "velocity": 102
        },
        {
            "deltaTime": 287,
            "channel": 0,
            "type": "noteOff",
            "noteNumber": 68,
            "velocity": 0
        },
        {
            "deltaTime": 0,
            "channel": 0,
            "type": "noteOff",
            "noteNumber": 80,
            "velocity": 0
        },
        {
            "deltaTime": 0,
            "channel": 0,
            "type": "noteOff",
            "noteNumber": 64,
            "velocity": 0
        },
        {
            "deltaTime": 0,
            "channel": 0,
            "type": "noteOff",
            "noteNumber": 61,
            "velocity": 0
        },
        {
            "deltaTime": 59,
            "channel": 0,
            "type": "noteOff",
            "noteNumber": 51,
            "velocity": 0
        },
        {
            "deltaTime": 223,
            "channel": 0,
            "type": "noteOn",
            "noteNumber": 83,
            "velocity": 107
        },
        {
            "deltaTime": 0,
            "channel": 0,
            "type": "noteOn",
            "noteNumber": 44,
            "velocity": 89
        },
        {
            "deltaTime": 0,
            "channel": 0,
            "type": "noteOn",
            "noteNumber": 95,
            "velocity": 92
        },
        {
            "deltaTime": 576,
            "channel": 0,
            "type": "noteOff",
            "noteNumber": 44,
            "velocity": 0
        },
        {
            "deltaTime": 0,
            "channel": 0,
            "type": "noteOff",
            "noteNumber": 83,
            "velocity": 0
        },
        {
            "deltaTime": 7,
            "channel": 0,
            "type": "noteOn",
            "noteNumber": 63,
            "velocity": 86
        },
        {
            "deltaTime": 0,
            "channel": 0,
            "type": "noteOn",
            "noteNumber": 60,
            "velocity": 86
        },
        {
            "deltaTime": 0,
            "channel": 0,
            "type": "noteOn",
            "noteNumber": 67,
            "velocity": 97
        },
        {
            "deltaTime": 0,
            "channel": 0,
            "type": "noteOn",
            "noteNumber": 81,
            "velocity": 82
        },
        {
            "deltaTime": 0,
            "channel": 0,
            "type": "noteOn",
            "noteNumber": 93,
            "velocity": 82
        },
        {
            "deltaTime": 0,
            "channel": 0,
            "type": "noteOn",
            "noteNumber": 57,
            "velocity": 86
        },
        {
            "deltaTime": 4,
            "channel": 0,
            "type": "noteOff",
            "noteNumber": 95,
            "velocity": 0
        },
        {
            "deltaTime": 537,
            "channel": 0,
            "type": "noteOff",
            "noteNumber": 93,
            "velocity": 0
        },
        {
            "deltaTime": 28,
            "channel": 0,
            "type": "noteOn",
            "noteNumber": 51,
            "velocity": 99
        },
        {
            "deltaTime": 0,
            "channel": 0,
            "type": "noteOn",
            "noteNumber": 79,
            "velocity": 121
        },
        {
            "deltaTime": 4,
            "channel": 0,
            "type": "noteOff",
            "noteNumber": 81,
            "velocity": 0
        },
        {
            "deltaTime": 0,
            "channel": 0,
            "type": "noteOff",
            "noteNumber": 67,
            "velocity": 0
        },
        {
            "deltaTime": 19,
            "channel": 0,
            "type": "noteOn",
            "noteNumber": 91,
            "velocity": 121
        },
        {
            "deltaTime": 150,
            "channel": 0,
            "type": "noteOff",
            "noteNumber": 79,
            "velocity": 0
        },
        {
            "deltaTime": 36,
            "channel": 0,
            "type": "noteOff",
            "noteNumber": 91,
            "velocity": 0
        },
        {
            "deltaTime": 76,
            "channel": 0,
            "type": "noteOff",
            "noteNumber": 51,
            "velocity": 0
        },
        {
            "deltaTime": 4,
            "channel": 0,
            "type": "noteOff",
            "noteNumber": 63,
            "velocity": 0
        },
        {
            "deltaTime": 0,
            "channel": 0,
            "type": "noteOff",
            "noteNumber": 60,
            "velocity": 0
        },
        {
            "deltaTime": 0,
            "channel": 0,
            "type": "noteOff",
            "noteNumber": 57,
            "velocity": 0
        },
        {
            "deltaTime": 290,
            "channel": 0,
            "type": "noteOn",
            "noteNumber": 66,
            "velocity": 72
        },
        {
            "deltaTime": 0,
            "channel": 0,
            "type": "noteOn",
            "noteNumber": 63,
            "velocity": 72
        },
        {
            "deltaTime": 0,
            "channel": 0,
            "type": "noteOn",
            "noteNumber": 80,
            "velocity": 114
        },
        {
            "deltaTime": 12,
            "channel": 0,
            "type": "noteOn",
            "noteNumber": 92,
            "velocity": 103
        },
        {
            "deltaTime": 131,
            "channel": 0,
            "type": "noteOff",
            "noteNumber": 66,
            "velocity": 0
        },
        {
            "deltaTime": 0,
            "channel": 0,
            "type": "noteOff",
            "noteNumber": 63,
            "velocity": 0
        },
        {
            "deltaTime": 135,
            "channel": 0,
            "type": "noteOn",
            "noteNumber": 57,
            "velocity": 88
        },
        {
            "deltaTime": 0,
            "channel": 0,
            "type": "noteOn",
            "noteNumber": 63,
            "velocity": 88
        },
        {
            "deltaTime": 0,
            "channel": 0,
            "type": "noteOn",
            "noteNumber": 66,
            "velocity": 88
        },
        {
            "deltaTime": 287,
            "channel": 0,
            "type": "noteOff",
            "noteNumber": 57,
            "velocity": 0
        },
        {
            "deltaTime": 0,
            "channel": 0,
            "type": "noteOff",
            "noteNumber": 63,
            "velocity": 0
        },
        {
            "deltaTime": 0,
            "channel": 0,
            "type": "noteOff",
            "noteNumber": 66,
            "velocity": 0
        },
        {
            "deltaTime": 3,
            "channel": 0,
            "type": "noteOn",
            "noteNumber": 48,
            "velocity": 96
        },
        {
            "deltaTime": 287,
            "channel": 0,
            "type": "noteOff",
            "noteNumber": 48,
            "velocity": 0
        },
        {
            "deltaTime": 5,
            "channel": 0,
            "type": "noteOff",
            "noteNumber": 92,
            "velocity": 0
        },
        {
            "deltaTime": 35,
            "channel": 0,
            "type": "noteOff",
            "noteNumber": 80,
            "velocity": 0
        },
        {
            "deltaTime": 242,
            "channel": 0,
            "type": "noteOn",
            "noteNumber": 78,
            "velocity": 97
        },
        {
            "deltaTime": 0,
            "channel": 0,
            "type": "noteOn",
            "noteNumber": 60,
            "velocity": 97
        },
        {
            "deltaTime": 0,
            "channel": 0,
            "type": "noteOn",
            "noteNumber": 66,
            "velocity": 97
        },
        {
            "deltaTime": 287,
            "channel": 0,
            "type": "noteOff",
            "noteNumber": 78,
            "velocity": 0
        },
        {
            "deltaTime": 0,
            "channel": 0,
            "type": "noteOff",
            "noteNumber": 60,
            "velocity": 0
        },
        {
            "deltaTime": 0,
            "channel": 0,
            "type": "noteOff",
            "noteNumber": 66,
            "velocity": 0
        },
        {
            "deltaTime": 295,
            "channel": 0,
            "type": "noteOn",
            "noteNumber": 81,
            "velocity": 84
        },
        {
            "deltaTime": 0,
            "channel": 0,
            "type": "noteOn",
            "noteNumber": 44,
            "velocity": 98
        },
        {
            "deltaTime": 287,
            "channel": 0,
            "type": "noteOff",
            "noteNumber": 44,
            "velocity": 0
        },
        {
            "deltaTime": 0,
            "channel": 0,
            "type": "noteOff",
            "noteNumber": 81,
            "velocity": 0
        },
        {
            "deltaTime": 283,
            "channel": 0,
            "type": "noteOn",
            "noteNumber": 79,
            "velocity": 109
        },
        {
            "deltaTime": 0,
            "channel": 0,
            "type": "noteOn",
            "noteNumber": 60,
            "velocity": 93
        },
        {
            "deltaTime": 0,
            "channel": 0,
            "type": "noteOn",
            "noteNumber": 68,
            "velocity": 93
        },
        {
            "deltaTime": 0,
            "channel": 0,
            "type": "noteOn",
            "noteNumber": 66,
            "velocity": 93
        },
        {
            "deltaTime": 287,
            "channel": 0,
            "type": "noteOff",
            "noteNumber": 79,
            "velocity": 0
        },
        {
            "deltaTime": 0,
            "channel": 0,
            "type": "noteOff",
            "noteNumber": 66,
            "velocity": 0
        },
        {
            "deltaTime": 0,
            "channel": 0,
            "type": "noteOff",
            "noteNumber": 60,
            "velocity": 0
        },
        {
            "deltaTime": 0,
            "channel": 0,
            "type": "noteOff",
            "noteNumber": 68,
            "velocity": 0
        },
        {
            "deltaTime": 295,
            "channel": 0,
            "type": "noteOn",
            "noteNumber": 80,
            "velocity": 120
        },
        {
            "deltaTime": 0,
            "channel": 0,
            "type": "noteOn",
            "noteNumber": 49,
            "velocity": 103
        },
        {
            "deltaTime": 571,
            "channel": 0,
            "type": "noteOn",
            "noteNumber": 63,
            "velocity": 100
        },
        {
            "deltaTime": 0,
            "channel": 0,
            "type": "noteOn",
            "noteNumber": 64,
            "velocity": 100
        },
        {
            "deltaTime": 0,
            "channel": 0,
            "type": "noteOn",
            "noteNumber": 86,
            "velocity": 84
        },
        {
            "deltaTime": 0,
            "channel": 0,
            "type": "noteOn",
            "noteNumber": 68,
            "velocity": 100
        },
        {
            "deltaTime": 4,
            "channel": 0,
            "type": "noteOff",
            "noteNumber": 80,
            "velocity": 0
        },
        {
            "deltaTime": 0,
            "channel": 0,
            "type": "noteOff",
            "noteNumber": 49,
            "velocity": 0
        },
        {
            "deltaTime": 112,
            "channel": 0,
            "type": "noteOff",
            "noteNumber": 86,
            "velocity": 0
        },
        {
            "deltaTime": 3,
            "channel": 0,
            "type": "noteOn",
            "noteNumber": 87,
            "velocity": 115
        },
        {
            "deltaTime": 449,
            "channel": 0,
            "type": "noteOn",
            "noteNumber": 85,
            "velocity": 89
        },
        {
            "deltaTime": 0,
            "channel": 0,
            "type": "noteOn",
            "noteNumber": 44,
            "velocity": 107
        },
        {
            "deltaTime": 0,
            "channel": 0,
            "type": "noteOn",
            "noteNumber": 80,
            "velocity": 96
        },
        {
            "deltaTime": 8,
            "channel": 0,
            "type": "noteOff",
            "noteNumber": 87,
            "velocity": 0
        },
        {
            "deltaTime": 226,
            "channel": 0,
            "type": "noteOff",
            "noteNumber": 80,
            "velocity": 0
        },
        {
            "deltaTime": 0,
            "channel": 0,
            "type": "noteOff",
            "noteNumber": 85,
            "velocity": 0
        },
        {
            "deltaTime": 57,
            "channel": 0,
            "type": "noteOff",
            "noteNumber": 68,
            "velocity": 0
        },
        {
            "deltaTime": 0,
            "channel": 0,
            "type": "noteOff",
            "noteNumber": 64,
            "velocity": 0
        },
        {
            "deltaTime": 0,
            "channel": 0,
            "type": "noteOff",
            "noteNumber": 63,
            "velocity": 0
        },
        {
            "deltaTime": 55,
            "channel": 0,
            "type": "noteOff",
            "noteNumber": 44,
            "velocity": 0
        },
        {
            "deltaTime": 235,
            "channel": 0,
            "type": "noteOn",
            "noteNumber": 64,
            "velocity": 60
        },
        {
            "deltaTime": 0,
            "channel": 0,
            "type": "noteOn",
            "noteNumber": 78,
            "velocity": 97
        },
        {
            "deltaTime": 0,
            "channel": 0,
            "type": "noteOn",
            "noteNumber": 68,
            "velocity": 60
        },
        {
            "deltaTime": 151,
            "channel": 0,
            "type": "noteOff",
            "noteNumber": 68,
            "velocity": 0
        },
        {
            "deltaTime": 0,
            "channel": 0,
            "type": "noteOff",
            "noteNumber": 64,
            "velocity": 0
        },
        {
            "deltaTime": 128,
            "channel": 0,
            "type": "noteOn",
            "noteNumber": 64,
            "velocity": 91
        },
        {
            "deltaTime": 0,
            "channel": 0,
            "type": "noteOn",
            "noteNumber": 68,
            "velocity": 91
        },
        {
            "deltaTime": 0,
            "channel": 0,
            "type": "noteOn",
            "noteNumber": 79,
            "velocity": 99
        },
        {
            "deltaTime": 0,
            "channel": 0,
            "type": "noteOn",
            "noteNumber": 63,
            "velocity": 91
        },
        {
            "deltaTime": 8,
            "channel": 0,
            "type": "noteOff",
            "noteNumber": 78,
            "velocity": 0
        },
        {
            "deltaTime": 142,
            "channel": 0,
            "type": "noteOff",
            "noteNumber": 63,
            "velocity": 0
        },
        {
            "deltaTime": 0,
            "channel": 0,
            "type": "noteOff",
            "noteNumber": 64,
            "velocity": 0
        },
        {
            "deltaTime": 0,
            "channel": 0,
            "type": "noteOff",
            "noteNumber": 68,
            "velocity": 0
        },
        {
            "deltaTime": 136,
            "channel": 0,
            "type": "noteOff",
            "noteNumber": 79,
            "velocity": 0
        },
        {
            "deltaTime": 3,
            "channel": 0,
            "type": "noteOn",
            "noteNumber": 73,
            "velocity": 102
        },
        {
            "deltaTime": 0,
            "channel": 0,
            "type": "noteOn",
            "noteNumber": 80,
            "velocity": 102
        },
        {
            "deltaTime": 0,
            "channel": 0,
            "type": "noteOn",
            "noteNumber": 49,
            "velocity": 79
        },
        {
            "deltaTime": 175,
            "channel": 0,
            "type": "noteOff",
            "noteNumber": 80,
            "velocity": 0
        },
        {
            "deltaTime": 0,
            "channel": 0,
            "type": "noteOff",
            "noteNumber": 73,
            "velocity": 0
        },
        {
            "deltaTime": 172,
            "channel": 0,
            "type": "noteOff",
            "noteNumber": 49,
            "velocity": 0
        },
        {
            "deltaTime": 235,
            "channel": 0,
            "type": "noteOn",
            "noteNumber": 56,
            "velocity": 76
        },
        {
            "deltaTime": 0,
            "channel": 0,
            "type": "noteOn",
            "noteNumber": 68,
            "velocity": 86
        },
        {
            "deltaTime": 0,
            "channel": 0,
            "type": "noteOn",
            "noteNumber": 64,
            "velocity": 86
        },
        {
            "deltaTime": 0,
            "channel": 0,
            "type": "noteOn",
            "noteNumber": 81,
            "velocity": 96
        },
        {
            "deltaTime": 0,
            "channel": 0,
            "type": "noteOn",
            "noteNumber": 61,
            "velocity": 86
        },
        {
            "deltaTime": 235,
            "channel": 0,
            "type": "noteOff",
            "noteNumber": 64,
            "velocity": 0
        },
        {
            "deltaTime": 0,
            "channel": 0,
            "type": "noteOff",
            "noteNumber": 68,
            "velocity": 0
        },
        {
            "deltaTime": 0,
            "channel": 0,
            "type": "noteOff",
            "noteNumber": 61,
            "velocity": 0
        },
        {
            "deltaTime": 0,
            "channel": 0,
            "type": "noteOff",
            "noteNumber": 56,
            "velocity": 0
        },
        {
            "deltaTime": 44,
            "channel": 0,
            "type": "noteOn",
            "noteNumber": 79,
            "velocity": 104
        },
        {
            "deltaTime": 8,
            "channel": 0,
            "type": "noteOff",
            "noteNumber": 81,
            "velocity": 0
        },
        {
            "deltaTime": 279,
            "channel": 0,
            "type": "noteOff",
            "noteNumber": 79,
            "velocity": 0
        },
        {
            "deltaTime": 3,
            "channel": 0,
            "type": "noteOn",
            "noteNumber": 80,
            "velocity": 99
        },
        {
            "deltaTime": 0,
            "channel": 0,
            "type": "noteOn",
            "noteNumber": 52,
            "velocity": 105
        },
        {
            "deltaTime": 287,
            "channel": 0,
            "type": "noteOff",
            "noteNumber": 80,
            "velocity": 0
        },
        {
            "deltaTime": 3,
            "channel": 0,
            "type": "noteOn",
            "noteNumber": 76,
            "velocity": 97
        },
        {
            "deltaTime": 279,
            "channel": 0,
            "type": "noteOn",
            "noteNumber": 44,
            "velocity": 73
        },
        {
            "deltaTime": 0,
            "channel": 0,
            "type": "noteOn",
            "noteNumber": 61,
            "velocity": 94
        },
        {
            "deltaTime": 0,
            "channel": 0,
            "type": "noteOn",
            "noteNumber": 73,
            "velocity": 89
        },
        {
            "deltaTime": 4,
            "channel": 0,
            "type": "noteOff",
            "noteNumber": 52,
            "velocity": 0
        },
        {
            "deltaTime": 3,
            "channel": 0,
            "type": "noteOff",
            "noteNumber": 76,
            "velocity": 0
        },
        {
            "deltaTime": 279,
            "channel": 0,
            "type": "noteOff",
            "noteNumber": 61,
            "velocity": 0
        },
        {
            "deltaTime": 0,
            "channel": 0,
            "type": "noteOff",
            "noteNumber": 73,
            "velocity": 0
        },
        {
            "deltaTime": 0,
            "channel": 0,
            "type": "noteOff",
            "noteNumber": 44,
            "velocity": 0
        },
        {
            "deltaTime": 3,
            "channel": 0,
            "type": "noteOn",
            "noteNumber": 68,
            "velocity": 97
        },
        {
            "deltaTime": 287,
            "channel": 0,
            "type": "noteOff",
            "noteNumber": 68,
            "velocity": 0
        },
        {
            "deltaTime": 3,
            "channel": 0,
            "type": "noteOn",
            "noteNumber": 66,
            "velocity": 102
        },
        {
            "deltaTime": 0,
            "channel": 0,
            "type": "noteOn",
            "noteNumber": 76,
            "velocity": 102
        },
        {
            "deltaTime": 0,
            "channel": 0,
            "type": "noteOn",
            "noteNumber": 72,
            "velocity": 85
        },
        {
            "deltaTime": 0,
            "channel": 0,
            "type": "noteOn",
            "noteNumber": 44,
            "velocity": 89
        },
        {
            "deltaTime": 287,
            "channel": 0,
            "type": "noteOff",
            "noteNumber": 76,
            "velocity": 0
        },
        {
            "deltaTime": 0,
            "channel": 0,
            "type": "noteOff",
            "noteNumber": 72,
            "velocity": 0
        },
        {
            "deltaTime": 3,
            "channel": 0,
            "type": "noteOn",
            "noteNumber": 88,
            "velocity": 111
        },
        {
            "deltaTime": 1,
            "channel": 0,
            "type": "noteOff",
            "noteNumber": 66,
            "velocity": 0
        },
        {
            "deltaTime": 278,
            "channel": 0,
            "type": "noteOn",
            "noteNumber": 84,
            "velocity": 76
        },
        {
            "deltaTime": 0,
            "channel": 0,
            "type": "noteOn",
            "noteNumber": 56,
            "velocity": 95
        },
        {
            "deltaTime": 0,
            "channel": 0,
            "type": "noteOn",
            "noteNumber": 72,
            "velocity": 76
        },
        {
            "deltaTime": 0,
            "channel": 0,
            "type": "noteOn",
            "noteNumber": 60,
            "velocity": 95
        },
        {
            "deltaTime": 0,
            "channel": 0,
            "type": "noteOn",
            "noteNumber": 80,
            "velocity": 80
        },
        {
            "deltaTime": 4,
            "channel": 0,
            "type": "noteOff",
            "noteNumber": 44,
            "velocity": 0
        },
        {
            "deltaTime": 3,
            "channel": 0,
            "type": "noteOff",
            "noteNumber": 88,
            "velocity": 0
        },
        {
            "deltaTime": 217,
            "channel": 0,
            "type": "noteOff",
            "noteNumber": 84,
            "velocity": 0
        },
        {
            "deltaTime": 0,
            "channel": 0,
            "type": "noteOff",
            "noteNumber": 72,
            "velocity": 0
        },
        {
            "deltaTime": 26,
            "channel": 0,
            "type": "noteOff",
            "noteNumber": 80,
            "velocity": 0
        },
        {
            "deltaTime": 35,
            "channel": 0,
            "type": "noteOff",
            "noteNumber": 56,
            "velocity": 0
        },
        {
            "deltaTime": 0,
            "channel": 0,
            "type": "noteOff",
            "noteNumber": 60,
            "velocity": 0
        },
        {
            "deltaTime": 3,
            "channel": 0,
            "type": "noteOn",
            "noteNumber": 87,
            "velocity": 112
        },
        {
            "deltaTime": 139,
            "channel": 0,
            "type": "noteOff",
            "noteNumber": 87,
            "velocity": 0
        },
        {
            "deltaTime": 152,
            "channel": 0,
            "type": "noteOn",
            "noteNumber": 78,
            "velocity": 100
        },
        {
            "deltaTime": 0,
            "channel": 0,
            "type": "noteOn",
            "noteNumber": 80,
            "velocity": 102
        },
        {
            "deltaTime": 0,
            "channel": 0,
            "type": "noteOn",
            "noteNumber": 54,
            "velocity": 107
        },
        {
            "deltaTime": 0,
            "channel": 0,
            "type": "noteOn",
            "noteNumber": 68,
            "velocity": 102
        },
        {
            "deltaTime": 279,
            "channel": 0,
            "type": "noteOn",
            "noteNumber": 55,
            "velocity": 88
        },
        {
            "deltaTime": 0,
            "channel": 0,
            "type": "noteOn",
            "noteNumber": 85,
            "velocity": 105
        },
        {
            "deltaTime": 8,
            "channel": 0,
            "type": "noteOff",
            "noteNumber": 68,
            "velocity": 0
        },
        {
            "deltaTime": 0,
            "channel": 0,
            "type": "noteOff",
            "noteNumber": 54,
            "velocity": 0
        },
        {
            "deltaTime": 0,
            "channel": 0,
            "type": "noteOff",
            "noteNumber": 80,
            "velocity": 0
        },
        {
            "deltaTime": 0,
            "channel": 0,
            "type": "noteOff",
            "noteNumber": 78,
            "velocity": 0
        },
        {
            "deltaTime": 130,
            "channel": 0,
            "type": "noteOff",
            "noteNumber": 85,
            "velocity": 0
        },
        {
            "deltaTime": 148,
            "channel": 0,
            "type": "noteOff",
            "noteNumber": 55,
            "velocity": 0
        },
        {
            "deltaTime": 3,
            "channel": 0,
            "type": "noteOn",
            "noteNumber": 78,
            "velocity": 112
        },
        {
            "deltaTime": 0,
            "channel": 0,
            "type": "noteOn",
            "noteNumber": 66,
            "velocity": 112
        },
        {
            "deltaTime": 0,
            "channel": 0,
            "type": "noteOn",
            "noteNumber": 84,
            "velocity": 105
        },
        {
            "deltaTime": 0,
            "channel": 0,
            "type": "noteOn",
            "noteNumber": 60,
            "velocity": 125
        },
        {
            "deltaTime": 0,
            "channel": 0,
            "type": "noteOn",
            "noteNumber": 44,
            "velocity": 104
        },
        {
            "deltaTime": 0,
            "channel": 0,
            "type": "noteOn",
            "noteNumber": 75,
            "velocity": 105
        },
        {
            "deltaTime": 288,
            "channel": 0,
            "type": "noteOff",
            "noteNumber": 84,
            "velocity": 0
        },
        {
            "deltaTime": 105,
            "channel": 0,
            "type": "noteOff",
            "noteNumber": 78,
            "velocity": 0
        },
        {
            "deltaTime": 100,
            "channel": 0,
            "type": "noteOff",
            "noteNumber": 75,
            "velocity": 0
        },
        {
            "deltaTime": 76,
            "channel": 0,
            "type": "noteOn",
            "noteNumber": 85,
            "velocity": 59
        },
        {
            "deltaTime": 0,
            "channel": 0,
            "type": "noteOn",
            "noteNumber": 48,
            "velocity": 65
        },
        {
            "deltaTime": 287,
            "channel": 0,
            "type": "noteOff",
            "noteNumber": 48,
            "velocity": 0
        },
        {
            "deltaTime": 0,
            "channel": 0,
            "type": "noteOff",
            "noteNumber": 85,
            "velocity": 0
        },
        {
            "deltaTime": 3,
            "channel": 0,
            "type": "noteOn",
            "noteNumber": 84,
            "velocity": 55
        },
        {
            "deltaTime": 1,
            "channel": 0,
            "type": "noteOff",
            "noteNumber": 44,
            "velocity": 0
        },
        {
            "deltaTime": 0,
            "channel": 0,
            "type": "noteOff",
            "noteNumber": 66,
            "velocity": 0
        },
        {
            "deltaTime": 0,
            "channel": 0,
            "type": "noteOff",
            "noteNumber": 60,
            "velocity": 0
        },
        {
            "deltaTime": 286,
            "channel": 0,
            "type": "noteOff",
            "noteNumber": 84,
            "velocity": 0
        },
        {
            "deltaTime": 3,
            "channel": 0,
            "type": "noteOn",
            "noteNumber": 85,
            "velocity": 77
        },
        {
            "deltaTime": 0,
            "channel": 0,
            "type": "noteOn",
            "noteNumber": 54,
            "velocity": 88
        },
        {
            "deltaTime": 0,
            "channel": 0,
            "type": "noteOn",
            "noteNumber": 60,
            "velocity": 88
        },
        {
            "deltaTime": 0,
            "channel": 0,
            "type": "noteOn",
            "noteNumber": 72,
            "velocity": 82
        },
        {
            "deltaTime": 287,
            "channel": 0,
            "type": "noteOff",
            "noteNumber": 54,
            "velocity": 0
        },
        {
            "deltaTime": 0,
            "channel": 0,
            "type": "noteOff",
            "noteNumber": 60,
            "velocity": 0
        },
        {
            "deltaTime": 0,
            "channel": 0,
            "type": "noteOff",
            "noteNumber": 85,
            "velocity": 0
        },
        {
            "deltaTime": 3,
            "channel": 0,
            "type": "noteOn",
            "noteNumber": 84,
            "velocity": 67
        },
        {
            "deltaTime": 279,
            "channel": 0,
            "type": "noteOn",
            "noteNumber": 85,
            "velocity": 89
        },
        {
            "deltaTime": 0,
            "channel": 0,
            "type": "noteOn",
            "noteNumber": 44,
            "velocity": 93
        },
        {
            "deltaTime": 0,
            "channel": 0,
            "type": "noteOn",
            "noteNumber": 73,
            "velocity": 72
        },
        {
            "deltaTime": 4,
            "channel": 0,
            "type": "noteOff",
            "noteNumber": 72,
            "velocity": 0
        },
        {
            "deltaTime": 3,
            "channel": 0,
            "type": "noteOff",
            "noteNumber": 84,
            "velocity": 0
        },
        {
            "deltaTime": 209,
            "channel": 0,
            "type": "noteOff",
            "noteNumber": 73,
            "velocity": 0
        },
        {
            "deltaTime": 69,
            "channel": 0,
            "type": "noteOff",
            "noteNumber": 44,
            "velocity": 0
        },
        {
            "deltaTime": 0,
            "channel": 0,
            "type": "noteOff",
            "noteNumber": 85,
            "velocity": 0
        },
        {
            "deltaTime": 3,
            "channel": 0,
            "type": "noteOn",
            "noteNumber": 84,
            "velocity": 83
        },
        {
            "deltaTime": 291,
            "channel": 0,
            "type": "noteOn",
            "noteNumber": 54,
            "velocity": 88
        },
        {
            "deltaTime": 0,
            "channel": 0,
            "type": "noteOn",
            "noteNumber": 75,
            "velocity": 84
        },
        {
            "deltaTime": 0,
            "channel": 0,
            "type": "noteOn",
            "noteNumber": 60,
            "velocity": 100
        },
        {
            "deltaTime": 178,
            "channel": 0,
            "type": "noteOff",
            "noteNumber": 84,
            "velocity": 0
        },
        {
            "deltaTime": 13,
            "channel": 0,
            "type": "noteOff",
            "noteNumber": 75,
            "velocity": 0
        },
        {
            "deltaTime": 95,
            "channel": 0,
            "type": "noteOff",
            "noteNumber": 54,
            "velocity": 0
        },
        {
            "deltaTime": 0,
            "channel": 0,
            "type": "noteOff",
            "noteNumber": 60,
            "velocity": 0
        },
        {
            "deltaTime": 283,
            "channel": 0,
            "type": "noteOn",
            "noteNumber": 64,
            "velocity": 105
        },
        {
            "deltaTime": 0,
            "channel": 0,
            "type": "noteOn",
            "noteNumber": 45,
            "velocity": 105
        },
        {
            "deltaTime": 0,
            "channel": 0,
            "type": "noteOn",
            "noteNumber": 76,
            "velocity": 105
        },
        {
            "deltaTime": 0,
            "channel": 0,
            "type": "noteOn",
            "noteNumber": 68,
            "velocity": 81
        },
        {
            "deltaTime": 571,
            "channel": 0,
            "type": "noteOn",
            "noteNumber": 59,
            "velocity": 94
        },
        {
            "deltaTime": 0,
            "channel": 0,
            "type": "noteOn",
            "noteNumber": 61,
            "velocity": 94
        },
        {
            "deltaTime": 0,
            "channel": 0,
            "type": "noteOn",
            "noteNumber": 73,
            "velocity": 103
        },
        {
            "deltaTime": 4,
            "channel": 0,
            "type": "noteOff",
            "noteNumber": 45,
            "velocity": 0
        },
        {
            "deltaTime": 0,
            "channel": 0,
            "type": "noteOff",
            "noteNumber": 76,
            "velocity": 0
        },
        {
            "deltaTime": 0,
            "channel": 0,
            "type": "noteOff",
            "noteNumber": 68,
            "velocity": 0
        },
        {
            "deltaTime": 0,
            "channel": 0,
            "type": "noteOff",
            "noteNumber": 64,
            "velocity": 0
        },
        {
            "deltaTime": 482,
            "channel": 0,
            "type": "noteOff",
            "noteNumber": 73,
            "velocity": 0
        },
        {
            "deltaTime": 88,
            "channel": 0,
            "type": "noteOff",
            "noteNumber": 61,
            "velocity": 0
        },
        {
            "deltaTime": 0,
            "channel": 0,
            "type": "noteOff",
            "noteNumber": 59,
            "velocity": 0
        },
        {
            "deltaTime": 7,
            "channel": 0,
            "type": "noteOn",
            "noteNumber": 81,
            "velocity": 90
        },
        {
            "deltaTime": 0,
            "channel": 0,
            "type": "noteOn",
            "noteNumber": 40,
            "velocity": 103
        },
        {
            "deltaTime": 0,
            "channel": 0,
            "type": "noteOn",
            "noteNumber": 69,
            "velocity": 93
        },
        {
            "deltaTime": 347,
            "channel": 0,
            "type": "noteOff",
            "noteNumber": 40,
            "velocity": 0
        },
        {
            "deltaTime": 177,
            "channel": 0,
            "type": "noteOff",
            "noteNumber": 81,
            "velocity": 0
        },
        {
            "deltaTime": 0,
            "channel": 0,
            "type": "noteOff",
            "noteNumber": 69,
            "velocity": 0
        },
        {
            "deltaTime": 45,
            "channel": 0,
            "type": "noteOn",
            "noteNumber": 57,
            "velocity": 90
        },
        {
            "deltaTime": 0,
            "channel": 0,
            "type": "noteOn",
            "noteNumber": 93,
            "velocity": 91
        },
        {
            "deltaTime": 151,
            "channel": 0,
            "type": "noteOff",
            "noteNumber": 57,
            "velocity": 0
        },
        {
            "deltaTime": 140,
            "channel": 0,
            "type": "noteOn",
            "noteNumber": 56,
            "velocity": 90
        },
        {
            "deltaTime": 0,
            "channel": 0,
            "type": "noteOn",
            "noteNumber": 60,
            "velocity": 90
        },
        {
            "deltaTime": 0,
            "channel": 0,
            "type": "noteOn",
            "noteNumber": 63,
            "velocity": 90
        },
        {
            "deltaTime": 92,
            "channel": 0,
            "type": "noteOff",
            "noteNumber": 93,
            "velocity": 0
        },
        {
            "deltaTime": 199,
            "channel": 0,
            "type": "noteOn",
            "noteNumber": 44,
            "velocity": 79
        },
        {
            "deltaTime": 0,
            "channel": 0,
            "type": "noteOn",
            "noteNumber": 80,
            "velocity": 115
        },
        {
            "deltaTime": 0,
            "channel": 0,
            "type": "noteOn",
            "noteNumber": 68,
            "velocity": 115
        },
        {
            "deltaTime": 0,
            "channel": 0,
            "type": "noteOn",
            "noteNumber": 75,
            "velocity": 92
        },
        {
            "deltaTime": 92,
            "channel": 0,
            "type": "noteOff",
            "noteNumber": 56,
            "velocity": 0
        },
        {
            "deltaTime": 0,
            "channel": 0,
            "type": "noteOff",
            "noteNumber": 60,
            "velocity": 0
        },
        {
            "deltaTime": 0,
            "channel": 0,
            "type": "noteOff",
            "noteNumber": 63,
            "velocity": 0
        },
        {
            "deltaTime": 255,
            "channel": 0,
            "type": "noteOff",
            "noteNumber": 44,
            "velocity": 0
        },
        {
            "deltaTime": 223,
            "channel": 0,
            "type": "noteOn",
            "noteNumber": 63,
            "velocity": 96
        },
        {
            "deltaTime": 0,
            "channel": 0,
            "type": "noteOn",
            "noteNumber": 72,
            "velocity": 84
        },
        {
            "deltaTime": 0,
            "channel": 0,
            "type": "noteOn",
            "noteNumber": 54,
            "velocity": 96
        },
        {
            "deltaTime": 0,
            "channel": 0,
            "type": "noteOn",
            "noteNumber": 60,
            "velocity": 96
        },
        {
            "deltaTime": 4,
            "channel": 0,
            "type": "noteOff",
            "noteNumber": 75,
            "velocity": 0
        },
        {
            "deltaTime": 0,
            "channel": 0,
            "type": "noteOff",
            "noteNumber": 80,
            "velocity": 0
        },
        {
            "deltaTime": 0,
            "channel": 0,
            "type": "noteOff",
            "noteNumber": 68,
            "velocity": 0
        },
        {
            "deltaTime": 19,
            "channel": 0,
            "type": "noteOn",
            "noteNumber": 84,
            "velocity": 78
        },
        {
            "deltaTime": 210,
            "channel": 0,
            "type": "noteOff",
            "noteNumber": 54,
            "velocity": 0
        },
        {
            "deltaTime": 148,
            "channel": 0,
            "type": "noteOff",
            "noteNumber": 60,
            "velocity": 0
        },
        {
            "deltaTime": 0,
            "channel": 0,
            "type": "noteOff",
            "noteNumber": 72,
            "velocity": 0
        },
        {
            "deltaTime": 0,
            "channel": 0,
            "type": "noteOff",
            "noteNumber": 63,
            "velocity": 0
        },
        {
            "deltaTime": 24,
            "channel": 0,
            "type": "noteOff",
            "noteNumber": 84,
            "velocity": 0
        },
        {
            "deltaTime": 174,
            "channel": 0,
            "type": "noteOn",
            "noteNumber": 75,
            "velocity": 114
        },
        {
            "deltaTime": 0,
            "channel": 0,
            "type": "noteOn",
            "noteNumber": 48,
            "velocity": 78
        },
        {
            "deltaTime": 12,
            "channel": 0,
            "type": "noteOn",
            "noteNumber": 87,
            "velocity": 112
        },
        {
            "deltaTime": 551,
            "channel": 0,
            "type": "noteOff",
            "noteNumber": 87,
            "velocity": 0
        },
        {
            "deltaTime": 6,
            "channel": 0,
            "type": "noteOn",
            "noteNumber": 56,
            "velocity": 109
        },
        {
            "deltaTime": 0,
            "channel": 0,
            "type": "noteOn",
            "noteNumber": 51,
            "velocity": 82
        },
        {
            "deltaTime": 0,
            "channel": 0,
            "type": "noteOn",
            "noteNumber": 84,
            "velocity": 92
        },
        {
            "deltaTime": 4,
            "channel": 0,
            "type": "noteOff",
            "noteNumber": 48,
            "velocity": 0
        },
        {
            "deltaTime": 0,
            "channel": 0,
            "type": "noteOff",
            "noteNumber": 75,
            "velocity": 0
        },
        {
            "deltaTime": 283,
            "channel": 0,
            "type": "noteOff",
            "noteNumber": 56,
            "velocity": 0
        },
        {
            "deltaTime": 0,
            "channel": 0,
            "type": "noteOff",
            "noteNumber": 51,
            "velocity": 0
        },
        {
            "deltaTime": 3,
            "channel": 0,
            "type": "noteOn",
            "noteNumber": 80,
            "velocity": 98
        },
        {
            "deltaTime": 92,
            "channel": 0,
            "type": "noteOff",
            "noteNumber": 84,
            "velocity": 0
        },
        {
            "deltaTime": 187,
            "channel": 0,
            "type": "noteOn",
            "noteNumber": 49,
            "velocity": 105
        },
        {
            "deltaTime": 0,
            "channel": 0,
            "type": "noteOn",
            "noteNumber": 76,
            "velocity": 93
        },
        {
            "deltaTime": 104,
            "channel": 0,
            "type": "noteOff",
            "noteNumber": 80,
            "velocity": 0
        },
        {
            "deltaTime": 279,
            "channel": 0,
            "type": "noteOff",
            "noteNumber": 76,
            "velocity": 0
        },
        {
            "deltaTime": 192,
            "channel": 0,
            "type": "noteOff",
            "noteNumber": 49,
            "velocity": 0
        },
        {
            "deltaTime": 7,
            "channel": 0,
            "type": "noteOn",
            "noteNumber": 64,
            "velocity": 75
        },
        {
            "deltaTime": 0,
            "channel": 0,
            "type": "noteOn",
            "noteNumber": 63,
            "velocity": 75
        },
        {
            "deltaTime": 0,
            "channel": 0,
            "type": "noteOn",
            "noteNumber": 68,
            "velocity": 75
        },
        {
            "deltaTime": 0,
            "channel": 0,
            "type": "noteOn",
            "noteNumber": 78,
            "velocity": 78
        },
        {
            "deltaTime": 194,
            "channel": 0,
            "type": "noteOn",
            "noteNumber": 76,
            "velocity": 78
        },
        {
            "deltaTime": 9,
            "channel": 0,
            "type": "noteOff",
            "noteNumber": 78,
            "velocity": 0
        },
        {
            "deltaTime": 172,
            "channel": 0,
            "type": "noteOn",
            "noteNumber": 75,
            "velocity": 92
        },
        {
            "deltaTime": 21,
            "channel": 0,
            "type": "noteOff",
            "noteNumber": 76,
            "velocity": 0
        },
        {
            "deltaTime": 170,
            "channel": 0,
            "type": "noteOff",
            "noteNumber": 64,
            "velocity": 0
        },
        {
            "deltaTime": 2,
            "channel": 0,
            "type": "noteOn",
            "noteNumber": 44,
            "velocity": 102
        },
        {
            "deltaTime": 0,
            "channel": 0,
            "type": "noteOn",
            "noteNumber": 76,
            "velocity": 103
        },
        {
            "deltaTime": 4,
            "channel": 0,
            "type": "noteOff",
            "noteNumber": 68,
            "velocity": 0
        },
        {
            "deltaTime": 0,
            "channel": 0,
            "type": "noteOff",
            "noteNumber": 63,
            "velocity": 0
        },
        {
            "deltaTime": 4,
            "channel": 0,
            "type": "noteOff",
            "noteNumber": 75,
            "velocity": 0
        },
        {
            "deltaTime": 278,
            "channel": 0,
            "type": "noteOff",
            "noteNumber": 76,
            "velocity": 0
        },
        {
            "deltaTime": 287,
            "channel": 0,
            "type": "noteOff",
            "noteNumber": 44,
            "velocity": 0
        },
        {
            "deltaTime": 7,
            "channel": 0,
            "type": "noteOn",
            "noteNumber": 78,
            "velocity": 90
        },
        {
            "deltaTime": 0,
            "channel": 0,
            "type": "noteOn",
            "noteNumber": 61,
            "velocity": 42
        },
        {
            "deltaTime": 0,
            "channel": 0,
            "type": "noteOn",
            "noteNumber": 68,
            "velocity": 42
        },
        {
            "deltaTime": 151,
            "channel": 0,
            "type": "noteOff",
            "noteNumber": 68,
            "velocity": 0
        },
        {
            "deltaTime": 0,
            "channel": 0,
            "type": "noteOff",
            "noteNumber": 61,
            "velocity": 0
        },
        {
            "deltaTime": 128,
            "channel": 0,
            "type": "noteOn",
            "noteNumber": 63,
            "velocity": 87
        },
        {
            "deltaTime": 0,
            "channel": 0,
            "type": "noteOn",
            "noteNumber": 64,
            "velocity": 87
        },
        {
            "deltaTime": 0,
            "channel": 0,
            "type": "noteOn",
            "noteNumber": 68,
            "velocity": 87
        },
        {
            "deltaTime": 8,
            "channel": 0,
            "type": "noteOff",
            "noteNumber": 78,
            "velocity": 0
        },
        {
            "deltaTime": 279,
            "channel": 0,
            "type": "noteOff",
            "noteNumber": 64,
            "velocity": 0
        },
        {
            "deltaTime": 0,
            "channel": 0,
            "type": "noteOff",
            "noteNumber": 68,
            "velocity": 0
        },
        {
            "deltaTime": 0,
            "channel": 0,
            "type": "noteOff",
            "noteNumber": 63,
            "velocity": 0
        },
        {
            "deltaTime": 3,
            "channel": 0,
            "type": "noteOn",
            "noteNumber": 80,
            "velocity": 75
        },
        {
            "deltaTime": 0,
            "channel": 0,
            "type": "noteOn",
            "noteNumber": 50,
            "velocity": 91
        },
        {
            "deltaTime": 348,
            "channel": 0,
            "type": "noteOff",
            "noteNumber": 50,
            "velocity": 0
        },
        {
            "deltaTime": 129,
            "channel": 0,
            "type": "noteOff",
            "noteNumber": 80,
            "velocity": 0
        },
        {
            "deltaTime": 93,
            "channel": 0,
            "type": "noteOn",
            "noteNumber": 66,
            "velocity": 100
        },
        {
            "deltaTime": 0,
            "channel": 0,
            "type": "noteOn",
            "noteNumber": 61,
            "velocity": 92
        },
        {
            "deltaTime": 0,
            "channel": 0,
            "type": "noteOn",
            "noteNumber": 81,
            "velocity": 107
        },
        {
            "deltaTime": 0,
            "channel": 0,
            "type": "noteOn",
            "noteNumber": 69,
            "velocity": 100
        },
        {
            "deltaTime": 235,
            "channel": 0,
            "type": "noteOff",
            "noteNumber": 69,
            "velocity": 0
        },
        {
            "deltaTime": 0,
            "channel": 0,
            "type": "noteOff",
            "noteNumber": 61,
            "velocity": 0
        },
        {
            "deltaTime": 0,
            "channel": 0,
            "type": "noteOff",
            "noteNumber": 66,
            "velocity": 0
        },
        {
            "deltaTime": 52,
            "channel": 0,
            "type": "noteOff",
            "noteNumber": 81,
            "velocity": 0
        },
        {
            "deltaTime": 295,
            "channel": 0,
            "type": "noteOn",
            "noteNumber": 66,
            "velocity": 103
        },
        {
            "deltaTime": 0,
            "channel": 0,
            "type": "noteOn",
            "noteNumber": 83,
            "velocity": 101
        },
        {
            "deltaTime": 0,
            "channel": 0,
            "type": "noteOn",
            "noteNumber": 71,
            "velocity": 92
        },
        {
            "deltaTime": 0,
            "channel": 0,
            "type": "noteOn",
            "noteNumber": 52,
            "velocity": 98
        },
        {
            "deltaTime": 0,
            "channel": 0,
            "type": "noteOn",
            "noteNumber": 61,
            "velocity": 92
        },
        {
            "deltaTime": 290,
            "channel": 0,
            "type": "noteOff",
            "noteNumber": 83,
            "velocity": 0
        },
        {
            "deltaTime": 280,
            "channel": 0,
            "type": "noteOn",
            "noteNumber": 73,
            "velocity": 108
        },
        {
            "deltaTime": 0,
            "channel": 0,
            "type": "noteOn",
            "noteNumber": 54,
            "velocity": 103
        },
        {
            "deltaTime": 0,
            "channel": 0,
            "type": "noteOn",
            "noteNumber": 85,
            "velocity": 112
        },
        {
            "deltaTime": 0,
            "channel": 0,
            "type": "noteOn",
            "noteNumber": 76,
            "velocity": 79
        },
        {
            "deltaTime": 0,
            "channel": 0,
            "type": "noteOn",
            "noteNumber": 69,
            "velocity": 103
        },
        {
            "deltaTime": 4,
            "channel": 0,
            "type": "noteOff",
            "noteNumber": 66,
            "velocity": 0
        },
        {
            "deltaTime": 0,
            "channel": 0,
            "type": "noteOff",
            "noteNumber": 71,
            "velocity": 0
        },
        {
            "deltaTime": 0,
            "channel": 0,
            "type": "noteOff",
            "noteNumber": 52,
            "velocity": 0
        },
        {
            "deltaTime": 0,
            "channel": 0,
            "type": "noteOff",
            "noteNumber": 61,
            "velocity": 0
        },
        {
            "deltaTime": 230,
            "channel": 0,
            "type": "noteOff",
            "noteNumber": 73,
            "velocity": 0
        },
        {
            "deltaTime": 0,
            "channel": 0,
            "type": "noteOff",
            "noteNumber": 69,
            "velocity": 0
        },
        {
            "deltaTime": 52,
            "channel": 0,
            "type": "noteOff",
            "noteNumber": 85,
            "velocity": 0
        },
        {
            "deltaTime": 0,
            "channel": 0,
            "type": "noteOff",
            "noteNumber": 54,
            "velocity": 0
        },
        {
            "deltaTime": 0,
            "channel": 0,
            "type": "noteOff",
            "noteNumber": 76,
            "velocity": 0
        },
        {
            "deltaTime": 198,
            "channel": 0,
            "type": "noteOn",
            "noteNumber": 87,
            "velocity": 80
        },
        {
            "deltaTime": 97,
            "channel": 0,
            "type": "noteOn",
            "noteNumber": 44,
            "velocity": 98
        },
        {
            "deltaTime": 0,
            "channel": 0,
            "type": "noteOn",
            "noteNumber": 76,
            "velocity": 106
        },
        {
            "deltaTime": 0,
            "channel": 0,
            "type": "noteOn",
            "noteNumber": 88,
            "velocity": 106
        },
        {
            "deltaTime": 0,
            "channel": 0,
            "type": "noteOn",
            "noteNumber": 56,
            "velocity": 98
        },
        {
            "deltaTime": 130,
            "channel": 0,
            "type": "noteOff",
            "noteNumber": 87,
            "velocity": 0
        },
        {
            "deltaTime": 440,
            "channel": 0,
            "type": "noteOn",
            "noteNumber": 68,
            "velocity": 73
        },
        {
            "deltaTime": 0,
            "channel": 0,
            "type": "noteOn",
            "noteNumber": 73,
            "velocity": 73
        },
        {
            "deltaTime": 0,
            "channel": 0,
            "type": "noteOn",
            "noteNumber": 64,
            "velocity": 73
        },
        {
            "deltaTime": 4,
            "channel": 0,
            "type": "noteOff",
            "noteNumber": 44,
            "velocity": 0
        },
        {
            "deltaTime": 0,
            "channel": 0,
            "type": "noteOff",
            "noteNumber": 56,
            "velocity": 0
        },
        {
            "deltaTime": 213,
            "channel": 0,
            "type": "noteOff",
            "noteNumber": 88,
            "velocity": 0
        },
        {
            "deltaTime": 0,
            "channel": 0,
            "type": "noteOff",
            "noteNumber": 76,
            "velocity": 0
        },
        {
            "deltaTime": 340,
            "channel": 0,
            "type": "noteOn",
            "noteNumber": 87,
            "velocity": 70
        },
        {
            "deltaTime": 12,
            "channel": 0,
            "type": "noteOn",
            "noteNumber": 76,
            "velocity": 106
        },
        {
            "deltaTime": 0,
            "channel": 0,
            "type": "noteOn",
            "noteNumber": 49,
            "velocity": 69
        },
        {
            "deltaTime": 4,
            "channel": 0,
            "type": "noteOff",
            "noteNumber": 73,
            "velocity": 0
        },
        {
            "deltaTime": 0,
            "channel": 0,
            "type": "noteOff",
            "noteNumber": 64,
            "velocity": 0
        },
        {
            "deltaTime": 0,
            "channel": 0,
            "type": "noteOff",
            "noteNumber": 68,
            "velocity": 0
        },
        {
            "deltaTime": 67,
            "channel": 0,
            "type": "noteOn",
            "noteNumber": 88,
            "velocity": 106
        },
        {
            "deltaTime": 130,
            "channel": 0,
            "type": "noteOff",
            "noteNumber": 87,
            "velocity": 0
        },
        {
            "deltaTime": 84,
            "channel": 0,
            "type": "noteOff",
            "noteNumber": 49,
            "velocity": 0
        },
        {
            "deltaTime": 287,
            "channel": 0,
            "type": "noteOff",
            "noteNumber": 76,
            "velocity": 0
        },
        {
            "deltaTime": 7,
            "channel": 0,
            "type": "noteOn",
            "noteNumber": 68,
            "velocity": 78
        },
        {
            "deltaTime": 0,
            "channel": 0,
            "type": "noteOn",
            "noteNumber": 92,
            "velocity": 118
        },
        {
            "deltaTime": 0,
            "channel": 0,
            "type": "noteOn",
            "noteNumber": 63,
            "velocity": 78
        },
        {
            "deltaTime": 29,
            "channel": 0,
            "type": "noteOff",
            "noteNumber": 88,
            "velocity": 0
        },
        {
            "deltaTime": 133,
            "channel": 0,
            "type": "noteOff",
            "noteNumber": 63,
            "velocity": 0
        },
        {
            "deltaTime": 9,
            "channel": 0,
            "type": "noteOff",
            "noteNumber": 68,
            "velocity": 0
        },
        {
            "deltaTime": 118,
            "channel": 0,
            "type": "noteOn",
            "noteNumber": 68,
            "velocity": 93
        },
        {
            "deltaTime": 0,
            "channel": 0,
            "type": "noteOn",
            "noteNumber": 61,
            "velocity": 93
        },
        {
            "deltaTime": 279,
            "channel": 0,
            "type": "noteOn",
            "noteNumber": 39,
            "velocity": 87
        },
        {
            "deltaTime": 0,
            "channel": 0,
            "type": "noteOn",
            "noteNumber": 51,
            "velocity": 87
        },
        {
            "deltaTime": 0,
            "channel": 0,
            "type": "noteOn",
            "noteNumber": 90,
            "velocity": 87
        },
        {
            "deltaTime": 0,
            "channel": 0,
            "type": "noteOn",
            "noteNumber": 78,
            "velocity": 104
        },
        {
            "deltaTime": 4,
            "channel": 0,
            "type": "noteOff",
            "noteNumber": 92,
            "velocity": 0
        },
        {
            "deltaTime": 3,
            "channel": 0,
            "type": "noteOff",
            "noteNumber": 68,
            "velocity": 0
        },
        {
            "deltaTime": 0,
            "channel": 0,
            "type": "noteOff",
            "noteNumber": 61,
            "velocity": 0
        },
        {
            "deltaTime": 493,
            "channel": 0,
            "type": "noteOff",
            "noteNumber": 78,
            "velocity": 0
        },
        {
            "deltaTime": 0,
            "channel": 0,
            "type": "noteOff",
            "noteNumber": 90,
            "velocity": 0
        },
        {
            "deltaTime": 74,
            "channel": 0,
            "type": "noteOff",
            "noteNumber": 39,
            "velocity": 0
        },
        {
            "deltaTime": 0,
            "channel": 0,
            "type": "noteOff",
            "noteNumber": 51,
            "velocity": 0
        },
        {
            "deltaTime": 7,
            "channel": 0,
            "type": "noteOn",
            "noteNumber": 68,
            "velocity": 78
        },
        {
            "deltaTime": 0,
            "channel": 0,
            "type": "noteOn",
            "noteNumber": 76,
            "velocity": 105
        },
        {
            "deltaTime": 0,
            "channel": 0,
            "type": "noteOn",
            "noteNumber": 88,
            "velocity": 101
        },
        {
            "deltaTime": 0,
            "channel": 0,
            "type": "noteOn",
            "noteNumber": 72,
            "velocity": 78
        },
        {
            "deltaTime": 0,
            "channel": 0,
            "type": "noteOn",
            "noteNumber": 63,
            "velocity": 78
        },
        {
            "deltaTime": 287,
            "channel": 0,
            "type": "noteOff",
            "noteNumber": 76,
            "velocity": 0
        },
        {
            "deltaTime": 0,
            "channel": 0,
            "type": "noteOff",
            "noteNumber": 88,
            "velocity": 0
        },
        {
            "deltaTime": 16,
            "channel": 0,
            "type": "noteOff",
            "noteNumber": 63,
            "velocity": 0
        },
        {
            "deltaTime": 0,
            "channel": 0,
            "type": "noteOff",
            "noteNumber": 72,
            "velocity": 0
        },
        {
            "deltaTime": 0,
            "channel": 0,
            "type": "noteOff",
            "noteNumber": 68,
            "velocity": 0
        },
        {
            "deltaTime": 266,
            "channel": 0,
            "type": "noteOn",
            "noteNumber": 87,
            "velocity": 116
        },
        {
            "deltaTime": 0,
            "channel": 0,
            "type": "noteOn",
            "noteNumber": 75,
            "velocity": 101
        },
        {
            "deltaTime": 0,
            "channel": 0,
            "type": "noteOn",
            "noteNumber": 44,
            "velocity": 102
        },
        {
            "deltaTime": 571,
            "channel": 0,
            "type": "noteOn",
            "noteNumber": 57,
            "velocity": 78
        },
        {
            "deltaTime": 0,
            "channel": 0,
            "type": "noteOn",
            "noteNumber": 63,
            "velocity": 78
        },
        {
            "deltaTime": 0,
            "channel": 0,
            "type": "noteOn",
            "noteNumber": 72,
            "velocity": 96
        },
        {
            "deltaTime": 0,
            "channel": 0,
            "type": "noteOn",
            "noteNumber": 78,
            "velocity": 84
        },
        {
            "deltaTime": 4,
            "channel": 0,
            "type": "noteOff",
            "noteNumber": 87,
            "velocity": 0
        },
        {
            "deltaTime": 0,
            "channel": 0,
            "type": "noteOff",
            "noteNumber": 75,
            "velocity": 0
        },
        {
            "deltaTime": 0,
            "channel": 0,
            "type": "noteOff",
            "noteNumber": 44,
            "velocity": 0
        },
        {
            "deltaTime": 283,
            "channel": 0,
            "type": "noteOff",
            "noteNumber": 72,
            "velocity": 0
        },
        {
            "deltaTime": 0,
            "channel": 0,
            "type": "noteOff",
            "noteNumber": 57,
            "velocity": 0
        },
        {
            "deltaTime": 0,
            "channel": 0,
            "type": "noteOff",
            "noteNumber": 78,
            "velocity": 0
        },
        {
            "deltaTime": 0,
            "channel": 0,
            "type": "noteOff",
            "noteNumber": 63,
            "velocity": 0
        },
        {
            "deltaTime": 3,
            "channel": 0,
            "type": "noteOn",
            "noteNumber": 85,
            "velocity": 72
        },
        {
            "deltaTime": 287,
            "channel": 0,
            "type": "noteOff",
            "noteNumber": 85,
            "velocity": 0
        },
        {
            "deltaTime": 3,
            "channel": 0,
            "type": "noteOn",
            "noteNumber": 56,
            "velocity": 112
        },
        {
            "deltaTime": 0,
            "channel": 0,
            "type": "noteOn",
            "noteNumber": 86,
            "velocity": 94
        },
        {
            "deltaTime": 85,
            "channel": 0,
            "type": "noteOn",
            "noteNumber": 87,
            "velocity": 99
        },
        {
            "deltaTime": 116,
            "channel": 0,
            "type": "noteOff",
            "noteNumber": 86,
            "velocity": 0
        },
        {
            "deltaTime": 369,
            "channel": 0,
            "type": "noteOn",
            "noteNumber": 68,
            "velocity": 108
        },
        {
            "deltaTime": 0,
            "channel": 0,
            "type": "noteOn",
            "noteNumber": 63,
            "velocity": 108
        },
        {
            "deltaTime": 0,
            "channel": 0,
            "type": "noteOn",
            "noteNumber": 72,
            "velocity": 108
        },
        {
            "deltaTime": 0,
            "channel": 0,
            "type": "noteOn",
            "noteNumber": 80,
            "velocity": 86
        },
        {
            "deltaTime": 4,
            "channel": 0,
            "type": "noteOff",
            "noteNumber": 56,
            "velocity": 0
        },
        {
            "deltaTime": 3,
            "channel": 0,
            "type": "noteOff",
            "noteNumber": 87,
            "velocity": 0
        },
        {
            "deltaTime": 162,
            "channel": 0,
            "type": "noteOff",
            "noteNumber": 80,
            "velocity": 0
        },
        {
            "deltaTime": 48,
            "channel": 0,
            "type": "noteOn",
            "noteNumber": 92,
            "velocity": 87
        },
        {
            "deltaTime": 201,
            "channel": 0,
            "type": "noteOff",
            "noteNumber": 92,
            "velocity": 0
        },
        {
            "deltaTime": 17,
            "channel": 0,
            "type": "noteOn",
            "noteNumber": 80,
            "velocity": 81
        },
        {
            "deltaTime": 138,
            "channel": 0,
            "type": "noteOff",
            "noteNumber": 68,
            "velocity": 0
        },
        {
            "deltaTime": 0,
            "channel": 0,
            "type": "noteOff",
            "noteNumber": 72,
            "velocity": 0
        },
        {
            "deltaTime": 0,
            "channel": 0,
            "type": "noteOff",
            "noteNumber": 63,
            "velocity": 0
        },
        {
            "deltaTime": 7,
            "channel": 0,
            "type": "noteOn",
            "noteNumber": 48,
            "velocity": 69
        },
        {
            "deltaTime": 60,
            "channel": 0,
            "type": "noteOff",
            "noteNumber": 80,
            "velocity": 0
        },
        {
            "deltaTime": 12,
            "channel": 0,
            "type": "noteOn",
            "noteNumber": 92,
            "velocity": 106
        },
        {
            "deltaTime": 153,
            "channel": 0,
            "type": "noteOff",
            "noteNumber": 92,
            "velocity": 0
        },
        {
            "deltaTime": 28,
            "channel": 0,
            "type": "noteOn",
            "noteNumber": 80,
            "velocity": 101
        },
        {
            "deltaTime": 32,
            "channel": 0,
            "type": "noteOff",
            "noteNumber": 48,
            "velocity": 0
        },
        {
            "deltaTime": 147,
            "channel": 0,
            "type": "noteOff",
            "noteNumber": 80,
            "velocity": 0
        },
        {
            "deltaTime": 135,
            "channel": 0,
            "type": "noteOn",
            "noteNumber": 92,
            "velocity": 113
        },
        {
            "deltaTime": 0,
            "channel": 0,
            "type": "noteOn",
            "noteNumber": 68,
            "velocity": 90
        },
        {
            "deltaTime": 0,
            "channel": 0,
            "type": "noteOn",
            "noteNumber": 75,
            "velocity": 95
        },
        {
            "deltaTime": 0,
            "channel": 0,
            "type": "noteOn",
            "noteNumber": 63,
            "velocity": 90
        },
        {
            "deltaTime": 0,
            "channel": 0,
            "type": "noteOn",
            "noteNumber": 87,
            "velocity": 120
        },
        {
            "deltaTime": 230,
            "channel": 0,
            "type": "noteOff",
            "noteNumber": 63,
            "velocity": 0
        },
        {
            "deltaTime": 9,
            "channel": 0,
            "type": "noteOff",
            "noteNumber": 68,
            "velocity": 0
        },
        {
            "deltaTime": 48,
            "channel": 0,
            "type": "noteOff",
            "noteNumber": 92,
            "velocity": 0
        },
        {
            "deltaTime": 0,
            "channel": 0,
            "type": "noteOff",
            "noteNumber": 87,
            "velocity": 0
        },
        {
            "deltaTime": 0,
            "channel": 0,
            "type": "noteOff",
            "noteNumber": 75,
            "velocity": 0
        },
        {
            "deltaTime": 3,
            "channel": 0,
            "type": "noteOn",
            "noteNumber": 68,
            "velocity": 92
        },
        {
            "deltaTime": 0,
            "channel": 0,
            "type": "noteOn",
            "noteNumber": 60,
            "velocity": 92
        },
        {
            "deltaTime": 279,
            "channel": 0,
            "type": "noteOn",
            "noteNumber": 73,
            "velocity": 101
        },
        {
            "deltaTime": 0,
            "channel": 0,
            "type": "noteOn",
            "noteNumber": 85,
            "velocity": 101
        },
        {
            "deltaTime": 0,
            "channel": 0,
            "type": "noteOn",
            "noteNumber": 51,
            "velocity": 98
        },
        {
            "deltaTime": 8,
            "channel": 0,
            "type": "noteOff",
            "noteNumber": 60,
            "velocity": 0
        },
        {
            "deltaTime": 0,
            "channel": 0,
            "type": "noteOff",
            "noteNumber": 68,
            "velocity": 0
        },
        {
            "deltaTime": 279,
            "channel": 0,
            "type": "noteOff",
            "noteNumber": 85,
            "velocity": 0
        },
        {
            "deltaTime": 0,
            "channel": 0,
            "type": "noteOff",
            "noteNumber": 73,
            "velocity": 0
        },
        {
            "deltaTime": 270,
            "channel": 0,
            "type": "noteOn",
            "noteNumber": 63,
            "velocity": 90
        },
        {
            "deltaTime": 0,
            "channel": 0,
            "type": "noteOn",
            "noteNumber": 60,
            "velocity": 90
        },
        {
            "deltaTime": 17,
            "channel": 0,
            "type": "noteOff",
            "noteNumber": 51,
            "velocity": 0
        },
        {
            "deltaTime": 7,
            "channel": 0,
            "type": "noteOn",
            "noteNumber": 68,
            "velocity": 90
        },
        {
            "deltaTime": 0,
            "channel": 0,
            "type": "noteOn",
            "noteNumber": 85,
            "velocity": 91
        },
        {
            "deltaTime": 280,
            "channel": 0,
            "type": "noteOff",
            "noteNumber": 60,
            "velocity": 0
        },
        {
            "deltaTime": 0,
            "channel": 0,
            "type": "noteOff",
            "noteNumber": 63,
            "velocity": 0
        },
        {
            "deltaTime": 7,
            "channel": 0,
            "type": "noteOff",
            "noteNumber": 85,
            "velocity": 0
        },
        {
            "deltaTime": 3,
            "channel": 0,
            "type": "noteOn",
            "noteNumber": 87,
            "velocity": 84
        },
        {
            "deltaTime": 13,
            "channel": 0,
            "type": "noteOff",
            "noteNumber": 68,
            "velocity": 0
        },
        {
            "deltaTime": 188,
            "channel": 0,
            "type": "noteOff",
            "noteNumber": 87,
            "velocity": 0
        },
        {
            "deltaTime": 77,
            "channel": 0,
            "type": "noteOn",
            "noteNumber": 51,
            "velocity": 112
        },
        {
            "deltaTime": 0,
            "channel": 0,
            "type": "noteOn",
            "noteNumber": 32,
            "velocity": 114
        },
        {
            "deltaTime": 0,
            "channel": 0,
            "type": "noteOn",
            "noteNumber": 66,
            "velocity": 112
        },
        {
            "deltaTime": 0,
            "channel": 0,
            "type": "noteOn",
            "noteNumber": 84,
            "velocity": 102
        },
        {
            "deltaTime": 0,
            "channel": 0,
            "type": "noteOn",
            "noteNumber": 76,
            "velocity": 112
        },
        {
            "deltaTime": 0,
            "channel": 0,
            "type": "noteOn",
            "noteNumber": 60,
            "velocity": 102
        },
        {
            "deltaTime": 287,
            "channel": 0,
            "type": "noteOff",
            "noteNumber": 76,
            "velocity": 0
        },
        {
            "deltaTime": 0,
            "channel": 0,
            "type": "noteOff",
            "noteNumber": 66,
            "velocity": 0
        },
        {
            "deltaTime": 0,
            "channel": 0,
            "type": "noteOff",
            "noteNumber": 84,
            "velocity": 0
        },
        {
            "deltaTime": 0,
            "channel": 0,
            "type": "noteOff",
            "noteNumber": 51,
            "velocity": 0
        },
        {
            "deltaTime": 0,
            "channel": 0,
            "type": "noteOff",
            "noteNumber": 60,
            "velocity": 0
        },
        {
            "deltaTime": 3,
            "channel": 0,
            "type": "noteOn",
            "noteNumber": 80,
            "velocity": 95
        },
        {
            "deltaTime": 284,
            "channel": 0,
            "type": "noteOff",
            "noteNumber": 32,
            "velocity": 0
        },
        {
            "deltaTime": 3,
            "channel": 0,
            "type": "noteOff",
            "noteNumber": 80,
            "velocity": 0
        },
        {
            "deltaTime": 3,
            "channel": 0,
            "type": "noteOn",
            "noteNumber": 63,
            "velocity": 88
        },
        {
            "deltaTime": 0,
            "channel": 0,
            "type": "noteOn",
            "noteNumber": 78,
            "velocity": 110
        },
        {
            "deltaTime": 0,
            "channel": 0,
            "type": "noteOn",
            "noteNumber": 68,
            "velocity": 88
        },
        {
            "deltaTime": 179,
            "channel": 0,
            "type": "noteOff",
            "noteNumber": 68,
            "velocity": 0
        },
        {
            "deltaTime": 0,
            "channel": 0,
            "type": "noteOff",
            "noteNumber": 78,
            "velocity": 0
        },
        {
            "deltaTime": 0,
            "channel": 0,
            "type": "noteOff",
            "noteNumber": 63,
            "velocity": 0
        },
        {
            "deltaTime": 99,
            "channel": 0,
            "type": "noteOn",
            "noteNumber": 72,
            "velocity": 101
        },
        {
            "deltaTime": 179,
            "channel": 0,
            "type": "noteOff",
            "noteNumber": 72,
            "velocity": 0
        },
        {
            "deltaTime": 111,
            "channel": 0,
            "type": "noteOn",
            "noteNumber": 49,
            "velocity": 72
        },
        {
            "deltaTime": 0,
            "channel": 0,
            "type": "noteOn",
            "noteNumber": 68,
            "velocity": 96
        },
        {
            "deltaTime": 0,
            "channel": 0,
            "type": "noteOn",
            "noteNumber": 85,
            "velocity": 45
        },
        {
            "deltaTime": 0,
            "channel": 0,
            "type": "noteOn",
            "noteNumber": 61,
            "velocity": 72
        },
        {
            "deltaTime": 0,
            "channel": 0,
            "type": "noteOn",
            "noteNumber": 76,
            "velocity": 72
        },
        {
            "deltaTime": 287,
            "channel": 0,
            "type": "noteOff",
            "noteNumber": 76,
            "velocity": 0
        },
        {
            "deltaTime": 0,
            "channel": 0,
            "type": "noteOff",
            "noteNumber": 68,
            "velocity": 0
        },
        {
            "deltaTime": 0,
            "channel": 0,
            "type": "noteOff",
            "noteNumber": 85,
            "velocity": 0
        },
        {
            "deltaTime": 3,
            "channel": 0,
            "type": "noteOn",
            "noteNumber": 84,
            "velocity": 53
        },
        {
            "deltaTime": 279,
            "channel": 0,
            "type": "noteOn",
            "noteNumber": 85,
            "velocity": 72
        },
        {
            "deltaTime": 4,
            "channel": 0,
            "type": "noteOff",
            "noteNumber": 61,
            "velocity": 0
        },
        {
            "deltaTime": 0,
            "channel": 0,
            "type": "noteOff",
            "noteNumber": 49,
            "velocity": 0
        },
        {
            "deltaTime": 3,
            "channel": 0,
            "type": "noteOff",
            "noteNumber": 84,
            "velocity": 0
        },
        {
            "deltaTime": 279,
            "channel": 0,
            "type": "noteOff",
            "noteNumber": 85,
            "velocity": 0
        },
        {
            "deltaTime": 3,
            "channel": 0,
            "type": "noteOn",
            "noteNumber": 87,
            "velocity": 78
        },
        {
            "deltaTime": 287,
            "channel": 0,
            "type": "noteOff",
            "noteNumber": 87,
            "velocity": 0
        },
        {
            "deltaTime": 3,
            "channel": 0,
            "type": "noteOn",
            "noteNumber": 71,
            "velocity": 23
        },
        {
            "deltaTime": 0,
            "channel": 0,
            "type": "noteOn",
            "noteNumber": 88,
            "velocity": 91
        },
        {
            "deltaTime": 287,
            "channel": 0,
            "type": "noteOff",
            "noteNumber": 71,
            "velocity": 0
        },
        {
            "deltaTime": 0,
            "channel": 0,
            "type": "noteOff",
            "noteNumber": 88,
            "velocity": 0
        },
        {
            "deltaTime": 3,
            "channel": 0,
            "type": "noteOn",
            "noteNumber": 87,
            "velocity": 88
        },
        {
            "deltaTime": 0,
            "channel": 0,
            "type": "noteOn",
            "noteNumber": 68,
            "velocity": 46
        },
        {
            "deltaTime": 184,
            "channel": 0,
            "type": "noteOff",
            "noteNumber": 68,
            "velocity": 0
        },
        {
            "deltaTime": 94,
            "channel": 0,
            "type": "noteOn",
            "noteNumber": 88,
            "velocity": 102
        },
        {
            "deltaTime": 0,
            "channel": 0,
            "type": "noteOn",
            "noteNumber": 69,
            "velocity": 69
        },
        {
            "deltaTime": 8,
            "channel": 0,
            "type": "noteOff",
            "noteNumber": 87,
            "velocity": 0
        },
        {
            "deltaTime": 279,
            "channel": 0,
            "type": "noteOff",
            "noteNumber": 88,
            "velocity": 0
        },
        {
            "deltaTime": 0,
            "channel": 0,
            "type": "noteOff",
            "noteNumber": 69,
            "velocity": 0
        },
        {
            "deltaTime": 3,
            "channel": 0,
            "type": "noteOn",
            "noteNumber": 66,
            "velocity": 79
        },
        {
            "deltaTime": 0,
            "channel": 0,
            "type": "noteOn",
            "noteNumber": 90,
            "velocity": 107
        },
        {
            "deltaTime": 287,
            "channel": 0,
            "type": "noteOff",
            "noteNumber": 66,
            "velocity": 0
        },
        {
            "deltaTime": 0,
            "channel": 0,
            "type": "noteOff",
            "noteNumber": 90,
            "velocity": 0
        },
        {
            "deltaTime": 3,
            "channel": 0,
            "type": "noteOn",
            "noteNumber": 80,
            "velocity": 104
        },
        {
            "deltaTime": 0,
            "channel": 0,
            "type": "noteOn",
            "noteNumber": 92,
            "velocity": 83
        },
        {
            "deltaTime": 0,
            "channel": 0,
            "type": "noteOn",
            "noteNumber": 61,
            "velocity": 101
        },
        {
            "deltaTime": 0,
            "channel": 0,
            "type": "noteOn",
            "noteNumber": 68,
            "velocity": 101
        },
        {
            "deltaTime": 279,
            "channel": 0,
            "type": "noteOn",
            "noteNumber": 88,
            "velocity": 105
        },
        {
            "deltaTime": 8,
            "channel": 0,
            "type": "noteOff",
            "noteNumber": 92,
            "velocity": 0
        },
        {
            "deltaTime": 0,
            "channel": 0,
            "type": "noteOff",
            "noteNumber": 68,
            "velocity": 0
        },
        {
            "deltaTime": 0,
            "channel": 0,
            "type": "noteOff",
            "noteNumber": 80,
            "velocity": 0
        },
        {
            "deltaTime": 0,
            "channel": 0,
            "type": "noteOff",
            "noteNumber": 61,
            "velocity": 0
        },
        {
            "deltaTime": 279,
            "channel": 0,
            "type": "noteOff",
            "noteNumber": 88,
            "velocity": 0
        },
        {
            "deltaTime": 3,
            "channel": 0,
            "type": "noteOn",
            "noteNumber": 85,
            "velocity": 105
        },
        {
            "deltaTime": 0,
            "channel": 0,
            "type": "noteOn",
            "noteNumber": 64,
            "velocity": 77
        },
        {
            "deltaTime": 287,
            "channel": 0,
            "type": "noteOff",
            "noteNumber": 85,
            "velocity": 0
        },
        {
            "deltaTime": 0,
            "channel": 0,
            "type": "noteOff",
            "noteNumber": 64,
            "velocity": 0
        },
        {
            "deltaTime": 3,
            "channel": 0,
            "type": "noteOn",
            "noteNumber": 80,
            "velocity": 110
        },
        {
            "deltaTime": 287,
            "channel": 0,
            "type": "noteOff",
            "noteNumber": 80,
            "velocity": 0
        },
        {
            "deltaTime": 3,
            "channel": 0,
            "type": "noteOn",
            "noteNumber": 60,
            "velocity": 107
        },
        {
            "deltaTime": 0,
            "channel": 0,
            "type": "noteOn",
            "noteNumber": 51,
            "velocity": 107
        },
        {
            "deltaTime": 0,
            "channel": 0,
            "type": "noteOn",
            "noteNumber": 69,
            "velocity": 107
        },
        {
            "deltaTime": 0,
            "channel": 0,
            "type": "noteOn",
            "noteNumber": 81,
            "velocity": 118
        },
        {
            "deltaTime": 36,
            "channel": 0,
            "type": "noteOn",
            "noteNumber": 93,
            "velocity": 111
        },
        {
            "deltaTime": 243,
            "channel": 0,
            "type": "noteOn",
            "noteNumber": 79,
            "velocity": 89
        },
        {
            "deltaTime": 0,
            "channel": 0,
            "type": "noteOn",
            "noteNumber": 91,
            "velocity": 109
        },
        {
            "deltaTime": 4,
            "channel": 0,
            "type": "noteOff",
            "noteNumber": 93,
            "velocity": 0
        },
        {
            "deltaTime": 4,
            "channel": 0,
            "type": "noteOff",
            "noteNumber": 81,
            "velocity": 0
        },
        {
            "deltaTime": 279,
            "channel": 0,
            "type": "noteOff",
            "noteNumber": 91,
            "velocity": 0
        },
        {
            "deltaTime": 0,
            "channel": 0,
            "type": "noteOff",
            "noteNumber": 79,
            "velocity": 0
        },
        {
            "deltaTime": 3,
            "channel": 0,
            "type": "noteOn",
            "noteNumber": 87,
            "velocity": 112
        },
        {
            "deltaTime": 0,
            "channel": 0,
            "type": "noteOn",
            "noteNumber": 67,
            "velocity": 101
        },
        {
            "deltaTime": 0,
            "channel": 0,
            "type": "noteOn",
            "noteNumber": 55,
            "velocity": 90
        },
        {
            "deltaTime": 0,
            "channel": 0,
            "type": "noteOn",
            "noteNumber": 75,
            "velocity": 112
        },
        {
            "deltaTime": 4,
            "channel": 0,
            "type": "noteOff",
            "noteNumber": 60,
            "velocity": 0
        },
        {
            "deltaTime": 0,
            "channel": 0,
            "type": "noteOff",
            "noteNumber": 69,
            "velocity": 0
        },
        {
            "deltaTime": 0,
            "channel": 0,
            "type": "noteOff",
            "noteNumber": 51,
            "velocity": 0
        },
        {
            "deltaTime": 283,
            "channel": 0,
            "type": "noteOff",
            "noteNumber": 67,
            "velocity": 0
        },
        {
            "deltaTime": 0,
            "channel": 0,
            "type": "noteOff",
            "noteNumber": 55,
            "velocity": 0
        },
        {
            "deltaTime": 0,
            "channel": 0,
            "type": "noteOff",
            "noteNumber": 75,
            "velocity": 0
        },
        {
            "deltaTime": 0,
            "channel": 0,
            "type": "noteOff",
            "noteNumber": 87,
            "velocity": 0
        },
        {
            "deltaTime": 3,
            "channel": 0,
            "type": "noteOn",
            "noteNumber": 69,
            "velocity": 98
        },
        {
            "deltaTime": 0,
            "channel": 0,
            "type": "noteOn",
            "noteNumber": 81,
            "velocity": 98
        },
        {
            "deltaTime": 204,
            "channel": 0,
            "type": "noteOff",
            "noteNumber": 81,
            "velocity": 0
        },
        {
            "deltaTime": 4,
            "channel": 0,
            "type": "noteOff",
            "noteNumber": 69,
            "velocity": 0
        },
        {
            "deltaTime": 70,
            "channel": 0,
            "type": "noteOn",
            "noteNumber": 91,
            "velocity": 125
        },
        {
            "deltaTime": 0,
            "channel": 0,
            "type": "noteOn",
            "noteNumber": 37,
            "velocity": 103
        },
        {
            "deltaTime": 0,
            "channel": 0,
            "type": "noteOn",
            "noteNumber": 79,
            "velocity": 93
        },
        {
            "deltaTime": 0,
            "channel": 0,
            "type": "noteOn",
            "noteNumber": 49,
            "velocity": 103
        },
        {
            "deltaTime": 287,
            "channel": 0,
            "type": "noteOff",
            "noteNumber": 91,
            "velocity": 0
        },
        {
            "deltaTime": 283,
            "channel": 0,
            "type": "noteOn",
            "noteNumber": 80,
            "velocity": 108
        },
        {
            "deltaTime": 4,
            "channel": 0,
            "type": "noteOff",
            "noteNumber": 49,
            "velocity": 0
        },
        {
            "deltaTime": 0,
            "channel": 0,
            "type": "noteOff",
            "noteNumber": 37,
            "velocity": 0
        },
        {
            "deltaTime": 0,
            "channel": 0,
            "type": "noteOff",
            "noteNumber": 79,
            "velocity": 0
        },
        {
            "deltaTime": 7,
            "channel": 0,
            "type": "noteOn",
            "noteNumber": 64,
            "velocity": 90
        },
        {
            "deltaTime": 0,
            "channel": 0,
            "type": "noteOn",
            "noteNumber": 63,
            "velocity": 90
        },
        {
            "deltaTime": 0,
            "channel": 0,
            "type": "noteOn",
            "noteNumber": 68,
            "velocity": 108
        },
        {
            "deltaTime": 275,
            "channel": 0,
            "type": "noteOff",
            "noteNumber": 80,
            "velocity": 0
        },
        {
            "deltaTime": 12,
            "channel": 0,
            "type": "noteOff",
            "noteNumber": 68,
            "velocity": 0
        },
        {
            "deltaTime": 185,
            "channel": 0,
            "type": "noteOn",
            "noteNumber": 91,
            "velocity": 93
        },
        {
            "deltaTime": 97,
            "channel": 0,
            "type": "noteOn",
            "noteNumber": 92,
            "velocity": 101
        },
        {
            "deltaTime": 0,
            "channel": 0,
            "type": "noteOn",
            "noteNumber": 44,
            "velocity": 107
        },
        {
            "deltaTime": 4,
            "channel": 0,
            "type": "noteOff",
            "noteNumber": 64,
            "velocity": 0
        },
        {
            "deltaTime": 0,
            "channel": 0,
            "type": "noteOff",
            "noteNumber": 63,
            "velocity": 0
        },
        {
            "deltaTime": 80,
            "channel": 0,
            "type": "noteOff",
            "noteNumber": 91,
            "velocity": 0
        },
        {
            "deltaTime": 245,
            "channel": 0,
            "type": "noteOff",
            "noteNumber": 92,
            "velocity": 0
        },
        {
            "deltaTime": 16,
            "channel": 0,
            "type": "noteOff",
            "noteNumber": 44,
            "velocity": 0
        },
        {
            "deltaTime": 150,
            "channel": 0,
            "type": "noteOn",
            "noteNumber": 79,
            "velocity": 73
        },
        {
            "deltaTime": 48,
            "channel": 0,
            "type": "noteOn",
            "noteNumber": 91,
            "velocity": 91
        },
        {
            "deltaTime": 36,
            "channel": 0,
            "type": "noteOn",
            "noteNumber": 64,
            "velocity": 49
        },
        {
            "deltaTime": 0,
            "channel": 0,
            "type": "noteOn",
            "noteNumber": 68,
            "velocity": 49
        },
        {
            "deltaTime": 0,
            "channel": 0,
            "type": "noteOn",
            "noteNumber": 80,
            "velocity": 119
        },
        {
            "deltaTime": 49,
            "channel": 0,
            "type": "noteOff",
            "noteNumber": 79,
            "velocity": 0
        },
        {
            "deltaTime": 11,
            "channel": 0,
            "type": "noteOn",
            "noteNumber": 92,
            "velocity": 116
        },
        {
            "deltaTime": 37,
            "channel": 0,
            "type": "noteOff",
            "noteNumber": 91,
            "velocity": 0
        },
        {
            "deltaTime": 53,
            "channel": 0,
            "type": "noteOff",
            "noteNumber": 68,
            "velocity": 0
        },
        {
            "deltaTime": 0,
            "channel": 0,
            "type": "noteOff",
            "noteNumber": 64,
            "velocity": 0
        },
        {
            "deltaTime": 128,
            "channel": 0,
            "type": "noteOn",
            "noteNumber": 64,
            "velocity": 77
        },
        {
            "deltaTime": 0,
            "channel": 0,
            "type": "noteOn",
            "noteNumber": 68,
            "velocity": 77
        },
        {
            "deltaTime": 0,
            "channel": 0,
            "type": "noteOn",
            "noteNumber": 63,
            "velocity": 77
        },
        {
            "deltaTime": 174,
            "channel": 0,
            "type": "noteOff",
            "noteNumber": 92,
            "velocity": 0
        },
        {
            "deltaTime": 4,
            "channel": 0,
            "type": "noteOff",
            "noteNumber": 80,
            "velocity": 0
        },
        {
            "deltaTime": 109,
            "channel": 0,
            "type": "noteOff",
            "noteNumber": 63,
            "velocity": 0
        },
        {
            "deltaTime": 0,
            "channel": 0,
            "type": "noteOff",
            "noteNumber": 64,
            "velocity": 0
        },
        {
            "deltaTime": 0,
            "channel": 0,
            "type": "noteOff",
            "noteNumber": 68,
            "velocity": 0
        },
        {
            "deltaTime": 3,
            "channel": 0,
            "type": "noteOn",
            "noteNumber": 49,
            "velocity": 109
        },
        {
            "deltaTime": 291,
            "channel": 0,
            "type": "noteOn",
            "noteNumber": 87,
            "velocity": 97
        },
        {
            "deltaTime": 56,
            "channel": 0,
            "type": "noteOff",
            "noteNumber": 49,
            "velocity": 0
        },
        {
            "deltaTime": 223,
            "channel": 0,
            "type": "noteOn",
            "noteNumber": 56,
            "velocity": 90
        },
        {
            "deltaTime": 0,
            "channel": 0,
            "type": "noteOn",
            "noteNumber": 61,
            "velocity": 103
        },
        {
            "deltaTime": 0,
            "channel": 0,
            "type": "noteOn",
            "noteNumber": 85,
            "velocity": 83
        },
        {
            "deltaTime": 0,
            "channel": 0,
            "type": "noteOn",
            "noteNumber": 68,
            "velocity": 103
        },
        {
            "deltaTime": 0,
            "channel": 0,
            "type": "noteOn",
            "noteNumber": 64,
            "velocity": 103
        },
        {
            "deltaTime": 8,
            "channel": 0,
            "type": "noteOff",
            "noteNumber": 87,
            "velocity": 0
        },
        {
            "deltaTime": 226,
            "channel": 0,
            "type": "noteOff",
            "noteNumber": 68,
            "velocity": 0
        },
        {
            "deltaTime": 0,
            "channel": 0,
            "type": "noteOff",
            "noteNumber": 56,
            "velocity": 0
        },
        {
            "deltaTime": 0,
            "channel": 0,
            "type": "noteOff",
            "noteNumber": 61,
            "velocity": 0
        },
        {
            "deltaTime": 0,
            "channel": 0,
            "type": "noteOff",
            "noteNumber": 64,
            "velocity": 0
        },
        {
            "deltaTime": 52,
            "channel": 0,
            "type": "noteOff",
            "noteNumber": 85,
            "velocity": 0
        },
        {
            "deltaTime": 3,
            "channel": 0,
            "type": "noteOn",
            "noteNumber": 84,
            "velocity": 73
        },
        {
            "deltaTime": 243,
            "channel": 0,
            "type": "noteOn",
            "noteNumber": 79,
            "velocity": 38
        },
        {
            "deltaTime": 0,
            "channel": 0,
            "type": "noteOn",
            "noteNumber": 91,
            "velocity": 97
        },
        {
            "deltaTime": 45,
            "channel": 0,
            "type": "noteOff",
            "noteNumber": 84,
            "velocity": 0
        },
        {
            "deltaTime": 3,
            "channel": 0,
            "type": "noteOn",
            "noteNumber": 52,
            "velocity": 92
        },
        {
            "deltaTime": 0,
            "channel": 0,
            "type": "noteOn",
            "noteNumber": 73,
            "velocity": 94
        },
        {
            "deltaTime": 0,
            "channel": 0,
            "type": "noteOn",
            "noteNumber": 80,
            "velocity": 87
        },
        {
            "deltaTime": 0,
            "channel": 0,
            "type": "noteOn",
            "noteNumber": 92,
            "velocity": 108
        },
        {
            "deltaTime": 85,
            "channel": 0,
            "type": "noteOff",
            "noteNumber": 79,
            "velocity": 0
        },
        {
            "deltaTime": 0,
            "channel": 0,
            "type": "noteOff",
            "noteNumber": 91,
            "velocity": 0
        },
        {
            "deltaTime": 348,
            "channel": 0,
            "type": "noteOff",
            "noteNumber": 80,
            "velocity": 0
        },
        {
            "deltaTime": 0,
            "channel": 0,
            "type": "noteOff",
            "noteNumber": 92,
            "velocity": 0
        },
        {
            "deltaTime": 136,
            "channel": 0,
            "type": "noteOn",
            "noteNumber": 64,
            "velocity": 100
        },
        {
            "deltaTime": 0,
            "channel": 0,
            "type": "noteOn",
            "noteNumber": 80,
            "velocity": 99
        },
        {
            "deltaTime": 0,
            "channel": 0,
            "type": "noteOn",
            "noteNumber": 68,
            "velocity": 100
        },
        {
            "deltaTime": 0,
            "channel": 0,
            "type": "noteOn",
            "noteNumber": 61,
            "velocity": 100
        },
        {
            "deltaTime": 0,
            "channel": 0,
            "type": "noteOn",
            "noteNumber": 51,
            "velocity": 74
        },
        {
            "deltaTime": 4,
            "channel": 0,
            "type": "noteOff",
            "noteNumber": 73,
            "velocity": 0
        },
        {
            "deltaTime": 0,
            "channel": 0,
            "type": "noteOff",
            "noteNumber": 52,
            "velocity": 0
        },
        {
            "deltaTime": 283,
            "channel": 0,
            "type": "noteOff",
            "noteNumber": 61,
            "velocity": 0
        },
        {
            "deltaTime": 0,
            "channel": 0,
            "type": "noteOff",
            "noteNumber": 64,
            "velocity": 0
        },
        {
            "deltaTime": 0,
            "channel": 0,
            "type": "noteOff",
            "noteNumber": 80,
            "velocity": 0
        },
        {
            "deltaTime": 0,
            "channel": 0,
            "type": "noteOff",
            "noteNumber": 68,
            "velocity": 0
        },
        {
            "deltaTime": 59,
            "channel": 0,
            "type": "noteOff",
            "noteNumber": 51,
            "velocity": 0
        },
        {
            "deltaTime": 235,
            "channel": 0,
            "type": "noteOn",
            "noteNumber": 32,
            "velocity": 94
        },
        {
            "deltaTime": 0,
            "channel": 0,
            "type": "noteOn",
            "noteNumber": 83,
            "velocity": 111
        },
        {
            "deltaTime": 0,
            "channel": 0,
            "type": "noteOn",
            "noteNumber": 44,
            "velocity": 94
        },
        {
            "deltaTime": 279,
            "channel": 0,
            "type": "noteOn",
            "noteNumber": 95,
            "velocity": 81
        },
        {
            "deltaTime": 152,
            "channel": 0,
            "type": "noteOff",
            "noteNumber": 83,
            "velocity": 0
        },
        {
            "deltaTime": 135,
            "channel": 0,
            "type": "noteOff",
            "noteNumber": 95,
            "velocity": 0
        },
        {
            "deltaTime": 3,
            "channel": 0,
            "type": "noteOn",
            "noteNumber": 67,
            "velocity": 99
        },
        {
            "deltaTime": 0,
            "channel": 0,
            "type": "noteOn",
            "noteNumber": 60,
            "velocity": 73
        },
        {
            "deltaTime": 0,
            "channel": 0,
            "type": "noteOn",
            "noteNumber": 63,
            "velocity": 73
        },
        {
            "deltaTime": 0,
            "channel": 0,
            "type": "noteOn",
            "noteNumber": 81,
            "velocity": 95
        },
        {
            "deltaTime": 4,
            "channel": 0,
            "type": "noteOff",
            "noteNumber": 32,
            "velocity": 0
        },
        {
            "deltaTime": 0,
            "channel": 0,
            "type": "noteOff",
            "noteNumber": 44,
            "velocity": 0
        },
        {
            "deltaTime": 134,
            "channel": 0,
            "type": "noteOff",
            "noteNumber": 67,
            "velocity": 0
        },
        {
            "deltaTime": 0,
            "channel": 0,
            "type": "noteOff",
            "noteNumber": 60,
            "velocity": 0
        },
        {
            "deltaTime": 0,
            "channel": 0,
            "type": "noteOff",
            "noteNumber": 63,
            "velocity": 0
        },
        {
            "deltaTime": 152,
            "channel": 0,
            "type": "noteOn",
            "noteNumber": 93,
            "velocity": 105
        },
        {
            "deltaTime": 0,
            "channel": 0,
            "type": "noteOn",
            "noteNumber": 67,
            "velocity": 99
        },
        {
            "deltaTime": 0,
            "channel": 0,
            "type": "noteOn",
            "noteNumber": 63,
            "velocity": 90
        },
        {
            "deltaTime": 0,
            "channel": 0,
            "type": "noteOn",
            "noteNumber": 57,
            "velocity": 90
        },
        {
            "deltaTime": 140,
            "channel": 0,
            "type": "noteOff",
            "noteNumber": 81,
            "velocity": 0
        },
        {
            "deltaTime": 139,
            "channel": 0,
            "type": "noteOn",
            "noteNumber": 51,
            "velocity": 90
        },
        {
            "deltaTime": 0,
            "channel": 0,
            "type": "noteOn",
            "noteNumber": 79,
            "velocity": 108
        },
        {
            "deltaTime": 8,
            "channel": 0,
            "type": "noteOff",
            "noteNumber": 67,
            "velocity": 0
        },
        {
            "deltaTime": 0,
            "channel": 0,
            "type": "noteOff",
            "noteNumber": 63,
            "velocity": 0
        },
        {
            "deltaTime": 0,
            "channel": 0,
            "type": "noteOff",
            "noteNumber": 57,
            "velocity": 0
        },
        {
            "deltaTime": 0,
            "channel": 0,
            "type": "noteOff",
            "noteNumber": 93,
            "velocity": 0
        },
        {
            "deltaTime": 15,
            "channel": 0,
            "type": "noteOn",
            "noteNumber": 91,
            "velocity": 108
        },
        {
            "deltaTime": 150,
            "channel": 0,
            "type": "noteOff",
            "noteNumber": 79,
            "velocity": 0
        },
        {
            "deltaTime": 36,
            "channel": 0,
            "type": "noteOff",
            "noteNumber": 91,
            "velocity": 0
        },
        {
            "deltaTime": 76,
            "channel": 0,
            "type": "noteOff",
            "noteNumber": 51,
            "velocity": 0
        },
        {
            "deltaTime": 295,
            "channel": 0,
            "type": "noteOn",
            "noteNumber": 63,
            "velocity": 118
        },
        {
            "deltaTime": 0,
            "channel": 0,
            "type": "noteOn",
            "noteNumber": 57,
            "velocity": 118
        },
        {
            "deltaTime": 0,
            "channel": 0,
            "type": "noteOn",
            "noteNumber": 66,
            "velocity": 118
        },
        {
            "deltaTime": 0,
            "channel": 0,
            "type": "noteOn",
            "noteNumber": 80,
            "velocity": 119
        },
        {
            "deltaTime": 0,
            "channel": 0,
            "type": "noteOn",
            "noteNumber": 72,
            "velocity": 118
        },
        {
            "deltaTime": 0,
            "channel": 0,
            "type": "noteOn",
            "noteNumber": 92,
            "velocity": 119
        },
        {
            "deltaTime": 287,
            "channel": 0,
            "type": "noteOff",
            "noteNumber": 80,
            "velocity": 0
        },
        {
            "deltaTime": 0,
            "channel": 0,
            "type": "noteOff",
            "noteNumber": 92,
            "velocity": 0
        },
        {
            "deltaTime": 15,
            "channel": 0,
            "type": "noteOn",
            "noteNumber": 84,
            "velocity": 49
        },
        {
            "deltaTime": 266,
            "channel": 0,
            "type": "noteOff",
            "noteNumber": 84,
            "velocity": 0
        },
        {
            "deltaTime": 0,
            "channel": 0,
            "type": "noteOn",
            "noteNumber": 48,
            "velocity": 101
        },
        {
            "deltaTime": 0,
            "channel": 0,
            "type": "noteOn",
            "noteNumber": 78,
            "velocity": 68
        },
        {
            "deltaTime": 0,
            "channel": 0,
            "type": "noteOn",
            "noteNumber": 36,
            "velocity": 101
        },
        {
            "deltaTime": 4,
            "channel": 0,
            "type": "noteOff",
            "noteNumber": 72,
            "velocity": 0
        },
        {
            "deltaTime": 0,
            "channel": 0,
            "type": "noteOff",
            "noteNumber": 63,
            "velocity": 0
        },
        {
            "deltaTime": 0,
            "channel": 0,
            "type": "noteOff",
            "noteNumber": 66,
            "velocity": 0
        },
        {
            "deltaTime": 0,
            "channel": 0,
            "type": "noteOff",
            "noteNumber": 57,
            "velocity": 0
        },
        {
            "deltaTime": 261,
            "channel": 0,
            "type": "noteOff",
            "noteNumber": 78,
            "velocity": 0
        },
        {
            "deltaTime": 25,
            "channel": 0,
            "type": "noteOn",
            "noteNumber": 92,
            "velocity": 91
        },
        {
            "deltaTime": 266,
            "channel": 0,
            "type": "noteOff",
            "noteNumber": 92,
            "velocity": 0
        },
        {
            "deltaTime": 17,
            "channel": 0,
            "type": "noteOff",
            "noteNumber": 36,
            "velocity": 0
        },
        {
            "deltaTime": 0,
            "channel": 0,
            "type": "noteOff",
            "noteNumber": 48,
            "velocity": 0
        },
        {
            "deltaTime": 7,
            "channel": 0,
            "type": "noteOn",
            "noteNumber": 66,
            "velocity": 84
        },
        {
            "deltaTime": 0,
            "channel": 0,
            "type": "noteOn",
            "noteNumber": 60,
            "velocity": 84
        },
        {
            "deltaTime": 0,
            "channel": 0,
            "type": "noteOn",
            "noteNumber": 90,
            "velocity": 78
        },
        {
            "deltaTime": 279,
            "channel": 0,
            "type": "noteOn",
            "noteNumber": 87,
            "velocity": 88
        },
        {
            "deltaTime": 8,
            "channel": 0,
            "type": "noteOff",
            "noteNumber": 90,
            "velocity": 0
        },
        {
            "deltaTime": 0,
            "channel": 0,
            "type": "noteOff",
            "noteNumber": 60,
            "velocity": 0
        },
        {
            "deltaTime": 0,
            "channel": 0,
            "type": "noteOff",
            "noteNumber": 66,
            "velocity": 0
        },
        {
            "deltaTime": 279,
            "channel": 0,
            "type": "noteOff",
            "noteNumber": 87,
            "velocity": 0
        },
        {
            "deltaTime": 3,
            "channel": 0,
            "type": "noteOn",
            "noteNumber": 44,
            "velocity": 112
        },
        {
            "deltaTime": 0,
            "channel": 0,
            "type": "noteOn",
            "noteNumber": 84,
            "velocity": 111
        },
        {
            "deltaTime": 287,
            "channel": 0,
            "type": "noteOff",
            "noteNumber": 44,
            "velocity": 0
        },
        {
            "deltaTime": 0,
            "channel": 0,
            "type": "noteOff",
            "noteNumber": 84,
            "velocity": 0
        },
        {
            "deltaTime": 3,
            "channel": 0,
            "type": "noteOn",
            "noteNumber": 80,
            "velocity": 84
        },
        {
            "deltaTime": 279,
            "channel": 0,
            "type": "noteOn",
            "noteNumber": 68,
            "velocity": 99
        },
        {
            "deltaTime": 0,
            "channel": 0,
            "type": "noteOn",
            "noteNumber": 81,
            "velocity": 113
        },
        {
            "deltaTime": 0,
            "channel": 0,
            "type": "noteOn",
            "noteNumber": 60,
            "velocity": 99
        },
        {
            "deltaTime": 0,
            "channel": 0,
            "type": "noteOn",
            "noteNumber": 66,
            "velocity": 99
        },
        {
            "deltaTime": 8,
            "channel": 0,
            "type": "noteOff",
            "noteNumber": 80,
            "velocity": 0
        },
        {
            "deltaTime": 279,
            "channel": 0,
            "type": "noteOff",
            "noteNumber": 60,
            "velocity": 0
        },
        {
            "deltaTime": 0,
            "channel": 0,
            "type": "noteOff",
            "noteNumber": 68,
            "velocity": 0
        },
        {
            "deltaTime": 0,
            "channel": 0,
            "type": "noteOff",
            "noteNumber": 66,
            "velocity": 0
        },
        {
            "deltaTime": 0,
            "channel": 0,
            "type": "noteOff",
            "noteNumber": 81,
            "velocity": 0
        },
        {
            "deltaTime": 3,
            "channel": 0,
            "type": "noteOn",
            "noteNumber": 75,
            "velocity": 91
        },
        {
            "deltaTime": 158,
            "channel": 0,
            "type": "noteOff",
            "noteNumber": 75,
            "velocity": 0
        },
        {
            "deltaTime": 84,
            "channel": 0,
            "type": "noteOn",
            "noteNumber": 79,
            "velocity": 86
        },
        {
            "deltaTime": 48,
            "channel": 0,
            "type": "noteOn",
            "noteNumber": 49,
            "velocity": 98
        },
        {
            "deltaTime": 0,
            "channel": 0,
            "type": "noteOn",
            "noteNumber": 37,
            "velocity": 98
        },
        {
            "deltaTime": 0,
            "channel": 0,
            "type": "noteOn",
            "noteNumber": 80,
            "velocity": 109
        },
        {
            "deltaTime": 85,
            "channel": 0,
            "type": "noteOff",
            "noteNumber": 79,
            "velocity": 0
        },
        {
            "deltaTime": 485,
            "channel": 0,
            "type": "noteOn",
            "noteNumber": 63,
            "velocity": 59
        },
        {
            "deltaTime": 0,
            "channel": 0,
            "type": "noteOn",
            "noteNumber": 64,
            "velocity": 59
        },
        {
            "deltaTime": 0,
            "channel": 0,
            "type": "noteOn",
            "noteNumber": 61,
            "velocity": 59
        },
        {
            "deltaTime": 4,
            "channel": 0,
            "type": "noteOff",
            "noteNumber": 80,
            "velocity": 0
        },
        {
            "deltaTime": 0,
            "channel": 0,
            "type": "noteOff",
            "noteNumber": 37,
            "velocity": 0
        },
        {
            "deltaTime": 0,
            "channel": 0,
            "type": "noteOff",
            "noteNumber": 49,
            "velocity": 0
        },
        {
            "deltaTime": 505,
            "channel": 0,
            "type": "noteOn",
            "noteNumber": 79,
            "velocity": 91
        },
        {
            "deltaTime": 24,
            "channel": 0,
            "type": "noteOn",
            "noteNumber": 67,
            "velocity": 79
        },
        {
            "deltaTime": 48,
            "channel": 0,
            "type": "noteOn",
            "noteNumber": 68,
            "velocity": 114
        },
        {
            "deltaTime": 0,
            "channel": 0,
            "type": "noteOn",
            "noteNumber": 80,
            "velocity": 113
        },
        {
            "deltaTime": 0,
            "channel": 0,
            "type": "noteOn",
            "noteNumber": 44,
            "velocity": 66
        },
        {
            "deltaTime": 76,
            "channel": 0,
            "type": "noteOff",
            "noteNumber": 67,
            "velocity": 0
        },
        {
            "deltaTime": 52,
            "channel": 0,
            "type": "noteOff",
            "noteNumber": 79,
            "velocity": 0
        },
        {
            "deltaTime": 152,
            "channel": 0,
            "type": "noteOff",
            "noteNumber": 61,
            "velocity": 0
        },
        {
            "deltaTime": 0,
            "channel": 0,
            "type": "noteOff",
            "noteNumber": 64,
            "velocity": 0
        },
        {
            "deltaTime": 0,
            "channel": 0,
            "type": "noteOff",
            "noteNumber": 63,
            "velocity": 0
        },
        {
            "deltaTime": 50,
            "channel": 0,
            "type": "noteOff",
            "noteNumber": 80,
            "velocity": 0
        },
        {
            "deltaTime": 16,
            "channel": 0,
            "type": "noteOff",
            "noteNumber": 44,
            "velocity": 0
        },
        {
            "deltaTime": 76,
            "channel": 0,
            "type": "noteOff",
            "noteNumber": 68,
            "velocity": 0
        },
        {
            "deltaTime": 121,
            "channel": 0,
            "type": "noteOn",
            "noteNumber": 84,
            "velocity": 79
        },
        {
            "deltaTime": 24,
            "channel": 0,
            "type": "noteOn",
            "noteNumber": 68,
            "velocity": 96
        },
        {
            "deltaTime": 0,
            "channel": 0,
            "type": "noteOn",
            "noteNumber": 73,
            "velocity": 109
        },
        {
            "deltaTime": 0,
            "channel": 0,
            "type": "noteOn",
            "noteNumber": 63,
            "velocity": 96
        },
        {
            "deltaTime": 24,
            "channel": 0,
            "type": "noteOn",
            "noteNumber": 85,
            "velocity": 109
        },
        {
            "deltaTime": 85,
            "channel": 0,
            "type": "noteOff",
            "noteNumber": 84,
            "velocity": 0
        },
        {
            "deltaTime": 41,
            "channel": 0,
            "type": "noteOff",
            "noteNumber": 63,
            "velocity": 0
        },
        {
            "deltaTime": 0,
            "channel": 0,
            "type": "noteOff",
            "noteNumber": 68,
            "velocity": 0
        },
        {
            "deltaTime": 136,
            "channel": 0,
            "type": "noteOff",
            "noteNumber": 73,
            "velocity": 0
        },
        {
            "deltaTime": 3,
            "channel": 0,
            "type": "noteOn",
            "noteNumber": 84,
            "velocity": 108
        },
        {
            "deltaTime": 0,
            "channel": 0,
            "type": "noteOn",
            "noteNumber": 49,
            "velocity": 102
        },
        {
            "deltaTime": 0,
            "channel": 0,
            "type": "noteOn",
            "noteNumber": 64,
            "velocity": 103
        },
        {
            "deltaTime": 20,
            "channel": 0,
            "type": "noteOff",
            "noteNumber": 85,
            "velocity": 0
        },
        {
            "deltaTime": 125,
            "channel": 0,
            "type": "noteOn",
            "noteNumber": 82,
            "velocity": 95
        },
        {
            "deltaTime": 12,
            "channel": 0,
            "type": "noteOff",
            "noteNumber": 84,
            "velocity": 0
        },
        {
            "deltaTime": 60,
            "channel": 0,
            "type": "noteOn",
            "noteNumber": 80,
            "velocity": 91
        },
        {
            "deltaTime": 54,
            "channel": 0,
            "type": "noteOff",
            "noteNumber": 82,
            "velocity": 0
        },
        {
            "deltaTime": 6,
            "channel": 0,
            "type": "noteOn",
            "noteNumber": 44,
            "velocity": 112
        },
        {
            "deltaTime": 0,
            "channel": 0,
            "type": "noteOn",
            "noteNumber": 56,
            "velocity": 98
        },
        {
            "deltaTime": 8,
            "channel": 0,
            "type": "noteOff",
            "noteNumber": 64,
            "velocity": 0
        },
        {
            "deltaTime": 0,
            "channel": 0,
            "type": "noteOff",
            "noteNumber": 49,
            "velocity": 0
        },
        {
            "deltaTime": 3,
            "channel": 0,
            "type": "noteOn",
            "noteNumber": 79,
            "velocity": 87
        },
        {
            "deltaTime": 60,
            "channel": 0,
            "type": "noteOn",
            "noteNumber": 77,
            "velocity": 83
        },
        {
            "deltaTime": 0,
            "channel": 0,
            "type": "noteOff",
            "noteNumber": 80,
            "velocity": 0
        },
        {
            "deltaTime": 22,
            "channel": 0,
            "type": "noteOff",
            "noteNumber": 56,
            "velocity": 0
        },
        {
            "deltaTime": 37,
            "channel": 0,
            "type": "noteOn",
            "noteNumber": 75,
            "velocity": 93
        },
        {
            "deltaTime": 0,
            "channel": 0,
            "type": "noteOff",
            "noteNumber": 79,
            "velocity": 0
        },
        {
            "deltaTime": 45,
            "channel": 0,
            "type": "noteOff",
            "noteNumber": 44,
            "velocity": 0
        },
        {
            "deltaTime": 27,
            "channel": 0,
            "type": "noteOff",
            "noteNumber": 77,
            "velocity": 0
        },
        {
            "deltaTime": 11,
            "channel": 0,
            "type": "noteOn",
            "noteNumber": 73,
            "velocity": 87
        },
        {
            "deltaTime": 42,
            "channel": 0,
            "type": "noteOff",
            "noteNumber": 75,
            "velocity": 0
        },
        {
            "deltaTime": 30,
            "channel": 0,
            "type": "noteOn",
            "noteNumber": 40,
            "velocity": 122
        },
        {
            "deltaTime": 0,
            "channel": 0,
            "type": "noteOn",
            "noteNumber": 52,
            "velocity": 109
        },
        {
            "deltaTime": 12,
            "channel": 0,
            "type": "noteOn",
            "noteNumber": 72,
            "velocity": 74
        },
        {
            "deltaTime": 27,
            "channel": 0,
            "type": "noteOff",
            "noteNumber": 73,
            "velocity": 0
        },
        {
            "deltaTime": 56,
            "channel": 0,
            "type": "noteOff",
            "noteNumber": 52,
            "velocity": 0
        },
        {
            "deltaTime": 33,
            "channel": 0,
            "type": "noteOff",
            "noteNumber": 72,
            "velocity": 0
        },
        {
            "deltaTime": 28,
            "channel": 0,
            "type": "noteOff",
            "noteNumber": 40,
            "velocity": 0
        },
        {
            "deltaTime": 133,
            "channel": 0,
            "type": "noteOn",
            "noteNumber": 39,
            "velocity": 115
        },
        {
            "deltaTime": 0,
            "channel": 0,
            "type": "noteOn",
            "noteNumber": 73,
            "velocity": 111
        },
        {
            "deltaTime": 0,
            "channel": 0,
            "type": "noteOn",
            "noteNumber": 69,
            "velocity": 121
        },
        {
            "deltaTime": 0,
            "channel": 0,
            "type": "noteOn",
            "noteNumber": 51,
            "velocity": 115
        },
        {
            "deltaTime": 0,
            "channel": 0,
            "type": "noteOn",
            "noteNumber": 56,
            "velocity": 111
        },
        {
            "deltaTime": 0,
            "channel": 0,
            "type": "noteOn",
            "noteNumber": 78,
            "velocity": 115
        },
        {
            "deltaTime": 211,
            "channel": 0,
            "type": "noteOff",
            "noteNumber": 78,
            "velocity": 0
        },
        {
            "deltaTime": 64,
            "channel": 0,
            "type": "noteOff",
            "noteNumber": 56,
            "velocity": 0
        },
        {
            "deltaTime": 12,
            "channel": 0,
            "type": "noteOff",
            "noteNumber": 51,
            "velocity": 0
        },
        {
            "deltaTime": 0,
            "channel": 0,
            "type": "noteOff",
            "noteNumber": 39,
            "velocity": 0
        },
        {
            "deltaTime": 3,
            "channel": 0,
            "type": "noteOn",
            "noteNumber": 66,
            "velocity": 87
        },
        {
            "deltaTime": 5,
            "channel": 0,
            "type": "noteOff",
            "noteNumber": 69,
            "velocity": 0
        },
        {
            "deltaTime": 12,
            "channel": 0,
            "type": "noteOff",
            "noteNumber": 73,
            "velocity": 0
        },
        {
            "deltaTime": 212,
            "channel": 0,
            "type": "noteOn",
            "noteNumber": 78,
            "velocity": 99
        },
        {
            "deltaTime": 36,
            "channel": 0,
            "type": "noteOn",
            "noteNumber": 68,
            "velocity": 117
        },
        {
            "deltaTime": 12,
            "channel": 0,
            "type": "noteOn",
            "noteNumber": 80,
            "velocity": 113
        },
        {
            "deltaTime": 0,
            "channel": 0,
            "type": "noteOn",
            "noteNumber": 52,
            "velocity": 64
        },
        {
            "deltaTime": 8,
            "channel": 0,
            "type": "noteOff",
            "noteNumber": 66,
            "velocity": 0
        },
        {
            "deltaTime": 77,
            "channel": 0,
            "type": "noteOff",
            "noteNumber": 78,
            "velocity": 0
        },
        {
            "deltaTime": 202,
            "channel": 0,
            "type": "noteOff",
            "noteNumber": 80,
            "velocity": 0
        },
        {
            "deltaTime": 3,
            "channel": 0,
            "type": "noteOn",
            "noteNumber": 76,
            "velocity": 83
        },
        {
            "deltaTime": 5,
            "channel": 0,
            "type": "noteOff",
            "noteNumber": 68,
            "velocity": 0
        },
        {
            "deltaTime": 278,
            "channel": 0,
            "type": "noteOff",
            "noteNumber": 52,
            "velocity": 0
        },
        {
            "deltaTime": 3,
            "channel": 0,
            "type": "noteOff",
            "noteNumber": 76,
            "velocity": 0
        },
        {
            "deltaTime": 3,
            "channel": 0,
            "type": "noteOn",
            "noteNumber": 44,
            "velocity": 68
        },
        {
            "deltaTime": 0,
            "channel": 0,
            "type": "noteOn",
            "noteNumber": 73,
            "velocity": 117
        },
        {
            "deltaTime": 0,
            "channel": 0,
            "type": "noteOn",
            "noteNumber": 61,
            "velocity": 89
        },
        {
            "deltaTime": 279,
            "channel": 0,
            "type": "noteOn",
            "noteNumber": 68,
            "velocity": 92
        },
        {
            "deltaTime": 8,
            "channel": 0,
            "type": "noteOff",
            "noteNumber": 44,
            "velocity": 0
        },
        {
            "deltaTime": 0,
            "channel": 0,
            "type": "noteOff",
            "noteNumber": 61,
            "velocity": 0
        },
        {
            "deltaTime": 21,
            "channel": 0,
            "type": "noteOff",
            "noteNumber": 73,
            "velocity": 0
        },
        {
            "deltaTime": 257,
            "channel": 0,
            "type": "noteOff",
            "noteNumber": 68,
            "velocity": 0
        },
        {
            "deltaTime": 3,
            "channel": 0,
            "type": "noteOn",
            "noteNumber": 60,
            "velocity": 87
        },
        {
            "deltaTime": 0,
            "channel": 0,
            "type": "noteOn",
            "noteNumber": 54,
            "velocity": 106
        },
        {
            "deltaTime": 0,
            "channel": 0,
            "type": "noteOn",
            "noteNumber": 32,
            "velocity": 89
        },
        {
            "deltaTime": 0,
            "channel": 0,
            "type": "noteOn",
            "noteNumber": 64,
            "velocity": 106
        },
        {
            "deltaTime": 287,
            "channel": 0,
            "type": "noteOff",
            "noteNumber": 60,
            "velocity": 0
        },
        {
            "deltaTime": 0,
            "channel": 0,
            "type": "noteOff",
            "noteNumber": 64,
            "velocity": 0
        },
        {
            "deltaTime": 3,
            "channel": 0,
            "type": "noteOn",
            "noteNumber": 76,
            "velocity": 97
        },
        {
            "deltaTime": 1,
            "channel": 0,
            "type": "noteOff",
            "noteNumber": 54,
            "velocity": 0
        },
        {
            "deltaTime": 283,
            "channel": 0,
            "type": "noteOff",
            "noteNumber": 32,
            "velocity": 0
        },
        {
            "deltaTime": 3,
            "channel": 0,
            "type": "noteOff",
            "noteNumber": 76,
            "velocity": 0
        },
        {
            "deltaTime": 3,
            "channel": 0,
            "type": "noteOn",
            "noteNumber": 72,
            "velocity": 71
        },
        {
            "deltaTime": 0,
            "channel": 0,
            "type": "noteOn",
            "noteNumber": 60,
            "velocity": 71
        },
        {
            "deltaTime": 0,
            "channel": 0,
            "type": "noteOn",
            "noteNumber": 68,
            "velocity": 75
        },
        {
            "deltaTime": 0,
            "channel": 0,
            "type": "noteOn",
            "noteNumber": 48,
            "velocity": 74
        },
        {
            "deltaTime": 0,
            "channel": 0,
            "type": "noteOn",
            "noteNumber": 44,
            "velocity": 74
        },
        {
            "deltaTime": 225,
            "channel": 0,
            "type": "noteOff",
            "noteNumber": 60,
            "velocity": 0
        },
        {
            "deltaTime": 0,
            "channel": 0,
            "type": "noteOff",
            "noteNumber": 72,
            "velocity": 0
        },
        {
            "deltaTime": 26,
            "channel": 0,
            "type": "noteOff",
            "noteNumber": 68,
            "velocity": 0
        },
        {
            "deltaTime": 27,
            "channel": 0,
            "type": "noteOn",
            "noteNumber": 75,
            "velocity": 98
        },
        {
            "deltaTime": 8,
            "channel": 0,
            "type": "noteOff",
            "noteNumber": 48,
            "velocity": 0
        },
        {
            "deltaTime": 0,
            "channel": 0,
            "type": "noteOff",
            "noteNumber": 44,
            "velocity": 0
        },
        {
            "deltaTime": 130,
            "channel": 0,
            "type": "noteOff",
            "noteNumber": 75,
            "velocity": 0
        },
        {
            "deltaTime": 152,
            "channel": 0,
            "type": "noteOn",
            "noteNumber": 56,
            "velocity": 97
        },
        {
            "deltaTime": 0,
            "channel": 0,
            "type": "noteOn",
            "noteNumber": 39,
            "velocity": 71
        },
        {
            "deltaTime": 0,
            "channel": 0,
            "type": "noteOn",
            "noteNumber": 68,
            "velocity": 97
        },
        {
            "deltaTime": 0,
            "channel": 0,
            "type": "noteOn",
            "noteNumber": 66,
            "velocity": 95
        },
        {
            "deltaTime": 287,
            "channel": 0,
            "type": "noteOff",
            "noteNumber": 68,
            "velocity": 0
        },
        {
            "deltaTime": 0,
            "channel": 0,
            "type": "noteOff",
            "noteNumber": 66,
            "velocity": 0
        },
        {
            "deltaTime": 0,
            "channel": 0,
            "type": "noteOff",
            "noteNumber": 39,
            "velocity": 0
        },
        {
            "deltaTime": 0,
            "channel": 0,
            "type": "noteOff",
            "noteNumber": 56,
            "velocity": 0
        },
        {
            "deltaTime": 3,
            "channel": 0,
            "type": "noteOn",
            "noteNumber": 73,
            "velocity": 92
        },
        {
            "deltaTime": 139,
            "channel": 0,
            "type": "noteOff",
            "noteNumber": 73,
            "velocity": 0
        },
        {
            "deltaTime": 140,
            "channel": 0,
            "type": "noteOn",
            "noteNumber": 54,
            "velocity": 112
        },
        {
            "deltaTime": 0,
            "channel": 0,
            "type": "noteOn",
            "noteNumber": 66,
            "velocity": 112
        },
        {
            "deltaTime": 0,
            "channel": 0,
            "type": "noteOn",
            "noteNumber": 48,
            "velocity": 74
        },
        {
            "deltaTime": 0,
            "channel": 0,
            "type": "noteOn",
            "noteNumber": 72,
            "velocity": 87
        },
        {
            "deltaTime": 0,
            "channel": 0,
            "type": "noteOn",
            "noteNumber": 63,
            "velocity": 91
        },
        {
            "deltaTime": 0,
            "channel": 0,
            "type": "noteOn",
            "noteNumber": 44,
            "velocity": 74
        },
        {
            "deltaTime": 151,
            "channel": 0,
            "type": "noteOff",
            "noteNumber": 44,
            "velocity": 0
        },
        {
            "deltaTime": 0,
            "channel": 0,
            "type": "noteOff",
            "noteNumber": 48,
            "velocity": 0
        },
        {
            "deltaTime": 140,
            "channel": 0,
            "type": "noteOn",
            "noteNumber": 44,
            "velocity": 92
        },
        {
            "deltaTime": 0,
            "channel": 0,
            "type": "noteOn",
            "noteNumber": 48,
            "velocity": 92
        },
        {
            "deltaTime": 151,
            "channel": 0,
            "type": "noteOff",
            "noteNumber": 44,
            "velocity": 0
        },
        {
            "deltaTime": 0,
            "channel": 0,
            "type": "noteOff",
            "noteNumber": 48,
            "velocity": 0
        },
        {
            "deltaTime": 140,
            "channel": 0,
            "type": "noteOn",
            "noteNumber": 36,
            "velocity": 88
        },
        {
            "deltaTime": 280,
            "channel": 0,
            "type": "noteOff",
            "noteNumber": 66,
            "velocity": 0
        },
        {
            "deltaTime": 0,
            "channel": 0,
            "type": "noteOff",
            "noteNumber": 72,
            "velocity": 0
        },
        {
            "deltaTime": 0,
            "channel": 0,
            "type": "noteOff",
            "noteNumber": 63,
            "velocity": 0
        },
        {
            "deltaTime": 0,
            "channel": 0,
            "type": "noteOff",
            "noteNumber": 54,
            "velocity": 0
        },
        {
            "deltaTime": 7,
            "channel": 0,
            "type": "noteOff",
            "noteNumber": 36,
            "velocity": 0
        },
        {
            "deltaTime": 283,
            "channel": 0,
            "type": "noteOn",
            "noteNumber": 42,
            "velocity": 74
        },
        {
            "deltaTime": 0,
            "channel": 0,
            "type": "noteOn",
            "noteNumber": 60,
            "velocity": 82
        },
        {
            "deltaTime": 0,
            "channel": 0,
            "type": "noteOn",
            "noteNumber": 48,
            "velocity": 74
        },
        {
            "deltaTime": 287,
            "channel": 0,
            "type": "noteOff",
            "noteNumber": 42,
            "velocity": 0
        },
        {
            "deltaTime": 0,
            "channel": 0,
            "type": "noteOff",
            "noteNumber": 48,
            "velocity": 0
        },
        {
            "deltaTime": 287,
            "channel": 0,
            "type": "noteOff",
            "noteNumber": 60,
            "velocity": 0
        },
        {
            "deltaTime": 7,
            "channel": 0,
            "type": "noteOn",
            "noteNumber": 73,
            "velocity": 101
        },
        {
            "deltaTime": 0,
            "channel": 0,
            "type": "noteOn",
            "noteNumber": 44,
            "velocity": 98
        },
        {
            "deltaTime": 218,
            "channel": 0,
            "type": "noteOff",
            "noteNumber": 73,
            "velocity": 0
        },
        {
            "deltaTime": 61,
            "channel": 0,
            "type": "noteOn",
            "noteNumber": 68,
            "velocity": 71
        },
        {
            "deltaTime": 8,
            "channel": 0,
            "type": "noteOff",
            "noteNumber": 44,
            "velocity": 0
        },
        {
            "deltaTime": 279,
            "channel": 0,
            "type": "noteOff",
            "noteNumber": 68,
            "velocity": 0
        },
        {
            "deltaTime": 3,
            "channel": 0,
            "type": "noteOn",
            "noteNumber": 75,
            "velocity": 96
        },
        {
            "deltaTime": 0,
            "channel": 0,
            "type": "noteOn",
            "noteNumber": 60,
            "velocity": 85
        },
        {
            "deltaTime": 0,
            "channel": 0,
            "type": "noteOn",
            "noteNumber": 54,
            "velocity": 74
        },
        {
            "deltaTime": 287,
            "channel": 0,
            "type": "noteOff",
            "noteNumber": 54,
            "velocity": 0
        },
        {
            "deltaTime": 0,
            "channel": 0,
            "type": "noteOff",
            "noteNumber": 60,
            "velocity": 0
        },
        {
            "deltaTime": 0,
            "channel": 0,
            "type": "noteOff",
            "noteNumber": 75,
            "velocity": 0
        },
        {
            "deltaTime": 3,
            "channel": 0,
            "type": "noteOn",
            "noteNumber": 72,
            "velocity": 84
        },
        {
            "deltaTime": 191,
            "channel": 0,
            "type": "noteOff",
            "noteNumber": 72,
            "velocity": 0
        },
        {
            "deltaTime": 87,
            "channel": 0,
            "type": "noteOn",
            "noteNumber": 76,
            "velocity": 123
        },
        {
            "deltaTime": 0,
            "channel": 0,
            "type": "noteOn",
            "noteNumber": 45,
            "velocity": 125
        },
        {
            "deltaTime": 0,
            "channel": 0,
            "type": "noteOn",
            "noteNumber": 73,
            "velocity": 98
        },
        {
            "deltaTime": 0,
            "channel": 0,
            "type": "noteOn",
            "noteNumber": 57,
            "velocity": 105
        },
        {
            "deltaTime": 0,
            "channel": 0,
            "type": "noteOn",
            "noteNumber": 64,
            "velocity": 118
        },
        {
            "deltaTime": 328,
            "channel": 0,
            "type": "noteOff",
            "noteNumber": 45,
            "velocity": 0
        },
        {
            "deltaTime": 0,
            "channel": 0,
            "type": "noteOff",
            "noteNumber": 57,
            "velocity": 0
        },
        {
            "deltaTime": 0,
            "channel": 0,
            "type": "noteOff",
            "noteNumber": 76,
            "velocity": 0
        },
        {
            "deltaTime": 0,
            "channel": 0,
            "type": "noteOff",
            "noteNumber": 73,
            "velocity": 0
        },
        {
            "deltaTime": 0,
            "channel": 0,
            "type": "noteOff",
            "noteNumber": 64,
            "velocity": 0
        },
        {
            "deltaTime": 254,
            "channel": 0,
            "type": "noteOn",
            "noteNumber": 61,
            "velocity": 75
        },
        {
            "deltaTime": 0,
            "channel": 0,
            "type": "noteOn",
            "noteNumber": 67,
            "velocity": 72
        },
        {
            "deltaTime": 0,
            "channel": 0,
            "type": "noteOn",
            "noteNumber": 59,
            "velocity": 83
        },
        {
            "deltaTime": 259,
            "channel": 0,
            "type": "noteOff",
            "noteNumber": 67,
            "velocity": 0
        },
        {
            "deltaTime": 20,
            "channel": 0,
            "type": "noteOn",
            "noteNumber": 68,
            "velocity": 96
        },
        {
            "deltaTime": 259,
            "channel": 0,
            "type": "noteOff",
            "noteNumber": 68,
            "velocity": 0
        },
        {
            "deltaTime": 32,
            "channel": 0,
            "type": "noteOn",
            "noteNumber": 40,
            "velocity": 76
        },
        {
            "deltaTime": 0,
            "channel": 0,
            "type": "noteOn",
            "noteNumber": 69,
            "velocity": 92
        },
        {
            "deltaTime": 0,
            "channel": 0,
            "type": "noteOn",
            "noteNumber": 57,
            "velocity": 64
        },
        {
            "deltaTime": 4,
            "channel": 0,
            "type": "noteOff",
            "noteNumber": 59,
            "velocity": 0
        },
        {
            "deltaTime": 0,
            "channel": 0,
            "type": "noteOff",
            "noteNumber": 61,
            "velocity": 0
        },
        {
            "deltaTime": 520,
            "channel": 0,
            "type": "noteOff",
            "noteNumber": 57,
            "velocity": 0
        },
        {
            "deltaTime": 0,
            "channel": 0,
            "type": "noteOff",
            "noteNumber": 69,
            "velocity": 0
        },
        {
            "deltaTime": 50,
            "channel": 0,
            "type": "noteOff",
            "noteNumber": 40,
            "velocity": 0
        },
        {
            "deltaTime": 7,
            "channel": 0,
            "type": "noteOn",
            "noteNumber": 56,
            "velocity": 88
        },
        {
            "deltaTime": 0,
            "channel": 0,
            "type": "noteOn",
            "noteNumber": 70,
            "velocity": 56
        },
        {
            "deltaTime": 0,
            "channel": 0,
            "type": "noteOn",
            "noteNumber": 61,
            "velocity": 76
        },
        {
            "deltaTime": 0,
            "channel": 0,
            "type": "noteOn",
            "noteNumber": 64,
            "velocity": 69
        },
        {
            "deltaTime": 279,
            "channel": 0,
            "type": "noteOn",
            "noteNumber": 71,
            "velocity": 63
        },
        {
            "deltaTime": 8,
            "channel": 0,
            "type": "noteOff",
            "noteNumber": 61,
            "velocity": 0
        },
        {
            "deltaTime": 0,
            "channel": 0,
            "type": "noteOff",
            "noteNumber": 64,
            "velocity": 0
        },
        {
            "deltaTime": 0,
            "channel": 0,
            "type": "noteOff",
            "noteNumber": 56,
            "velocity": 0
        },
        {
            "deltaTime": 0,
            "channel": 0,
            "type": "noteOff",
            "noteNumber": 70,
            "velocity": 0
        },
        {
            "deltaTime": 236,
            "channel": 0,
            "type": "noteOff",
            "noteNumber": 71,
            "velocity": 0
        },
        {
            "deltaTime": 46,
            "channel": 0,
            "type": "noteOn",
            "noteNumber": 60,
            "velocity": 68
        },
        {
            "deltaTime": 0,
            "channel": 0,
            "type": "noteOn",
            "noteNumber": 72,
            "velocity": 61
        },
        {
            "deltaTime": 0,
            "channel": 0,
            "type": "noteOn",
            "noteNumber": 44,
            "velocity": 62
        },
        {
            "deltaTime": 348,
            "channel": 0,
            "type": "noteOff",
            "noteNumber": 44,
            "velocity": 0
        },
        {
            "deltaTime": 223,
            "channel": 0,
            "type": "noteOn",
            "noteNumber": 73,
            "velocity": 93
        },
        {
            "deltaTime": 0,
            "channel": 0,
            "type": "noteOn",
            "noteNumber": 64,
            "velocity": 71
        },
        {
            "deltaTime": 0,
            "channel": 0,
            "type": "noteOn",
            "noteNumber": 68,
            "velocity": 54
        },
        {
            "deltaTime": 0,
            "channel": 0,
            "type": "noteOn",
            "noteNumber": 54,
            "velocity": 66
        },
        {
            "deltaTime": 4,
            "channel": 0,
            "type": "noteOff",
            "noteNumber": 72,
            "velocity": 0
        },
        {
            "deltaTime": 0,
            "channel": 0,
            "type": "noteOff",
            "noteNumber": 60,
            "velocity": 0
        },
        {
            "deltaTime": 283,
            "channel": 0,
            "type": "noteOff",
            "noteNumber": 64,
            "velocity": 0
        },
        {
            "deltaTime": 0,
            "channel": 0,
            "type": "noteOff",
            "noteNumber": 73,
            "velocity": 0
        },
        {
            "deltaTime": 3,
            "channel": 0,
            "type": "noteOn",
            "noteNumber": 74,
            "velocity": 91
        },
        {
            "deltaTime": 0,
            "channel": 0,
            "type": "noteOn",
            "noteNumber": 62,
            "velocity": 77
        },
        {
            "deltaTime": 284,
            "channel": 0,
            "type": "noteOff",
            "noteNumber": 54,
            "velocity": 0
        },
        {
            "deltaTime": 0,
            "channel": 0,
            "type": "noteOff",
            "noteNumber": 68,
            "velocity": 0
        },
        {
            "deltaTime": 3,
            "channel": 0,
            "type": "noteOff",
            "noteNumber": 74,
            "velocity": 0
        },
        {
            "deltaTime": 0,
            "channel": 0,
            "type": "noteOff",
            "noteNumber": 62,
            "velocity": 0
        },
        {
            "deltaTime": 3,
            "channel": 0,
            "type": "noteOn",
            "noteNumber": 66,
            "velocity": 90
        },
        {
            "deltaTime": 0,
            "channel": 0,
            "type": "noteOn",
            "noteNumber": 63,
            "velocity": 103
        },
        {
            "deltaTime": 0,
            "channel": 0,
            "type": "noteOn",
            "noteNumber": 48,
            "velocity": 109
        },
        {
            "deltaTime": 24,
            "channel": 0,
            "type": "noteOn",
            "noteNumber": 75,
            "velocity": 105
        },
        {
            "deltaTime": 527,
            "channel": 0,
            "type": "noteOff",
            "noteNumber": 63,
            "velocity": 0
        },
        {
            "deltaTime": 0,
            "channel": 0,
            "type": "noteOff",
            "noteNumber": 66,
            "velocity": 0
        },
        {
            "deltaTime": 19,
            "channel": 0,
            "type": "noteOn",
            "noteNumber": 68,
            "velocity": 100
        },
        {
            "deltaTime": 0,
            "channel": 0,
            "type": "noteOn",
            "noteNumber": 56,
            "velocity": 89
        },
        {
            "deltaTime": 0,
            "channel": 0,
            "type": "noteOn",
            "noteNumber": 76,
            "velocity": 100
        },
        {
            "deltaTime": 4,
            "channel": 0,
            "type": "noteOff",
            "noteNumber": 48,
            "velocity": 0
        },
        {
            "deltaTime": 0,
            "channel": 0,
            "type": "noteOff",
            "noteNumber": 75,
            "velocity": 0
        },
        {
            "deltaTime": 282,
            "channel": 0,
            "type": "noteOff",
            "noteNumber": 76,
            "velocity": 0
        },
        {
            "deltaTime": 0,
            "channel": 0,
            "type": "noteOff",
            "noteNumber": 68,
            "velocity": 0
        },
        {
            "deltaTime": 0,
            "channel": 0,
            "type": "noteOff",
            "noteNumber": 56,
            "velocity": 0
        },
        {
            "deltaTime": 3,
            "channel": 0,
            "type": "noteOn",
            "noteNumber": 78,
            "velocity": 123
        },
        {
            "deltaTime": 187,
            "channel": 0,
            "type": "noteOff",
            "noteNumber": 78,
            "velocity": 0
        },
        {
            "deltaTime": 104,
            "channel": 0,
            "type": "noteOn",
            "noteNumber": 61,
            "velocity": 108
        },
        {
            "deltaTime": 0,
            "channel": 0,
            "type": "noteOn",
            "noteNumber": 49,
            "velocity": 108
        },
        {
            "deltaTime": 0,
            "channel": 0,
            "type": "noteOn",
            "noteNumber": 92,
            "velocity": 110
        },
        {
            "deltaTime": 0,
            "channel": 0,
            "type": "noteOn",
            "noteNumber": 64,
            "velocity": 109
        },
        {
            "deltaTime": 0,
            "channel": 0,
            "type": "noteOn",
            "noteNumber": 75,
            "velocity": 108
        },
        {
            "deltaTime": 0,
            "channel": 0,
            "type": "noteOn",
            "noteNumber": 80,
            "velocity": 116
        },
        {
            "deltaTime": 331,
            "channel": 0,
            "type": "noteOff",
            "noteNumber": 75,
            "velocity": 0
        },
        {
            "deltaTime": 0,
            "channel": 0,
            "type": "noteOff",
            "noteNumber": 49,
            "velocity": 0
        },
        {
            "deltaTime": 0,
            "channel": 0,
            "type": "noteOff",
            "noteNumber": 61,
            "velocity": 0
        },
        {
            "deltaTime": 9,
            "channel": 0,
            "type": "noteOff",
            "noteNumber": 80,
            "velocity": 0
        },
        {
            "deltaTime": 0,
            "channel": 0,
            "type": "noteOff",
            "noteNumber": 64,
            "velocity": 0
        },
        {
            "deltaTime": 0,
            "channel": 0,
            "type": "noteOff",
            "noteNumber": 92,
            "velocity": 0
        },
        {
            "deltaTime": 230,
            "channel": 0,
            "type": "noteOn",
            "noteNumber": 64,
            "velocity": 55
        },
        {
            "deltaTime": 0,
            "channel": 0,
            "type": "noteOn",
            "noteNumber": 68,
            "velocity": 55
        },
        {
            "deltaTime": 0,
            "channel": 0,
            "type": "noteOn",
            "noteNumber": 78,
            "velocity": 76
        },
        {
            "deltaTime": 0,
            "channel": 0,
            "type": "noteOn",
            "noteNumber": 63,
            "velocity": 55
        },
        {
            "deltaTime": 194,
            "channel": 0,
            "type": "noteOn",
            "noteNumber": 76,
            "velocity": 74
        },
        {
            "deltaTime": 9,
            "channel": 0,
            "type": "noteOff",
            "noteNumber": 78,
            "velocity": 0
        },
        {
            "deltaTime": 184,
            "channel": 0,
            "type": "noteOn",
            "noteNumber": 75,
            "velocity": 84
        },
        {
            "deltaTime": 9,
            "channel": 0,
            "type": "noteOff",
            "noteNumber": 76,
            "velocity": 0
        },
        {
            "deltaTime": 172,
            "channel": 0,
            "type": "noteOn",
            "noteNumber": 81,
            "velocity": 85
        },
        {
            "deltaTime": 0,
            "channel": 0,
            "type": "noteOn",
            "noteNumber": 44,
            "velocity": 58
        },
        {
            "deltaTime": 0,
            "channel": 0,
            "type": "noteOn",
            "noteNumber": 69,
            "velocity": 56
        },
        {
            "deltaTime": 0,
            "channel": 0,
            "type": "noteOn",
            "noteNumber": 76,
            "velocity": 71
        },
        {
            "deltaTime": 4,
            "channel": 0,
            "type": "noteOff",
            "noteNumber": 64,
            "velocity": 0
        },
        {
            "deltaTime": 0,
            "channel": 0,
            "type": "noteOff",
            "noteNumber": 68,
            "velocity": 0
        },
        {
            "deltaTime": 0,
            "channel": 0,
            "type": "noteOff",
            "noteNumber": 63,
            "velocity": 0
        },
        {
            "deltaTime": 16,
            "channel": 0,
            "type": "noteOff",
            "noteNumber": 75,
            "velocity": 0
        },
        {
            "deltaTime": 266,
            "channel": 0,
            "type": "noteOff",
            "noteNumber": 76,
            "velocity": 0
        },
        {
            "deltaTime": 0,
            "channel": 0,
            "type": "noteOff",
            "noteNumber": 69,
            "velocity": 0
        },
        {
            "deltaTime": 0,
            "channel": 0,
            "type": "noteOff",
            "noteNumber": 81,
            "velocity": 0
        },
        {
            "deltaTime": 59,
            "channel": 0,
            "type": "noteOff",
            "noteNumber": 44,
            "velocity": 0
        },
        {
            "deltaTime": 235,
            "channel": 0,
            "type": "noteOn",
            "noteNumber": 78,
            "velocity": 60
        },
        {
            "deltaTime": 0,
            "channel": 0,
            "type": "noteOn",
            "noteNumber": 82,
            "velocity": 86
        },
        {
            "deltaTime": 0,
            "channel": 0,
            "type": "noteOn",
            "noteNumber": 87,
            "velocity": 60
        },
        {
            "deltaTime": 0,
            "channel": 0,
            "type": "noteOn",
            "noteNumber": 66,
            "velocity": 64
        },
        {
            "deltaTime": 0,
            "channel": 0,
            "type": "noteOn",
            "noteNumber": 70,
            "velocity": 54
        },
        {
            "deltaTime": 287,
            "channel": 0,
            "type": "noteOff",
            "noteNumber": 66,
            "velocity": 0
        },
        {
            "deltaTime": 0,
            "channel": 0,
            "type": "noteOff",
            "noteNumber": 82,
            "velocity": 0
        },
        {
            "deltaTime": 0,
            "channel": 0,
            "type": "noteOff",
            "noteNumber": 78,
            "velocity": 0
        },
        {
            "deltaTime": 0,
            "channel": 0,
            "type": "noteOff",
            "noteNumber": 87,
            "velocity": 0
        },
        {
            "deltaTime": 0,
            "channel": 0,
            "type": "noteOff",
            "noteNumber": 70,
            "velocity": 0
        },
        {
            "deltaTime": 3,
            "channel": 0,
            "type": "noteOn",
            "noteNumber": 79,
            "velocity": 86
        },
        {
            "deltaTime": 0,
            "channel": 0,
            "type": "noteOn",
            "noteNumber": 61,
            "velocity": 58
        },
        {
            "deltaTime": 0,
            "channel": 0,
            "type": "noteOn",
            "noteNumber": 76,
            "velocity": 51
        },
        {
            "deltaTime": 0,
            "channel": 0,
            "type": "noteOn",
            "noteNumber": 67,
            "velocity": 51
        },
        {
            "deltaTime": 279,
            "channel": 0,
            "type": "noteOn",
            "noteNumber": 69,
            "velocity": 70
        },
        {
            "deltaTime": 0,
            "channel": 0,
            "type": "noteOn",
            "noteNumber": 50,
            "velocity": 74
        },
        {
            "deltaTime": 0,
            "channel": 0,
            "type": "noteOn",
            "noteNumber": 80,
            "velocity": 60
        },
        {
            "deltaTime": 0,
            "channel": 0,
            "type": "noteOn",
            "noteNumber": 72,
            "velocity": 72
        },
        {
            "deltaTime": 0,
            "channel": 0,
            "type": "noteOn",
            "noteNumber": 83,
            "velocity": 78
        },
        {
            "deltaTime": 8,
            "channel": 0,
            "type": "noteOff",
            "noteNumber": 61,
            "velocity": 0
        },
        {
            "deltaTime": 0,
            "channel": 0,
            "type": "noteOff",
            "noteNumber": 67,
            "velocity": 0
        },
        {
            "deltaTime": 0,
            "channel": 0,
            "type": "noteOff",
            "noteNumber": 79,
            "velocity": 0
        },
        {
            "deltaTime": 0,
            "channel": 0,
            "type": "noteOff",
            "noteNumber": 76,
            "velocity": 0
        },
        {
            "deltaTime": 279,
            "channel": 0,
            "type": "noteOff",
            "noteNumber": 69,
            "velocity": 0
        },
        {
            "deltaTime": 0,
            "channel": 0,
            "type": "noteOff",
            "noteNumber": 50,
            "velocity": 0
        },
        {
            "deltaTime": 0,
            "channel": 0,
            "type": "noteOff",
            "noteNumber": 72,
            "velocity": 0
        },
        {
            "deltaTime": 0,
            "channel": 0,
            "type": "noteOff",
            "noteNumber": 83,
            "velocity": 0
        },
        {
            "deltaTime": 0,
            "channel": 0,
            "type": "noteOff",
            "noteNumber": 80,
            "velocity": 0
        },
        {
            "deltaTime": 3,
            "channel": 0,
            "type": "noteOn",
            "noteNumber": 73,
            "velocity": 88
        },
        {
            "deltaTime": 287,
            "channel": 0,
            "type": "noteOff",
            "noteNumber": 73,
            "velocity": 0
        },
        {
            "deltaTime": 3,
            "channel": 0,
            "type": "noteOn",
            "noteNumber": 66,
            "velocity": 81
        },
        {
            "deltaTime": 0,
            "channel": 0,
            "type": "noteOn",
            "noteNumber": 81,
            "velocity": 86
        },
        {
            "deltaTime": 0,
            "channel": 0,
            "type": "noteOn",
            "noteNumber": 76,
            "velocity": 87
        },
        {
            "deltaTime": 0,
            "channel": 0,
            "type": "noteOn",
            "noteNumber": 84,
            "velocity": 91
        },
        {
            "deltaTime": 0,
            "channel": 0,
            "type": "noteOn",
            "noteNumber": 60,
            "velocity": 94
        },
        {
            "deltaTime": 279,
            "channel": 0,
            "type": "noteOn",
            "noteNumber": 78,
            "velocity": 96
        },
        {
            "deltaTime": 8,
            "channel": 0,
            "type": "noteOff",
            "noteNumber": 84,
            "velocity": 0
        },
        {
            "deltaTime": 0,
            "channel": 0,
            "type": "noteOff",
            "noteNumber": 81,
            "velocity": 0
        },
        {
            "deltaTime": 0,
            "channel": 0,
            "type": "noteOff",
            "noteNumber": 60,
            "velocity": 0
        },
        {
            "deltaTime": 0,
            "channel": 0,
            "type": "noteOff",
            "noteNumber": 76,
            "velocity": 0
        },
        {
            "deltaTime": 0,
            "channel": 0,
            "type": "noteOff",
            "noteNumber": 66,
            "velocity": 0
        },
        {
            "deltaTime": 279,
            "channel": 0,
            "type": "noteOff",
            "noteNumber": 78,
            "velocity": 0
        },
        {
            "deltaTime": 3,
            "channel": 0,
            "type": "noteOn",
            "noteNumber": 80,
            "velocity": 87
        },
        {
            "deltaTime": 0,
            "channel": 0,
            "type": "noteOn",
            "noteNumber": 85,
            "velocity": 99
        },
        {
            "deltaTime": 0,
            "channel": 0,
            "type": "noteOn",
            "noteNumber": 45,
            "velocity": 92
        },
        {
            "deltaTime": 0,
            "channel": 0,
            "type": "noteOn",
            "noteNumber": 73,
            "velocity": 103
        },
        {
            "deltaTime": 0,
            "channel": 0,
            "type": "noteOn",
            "noteNumber": 64,
            "velocity": 92
        },
        {
            "deltaTime": 0,
            "channel": 0,
            "type": "noteOn",
            "noteNumber": 57,
            "velocity": 92
        },
        {
            "deltaTime": 287,
            "channel": 0,
            "type": "noteOff",
            "noteNumber": 80,
            "velocity": 0
        },
        {
            "deltaTime": 0,
            "channel": 0,
            "type": "noteOff",
            "noteNumber": 45,
            "velocity": 0
        },
        {
            "deltaTime": 0,
            "channel": 0,
            "type": "noteOff",
            "noteNumber": 64,
            "velocity": 0
        },
        {
            "deltaTime": 0,
            "channel": 0,
            "type": "noteOff",
            "noteNumber": 73,
            "velocity": 0
        },
        {
            "deltaTime": 0,
            "channel": 0,
            "type": "noteOff",
            "noteNumber": 85,
            "velocity": 0
        },
        {
            "deltaTime": 0,
            "channel": 0,
            "type": "noteOff",
            "noteNumber": 57,
            "velocity": 0
        },
        {
            "deltaTime": 3,
            "channel": 0,
            "type": "noteOn",
            "noteNumber": 79,
            "velocity": 95
        },
        {
            "deltaTime": 0,
            "channel": 0,
            "type": "noteOn",
            "noteNumber": 67,
            "velocity": 95
        },
        {
            "deltaTime": 279,
            "channel": 0,
            "type": "noteOn",
            "noteNumber": 72,
            "velocity": 110
        },
        {
            "deltaTime": 0,
            "channel": 0,
            "type": "noteOn",
            "noteNumber": 63,
            "velocity": 111
        },
        {
            "deltaTime": 0,
            "channel": 0,
            "type": "noteOn",
            "noteNumber": 81,
            "velocity": 111
        },
        {
            "deltaTime": 0,
            "channel": 0,
            "type": "noteOn",
            "noteNumber": 54,
            "velocity": 107
        },
        {
            "deltaTime": 0,
            "channel": 0,
            "type": "noteOn",
            "noteNumber": 87,
            "velocity": 117
        },
        {
            "deltaTime": 0,
            "channel": 0,
            "type": "noteOn",
            "noteNumber": 42,
            "velocity": 107
        },
        {
            "deltaTime": 8,
            "channel": 0,
            "type": "noteOff",
            "noteNumber": 79,
            "velocity": 0
        },
        {
            "deltaTime": 0,
            "channel": 0,
            "type": "noteOff",
            "noteNumber": 67,
            "velocity": 0
        },
        {
            "deltaTime": 279,
            "channel": 0,
            "type": "noteOff",
            "noteNumber": 87,
            "velocity": 0
        },
        {
            "deltaTime": 0,
            "channel": 0,
            "type": "noteOff",
            "noteNumber": 81,
            "velocity": 0
        },
        {
            "deltaTime": 0,
            "channel": 0,
            "type": "noteOff",
            "noteNumber": 54,
            "velocity": 0
        },
        {
            "deltaTime": 0,
            "channel": 0,
            "type": "noteOff",
            "noteNumber": 72,
            "velocity": 0
        },
        {
            "deltaTime": 0,
            "channel": 0,
            "type": "noteOff",
            "noteNumber": 63,
            "velocity": 0
        },
        {
            "deltaTime": 0,
            "channel": 0,
            "type": "noteOff",
            "noteNumber": 42,
            "velocity": 0
        },
        {
            "deltaTime": 3,
            "channel": 0,
            "type": "noteOn",
            "noteNumber": 75,
            "velocity": 104
        },
        {
            "deltaTime": 0,
            "channel": 0,
            "type": "noteOn",
            "noteNumber": 82,
            "velocity": 104
        },
        {
            "deltaTime": 267,
            "channel": 0,
            "type": "noteOn",
            "noteNumber": 83,
            "velocity": 110
        },
        {
            "deltaTime": 0,
            "channel": 0,
            "type": "noteOn",
            "noteNumber": 88,
            "velocity": 110
        },
        {
            "deltaTime": 0,
            "channel": 0,
            "type": "noteOn",
            "noteNumber": 73,
            "velocity": 106
        },
        {
            "deltaTime": 0,
            "channel": 0,
            "type": "noteOn",
            "noteNumber": 76,
            "velocity": 117
        },
        {
            "deltaTime": 20,
            "channel": 0,
            "type": "noteOff",
            "noteNumber": 75,
            "velocity": 0
        },
        {
            "deltaTime": 0,
            "channel": 0,
            "type": "noteOff",
            "noteNumber": 82,
            "velocity": 0
        },
        {
            "deltaTime": 3,
            "channel": 0,
            "type": "noteOn",
            "noteNumber": 56,
            "velocity": 109
        },
        {
            "deltaTime": 0,
            "channel": 0,
            "type": "noteOn",
            "noteNumber": 44,
            "velocity": 109
        },
        {
            "deltaTime": 263,
            "channel": 0,
            "type": "noteOff",
            "noteNumber": 73,
            "velocity": 0
        },
        {
            "deltaTime": 0,
            "channel": 0,
            "type": "noteOff",
            "noteNumber": 76,
            "velocity": 0
        },
        {
            "deltaTime": 27,
            "channel": 0,
            "type": "noteOn",
            "noteNumber": 79,
            "velocity": 56
        },
        {
            "deltaTime": 0,
            "channel": 0,
            "type": "noteOn",
            "noteNumber": 75,
            "velocity": 62
        },
        {
            "deltaTime": 260,
            "channel": 0,
            "type": "noteOff",
            "noteNumber": 88,
            "velocity": 0
        },
        {
            "deltaTime": 19,
            "channel": 0,
            "type": "noteOff",
            "noteNumber": 83,
            "velocity": 0
        },
        {
            "deltaTime": 0,
            "channel": 0,
            "type": "noteOn",
            "noteNumber": 80,
            "velocity": 63
        },
        {
            "deltaTime": 0,
            "channel": 0,
            "type": "noteOn",
            "noteNumber": 64,
            "velocity": 74
        },
        {
            "deltaTime": 0,
            "channel": 0,
            "type": "noteOn",
            "noteNumber": 76,
            "velocity": 66
        },
        {
            "deltaTime": 0,
            "channel": 0,
            "type": "noteOn",
            "noteNumber": 68,
            "velocity": 74
        },
        {
            "deltaTime": 4,
            "channel": 0,
            "type": "noteOff",
            "noteNumber": 56,
            "velocity": 0
        },
        {
            "deltaTime": 0,
            "channel": 0,
            "type": "noteOff",
            "noteNumber": 44,
            "velocity": 0
        },
        {
            "deltaTime": 3,
            "channel": 0,
            "type": "noteOff",
            "noteNumber": 75,
            "velocity": 0
        },
        {
            "deltaTime": 0,
            "channel": 0,
            "type": "noteOff",
            "noteNumber": 79,
            "velocity": 0
        },
        {
            "deltaTime": 279,
            "channel": 0,
            "type": "noteOff",
            "noteNumber": 80,
            "velocity": 0
        },
        {
            "deltaTime": 0,
            "channel": 0,
            "type": "noteOff",
            "noteNumber": 76,
            "velocity": 0
        },
        {
            "deltaTime": 3,
            "channel": 0,
            "type": "noteOn",
            "noteNumber": 75,
            "velocity": 74
        },
        {
            "deltaTime": 0,
            "channel": 0,
            "type": "noteOn",
            "noteNumber": 79,
            "velocity": 81
        },
        {
            "deltaTime": 284,
            "channel": 0,
            "type": "noteOff",
            "noteNumber": 68,
            "velocity": 0
        },
        {
            "deltaTime": 0,
            "channel": 0,
            "type": "noteOff",
            "noteNumber": 64,
            "velocity": 0
        },
        {
            "deltaTime": 3,
            "channel": 0,
            "type": "noteOff",
            "noteNumber": 79,
            "velocity": 0
        },
        {
            "deltaTime": 0,
            "channel": 0,
            "type": "noteOff",
            "noteNumber": 75,
            "velocity": 0
        },
        {
            "deltaTime": 3,
            "channel": 0,
            "type": "noteOn",
            "noteNumber": 49,
            "velocity": 76
        },
        {
            "deltaTime": 0,
            "channel": 0,
            "type": "noteOn",
            "noteNumber": 73,
            "velocity": 95
        },
        {
            "deltaTime": 0,
            "channel": 0,
            "type": "noteOn",
            "noteNumber": 76,
            "velocity": 105
        },
        {
            "deltaTime": 0,
            "channel": 0,
            "type": "noteOn",
            "noteNumber": 80,
            "velocity": 98
        },
        {
            "deltaTime": 60,
            "channel": 0,
            "type": "noteOn",
            "noteNumber": 88,
            "velocity": 98
        },
        {
            "deltaTime": 218,
            "channel": 0,
            "type": "noteOn",
            "noteNumber": 70,
            "velocity": 72
        },
        {
            "deltaTime": 6,
            "channel": 0,
            "type": "noteOff",
            "noteNumber": 88,
            "velocity": 0
        },
        {
            "deltaTime": 1,
            "channel": 0,
            "type": "noteOff",
            "noteNumber": 73,
            "velocity": 0
        },
        {
            "deltaTime": 0,
            "channel": 0,
            "type": "noteOff",
            "noteNumber": 49,
            "velocity": 0
        },
        {
            "deltaTime": 0,
            "channel": 0,
            "type": "noteOff",
            "noteNumber": 76,
            "velocity": 0
        },
        {
            "deltaTime": 33,
            "channel": 0,
            "type": "noteOff",
            "noteNumber": 80,
            "velocity": 0
        },
        {
            "deltaTime": 200,
            "channel": 0,
            "type": "noteOn",
            "noteNumber": 91,
            "velocity": 57
        },
        {
            "deltaTime": 44,
            "channel": 0,
            "type": "noteOff",
            "noteNumber": 70,
            "velocity": 0
        },
        {
            "deltaTime": 3,
            "channel": 0,
            "type": "noteOn",
            "noteNumber": 68,
            "velocity": 89
        },
        {
            "deltaTime": 0,
            "channel": 0,
            "type": "noteOn",
            "noteNumber": 63,
            "velocity": 89
        },
        {
            "deltaTime": 0,
            "channel": 0,
            "type": "noteOn",
            "noteNumber": 80,
            "velocity": 101
        },
        {
            "deltaTime": 0,
            "channel": 0,
            "type": "noteOn",
            "noteNumber": 72,
            "velocity": 92
        },
        {
            "deltaTime": 36,
            "channel": 0,
            "type": "noteOn",
            "noteNumber": 92,
            "velocity": 97
        },
        {
            "deltaTime": 42,
            "channel": 0,
            "type": "noteOff",
            "noteNumber": 91,
            "velocity": 0
        },
        {
            "deltaTime": 151,
            "channel": 0,
            "type": "noteOff",
            "noteNumber": 63,
            "velocity": 0
        },
        {
            "deltaTime": 9,
            "channel": 0,
            "type": "noteOff",
            "noteNumber": 68,
            "velocity": 0
        },
        {
            "deltaTime": 12,
            "channel": 0,
            "type": "noteOff",
            "noteNumber": 80,
            "velocity": 0
        },
        {
            "deltaTime": 36,
            "channel": 0,
            "type": "noteOff",
            "noteNumber": 72,
            "velocity": 0
        },
        {
            "deltaTime": 0,
            "channel": 0,
            "type": "noteOff",
            "noteNumber": 92,
            "velocity": 0
        },
        {
            "deltaTime": 3,
            "channel": 0,
            "type": "noteOn",
            "noteNumber": 73,
            "velocity": 86
        },
        {
            "deltaTime": 0,
            "channel": 0,
            "type": "noteOn",
            "noteNumber": 68,
            "velocity": 54
        },
        {
            "deltaTime": 0,
            "channel": 0,
            "type": "noteOn",
            "noteNumber": 61,
            "velocity": 54
        },
        {
            "deltaTime": 0,
            "channel": 0,
            "type": "noteOn",
            "noteNumber": 64,
            "velocity": 54
        },
        {
            "deltaTime": 180,
            "channel": 0,
            "type": "noteOff",
            "noteNumber": 68,
            "velocity": 0
        },
        {
            "deltaTime": 0,
            "channel": 0,
            "type": "noteOff",
            "noteNumber": 61,
            "velocity": 0
        },
        {
            "deltaTime": 0,
            "channel": 0,
            "type": "noteOff",
            "noteNumber": 64,
            "velocity": 0
        },
        {
            "deltaTime": 108,
            "channel": 0,
            "type": "noteOff",
            "noteNumber": 73,
            "velocity": 0
        },
        {
            "deltaTime": 3,
            "channel": 0,
            "type": "noteOn",
            "noteNumber": 51,
            "velocity": 93
        },
        {
            "deltaTime": 0,
            "channel": 0,
            "type": "noteOn",
            "noteNumber": 87,
            "velocity": 101
        },
        {
            "deltaTime": 0,
            "channel": 0,
            "type": "noteOn",
            "noteNumber": 93,
            "velocity": 101
        },
        {
            "deltaTime": 0,
            "channel": 0,
            "type": "noteOn",
            "noteNumber": 78,
            "velocity": 107
        },
        {
            "deltaTime": 0,
            "channel": 0,
            "type": "noteOn",
            "noteNumber": 63,
            "velocity": 93
        },
        {
            "deltaTime": 279,
            "channel": 0,
            "type": "noteOn",
            "noteNumber": 80,
            "velocity": 87
        },
        {
            "deltaTime": 0,
            "channel": 0,
            "type": "noteOn",
            "noteNumber": 73,
            "velocity": 87
        },
        {
            "deltaTime": 8,
            "channel": 0,
            "type": "noteOff",
            "noteNumber": 78,
            "velocity": 0
        },
        {
            "deltaTime": 0,
            "channel": 0,
            "type": "noteOff",
            "noteNumber": 87,
            "velocity": 0
        },
        {
            "deltaTime": 0,
            "channel": 0,
            "type": "noteOff",
            "noteNumber": 93,
            "velocity": 0
        },
        {
            "deltaTime": 279,
            "channel": 0,
            "type": "noteOff",
            "noteNumber": 73,
            "velocity": 0
        },
        {
            "deltaTime": 0,
            "channel": 0,
            "type": "noteOff",
            "noteNumber": 80,
            "velocity": 0
        },
        {
            "deltaTime": 3,
            "channel": 0,
            "type": "noteOn",
            "noteNumber": 68,
            "velocity": 97
        },
        {
            "deltaTime": 0,
            "channel": 0,
            "type": "noteOn",
            "noteNumber": 72,
            "velocity": 97
        },
        {
            "deltaTime": 0,
            "channel": 0,
            "type": "noteOn",
            "noteNumber": 90,
            "velocity": 113
        },
        {
            "deltaTime": 0,
            "channel": 0,
            "type": "noteOn",
            "noteNumber": 78,
            "velocity": 113
        },
        {
            "deltaTime": 0,
            "channel": 0,
            "type": "noteOn",
            "noteNumber": 84,
            "velocity": 113
        },
        {
            "deltaTime": 4,
            "channel": 0,
            "type": "noteOff",
            "noteNumber": 51,
            "velocity": 0
        },
        {
            "deltaTime": 0,
            "channel": 0,
            "type": "noteOff",
            "noteNumber": 63,
            "velocity": 0
        },
        {
            "deltaTime": 283,
            "channel": 0,
            "type": "noteOff",
            "noteNumber": 78,
            "velocity": 0
        },
        {
            "deltaTime": 0,
            "channel": 0,
            "type": "noteOff",
            "noteNumber": 84,
            "velocity": 0
        },
        {
            "deltaTime": 0,
            "channel": 0,
            "type": "noteOff",
            "noteNumber": 90,
            "velocity": 0
        },
        {
            "deltaTime": 3,
            "channel": 0,
            "type": "noteOn",
            "noteNumber": 81,
            "velocity": 71
        },
        {
            "deltaTime": 0,
            "channel": 0,
            "type": "noteOn",
            "noteNumber": 88,
            "velocity": 99
        },
        {
            "deltaTime": 13,
            "channel": 0,
            "type": "noteOff",
            "noteNumber": 68,
            "velocity": 0
        },
        {
            "deltaTime": 0,
            "channel": 0,
            "type": "noteOff",
            "noteNumber": 72,
            "velocity": 0
        },
        {
            "deltaTime": 266,
            "channel": 0,
            "type": "noteOn",
            "noteNumber": 80,
            "velocity": 87
        },
        {
            "deltaTime": 0,
            "channel": 0,
            "type": "noteOn",
            "noteNumber": 87,
            "velocity": 111
        },
        {
            "deltaTime": 0,
            "channel": 0,
            "type": "noteOn",
            "noteNumber": 44,
            "velocity": 94
        },
        {
            "deltaTime": 0,
            "channel": 0,
            "type": "noteOn",
            "noteNumber": 75,
            "velocity": 111
        },
        {
            "deltaTime": 0,
            "channel": 0,
            "type": "noteOn",
            "noteNumber": 56,
            "velocity": 101
        },
        {
            "deltaTime": 8,
            "channel": 0,
            "type": "noteOff",
            "noteNumber": 88,
            "velocity": 0
        },
        {
            "deltaTime": 0,
            "channel": 0,
            "type": "noteOff",
            "noteNumber": 81,
            "velocity": 0
        },
        {
            "deltaTime": 279,
            "channel": 0,
            "type": "noteOff",
            "noteNumber": 87,
            "velocity": 0
        },
        {
            "deltaTime": 0,
            "channel": 0,
            "type": "noteOff",
            "noteNumber": 75,
            "velocity": 0
        },
        {
            "deltaTime": 3,
            "channel": 0,
            "type": "noteOn",
            "noteNumber": 84,
            "velocity": 97
        },
        {
            "deltaTime": 92,
            "channel": 0,
            "type": "noteOff",
            "noteNumber": 80,
            "velocity": 0
        },
        {
            "deltaTime": 0,
            "channel": 0,
            "type": "noteOff",
            "noteNumber": 44,
            "velocity": 0
        },
        {
            "deltaTime": 0,
            "channel": 0,
            "type": "noteOff",
            "noteNumber": 56,
            "velocity": 0
        },
        {
            "deltaTime": 195,
            "channel": 0,
            "type": "noteOff",
            "noteNumber": 84,
            "velocity": 0
        },
        {
            "deltaTime": 3,
            "channel": 0,
            "type": "noteOn",
            "noteNumber": 81,
            "velocity": 93
        },
        {
            "deltaTime": 0,
            "channel": 0,
            "type": "noteOn",
            "noteNumber": 72,
            "velocity": 93
        },
        {
            "deltaTime": 0,
            "channel": 0,
            "type": "noteOn",
            "noteNumber": 69,
            "velocity": 93
        },
        {
            "deltaTime": 0,
            "channel": 0,
            "type": "noteOn",
            "noteNumber": 63,
            "velocity": 93
        },
        {
            "deltaTime": 279,
            "channel": 0,
            "type": "noteOn",
            "noteNumber": 78,
            "velocity": 104
        },
        {
            "deltaTime": 8,
            "channel": 0,
            "type": "noteOff",
            "noteNumber": 63,
            "velocity": 0
        },
        {
            "deltaTime": 0,
            "channel": 0,
            "type": "noteOff",
            "noteNumber": 72,
            "velocity": 0
        },
        {
            "deltaTime": 0,
            "channel": 0,
            "type": "noteOff",
            "noteNumber": 81,
            "velocity": 0
        },
        {
            "deltaTime": 0,
            "channel": 0,
            "type": "noteOff",
            "noteNumber": 69,
            "velocity": 0
        },
        {
            "deltaTime": 246,
            "channel": 0,
            "type": "noteOn",
            "noteNumber": 79,
            "velocity": 112
        },
        {
            "deltaTime": 32,
            "channel": 0,
            "type": "noteOff",
            "noteNumber": 78,
            "velocity": 0
        },
        {
            "deltaTime": 3,
            "channel": 0,
            "type": "noteOn",
            "noteNumber": 52,
            "velocity": 107
        },
        {
            "deltaTime": 0,
            "channel": 0,
            "type": "noteOn",
            "noteNumber": 76,
            "velocity": 119
        },
        {
            "deltaTime": 0,
            "channel": 0,
            "type": "noteOn",
            "noteNumber": 88,
            "velocity": 112
        },
        {
            "deltaTime": 0,
            "channel": 0,
            "type": "noteOn",
            "noteNumber": 40,
            "velocity": 107
        },
        {
            "deltaTime": 285,
            "channel": 0,
            "type": "noteOff",
            "noteNumber": 79,
            "velocity": 0
        },
        {
            "deltaTime": 2,
            "channel": 0,
            "type": "noteOff",
            "noteNumber": 88,
            "velocity": 0
        },
        {
            "deltaTime": 0,
            "channel": 0,
            "type": "noteOff",
            "noteNumber": 76,
            "velocity": 0
        },
        {
            "deltaTime": 3,
            "channel": 0,
            "type": "noteOn",
            "noteNumber": 87,
            "velocity": 94
        },
        {
            "deltaTime": 0,
            "channel": 0,
            "type": "noteOn",
            "noteNumber": 78,
            "velocity": 94
        },
        {
            "deltaTime": 284,
            "channel": 0,
            "type": "noteOff",
            "noteNumber": 52,
            "velocity": 0
        },
        {
            "deltaTime": 0,
            "channel": 0,
            "type": "noteOff",
            "noteNumber": 40,
            "velocity": 0
        },
        {
            "deltaTime": 3,
            "channel": 0,
            "type": "noteOff",
            "noteNumber": 87,
            "velocity": 0
        },
        {
            "deltaTime": 0,
            "channel": 0,
            "type": "noteOff",
            "noteNumber": 78,
            "velocity": 0
        },
        {
            "deltaTime": 3,
            "channel": 0,
            "type": "noteOn",
            "noteNumber": 59,
            "velocity": 108
        },
        {
            "deltaTime": 0,
            "channel": 0,
            "type": "noteOn",
            "noteNumber": 55,
            "velocity": 108
        },
        {
            "deltaTime": 0,
            "channel": 0,
            "type": "noteOn",
            "noteNumber": 79,
            "velocity": 98
        },
        {
            "deltaTime": 0,
            "channel": 0,
            "type": "noteOn",
            "noteNumber": 64,
            "velocity": 108
        },
        {
            "deltaTime": 0,
            "channel": 0,
            "type": "noteOn",
            "noteNumber": 88,
            "velocity": 98
        },
        {
            "deltaTime": 279,
            "channel": 0,
            "type": "noteOn",
            "noteNumber": 87,
            "velocity": 87
        },
        {
            "deltaTime": 0,
            "channel": 0,
            "type": "noteOn",
            "noteNumber": 78,
            "velocity": 87
        },
        {
            "deltaTime": 8,
            "channel": 0,
            "type": "noteOff",
            "noteNumber": 79,
            "velocity": 0
        },
        {
            "deltaTime": 0,
            "channel": 0,
            "type": "noteOff",
            "noteNumber": 88,
            "velocity": 0
        },
        {
            "deltaTime": 279,
            "channel": 0,
            "type": "noteOff",
            "noteNumber": 87,
            "velocity": 0
        },
        {
            "deltaTime": 0,
            "channel": 0,
            "type": "noteOff",
            "noteNumber": 78,
            "velocity": 0
        },
        {
            "deltaTime": 3,
            "channel": 0,
            "type": "noteOn",
            "noteNumber": 76,
            "velocity": 116
        },
        {
            "deltaTime": 0,
            "channel": 0,
            "type": "noteOn",
            "noteNumber": 88,
            "velocity": 116
        },
        {
            "deltaTime": 0,
            "channel": 0,
            "type": "noteOn",
            "noteNumber": 47,
            "velocity": 95
        },
        {
            "deltaTime": 4,
            "channel": 0,
            "type": "noteOff",
            "noteNumber": 55,
            "velocity": 0
        },
        {
            "deltaTime": 0,
            "channel": 0,
            "type": "noteOff",
            "noteNumber": 64,
            "velocity": 0
        },
        {
            "deltaTime": 0,
            "channel": 0,
            "type": "noteOff",
            "noteNumber": 59,
            "velocity": 0
        },
        {
            "deltaTime": 283,
            "channel": 0,
            "type": "noteOff",
            "noteNumber": 76,
            "velocity": 0
        },
        {
            "deltaTime": 0,
            "channel": 0,
            "type": "noteOff",
            "noteNumber": 47,
            "velocity": 0
        },
        {
            "deltaTime": 0,
            "channel": 0,
            "type": "noteOff",
            "noteNumber": 88,
            "velocity": 0
        },
        {
            "deltaTime": 3,
            "channel": 0,
            "type": "noteOn",
            "noteNumber": 78,
            "velocity": 95
        },
        {
            "deltaTime": 279,
            "channel": 0,
            "type": "noteOn",
            "noteNumber": 79,
            "velocity": 111
        },
        {
            "deltaTime": 0,
            "channel": 0,
            "type": "noteOn",
            "noteNumber": 63,
            "velocity": 99
        },
        {
            "deltaTime": 0,
            "channel": 0,
            "type": "noteOn",
            "noteNumber": 83,
            "velocity": 111
        },
        {
            "deltaTime": 0,
            "channel": 0,
            "type": "noteOn",
            "noteNumber": 67,
            "velocity": 108
        },
        {
            "deltaTime": 0,
            "channel": 0,
            "type": "noteOn",
            "noteNumber": 59,
            "velocity": 99
        },
        {
            "deltaTime": 0,
            "channel": 0,
            "type": "noteOn",
            "noteNumber": 71,
            "velocity": 111
        },
        {
            "deltaTime": 8,
            "channel": 0,
            "type": "noteOff",
            "noteNumber": 78,
            "velocity": 0
        },
        {
            "deltaTime": 145,
            "channel": 0,
            "type": "noteOff",
            "noteNumber": 67,
            "velocity": 0
        },
        {
            "deltaTime": 0,
            "channel": 0,
            "type": "noteOff",
            "noteNumber": 59,
            "velocity": 0
        },
        {
            "deltaTime": 0,
            "channel": 0,
            "type": "noteOff",
            "noteNumber": 63,
            "velocity": 0
        },
        {
            "deltaTime": 134,
            "channel": 0,
            "type": "noteOff",
            "noteNumber": 79,
            "velocity": 0
        },
        {
            "deltaTime": 0,
            "channel": 0,
            "type": "noteOff",
            "noteNumber": 71,
            "velocity": 0
        },
        {
            "deltaTime": 0,
            "channel": 0,
            "type": "noteOff",
            "noteNumber": 83,
            "velocity": 0
        },
        {
            "deltaTime": 3,
            "channel": 0,
            "type": "noteOn",
            "noteNumber": 63,
            "velocity": 74
        },
        {
            "deltaTime": 0,
            "channel": 0,
            "type": "noteOn",
            "noteNumber": 60,
            "velocity": 74
        },
        {
            "deltaTime": 0,
            "channel": 0,
            "type": "noteOn",
            "noteNumber": 67,
            "velocity": 74
        },
        {
            "deltaTime": 12,
            "channel": 0,
            "type": "noteOn",
            "noteNumber": 80,
            "velocity": 87
        },
        {
            "deltaTime": 275,
            "channel": 0,
            "type": "noteOff",
            "noteNumber": 60,
            "velocity": 0
        },
        {
            "deltaTime": 0,
            "channel": 0,
            "type": "noteOff",
            "noteNumber": 63,
            "velocity": 0
        },
        {
            "deltaTime": 0,
            "channel": 0,
            "type": "noteOff",
            "noteNumber": 67,
            "velocity": 0
        },
        {
            "deltaTime": 3,
            "channel": 0,
            "type": "noteOn",
            "noteNumber": 54,
            "velocity": 105
        },
        {
            "deltaTime": 0,
            "channel": 0,
            "type": "noteOn",
            "noteNumber": 69,
            "velocity": 115
        },
        {
            "deltaTime": 0,
            "channel": 0,
            "type": "noteOn",
            "noteNumber": 81,
            "velocity": 115
        },
        {
            "deltaTime": 0,
            "channel": 0,
            "type": "noteOn",
            "noteNumber": 42,
            "velocity": 105
        },
        {
            "deltaTime": 1,
            "channel": 0,
            "type": "noteOff",
            "noteNumber": 80,
            "velocity": 0
        },
        {
            "deltaTime": 278,
            "channel": 0,
            "type": "noteOn",
            "noteNumber": 79,
            "velocity": 104
        },
        {
            "deltaTime": 8,
            "channel": 0,
            "type": "noteOff",
            "noteNumber": 69,
            "velocity": 0
        },
        {
            "deltaTime": 0,
            "channel": 0,
            "type": "noteOff",
            "noteNumber": 81,
            "velocity": 0
        },
        {
            "deltaTime": 279,
            "channel": 0,
            "type": "noteOff",
            "noteNumber": 79,
            "velocity": 0
        },
        {
            "deltaTime": 3,
            "channel": 0,
            "type": "noteOn",
            "noteNumber": 66,
            "velocity": 118
        },
        {
            "deltaTime": 0,
            "channel": 0,
            "type": "noteOn",
            "noteNumber": 57,
            "velocity": 100
        },
        {
            "deltaTime": 0,
            "channel": 0,
            "type": "noteOn",
            "noteNumber": 72,
            "velocity": 100
        },
        {
            "deltaTime": 0,
            "channel": 0,
            "type": "noteOn",
            "noteNumber": 78,
            "velocity": 116
        },
        {
            "deltaTime": 0,
            "channel": 0,
            "type": "noteOn",
            "noteNumber": 64,
            "velocity": 100
        },
        {
            "deltaTime": 4,
            "channel": 0,
            "type": "noteOff",
            "noteNumber": 54,
            "velocity": 0
        },
        {
            "deltaTime": 0,
            "channel": 0,
            "type": "noteOff",
            "noteNumber": 42,
            "velocity": 0
        },
        {
            "deltaTime": 283,
            "channel": 0,
            "type": "noteOff",
            "noteNumber": 78,
            "velocity": 0
        },
        {
            "deltaTime": 3,
            "channel": 0,
            "type": "noteOn",
            "noteNumber": 76,
            "velocity": 100
        },
        {
            "deltaTime": 284,
            "channel": 0,
            "type": "noteOff",
            "noteNumber": 57,
            "velocity": 0
        },
        {
            "deltaTime": 0,
            "channel": 0,
            "type": "noteOff",
            "noteNumber": 64,
            "velocity": 0
        },
        {
            "deltaTime": 0,
            "channel": 0,
            "type": "noteOff",
            "noteNumber": 66,
            "velocity": 0
        },
        {
            "deltaTime": 0,
            "channel": 0,
            "type": "noteOff",
            "noteNumber": 72,
            "velocity": 0
        },
        {
            "deltaTime": 3,
            "channel": 0,
            "type": "noteOff",
            "noteNumber": 76,
            "velocity": 0
        },
        {
            "deltaTime": 3,
            "channel": 0,
            "type": "noteOn",
            "noteNumber": 78,
            "velocity": 99
        },
        {
            "deltaTime": 0,
            "channel": 0,
            "type": "noteOn",
            "noteNumber": 63,
            "velocity": 116
        },
        {
            "deltaTime": 0,
            "channel": 0,
            "type": "noteOn",
            "noteNumber": 69,
            "velocity": 99
        },
        {
            "deltaTime": 0,
            "channel": 0,
            "type": "noteOn",
            "noteNumber": 59,
            "velocity": 99
        },
        {
            "deltaTime": 0,
            "channel": 0,
            "type": "noteOn",
            "noteNumber": 75,
            "velocity": 116
        },
        {
            "deltaTime": 279,
            "channel": 0,
            "type": "noteOn",
            "noteNumber": 72,
            "velocity": 105
        },
        {
            "deltaTime": 8,
            "channel": 0,
            "type": "noteOff",
            "noteNumber": 69,
            "velocity": 0
        },
        {
            "deltaTime": 0,
            "channel": 0,
            "type": "noteOff",
            "noteNumber": 75,
            "velocity": 0
        },
        {
            "deltaTime": 0,
            "channel": 0,
            "type": "noteOff",
            "noteNumber": 63,
            "velocity": 0
        },
        {
            "deltaTime": 0,
            "channel": 0,
            "type": "noteOff",
            "noteNumber": 78,
            "velocity": 0
        },
        {
            "deltaTime": 0,
            "channel": 0,
            "type": "noteOff",
            "noteNumber": 59,
            "velocity": 0
        },
        {
            "deltaTime": 279,
            "channel": 0,
            "type": "noteOff",
            "noteNumber": 72,
            "velocity": 0
        },
        {
            "deltaTime": 3,
            "channel": 0,
            "type": "noteOn",
            "noteNumber": 71,
            "velocity": 92
        },
        {
            "deltaTime": 0,
            "channel": 0,
            "type": "noteOn",
            "noteNumber": 57,
            "velocity": 92
        },
        {
            "deltaTime": 0,
            "channel": 0,
            "type": "noteOn",
            "noteNumber": 66,
            "velocity": 92
        },
        {
            "deltaTime": 287,
            "channel": 0,
            "type": "noteOff",
            "noteNumber": 66,
            "velocity": 0
        },
        {
            "deltaTime": 0,
            "channel": 0,
            "type": "noteOff",
            "noteNumber": 57,
            "velocity": 0
        },
        {
            "deltaTime": 0,
            "channel": 0,
            "type": "noteOff",
            "noteNumber": 71,
            "velocity": 0
        },
        {
            "deltaTime": 3,
            "channel": 0,
            "type": "noteOn",
            "noteNumber": 69,
            "velocity": 103
        },
        {
            "deltaTime": 279,
            "channel": 0,
            "type": "noteOn",
            "noteNumber": 67,
            "velocity": 110
        },
        {
            "deltaTime": 0,
            "channel": 0,
            "type": "noteOn",
            "noteNumber": 71,
            "velocity": 114
        },
        {
            "deltaTime": 0,
            "channel": 0,
            "type": "noteOn",
            "noteNumber": 43,
            "velocity": 110
        },
        {
            "deltaTime": 0,
            "channel": 0,
            "type": "noteOn",
            "noteNumber": 55,
            "velocity": 110
        },
        {
            "deltaTime": 8,
            "channel": 0,
            "type": "noteOff",
            "noteNumber": 69,
            "velocity": 0
        },
        {
            "deltaTime": 279,
            "channel": 0,
            "type": "noteOff",
            "noteNumber": 43,
            "velocity": 0
        },
        {
            "deltaTime": 0,
            "channel": 0,
            "type": "noteOff",
            "noteNumber": 55,
            "velocity": 0
        },
        {
            "deltaTime": 0,
            "channel": 0,
            "type": "noteOff",
            "noteNumber": 67,
            "velocity": 0
        },
        {
            "deltaTime": 0,
            "channel": 0,
            "type": "noteOff",
            "noteNumber": 71,
            "velocity": 0
        },
        {
            "deltaTime": 3,
            "channel": 0,
            "type": "noteOn",
            "noteNumber": 70,
            "velocity": 93
        },
        {
            "deltaTime": 287,
            "channel": 0,
            "type": "noteOff",
            "noteNumber": 70,
            "velocity": 0
        },
        {
            "deltaTime": 3,
            "channel": 0,
            "type": "noteOn",
            "noteNumber": 71,
            "velocity": 104
        },
        {
            "deltaTime": 279,
            "channel": 0,
            "type": "noteOn",
            "noteNumber": 72,
            "velocity": 105
        },
        {
            "deltaTime": 8,
            "channel": 0,
            "type": "noteOff",
            "noteNumber": 71,
            "velocity": 0
        },
        {
            "deltaTime": 279,
            "channel": 0,
            "type": "noteOff",
            "noteNumber": 72,
            "velocity": 0
        },
        {
            "deltaTime": 3,
            "channel": 0,
            "type": "noteOn",
            "noteNumber": 44,
            "velocity": 113
        },
        {
            "deltaTime": 0,
            "channel": 0,
            "type": "noteOn",
            "noteNumber": 74,
            "velocity": 115
        },
        {
            "deltaTime": 0,
            "channel": 0,
            "type": "noteOn",
            "noteNumber": 68,
            "velocity": 115
        },
        {
            "deltaTime": 0,
            "channel": 0,
            "type": "noteOn",
            "noteNumber": 32,
            "velocity": 113
        },
        {
            "deltaTime": 0,
            "channel": 0,
            "type": "noteOn",
            "noteNumber": 65,
            "velocity": 115
        },
        {
            "deltaTime": 0,
            "channel": 0,
            "type": "noteOn",
            "noteNumber": 59,
            "velocity": 117
        },
        {
            "deltaTime": 287,
            "channel": 0,
            "type": "noteOff",
            "noteNumber": 32,
            "velocity": 0
        },
        {
            "deltaTime": 0,
            "channel": 0,
            "type": "noteOff",
            "noteNumber": 59,
            "velocity": 0
        },
        {
            "deltaTime": 0,
            "channel": 0,
            "type": "noteOff",
            "noteNumber": 68,
            "velocity": 0
        },
        {
            "deltaTime": 0,
            "channel": 0,
            "type": "noteOff",
            "noteNumber": 74,
            "velocity": 0
        },
        {
            "deltaTime": 0,
            "channel": 0,
            "type": "noteOff",
            "noteNumber": 44,
            "velocity": 0
        },
        {
            "deltaTime": 0,
            "channel": 0,
            "type": "noteOff",
            "noteNumber": 65,
            "velocity": 0
        },
        {
            "deltaTime": 3,
            "channel": 0,
            "type": "noteOn",
            "noteNumber": 72,
            "velocity": 93
        },
        {
            "deltaTime": 287,
            "channel": 0,
            "type": "noteOff",
            "noteNumber": 72,
            "velocity": 0
        },
        {
            "deltaTime": 3,
            "channel": 0,
            "type": "noteOn",
            "noteNumber": 74,
            "velocity": 106
        },
        {
            "deltaTime": 279,
            "channel": 0,
            "type": "noteOn",
            "noteNumber": 75,
            "velocity": 105
        },
        {
            "deltaTime": 8,
            "channel": 0,
            "type": "noteOff",
            "noteNumber": 74,
            "velocity": 0
        },
        {
            "deltaTime": 279,
            "channel": 0,
            "type": "noteOff",
            "noteNumber": 75,
            "velocity": 0
        },
        {
            "deltaTime": 3,
            "channel": 0,
            "type": "noteOn",
            "noteNumber": 60,
            "velocity": 123
        },
        {
            "deltaTime": 0,
            "channel": 0,
            "type": "noteOn",
            "noteNumber": 76,
            "velocity": 119
        },
        {
            "deltaTime": 0,
            "channel": 0,
            "type": "noteOn",
            "noteNumber": 33,
            "velocity": 123
        },
        {
            "deltaTime": 0,
            "channel": 0,
            "type": "noteOn",
            "noteNumber": 57,
            "velocity": 123
        },
        {
            "deltaTime": 0,
            "channel": 0,
            "type": "noteOn",
            "noteNumber": 67,
            "velocity": 119
        },
        {
            "deltaTime": 0,
            "channel": 0,
            "type": "noteOn",
            "noteNumber": 45,
            "velocity": 123
        },
        {
            "deltaTime": 287,
            "channel": 0,
            "type": "noteOff",
            "noteNumber": 67,
            "velocity": 0
        },
        {
            "deltaTime": 0,
            "channel": 0,
            "type": "noteOff",
            "noteNumber": 45,
            "velocity": 0
        },
        {
            "deltaTime": 0,
            "channel": 0,
            "type": "noteOff",
            "noteNumber": 57,
            "velocity": 0
        },
        {
            "deltaTime": 0,
            "channel": 0,
            "type": "noteOff",
            "noteNumber": 60,
            "velocity": 0
        },
        {
            "deltaTime": 0,
            "channel": 0,
            "type": "noteOff",
            "noteNumber": 76,
            "velocity": 0
        },
        {
            "deltaTime": 0,
            "channel": 0,
            "type": "noteOff",
            "noteNumber": 33,
            "velocity": 0
        },
        {
            "deltaTime": 3,
            "channel": 0,
            "type": "noteOn",
            "noteNumber": 72,
            "velocity": 107
        },
        {
            "deltaTime": 279,
            "channel": 0,
            "type": "noteOn",
            "noteNumber": 71,
            "velocity": 119
        },
        {
            "deltaTime": 8,
            "channel": 0,
            "type": "noteOff",
            "noteNumber": 72,
            "velocity": 0
        },
        {
            "deltaTime": 279,
            "channel": 0,
            "type": "noteOff",
            "noteNumber": 71,
            "velocity": 0
        },
        {
            "deltaTime": 3,
            "channel": 0,
            "type": "noteOn",
            "noteNumber": 69,
            "velocity": 112
        },
        {
            "deltaTime": 287,
            "channel": 0,
            "type": "noteOff",
            "noteNumber": 69,
            "velocity": 0
        },
        {
            "deltaTime": 3,
            "channel": 0,
            "type": "noteOn",
            "noteNumber": 66,
            "velocity": 115
        },
        {
            "deltaTime": 0,
            "channel": 0,
            "type": "noteOn",
            "noteNumber": 58,
            "velocity": 122
        },
        {
            "deltaTime": 0,
            "channel": 0,
            "type": "noteOn",
            "noteNumber": 34,
            "velocity": 122
        },
        {
            "deltaTime": 0,
            "channel": 0,
            "type": "noteOn",
            "noteNumber": 46,
            "velocity": 122
        },
        {
            "deltaTime": 287,
            "channel": 0,
            "type": "noteOff",
            "noteNumber": 46,
            "velocity": 0
        },
        {
            "deltaTime": 0,
            "channel": 0,
            "type": "noteOff",
            "noteNumber": 66,
            "velocity": 0
        },
        {
            "deltaTime": 0,
            "channel": 0,
            "type": "noteOff",
            "noteNumber": 58,
            "velocity": 0
        },
        {
            "deltaTime": 0,
            "channel": 0,
            "type": "noteOff",
            "noteNumber": 34,
            "velocity": 0
        },
        {
            "deltaTime": 3,
            "channel": 0,
            "type": "noteOn",
            "noteNumber": 64,
            "velocity": 99
        },
        {
            "deltaTime": 279,
            "channel": 0,
            "type": "noteOn",
            "noteNumber": 61,
            "velocity": 113
        },
        {
            "deltaTime": 8,
            "channel": 0,
            "type": "noteOff",
            "noteNumber": 64,
            "velocity": 0
        },
        {
            "deltaTime": 279,
            "channel": 0,
            "type": "noteOff",
            "noteNumber": 61,
            "velocity": 0
        },
        {
            "deltaTime": 3,
            "channel": 0,
            "type": "noteOn",
            "noteNumber": 58,
            "velocity": 124
        },
        {
            "deltaTime": 287,
            "channel": 0,
            "type": "noteOff",
            "noteNumber": 58,
            "velocity": 0
        },
        {
            "deltaTime": 3,
            "channel": 0,
            "type": "noteOn",
            "noteNumber": 59,
            "velocity": 119
        },
        {
            "deltaTime": 0,
            "channel": 0,
            "type": "noteOn",
            "noteNumber": 47,
            "velocity": 119
        },
        {
            "deltaTime": 0,
            "channel": 0,
            "type": "noteOn",
            "noteNumber": 23,
            "velocity": 119
        },
        {
            "deltaTime": 0,
            "channel": 0,
            "type": "noteOn",
            "noteNumber": 35,
            "velocity": 119
        },
        {
            "deltaTime": 182,
            "channel": 0,
            "type": "noteOn",
            "noteNumber": 51,
            "velocity": 105
        },
        {
            "deltaTime": 28,
            "channel": 0,
            "type": "noteOff",
            "noteNumber": 23,
            "velocity": 0
        },
        {
            "deltaTime": 0,
            "channel": 0,
            "type": "noteOff",
            "noteNumber": 47,
            "velocity": 0
        },
        {
            "deltaTime": 0,
            "channel": 0,
            "type": "noteOff",
            "noteNumber": 59,
            "velocity": 0
        },
        {
            "deltaTime": 0,
            "channel": 0,
            "type": "noteOff",
            "noteNumber": 35,
            "velocity": 0
        },
        {
            "deltaTime": 163,
            "channel": 0,
            "type": "noteOff",
            "noteNumber": 51,
            "velocity": 0
        },
        {
            "deltaTime": 2,
            "channel": 0,
            "type": "noteOn",
            "noteNumber": 54,
            "velocity": 104
        },
        {
            "deltaTime": 191,
            "channel": 0,
            "type": "noteOff",
            "noteNumber": 54,
            "velocity": 0
        },
        {
            "deltaTime": 2,
            "channel": 0,
            "type": "noteOn",
            "noteNumber": 83,
            "velocity": 121
        },
        {
            "deltaTime": 0,
            "channel": 0,
            "type": "noteOn",
            "noteNumber": 95,
            "velocity": 121
        },
        {
            "deltaTime": 0,
            "channel": 0,
            "type": "noteOn",
            "noteNumber": 59,
            "velocity": 90
        },
        {
            "deltaTime": 0,
            "channel": 0,
            "type": "noteOn",
            "noteNumber": 90,
            "velocity": 117
        },
        {
            "deltaTime": 189,
            "channel": 0,
            "type": "noteOff",
            "noteNumber": 90,
            "velocity": 0
        },
        {
            "deltaTime": 0,
            "channel": 0,
            "type": "noteOff",
            "noteNumber": 83,
            "velocity": 0
        },
        {
            "deltaTime": 0,
            "channel": 0,
            "type": "noteOff",
            "noteNumber": 95,
            "velocity": 0
        },
        {
            "deltaTime": 2,
            "channel": 0,
            "type": "noteOff",
            "noteNumber": 59,
            "velocity": 0
        },
        {
            "deltaTime": 2,
            "channel": 0,
            "type": "noteOn",
            "noteNumber": 63,
            "velocity": 112
        },
        {
            "deltaTime": 191,
            "channel": 0,
            "type": "noteOff",
            "noteNumber": 63,
            "velocity": 0
        },
        {
            "deltaTime": 2,
            "channel": 0,
            "type": "noteOn",
            "noteNumber": 69,
            "velocity": 92
        },
        {
            "deltaTime": 182,
            "channel": 0,
            "type": "noteOn",
            "noteNumber": 40,
            "velocity": 119
        },
        {
            "deltaTime": 0,
            "channel": 0,
            "type": "noteOn",
            "noteNumber": 52,
            "velocity": 119
        },
        {
            "deltaTime": 0,
            "channel": 0,
            "type": "noteOn",
            "noteNumber": 71,
            "velocity": 79
        },
        {
            "deltaTime": 9,
            "channel": 0,
            "type": "noteOff",
            "noteNumber": 69,
            "velocity": 0
        },
        {
            "deltaTime": 182,
            "channel": 0,
            "type": "noteOff",
            "noteNumber": 71,
            "velocity": 0
        },
        {
            "deltaTime": 2,
            "channel": 0,
            "type": "noteOn",
            "noteNumber": 72,
            "velocity": 90
        },
        {
            "deltaTime": 16,
            "channel": 0,
            "type": "noteOff",
            "noteNumber": 52,
            "velocity": 0
        },
        {
            "deltaTime": 0,
            "channel": 0,
            "type": "noteOff",
            "noteNumber": 40,
            "velocity": 0
        },
        {
            "deltaTime": 175,
            "channel": 0,
            "type": "noteOff",
            "noteNumber": 72,
            "velocity": 0
        },
        {
            "deltaTime": 2,
            "channel": 0,
            "type": "noteOn",
            "noteNumber": 71,
            "velocity": 102
        },
        {
            "deltaTime": 191,
            "channel": 0,
            "type": "noteOff",
            "noteNumber": 71,
            "velocity": 0
        },
        {
            "deltaTime": 2,
            "channel": 0,
            "type": "noteOn",
            "noteNumber": 76,
            "velocity": 117
        },
        {
            "deltaTime": 0,
            "channel": 0,
            "type": "noteOn",
            "noteNumber": 83,
            "velocity": 117
        },
        {
            "deltaTime": 0,
            "channel": 0,
            "type": "noteOn",
            "noteNumber": 69,
            "velocity": 90
        },
        {
            "deltaTime": 0,
            "channel": 0,
            "type": "noteOn",
            "noteNumber": 88,
            "velocity": 117
        },
        {
            "deltaTime": 189,
            "channel": 0,
            "type": "noteOff",
            "noteNumber": 76,
            "velocity": 0
        },
        {
            "deltaTime": 0,
            "channel": 0,
            "type": "noteOff",
            "noteNumber": 88,
            "velocity": 0
        },
        {
            "deltaTime": 0,
            "channel": 0,
            "type": "noteOff",
            "noteNumber": 83,
            "velocity": 0
        },
        {
            "deltaTime": 2,
            "channel": 0,
            "type": "noteOff",
            "noteNumber": 69,
            "velocity": 0
        },
        {
            "deltaTime": 2,
            "channel": 0,
            "type": "noteOn",
            "noteNumber": 66,
            "velocity": 95
        },
        {
            "deltaTime": 182,
            "channel": 0,
            "type": "noteOn",
            "noteNumber": 64,
            "velocity": 106
        },
        {
            "deltaTime": 9,
            "channel": 0,
            "type": "noteOff",
            "noteNumber": 66,
            "velocity": 0
        },
        {
            "deltaTime": 182,
            "channel": 0,
            "type": "noteOff",
            "noteNumber": 64,
            "velocity": 0
        },
        {
            "deltaTime": 2,
            "channel": 0,
            "type": "noteOn",
            "noteNumber": 45,
            "velocity": 119
        },
        {
            "deltaTime": 0,
            "channel": 0,
            "type": "noteOn",
            "noteNumber": 57,
            "velocity": 119
        },
        {
            "deltaTime": 194,
            "channel": 0,
            "type": "noteOn",
            "noteNumber": 54,
            "velocity": 105
        },
        {
            "deltaTime": 16,
            "channel": 0,
            "type": "noteOff",
            "noteNumber": 57,
            "velocity": 0
        },
        {
            "deltaTime": 0,
            "channel": 0,
            "type": "noteOff",
            "noteNumber": 45,
            "velocity": 0
        },
        {
            "deltaTime": 175,
            "channel": 0,
            "type": "noteOff",
            "noteNumber": 54,
            "velocity": 0
        },
        {
            "deltaTime": 2,
            "channel": 0,
            "type": "noteOn",
            "noteNumber": 57,
            "velocity": 104
        },
        {
            "deltaTime": 191,
            "channel": 0,
            "type": "noteOff",
            "noteNumber": 57,
            "velocity": 0
        },
        {
            "deltaTime": 2,
            "channel": 0,
            "type": "noteOn",
            "noteNumber": 60,
            "velocity": 90
        },
        {
            "deltaTime": 0,
            "channel": 0,
            "type": "noteOn",
            "noteNumber": 81,
            "velocity": 121
        },
        {
            "deltaTime": 0,
            "channel": 0,
            "type": "noteOn",
            "noteNumber": 87,
            "velocity": 121
        },
        {
            "deltaTime": 0,
            "channel": 0,
            "type": "noteOn",
            "noteNumber": 93,
            "velocity": 121
        },
        {
            "deltaTime": 182,
            "channel": 0,
            "type": "noteOn",
            "noteNumber": 63,
            "velocity": 96
        },
        {
            "deltaTime": 9,
            "channel": 0,
            "type": "noteOff",
            "noteNumber": 60,
            "velocity": 0
        },
        {
            "deltaTime": 96,
            "channel": 0,
            "type": "noteOff",
            "noteNumber": 93,
            "velocity": 0
        },
        {
            "deltaTime": 0,
            "channel": 0,
            "type": "noteOff",
            "noteNumber": 81,
            "velocity": 0
        },
        {
            "deltaTime": 0,
            "channel": 0,
            "type": "noteOff",
            "noteNumber": 87,
            "velocity": 0
        },
        {
            "deltaTime": 86,
            "channel": 0,
            "type": "noteOff",
            "noteNumber": 63,
            "velocity": 0
        },
        {
            "deltaTime": 2,
            "channel": 0,
            "type": "noteOn",
            "noteNumber": 67,
            "velocity": 96
        },
        {
            "deltaTime": 191,
            "channel": 0,
            "type": "noteOff",
            "noteNumber": 67,
            "velocity": 0
        },
        {
            "deltaTime": 2,
            "channel": 0,
            "type": "noteOn",
            "noteNumber": 36,
            "velocity": 119
        },
        {
            "deltaTime": 0,
            "channel": 0,
            "type": "noteOn",
            "noteNumber": 70,
            "velocity": 109
        },
        {
            "deltaTime": 0,
            "channel": 0,
            "type": "noteOn",
            "noteNumber": 48,
            "velocity": 119
        },
        {
            "deltaTime": 192,
            "channel": 0,
            "type": "noteOff",
            "noteNumber": 70,
            "velocity": 0
        },
        {
            "deltaTime": 2,
            "channel": 0,
            "type": "noteOn",
            "noteNumber": 67,
            "velocity": 90
        },
        {
            "deltaTime": 16,
            "channel": 0,
            "type": "noteOff",
            "noteNumber": 36,
            "velocity": 0
        },
        {
            "deltaTime": 0,
            "channel": 0,
            "type": "noteOff",
            "noteNumber": 48,
            "velocity": 0
        },
        {
            "deltaTime": 175,
            "channel": 0,
            "type": "noteOff",
            "noteNumber": 67,
            "velocity": 0
        },
        {
            "deltaTime": 2,
            "channel": 0,
            "type": "noteOn",
            "noteNumber": 64,
            "velocity": 90
        },
        {
            "deltaTime": 182,
            "channel": 0,
            "type": "noteOn",
            "noteNumber": 60,
            "velocity": 104
        },
        {
            "deltaTime": 9,
            "channel": 0,
            "type": "noteOff",
            "noteNumber": 64,
            "velocity": 0
        },
        {
            "deltaTime": 2,
            "channel": 0,
            "type": "noteOn",
            "noteNumber": 72,
            "velocity": 116
        },
        {
            "deltaTime": 0,
            "channel": 0,
            "type": "noteOn",
            "noteNumber": 84,
            "velocity": 116
        },
        {
            "deltaTime": 179,
            "channel": 0,
            "type": "noteOff",
            "noteNumber": 60,
            "velocity": 0
        },
        {
            "deltaTime": 2,
            "channel": 0,
            "type": "noteOn",
            "noteNumber": 64,
            "velocity": 106
        },
        {
            "deltaTime": 105,
            "channel": 0,
            "type": "noteOff",
            "noteNumber": 72,
            "velocity": 0
        },
        {
            "deltaTime": 0,
            "channel": 0,
            "type": "noteOff",
            "noteNumber": 84,
            "velocity": 0
        },
        {
            "deltaTime": 86,
            "channel": 0,
            "type": "noteOff",
            "noteNumber": 64,
            "velocity": 0
        },
        {
            "deltaTime": 2,
            "channel": 0,
            "type": "noteOn",
            "noteNumber": 58,
            "velocity": 109
        },
        {
            "deltaTime": 191,
            "channel": 0,
            "type": "noteOff",
            "noteNumber": 58,
            "velocity": 0
        },
        {
            "deltaTime": 2,
            "channel": 0,
            "type": "noteOn",
            "noteNumber": 55,
            "velocity": 116
        },
        {
            "deltaTime": 0,
            "channel": 0,
            "type": "noteOn",
            "noteNumber": 67,
            "velocity": 116
        },
        {
            "deltaTime": 0,
            "channel": 0,
            "type": "noteOn",
            "noteNumber": 76,
            "velocity": 104
        },
        {
            "deltaTime": 0,
            "channel": 0,
            "type": "noteOn",
            "noteNumber": 83,
            "velocity": 91
        },
        {
            "deltaTime": 0,
            "channel": 0,
            "type": "noteOn",
            "noteNumber": 43,
            "velocity": 116
        },
        {
            "deltaTime": 191,
            "channel": 0,
            "type": "noteOff",
            "noteNumber": 55,
            "velocity": 0
        },
        {
            "deltaTime": 0,
            "channel": 0,
            "type": "noteOff",
            "noteNumber": 83,
            "velocity": 0
        },
        {
            "deltaTime": 0,
            "channel": 0,
            "type": "noteOff",
            "noteNumber": 67,
            "velocity": 0
        },
        {
            "deltaTime": 0,
            "channel": 0,
            "type": "noteOff",
            "noteNumber": 43,
            "velocity": 0
        },
        {
            "deltaTime": 0,
            "channel": 0,
            "type": "noteOff",
            "noteNumber": 76,
            "velocity": 0
        },
        {
            "deltaTime": 2,
            "channel": 0,
            "type": "noteOn",
            "noteNumber": 78,
            "velocity": 104
        },
        {
            "deltaTime": 182,
            "channel": 0,
            "type": "noteOn",
            "noteNumber": 84,
            "velocity": 79
        },
        {
            "deltaTime": 0,
            "channel": 0,
            "type": "noteOn",
            "noteNumber": 76,
            "velocity": 79
        },
        {
            "deltaTime": 9,
            "channel": 0,
            "type": "noteOff",
            "noteNumber": 78,
            "velocity": 0
        },
        {
            "deltaTime": 182,
            "channel": 0,
            "type": "noteOff",
            "noteNumber": 84,
            "velocity": 0
        },
        {
            "deltaTime": 0,
            "channel": 0,
            "type": "noteOff",
            "noteNumber": 76,
            "velocity": 0
        },
        {
            "deltaTime": 2,
            "channel": 0,
            "type": "noteOn",
            "noteNumber": 75,
            "velocity": 96
        },
        {
            "deltaTime": 0,
            "channel": 0,
            "type": "noteOn",
            "noteNumber": 54,
            "velocity": 113
        },
        {
            "deltaTime": 0,
            "channel": 0,
            "type": "noteOn",
            "noteNumber": 85,
            "velocity": 36
        },
        {
            "deltaTime": 0,
            "channel": 0,
            "type": "noteOn",
            "noteNumber": 42,
            "velocity": 113
        },
        {
            "deltaTime": 0,
            "channel": 0,
            "type": "noteOn",
            "noteNumber": 66,
            "velocity": 113
        },
        {
            "deltaTime": 191,
            "channel": 0,
            "type": "noteOff",
            "noteNumber": 54,
            "velocity": 0
        },
        {
            "deltaTime": 0,
            "channel": 0,
            "type": "noteOff",
            "noteNumber": 42,
            "velocity": 0
        },
        {
            "deltaTime": 0,
            "channel": 0,
            "type": "noteOff",
            "noteNumber": 85,
            "velocity": 0
        },
        {
            "deltaTime": 0,
            "channel": 0,
            "type": "noteOff",
            "noteNumber": 75,
            "velocity": 0
        },
        {
            "deltaTime": 0,
            "channel": 0,
            "type": "noteOff",
            "noteNumber": 66,
            "velocity": 0
        },
        {
            "deltaTime": 2,
            "channel": 0,
            "type": "noteOn",
            "noteNumber": 86,
            "velocity": 75
        },
        {
            "deltaTime": 191,
            "channel": 0,
            "type": "noteOff",
            "noteNumber": 86,
            "velocity": 0
        },
        {
            "deltaTime": 2,
            "channel": 0,
            "type": "noteOn",
            "noteNumber": 87,
            "velocity": 56
        },
        {
            "deltaTime": 191,
            "channel": 0,
            "type": "noteOff",
            "noteNumber": 87,
            "velocity": 0
        },
        {
            "deltaTime": 2,
            "channel": 0,
            "type": "noteOn",
            "noteNumber": 40,
            "velocity": 117
        },
        {
            "deltaTime": 0,
            "channel": 0,
            "type": "noteOn",
            "noteNumber": 64,
            "velocity": 117
        },
        {
            "deltaTime": 0,
            "channel": 0,
            "type": "noteOn",
            "noteNumber": 52,
            "velocity": 117
        },
        {
            "deltaTime": 0,
            "channel": 0,
            "type": "noteOn",
            "noteNumber": 82,
            "velocity": 76
        },
        {
            "deltaTime": 0,
            "channel": 0,
            "type": "noteOn",
            "noteNumber": 88,
            "velocity": 77
        },
        {
            "deltaTime": 191,
            "channel": 0,
            "type": "noteOff",
            "noteNumber": 82,
            "velocity": 0
        },
        {
            "deltaTime": 0,
            "channel": 0,
            "type": "noteOff",
            "noteNumber": 64,
            "velocity": 0
        },
        {
            "deltaTime": 0,
            "channel": 0,
            "type": "noteOff",
            "noteNumber": 52,
            "velocity": 0
        },
        {
            "deltaTime": 0,
            "channel": 0,
            "type": "noteOff",
            "noteNumber": 40,
            "velocity": 0
        },
        {
            "deltaTime": 0,
            "channel": 0,
            "type": "noteOff",
            "noteNumber": 88,
            "velocity": 0
        },
        {
            "deltaTime": 2,
            "channel": 0,
            "type": "noteOn",
            "noteNumber": 89,
            "velocity": 88
        },
        {
            "deltaTime": 182,
            "channel": 0,
            "type": "noteOn",
            "noteNumber": 90,
            "velocity": 82
        },
        {
            "deltaTime": 9,
            "channel": 0,
            "type": "noteOff",
            "noteNumber": 89,
            "velocity": 0
        },
        {
            "deltaTime": 182,
            "channel": 0,
            "type": "noteOff",
            "noteNumber": 90,
            "velocity": 0
        },
        {
            "deltaTime": 2,
            "channel": 0,
            "type": "noteOn",
            "noteNumber": 51,
            "velocity": 118
        },
        {
            "deltaTime": 0,
            "channel": 0,
            "type": "noteOn",
            "noteNumber": 39,
            "velocity": 118
        },
        {
            "deltaTime": 0,
            "channel": 0,
            "type": "noteOn",
            "noteNumber": 63,
            "velocity": 114
        },
        {
            "deltaTime": 0,
            "channel": 0,
            "type": "noteOn",
            "noteNumber": 91,
            "velocity": 87
        },
        {
            "deltaTime": 0,
            "channel": 0,
            "type": "noteOn",
            "noteNumber": 85,
            "velocity": 114
        },
        {
            "deltaTime": 191,
            "channel": 0,
            "type": "noteOff",
            "noteNumber": 85,
            "velocity": 0
        },
        {
            "deltaTime": 0,
            "channel": 0,
            "type": "noteOff",
            "noteNumber": 51,
            "velocity": 0
        },
        {
            "deltaTime": 0,
            "channel": 0,
            "type": "noteOff",
            "noteNumber": 39,
            "velocity": 0
        },
        {
            "deltaTime": 0,
            "channel": 0,
            "type": "noteOff",
            "noteNumber": 91,
            "velocity": 0
        },
        {
            "deltaTime": 0,
            "channel": 0,
            "type": "noteOff",
            "noteNumber": 63,
            "velocity": 0
        },
        {
            "deltaTime": 2,
            "channel": 0,
            "type": "noteOn",
            "noteNumber": 93,
            "velocity": 94
        },
        {
            "deltaTime": 191,
            "channel": 0,
            "type": "noteOff",
            "noteNumber": 93,
            "velocity": 0
        },
        {
            "deltaTime": 2,
            "channel": 0,
            "type": "noteOn",
            "noteNumber": 95,
            "velocity": 106
        },
        {
            "deltaTime": 191,
            "channel": 0,
            "type": "noteOff",
            "noteNumber": 95,
            "velocity": 0
        },
        {
            "deltaTime": 2,
            "channel": 0,
            "type": "noteOn",
            "noteNumber": 64,
            "velocity": 125
        },
        {
            "deltaTime": 0,
            "channel": 0,
            "type": "noteOn",
            "noteNumber": 28,
            "velocity": 125
        },
        {
            "deltaTime": 0,
            "channel": 0,
            "type": "noteOn",
            "noteNumber": 40,
            "velocity": 125
        },
        {
            "deltaTime": 0,
            "channel": 0,
            "type": "noteOn",
            "noteNumber": 88,
            "velocity": 125
        },
        {
            "deltaTime": 0,
            "channel": 0,
            "type": "noteOn",
            "noteNumber": 100,
            "velocity": 125
        },
        {
            "deltaTime": 0,
            "channel": 0,
            "type": "noteOn",
            "noteNumber": 55,
            "velocity": 124
        },
        {
            "deltaTime": 768,
            "channel": 0,
            "type": "noteOff",
            "noteNumber": 28,
            "velocity": 0
        },
        {
            "deltaTime": 0,
            "channel": 0,
            "type": "noteOff",
            "noteNumber": 88,
            "velocity": 0
        },
        {
            "deltaTime": 0,
            "channel": 0,
            "type": "noteOff",
            "noteNumber": 55,
            "velocity": 0
        },
        {
            "deltaTime": 0,
            "channel": 0,
            "type": "noteOff",
            "noteNumber": 100,
            "velocity": 0
        },
        {
            "deltaTime": 0,
            "channel": 0,
            "type": "noteOff",
            "noteNumber": 40,
            "velocity": 0
        },
        {
            "deltaTime": 0,
            "channel": 0,
            "type": "noteOff",
            "noteNumber": 64,
            "velocity": 0
        },
        {
            "deltaTime": 0,
            "meta": true,
            "type": "endOfTrack"
        }]
    ]
}